<?xml version="1.0" encoding="utf-8"?><!DOCTYPE svg PUBLIC "-//W3C//DTD SVG 1.1//EN" "http://www.w3.org/Graphics/SVG/1.1/DTD/svg11.dtd"><svg viewBox="0 0 100 100" xmlns="http://www.w3.org/2000/svg" xmlns:xlink="http://www.w3.org/1999/xlink"><style>:root>svg{display:none}:root>svg:target{display:block}</style><svg fill="none" viewBox="0 0 13 36" id="arrow_active" xmlns="http://www.w3.org/2000/svg"><path d="M.422 32.228l1.844 3.097L12.578 18 2.266.675.422 3.773 8.89 18 .42 32.228z" fill="#3C4651"/></svg><svg fill="none" viewBox="0 0 10 8" id="arrow_down" xmlns="http://www.w3.org/2000/svg"><path d="M8.825.912L5 4.73 1.175.912 0 2.087l5 5 5-5L8.825.912z" fill="#2D3236"/></svg><svg fill="none" viewBox="0 0 10 16" id="arrow_next" xmlns="http://www.w3.org/2000/svg"><path d="M.623 14.098l1.328 1.327L9.376 8 1.95.575.623 1.902 6.721 8 .623 14.098z" fill="#2D3236"/></svg><svg fill="none" viewBox="0 0 16 18" id="arrow_right" xmlns="http://www.w3.org/2000/svg"><path d="M15.5 11.5l-6 6-1.42-1.42 3.59-3.58H.5V.5h2v10h9.17L8.08 6.92 9.5 5.5l6 6z" fill="#fff"/></svg><svg fill="none" viewBox="0 0 22 22" id="baby" xmlns="http://www.w3.org/2000/svg"><g clip-path="url(#aeclip0)" fill="#fff"><path d="M9.425 12.199a2.126 2.126 0 00-2.123-2.124A2.126 2.126 0 005.178 12.2h1.289a.836.836 0 011.67 0h1.288zM14.698 10.075a2.126 2.126 0 00-2.124 2.124h1.29a.836.836 0 011.669 0h1.289a2.126 2.126 0 00-2.124-2.124zM11 15.97c-.815 0-1.58-.436-1.994-1.14l-1.11.655A3.62 3.62 0 0011 17.26a3.62 3.62 0 003.104-1.775l-1.11-.655A2.326 2.326 0 0111 15.97z"/><path d="M21.161 9.916a2.85 2.85 0 00-1.485-.788A9.134 9.134 0 0011 2.823h-.432A1.884 1.884 0 018.686.941h-1.29c0 .704.232 1.355.622 1.882h-.409A1.884 1.884 0 015.727.941H4.438c0 1.4.913 2.591 2.175 3.01a9.12 9.12 0 00-4.289 5.177 2.85 2.85 0 00-1.486.788A2.846 2.846 0 000 11.941c0 .755.291 1.468.82 2.006.414.421.936.699 1.504.807A9.134 9.134 0 0011 21.059a9.134 9.134 0 008.676-6.305 2.845 2.845 0 001.504-.807c.529-.538.82-1.25.82-2.006 0-.764-.298-1.484-.839-2.025zm-1.993 3.599l-.484.009-.126.467A7.84 7.84 0 0111 19.77a7.84 7.84 0 01-7.558-5.78l-.126-.466-.484-.01a1.581 1.581 0 01-1.543-1.573c0-.42.164-.816.46-1.113.29-.29.675-.453 1.083-.46l.484-.01.126-.467A7.84 7.84 0 0111 4.112c1.165 0 2.113.948 2.113 2.113A2.115 2.115 0 0111 8.338a2.115 2.115 0 01-2.113-2.113H7.598A3.406 3.406 0 0011 9.627a3.406 3.406 0 003.402-3.402 3.38 3.38 0 00-.344-1.49 7.833 7.833 0 014.5 5.156l.126.467.484.01c.408.007.793.17 1.082.46.297.297.461.693.461 1.113 0 .852-.692 1.558-1.543 1.574z"/></g><defs><clipPath id="aeclip0"><path fill="#fff" d="M0 0h22v22H0z"/></clipPath></defs></svg><svg fill="none" viewBox="0 0 22 22" id="ball" xmlns="http://www.w3.org/2000/svg"><path d="M17.57 3.368L3.345 17.57l1.036 1.038L18.607 4.406 17.57 3.368z" fill="#fff"/><path d="M4.38 3.368L3.344 4.406 17.57 18.609l1.036-1.038L4.38 3.368z" fill="#fff"/><path d="M13.268 13.44a9.225 9.225 0 00-2.654 7.644l1.456-.172a7.768 7.768 0 012.235-6.436 7.795 7.795 0 016.723-2.19l.232-1.448a9.264 9.264 0 00-7.992 2.601zM10.631.9l-1.463.106a7.806 7.806 0 01-2.284 6.081C5.296 8.697 3.144 9.505.827 9.363l-.09 1.465c.206.012.41.018.614.018 2.512 0 4.829-.956 6.574-2.725A9.268 9.268 0 0010.63.9z" fill="#fff"/><path d="M11 0C4.935 0 0 4.935 0 11s4.935 11 11 11 11-4.935 11-11S17.065 0 11 0zm0 20.533c-5.257 0-9.533-4.276-9.533-9.533S5.743 1.467 11 1.467 20.533 5.743 20.533 11 16.257 20.533 11 20.533z" fill="#fff"/></svg><svg fill="none" viewBox="0 0 22 22" id="bird" xmlns="http://www.w3.org/2000/svg"><g clip-path="url(#agclip0)" fill="#fff"><path d="M15.679.203h-7.49a4.209 4.209 0 00-2.748 1.018L4.408.19a.645.645 0 00-.911.911l1.102 1.102a4.201 4.201 0 00-.637 2.228v6.562a5.102 5.102 0 00-.954.779 5.108 5.108 0 00-1.43 3.556v6.012c0 .356.288.645.644.645L16.42 22a.645.645 0 100-1.29h-5.305a7.513 7.513 0 003.31-6.225v-3.659a4.103 4.103 0 002.04-1.223 4.099 4.099 0 001.065-2.76v-.224h2.25a.645.645 0 00.644-.644V4.948A4.75 4.75 0 0015.679.203zM2.866 15.327c0-.998.38-1.944 1.072-2.663a3.713 3.713 0 012.696-1.153c1.529 0 2.773 1.258 2.773 2.805v1.002c0 1.373-.511 2.68-1.439 3.683a5.295 5.295 0 01-3.485 1.694H2.866v-5.368zm5.277 5.261a6.694 6.694 0 002.553-5.27v-1.002c0-2.257-1.822-4.094-4.062-4.094a5.102 5.102 0 00-1.383.193V4.43A2.941 2.941 0 018.19 1.492h4.947V14.485c0 3.011-2.148 5.53-4.992 6.103zm8.098-13.746a2.81 2.81 0 01-1.816 2.636V6.62h1.816v.223zm2.894-1.512h-4.71V1.492h1.254a3.46 3.46 0 013.456 3.456v.382z"/><path d="M10.356 4.488c-.337 0-.66.296-.645.644.016.35.284.645.645.645.337 0 .66-.296.645-.645-.016-.349-.284-.644-.645-.644z"/></g><defs><clipPath id="agclip0"><path fill="#fff" d="M0 0h22v22H0z"/></clipPath></defs></svg><svg fill="none" viewBox="0 0 80 80" id="box" xmlns="http://www.w3.org/2000/svg"><path d="M54.667 49.333c-.737 0-1.334.597-1.334 1.334v14.666H2.667V28H16a1.333 1.333 0 000-2.667H2.667V14.667H20v20a1.333 1.333 0 00.866 1.253c.15.055.308.081.467.08.383 0 .748-.165 1-.453l2.454-2.8 2.173 2.746c.24.332.63.523 1.04.507a1.332 1.332 0 001.04-.52l2.107-2.733 2.52 2.813c.37.407.953.545 1.466.347.519-.194.863-.687.867-1.24v-20h17.333v10.666H40A1.333 1.333 0 0040 28h13.333v1.333a1.333 1.333 0 002.667 0v-16c0-.736-.597-1.333-1.333-1.333H1.333C.597 12 0 12.597 0 13.333v53.334C0 67.403.597 68 1.333 68h53.334c.736 0 1.333-.597 1.333-1.333v-16c0-.737-.597-1.334-1.333-1.334zM33.333 14.667v16.52l-1.253-1.414a1.334 1.334 0 00-1.04-.44c-.399.013-.77.204-1.013.52l-2.04 2.667-2.107-2.667a1.336 1.336 0 00-1.014-.507 1.333 1.333 0 00-1.012.454l-1.16 1.334V14.667h10.64z" fill="#fff"/><path d="M22.667 50.667v-5.334c0-.736-.597-1.333-1.333-1.333H8c-.736 0-1.333.597-1.333 1.333v5.334C6.667 51.403 7.264 52 8 52h13.334c.736 0 1.333-.597 1.333-1.333zM20 49.333H9.334v-2.666H20v2.666zM17.334 57.333a1.333 1.333 0 000-2.666H8c-.736 0-1.333.597-1.333 1.333v5.333c0 .737.597 1.334 1.333 1.334h9.334a1.333 1.333 0 000-2.667h-8v-2.667h8zM60 17.333h18.667a1.333 1.333 0 000-2.666H60a1.333 1.333 0 000 2.666zM46.667 34.667c0 .736.597 1.333 1.333 1.333h17.334a1.333 1.333 0 000-2.667H48c-.736 0-1.333.597-1.333 1.334zM70.666 25.333a1.333 1.333 0 100-2.666h-8a1.333 1.333 0 000 2.666h8zM76 45.333c0-.736-.597-1.333-1.333-1.333H44a1.333 1.333 0 000 2.667h30.667c.736 0 1.333-.597 1.333-1.334zM78.667 53.333H65.333a1.333 1.333 0 000 2.667h13.334a1.333 1.333 0 000-2.667zM68 60h-8a1.333 1.333 0 000 2.667h8A1.333 1.333 0 0068 60zM49.333 54.667c0-.737-.597-1.334-1.333-1.334h-9.334a1.333 1.333 0 000 2.667H48c.736 0 1.333-.597 1.333-1.333zM40 60a1.333 1.333 0 000 2.667h5.334a1.333 1.333 0 000-2.667H40z" fill="#fff"/></svg><svg fill="none" viewBox="0 0 14 20" id="calc" xmlns="http://www.w3.org/2000/svg"><path fill-rule="evenodd" clip-rule="evenodd" d="M.333 2.5c0-.917.75-1.667 1.667-1.667.916 0 1.666.75 1.666 1.667S2.916 4.167 2 4.167c-.917 0-1.667-.75-1.667-1.667zm5 15c0-.917.75-1.667 1.667-1.667.916 0 1.666.75 1.666 1.667S7.916 19.167 7 19.167c-.917 0-1.667-.75-1.667-1.667zM2 5.833c-.917 0-1.667.75-1.667 1.667S1.083 9.167 2 9.167c.916 0 1.666-.75 1.666-1.667S2.916 5.833 2 5.833zM.333 12.5c0-.917.75-1.667 1.667-1.667.916 0 1.666.75 1.666 1.667S2.916 14.167 2 14.167c-.917 0-1.667-.75-1.667-1.667zM12 4.167c.916 0 1.666-.75 1.666-1.667S12.916.833 12 .833c-.917 0-1.667.75-1.667 1.667s.75 1.667 1.667 1.667zM5.333 12.5c0-.917.75-1.667 1.667-1.667.916 0 1.666.75 1.666 1.667S7.916 14.167 7 14.167c-.917 0-1.667-.75-1.667-1.667zM12 10.833c-.917 0-1.667.75-1.667 1.667s.75 1.667 1.667 1.667c.916 0 1.666-.75 1.666-1.667s-.75-1.667-1.666-1.667zM10.333 7.5c0-.917.75-1.667 1.667-1.667.916 0 1.666.75 1.666 1.667S12.916 9.167 12 9.167c-.917 0-1.667-.75-1.667-1.667zM7 5.833c-.917 0-1.667.75-1.667 1.667S6.083 9.167 7 9.167c.916 0 1.666-.75 1.666-1.667S7.916 5.833 7 5.833zM5.333 2.5c0-.917.75-1.667 1.667-1.667.916 0 1.666.75 1.666 1.667S7.916 4.167 7 4.167c-.917 0-1.667-.75-1.667-1.667z" fill="#384047"/></svg><svg fill="none" viewBox="0 0 22 22" id="car" xmlns="http://www.w3.org/2000/svg"><g clip-path="url(#ajclip0)" fill="#FAFAFA"><path d="M19.619 12.839l-.355-.331c0-.005-.005-.01-.01-.015l-1.43-3.865A1.74 1.74 0 0016.194 7.5H6.065a1.74 1.74 0 00-1.628 1.128L3.02 12.45l-.537.447a2.367 2.367 0 00-.845 1.8v5.57c0 .955.797 1.733 1.752 1.733h1.047c.95 0 1.714-.773 1.714-1.719v-.73h9.699v.716c-.01.95.754 1.723 1.704 1.733h1.057c.955 0 1.752-.778 1.752-1.733v-5.71c0-.652-.269-1.272-.744-1.718zM5.339 8.955a.763.763 0 01.726-.495H16.19a.763.763 0 01.725.495l1.195 3.202h-.734c-.23-1.296-1.378-2.319-2.761-2.319-1.383 0-2.526 1.023-2.751 2.32H4.149l1.19-3.203zm11.058 3.202h-3.553a1.843 1.843 0 012.257-1.296 1.833 1.833 0 011.296 1.296zm-11.201 8.11a.756.756 0 01-.74.773H3.395a.79.79 0 01-.792-.773v-.893c.25.12.518.177.792.177h1.8v.716zm14.212 0a.79.79 0 01-.793.773H17.57a.756.756 0 01-.754-.759v-.73h1.8c.274 0 .548-.057.793-.177v.893zm-.793-1.676H3.395c-.427 0-.792-.34-.792-.768v-3.121c.005-.418.187-.812.504-1.08l.59-.505H18.53l.432.408c.283.27.447.64.447 1.028v3.27c0 .427-.365.768-.793.768z"/><path d="M6.972 14.558H3.995a.482.482 0 00-.48.48v2.065c0 .264.216.48.48.48h2.977c.264 0 .48-.216.48-.48v-2.065a.482.482 0 00-.48-.48zm-.48 2.064H4.475v-1.104h2.017v1.104zM18.015 14.558h-2.977a.482.482 0 00-.48.48v2.065c0 .264.216.48.48.48h2.977c.264 0 .48-.216.48-.48v-2.065a.482.482 0 00-.48-.48zm-.48 2.064h-2.017v-1.104h2.017v1.104zM12.916 16.19H9.09a.482.482 0 00-.48.48c0 .264.215.48.48.48h3.826c.264 0 .48-.215.48-.48a.479.479 0 00-.48-.48zM12.916 14.99H9.09a.482.482 0 00-.48.48c0 .264.215.48.48.48h3.826c.264 0 .48-.216.48-.48a.479.479 0 00-.48-.48zM18.755 2.823a.48.48 0 00.499-.61A2.952 2.952 0 0018.111.591 3.283 3.283 0 0016.234 0c-1.335 0-2.42.682-2.91 1.834H8.542C7.962.874 6.881.24 5.772.24c-.72 0-1.374.207-1.892.59-.557.414-.941 1.028-1.114 1.777a.48.48 0 00.36.576c.048.01.096.015.144.01l1.565-.12c.116.264.116.562 0 .82L3.261 3.77a.479.479 0 00-.5.61c.384 1.33 1.575 2.19 3.035 2.19 1.334 0 2.42-.702 2.91-1.854h4.762c.504.864 1.484 1.599 2.727 1.599.01 0 .02.005.03.005.715 0 1.372-.202 1.891-.581.557-.408.95-1.013 1.133-1.748a.478.478 0 00-.35-.581c-.048-.014-.101-.02-.154-.014l-1.565.12a1.018 1.018 0 010-.821l1.575.13zM16.54 4.312c.101.13.255.201.418.187l1.085-.087c-.37.61-1.008.946-1.83.951-.964.01-1.733-.682-2.03-1.32a.496.496 0 00-.437-.284H8.36a.488.488 0 00-.461.346c-.279.927-1.09 1.508-2.113 1.508-.749 0-1.378-.298-1.772-.816l1.028.086a.483.483 0 00.422-.187l.01-.015c.547-.715.543-1.7-.01-2.4a.47.47 0 00-.417-.183l-1.105.087c.36-.625.994-.97 1.825-.97.835 0 1.676.538 2.05 1.32.082.163.25.269.432.264h5.406a.47.47 0 00.462-.331C14.395 1.54 15.207.97 16.224.97c.744.005 1.373.312 1.767.83l-1.027-.086a.483.483 0 00-.423.187l-.01.015c-.537.71-.532 1.69.01 2.396z"/></g><defs><clipPath id="ajclip0"><path fill="#fff" d="M0 0h22v22H0z"/></clipPath></defs></svg><svg viewBox="0 0 405.272 405.272" id="check" xmlns="http://www.w3.org/2000/svg"><path d="M393.401 124.425L179.603 338.208c-15.832 15.835-41.514 15.835-57.361 0L11.878 227.836c-15.838-15.835-15.838-41.52 0-57.358 15.841-15.841 41.521-15.841 57.355-.006l81.698 81.699L336.037 67.064c15.841-15.841 41.523-15.829 57.358 0 15.835 15.838 15.835 41.514.006 57.361z"/></svg><svg fill="none" viewBox="0 0 22 22" id="close" xmlns="http://www.w3.org/2000/svg"><g filter="url(#alfilter0_d)"><path d="M18 4.41L16.59 3 11 8.59 5.41 3 4 4.41 9.59 10 4 15.59 5.41 17 11 11.41 16.59 17 18 15.59 12.41 10 18 4.41z" fill="#000" fill-opacity=".54"/></g><defs><filter id="alfilter0_d" x="0" y="0" width="22" height="22" filterUnits="userSpaceOnUse" color-interpolation-filters="sRGB"><feFlood flood-opacity="0" result="BackgroundImageFix"/><feColorMatrix in="SourceAlpha" values="0 0 0 0 0 0 0 0 0 0 0 0 0 0 0 0 0 0 127 0"/><feOffset dy="1"/><feGaussianBlur stdDeviation="2"/><feColorMatrix values="0 0 0 0 0 0 0 0 0 0 0 0 0 0 0 0 0 0 0.25 0"/><feBlend in2="BackgroundImageFix" result="effect1_dropShadow"/><feBlend in="SourceGraphic" in2="effect1_dropShadow" result="shape"/></filter></defs></svg><svg fill="none" viewBox="0 0 22 22" id="cream" xmlns="http://www.w3.org/2000/svg"><g clip-path="url(#amclip0)" fill="#fff"><path d="M12.889.695A.645.645 0 0012.246 0H.645a.645.645 0 00-.643.69l1.203 16.801a.645.645 0 00.643.599h.043v2.406c0 .83.674 1.504 1.504 1.504H9.41c.83 0 1.504-.675 1.504-1.504V18.09a.645.645 0 00.643-.594l1.332-16.8zm-2.57 16.106H2.448l-.136-1.9c2.106.8 6.05.804 8.156.014l-.15 1.886zm.267-3.37c-1.563 1.048-6.804 1.045-8.38-.014L1.524 3.91h9.816l-.755 9.52zm.962-12.142l-.105 1.332H1.433L1.336 1.29h10.211zM9.625 20.496a.215.215 0 01-.215.215H3.395a.215.215 0 01-.215-.215V18.09h6.445v2.406z"/><path d="M6.445 6.488a2.581 2.581 0 00-2.578 2.578 2.581 2.581 0 002.578 2.579 2.581 2.581 0 002.578-2.579 2.581 2.581 0 00-2.578-2.578zm0 3.867a1.29 1.29 0 01-1.289-1.289 1.29 1.29 0 012.578 0c0 .711-.578 1.29-1.289 1.29zM20.539 18.192c.979-1.619-.058-4.578-2.701-5.239a.645.645 0 00-.768.83 1.238 1.238 0 01-.877 1.593l-1.618.4a1.85 1.85 0 00-1.264 2.504c-.7.291-1.194.982-1.194 1.787 0 1.066.868 1.933 1.934 1.933h6.015A1.936 1.936 0 0022 20.067c0-.904-.622-1.664-1.461-1.875zm-5.654-1.164l1.618-.4a2.528 2.528 0 001.886-2.043c.75.5 1.226 1.351 1.226 2.295 0 .69-.562 1.253-1.252 1.253H15.02a.561.561 0 01-.135-1.105zm5.181 3.683h-6.015a.645.645 0 010-1.29h6.015a.645.645 0 010 1.29z"/></g><defs><clipPath id="amclip0"><path fill="#fff" d="M0 0h22v22H0z"/></clipPath></defs></svg><svg fill="none" viewBox="0 0 22 22" id="electronics" xmlns="http://www.w3.org/2000/svg"><path d="M13.47 4.727V0H0v22h22V4.727h-8.53zm7.24 3.824H10.14V6.016h10.57V8.55zm-8.529-7.262v3.438h-3.33v3.158H1.29V1.289h10.892zM1.289 20.711V9.174h7.563V20.71H1.289zm8.852 0V9.84h10.57v10.87H10.14z" fill="#fff"/><path d="M15.426 11.688a3.312 3.312 0 00-3.309 3.308 3.312 3.312 0 003.309 3.309 3.312 3.312 0 003.308-3.309 3.312 3.312 0 00-3.308-3.309zm0 5.328a2.022 2.022 0 01-2.02-2.02c0-1.114.906-2.02 2.02-2.02 1.113 0 2.02.906 2.02 2.02 0 1.114-.907 2.02-2.02 2.02zM19.519 6.542h-1.311v1.31h1.31v-1.31zM3.81 4.74H2.52v1.92h1.29V4.74zM3.81 10.398H2.52v1.92h1.29v-1.92z" fill="#fff"/></svg><svg fill="none" viewBox="0 0 24 24" id="file" xmlns="http://www.w3.org/2000/svg"><path fill-rule="evenodd" clip-rule="evenodd" d="M19.5 1.5v3h3v2h-3v2.99s-1.99.01-2 0V6.5h-3s.01-1.99 0-2h3v-3h2zm-2 19h-14v-14h9v-2h-9c-1.1 0-2 .9-2 2v14c0 1.1.9 2 2 2h14c1.1 0 2-.9 2-2v-9h-2v9zm-7.79-3.17l-1.96-2.36L5 18.5h11l-3.54-4.71-2.75 3.54z" fill="#193566"/></svg><svg fill="none" viewBox="0 0 22 22" id="gift" xmlns="http://www.w3.org/2000/svg"><g clip-path="url(#apclip0)"><path d="M21.464 3.995h-5.072c.556-.817.61-1.92.049-2.807a2.559 2.559 0 00-3.527-.792c-.3.19-.804.636-1.688 2.3-.08.149-.155.295-.226.436-.071-.14-.147-.287-.226-.436C9.89 1.032 9.387.586 9.086.396a2.559 2.559 0 00-3.527.792 2.539 2.539 0 00-.334 1.927c.072.32.202.617.381.88H.536v6.24h.754V22h19.42V10.235h.754v-6.24zm-7.86-2.51a1.257 1.257 0 01.955-.166 1.268 1.268 0 01.4 2.306c-.355.225-1.656.35-2.952.37.572-1.163 1.242-2.285 1.597-2.51zm-6.956.392a1.261 1.261 0 011.073-.589c.237 0 .47.067.675.197.355.225 1.025 1.347 1.597 2.51a19.01 19.01 0 01-1.829-.108c-.531-.062-.945-.15-1.123-.262a1.257 1.257 0 01-.558-.792c-.074-.33-.016-.67.165-.956zm1.744 18.834H2.579V10.235h5.813v10.476zm0-11.765H1.825V5.284h6.567v3.662zm3.927 11.765H9.681V5.284h2.638v15.427zm7.102 0h-5.813V10.235h5.813v10.476zm.754-11.765h-6.567V5.284h6.567v3.662z" fill="#fff"/></g><defs><clipPath id="apclip0"><path fill="#fff" d="M0 0h22v22H0z"/></clipPath></defs></svg><svg fill="none" viewBox="0 0 20 12" id="login" xmlns="http://www.w3.org/2000/svg"><path fill-rule="evenodd" clip-rule="evenodd" d="M13.333 11.833h5V8.5H20v-5h-8.9A5.838 5.838 0 005.833.167 5.84 5.84 0 000 6a5.84 5.84 0 005.833 5.833A5.829 5.829 0 0011.1 8.5h2.233v3.333zm3.334-1.666H15V6.833H9.95l-.192.559a4.17 4.17 0 01-3.925 2.775A4.168 4.168 0 011.667 6c0-2.3 1.866-4.167 4.166-4.167a4.17 4.17 0 013.925 2.775l.192.559h8.383v1.666h-1.666v3.334zM5.833 8.5a2.507 2.507 0 01-2.5-2.5c0-1.375 1.125-2.5 2.5-2.5s2.5 1.125 2.5 2.5-1.125 2.5-2.5 2.5zM5 6c0-.458.375-.833.833-.833.459 0 .834.375.834.833a.836.836 0 01-.834.833A.836.836 0 015 6z" fill="#384047"/></svg><svg fill="none" viewBox="0 0 80 80" id="mail" xmlns="http://www.w3.org/2000/svg"><path d="M74.375 7.5H61.25V5.625A3.128 3.128 0 0058.125 2.5h-36.25a3.128 3.128 0 00-3.125 3.125V7.5H5.625a4.38 4.38 0 00-4.375 4.375v51.25A4.38 4.38 0 005.625 67.5h23.778l-1.5 3.75H21.25A1.25 1.25 0 0020 72.5v3.75a1.25 1.25 0 001.25 1.25h37.5A1.25 1.25 0 0060 76.25V72.5a1.25 1.25 0 00-1.25-1.25h-6.653l-1.5-3.75h23.778a4.38 4.38 0 004.375-4.375v-51.25A4.38 4.38 0 0074.375 7.5zM21.25 5.625A.625.625 0 0121.875 5h36.25a.625.625 0 01.625.625v2.353L40 17.353 21.25 7.978V5.625zm0 5.147l18.19 9.097a1.258 1.258 0 001.12 0l18.19-9.097v18.603a.624.624 0 01-.625.625h-36.25a.624.624 0 01-.625-.625V10.772zm-17.5 1.103A1.877 1.877 0 015.625 10H18.75v19.375a3.128 3.128 0 003.125 3.125H33.75v25h-30V11.875zM57.5 73.75V75h-35v-1.25h35zm-26.903-2.5l1.5-3.75h15.806l1.5 3.75H30.597zm45.653-8.125A1.877 1.877 0 0174.375 65H5.625a1.877 1.877 0 01-1.875-1.875V60h72.5v3.125zm0-5.625h-40v-25h2.5v13.75a1.25 1.25 0 002.5 0V32.5h2.5V45a1.25 1.25 0 002.5 0V32.5h11.875a3.128 3.128 0 003.125-3.125V10h13.125a1.877 1.877 0 011.875 1.875V57.5z" fill="#fff"/><path d="M40 48.75A1.25 1.25 0 0038.75 50v1.25a1.25 1.25 0 002.5 0V50A1.25 1.25 0 0040 48.75z" fill="#fff"/></svg><svg fill="none" viewBox="0 0 22 22" id="medicine" xmlns="http://www.w3.org/2000/svg"><path d="M13.57.856H11v1.606h1.766v3.025a4.823 4.823 0 01-4.817 4.817A4.823 4.823 0 013.13 5.487V2.462h1.713V.856H2.328a.803.803 0 00-.803.803v3.828A6.43 6.43 0 007.95 11.91a6.43 6.43 0 006.423-6.423V1.659a.803.803 0 00-.803-.803z" fill="#fff"/><path d="M16.7 12.579v3.8a4.02 4.02 0 01-4.014 4.015A4.02 4.02 0 018.67 16.38v-5.246H7.065v5.245A5.627 5.627 0 0012.685 22a5.627 5.627 0 005.621-5.62v-3.801h-1.605z" fill="#fff"/><path d="M17.504 7.387a2.974 2.974 0 00-2.97 2.97 2.974 2.974 0 002.97 2.972 2.975 2.975 0 002.971-2.971 2.974 2.974 0 00-2.97-2.971zm0 4.336a1.367 1.367 0 01-1.365-1.365c0-.753.612-1.365 1.365-1.365s1.365.612 1.365 1.365c0 .752-.612 1.365-1.365 1.365zM4.818 0a.803.803 0 00-.803.803v1.713a.803.803 0 101.605 0V.803A.803.803 0 004.818 0zM11.027 0a.803.803 0 00-.803.803v1.713a.803.803 0 101.605 0V.803A.803.803 0 0011.026 0z" fill="#fff"/></svg><svg fill="none" viewBox="0 0 30 20" id="menu" xmlns="http://www.w3.org/2000/svg"><path fill-rule="evenodd" clip-rule="evenodd" d="M0 3.333V0h30v3.333H0zm0 8.334h30V8.333H0v3.334zM0 20h30v-3.333H0V20z" fill="#384047"/></svg><svg fill="none" viewBox="0 0 20 20" id="moon" xmlns="http://www.w3.org/2000/svg"><rect width="20" height="20" rx="10" fill="url(#aupaint0_linear)"/><path d="M14.534 1.122a.35.35 0 00-.325 0 .306.306 0 00-.128.428 9.006 9.006 0 010 9.181c-2.68 4.562-8.762 6.205-13.584 3.67a.35.35 0 00-.328 0 .306.306 0 00-.126.429c1.884 3.19 5.444 5.167 9.306 5.17 3.862-.001 7.42-1.979 9.3-5.17 2.866-4.86 1.023-10.998-4.115-13.708z" fill="#F3AA07"/><path d="M8.024 6.833l.327 1.682.327-1.681c.342-1.753.543-1.944 2.396-2.267l1.778-.31-1.777-.308C9.22 3.625 9.02 3.435 8.678 1.682L8.351 0l-.326 1.681c-.342 1.754-.543 1.944-2.397 2.267l-1.777.31 1.777.309c1.854.323 2.055.514 2.396 2.266zM4.363 13.13l.327 1.682.327-1.681c.342-1.753.543-1.944 2.396-2.267l1.778-.31-1.778-.308C5.56 9.922 5.36 9.732 5.017 7.979L4.69 6.297l-.326 1.681c-.343 1.754-.544 1.944-2.397 2.267l-1.778.31 1.778.309c1.853.323 2.054.514 2.396 2.266z" fill="#F3AA07"/><defs><linearGradient id="aupaint0_linear" x1="7.5" y1="7" x2="17.5" y2="17" gradientUnits="userSpaceOnUse"><stop stop-color="#fff" stop-opacity="0"/><stop offset=".524" stop-color="#fff"/></linearGradient></defs></svg><svg fill="none" viewBox="0 0 22 22" id="music" xmlns="http://www.w3.org/2000/svg"><path d="M21.811 1.598L20.405.19a.644.644 0 00-.587-.175l-1.993.415a.643.643 0 00-.4.268l-.8 1.175-.394-.394a.644.644 0 00-.91.91l.566.567-.79 1.16-3.56 3.558a3.8 3.8 0 00-5.24.122 4.577 4.577 0 00-1.19 2.05 5.248 5.248 0 00-3.567 1.537A5.222 5.222 0 000 15.101c0 1.404.547 2.723 1.54 3.716l1.644 1.645a5.24 5.24 0 003.717 1.537 5.248 5.248 0 005.254-5.104 4.578 4.578 0 002.05-1.191 3.771 3.771 0 001.111-2.684c0-.955-.35-1.856-.99-2.556l3.561-3.56 1.152-.795.573.572a.642.642 0 00.91 0 .644.644 0 000-.91l-.405-.405 1.146-.79a.643.643 0 00.262-.386l.459-1.993a.644.644 0 00-.173-.6zm-6.216 3.841l.968.968-6.387 6.387a2.272 2.272 0 00-.97-.967l6.389-6.388zm-8.122 7.707a.975.975 0 011.383 0 .97.97 0 01.286.691.979.979 0 11-1.669-.691zm6.556-.126c0 .67-.26 1.3-.735 1.774a3.301 3.301 0 01-1.886.942.644.644 0 00-.551.689 3.965 3.965 0 01-1.15 3.127 3.973 3.973 0 01-5.612 0L2.45 17.907A3.942 3.942 0 011.287 15.1c0-1.06.413-2.057 1.163-2.806a3.965 3.965 0 013.126-1.15.644.644 0 00.69-.551 3.302 3.302 0 01.942-1.886 2.512 2.512 0 013.418-.12l-3.07 3.069c-.364.1-.707.293-.993.579a2.25 2.25 0 00-.663 1.601c0 .605.235 1.174.663 1.601a2.258 2.258 0 001.602.663 2.258 2.258 0 002.182-1.657l3.068-3.068a2.49 2.49 0 01.614 1.644zm6.298-9.362l-2.778 1.915-1.122-1.122 1.915-2.812 1.398-.292.91.909-.323 1.402zM19.065 13.83a.643.643 0 00-1.12.432v3.866c-.644-.136-1.392.085-1.947.64a2.29 2.29 0 00-.67 1.35c-.06.54.108 1.053.463 1.408.317.317.743.472 1.19.472.544 0 1.12-.23 1.568-.679.378-.377.616-.857.671-1.35l.012-4.04.858.944a2.198 2.198 0 01.524 1.938.644.644 0 101.26.267 3.483 3.483 0 00-.83-3.07l-1.979-2.179zm-1.125 5.996a1.015 1.015 0 01-.301.583c-.337.337-.765.38-.938.207-.105-.106-.104-.268-.094-.355.022-.201.132-.414.301-.583.21-.21.457-.306.654-.306.118 0 .219.035.284.1.105.105.104.266.095.354zM1.666 7.967c.543 0 1.118-.23 1.567-.678.376-.377.614-.856.67-1.35.005-.046.012-5.26.012-5.26a.644.644 0 00-1.288 0V4.1c-.642-.134-1.39.086-1.943.64a2.288 2.288 0 00-.67 1.349c-.06.539.109 1.051.463 1.406.317.317.742.472 1.189.472zm-.373-1.735c.023-.201.132-.413.301-.582.21-.21.455-.305.652-.305.118 0 .218.034.283.099.104.104.104.266.094.353-.023.2-.132.413-.3.581-.337.336-.763.379-.935.207-.105-.105-.104-.266-.095-.353z" fill="#fff"/></svg><svg fill="none" viewBox="0 0 80 80" id="pallet" xmlns="http://www.w3.org/2000/svg"><g clip-path="url(#awclip0)" fill="#fff"><path d="M28.69 34.531h-8.548c-.862 0-1.562-.7-1.562-1.562V16.07h-2.568a1.56 1.56 0 01-1.311-2.413L23.106.712a1.564 1.564 0 012.621 0l8.405 12.946a1.564 1.564 0 01-1.31 2.414h-2.57v16.897c0 .862-.699 1.562-1.562 1.562zm-6.985-3.125h5.423V14.51c0-.863.7-1.563 1.562-1.563h1.254l-5.527-8.514-5.528 8.514h1.253c.863 0 1.563.7 1.563 1.563v16.897zM39.972 80c-.654 0-1.25-.422-1.471-1.037a1.574 1.574 0 01.472-1.727 1.579 1.579 0 011.734-.175c.575.305.908.961.809 1.605A1.579 1.579 0 0139.972 80z"/><path d="M78.438 68.29h-5.71V44.278c0-1.03-.365-1.975-.973-2.713a4.255 4.255 0 00.974-2.713v-22.86a4.28 4.28 0 00-4.276-4.276h-25.74a4.28 4.28 0 00-4.276 4.276v22.86c0 .482.08.946.228 1.378a4.254 4.254 0 00-1.377-.227H11.547a4.28 4.28 0 00-4.276 4.275v24.01H1.563c-.864 0-1.563.7-1.563 1.563v8.585C0 79.302.7 80 1.563 80h31.371a1.562 1.562 0 100-3.125H3.125v-5.46h73.75v5.46H47.066a1.563 1.563 0 000 3.125h31.371c.864 0 1.563-.7 1.563-1.563v-8.585c0-.863-.7-1.563-1.563-1.563zM59.111 14.841v9.756l-2.796-1.485a1.565 1.565 0 00-1.466 0l-2.796 1.485v-9.755h7.058zm-17.55 1.151c0-.634.516-1.15 1.15-1.15h6.217v12.355a1.563 1.563 0 002.295 1.38l4.359-2.316 4.359 2.316a1.562 1.562 0 002.295-1.38V14.842h6.216c.635 0 1.15.517 1.15 1.151v22.86c0 .634-.515 1.15-1.15 1.15h-25.74c-.635 0-1.15-.516-1.15-1.15v-22.86zm10.492 27.136h7.058v9.756l-2.796-1.486a1.564 1.564 0 00-1.466 0l-2.796 1.486v-9.756zm-24.108 0v9.756l-2.797-1.486a1.563 1.563 0 00-1.465 0l-2.797 1.486v-9.756h7.06zm-17.55 1.15c0-.635.516-1.15 1.15-1.15h6.216v12.354a1.563 1.563 0 002.296 1.38l4.36-2.315 4.358 2.315a1.567 1.567 0 001.538-.041c.47-.282.757-.79.757-1.339V43.128h6.217c.634 0 1.15.516 1.15 1.15V68.29H10.395V44.28zm31.166 24.01V44.28c0-.635.516-1.15 1.15-1.15h6.217v12.354a1.563 1.563 0 002.295 1.38l4.359-2.315 4.359 2.315a1.566 1.566 0 001.538-.041c.47-.282.757-.79.757-1.339V43.128h6.216c.635 0 1.15.516 1.15 1.15V68.29h-28.04z"/></g><defs><clipPath id="awclip0"><path fill="#fff" d="M0 0h80v80H0z"/></clipPath></defs></svg><svg fill="none" viewBox="0 0 22 22" id="panties" xmlns="http://www.w3.org/2000/svg"><path d="M21.355 3.667H.645A.645.645 0 000 4.31v7.735c0 .307.217.571.518.632l1.888.377c2.761.552 5.229 2.194 6.769 4.504.12.18.32.287.536.287h2.578a.645.645 0 00.536-.287c1.54-2.31 4.008-3.952 6.769-4.504l1.888-.377a.644.644 0 00.518-.633V4.312a.645.645 0 00-.645-.644zM2.66 11.79l-1.37-.274V7.534h6.307L6.202 13.11a12.021 12.021 0 00-3.543-1.319zm9.291 4.766h-1.9a11.8 11.8 0 00-2.702-2.713l1.577-6.31h4.15l1.577 6.31a11.802 11.802 0 00-2.701 2.713zm8.76-5.04l-1.369.274c-1.25.25-2.447.7-3.543 1.32l-1.394-5.577h6.307v3.983zm0-5.272H1.29v-1.29h19.42v1.29z" fill="#fff"/></svg><svg fill="none" viewBox="0 0 22 22" id="party" xmlns="http://www.w3.org/2000/svg"><g clip-path="url(#ayclip0)" fill="#FAFAFA"><path d="M6.798 6.315a.645.645 0 00-1.06.23L.27 21.128a.645.645 0 00.83.83l14.583-5.469a.645.645 0 00.23-1.06L6.797 6.316zm-.204 1.62l2.648 2.648c.184 2.202 1 4.32 2.33 6.07l-2.757 1.035A10.385 10.385 0 015.981 9.57l.613-1.636zM4.856 19.171a10.24 10.24 0 01-1.576-2.4l1.556-4.15a11.588 11.588 0 002.677 5.554l-2.657.996zm-2.177-.797c.27.446.569.872.897 1.277l-1.601.6.704-1.877zm10.16-2.196a10.355 10.355 0 01-2.033-4.032l3.487 3.486-1.454.546zM15.203 12.038c.251.251.66.251.91 0 2.426-2.425 4.787-1.675 4.81-1.668a.645.645 0 00.408-1.222c-.127-.043-3.147-1.004-6.128 1.978a.644.644 0 000 .912zM10.19 7.025c.251.251.66.251.911 0 2.982-2.982 2.021-6.001 1.979-6.129a.644.644 0 10-1.223.408c.008.024.757 2.385-1.667 4.81a.645.645 0 000 .91zM12.468 8.392a.644.644 0 00.908.915c.333-.166 1.366.456 1.94-.118.568-.568-.035-1.58.116-1.935.355-.151 1.367.453 1.935-.115.568-.569-.035-1.581.116-1.936.355-.151 1.367.453 1.935-.115.568-.568-.035-1.58.115-1.936.354-.15 1.368.453 1.936-.115.574-.574-.047-1.61.117-1.94a.644.644 0 00-.915-.908c-.508.508-.409 1.225-.313 1.738-.512-.096-1.23-.195-1.738.313-.508.507-.408 1.225-.313 1.737-.512-.095-1.23-.195-1.737.313-.508.508-.409 1.225-.313 1.738-.513-.096-1.23-.195-1.738.313s-.409 1.225-.313 1.738c-.513-.096-1.23-.195-1.738.313zM16.114 2.923a.644.644 0 10-.911-.911.644.644 0 00.91.911zM20.216 7.67a.645.645 0 100-1.29.645.645 0 000 1.29zM18.849 12.95a.645.645 0 10.911.91.645.645 0 00-.911-.91zM9.734 3.835a.644.644 0 10-.911-.912.644.644 0 00.911.912z"/></g><defs><clipPath id="ayclip0"><path fill="#fff" d="M0 0h22v22H0z"/></clipPath></defs></svg><svg fill="none" viewBox="0 0 20 20" id="phone" xmlns="http://www.w3.org/2000/svg"><path fill-rule="evenodd" clip-rule="evenodd" d="M3.333 2.5H6.25c.458 0 .833.375.833.833 0 1.042.167 2.042.475 2.975a.836.836 0 01-.208.85L5.517 8.992a12.624 12.624 0 005.491 5.491l1.834-1.833a.854.854 0 01.591-.242.7.7 0 01.259.042 9.506 9.506 0 002.975.475c.458 0 .833.375.833.833v2.909a.836.836 0 01-.833.833C8.842 17.5 2.5 11.158 2.5 3.333c0-.458.375-.833.833-.833zM5.45 4.167c.05.741.175 1.466.375 2.158l-1 1c-.342-1-.558-2.058-.633-3.158H5.45zm8.217 10.016c.708.2 1.433.325 2.166.375V15.8a12.856 12.856 0 01-3.166-.625l1-.992z" fill="#384047"/></svg><svg fill="none" viewBox="0 0 68 68" id="placeholder" xmlns="http://www.w3.org/2000/svg"><path fill-rule="evenodd" clip-rule="evenodd" d="M53.833 8.5H14.167C11.05 8.5 8.5 11.05 8.5 14.167v39.666c0 3.117 2.55 5.667 5.667 5.667h39.666c3.117 0 5.667-2.55 5.667-5.667V14.167c0-3.117-2.55-5.667-5.667-5.667zm0 45.333H14.167V14.167h39.666v39.666zm-22.071-8.981l7.791-10.03 10.03 13.345H18.417l7.791-10.002 5.554 6.687z" fill="#000" fill-opacity=".54"/></svg><svg fill="none" viewBox="0 0 12 18" id="point" xmlns="http://www.w3.org/2000/svg"><path fill-rule="evenodd" clip-rule="evenodd" d="M6 .429c-3.317 0-6 2.682-6 6 0 4.5 6 11.142 6 11.142s6-6.642 6-11.142c0-3.318-2.683-6-6-6zm-4.286 6A4.287 4.287 0 016 2.143a4.287 4.287 0 014.286 4.286c0 2.468-2.469 6.162-4.286 8.468C4.217 12.61 1.714 8.871 1.714 6.43zm2.143 0a2.143 2.143 0 114.286 0 2.143 2.143 0 01-4.286 0z" fill="#384047"/></svg><svg viewBox="0 0 512 512" id="registration" xmlns="http://www.w3.org/2000/svg"><g><path d="M378.575 0H77.99C64.128 0 52.852 11.277 52.852 25.139v9.57H40.506c-13.861 0-25.138 11.277-25.138 25.139v321.316c0 4.143 3.358 7.5 7.5 7.5s7.5-3.357 7.5-7.5V59.848c0-5.591 4.548-10.139 10.138-10.139h300.585c5.59 0 10.138 4.548 10.138 10.139v427.014c0 5.591-4.548 10.139-10.138 10.139H40.506c-5.59 0-10.138-4.548-10.138-10.139v-70.697c0-4.143-3.358-7.5-7.5-7.5s-7.5 3.357-7.5 7.5v70.697c0 13.861 11.277 25.139 25.138 25.139h300.585c13.861 0 25.138-11.277 25.138-25.139v-9.57h12.345c13.861 0 25.138-11.277 25.138-25.139V120.489c0-4.143-3.358-7.5-7.5-7.5s-7.5 3.357-7.5 7.5v331.663c0 5.591-4.548 10.139-10.138 10.139h-9.571V59.848c0-13.861-11.277-25.139-25.138-25.139H67.851v-9.57C67.852 19.548 72.399 15 77.99 15h300.585c5.59 0 10.138 4.548 10.138 10.139V85.49c0 4.143 3.358 7.5 7.5 7.5s7.5-3.357 7.5-7.5V25.139C403.713 11.277 392.436 0 378.575 0zM479.717 148.796h-40.013c-9.327 0-16.915 7.588-16.915 16.915v212.903c0 .145.014.286.022.429.004.078.005.156.012.234.053.6.178 1.178.363 1.729.02.058.043.116.064.174.084.23.179.455.284.675.017.035.028.073.046.108l24.61 49.306c2.398 4.805 6.705 7.674 11.522 7.674s9.124-2.869 11.521-7.673l24.61-49.307c.022-.043.035-.089.056-.132a7.47 7.47 0 00.263-.624c.027-.073.055-.144.079-.217.086-.257.161-.52.219-.789.004-.019.011-.037.015-.056.058-.278.097-.563.123-.852.009-.098.01-.196.015-.294.007-.128.019-.255.019-.385V165.711c0-9.327-7.588-16.915-16.915-16.915zm-20.006 271.97l-17.295-34.651h34.591zm21.921-49.652H437.79V210.732h43.842zm0-175.382H437.79v-30.021c0-1.056.859-1.915 1.915-1.915h40.013c1.056 0 1.915.859 1.915 1.915v30.021z" fill="#fff" data-original="#000000"/><path d="M58.218 456.258c0 8.547 6.953 15.5 15.5 15.5h41.333c8.547 0 15.5-6.953 15.5-15.5v-39.496l17.111-18.203a7.5 7.5 0 00-10.93-10.274l-12.987 13.816a15.405 15.405 0 00-8.694-2.676H73.718c-8.547 0-15.5 6.953-15.5 15.5zm57.333-23.539v23.539a.5.5 0 01-.5.5H92.824c.295-.231.58-.479.841-.756zm-42.333-17.794a.5.5 0 01.5-.5h38.443l-22.91 24.372-13.441-20.483a7.46 7.46 0 00-2.591-2.416v-.973zm0 26.782c9.497 14.472 9.039 14.02 10.351 15.051h-9.851a.5.5 0 01-.5-.5zM315.625 428.091H156.292c-4.142 0-7.5 3.357-7.5 7.5s3.358 7.5 7.5 7.5h159.333c4.142 0 7.5-3.357 7.5-7.5s-3.358-7.5-7.5-7.5zM75.718 242.911h132.959c9.649 0 17.5-7.851 17.5-17.5V92.451c0-9.649-7.851-17.5-17.5-17.5H75.718c-9.649 0-17.5 7.851-17.5 17.5v132.96c0 9.65 7.851 17.5 17.5 17.5zm-2.5-150.46c0-1.379 1.122-2.5 2.5-2.5h132.959c1.378 0 2.5 1.121 2.5 2.5v132.96c0 1.379-1.122 2.5-2.5 2.5H75.718a2.503 2.503 0 01-2.5-2.5z" fill="#fff" data-original="#000000"/><path d="M113 215.89c4.14 0 7.51-3.36 7.51-7.49v-16.2c.02-11.909 9.699-21.627 21.596-21.698l.092.002.094-.002c11.898.07 21.578 9.788 21.598 21.698v8.699H148c-4.13 0-7.5 3.36-7.5 7.5 0 4.13 3.37 7.5 7.5 7.5.01 0 .02 0 .02-.01h23.37c1.97 0 3.91-.8 5.3-2.189 1.4-1.4 2.2-3.33 2.2-5.301V192.2c0-9.811-3.82-19.021-10.75-25.95a37.122 37.122 0 00-4.153-3.583c7.617-6.291 12.48-15.803 12.48-26.43 0-18.896-15.373-34.27-34.269-34.27s-34.269 15.373-34.269 34.27c0 10.626 4.862 20.138 12.478 26.429a37.18 37.18 0 00-4.157 3.585c-6.93 6.93-10.74 16.14-10.74 25.95V208.4c0 1.971.8 3.9 2.19 5.301a7.582 7.582 0 005.3 2.189zm29.198-98.923c10.625 0 19.269 8.645 19.269 19.27 0 10.603-8.609 19.229-19.204 19.265l-.063-.001-.066.002c-10.595-.035-19.205-8.662-19.205-19.265 0-10.627 8.644-19.271 19.269-19.271zM249.337 126.567h66.288c4.142 0 7.5-3.357 7.5-7.5s-3.358-7.5-7.5-7.5h-66.288c-4.142 0-7.5 3.357-7.5 7.5s3.358 7.5 7.5 7.5zM249.337 169.088h66.288c4.142 0 7.5-3.357 7.5-7.5s-3.358-7.5-7.5-7.5h-66.288c-4.142 0-7.5 3.357-7.5 7.5s3.358 7.5 7.5 7.5zM249.337 214.441h66.288c4.142 0 7.5-3.357 7.5-7.5s-3.358-7.5-7.5-7.5h-66.288c-4.142 0-7.5 3.357-7.5 7.5s3.358 7.5 7.5 7.5zM65.718 286.865h249.907c4.142 0 7.5-3.357 7.5-7.5s-3.358-7.5-7.5-7.5H65.718c-4.142 0-7.5 3.357-7.5 7.5s3.358 7.5 7.5 7.5zM65.718 329.385h249.907c4.142 0 7.5-3.357 7.5-7.5s-3.358-7.5-7.5-7.5H65.718c-4.142 0-7.5 3.357-7.5 7.5s3.358 7.5 7.5 7.5zM65.718 371.905h249.907c4.142 0 7.5-3.357 7.5-7.5s-3.358-7.5-7.5-7.5H65.718c-4.142 0-7.5 3.357-7.5 7.5s3.358 7.5 7.5 7.5z" fill="#fff" data-original="#000000"/></g></svg><svg viewBox="0 0 443.294 443.294" id="remove" xmlns="http://www.w3.org/2000/svg"><path d="M270.62 192.521l-48.972 48.977-48.972-48.977-19.589 19.589 48.974 48.979-48.974 48.979 19.589 19.589 48.972-48.977 48.972 48.977 19.589-19.589-48.974-48.979 48.974-48.979z" fill="#012b5b" data-original="#000000"/><path d="M383.824 114.882L273 4.058A13.842 13.842 0 00263.206 0H83.118C67.844 0 55.412 12.432 55.412 27.706v387.882c0 15.273 12.432 27.706 27.706 27.706h277.059c15.273 0 27.706-12.432 27.706-27.706V124.676a13.849 13.849 0 00-4.059-9.794zM277.059 47.295l63.529 63.529h-63.529zm83.117 368.294H83.118V27.707h166.235v83.118c0 15.273 12.432 27.706 27.706 27.706h83.118v277.058z" fill="#012b5b" data-original="#000000"/></svg><svg fill="none" viewBox="0 0 100 100" id="round_mail" xmlns="http://www.w3.org/2000/svg"><g filter="url(#befilter0_d)"><path d="M4 46C4 20.595 24.595 0 50 0s46 20.595 46 46-20.595 46-46 46S4 71.405 4 46z" fill="#fff"/><path fill-rule="evenodd" clip-rule="evenodd" d="M70 26H30c-2.75 0-4.975 2.25-4.975 5L25 61c0 2.75 2.25 5 5 5h40c2.75 0 5-2.25 5-5V31c0-2.75-2.25-5-5-5zM30 36l20 12.5L70 36v25H30V36zm0-5l20 12.5L70 31H30z" fill="#F11"/></g><defs><filter id="befilter0_d" x="0" y="0" width="100" height="100" filterUnits="userSpaceOnUse" color-interpolation-filters="sRGB"><feFlood flood-opacity="0" result="BackgroundImageFix"/><feColorMatrix in="SourceAlpha" values="0 0 0 0 0 0 0 0 0 0 0 0 0 0 0 0 0 0 127 0"/><feOffset dy="4"/><feGaussianBlur stdDeviation="2"/><feColorMatrix values="0 0 0 0 0 0 0 0 0 0 0 0 0 0 0 0 0 0 0.25 0"/><feBlend in2="BackgroundImageFix" result="effect1_dropShadow"/><feBlend in="SourceGraphic" in2="effect1_dropShadow" result="shape"/></filter></defs></svg><svg fill="none" viewBox="0 0 18 18" id="search" xmlns="http://www.w3.org/2000/svg"><path fill-rule="evenodd" clip-rule="evenodd" d="M11.965 11.255h.79l4.99 5-1.49 1.49-5-4.99v-.79l-.27-.28a6.471 6.471 0 01-4.23 1.57 6.5 6.5 0 116.5-6.5c0 1.61-.59 3.09-1.57 4.23l.28.27zm-9.71-4.5c0 2.49 2.01 4.5 4.5 4.5s4.5-2.01 4.5-4.5-2.01-4.5-4.5-4.5-4.5 2.01-4.5 4.5z" fill="#2D3236"/></svg><svg fill="none" viewBox="0 0 80 80" id="share" xmlns="http://www.w3.org/2000/svg"><g opacity=".9" fill="#fff"><path d="M74.375 5H5.625A4.38 4.38 0 001.25 9.375v51.25A4.38 4.38 0 005.625 65h23.778l-1.5 3.75H21.25A1.25 1.25 0 0020 70v3.75A1.25 1.25 0 0021.25 75h37.5A1.25 1.25 0 0060 73.75V70a1.25 1.25 0 00-1.25-1.25h-6.653l-1.5-3.75h23.778a4.38 4.38 0 004.375-4.375V9.375A4.38 4.38 0 0074.375 5zM57.5 71.25v1.25h-35v-1.25h35zm-26.903-2.5l1.5-3.75h15.806l1.5 3.75H30.597zm45.653-8.125a1.877 1.877 0 01-1.875 1.875H5.625a1.877 1.877 0 01-1.875-1.875V57.5h72.5v3.125zm0-5.625H3.75V9.375A1.877 1.877 0 015.625 7.5h68.75a1.877 1.877 0 011.875 1.875V55z"/><path d="M72.5 51.25h-5.648l-8.92-11.15a19.96 19.96 0 00-2.43-21.472l6.323-7.378H72.5a1.25 1.25 0 000-2.5H61.25a1.25 1.25 0 00-.948.436l-6.51 7.594a19.973 19.973 0 00-30.05 2.836l-6.692-5.577a1.257 1.257 0 00-.8-.289H7.5a1.25 1.25 0 000 2.5h8.297l6.605 5.503a19.968 19.968 0 002.146 22.181L21.875 47.5H13.75a1.25 1.25 0 000 2.5h8.75a1.25 1.25 0 001-.5l2.783-3.71a19.976 19.976 0 0030.301-3.371l8.69 10.862a1.25 1.25 0 00.976.469h6.25a1.25 1.25 0 000-2.5zM40 48.75a17.5 17.5 0 1117.5-17.5A17.52 17.52 0 0140 48.75z"/><path d="M54.034 31.358a3.75 3.75 0 00-4.264-.73l-9.148-9.148a3.748 3.748 0 10-5.663 1.362L31.195 35.64a3.75 3.75 0 104.416 4.416l12.797-3.764c.1.13.208.254.323.37a3.75 3.75 0 105.303-5.303zM36.358 18.983a1.25 1.25 0 110 1.767 1.24 1.24 0 010-1.767zm-3.536 21.212a1.25 1.25 0 11-1.768-1.767 1.25 1.25 0 011.768 1.767zm14.814-6.283L35.25 37.555A3.754 3.754 0 0033.695 36l3.643-12.386a3.717 3.717 0 001.52-.363l9.14 9.141c-.227.475-.35.994-.362 1.52zm4.631.98a1.251 1.251 0 01-1.987-1.472 1.25 1.25 0 111.987 1.472z"/></g></svg><svg fill="none" viewBox="0 0 22 22" id="shirt" xmlns="http://www.w3.org/2000/svg"><g clip-path="url(#bhclip0)"><path d="M21.301 1.155h-7.463a.699.699 0 00-.699.692 2.095 2.095 0 01-2.088 2.067 2.095 2.095 0 01-2.088-2.067.699.699 0 00-.698-.692H.699A.699.699 0 000 1.853V7.12c0 .305.198.574.488.666l2.383.753c.795.251 1.33.98 1.33 1.815v9.793c0 .386.313.7.699.7h12.2a.699.699 0 00.7-.7v-9.793c0-.835.534-1.564 1.33-1.815l2.382-.753A.699.699 0 0022 7.12V1.853a.699.699 0 00-.699-.698zm-.698 5.452l-1.895.598a3.288 3.288 0 00-2.306 3.148v9.095H5.598v-9.095a3.288 3.288 0 00-2.306-3.148l-1.894-.598V2.552H7.64c.14.66.467 1.265.957 1.75 1.983 1.966 5.305.897 5.863-1.75h6.141v4.055z" fill="#fff"/></g><defs><clipPath id="bhclip0"><path fill="#fff" d="M0 0h22v22H0z"/></clipPath></defs></svg><svg fill="none" viewBox="0 0 22 20" id="shop" xmlns="http://www.w3.org/2000/svg"><path d="M22 6.69a.501.501 0 00-.072-.266L18.655.67a.542.542 0 00-.467-.274H3.808A.533.533 0 003.34.67L.072 6.424A.545.545 0 000 6.689c0 1.29.778 2.396 1.888 2.886v9.49c0 .296.243.54.54.54h17.14c.297 0 .54-.244.54-.54V9.643c0-.023 0-.04-.005-.059A3.164 3.164 0 0022 6.69zM4.122 1.48h13.751l2.558 4.499H1.57l2.553-4.5zm11.535 5.573a2.072 2.072 0 01-4.082 0h4.082zm-5.228 0a2.072 2.072 0 01-2.04 1.709 2.08 2.08 0 01-2.046-1.709h4.086zm-9.314 0H5.2a2.077 2.077 0 01-2.045 1.709 2.068 2.068 0 01-2.041-1.709zm7.948 11.472H5.96v-5.821c0-.423.341-.769.768-.769H8.3c.422 0 .768.342.768.769v5.821h-.004zm9.966 0H10.14v-5.821a1.85 1.85 0 00-1.847-1.848H6.725a1.85 1.85 0 00-1.848 1.848v5.826h-1.91V9.84c.063.005.126.005.189.005 1.088 0 2.05-.553 2.616-1.394a3.152 3.152 0 005.232 0 3.144 3.144 0 005.224 0 3.152 3.152 0 002.616 1.394c.063 0 .122-.005.185-.005v8.685zm-.185-9.759c-1.02 0-1.87-.737-2.04-1.708h4.086a2.085 2.085 0 01-2.046 1.708z" fill="#fff"/></svg><svg fill="none" viewBox="0 0 14 14" id="signin" xmlns="http://www.w3.org/2000/svg"><path fill-rule="evenodd" clip-rule="evenodd" d="M7 .333A3.332 3.332 0 107 7 3.332 3.332 0 107 .333zm1.75 3.334a1.75 1.75 0 10-3.5 0 1.75 1.75 0 003.5 0zm3.333 7.5c0-.534-2.608-1.75-5.083-1.75s-5.084 1.216-5.084 1.75v.916h10.167v-.916zm-11.75 0C.333 8.95 4.775 7.833 7 7.833c2.225 0 6.666 1.117 6.666 3.334v2.5H.333v-2.5z" fill="#384047"/></svg><svg fill="none" viewBox="0 0 22 22" id="stroller" xmlns="http://www.w3.org/2000/svg"><g clip-path="url(#bkclip0)"><path d="M21.978 9.098a.65.65 0 00.021-.16C22 3.923 18.191 0 13.75 0h-1.03a.644.644 0 00-.612.442l-2.604 7.85h-5.59l-.83-2.699C2.763 4.552 1.76 3.824.645 3.824a.645.645 0 000 1.29c.545 0 1.053.36 1.206.858 1.067 3.469 1.106 3.536 2.19 6.57.395 1.107 1.64 1.852 3.098 1.852H9.36l-.602 1.504A3.053 3.053 0 005.2 18.906c0 1.692 1.37 3.093 3.05 3.093 1.478 0 2.693-1.075 2.983-2.449h2.285c.12.572.401 1.1.82 1.529a3 3 0 004.325 0 3.096 3.096 0 00.888-2.173 3.053 3.053 0 00-3.56-3.008l-.6-1.504h2.22c1.457 0 2.7-.743 3.098-1.85 1.332-3.6 1.257-3.394 1.27-3.446zm-8.794-7.809h.566c3.64 0 6.637 3.087 6.936 7.004H10.86l2.323-7.004zM8.25 20.71c-.955 0-1.762-.826-1.762-1.804 0-.972.79-1.762 1.762-1.762.971 0 1.761.79 1.761 1.762 0 .978-.806 1.804-1.761 1.804zm10.011-1.804c0 .978-.806 1.804-1.761 1.804-.955 0-1.762-.826-1.762-1.804 0-.972.79-1.762 1.762-1.762.97 0 1.761.79 1.761 1.762zm-3.467-2.529a3.058 3.058 0 00-1.276 1.884h-2.287a3.059 3.059 0 00-1.276-1.884l.793-1.983h3.253l.793 1.983zm4.704-4.276c-.253.683-1.148 1.004-1.887 1.004H7.139c-.886 0-1.679-.42-1.885-.997l-.902-2.526h16.077l-.931 2.519z" fill="#fff"/></g><defs><clipPath id="bkclip0"><path fill="#fff" d="M0 0h22v22H0z"/></clipPath></defs></svg><svg fill="none" viewBox="0 0 28 28" id="success" xmlns="http://www.w3.org/2000/svg"><path fill-rule="evenodd" clip-rule="evenodd" d="M14 .667C6.64.667.667 6.64.667 14S6.64 27.333 14 27.333 27.334 21.36 27.334 14 21.36.667 14 .667zm0 24C8.12 24.667 3.334 19.88 3.334 14S8.12 3.333 14 3.333c5.88 0 10.667 4.787 10.667 10.667S19.88 24.667 14 24.667zm-2.666-7.774l8.786-8.786L22 10 11.334 20.667 6 15.333l1.88-1.88 3.454 3.44z" fill="#00DB16" fill-opacity=".54"/></svg><svg fill="none" viewBox="0 0 20 20" id="sun" xmlns="http://www.w3.org/2000/svg"><path d="M10 15a5 5 0 100-10 5 5 0 000 10z" fill="#F3AA07"/><path d="M13.42 10.152a.39.39 0 01-.39-.364 3.044 3.044 0 00-.782-1.831.39.39 0 01.577-.526c.576.633.926 1.452.984 2.304a.39.39 0 01-.39.417zM13.428 11.635a.393.393 0 01-.39-.39.394.394 0 01.39-.391.393.393 0 01.39.39.392.392 0 01-.39.39z" fill="#C9CFD4"/><path d="M10 3.325a.39.39 0 01-.39-.39V.39a.39.39 0 01.78 0v2.545a.39.39 0 01-.39.39zM10 20a.39.39 0 01-.39-.39v-2.545a.39.39 0 01.78 0v2.545A.39.39 0 0110 20zM19.61 10.39h-2.545a.39.39 0 010-.78h2.545a.39.39 0 010 .78zM2.935 10.39H.39a.39.39 0 110-.78h2.545a.39.39 0 010 .78zM14.996 5.395a.39.39 0 01-.276-.667l1.799-1.8a.39.39 0 01.552.553l-1.799 1.8a.39.39 0 01-.276.114zM3.205 17.185a.39.39 0 01-.276-.666l1.799-1.8a.39.39 0 11.552.553l-1.799 1.8a.39.39 0 01-.276.113zM16.795 17.185a.39.39 0 01-.276-.114l-1.8-1.799a.39.39 0 01.553-.552l1.8 1.799a.39.39 0 01-.277.666zM5.004 5.395a.39.39 0 01-.276-.115l-1.8-1.799a.39.39 0 01.553-.552l1.8 1.799a.39.39 0 01-.277.667z" fill="#F3AA07"/></svg><svg fill="none" viewBox="0 0 22 22" id="watch" xmlns="http://www.w3.org/2000/svg"><g clip-path="url(#bnclip0)"><path d="M19.318 8.507v.903c0 .814-.596 1.49-1.376 1.613v.515c-.043 1.158-1.666 1.172-1.72.02V5.67c0-.95-.769-1.72-1.719-1.72H6.121c-.95 0-1.719.77-1.719 1.72v10.617c0 .95.77 1.72 1.72 1.72h8.381c.954 0 1.708-.777 1.72-1.731a.86.86 0 01.865-.849c.476.004.858.416.854.892a3.441 3.441 0 01-1.716 2.944c-.047.046-.82.549-.82 1.299v.562c-.043 1.158-1.666 1.171-1.72.02v-.582c0-.288.04-.568.114-.836H6.868c.074.268.113.548.113.836v.562c-.043 1.158-1.666 1.171-1.72.02v-.582c0-.88-.719-1.214-.745-1.234a3.442 3.442 0 01-1.833-3.04V5.67c0-1.288.711-2.412 1.761-3.002.046-.045.818-.437.818-1.297V.876c.043-1.158 1.665-1.171 1.72-.02v.515c0 .297-.042.585-.12.86h6.926a3.128 3.128 0 01-.101-.793V.876c.043-1.158 1.665-1.171 1.72-.02v.582c0 .466.228.89.614 1.146a3.443 3.443 0 011.921 3.086v1.224c.78.123 1.376.799 1.376 1.613zM10.29 5.67a.86.86 0 00-.86.86V11c0 .23.093.452.258.614l2.32 2.278a.86.86 0 001.205-1.227l-2.063-2.026V6.53a.86.86 0 00-.86-.86z" fill="#fff"/></g><defs><clipPath id="bnclip0"><path fill="#fff" d="M0 0h22v22H0z"/></clipPath></defs></svg><svg fill="none" viewBox="0 0 22 22" id="watering" xmlns="http://www.w3.org/2000/svg"><g clip-path="url(#boclip0)"><path d="M21.355 15.473c-.97 0-1.863.438-2.457 1.188l-5.894-.195 2.884-3.472a2.074 2.074 0 001.678-.597c.393-.393.61-.916.61-1.472 0-.556-.217-1.078-.61-1.471l-1.107-1.107c.004-.102.006-.205.006-.306C16.465 3.607 12.855 0 8.42 0 3.984 0 .375 3.607.375 8.04c0 1.51.417 2.97 1.21 4.242l-.897.744a1.907 1.907 0 00-.686 1.376 1.907 1.907 0 00.556 1.434l5.61 5.607a1.909 1.909 0 001.434.555 1.908 1.908 0 001.377-.685l.318-.384a.618.618 0 00.073.002l9.531-.308a3.118 3.118 0 002.454 1.184.644.644 0 00.645-.644v-5.046a.645.645 0 00-.645-.644zm-4.468-4.548a.792.792 0 01-1.351.56l-4.841-4.838a.787.787 0 01-.232-.56.79.79 0 011.35-.56l4.841 4.838c.15.15.233.349.233.56zM1.664 8.041c0-3.723 3.03-6.752 6.756-6.752a6.765 6.765 0 016.673 5.693l-2.368-2.366a2.083 2.083 0 00-3.549 1.368L2.588 11.45a6.714 6.714 0 01-.924-3.41zm5.878 12.67a.607.607 0 01-.463-.18l-5.61-5.606a.607.607 0 01-.18-.463.607.607 0 01.222-.444l8.07-6.694c.06.082.128.16.202.235l4.841 4.838.047.045-6.684 8.047a.609.609 0 01-.445.221zm13.169-.308a1.857 1.857 0 01-.934-.773.645.645 0 00-.57-.307l-8.813.285 1.567-1.887 7.242.24c.232.007.45-.11.571-.307.224-.366.554-.634.937-.777v3.526z" fill="#fff"/></g><defs><clipPath id="boclip0"><path fill="#fff" d="M0 0h22v22H0z"/></clipPath></defs></svg></svg>