<?xml version="1.0" encoding="utf-8"?><!DOCTYPE svg PUBLIC "-//W3C//DTD SVG 1.1//EN" "http://www.w3.org/Graphics/SVG/1.1/DTD/svg11.dtd"><svg viewBox="0 0 100 100" xmlns="http://www.w3.org/2000/svg" xmlns:xlink="http://www.w3.org/1999/xlink"><style>:root>svg{display:none}:root>svg:target{display:block}</style><svg fill="none" viewBox="0 0 10 8" id="arrow_down" xmlns="http://www.w3.org/2000/svg"><path d="M8.825.912L5 4.73 1.175.912 0 2.087l5 5 5-5L8.825.912z" fill="#2D3236"/></svg><svg fill="none" viewBox="0 0 16 18" id="arrow_right" xmlns="http://www.w3.org/2000/svg"><path d="M15.5 11.5l-6 6-1.42-1.42 3.59-3.58H.5V.5h2v10h9.17L8.08 6.92 9.5 5.5l6 6z" fill="#fff"/></svg><svg fill="none" viewBox="0 0 80 80" id="box" xmlns="http://www.w3.org/2000/svg"><path d="M54.667 49.333c-.737 0-1.334.597-1.334 1.334v14.666H2.667V28H16a1.333 1.333 0 000-2.667H2.667V14.667H20v20a1.333 1.333 0 00.866 1.253c.15.055.308.081.467.08.383 0 .748-.165 1-.453l2.454-2.8 2.173 2.746c.24.332.63.523 1.04.507a1.332 1.332 0 001.04-.52l2.107-2.733 2.52 2.813c.37.407.953.545 1.466.347.519-.194.863-.687.867-1.24v-20h17.333v10.666H40A1.333 1.333 0 0040 28h13.333v1.333a1.333 1.333 0 002.667 0v-16c0-.736-.597-1.333-1.333-1.333H1.333C.597 12 0 12.597 0 13.333v53.334C0 67.403.597 68 1.333 68h53.334c.736 0 1.333-.597 1.333-1.333v-16c0-.737-.597-1.334-1.333-1.334zM33.333 14.667v16.52l-1.253-1.414a1.334 1.334 0 00-1.04-.44c-.399.013-.77.204-1.013.52l-2.04 2.667-2.107-2.667a1.336 1.336 0 00-1.014-.507 1.333 1.333 0 00-1.012.454l-1.16 1.334V14.667h10.64z" fill="#fff"/><path d="M22.667 50.667v-5.334c0-.736-.597-1.333-1.333-1.333H8c-.736 0-1.333.597-1.333 1.333v5.334C6.667 51.403 7.264 52 8 52h13.334c.736 0 1.333-.597 1.333-1.333zM20 49.333H9.334v-2.666H20v2.666zM17.334 57.333a1.333 1.333 0 000-2.666H8c-.736 0-1.333.597-1.333 1.333v5.333c0 .737.597 1.334 1.333 1.334h9.334a1.333 1.333 0 000-2.667h-8v-2.667h8zM60 17.333h18.667a1.333 1.333 0 000-2.666H60a1.333 1.333 0 000 2.666zM46.667 34.667c0 .736.597 1.333 1.333 1.333h17.334a1.333 1.333 0 000-2.667H48c-.736 0-1.333.597-1.333 1.334zM70.666 25.333a1.333 1.333 0 100-2.666h-8a1.333 1.333 0 000 2.666h8zM76 45.333c0-.736-.597-1.333-1.333-1.333H44a1.333 1.333 0 000 2.667h30.667c.736 0 1.333-.597 1.333-1.334zM78.667 53.333H65.333a1.333 1.333 0 000 2.667h13.334a1.333 1.333 0 000-2.667zM68 60h-8a1.333 1.333 0 000 2.667h8A1.333 1.333 0 0068 60zM49.333 54.667c0-.737-.597-1.334-1.333-1.334h-9.334a1.333 1.333 0 000 2.667H48c.736 0 1.333-.597 1.333-1.333zM40 60a1.333 1.333 0 000 2.667h5.334a1.333 1.333 0 000-2.667H40z" fill="#fff"/></svg><svg fill="none" viewBox="0 0 14 20" id="calc" xmlns="http://www.w3.org/2000/svg"><path fill-rule="evenodd" clip-rule="evenodd" d="M.333 2.5c0-.917.75-1.667 1.667-1.667.916 0 1.666.75 1.666 1.667S2.916 4.167 2 4.167c-.917 0-1.667-.75-1.667-1.667zm5 15c0-.917.75-1.667 1.667-1.667.916 0 1.666.75 1.666 1.667S7.916 19.167 7 19.167c-.917 0-1.667-.75-1.667-1.667zM2 5.833c-.917 0-1.667.75-1.667 1.667S1.083 9.167 2 9.167c.916 0 1.666-.75 1.666-1.667S2.916 5.833 2 5.833zM.333 12.5c0-.917.75-1.667 1.667-1.667.916 0 1.666.75 1.666 1.667S2.916 14.167 2 14.167c-.917 0-1.667-.75-1.667-1.667zM12 4.167c.916 0 1.666-.75 1.666-1.667S12.916.833 12 .833c-.917 0-1.667.75-1.667 1.667s.75 1.667 1.667 1.667zM5.333 12.5c0-.917.75-1.667 1.667-1.667.916 0 1.666.75 1.666 1.667S7.916 14.167 7 14.167c-.917 0-1.667-.75-1.667-1.667zM12 10.833c-.917 0-1.667.75-1.667 1.667s.75 1.667 1.667 1.667c.916 0 1.666-.75 1.666-1.667s-.75-1.667-1.666-1.667zM10.333 7.5c0-.917.75-1.667 1.667-1.667.916 0 1.666.75 1.666 1.667S12.916 9.167 12 9.167c-.917 0-1.667-.75-1.667-1.667zM7 5.833c-.917 0-1.667.75-1.667 1.667S6.083 9.167 7 9.167c.916 0 1.666-.75 1.666-1.667S7.916 5.833 7 5.833zM5.333 2.5c0-.917.75-1.667 1.667-1.667.916 0 1.666.75 1.666 1.667S7.916 4.167 7 4.167c-.917 0-1.667-.75-1.667-1.667z" fill="#384047"/></svg><svg viewBox="0 0 405.272 405.272" id="check" xmlns="http://www.w3.org/2000/svg"><path d="M393.401 124.425L179.603 338.208c-15.832 15.835-41.514 15.835-57.361 0L11.878 227.836c-15.838-15.835-15.838-41.52 0-57.358 15.841-15.841 41.521-15.841 57.355-.006l81.698 81.699L336.037 67.064c15.841-15.841 41.523-15.829 57.358 0 15.835 15.838 15.835 41.514.006 57.361z"/></svg><svg fill="none" viewBox="0 0 22 22" id="close" xmlns="http://www.w3.org/2000/svg"><g filter="url(#ffilter0_d)"><path d="M18 4.41L16.59 3 11 8.59 5.41 3 4 4.41 9.59 10 4 15.59 5.41 17 11 11.41 16.59 17 18 15.59 12.41 10 18 4.41z" fill="#000" fill-opacity=".54"/></g><defs><filter id="ffilter0_d" x="0" y="0" width="22" height="22" filterUnits="userSpaceOnUse" color-interpolation-filters="sRGB"><feFlood flood-opacity="0" result="BackgroundImageFix"/><feColorMatrix in="SourceAlpha" values="0 0 0 0 0 0 0 0 0 0 0 0 0 0 0 0 0 0 127 0"/><feOffset dy="1"/><feGaussianBlur stdDeviation="2"/><feColorMatrix values="0 0 0 0 0 0 0 0 0 0 0 0 0 0 0 0 0 0 0.25 0"/><feBlend in2="BackgroundImageFix" result="effect1_dropShadow"/><feBlend in="SourceGraphic" in2="effect1_dropShadow" result="shape"/></filter></defs></svg><svg fill="none" viewBox="0 0 24 24" id="file" xmlns="http://www.w3.org/2000/svg"><path fill-rule="evenodd" clip-rule="evenodd" d="M19.5 1.5v3h3v2h-3v2.99s-1.99.01-2 0V6.5h-3s.01-1.99 0-2h3v-3h2zm-2 19h-14v-14h9v-2h-9c-1.1 0-2 .9-2 2v14c0 1.1.9 2 2 2h14c1.1 0 2-.9 2-2v-9h-2v9zm-7.79-3.17l-1.96-2.36L5 18.5h11l-3.54-4.71-2.75 3.54z" fill="#193566"/></svg><svg fill="none" viewBox="0 0 20 12" id="login" xmlns="http://www.w3.org/2000/svg"><path fill-rule="evenodd" clip-rule="evenodd" d="M13.333 11.833h5V8.5H20v-5h-8.9A5.838 5.838 0 005.833.167 5.84 5.84 0 000 6a5.84 5.84 0 005.833 5.833A5.829 5.829 0 0011.1 8.5h2.233v3.333zm3.334-1.666H15V6.833H9.95l-.192.559a4.17 4.17 0 01-3.925 2.775A4.168 4.168 0 011.667 6c0-2.3 1.866-4.167 4.166-4.167a4.17 4.17 0 013.925 2.775l.192.559h8.383v1.666h-1.666v3.334zM5.833 8.5a2.507 2.507 0 01-2.5-2.5c0-1.375 1.125-2.5 2.5-2.5s2.5 1.125 2.5 2.5-1.125 2.5-2.5 2.5zM5 6c0-.458.375-.833.833-.833.459 0 .834.375.834.833a.836.836 0 01-.834.833A.836.836 0 015 6z" fill="#384047"/></svg><svg fill="none" viewBox="0 0 80 80" id="mail" xmlns="http://www.w3.org/2000/svg"><path d="M74.375 7.5H61.25V5.625A3.128 3.128 0 0058.125 2.5h-36.25a3.128 3.128 0 00-3.125 3.125V7.5H5.625a4.38 4.38 0 00-4.375 4.375v51.25A4.38 4.38 0 005.625 67.5h23.778l-1.5 3.75H21.25A1.25 1.25 0 0020 72.5v3.75a1.25 1.25 0 001.25 1.25h37.5A1.25 1.25 0 0060 76.25V72.5a1.25 1.25 0 00-1.25-1.25h-6.653l-1.5-3.75h23.778a4.38 4.38 0 004.375-4.375v-51.25A4.38 4.38 0 0074.375 7.5zM21.25 5.625A.625.625 0 0121.875 5h36.25a.625.625 0 01.625.625v2.353L40 17.353 21.25 7.978V5.625zm0 5.147l18.19 9.097a1.258 1.258 0 001.12 0l18.19-9.097v18.603a.624.624 0 01-.625.625h-36.25a.624.624 0 01-.625-.625V10.772zm-17.5 1.103A1.877 1.877 0 015.625 10H18.75v19.375a3.128 3.128 0 003.125 3.125H33.75v25h-30V11.875zM57.5 73.75V75h-35v-1.25h35zm-26.903-2.5l1.5-3.75h15.806l1.5 3.75H30.597zm45.653-8.125A1.877 1.877 0 0174.375 65H5.625a1.877 1.877 0 01-1.875-1.875V60h72.5v3.125zm0-5.625h-40v-25h2.5v13.75a1.25 1.25 0 002.5 0V32.5h2.5V45a1.25 1.25 0 002.5 0V32.5h11.875a3.128 3.128 0 003.125-3.125V10h13.125a1.877 1.877 0 011.875 1.875V57.5z" fill="#fff"/><path d="M40 48.75A1.25 1.25 0 0038.75 50v1.25a1.25 1.25 0 002.5 0V50A1.25 1.25 0 0040 48.75z" fill="#fff"/></svg><svg fill="none" viewBox="0 0 20 20" id="moon" xmlns="http://www.w3.org/2000/svg"><rect width="20" height="20" rx="10" fill="url(#jpaint0_linear)"/><path d="M14.534 1.122a.35.35 0 00-.325 0 .306.306 0 00-.128.428 9.006 9.006 0 010 9.181c-2.68 4.562-8.762 6.205-13.584 3.67a.35.35 0 00-.328 0 .306.306 0 00-.126.429c1.884 3.19 5.444 5.167 9.306 5.17 3.862-.001 7.42-1.979 9.3-5.17 2.866-4.86 1.023-10.998-4.115-13.708z" fill="#F3AA07"/><path d="M8.024 6.833l.327 1.682.327-1.681c.342-1.753.543-1.944 2.396-2.267l1.778-.31-1.777-.308C9.22 3.625 9.02 3.435 8.678 1.682L8.351 0l-.326 1.681c-.342 1.754-.543 1.944-2.397 2.267l-1.777.31 1.777.309c1.854.323 2.055.514 2.396 2.266zM4.363 13.13l.327 1.682.327-1.681c.342-1.753.543-1.944 2.396-2.267l1.778-.31-1.778-.308C5.56 9.922 5.36 9.732 5.017 7.979L4.69 6.297l-.326 1.681c-.343 1.754-.544 1.944-2.397 2.267l-1.778.31 1.778.309c1.853.323 2.054.514 2.396 2.266z" fill="#F3AA07"/><defs><linearGradient id="jpaint0_linear" x1="7.5" y1="7" x2="17.5" y2="17" gradientUnits="userSpaceOnUse"><stop stop-color="#fff" stop-opacity="0"/><stop offset=".524" stop-color="#fff"/></linearGradient></defs></svg><svg fill="none" viewBox="0 0 80 80" id="pallet" xmlns="http://www.w3.org/2000/svg"><g clip-path="url(#kclip0)" fill="#fff"><path d="M28.69 34.531h-8.548c-.862 0-1.562-.7-1.562-1.562V16.07h-2.568a1.56 1.56 0 01-1.311-2.413L23.106.712a1.564 1.564 0 012.621 0l8.405 12.946a1.564 1.564 0 01-1.31 2.414h-2.57v16.897c0 .862-.699 1.562-1.562 1.562zm-6.985-3.125h5.423V14.51c0-.863.7-1.563 1.562-1.563h1.254l-5.527-8.514-5.528 8.514h1.253c.863 0 1.563.7 1.563 1.563v16.897zM39.972 80c-.654 0-1.25-.422-1.471-1.037a1.574 1.574 0 01.472-1.727 1.579 1.579 0 011.734-.175c.575.305.908.961.809 1.605A1.579 1.579 0 0139.972 80z"/><path d="M78.438 68.29h-5.71V44.278c0-1.03-.365-1.975-.973-2.713a4.255 4.255 0 00.974-2.713v-22.86a4.28 4.28 0 00-4.276-4.276h-25.74a4.28 4.28 0 00-4.276 4.276v22.86c0 .482.08.946.228 1.378a4.254 4.254 0 00-1.377-.227H11.547a4.28 4.28 0 00-4.276 4.275v24.01H1.563c-.864 0-1.563.7-1.563 1.563v8.585C0 79.302.7 80 1.563 80h31.371a1.562 1.562 0 100-3.125H3.125v-5.46h73.75v5.46H47.066a1.563 1.563 0 000 3.125h31.371c.864 0 1.563-.7 1.563-1.563v-8.585c0-.863-.7-1.563-1.563-1.563zM59.111 14.841v9.756l-2.796-1.485a1.565 1.565 0 00-1.466 0l-2.796 1.485v-9.755h7.058zm-17.55 1.151c0-.634.516-1.15 1.15-1.15h6.217v12.355a1.563 1.563 0 002.295 1.38l4.359-2.316 4.359 2.316a1.562 1.562 0 002.295-1.38V14.842h6.216c.635 0 1.15.517 1.15 1.151v22.86c0 .634-.515 1.15-1.15 1.15h-25.74c-.635 0-1.15-.516-1.15-1.15v-22.86zm10.492 27.136h7.058v9.756l-2.796-1.486a1.564 1.564 0 00-1.466 0l-2.796 1.486v-9.756zm-24.108 0v9.756l-2.797-1.486a1.563 1.563 0 00-1.465 0l-2.797 1.486v-9.756h7.06zm-17.55 1.15c0-.635.516-1.15 1.15-1.15h6.216v12.354a1.563 1.563 0 002.296 1.38l4.36-2.315 4.358 2.315a1.567 1.567 0 001.538-.041c.47-.282.757-.79.757-1.339V43.128h6.217c.634 0 1.15.516 1.15 1.15V68.29H10.395V44.28zm31.166 24.01V44.28c0-.635.516-1.15 1.15-1.15h6.217v12.354a1.563 1.563 0 002.295 1.38l4.359-2.315 4.359 2.315a1.566 1.566 0 001.538-.041c.47-.282.757-.79.757-1.339V43.128h6.216c.635 0 1.15.516 1.15 1.15V68.29h-28.04z"/></g><defs><clipPath id="kclip0"><path fill="#fff" d="M0 0h80v80H0z"/></clipPath></defs></svg><svg fill="none" viewBox="0 0 20 20" id="phone" xmlns="http://www.w3.org/2000/svg"><path fill-rule="evenodd" clip-rule="evenodd" d="M3.333 2.5H6.25c.458 0 .833.375.833.833 0 1.042.167 2.042.475 2.975a.836.836 0 01-.208.85L5.517 8.992a12.624 12.624 0 005.491 5.491l1.834-1.833a.854.854 0 01.591-.242.7.7 0 01.259.042 9.506 9.506 0 002.975.475c.458 0 .833.375.833.833v2.909a.836.836 0 01-.833.833C8.842 17.5 2.5 11.158 2.5 3.333c0-.458.375-.833.833-.833zM5.45 4.167c.05.741.175 1.466.375 2.158l-1 1c-.342-1-.558-2.058-.633-3.158H5.45zm8.217 10.016c.708.2 1.433.325 2.166.375V15.8a12.856 12.856 0 01-3.166-.625l1-.992z" fill="#384047"/></svg><svg fill="none" viewBox="0 0 68 68" id="placeholder" xmlns="http://www.w3.org/2000/svg"><path fill-rule="evenodd" clip-rule="evenodd" d="M53.833 8.5H14.167C11.05 8.5 8.5 11.05 8.5 14.167v39.666c0 3.117 2.55 5.667 5.667 5.667h39.666c3.117 0 5.667-2.55 5.667-5.667V14.167c0-3.117-2.55-5.667-5.667-5.667zm0 45.333H14.167V14.167h39.666v39.666zm-22.071-8.981l7.791-10.03 10.03 13.345H18.417l7.791-10.002 5.554 6.687z" fill="#000" fill-opacity=".54"/></svg><svg fill="none" viewBox="0 0 12 18" id="point" xmlns="http://www.w3.org/2000/svg"><path fill-rule="evenodd" clip-rule="evenodd" d="M6 .429c-3.317 0-6 2.682-6 6 0 4.5 6 11.142 6 11.142s6-6.642 6-11.142c0-3.318-2.683-6-6-6zm-4.286 6A4.287 4.287 0 016 2.143a4.287 4.287 0 014.286 4.286c0 2.468-2.469 6.162-4.286 8.468C4.217 12.61 1.714 8.871 1.714 6.43zm2.143 0a2.143 2.143 0 114.286 0 2.143 2.143 0 01-4.286 0z" fill="#384047"/></svg><svg fill="none" viewBox="0 0 100 100" id="round_mail" xmlns="http://www.w3.org/2000/svg"><g filter="url(#ofilter0_d)"><path d="M4 46C4 20.595 24.595 0 50 0s46 20.595 46 46-20.595 46-46 46S4 71.405 4 46z" fill="#fff"/><path fill-rule="evenodd" clip-rule="evenodd" d="M70 26H30c-2.75 0-4.975 2.25-4.975 5L25 61c0 2.75 2.25 5 5 5h40c2.75 0 5-2.25 5-5V31c0-2.75-2.25-5-5-5zM30 36l20 12.5L70 36v25H30V36zm0-5l20 12.5L70 31H30z" fill="#F11"/></g><defs><filter id="ofilter0_d" x="0" y="0" width="100" height="100" filterUnits="userSpaceOnUse" color-interpolation-filters="sRGB"><feFlood flood-opacity="0" result="BackgroundImageFix"/><feColorMatrix in="SourceAlpha" values="0 0 0 0 0 0 0 0 0 0 0 0 0 0 0 0 0 0 127 0"/><feOffset dy="4"/><feGaussianBlur stdDeviation="2"/><feColorMatrix values="0 0 0 0 0 0 0 0 0 0 0 0 0 0 0 0 0 0 0.25 0"/><feBlend in2="BackgroundImageFix" result="effect1_dropShadow"/><feBlend in="SourceGraphic" in2="effect1_dropShadow" result="shape"/></filter></defs></svg><svg fill="none" viewBox="0 0 18 18" id="search" xmlns="http://www.w3.org/2000/svg"><path fill-rule="evenodd" clip-rule="evenodd" d="M11.965 11.255h.79l4.99 5-1.49 1.49-5-4.99v-.79l-.27-.28a6.471 6.471 0 01-4.23 1.57 6.5 6.5 0 116.5-6.5c0 1.61-.59 3.09-1.57 4.23l.28.27zm-9.71-4.5c0 2.49 2.01 4.5 4.5 4.5s4.5-2.01 4.5-4.5-2.01-4.5-4.5-4.5-4.5 2.01-4.5 4.5z" fill="#2D3236"/></svg><svg fill="none" viewBox="0 0 80 80" id="share" xmlns="http://www.w3.org/2000/svg"><g opacity=".9" fill="#fff"><path d="M74.375 5H5.625A4.38 4.38 0 001.25 9.375v51.25A4.38 4.38 0 005.625 65h23.778l-1.5 3.75H21.25A1.25 1.25 0 0020 70v3.75A1.25 1.25 0 0021.25 75h37.5A1.25 1.25 0 0060 73.75V70a1.25 1.25 0 00-1.25-1.25h-6.653l-1.5-3.75h23.778a4.38 4.38 0 004.375-4.375V9.375A4.38 4.38 0 0074.375 5zM57.5 71.25v1.25h-35v-1.25h35zm-26.903-2.5l1.5-3.75h15.806l1.5 3.75H30.597zm45.653-8.125a1.877 1.877 0 01-1.875 1.875H5.625a1.877 1.877 0 01-1.875-1.875V57.5h72.5v3.125zm0-5.625H3.75V9.375A1.877 1.877 0 015.625 7.5h68.75a1.877 1.877 0 011.875 1.875V55z"/><path d="M72.5 51.25h-5.648l-8.92-11.15a19.96 19.96 0 00-2.43-21.472l6.323-7.378H72.5a1.25 1.25 0 000-2.5H61.25a1.25 1.25 0 00-.948.436l-6.51 7.594a19.973 19.973 0 00-30.05 2.836l-6.692-5.577a1.257 1.257 0 00-.8-.289H7.5a1.25 1.25 0 000 2.5h8.297l6.605 5.503a19.968 19.968 0 002.146 22.181L21.875 47.5H13.75a1.25 1.25 0 000 2.5h8.75a1.25 1.25 0 001-.5l2.783-3.71a19.976 19.976 0 0030.301-3.371l8.69 10.862a1.25 1.25 0 00.976.469h6.25a1.25 1.25 0 000-2.5zM40 48.75a17.5 17.5 0 1117.5-17.5A17.52 17.52 0 0140 48.75z"/><path d="M54.034 31.358a3.75 3.75 0 00-4.264-.73l-9.148-9.148a3.748 3.748 0 10-5.663 1.362L31.195 35.64a3.75 3.75 0 104.416 4.416l12.797-3.764c.1.13.208.254.323.37a3.75 3.75 0 105.303-5.303zM36.358 18.983a1.25 1.25 0 110 1.767 1.24 1.24 0 010-1.767zm-3.536 21.212a1.25 1.25 0 11-1.768-1.767 1.25 1.25 0 011.768 1.767zm14.814-6.283L35.25 37.555A3.754 3.754 0 0033.695 36l3.643-12.386a3.717 3.717 0 001.52-.363l9.14 9.141c-.227.475-.35.994-.362 1.52zm4.631.98a1.251 1.251 0 01-1.987-1.472 1.25 1.25 0 111.987 1.472z"/></g></svg><svg fill="none" viewBox="0 0 14 14" id="signin" xmlns="http://www.w3.org/2000/svg"><path fill-rule="evenodd" clip-rule="evenodd" d="M7 .333A3.332 3.332 0 107 7 3.332 3.332 0 107 .333zm1.75 3.334a1.75 1.75 0 10-3.5 0 1.75 1.75 0 003.5 0zm3.333 7.5c0-.534-2.608-1.75-5.083-1.75s-5.084 1.216-5.084 1.75v.916h10.167v-.916zm-11.75 0C.333 8.95 4.775 7.833 7 7.833c2.225 0 6.666 1.117 6.666 3.334v2.5H.333v-2.5z" fill="#384047"/></svg><svg fill="none" viewBox="0 0 28 28" id="success" xmlns="http://www.w3.org/2000/svg"><path fill-rule="evenodd" clip-rule="evenodd" d="M14 .667C6.64.667.667 6.64.667 14S6.64 27.333 14 27.333 27.334 21.36 27.334 14 21.36.667 14 .667zm0 24C8.12 24.667 3.334 19.88 3.334 14S8.12 3.333 14 3.333c5.88 0 10.667 4.787 10.667 10.667S19.88 24.667 14 24.667zm-2.666-7.774l8.786-8.786L22 10 11.334 20.667 6 15.333l1.88-1.88 3.454 3.44z" fill="#00DB16" fill-opacity=".54"/></svg><svg fill="none" viewBox="0 0 20 20" id="sun" xmlns="http://www.w3.org/2000/svg"><path d="M10 15a5 5 0 100-10 5 5 0 000 10z" fill="#F3AA07"/><path d="M13.42 10.152a.39.39 0 01-.39-.364 3.044 3.044 0 00-.782-1.831.39.39 0 01.577-.526c.576.633.926 1.452.984 2.304a.39.39 0 01-.39.417zM13.428 11.635a.393.393 0 01-.39-.39.394.394 0 01.39-.391.393.393 0 01.39.39.392.392 0 01-.39.39z" fill="#C9CFD4"/><path d="M10 3.325a.39.39 0 01-.39-.39V.39a.39.39 0 01.78 0v2.545a.39.39 0 01-.39.39zM10 20a.39.39 0 01-.39-.39v-2.545a.39.39 0 01.78 0v2.545A.39.39 0 0110 20zM19.61 10.39h-2.545a.39.39 0 010-.78h2.545a.39.39 0 010 .78zM2.935 10.39H.39a.39.39 0 110-.78h2.545a.39.39 0 010 .78zM14.996 5.395a.39.39 0 01-.276-.667l1.799-1.8a.39.39 0 01.552.553l-1.799 1.8a.39.39 0 01-.276.114zM3.205 17.185a.39.39 0 01-.276-.666l1.799-1.8a.39.39 0 11.552.553l-1.799 1.8a.39.39 0 01-.276.113zM16.795 17.185a.39.39 0 01-.276-.114l-1.8-1.799a.39.39 0 01.553-.552l1.8 1.799a.39.39 0 01-.277.666zM5.004 5.395a.39.39 0 01-.276-.115l-1.8-1.799a.39.39 0 01.553-.552l1.8 1.799a.39.39 0 01-.277.667z" fill="#F3AA07"/></svg></svg>