<?xml version="1.0" encoding="utf-8"?><svg viewBox="0 0 20 20" xmlns="http://www.w3.org/2000/svg" xmlns:xlink="http://www.w3.org/1999/xlink"><style>:root>svg{display:none}:root>svg:target{display:block}</style><svg fill="none" viewBox="0 0 10 8" id="arrow_down" xmlns="http://www.w3.org/2000/svg"><path d="M8.825.912L5 4.73 1.175.912 0 2.087l5 5 5-5L8.825.912z" fill="#2D3236"/></svg><svg fill="none" viewBox="0 0 16 18" id="arrow_right" xmlns="http://www.w3.org/2000/svg"><path d="M15.5 11.5l-6 6-1.42-1.42 3.59-3.58H.5V.5h2v10h9.17L8.08 6.92 9.5 5.5l6 6z" fill="#fff"/></svg><svg fill="none" viewBox="0 0 14 20" id="calc" xmlns="http://www.w3.org/2000/svg"><path fill-rule="evenodd" clip-rule="evenodd" d="M.333 2.5c0-.917.75-1.667 1.667-1.667.916 0 1.666.75 1.666 1.667S2.916 4.167 2 4.167c-.917 0-1.667-.75-1.667-1.667zm5 15c0-.917.75-1.667 1.667-1.667.916 0 1.666.75 1.666 1.667S7.916 19.167 7 19.167c-.917 0-1.667-.75-1.667-1.667zM2 5.833c-.917 0-1.667.75-1.667 1.667S1.083 9.167 2 9.167c.916 0 1.666-.75 1.666-1.667S2.916 5.833 2 5.833zM.333 12.5c0-.917.75-1.667 1.667-1.667.916 0 1.666.75 1.666 1.667S2.916 14.167 2 14.167c-.917 0-1.667-.75-1.667-1.667zM12 4.167c.916 0 1.666-.75 1.666-1.667S12.916.833 12 .833c-.917 0-1.667.75-1.667 1.667s.75 1.667 1.667 1.667zM5.333 12.5c0-.917.75-1.667 1.667-1.667.916 0 1.666.75 1.666 1.667S7.916 14.167 7 14.167c-.917 0-1.667-.75-1.667-1.667zM12 10.833c-.917 0-1.667.75-1.667 1.667s.75 1.667 1.667 1.667c.916 0 1.666-.75 1.666-1.667s-.75-1.667-1.666-1.667zM10.333 7.5c0-.917.75-1.667 1.667-1.667.916 0 1.666.75 1.666 1.667S12.916 9.167 12 9.167c-.917 0-1.667-.75-1.667-1.667zM7 5.833c-.917 0-1.667.75-1.667 1.667S6.083 9.167 7 9.167c.916 0 1.666-.75 1.666-1.667S7.916 5.833 7 5.833zM5.333 2.5c0-.917.75-1.667 1.667-1.667.916 0 1.666.75 1.666 1.667S7.916 4.167 7 4.167c-.917 0-1.667-.75-1.667-1.667z" fill="#384047"/></svg><svg fill="none" viewBox="0 0 14 14" id="login" xmlns="http://www.w3.org/2000/svg"><path fill-rule="evenodd" clip-rule="evenodd" d="M7 .333A3.332 3.332 0 107 7 3.332 3.332 0 107 .333zm1.75 3.334a1.75 1.75 0 10-3.5 0 1.75 1.75 0 003.5 0zm3.333 7.5c0-.534-2.608-1.75-5.083-1.75s-5.084 1.216-5.084 1.75v.916h10.167v-.916zm-11.75 0C.333 8.95 4.775 7.833 7 7.833c2.225 0 6.666 1.117 6.666 3.334v2.5H.333v-2.5z" fill="#384047"/></svg><svg fill="none" viewBox="0 0 20 20" id="moon" xmlns="http://www.w3.org/2000/svg"><rect width="20" height="20" rx="10" fill="url(#epaint0_linear)"/><path d="M14.534 1.122a.35.35 0 00-.325 0 .306.306 0 00-.128.428 9.006 9.006 0 010 9.181c-2.68 4.562-8.762 6.205-13.584 3.67a.35.35 0 00-.328 0 .306.306 0 00-.126.429c1.884 3.19 5.444 5.167 9.306 5.17 3.862-.001 7.42-1.979 9.3-5.17 2.866-4.86 1.023-10.998-4.115-13.708z" fill="#F3AA07"/><path d="M8.024 6.833l.327 1.682.327-1.681c.342-1.753.543-1.944 2.396-2.267l1.778-.31-1.777-.308C9.22 3.625 9.02 3.435 8.678 1.682L8.351 0l-.326 1.681c-.342 1.754-.543 1.944-2.397 2.267l-1.777.31 1.777.309c1.854.323 2.055.514 2.396 2.266zM4.363 13.13l.327 1.682.327-1.681c.342-1.753.543-1.944 2.396-2.267l1.778-.31-1.778-.308C5.56 9.922 5.36 9.732 5.017 7.979L4.69 6.297l-.326 1.681c-.343 1.754-.544 1.944-2.397 2.267l-1.778.31 1.778.309c1.853.323 2.054.514 2.396 2.266z" fill="#F3AA07"/><defs><linearGradient id="epaint0_linear" x1="7.5" y1="7" x2="17.5" y2="17" gradientUnits="userSpaceOnUse"><stop stop-color="#fff" stop-opacity="0"/><stop offset=".524" stop-color="#fff"/></linearGradient></defs></svg><svg fill="none" viewBox="0 0 20 20" id="phone" xmlns="http://www.w3.org/2000/svg"><path fill-rule="evenodd" clip-rule="evenodd" d="M3.333 2.5H6.25c.458 0 .833.375.833.833 0 1.042.167 2.042.475 2.975a.836.836 0 01-.208.85L5.517 8.992a12.624 12.624 0 005.491 5.491l1.834-1.833a.854.854 0 01.591-.242.7.7 0 01.259.042 9.506 9.506 0 002.975.475c.458 0 .833.375.833.833v2.909a.836.836 0 01-.833.833C8.842 17.5 2.5 11.158 2.5 3.333c0-.458.375-.833.833-.833zM5.45 4.167c.05.741.175 1.466.375 2.158l-1 1c-.342-1-.558-2.058-.633-3.158H5.45zm8.217 10.016c.708.2 1.433.325 2.166.375V15.8a12.856 12.856 0 01-3.166-.625l1-.992z" fill="#384047"/></svg><svg fill="none" viewBox="0 0 12 18" id="point" xmlns="http://www.w3.org/2000/svg"><path fill-rule="evenodd" clip-rule="evenodd" d="M6 .429c-3.317 0-6 2.682-6 6 0 4.5 6 11.142 6 11.142s6-6.642 6-11.142c0-3.318-2.683-6-6-6zm-4.286 6A4.287 4.287 0 016 2.143a4.287 4.287 0 014.286 4.286c0 2.468-2.469 6.162-4.286 8.468C4.217 12.61 1.714 8.871 1.714 6.43zm2.143 0a2.143 2.143 0 114.286 0 2.143 2.143 0 01-4.286 0z" fill="#384047"/></svg><svg fill="none" viewBox="0 0 20 12" id="signin" xmlns="http://www.w3.org/2000/svg"><path fill-rule="evenodd" clip-rule="evenodd" d="M13.333 11.833h5V8.5H20v-5h-8.9A5.838 5.838 0 005.833.167 5.84 5.84 0 000 6a5.84 5.84 0 005.833 5.833A5.829 5.829 0 0011.1 8.5h2.233v3.333zm3.334-1.666H15V6.833H9.95l-.192.559a4.17 4.17 0 01-3.925 2.775A4.168 4.168 0 011.667 6c0-2.3 1.866-4.167 4.166-4.167a4.17 4.17 0 013.925 2.775l.192.559h8.383v1.666h-1.666v3.334zM5.833 8.5a2.507 2.507 0 01-2.5-2.5c0-1.375 1.125-2.5 2.5-2.5s2.5 1.125 2.5 2.5-1.125 2.5-2.5 2.5zM5 6c0-.458.375-.833.833-.833.459 0 .834.375.834.833a.836.836 0 01-.834.833A.836.836 0 015 6z" fill="#384047"/></svg><svg fill="none" viewBox="0 0 20 20" id="sun" xmlns="http://www.w3.org/2000/svg"><path d="M10 15a5 5 0 100-10 5 5 0 000 10z" fill="#F3AA07"/><path d="M13.42 10.152a.39.39 0 01-.39-.364 3.044 3.044 0 00-.782-1.831.39.39 0 01.577-.526c.576.633.926 1.452.984 2.304a.39.39 0 01-.39.417zM13.428 11.635a.393.393 0 01-.39-.39.394.394 0 01.39-.391.393.393 0 01.39.39.392.392 0 01-.39.39z" fill="#C9CFD4"/><path d="M10 3.325a.39.39 0 01-.39-.39V.39a.39.39 0 01.78 0v2.545a.39.39 0 01-.39.39zM10 20a.39.39 0 01-.39-.39v-2.545a.39.39 0 01.78 0v2.545A.39.39 0 0110 20zM19.61 10.39h-2.545a.39.39 0 010-.78h2.545a.39.39 0 010 .78zM2.935 10.39H.39a.39.39 0 110-.78h2.545a.39.39 0 010 .78zM14.996 5.395a.39.39 0 01-.276-.667l1.799-1.8a.39.39 0 01.552.553l-1.799 1.8a.39.39 0 01-.276.114zM3.205 17.185a.39.39 0 01-.276-.666l1.799-1.8a.39.39 0 11.552.553l-1.799 1.8a.39.39 0 01-.276.113zM16.795 17.185a.39.39 0 01-.276-.114l-1.8-1.799a.39.39 0 01.553-.552l1.8 1.799a.39.39 0 01-.277.666zM5.004 5.395a.39.39 0 01-.276-.115l-1.8-1.799a.39.39 0 01.553-.552l1.8 1.799a.39.39 0 01-.277.667z" fill="#F3AA07"/></svg></svg>