<svg width="1340" height="684" viewBox="0 0 1340 684" fill="none" xmlns="http://www.w3.org/2000/svg">
<line x1="-8.74228e-08" y1="33" x2="1340" y2="32.9999" stroke="#0F0F0F" stroke-opacity="0.1" stroke-width="2"/>
<line x1="-8.74228e-08" y1="143" x2="1340" y2="143" stroke="#0F0F0F" stroke-opacity="0.1" stroke-width="2"/>
<line x1="-8.74228e-08" y1="263" x2="1340" y2="263" stroke="#0F0F0F" stroke-opacity="0.1" stroke-width="2"/>
<line x1="-8.74228e-08" y1="333" x2="1340" y2="333" stroke="#0F0F0F" stroke-opacity="0.1" stroke-width="2"/>
<line x1="-8.74228e-08" y1="473" x2="1340" y2="473" stroke="#0F0F0F" stroke-opacity="0.1" stroke-width="2"/>
<line x1="-8.74228e-08" y1="633" x2="1340" y2="633" stroke="#0F0F0F" stroke-opacity="0.1" stroke-width="2"/>
<line x1="-8.74228e-08" y1="83.0001" x2="1340" y2="83" stroke="#0F0F0F" stroke-opacity="0.1" stroke-width="2"/>
<line x1="-8.74228e-08" y1="193" x2="1340" y2="193" stroke="#0F0F0F" stroke-opacity="0.1" stroke-width="2"/>
<line x1="-8.74228e-08" y1="403" x2="1340" y2="403" stroke="#0F0F0F" stroke-opacity="0.1" stroke-width="2"/>
<line x1="-8.74228e-08" y1="523" x2="1340" y2="523" stroke="#0F0F0F" stroke-opacity="0.1" stroke-width="2"/>
<line x1="-8.74228e-08" y1="583" x2="1340" y2="583" stroke="#0F0F0F" stroke-opacity="0.1" stroke-width="2"/>
<line x1="49" y1="684" x2="48.9996" y2="3.23889e-08" stroke="#0F0F0F" stroke-opacity="0.1" stroke-width="2"/>
<line x1="277" y1="684" x2="277" y2="3.24413e-08" stroke="#0F0F0F" stroke-opacity="0.1" stroke-width="2"/>
<line x1="524" y1="684" x2="524" y2="3.22372e-08" stroke="#0F0F0F" stroke-opacity="0.1" stroke-width="2"/>
<line x1="669" y1="684" x2="669" y2="6.69371e-08" stroke="#0F0F0F" stroke-opacity="0.1" stroke-width="2"/>
<line x1="957" y1="684" x2="957" y2="3.24412e-08" stroke="#0F0F0F" stroke-opacity="0.1" stroke-width="2"/>
<line x1="1289" y1="684" x2="1289" y2="3.23889e-08" stroke="#0F0F0F" stroke-opacity="0.1" stroke-width="2"/>
<line x1="152" y1="684" x2="152" y2="3.23889e-08" stroke="#0F0F0F" stroke-opacity="0.1" stroke-width="2"/>
<line x1="381" y1="684" x2="381" y2="3.24412e-08" stroke="#0F0F0F" stroke-opacity="0.1" stroke-width="2"/>
<line x1="814" y1="684" x2="814" y2="3.22372e-08" stroke="#0F0F0F" stroke-opacity="0.1" stroke-width="2"/>
<line x1="1061" y1="684" x2="1061" y2="3.24413e-08" stroke="#0F0F0F" stroke-opacity="0.1" stroke-width="2"/>
<line x1="1186" y1="684" x2="1186" y2="3.23889e-08" stroke="#0F0F0F" stroke-opacity="0.1" stroke-width="2"/>
</svg>
