<svg width="281" height="576" fill="none" xmlns="http://www.w3.org/2000/svg"><g opacity=".25"><path opacity=".25" d="M85.91 148.5l-2.395.07-38.887 81.48 7.835 4.25 39.117-56.48-5.67-29.32z" fill="url(#paint0_radial)"/><path opacity=".25" d="M52.463 234.3l-16.988 24.52 44.057 29.92L70.06 310l53.72-37-71.317-38.7z" fill="url(#paint1_radial)"/><path opacity=".25" d="M70.06 310l-14.942 10.29 7.576 8.22 3.513-9.87L70.06 310z" fill="url(#paint2_radial)"/><path opacity=".25" d="M117.552 535.33l-6.378 19.53 12.856-1.7 4.751-15.57-11.229-2.26z" fill="url(#paint3_radial)"/><path opacity=".25" d="M123.67 576l6.907-13.22 65.298-19.1-71.846 9.48-6.957 22.84h6.598z" fill="url(#paint4_radial)"/><path opacity=".25" d="M55.398 453.65l75.14-25.23-16.35-43.96-51.494-55.95-8.224 23.05 29.445 53.77-83.564 45 35.833 68.54 81.368 16.46 23.875-73.14-86.03-8.54z" fill="url(#paint5_radial)"/></g><g opacity=".25"><path d="M172.07 23.73l-8.584 7.04 5.35 34.36 73.912-58.79-70.678 17.39z" fill="#D30A55" opacity=".25"/><path d="M105.574 200.91l20.452-32.43 84.692-.02-40.534-94.74-1.348-8.59-2.725 2.18-40.085 31.99-59.399 25.31 12.367 93.27 36.661 13.56 13.106-17.46-23.187-13.07z" fill="#DF6800" opacity=".25"/><path d="M199.769 0l-46.164 28.27 18.466-4.54L201.017 0h-1.248zm-84.113 231.44l-56.375 75.15 50.556 5.24 60.876-60.02-55.057-20.37zM100.704 576h52.302l-2.275-50.12-47.582 3.42-16.31 43.71 13.865 2.99z" fill="#D30A55" opacity=".25"/><path d="M135.858 404.81l-4.462-6.81-124.407-6.84-3.813 69.94 17.437 2.28 44.238-44.98 71.007-13.59z" fill="#2500DF" opacity=".25"/><path d="M20.613 463.38l-4.721 4.81 16.14 66.21 71.117-5.1 19.593-52.56-102.13-13.36z" fill="#82FF7F" opacity=".25"/><path d="M126.616 313.57l-16.779-1.74-22.099 21.78 6.868 8.2-.959-1.46 32.969-26.78zm-32.01 28.24L131.397 398l10.7.59-47.492-56.78z" fill="#D30A55" opacity=".25"/></g><g opacity=".25"><path style="mix-blend-mode:multiply" opacity=".25" d="M107.56 8.52l31.831 3.28-62.234 24.39 1.537 2.58 91.19-25.06-62.324-5.19z" fill="url(#paint6_radial)"/><path style="mix-blend-mode:multiply" opacity=".25" d="M143.912 110.77L86.03 51.09l-7.336-12.32-9.452 2.6-4.951 12.47 28.696 66.02-11.797 6.08 23.316-2.26 39.406-12.91z" fill="url(#paint7_radial)"/><path style="mix-blend-mode:multiply" opacity=".25" d="M24.645 131.42l37.181 4.49 19.364-9.97-56.544 5.48z" fill="url(#paint8_radial)"/><path style="mix-blend-mode:multiply" opacity=".25" d="M61.825 135.91l-22.508 11.6 60.687-4.74 1.018-2.12-39.197-4.74z" fill="url(#paint9_radial)"/><path style="mix-blend-mode:multiply" opacity=".25" d="M148.863 292.94l-27.408-57.72-4.442-.88-61.455 7.25 12.277 36.48 15.141 38.75 46.234 5.52 19.653-29.4z" fill="url(#paint10_radial)"/><path style="mix-blend-mode:multiply" opacity=".25" d="M82.977 316.82l-29.735-3.55 9.473 12 20.382-8.16-.12-.29z" fill="url(#paint11_radial)"/><path style="mix-blend-mode:multiply" opacity=".25" d="M139.281 416.19l-8.714-28.5-11.398-.31-24.195-21.29-32.26-40.82-44.108 17.66 6.758 48.21 81.757-3.32 18.366 28.37h13.794z" fill="url(#paint12_radial)"/><path style="mix-blend-mode:multiply" opacity=".25" d="M141.577 173.16l-22.478-31.87-19.094 1.48-38.299 80.62 55.307 10.95 26.091-3.09-1.527-58.09z" fill="url(#paint13_radial)"/></g><g opacity=".25"><path style="mix-blend-mode:multiply" opacity=".25" d="M125.487 184.87l-12.816-24.95-53.16.41-32.02 88.36 48.908 13.34 38.887-14.48 44.897-80.53-34.696 17.85z" fill="url(#paint14_radial)"/><path style="mix-blend-mode:multiply" opacity=".25" d="M115.286 247.55l-32.21 57.79 93.186 14.58 15.871-100.99-76.847 28.62z" fill="url(#paint15_radial)"/><path style="mix-blend-mode:multiply" opacity=".25" d="M116.444 100.71l-1.737-1.89-28.077 10.44 26.041 50.66 30.633-.23-26.86-58.98z" fill="url(#paint16_radial)"/><path style="mix-blend-mode:multiply" opacity=".25" d="M79.553 576l7.257-33.65L48.36 576h.799l29.106-22.05L74.931 576h4.621z" fill="url(#paint17_radial)"/><path style="mix-blend-mode:multiply" opacity=".25" d="M168.926 475.89L84.314 388.5l6.298-2.98-33.617-11.19 37.32 81.87-4.102 70.38-3.403 15.77 39.057-34.17 43.059-32.29z" fill="url(#paint18_radial)"/><path style="mix-blend-mode:multiply" opacity=".25" d="M176.262 319.92l-1.697 10.83 2.396 5.6 20.072-13.17-20.771-3.26z" fill="url(#paint19_radial)"/><path style="mix-blend-mode:multiply" opacity=".25" d="M176.961 336.35l-45.335 29.74-41.014 19.43 125.346 41.71-38.997-90.88z" fill="url(#paint20_radial)"/></g><path d="M41.214 516.66a48.449 48.449 0 007.675-1.32l.71 2.91a50.202 50.202 0 01-8.165 1.41l-.18-3h-.04zm15.142-3.6a75.784 75.784 0 007.226-3l1.298 2.71a77.847 77.847 0 01-7.506 3.15l-.998-2.82-.02-.04zm9.841-337.54c0-2.353.043-4.733.13-7.14l2.994.11c-.09 2.37-.13 4.72-.13 7v.9h-2.994v-.92.05zm.21 9l2.994-.14c.13 2.67.3 5.31.54 7.92l-2.995.26a179.46 179.46 0 01-.54-8v-.04zm.38-24.16c.209-2.63.468-5.31.798-8l2.994.35c-.32 2.68-.569 5.31-.778 7.9l-2.995-.23-.02-.02zm.997 40.2l2.995-.38c.339 2.64.738 5.26 1.157 7.85l-2.994.49c-.44-2.63-.828-5.28-1.188-8l.03.04zm.869-56.2c.419-2.6.878-5.25 1.397-7.93l2.994.58c-.519 2.64-.998 5.25-1.377 7.82l-2.994-.47h-.02zm1.776 72.08l2.995-.61c.519 2.61 1.088 5.18 1.687 7.75l-2.905.69a253.38 253.38 0 01-1.727-7.83h-.05zm0 289.86a82.273 82.273 0 006.468-4.43l1.807 2.39a84.713 84.713 0 01-6.708 4.6l-1.567-2.56zm1.278-377.75a316.6 316.6 0 011.926-7.81l2.905.77a540.78 540.78 0 00-1.906 7.72l-2.925-.68zM74.122 232l2.895-.77c.679 2.56 1.377 5.12 2.126 7.68l-2.885.82c-.738-2.57-1.457-5.15-2.136-7.73zm1.717-119c.749-2.52 1.537-5.09 2.386-7.68l2.845.93a294.896 294.896 0 00-2.366 7.6l-2.865-.85zm2.715 134.5l2.865-.88a828.495 828.495 0 002.405 7.61l-2.854.93a997.639 997.639 0 01-2.416-7.66zM80.83 97.66c.918-2.58 1.886-5.09 2.895-7.51l2.764 1.15c-.938 2.25-1.836 4.57-2.824 7.24l-.18.45-1.248-.8-1.407-.53zm2.096 399.12a80.596 80.596 0 005.45-5.63l2.246 2c-1.787 2-3.694 4-5.65 5.84l-1.996-2.19-.05-.02zm.559-234l2.845-.94 2.485 7.52-2.835 1-2.545-7.59.05.01zm3.563-180c1.208-2.45 2.486-4.86 3.803-7.15l2.595 1.5a109.409 109.409 0 00-3.703 7l-2.695-1.32v-.03zm1.517 195.12l2.835-1 2.545 7.58-2.834 1-2.546-7.57v-.01zM93.248 485c1.507-2.1 2.994-4.3 4.312-6.55l2.575 1.54a93.227 93.227 0 01-4.462 6.77L93.247 485zm.369-192l2.845-.92c.818 2.51 1.627 5.06 2.425 7.63l-2.844.9c-.809-2.57-1.618-5.1-2.426-7.61zm1.487-224.24c1.527-2.27 3.134-4.47 4.791-6.55l2.336 1.87c-1.597 2-3.164 4.15-4.641 6.35l-2.486-1.67zm3.274 239.52l2.865-.86c.758 2.54 1.497 5.1 2.236 7.71l-2.875.81a834.41 834.41 0 00-2.226-7.66zm2.925 163.27c1.128-2.3 2.206-4.72 3.194-7.18l2.775 1.11c-.999 2.54-2.116 5-3.284 7.4l-2.685-1.33zm1.387-147.92l2.895-.77c.668 2.56 1.327 5.16 1.996 7.78l-2.915.71a426.32 426.32 0 00-1.936-7.72h-.04zm2.505-267.56c1.867-2 3.833-3.9 5.82-5.66l1.996 2.25a85.049 85.049 0 00-5.63 5.47l-2.176-2.06h-.01zm1.218 283l2.925-.65c.569 2.59 1.108 5.21 1.637 7.87l-2.995.58a264.123 264.123 0 00-1.617-7.8h.05zm.749 117.93c.792-2.433 1.52-4.96 2.186-7.58l2.904.74c-.688 2.69-1.437 5.27-2.236 7.77l-2.854-.93zm2.315-102.22l2.995-.5c.446 2.6.868 5.24 1.267 7.92l-2.994.44a285.305 285.305 0 00-1.248-7.86h-.02zm1.597 86.93c.493-2.52.932-5.123 1.318-7.81l2.994.43a185.08 185.08 0 01-1.347 8l-2.935-.57-.03-.05zm.729-71.18l2.995-.37c.319 2.62.615 5.287.888 8l-2.995.3c-.269-2.68-.568-5.31-.888-7.91v-.02zM113.32 426c.25-2.56.439-5.19.589-7.9l2.995.16c-.14 2.75-.35 5.42-.599 8l-2.995-.28.01.02zm.07-39.67l2.995-.23c.099 1.32.199 2.64.279 4 .08 1.36.17 2.71.24 4.05l-2.995.15c-.07-1.32-.14-2.65-.229-4-.09-1.35-.18-2.63-.28-3.94l-.01-.03zm.779 15.88l2.994-.05v8.05l-2.994-.05v-7.95zm3.174-356.9a80.13 80.13 0 016.807-4.45l1.507 2.59a78.466 78.466 0 00-6.548 4.29l-1.766-2.43zm14.034-8.19a73.45 73.45 0 017.575-3l.939 2.84a75.686 75.686 0 00-7.277 2.85l-1.237-2.73v.04zm15.43-5.12a77.022 77.022 0 018.045-1.29l.319 3c-2.598.282-5.18.696-7.735 1.24l-.629-2.95zm16.17 1.29v-3c2.714.003 5.426.15 8.124.44l-.319 3a73.412 73.412 0 00-7.815-.43l.01-.01zM178.518 35l.618-2.93a75.379 75.379 0 017.866 2.12l-.929 2.81c-2.475-.8-4.99-1.49-7.555-2zm14.872 4.84l1.228-2.78a79.974 79.974 0 017.256 3.69l-1.487 2.6a77.795 77.795 0 00-6.987-3.55l-.01.04zm13.545 7.8l1.756-2.43a78.084 78.084 0 016.338 5.11l-1.996 2.24a75.924 75.924 0 00-6.098-4.92zm11.638 10.41l2.226-2a72.882 72.882 0 015.1 6.36l-2.435 1.75a68.635 68.635 0 00-4.891-6.11zm6.068 94.43c1.039-2 2.007-4 2.905-6l2.735 1.23c-.918 2-1.907 4.11-2.994 6.19l-2.666-1.37.02-.05zm2.995-81.71l2.605-1.47a74.151 74.151 0 013.583 7.33l-2.765 1.16a69.988 69.988 0 00-3.423-7v-.02zm2.914 68.36c.929-2.5 1.757-5 2.476-7.5l2.874.85c-.738 2.54-1.597 5.12-2.545 7.68l-2.805-1v-.03zm3.184-54l2.805-.83a73.332 73.332 0 011.887 7.93l-2.935.54a77.559 77.559 0 00-1.816-7.61l.059-.03zm1.168 38.87c.539-2.6.998-5.21 1.268-7.76l2.994.35a95.021 95.021 0 01-1.297 8l-2.935-.6-.03.01zm1.637-23.45l2.995-.23c.199 2.66.269 5.38.209 8.14l-2.994-.07c.06-2.667-.007-5.28-.2-7.84h-.01z" fill="#fff" opacity=".25"/><path d="M109.617 515.2c0 1.859.55 3.676 1.581 5.222a9.385 9.385 0 004.211 3.462 9.375 9.375 0 0010.225-2.037 9.41 9.41 0 00-1.422-14.463A9.369 9.369 0 00119 505.8a9.387 9.387 0 00-6.632 2.756 9.42 9.42 0 00-2.751 6.644zm17.757 0a8.403 8.403 0 01-1.411 4.661 8.372 8.372 0 01-8.597 3.568 8.372 8.372 0 01-4.288-2.296 8.4 8.4 0 011.269-12.909A8.362 8.362 0 01119 506.81a8.376 8.376 0 015.918 2.46 8.411 8.411 0 012.456 5.93zm-39.227-72.26a9.367 9.367 0 005.773 8.657 9.342 9.342 0 0010.192-2.031 9.379 9.379 0 00-1.417-14.417 9.337 9.337 0 00-5.196-1.579 9.358 9.358 0 00-6.61 2.747 9.39 9.39 0 00-2.742 6.623zm17.706 0a8.38 8.38 0 01-1.408 4.65 8.343 8.343 0 01-12.853 1.268 8.374 8.374 0 01-1.811-9.121 8.359 8.359 0 017.718-5.167 8.36 8.36 0 015.905 2.454 8.386 8.386 0 012.449 5.916zm-34.615-74.37a1.003 1.003 0 00.616.924 1 1 0 10-.324-1.631 1 1 0 00-.292.707zm1.847 0a.87.87 0 01-1.483.615.874.874 0 01-.188-.948.865.865 0 011.414-.279.879.879 0 01.257.612zm2.005-78.27c0 1.717.509 3.395 1.46 4.822a8.664 8.664 0 008.895 3.691 8.658 8.658 0 004.436-2.375 8.686 8.686 0 001.878-9.46 8.677 8.677 0 00-3.191-3.895 8.65 8.65 0 00-4.813-1.463 8.673 8.673 0 00-6.12 2.548 8.71 8.71 0 00-2.544 6.132zm16.4 0a7.744 7.744 0 01-4.775 7.16 7.719 7.719 0 01-8.43-1.68 7.756 7.756 0 01-1.677-8.446 7.73 7.73 0 017.147-4.784 7.74 7.74 0 015.467 2.273 7.767 7.767 0 012.268 5.477zm41.513-61.6c0 .475.14.939.404 1.333a2.388 2.388 0 002.459 1.021 2.396 2.396 0 001.882-1.886 2.398 2.398 0 00-3.266-2.685 2.398 2.398 0 00-1.479 2.217zm4.531 0a2.142 2.142 0 01-1.318 1.977 2.128 2.128 0 01-2.328-.464 2.141 2.141 0 011.51-3.653 2.137 2.137 0 012.136 2.14zm-70.398-53.33c0 2.176.644 4.302 1.85 6.111a10.969 10.969 0 0016.893 1.667 11.021 11.021 0 002.38-11.988 10.995 10.995 0 00-4.044-4.936 10.962 10.962 0 00-13.863 1.368 11.01 11.01 0 00-3.216 7.778zm20.691 0a9.792 9.792 0 01-1.645 5.433 9.75 9.75 0 01-15.02 1.483 9.789 9.789 0 01-2.115-10.659 9.779 9.779 0 013.595-4.389 9.754 9.754 0 015.423-1.648 9.763 9.763 0 016.894 2.871 9.799 9.799 0 012.858 6.909h.01zm-2.864-83.63c0 1.266.375 2.504 1.077 3.557a6.377 6.377 0 009.831.965 6.403 6.403 0 001.379-6.978 6.397 6.397 0 00-2.357-2.87 6.38 6.38 0 00-8.063.804 6.406 6.406 0 00-1.867 4.522zm12.087 0a5.727 5.727 0 01-3.538 5.27 5.699 5.699 0 01-6.215-1.252 5.724 5.724 0 01-1.229-6.232 5.702 5.702 0 019.306-1.855 5.725 5.725 0 011.676 4.039v.03zM75.14 40.66a.94.94 0 001.116.933.938.938 0 00.69-1.28.94.94 0 00-.867-.583.937.937 0 00-.938.93zm1.767 0a.84.84 0 01-1 .834.838.838 0 01-.61-1.15.84.84 0 011.61.316zm34.726 9.5a9.42 9.42 0 001.587 5.224 9.397 9.397 0 004.216 3.462 9.374 9.374 0 0010.231-2.042 9.417 9.417 0 002.038-10.25 9.409 9.409 0 00-3.455-4.224 9.382 9.382 0 00-5.215-1.59 9.4 9.4 0 00-6.645 2.762 9.435 9.435 0 00-2.757 6.658zm17.777 0a8.411 8.411 0 01-1.419 4.665 8.37 8.37 0 01-12.901 1.258 8.403 8.403 0 01-2.29-4.304 8.423 8.423 0 01.483-4.853 8.399 8.399 0 013.092-3.766 8.374 8.374 0 0112.4 3.785c.42 1.02.636 2.112.635 3.215zm-69.96 80.61a6.768 6.768 0 001.142 3.753 6.75 6.75 0 006.928 2.866 6.75 6.75 0 005.296-5.314 6.77 6.77 0 00-2.87-6.936 6.734 6.734 0 00-8.523.844 6.77 6.77 0 00-1.973 4.787zm12.776 0a6.005 6.005 0 01-3.697 5.543 5.984 5.984 0 01-8.165-4.372 6.01 6.01 0 012.546-6.16 5.983 5.983 0 017.562.746 6.008 6.008 0 011.754 4.243zm33.727 58.71a1.709 1.709 0 002.914 1.209 1.71 1.71 0 00-1.207-2.919 1.716 1.716 0 00-1.707 1.71zm3.224 0a1.534 1.534 0 01-.945 1.414 1.52 1.52 0 01-1.665-.336 1.525 1.525 0 01-.325-1.67 1.524 1.524 0 011.418-.938 1.517 1.517 0 011.517 1.53zM86.45 230.62a6.455 6.455 0 003.974 5.959 6.427 6.427 0 007.016-1.398 6.456 6.456 0 00-.975-9.924 6.427 6.427 0 00-8.13.802 6.457 6.457 0 00-1.885 4.561zm12.177 0a5.765 5.765 0 01-3.551 5.322 5.737 5.737 0 01-6.267-1.253 5.763 5.763 0 01-1.24-6.28 5.756 5.756 0 015.32-3.549 5.745 5.745 0 014.058 1.691 5.763 5.763 0 011.68 4.069zm-28.966 85.17a5.492 5.492 0 006.56 5.394 5.486 5.486 0 002.812-1.505 5.502 5.502 0 001.19-5.994 5.495 5.495 0 00-7.174-2.979 5.481 5.481 0 00-2.973 2.978 5.495 5.495 0 00-.415 2.106zm10.39 0a4.9 4.9 0 01-5.857 4.816 4.9 4.9 0 01-3.85-3.858 4.919 4.919 0 012.084-5.04 4.891 4.891 0 012.723-.828 4.909 4.909 0 013.462 1.441 4.925 4.925 0 011.439 3.469zm18.257 54.57c0 1.329.393 2.628 1.13 3.733a6.703 6.703 0 0012.156-2.422 6.737 6.737 0 00-.382-3.883 6.714 6.714 0 00-6.197-4.148 6.715 6.715 0 00-4.74 1.971 6.739 6.739 0 00-1.967 4.749zm12.696 0a6.004 6.004 0 01-3.697 5.543 5.984 5.984 0 01-8.166-4.372 6.013 6.013 0 012.547-6.16 5.984 5.984 0 017.562.746 6.009 6.009 0 011.754 4.243zm34.705 54.51a8.01 8.01 0 001.346 4.445 7.985 7.985 0 008.197 3.401 7.969 7.969 0 004.088-2.189 8.003 8.003 0 001.731-8.718 7.996 7.996 0 00-2.941-3.591 7.974 7.974 0 00-10.082.995 8.005 8.005 0 00-2.339 5.657zm15.042 0a7.117 7.117 0 01-4.381 6.569 7.089 7.089 0 01-7.734-1.541 7.116 7.116 0 01-1.538-7.749 7.091 7.091 0 016.556-4.389 7.102 7.102 0 015.015 2.085 7.127 7.127 0 012.082 5.025zm-37.4 34.58a4.415 4.415 0 002.747 4.047 4.4 4.4 0 005.976-3.247 4.408 4.408 0 00-7.447-3.959 4.426 4.426 0 00-1.296 3.119l.02.04zm8.334 0a3.938 3.938 0 01-4.697 3.875 3.93 3.93 0 01-3.093-3.099 3.938 3.938 0 013.868-4.706 3.934 3.934 0 013.922 3.93zm-21.798-50.82a4.407 4.407 0 002.713 4.066 4.388 4.388 0 005.987-3.214 4.41 4.41 0 00-.254-2.543 4.392 4.392 0 00-4.064-2.709 4.386 4.386 0 00-3.099 1.292 4.403 4.403 0 00-1.283 3.108zm8.304 0a3.934 3.934 0 01-2.421 3.631 3.919 3.919 0 01-4.275-.852 3.937 3.937 0 01.594-6.047 3.917 3.917 0 012.18-.662 3.909 3.909 0 013.626 2.424c.197.478.298.99.296 1.506zm-34.107-70.56a4.115 4.115 0 002.525 3.804 4.099 4.099 0 005.6-2.989 4.118 4.118 0 00-1.742-4.222 4.097 4.097 0 00-5.178.507 4.115 4.115 0 00-1.205 2.9zm7.755 0a3.674 3.674 0 01-2.256 3.399 3.66 3.66 0 01-5-2.676 3.675 3.675 0 011.564-3.769 3.662 3.662 0 012.04-.614 3.67 3.67 0 012.577 1.078 3.682 3.682 0 011.076 2.582zm16.999-60.18c0 1.78.527 3.52 1.514 5a8.974 8.974 0 0013.821 1.364 9.004 9.004 0 002.459-4.608 9.028 9.028 0 00-.511-5.2 8.997 8.997 0 00-3.309-4.039 8.97 8.97 0 00-11.343 1.119 9.007 9.007 0 00-2.631 6.364zm16.968 0a8.01 8.01 0 01-1.346 4.445 7.985 7.985 0 01-8.197 3.401 7.973 7.973 0 01-4.088-2.189 8.01 8.01 0 011.21-12.309 7.974 7.974 0 0110.082.995 8.005 8.005 0 012.339 5.657zm-40.813-57.07a2.716 2.716 0 001.67 2.504 2.706 2.706 0 003.534-3.541 2.706 2.706 0 00-2.499-1.673 2.704 2.704 0 00-2.705 2.71zm5.12 0a2.435 2.435 0 01-1.492 2.253 2.426 2.426 0 01-3.172-3.178 2.423 2.423 0 012.249-1.495 2.422 2.422 0 012.416 2.42zm66.705-51.55c-.002.722.21 1.429.609 2.031.4.601.968 1.07 1.633 1.348a3.634 3.634 0 003.974-.785 3.645 3.645 0 00.794-3.978 3.642 3.642 0 00-3.366-2.256 3.654 3.654 0 00-3.644 3.64zm6.897 0a3.256 3.256 0 01-3.882 3.209 3.259 3.259 0 01-2.379-4.444 3.26 3.26 0 013.008-2.015 3.251 3.251 0 013.253 3.25zM99.057 77.26a.801.801 0 00.954.785.8.8 0 10-.954-.785zm1.517 0a.722.722 0 01-.853.717.718.718 0 01-.53-.98.72.72 0 011.169-.24.724.724 0 01.214.503zm-79.582 69.03c0 2.091.619 4.134 1.778 5.872a10.55 10.55 0 0010.83 4.495 10.548 10.548 0 005.403-2.893 10.588 10.588 0 002.287-11.519 10.572 10.572 0 00-3.886-4.744 10.54 10.54 0 00-13.322 1.315 10.58 10.58 0 00-3.09 7.474zm19.963 0a9.456 9.456 0 01-1.588 5.245 9.424 9.424 0 01-9.673 4.014 9.424 9.424 0 01-4.824-2.584 9.459 9.459 0 01-2.043-10.288 9.439 9.439 0 013.47-4.236 9.412 9.412 0 015.235-1.591 9.433 9.433 0 016.657 2.771 9.468 9.468 0 012.766 6.669z" fill="#fff" opacity=".25"/><path d="M87.468 530c5.51-6.3-2.136-11-1.457-16.43.519-4.08 5.26-5.64 7.187-6.12l23.276 5.76 5.809-23.6c2.056-3.67 9.562-5.95 13.136.49 3.573 6.44 7.935 5.78 10.829 4.54 5.33-2.29 9.093-13.64 3.604-18.45-6.289-5.52-10.98 2.14-16.39 1.45-4.831-.61-6.148-7.19-6.268-7.93l5.52-22.4-66.047-16.38-5.69 23.07c.55 2.07 2.157 6.42 6.05 6.92 5.39.68 10.1-7 16.389-1.46 5.48 4.84 1.727 16.19-3.584 18.54-2.894 1.23-7.246 1.89-10.83-4.55-3.233-5.82-9.681-4.51-12.416-1.49l-6.139 24.93 24.415 6c3.184 2.6 4.69 9.31-1.258 12.62-6.438 3.59-5.77 8-4.531 10.86 2.265 5.31 13.594 9.08 18.395 3.63z" fill="#CCC"/><path d="M250.354 453.43c-9.462-.27-8.045 9.82-13.235 13.14-3.653 2.32-8.045-.12-10.091-1.55l-11.978-24.75-24.724 12c-4.691.87-12.087-4.05-9.083-11.82 3.005-7.77-.698-11.11-3.863-12.73-5.839-3-18.435 1.92-18.665 10.18-.249 9.48 9.822 8.05 13.116 13.27 2.994 4.66-1.817 10.55-2.376 11.2l-23.456 11.33 11.429 23.69c.778.66 6.567 5.27 11.159 2.36 5.2-3.31 3.773-13.41 13.245-13.14 8.245.23 13.146 12.84 10.161 18.69-1.627 3.17-4.991 6.91-12.716 3.88-7.726-3.03-12.627 4.33-11.808 9l12.037 25 69.082-33.43-12.667-26.27c.32-4.57 4.991-10.18 11.888-7.48 7.765 3 11.079-.7 12.706-3.87 2.975-5.86-1.916-18.47-10.161-18.7z" fill="#A3B1BB"/><path d="M211.107 217.41l27.129-21.55-60.317-76.21-27.129 21.56c-5.52 2.35-15.971-1.65-14.404-12 1.568-10.35-3.932-13.47-8.264-14.59-7.985-2.08-22.149 7.44-20.152 17.67 2.285 11.74 14.273 7.2 19.783 12.7 4.91 4.91.658 13.48.159 14.43l-25.762 20.47 21.331 27c2.744 1.18 9.172 3.29 13.185-.74 5.5-5.51.998-17.52 12.686-19.82 10.201-2 19.704 12.17 17.637 20.19-1.128 4.36-4.182 9.86-14.572 8.28-9.443-1.43-13.605 7.15-12.487 12.87l22.538 28.47 28.766-22.84c5.679-.72 13.585 3.48 12.207 12.61-1.577 10.4 3.913 13.47 8.255 14.59 7.985 2.08 22.159-7.45 20.152-17.67-2.295-11.83-14.273-7.29-19.773-12.83-3.763-3.71-2.166-9.59-.968-12.59z" fill="#1487C0"/><path d="M136.407 306.65c-4.571-7.36-11.538-1.19-16.689-3.5-3.463-1.55-3.932-5.86-3.913-8.22L128.841 273l-21.59-12.88c-2.994-3.15-2.994-11.29 4.442-12.9 7.436-1.61 8.105-6.14 7.746-9.38-.669-6-10.76-13.13-17.168-9.14-7.356 4.58-1.188 11.56-3.494 16.72-2.066 4.61-8.983 3.93-9.742 3.84L68.544 237l-12.337 20.77c-.06.45-.899 7.66 3.833 9.78 5.14 2.3 12.107-3.87 16.678 3.5 3.993 6.42-3.134 16.54-9.113 17.2-3.243.36-7.755-.3-9.372-7.76s-9.802-7.47-12.906-4.41l-12.826 21.59 22.887 13.65c1.947 3.68 1.138 10.14-5.4 11.56-7.446 1.61-8.105 6.14-7.745 9.38.659 6 10.75 13.13 17.168 9.14 7.346-4.58 1.188-11.57 3.483-16.72 1.577-3.53 5.99-3.95 8.315-3.92l21.6 12.88 13.664-23c3.683-1.91 10.061-1.07 11.458 5.44 1.607 7.46 6.129 8.12 9.373 7.76 5.959-.65 13.086-10.77 9.103-17.19z" fill="#CCC"/><path d="M182.021 352.3c-4.172 9.26 6.358 12 7.476 18.52.779 4.56-3.443 7.9-5.689 9.34l-29.305 1.59 1.587 29.39c-1.078 5-8.983 10.29-15.382 4.11-6.398-6.18-11.239-3.89-14.153-1.43-5.37 4.54-5.709 19 2.345 22.66 9.233 4.16 11.978-6.39 18.476-7.5 5.809-1 9.642 6.15 10.051 7l1.517 27.91 82.267-4.47-4.442-82.1-31.102 1.68c-4.372-2.2-7.985-9.1-2.475-14.83 6.188-6.44 3.883-11.26 1.427-14.17-4.541-5.41-18.984-5.75-22.598 2.3z" fill="#063F6B"/><path d="M130.159 345.27c6.677-3.2 2.086-9.72 4.521-13.87 1.647-2.81 5.35-2.8 7.346-2.56L159.384 342l12.976-17.16c2.994-2.27 9.831-1.51 10.51 5 .679 6.51 4.452 7.47 7.227 7.47 5.13 0 12.127-7.92 9.352-13.74-3.204-6.69-9.702-2.1-13.844-4.55-3.713-2.18-2.495-8-2.346-8.63l12.288-16.29-48.021-36.33-13.704 18.19c-3.314 1.31-8.704 0-9.303-5.68-.659-6.47-4.432-7.47-7.216-7.46-5.121 0-12.128 7.92-9.353 13.74 3.194 6.69 9.692 2.1 13.854 4.54 2.835 1.67 2.785 5.45 2.535 7.43l-12.975 17.16 18.206 13.77c1.277 3.31 0 8.65-5.68 9.24-6.468.66-7.456 4.46-7.456 7.24 0 5.11 7.905 12.11 13.725 9.33z" fill="#4F5F6B"/><path d="M266.833 333.15c1.677-6-4.991-6.67-6.208-10.51-.859-2.62 1.247-5 2.495-6.09l17.597-3.64-3.673-17.76c-1.128-1.26-3.434-3.27-5.989-2.42-3.833 1.27-4.541 7.9-10.5 6.22-5.191-1.46-6.299-10.24-3.464-13.48 1.527-1.75 4.232-3.59 8.674-.43a5.606 5.606 0 004.998.887 5.616 5.616 0 003.666-3.517l-3.953-18.92-17.587 3.64c-3.114-.19-6.987-4.49-3.873-8.94 3.114-4.45 1.318-7.17-.439-8.7-3.234-2.84-11.978-1.72-13.455 3.48-1.677 6 4.941 6.68 6.209 10.51 1.137 3.43-2.835 6.41-3.294 6.73l-16.699 3.46 3.603 17.48c.998 1.19 3.494 3.67 6.288 2.74 3.833-1.26 4.532-7.9 10.491-6.22 5.2 1.46 6.308 10.24 3.473 13.48-1.537 1.76-4.242 3.59-8.683.44a5.592 5.592 0 00-2.49-1.06 5.592 5.592 0 00-4.969 1.697 5.614 5.614 0 00-1.325 2.363l3.823 18.5 18.655-3.86a5.598 5.598 0 013.586 3.652 5.629 5.629 0 01-.871 5.048c-3.154 4.46-1.318 7.16.429 8.7 3.264 2.84 12.028 1.73 13.485-3.48z" fill="#81C5EC"/><defs><radialGradient id="paint0_radial" cx="0" cy="0" r="1" gradientUnits="userSpaceOnUse" gradientTransform="scale(349.378 350.03) rotate(90 -.208 .79)"><stop stop-color="#fff"/><stop offset=".38" stop-color="#EC148E"/><stop offset="1" stop-color="#9D248F"/></radialGradient><radialGradient id="paint1_radial" cx="0" cy="0" r="1" gradientUnits="userSpaceOnUse" gradientTransform="matrix(30910.3 0 0 26498 93304.3 100699)"><stop stop-color="#fff"/><stop offset=".38" stop-color="#EC148E"/><stop offset="1" stop-color="#9D248F"/></radialGradient><radialGradient id="paint2_radial" cx="0" cy="0" r="1" gradientUnits="userSpaceOnUse" gradientTransform="matrix(5230.63 0 0 6479.61 15837.1 24875.4)"><stop stop-color="#fff"/><stop offset=".38" stop-color="#EC148E"/><stop offset="1" stop-color="#9D248F"/></radialGradient><radialGradient id="paint3_radial" cx="0" cy="0" r="1" gradientUnits="userSpaceOnUse" gradientTransform="matrix(6162.32 0 0 6835.29 18708.7 26454.3)"><stop stop-color="#fff"/><stop offset=".38" stop-color="#EC148E"/><stop offset="1" stop-color="#9D248F"/></radialGradient><radialGradient id="paint4_radial" cx="0" cy="0" r="1" gradientUnits="userSpaceOnUse" gradientTransform="matrix(27579.4 0 0 11311.4 83351.9 43437.2)"><stop stop-color="#fff"/><stop offset=".38" stop-color="#EC148E"/><stop offset="1" stop-color="#9D248F"/></radialGradient><radialGradient id="paint5_radial" cx="0" cy="0" r="1" gradientUnits="userSpaceOnUse" gradientTransform="matrix(49379.7 0 0 72391.1 149007 274810)"><stop stop-color="#fff"/><stop offset=".38" stop-color="#EC148E"/><stop offset="1" stop-color="#9D248F"/></radialGradient><radialGradient id="paint6_radial" cx="0" cy="0" r="1" gradientUnits="userSpaceOnUse" gradientTransform="matrix(0 388.25 -387.527 0 233.226 253.28)"><stop stop-color="#fff"/><stop offset=".38" stop-color="#52CAF5"/><stop offset="1" stop-color="#007DC5"/></radialGradient><radialGradient id="paint7_radial" cx="0" cy="0" r="1" gradientUnits="userSpaceOnUse" gradientTransform="matrix(30916.2 0 0 33847.2 76547.8 113108)"><stop stop-color="#fff"/><stop offset=".38" stop-color="#52CAF5"/><stop offset="1" stop-color="#007DC5"/></radialGradient><radialGradient id="paint8_radial" cx="0" cy="0" r="1" gradientUnits="userSpaceOnUse" gradientTransform="matrix(21954.5 0 0 3871.05 54339 13058.2)"><stop stop-color="#fff"/><stop offset=".38" stop-color="#52CAF5"/><stop offset="1" stop-color="#007DC5"/></radialGradient><radialGradient id="paint9_radial" cx="0" cy="0" r="1" gradientUnits="userSpaceOnUse" gradientTransform="matrix(23959.4 0 0 4504.16 59310.5 15182.3)"><stop stop-color="#fff"/><stop offset=".38" stop-color="#52CAF5"/><stop offset="1" stop-color="#007DC5"/></radialGradient><radialGradient id="paint10_radial" cx="0" cy="0" r="1" gradientUnits="userSpaceOnUse" gradientTransform="matrix(36230.7 0 0 34170.4 89683.3 114380)"><stop stop-color="#fff"/><stop offset=".38" stop-color="#52CAF5"/><stop offset="1" stop-color="#007DC5"/></radialGradient><radialGradient id="paint11_radial" cx="0" cy="0" r="1" gradientUnits="userSpaceOnUse" gradientTransform="matrix(11592.1 0 0 4659.48 28730.4 15878.5)"><stop stop-color="#fff"/><stop offset=".38" stop-color="#52CAF5"/><stop offset="1" stop-color="#007DC5"/></radialGradient><radialGradient id="paint12_radial" cx="0" cy="0" r="1" gradientUnits="userSpaceOnUse" gradientTransform="matrix(46855.6 0 0 35302.4 115936 118259)"><stop stop-color="#fff"/><stop offset=".38" stop-color="#52CAF5"/><stop offset="1" stop-color="#007DC5"/></radialGradient><radialGradient id="paint13_radial" cx="0" cy="0" r="1" gradientUnits="userSpaceOnUse" gradientTransform="matrix(31602.8 0 0 36126.7 78250.2 120838)"><stop stop-color="#fff"/><stop offset=".38" stop-color="#52CAF5"/><stop offset="1" stop-color="#007DC5"/></radialGradient><radialGradient id="paint14_radial" cx="0" cy="0" r="1" gradientUnits="userSpaceOnUse" gradientTransform="scale(480.433 481.33) rotate(90 .003 .605)"><stop stop-color="#fff"/><stop offset=".38" stop-color="#FED300"/><stop offset="1" stop-color="#FF9618"/></radialGradient><radialGradient id="paint15_radial" cx="0" cy="0" r="1" gradientUnits="userSpaceOnUse" gradientTransform="matrix(52493.2 0 0 48610.5 108836 125261)"><stop stop-color="#fff"/><stop offset=".38" stop-color="#FED300"/><stop offset="1" stop-color="#FF9618"/></radialGradient><radialGradient id="paint16_radial" cx="0" cy="0" r="1" gradientUnits="userSpaceOnUse" gradientTransform="matrix(27280.1 0 0 29410.5 56602.7 75749.8)"><stop stop-color="#fff"/><stop offset=".38" stop-color="#FED300"/><stop offset="1" stop-color="#FF9618"/></radialGradient><radialGradient id="paint17_radial" cx="0" cy="0" r="1" gradientUnits="userSpaceOnUse" gradientTransform="matrix(18506.3 0 0 16196.8 38390.5 42206.1)"><stop stop-color="#fff"/><stop offset=".38" stop-color="#FED300"/><stop offset="1" stop-color="#FF9618"/></radialGradient><radialGradient id="paint18_radial" cx="0" cy="0" r="1" gradientUnits="userSpaceOnUse" gradientTransform="matrix(53875.8 0 0 80873.1 111676 208410)"><stop stop-color="#fff"/><stop offset=".38" stop-color="#FED300"/><stop offset="1" stop-color="#FF9618"/></radialGradient><radialGradient id="paint19_radial" cx="0" cy="0" r="1" gradientUnits="userSpaceOnUse" gradientTransform="matrix(10813.4 0 0 7907.43 22579.7 20663)"><stop stop-color="#fff"/><stop offset=".38" stop-color="#FED300"/><stop offset="1" stop-color="#FF9618"/></radialGradient><radialGradient id="paint20_radial" cx="0" cy="0" r="1" gradientUnits="userSpaceOnUse" gradientTransform="matrix(60335.3 0 0 43745.1 125087 112859)"><stop stop-color="#fff"/><stop offset=".38" stop-color="#FED300"/><stop offset="1" stop-color="#FF9618"/></radialGradient></defs></svg>