<svg width="300" height="576" viewBox="0 0 300 576" fill="none" xmlns="http://www.w3.org/2000/svg">
<g opacity="0.4">
<g opacity="0.25">
<path opacity="0.25" d="M95.9109 148.5L93.5153 148.57L54.6279 230.05L62.4633 234.3L101.58 177.82L95.9109 148.5Z" fill="url(#paint0_radial)"/>
<path opacity="0.25" d="M62.4629 234.3L45.4746 258.82L89.5324 288.74L80.06 310L133.78 273L62.4629 234.3Z" fill="url(#paint1_radial)"/>
<path opacity="0.25" d="M80.0603 310L65.1182 320.29L72.694 328.51L76.2075 318.64L80.0603 310Z" fill="url(#paint2_radial)"/>
<path opacity="0.25" d="M127.552 535.33L121.174 554.86L134.03 553.16L138.781 537.59L127.552 535.33Z" fill="url(#paint3_radial)"/>
<path opacity="0.25" d="M133.67 576L140.577 562.78L205.875 543.68L134.029 553.16L127.072 576H133.67Z" fill="url(#paint4_radial)"/>
<path opacity="0.25" d="M65.3978 453.65L140.538 428.42L124.188 384.46L72.6942 328.51L64.4696 351.56L93.9146 405.33L10.3506 450.33L46.1837 518.87L127.552 535.33L151.427 462.19L65.3978 453.65Z" fill="url(#paint5_radial)"/>
</g>
<g opacity="0.25">
<g style="mix-blend-mode:multiply" opacity="0.25">
<path d="M182.07 23.73L173.486 30.77L178.836 65.13L252.748 6.34003L182.07 23.73Z" fill="#D30A55"/>
</g>
<g style="mix-blend-mode:multiply" opacity="0.25">
<path d="M115.574 200.91L136.026 168.48L220.718 168.46L180.184 73.72L178.836 65.13L176.111 67.31L136.026 99.3L76.627 124.61L88.9939 217.88L125.655 231.44L138.761 213.98L115.574 200.91Z" fill="#DF6800"/>
</g>
<g style="mix-blend-mode:multiply" opacity="0.25">
<path d="M209.769 0L163.605 28.27L182.071 23.73L211.017 0H209.769Z" fill="#D30A55"/>
</g>
<g style="mix-blend-mode:multiply" opacity="0.25">
<path d="M125.656 231.44L69.2812 306.59L119.837 311.83L180.713 251.81L125.656 231.44Z" fill="#D30A55"/>
</g>
<g style="mix-blend-mode:multiply" opacity="0.25">
<path d="M110.704 576H163.006L160.731 525.88L113.149 529.3L96.8398 573.01L110.704 576Z" fill="#D30A55"/>
</g>
<g style="mix-blend-mode:multiply" opacity="0.25">
<path d="M145.858 404.81L141.396 398L16.9887 391.16L13.1758 461.1L30.6132 463.38L74.8507 418.4L145.858 404.81Z" fill="#2500DF"/>
</g>
<g style="mix-blend-mode:multiply" opacity="0.25">
<path d="M30.6128 463.38L25.8916 468.19L42.0315 534.4L113.149 529.3L132.742 476.74L30.6128 463.38Z" fill="#82FF7F"/>
</g>
<g style="mix-blend-mode:multiply" opacity="0.25">
<path d="M136.616 313.57L119.837 311.83L97.7383 333.61L104.605 341.81L103.647 340.35L136.616 313.57Z" fill="#D30A55"/>
</g>
<g style="mix-blend-mode:multiply" opacity="0.25">
<path d="M104.605 341.81L141.397 398L152.097 398.59L104.605 341.81Z" fill="#D30A55"/>
</g>
</g>
<g opacity="0.25">
<path style="mix-blend-mode:multiply" opacity="0.25" d="M117.56 8.52002L149.391 11.8L87.1572 36.19L88.6944 38.77L179.884 13.71L117.56 8.52002Z" fill="url(#paint6_radial)"/>
<path style="mix-blend-mode:multiply" opacity="0.25" d="M153.912 110.77L96.0304 51.09L88.6941 38.77L79.2418 41.37L74.291 53.84L102.987 119.86L91.1895 125.94L114.506 123.68L153.912 110.77Z" fill="url(#paint7_radial)"/>
<path style="mix-blend-mode:multiply" opacity="0.25" d="M34.6455 131.42L71.8261 135.91L91.19 125.94L34.6455 131.42Z" fill="url(#paint8_radial)"/>
<path style="mix-blend-mode:multiply" opacity="0.25" d="M71.8254 135.91L49.3174 147.51L110.004 142.77L111.022 140.65L71.8254 135.91Z" fill="url(#paint9_radial)"/>
<path style="mix-blend-mode:multiply" opacity="0.25" d="M158.863 292.94L131.455 235.22L127.013 234.34L65.5576 241.59L77.8347 278.07L92.9764 316.82L139.21 322.34L158.863 292.94Z" fill="url(#paint10_radial)"/>
<path style="mix-blend-mode:multiply" opacity="0.25" d="M92.9767 316.82L63.2422 313.27L72.7145 325.27L93.0965 317.11L92.9767 316.82Z" fill="url(#paint11_radial)"/>
<path style="mix-blend-mode:multiply" opacity="0.25" d="M149.281 416.19L140.567 387.69L129.169 387.38L104.974 366.09L72.7141 325.27L28.6064 342.93L35.3638 391.14L117.121 387.82L135.487 416.19H149.281Z" fill="url(#paint12_radial)"/>
<path style="mix-blend-mode:multiply" opacity="0.25" d="M151.577 173.16L129.099 141.29L110.005 142.77L71.7061 223.39L127.013 234.34L153.104 231.25L151.577 173.16Z" fill="url(#paint13_radial)"/>
</g>
<g opacity="0.25">
<path style="mix-blend-mode:multiply" opacity="0.25" d="M135.487 184.87L122.671 159.92L69.5105 160.33L37.4902 248.69L86.3989 262.03L125.286 247.55L170.183 167.02L135.487 184.87Z" fill="url(#paint14_radial)"/>
<path style="mix-blend-mode:multiply" opacity="0.25" d="M125.286 247.55L93.0762 305.34L186.262 319.92L202.133 218.93L125.286 247.55Z" fill="url(#paint15_radial)"/>
<path style="mix-blend-mode:multiply" opacity="0.25" d="M126.444 100.71L124.707 98.8199L96.6299 109.26L122.671 159.92L153.304 159.69L126.444 100.71Z" fill="url(#paint16_radial)"/>
<path style="mix-blend-mode:multiply" opacity="0.25" d="M89.5531 576L96.8095 542.35L58.3613 576H59.1598L88.2655 553.95L84.9317 576H89.5531Z" fill="url(#paint17_radial)"/>
<path style="mix-blend-mode:multiply" opacity="0.25" d="M178.926 475.89L94.3141 388.5L100.612 385.52L66.9951 374.33L104.315 456.2L100.213 526.58L96.8095 542.35L135.867 508.18L178.926 475.89Z" fill="url(#paint18_radial)"/>
<path style="mix-blend-mode:multiply" opacity="0.25" d="M186.262 319.92L184.565 330.75L186.961 336.35L207.033 323.18L186.262 319.92Z" fill="url(#paint19_radial)"/>
<path style="mix-blend-mode:multiply" opacity="0.25" d="M186.961 336.35L141.626 366.09L100.612 385.52L225.958 427.23L186.961 336.35Z" fill="url(#paint20_radial)"/>
</g>
<g style="mix-blend-mode:overlay" opacity="0.25">
<g style="mix-blend-mode:overlay" opacity="0.25">
<path d="M51.2139 516.66C53.8036 516.427 56.3704 515.985 58.8895 515.34L59.5982 518.25C56.92 518.944 54.1891 519.416 51.4335 519.66L51.2538 516.66H51.2139ZM66.3556 513.06C68.8143 512.185 71.2264 511.184 73.5821 510.06L74.8797 512.77C72.4341 513.95 69.9287 515.002 67.3737 515.92L66.3756 513.1L66.3556 513.06ZM76.1972 175.52C76.1972 173.167 76.2405 170.787 76.327 168.38L79.3214 168.49C79.2316 170.86 79.1916 173.21 79.1916 175.49V176.39H76.1972V175.47V175.52ZM76.4068 184.52L79.4013 184.38C79.531 187.05 79.7007 189.69 79.9402 192.3L76.9458 192.56C76.7063 189.893 76.5266 187.227 76.4068 184.56V184.52ZM76.7861 160.36C76.9957 157.73 77.2553 155.05 77.5846 152.36L80.5791 152.71C80.2596 155.39 80.0101 158.02 79.8005 160.61L76.8061 160.38L76.7861 160.36ZM77.7843 200.56L80.7787 200.18C81.118 202.82 81.5173 205.44 81.9365 208.03L78.9421 208.52C78.5029 205.89 78.1137 203.24 77.7543 200.52L77.7843 200.56ZM78.6526 144.36C79.0719 141.76 79.531 139.11 80.05 136.43L83.0444 137.01C82.5254 139.65 82.0463 142.26 81.667 144.83L78.6726 144.36H78.6526ZM80.4293 216.44L83.4237 215.83C83.9428 218.44 84.5117 221.01 85.1106 223.58L82.206 224.27C81.5872 221.68 81.0182 219.06 80.4792 216.44H80.4293ZM80.4293 506.3C82.6352 504.94 84.8111 503.45 86.8973 501.87L88.7039 504.26C86.5479 505.9 84.2921 507.44 81.9964 508.86L80.4293 506.3ZM81.7069 128.55C82.3058 125.99 82.9446 123.38 83.6334 120.74L86.5379 121.51C85.8725 124.123 85.237 126.697 84.6315 129.23L81.7069 128.55ZM84.1224 232L87.017 231.23C87.6958 233.79 88.3945 236.35 89.1431 238.91L86.2584 239.73C85.5198 237.16 84.8012 234.58 84.1224 232ZM85.8392 113C86.5878 110.48 87.3764 107.91 88.2248 105.32L91.0695 106.25C90.231 108.823 89.4425 111.357 88.7039 113.85L85.8392 113ZM88.5542 247.5L91.4188 246.62C92.204 249.147 93.0059 251.683 93.8243 254.23L90.9697 255.16C90.1512 252.6 89.346 250.047 88.5542 247.5ZM90.8299 97.66C91.7482 95.08 92.7164 92.57 93.7245 90.15L96.4893 91.3C95.5511 93.55 94.6528 95.87 93.6646 98.54L93.485 98.99L92.2373 98.19L90.8299 97.66ZM92.926 496.78C94.8225 495.01 96.649 493.11 98.3758 491.15L100.622 493.15C98.835 495.15 96.9285 497.15 94.9722 498.99L92.9759 496.8L92.926 496.78ZM93.485 262.78L96.3297 261.84L98.815 269.36L95.9803 270.36L93.4351 262.77L93.485 262.78ZM97.0483 82.78C98.2561 80.33 99.5337 77.92 100.851 75.63L103.446 77.13C102.159 79.36 100.931 81.68 99.7433 84.13L97.0483 82.81V82.78ZM98.5655 277.9L101.4 276.9L103.945 284.48L101.111 285.48L98.5655 277.91V277.9ZM103.247 485C104.754 482.9 106.241 480.7 107.559 478.45L110.134 479.99C108.736 482.32 107.239 484.6 105.672 486.76L103.247 485ZM103.616 293L106.461 292.08C107.279 294.59 108.088 297.14 108.886 299.71L106.042 300.61C105.233 298.04 104.425 295.51 103.616 293ZM105.103 68.76C106.63 66.49 108.237 64.29 109.894 62.21L112.23 64.08C110.633 66.08 109.066 68.23 107.589 70.43L105.103 68.76ZM108.377 308.28L111.242 307.42C112 309.96 112.739 312.52 113.478 315.13L110.603 315.94C109.864 313.353 109.122 310.8 108.377 308.28ZM111.302 471.55C112.43 469.25 113.508 466.83 114.496 464.37L117.271 465.48C116.272 468.02 115.155 470.48 113.987 472.88L111.302 471.55ZM112.689 323.63L115.584 322.86C116.252 325.42 116.911 328.02 117.58 330.64L114.665 331.35C114.037 328.74 113.388 326.16 112.729 323.63H112.689ZM115.194 56.07C117.061 54.07 119.027 52.17 121.014 50.41L123.01 52.66C121.083 54.36 119.197 56.2 117.38 58.13L115.204 56.07H115.194ZM116.412 339.07L119.337 338.42C119.906 341.01 120.445 343.63 120.974 346.29L117.979 346.87C117.467 344.203 116.928 341.603 116.362 339.07H116.412ZM117.161 457C117.953 454.567 118.681 452.04 119.347 449.42L122.251 450.16C121.563 452.85 120.814 455.43 120.015 457.93L117.161 457ZM119.476 354.78L122.471 354.28C122.917 356.88 123.339 359.52 123.738 362.2L120.744 362.64C120.358 359.973 119.942 357.353 119.496 354.78H119.476ZM121.073 441.71C121.566 439.19 122.005 436.587 122.391 433.9L125.385 434.33C124.986 437.07 124.537 439.71 124.038 442.33L121.103 441.76L121.073 441.71ZM121.802 370.53L124.797 370.16C125.116 372.78 125.412 375.447 125.685 378.16L122.69 378.46C122.421 375.78 122.122 373.15 121.802 370.55V370.53ZM123.319 426C123.569 423.44 123.758 420.81 123.908 418.1L126.903 418.26C126.763 421.01 126.553 423.68 126.304 426.26L123.309 425.98L123.319 426ZM123.389 386.33L126.384 386.1C126.483 387.42 126.583 388.74 126.663 390.1C126.743 391.46 126.833 392.81 126.903 394.15L123.908 394.3C123.838 392.98 123.768 391.65 123.679 390.3C123.589 388.95 123.499 387.67 123.399 386.36L123.389 386.33ZM124.168 402.21L127.162 402.16C127.162 404.91 127.162 407.59 127.162 410.21L124.168 410.16C124.168 407.58 124.168 404.92 124.168 402.21ZM127.342 45.31C129.534 43.7125 131.806 42.2273 134.149 40.86L135.656 43.45C133.43 44.75 131.225 46.2 129.108 47.74L127.342 45.31ZM141.376 37.12C143.844 35.9804 146.373 34.9789 148.951 34.12L149.89 36.96C147.417 37.784 144.988 38.7353 142.613 39.81L141.376 37.08V37.12ZM156.807 32C159.464 31.4284 162.149 30.9978 164.852 30.71L165.171 33.71C162.573 33.9917 159.991 34.4055 157.436 34.95L156.807 32ZM172.977 33.29V30.29C175.691 30.2926 178.403 30.4394 181.101 30.73L180.782 33.73C178.186 33.4478 175.577 33.3042 172.967 33.3L172.977 33.29ZM188.518 35L189.136 32.07C191.794 32.6343 194.42 33.342 197.002 34.19L196.073 37C193.598 36.2 191.083 35.51 188.518 35ZM203.39 39.84L204.618 37.06C207.097 38.1657 209.519 39.3973 211.874 40.75L210.387 43.35C208.121 42.05 205.775 40.86 203.4 39.8L203.39 39.84ZM216.935 47.64L218.691 45.21C220.891 46.8021 223.007 48.5077 225.029 50.32L223.033 52.56C221.086 50.816 219.051 49.1738 216.935 47.64ZM228.573 58.05L230.799 56.05C232.616 58.073 234.319 60.1963 235.899 62.41L233.464 64.16C231.951 62.0317 230.318 59.9917 228.573 58.05ZM234.641 152.48C235.68 150.48 236.648 148.48 237.546 146.48L240.281 147.71C239.363 149.71 238.374 151.82 237.287 153.9L234.621 152.53L234.641 152.48ZM237.636 70.77L240.241 69.3C241.569 71.6757 242.765 74.1227 243.824 76.63L241.059 77.79C240.049 75.3949 238.906 73.058 237.636 70.79V70.77ZM240.55 139.13C241.479 136.63 242.307 134.13 243.026 131.63L245.9 132.48C245.162 135.02 244.303 137.6 243.355 140.16L240.55 139.16V139.13ZM243.734 85.13L246.539 84.3C247.315 86.9062 247.944 89.5536 248.426 92.23L245.491 92.77C245.014 90.2043 244.408 87.6644 243.675 85.16L243.734 85.13ZM244.902 124C245.441 121.4 245.9 118.79 246.17 116.24L249.164 116.59C248.855 119.22 248.416 121.92 247.867 124.59L244.932 123.99L244.902 124ZM246.539 100.55L249.534 100.32C249.733 102.98 249.803 105.7 249.743 108.46L246.749 108.39C246.809 105.723 246.742 103.11 246.549 100.55H246.539Z" fill="white"/>
</g>
</g>
<g style="mix-blend-mode:overlay" opacity="0.25">
<g style="mix-blend-mode:overlay" opacity="0.25">
<path d="M119.617 515.2C119.617 517.059 120.167 518.876 121.198 520.422C122.229 521.968 123.695 523.173 125.409 523.884C127.124 524.596 129.01 524.782 130.83 524.419C132.65 524.057 134.322 523.161 135.634 521.847C136.946 520.532 137.84 518.857 138.202 517.034C138.564 515.21 138.378 513.32 137.668 511.603C136.958 509.885 135.755 508.417 134.212 507.384C132.669 506.351 130.855 505.8 129 505.8C126.512 505.803 124.127 506.794 122.368 508.556C120.609 510.318 119.62 512.708 119.617 515.2ZM137.374 515.2C137.374 516.859 136.883 518.481 135.963 519.861C135.043 521.241 133.735 522.316 132.204 522.951C130.674 523.586 128.99 523.752 127.366 523.429C125.741 523.105 124.249 522.306 123.078 521.133C121.907 519.959 121.109 518.464 120.786 516.837C120.463 515.209 120.629 513.522 121.263 511.989C121.897 510.456 122.97 509.146 124.347 508.224C125.724 507.302 127.343 506.81 129 506.81C131.22 506.813 133.348 507.697 134.918 509.27C136.488 510.843 137.371 512.976 137.374 515.2Z" fill="white"/>
</g>
<g style="mix-blend-mode:overlay" opacity="0.25">
<path d="M98.1465 442.94C98.1465 444.793 98.695 446.605 99.7227 448.146C100.75 449.686 102.211 450.887 103.92 451.597C105.629 452.306 107.509 452.491 109.324 452.13C111.138 451.768 112.804 450.876 114.112 449.566C115.42 448.255 116.311 446.586 116.672 444.768C117.033 442.95 116.848 441.066 116.14 439.354C115.432 437.642 114.233 436.179 112.695 435.149C111.157 434.119 109.349 433.57 107.499 433.57C105.019 433.573 102.642 434.561 100.889 436.317C99.1353 438.074 98.1491 440.456 98.1465 442.94ZM115.853 442.94C115.853 444.595 115.363 446.214 114.445 447.59C113.527 448.966 112.223 450.039 110.696 450.673C109.17 451.306 107.49 451.472 105.869 451.149C104.249 450.826 102.76 450.029 101.592 448.858C100.423 447.688 99.6275 446.196 99.3051 444.573C98.9828 442.949 99.1482 441.266 99.7806 439.737C100.413 438.207 101.484 436.9 102.858 435.981C104.231 435.061 105.847 434.57 107.499 434.57C109.714 434.573 111.837 435.455 113.404 437.024C114.97 438.593 115.851 440.721 115.853 442.94Z" fill="white"/>
</g>
<g style="mix-blend-mode:overlay" opacity="0.25">
<path d="M81.2383 368.57C81.2383 368.768 81.2968 368.961 81.4065 369.126C81.5162 369.29 81.6721 369.418 81.8544 369.494C82.0368 369.569 82.2375 369.589 82.4311 369.551C82.6248 369.512 82.8026 369.417 82.9422 369.277C83.0818 369.137 83.1769 368.959 83.2154 368.765C83.2539 368.571 83.2341 368.37 83.1586 368.187C83.083 368.005 82.9551 367.848 82.791 367.738C82.6268 367.629 82.4338 367.57 82.2364 367.57C81.9717 367.57 81.7178 367.675 81.5306 367.863C81.3434 368.05 81.2383 368.305 81.2383 368.57ZM83.0848 368.57C83.0848 368.742 83.0339 368.91 82.9385 369.053C82.8431 369.196 82.7074 369.308 82.5488 369.374C82.3901 369.44 82.2155 369.457 82.047 369.423C81.8786 369.39 81.7239 369.307 81.6024 369.185C81.481 369.063 81.3983 368.908 81.3648 368.74C81.3313 368.571 81.3485 368.396 81.4142 368.237C81.4799 368.078 81.5912 367.942 81.734 367.847C81.8768 367.751 82.0447 367.7 82.2165 367.7C82.446 367.703 82.6653 367.795 82.8276 367.958C82.9899 368.12 83.0822 368.34 83.0848 368.57Z" fill="white"/>
</g>
<g style="mix-blend-mode:overlay" opacity="0.25">
<path d="M85.0908 290.3C85.0908 292.017 85.5989 293.695 86.5509 295.122C87.5029 296.55 88.856 297.662 90.4391 298.319C92.0222 298.976 93.7643 299.148 95.4449 298.813C97.1255 298.478 98.6692 297.652 99.8809 296.438C101.093 295.224 101.918 293.677 102.252 291.993C102.586 290.31 102.415 288.564 101.759 286.978C101.103 285.392 99.9928 284.037 98.568 283.083C97.1432 282.129 95.4682 281.62 93.7546 281.62C91.4585 281.625 89.2579 282.541 87.6342 284.168C86.0106 285.795 85.0961 288 85.0908 290.3ZM101.49 290.3C101.49 291.833 101.037 293.331 100.187 294.606C99.3365 295.88 98.1284 296.873 96.7149 297.46C95.3014 298.047 93.7461 298.2 92.2455 297.901C90.745 297.602 89.3666 296.864 88.2848 295.78C87.2029 294.696 86.4662 293.315 86.1677 291.812C85.8692 290.309 86.0224 288.75 86.6079 287.334C87.1934 285.918 88.1849 284.708 89.457 283.856C90.7291 283.005 92.2247 282.55 93.7546 282.55C95.8054 282.553 97.7715 283.37 99.2216 284.823C100.672 286.276 101.488 288.245 101.49 290.3Z" fill="white"/>
</g>
<g style="mix-blend-mode:overlay" opacity="0.25">
<path d="M143.003 228.7C143.003 229.175 143.143 229.639 143.407 230.033C143.67 230.428 144.044 230.736 144.482 230.917C144.919 231.099 145.401 231.147 145.866 231.054C146.33 230.961 146.757 230.733 147.092 230.397C147.427 230.061 147.656 229.634 147.748 229.168C147.84 228.703 147.793 228.22 147.612 227.782C147.43 227.343 147.123 226.968 146.729 226.705C146.335 226.441 145.872 226.3 145.398 226.3C145.084 226.3 144.772 226.362 144.482 226.483C144.191 226.603 143.927 226.78 143.705 227.003C143.482 227.226 143.306 227.49 143.185 227.782C143.065 228.073 143.003 228.385 143.003 228.7ZM147.534 228.7C147.534 229.123 147.409 229.537 147.174 229.889C146.94 230.241 146.606 230.515 146.216 230.677C145.826 230.839 145.396 230.882 144.982 230.799C144.567 230.716 144.187 230.513 143.888 230.213C143.589 229.914 143.386 229.533 143.303 229.118C143.221 228.702 143.263 228.272 143.425 227.881C143.587 227.49 143.86 227.156 144.212 226.921C144.563 226.686 144.976 226.56 145.398 226.56C145.965 226.56 146.508 226.786 146.909 227.187C147.309 227.588 147.534 228.132 147.534 228.7Z" fill="white"/>
</g>
<g style="mix-blend-mode:overlay" opacity="0.25">
<path d="M77.1357 175.37C77.1357 177.546 77.7797 179.672 78.9861 181.481C80.1926 183.29 81.9073 184.7 83.9136 185.533C85.9198 186.365 88.1274 186.583 90.2572 186.159C92.3871 185.734 94.3434 184.687 95.8789 183.148C97.4144 181.61 98.4601 179.65 98.8838 177.516C99.3074 175.382 99.09 173.17 98.259 171.16C97.428 169.15 96.0207 167.433 94.2151 166.224C92.4096 165.015 90.2868 164.37 88.1152 164.37C85.2033 164.37 82.4106 165.529 80.3516 167.592C78.2925 169.655 77.1357 172.453 77.1357 175.37ZM97.8271 175.37C97.8271 177.304 97.2546 179.195 96.182 180.803C95.1093 182.412 93.5847 183.665 91.801 184.406C90.0173 185.146 88.0545 185.339 86.1609 184.962C84.2673 184.585 82.5279 183.653 81.1627 182.286C79.7975 180.918 78.8678 179.175 78.4911 177.278C78.1145 175.381 78.3078 173.414 79.0466 171.627C79.7855 169.84 81.0367 168.313 82.642 167.238C84.2473 166.164 86.1347 165.59 88.0653 165.59C90.6518 165.595 93.1306 166.628 94.9586 168.461C96.7866 170.294 97.8145 172.779 97.8171 175.37H97.8271Z" fill="white"/>
</g>
<g style="mix-blend-mode:overlay" opacity="0.25">
<path d="M94.9629 91.74C94.9629 93.0062 95.3378 94.244 96.0402 95.2967C96.7425 96.3494 97.7408 97.1696 98.9087 97.6538C100.077 98.1379 101.361 98.264 102.601 98.0163C103.84 97.7685 104.979 97.158 105.872 96.2619C106.765 95.3659 107.372 94.2246 107.618 92.9824C107.863 91.7403 107.735 90.4531 107.25 89.2839C106.765 88.1146 105.945 87.1157 104.893 86.4137C103.841 85.7117 102.605 85.338 101.341 85.34C99.6485 85.3426 98.0262 86.0181 96.8304 87.218C95.6345 88.418 94.9629 90.0443 94.9629 91.74ZM107.05 91.74C107.046 92.8704 106.708 93.9744 106.078 94.9124C105.449 95.8504 104.556 96.5804 103.512 97.0103C102.468 97.4402 101.321 97.5506 100.215 97.3276C99.1088 97.1047 98.0933 96.5583 97.2969 95.7576C96.5004 94.9568 95.9586 93.9376 95.7399 92.8286C95.5212 91.7195 95.6355 90.5705 96.0682 89.5264C96.5009 88.4824 97.2327 87.5902 98.1711 86.9626C99.1096 86.335 100.213 86 101.341 86C102.853 86 104.304 86.6012 105.375 87.6718C106.445 88.7423 107.048 90.1947 107.05 91.71V91.74Z" fill="white"/>
</g>
<g style="mix-blend-mode:overlay" opacity="0.25">
<path d="M85.1407 40.66C85.1387 40.8463 85.192 41.029 85.2939 41.1849C85.3958 41.3408 85.5416 41.4628 85.7129 41.5355C85.8842 41.6082 86.0731 41.6283 86.2558 41.5931C86.4384 41.558 86.6065 41.4693 86.7388 41.3382C86.871 41.2072 86.9613 41.0397 86.9983 40.8571C87.0354 40.6745 87.0174 40.485 86.9467 40.3126C86.876 40.1403 86.7557 39.9929 86.6012 39.8891C86.4467 39.7854 86.2649 39.73 86.0789 39.73C85.8318 39.73 85.5947 39.8276 85.419 40.0018C85.2433 40.1759 85.1433 40.4124 85.1407 40.66ZM86.9074 40.66C86.9094 40.827 86.8616 40.9907 86.7702 41.1304C86.6789 41.27 86.548 41.3793 86.3944 41.4441C86.2408 41.5089 86.0714 41.5264 85.9079 41.4943C85.7443 41.4622 85.594 41.382 85.4761 41.2639C85.3583 41.1458 85.2782 40.9952 85.2462 40.8314C85.2142 40.6675 85.2316 40.4978 85.2963 40.3439C85.361 40.19 85.47 40.0589 85.6094 39.9674C85.7488 39.8758 85.9123 39.828 86.0789 39.83C86.2978 39.8326 86.5071 39.9209 86.6619 40.076C86.8167 40.231 86.9048 40.4407 86.9074 40.66Z" fill="white"/>
</g>
<g style="mix-blend-mode:overlay" opacity="0.25">
<path d="M121.633 50.16C121.635 52.0203 122.187 53.8382 123.22 55.3841C124.253 56.9301 125.72 58.1346 127.436 58.8456C129.151 59.5566 131.039 59.7421 132.86 59.3787C134.681 59.0153 136.354 58.1193 137.667 56.8039C138.98 55.4884 139.874 53.8127 140.237 51.9882C140.6 50.1638 140.414 48.2726 139.705 46.5536C138.995 44.8345 137.793 43.3648 136.25 42.33C134.707 41.2953 132.892 40.742 131.035 40.74C128.542 40.7426 126.152 41.7359 124.39 43.502C122.627 45.268 121.635 47.6625 121.633 50.16ZM139.41 50.16C139.408 51.8213 138.914 53.4448 137.991 54.8251C137.068 56.2054 135.757 57.2804 134.225 57.9144C132.692 58.5483 131.006 58.7127 129.38 58.3866C127.754 58.0606 126.261 57.2588 125.09 56.0826C123.918 54.9064 123.122 53.4088 122.8 51.7789C122.479 50.1491 122.647 48.4603 123.283 46.9262C123.919 45.3921 124.996 44.0815 126.375 43.1601C127.755 42.2387 129.377 41.748 131.035 41.75C132.136 41.7513 133.226 41.9699 134.243 42.3932C135.26 42.8166 136.183 43.4364 136.961 44.2174C137.739 44.9983 138.355 45.925 138.775 46.9447C139.195 47.9643 139.411 49.0569 139.41 50.16Z" fill="white"/>
</g>
<g style="mix-blend-mode:overlay" opacity="0.25">
<path d="M69.4502 130.77C69.4522 132.107 69.8496 133.413 70.5922 134.523C71.3348 135.633 72.3893 136.498 73.6224 137.008C74.8555 137.518 76.2119 137.651 77.5201 137.389C78.8283 137.127 80.0296 136.482 80.9723 135.537C81.9149 134.591 82.5565 133.386 82.8161 132.075C83.0756 130.764 82.9414 129.405 82.4304 128.171C81.9194 126.936 81.0546 125.881 79.9452 125.139C78.8358 124.396 77.5317 124 76.1976 124C75.3107 124 74.4325 124.175 73.6132 124.516C72.7939 124.856 72.0496 125.355 71.4229 125.983C70.7963 126.612 70.2994 127.359 69.9609 128.18C69.6224 129.001 69.4489 129.881 69.4502 130.77ZM82.2263 130.77C82.2263 131.957 81.8751 133.117 81.2171 134.103C80.559 135.09 79.6237 135.859 78.5294 136.313C77.435 136.767 76.2309 136.886 75.0692 136.655C73.9075 136.423 72.8403 135.852 72.0028 135.013C71.1652 134.174 70.5949 133.104 70.3638 131.941C70.1327 130.777 70.2513 129.57 70.7046 128.474C71.1579 127.378 71.9255 126.44 72.9103 125.781C73.8952 125.122 75.0531 124.77 76.2375 124.77C77.8259 124.77 79.3491 125.402 80.4723 126.527C81.5954 127.653 82.2263 129.179 82.2263 130.77Z" fill="white"/>
</g>
<g style="mix-blend-mode:overlay" opacity="0.25">
<path d="M115.953 189.48C115.953 189.818 116.053 190.149 116.241 190.43C116.428 190.711 116.695 190.93 117.007 191.06C117.319 191.189 117.662 191.223 117.993 191.157C118.324 191.091 118.628 190.928 118.867 190.689C119.106 190.45 119.268 190.145 119.334 189.814C119.4 189.482 119.366 189.138 119.237 188.826C119.108 188.513 118.889 188.246 118.608 188.058C118.328 187.87 117.998 187.77 117.66 187.77C117.208 187.773 116.775 187.954 116.456 188.274C116.136 188.594 115.956 189.027 115.953 189.48ZM119.177 189.48C119.177 189.783 119.087 190.079 118.919 190.331C118.751 190.583 118.512 190.779 118.232 190.894C117.952 191.01 117.645 191.04 117.348 190.98C117.052 190.92 116.78 190.773 116.567 190.558C116.353 190.343 116.209 190.07 116.151 189.772C116.093 189.475 116.125 189.167 116.242 188.888C116.359 188.608 116.556 188.37 116.809 188.203C117.061 188.036 117.357 187.948 117.66 187.95C117.86 187.95 118.058 187.99 118.243 188.067C118.428 188.144 118.595 188.257 118.736 188.399C118.877 188.541 118.989 188.71 119.064 188.895C119.14 189.081 119.178 189.28 119.177 189.48Z" fill="white"/>
</g>
<g style="mix-blend-mode:overlay" opacity="0.25">
<path d="M96.4502 230.62C96.4502 231.896 96.8278 233.143 97.5352 234.203C98.2426 235.264 99.2481 236.091 100.424 236.579C101.601 237.067 102.895 237.195 104.144 236.946C105.393 236.697 106.54 236.083 107.441 235.181C108.341 234.279 108.954 233.129 109.202 231.878C109.451 230.627 109.323 229.33 108.836 228.152C108.349 226.973 107.524 225.966 106.465 225.257C105.406 224.548 104.161 224.17 102.888 224.17C101.181 224.17 99.5432 224.849 98.3358 226.059C97.1285 227.269 96.4502 228.909 96.4502 230.62ZM108.627 230.62C108.627 231.76 108.29 232.874 107.658 233.821C107.026 234.768 106.127 235.507 105.076 235.942C104.025 236.378 102.868 236.492 101.753 236.269C100.637 236.045 99.613 235.496 98.8093 234.689C98.0057 233.883 97.4589 232.855 97.2382 231.738C97.0175 230.62 97.1328 229.461 97.5694 228.409C98.0061 227.356 98.7446 226.458 99.6913 225.826C100.638 225.194 101.751 224.858 102.888 224.86C104.411 224.863 105.871 225.471 106.947 226.551C108.023 227.63 108.627 229.094 108.627 230.62Z" fill="white"/>
</g>
<g style="mix-blend-mode:overlay" opacity="0.25">
<path d="M79.6611 315.79C79.6611 316.878 79.9831 317.941 80.5863 318.846C81.1896 319.75 82.0469 320.455 83.0501 320.871C84.0532 321.288 85.157 321.397 86.2219 321.184C87.2868 320.972 88.265 320.448 89.0327 319.679C89.8005 318.91 90.3233 317.93 90.5352 316.863C90.747 315.796 90.6383 314.69 90.2228 313.685C89.8073 312.68 89.1036 311.821 88.2008 311.217C87.2981 310.613 86.2367 310.29 85.1509 310.29C84.4296 310.289 83.7151 310.43 83.0485 310.706C82.3819 310.982 81.7762 311.387 81.2661 311.898C80.7561 312.409 80.3518 313.016 80.0764 313.684C79.8009 314.352 79.6598 315.067 79.6611 315.79ZM90.0518 315.79C90.0518 316.761 89.7643 317.71 89.2258 318.518C88.6873 319.325 87.9219 319.955 87.0264 320.326C86.1309 320.698 85.1455 320.795 84.1948 320.606C83.2441 320.416 82.3709 319.949 81.6855 319.262C81.0001 318.575 80.5333 317.7 80.3442 316.748C80.1551 315.795 80.2522 314.808 80.6231 313.911C80.994 313.014 81.6222 312.247 82.4281 311.708C83.2341 311.168 84.1816 310.88 85.1509 310.88C86.4499 310.883 87.6949 311.401 88.6134 312.321C89.5319 313.241 90.0491 314.489 90.0518 315.79Z" fill="white"/>
</g>
<g style="mix-blend-mode:overlay" opacity="0.25">
<path d="M108.308 370.36C108.308 371.689 108.701 372.988 109.438 374.093C110.175 375.199 111.223 376.06 112.448 376.568C113.674 377.077 115.023 377.21 116.324 376.951C117.625 376.692 118.82 376.052 119.758 375.112C120.696 374.172 121.335 372.975 121.594 371.671C121.852 370.367 121.72 369.016 121.212 367.788C120.704 366.56 119.845 365.511 118.742 364.773C117.639 364.034 116.342 363.64 115.015 363.64C113.237 363.643 111.532 364.352 110.275 365.611C109.018 366.871 108.31 368.579 108.308 370.36ZM121.004 370.36C121.004 371.547 120.653 372.707 119.995 373.693C119.337 374.68 118.401 375.449 117.307 375.903C116.213 376.357 115.008 376.476 113.847 376.245C112.685 376.013 111.618 375.442 110.78 374.603C109.943 373.764 109.372 372.694 109.141 371.531C108.91 370.367 109.029 369.16 109.482 368.064C109.935 366.968 110.703 366.03 111.688 365.371C112.673 364.712 113.831 364.36 115.015 364.36C116.603 364.36 118.127 364.992 119.25 366.117C120.373 367.243 121.004 368.769 121.004 370.36Z" fill="white"/>
</g>
<g style="mix-blend-mode:overlay" opacity="0.25">
<path d="M155.709 424.87C155.709 426.452 156.177 427.999 157.055 429.315C157.932 430.63 159.179 431.656 160.638 432.261C162.097 432.867 163.703 433.025 165.252 432.716C166.801 432.408 168.224 431.646 169.34 430.527C170.457 429.408 171.218 427.983 171.526 426.431C171.834 424.879 171.676 423.27 171.071 421.809C170.467 420.347 169.443 419.097 168.13 418.218C166.817 417.339 165.273 416.87 163.694 416.87C161.576 416.87 159.545 417.713 158.048 419.213C156.55 420.713 155.709 422.748 155.709 424.87ZM170.751 424.87C170.751 426.276 170.335 427.651 169.555 428.82C168.775 429.989 167.667 430.901 166.37 431.439C165.073 431.977 163.646 432.118 162.27 431.843C160.893 431.569 159.628 430.892 158.636 429.898C157.643 428.903 156.968 427.636 156.694 426.257C156.42 424.878 156.56 423.448 157.098 422.149C157.635 420.85 158.544 419.74 159.711 418.958C160.878 418.177 162.251 417.76 163.654 417.76C165.536 417.763 167.339 418.513 168.669 419.845C170 421.178 170.748 422.985 170.751 424.87Z" fill="white"/>
</g>
<g style="mix-blend-mode:overlay" opacity="0.25">
<path d="M133.351 459.45C133.359 460.321 133.624 461.17 134.113 461.89C134.602 462.61 135.293 463.169 136.098 463.497C136.904 463.824 137.788 463.905 138.639 463.73C139.491 463.554 140.271 463.13 140.883 462.511C141.494 461.891 141.908 461.105 142.074 460.25C142.239 459.395 142.149 458.51 141.813 457.706C141.477 456.903 140.911 456.217 140.187 455.736C139.463 455.254 138.612 454.998 137.743 455C136.574 455 135.454 455.464 134.627 456.291C133.8 457.118 133.334 458.239 133.331 459.41L133.351 459.45ZM141.685 459.45C141.687 460.23 141.458 460.993 141.027 461.643C140.595 462.292 139.981 462.799 139.262 463.098C138.543 463.398 137.752 463.476 136.988 463.325C136.224 463.173 135.523 462.798 134.972 462.246C134.421 461.694 134.047 460.991 133.895 460.226C133.744 459.461 133.823 458.668 134.121 457.948C134.42 457.227 134.926 456.612 135.574 456.18C136.222 455.748 136.984 455.518 137.763 455.52C138.802 455.523 139.799 455.938 140.534 456.674C141.269 457.41 141.683 458.409 141.685 459.45Z" fill="white"/>
</g>
<g style="mix-blend-mode:overlay" opacity="0.25">
<path d="M119.887 408.63C119.887 409.501 120.145 410.352 120.628 411.076C121.111 411.799 121.797 412.363 122.6 412.696C123.403 413.029 124.287 413.115 125.139 412.945C125.991 412.774 126.774 412.354 127.388 411.738C128.001 411.121 128.419 410.336 128.587 409.482C128.755 408.628 128.667 407.743 128.333 406.939C127.999 406.135 127.435 405.449 126.711 404.967C125.988 404.484 125.138 404.228 124.269 404.23C123.105 404.233 121.991 404.697 121.17 405.522C120.348 406.347 119.887 407.465 119.887 408.63ZM128.191 408.63C128.191 409.407 127.961 410.167 127.53 410.813C127.099 411.46 126.486 411.963 125.77 412.261C125.053 412.558 124.264 412.636 123.503 412.484C122.742 412.333 122.043 411.959 121.495 411.409C120.946 410.859 120.573 410.159 120.421 409.397C120.27 408.634 120.348 407.844 120.644 407.126C120.941 406.408 121.444 405.794 122.089 405.362C122.734 404.93 123.493 404.7 124.269 404.7C124.784 404.699 125.295 404.799 125.771 404.996C126.248 405.193 126.681 405.483 127.045 405.848C127.41 406.213 127.699 406.647 127.895 407.124C128.092 407.602 128.193 408.114 128.191 408.63Z" fill="white"/>
</g>
<g style="mix-blend-mode:overlay" opacity="0.25">
<path d="M94.084 338.07C94.082 338.883 94.3209 339.679 94.7705 340.356C95.2201 341.033 95.8601 341.562 96.6095 341.874C97.3589 342.187 98.1841 342.27 98.9805 342.112C99.777 341.955 100.509 341.564 101.084 340.99C101.658 340.415 102.05 339.683 102.209 338.885C102.368 338.088 102.288 337.261 101.977 336.509C101.667 335.758 101.141 335.115 100.467 334.663C99.7917 334.211 98.9981 333.97 98.1863 333.97C97.1001 333.97 96.0581 334.402 95.2891 335.17C94.52 335.939 94.0866 336.982 94.084 338.07ZM101.84 338.07C101.841 338.797 101.628 339.508 101.226 340.113C100.825 340.718 100.253 341.19 99.5828 341.469C98.913 341.748 98.1757 341.821 97.4642 341.68C96.7527 341.539 96.099 341.189 95.5861 340.675C95.0732 340.161 94.7241 339.506 94.5831 338.793C94.4421 338.081 94.5155 337.342 94.794 336.671C95.0725 336 95.5435 335.427 96.1474 335.024C96.7514 334.622 97.461 334.408 98.1863 334.41C99.1536 334.415 100.08 334.803 100.764 335.488C101.448 336.173 101.834 337.101 101.84 338.07Z" fill="white"/>
</g>
<g style="mix-blend-mode:overlay" opacity="0.25">
<path d="M118.838 277.89C118.838 279.67 119.365 281.41 120.352 282.89C121.339 284.37 122.742 285.524 124.383 286.205C126.025 286.886 127.831 287.064 129.574 286.717C131.316 286.37 132.917 285.513 134.173 284.254C135.43 282.995 136.285 281.392 136.632 279.646C136.978 277.9 136.8 276.09 136.121 274.446C135.441 272.801 134.289 271.396 132.812 270.407C131.335 269.418 129.598 268.89 127.821 268.89C125.439 268.89 123.154 269.838 121.469 271.526C119.784 273.214 118.838 275.503 118.838 277.89ZM135.806 277.89C135.806 279.472 135.338 281.019 134.46 282.335C133.583 283.65 132.336 284.676 130.877 285.281C129.418 285.887 127.812 286.045 126.263 285.736C124.714 285.428 123.292 284.666 122.175 283.547C121.058 282.428 120.298 281.003 119.989 279.451C119.681 277.899 119.839 276.29 120.444 274.829C121.048 273.367 122.072 272.117 123.385 271.238C124.698 270.359 126.242 269.89 127.821 269.89C129.939 269.89 131.97 270.733 133.467 272.233C134.965 273.733 135.806 275.768 135.806 277.89Z" fill="white"/>
</g>
<g style="mix-blend-mode:overlay" opacity="0.25">
<path d="M94.9932 220.82C94.9932 221.356 95.1518 221.88 95.449 222.326C95.7463 222.771 96.1687 223.119 96.663 223.324C97.1572 223.529 97.7011 223.582 98.2258 223.478C98.7505 223.373 99.2325 223.115 99.6108 222.736C99.9891 222.357 100.247 221.874 100.351 221.349C100.455 220.823 100.402 220.278 100.197 219.783C99.9924 219.288 99.6457 218.864 99.2009 218.567C98.7561 218.269 98.2331 218.11 97.6981 218.11C96.9807 218.11 96.2927 218.396 95.7854 218.904C95.2781 219.412 94.9932 220.101 94.9932 220.82ZM100.114 220.82C100.116 221.301 99.9747 221.773 99.709 222.174C99.4432 222.575 99.0645 222.888 98.6209 223.073C98.1773 223.258 97.6888 223.307 97.2174 223.214C96.746 223.12 96.3129 222.889 95.9731 222.548C95.6333 222.208 95.4021 221.774 95.3088 221.302C95.2155 220.829 95.2644 220.34 95.4492 219.895C95.634 219.451 95.9465 219.072 96.3469 218.805C96.7472 218.539 97.2176 218.398 97.6981 218.4C98.3387 218.4 98.9531 218.655 99.4061 219.109C99.8591 219.563 100.114 220.178 100.114 220.82Z" fill="white"/>
</g>
<g style="mix-blend-mode:overlay" opacity="0.25">
<path d="M166.818 169.27C166.816 169.992 167.028 170.699 167.427 171.301C167.827 171.902 168.395 172.371 169.06 172.649C169.726 172.927 170.459 173.001 171.166 172.861C171.874 172.721 172.524 172.375 173.034 171.864C173.545 171.354 173.893 170.704 174.034 169.996C174.175 169.287 174.104 168.553 173.828 167.886C173.553 167.218 173.086 166.647 172.487 166.246C171.887 165.844 171.183 165.63 170.462 165.63C169.498 165.633 168.574 166.017 167.892 166.698C167.209 167.38 166.824 168.305 166.818 169.27ZM173.715 169.27C173.717 169.915 173.528 170.546 173.172 171.084C172.816 171.621 172.308 172.041 171.714 172.289C171.119 172.537 170.465 172.603 169.833 172.479C169.201 172.354 168.62 172.044 168.164 171.589C167.708 171.133 167.397 170.552 167.271 169.92C167.145 169.287 167.208 168.631 167.454 168.035C167.7 167.439 168.117 166.929 168.653 166.57C169.188 166.211 169.818 166.02 170.462 166.02C171.323 166.02 172.149 166.362 172.759 166.971C173.369 167.581 173.713 168.407 173.715 169.27Z" fill="white"/>
</g>
<g style="mix-blend-mode:overlay" opacity="0.25">
<path d="M109.057 77.26C109.057 77.4182 109.103 77.5729 109.191 77.7044C109.279 77.836 109.404 77.9385 109.55 77.9991C109.695 78.0596 109.856 78.0755 110.011 78.0446C110.166 78.0137 110.308 77.9375 110.42 77.8256C110.531 77.7138 110.607 77.5712 110.638 77.416C110.669 77.2608 110.653 77.1 110.593 76.9538C110.532 76.8076 110.43 76.6827 110.299 76.5948C110.167 76.5069 110.013 76.46 109.855 76.46C109.643 76.46 109.44 76.5442 109.291 76.6943C109.141 76.8443 109.057 77.0478 109.057 77.26ZM110.574 77.26C110.576 77.4028 110.535 77.5429 110.458 77.6627C110.38 77.7824 110.268 77.8762 110.137 77.9322C110.006 77.9883 109.861 78.004 109.721 77.9773C109.581 77.9507 109.452 77.8829 109.351 77.7826C109.249 77.6823 109.18 77.5541 109.151 77.4141C109.123 77.2742 109.136 77.1289 109.19 76.9968C109.244 76.8646 109.336 76.7516 109.455 76.672C109.573 76.5925 109.713 76.55 109.855 76.55C110.044 76.5499 110.225 76.6244 110.36 76.7573C110.494 76.8902 110.571 77.0707 110.574 77.26Z" fill="white"/>
</g>
<g style="mix-blend-mode:overlay" opacity="0.25">
<path d="M30.9922 146.29C30.9922 148.381 31.611 150.424 32.7702 152.162C33.9295 153.901 35.5773 155.255 37.5051 156.055C39.4329 156.855 41.5542 157.065 43.6008 156.657C45.6473 156.249 47.5272 155.242 49.0027 153.764C50.4782 152.286 51.483 150.402 51.8901 148.352C52.2972 146.302 52.0882 144.176 51.2897 142.245C50.4912 140.314 49.1389 138.663 47.4039 137.501C45.6689 136.34 43.6291 135.72 41.5425 135.72C38.7444 135.72 36.0609 136.834 34.0823 138.816C32.1037 140.798 30.9922 143.487 30.9922 146.29ZM50.9549 146.29C50.9549 148.157 50.4023 149.982 49.367 151.535C48.3316 153.087 46.86 154.297 45.1383 155.011C43.4166 155.726 41.5221 155.913 39.6943 155.549C37.8665 155.184 36.1876 154.285 34.8699 152.965C33.5521 151.645 32.6547 149.963 32.2912 148.132C31.9276 146.3 32.1142 144.402 32.8273 142.677C33.5405 140.953 34.7482 139.478 36.2977 138.441C37.8472 137.404 39.6689 136.85 41.5325 136.85C44.0299 136.855 46.4234 137.852 48.1893 139.621C49.9552 141.39 50.9497 143.788 50.9549 146.29Z" fill="white"/>
</g>
</g>
<path d="M97.4682 530C102.978 523.7 95.3322 519 96.0109 513.57C96.5299 509.49 101.271 507.93 103.197 507.45L126.474 513.21L132.283 489.61C134.339 485.94 141.845 483.66 145.419 490.1C148.992 496.54 153.354 495.88 156.248 494.64C161.578 492.35 165.341 481 159.852 476.19C153.563 470.67 148.872 478.33 143.462 477.64C138.631 477.03 137.314 470.45 137.194 469.71L142.714 447.31L76.667 430.93L70.9776 454C71.5266 456.07 73.1336 460.42 77.0263 460.92C82.4163 461.6 87.1275 453.92 93.4157 459.46C98.8955 464.3 95.1425 475.65 89.8324 478C86.9378 479.23 82.5859 479.89 79.0026 473.45C75.7687 467.63 69.3207 468.94 66.5858 471.96L60.4473 496.89L84.8617 502.89C88.0457 505.49 89.5529 512.2 83.604 515.51C77.1661 519.1 77.8348 523.51 79.0725 526.37C81.3383 531.68 92.6671 535.45 97.4682 530Z" fill="#CCCCCC"/>
<path d="M260.354 453.43C250.892 453.16 252.309 463.25 247.119 466.57C243.466 468.89 239.074 466.45 237.028 465.02L225.05 440.27L200.326 452.27C195.635 453.14 188.239 448.22 191.243 440.45C194.248 432.68 190.545 429.34 187.38 427.72C181.541 424.72 168.945 429.64 168.715 437.9C168.466 447.38 178.537 445.95 181.831 451.17C184.825 455.83 180.014 461.72 179.455 462.37L155.999 473.7L167.428 497.39C168.206 498.05 173.995 502.66 178.587 499.75C183.787 496.44 182.36 486.34 191.832 486.61C200.077 486.84 204.978 499.45 201.993 505.3C200.366 508.47 197.002 512.21 189.277 509.18C181.551 506.15 176.65 513.51 177.469 518.18L189.506 543.18L258.588 509.75L245.921 483.48C246.241 478.91 250.912 473.3 257.809 476C265.574 479 268.888 475.3 270.515 472.13C273.49 466.27 268.599 453.66 260.354 453.43Z" fill="#A3B1BB"/>
<path d="M221.107 217.41L248.236 195.86L187.919 119.65L160.79 141.21C155.27 143.56 144.819 139.56 146.386 129.21C147.954 118.86 142.454 115.74 138.122 114.62C130.137 112.54 115.973 122.06 117.97 132.29C120.255 144.03 132.243 139.49 137.753 144.99C142.663 149.9 138.411 158.47 137.912 159.42L112.15 179.89L133.481 206.89C136.225 208.07 142.653 210.18 146.666 206.15C152.166 200.64 147.664 188.63 159.352 186.33C169.553 184.33 179.056 198.5 176.989 206.52C175.861 210.88 172.807 216.38 162.417 214.8C152.974 213.37 148.812 221.95 149.93 227.67L172.468 256.14L201.234 233.3C206.913 232.58 214.819 236.78 213.441 245.91C211.864 256.31 217.354 259.38 221.696 260.5C229.681 262.58 243.855 253.05 241.848 242.83C239.553 231 227.575 235.54 222.075 230C218.312 226.29 219.909 220.41 221.107 217.41Z" fill="#1487C0"/>
<path d="M146.407 306.65C141.836 299.29 134.869 305.46 129.718 303.15C126.255 301.6 125.786 297.29 125.805 294.93L138.841 273L117.251 260.12C114.257 256.97 114.257 248.83 121.693 247.22C129.129 245.61 129.798 241.08 129.439 237.84C128.77 231.84 118.679 224.71 112.271 228.7C104.914 233.28 111.083 240.26 108.777 245.42C106.711 250.03 99.794 249.35 99.0354 249.26L78.5437 237L66.2067 257.77C66.1468 258.22 65.3084 265.43 70.0396 267.55C75.18 269.85 82.147 263.68 86.7184 271.05C90.711 277.47 83.5843 287.59 77.6054 288.25C74.3615 288.61 69.8499 287.95 68.2329 280.49C66.616 273.03 58.4312 273.02 55.327 276.08L42.501 297.67L65.3883 311.32C67.3346 315 66.5261 321.46 59.9883 322.88C52.5422 324.49 51.8835 329.02 52.2428 332.26C52.9016 338.26 62.9927 345.39 69.4107 341.4C76.757 336.82 70.5985 329.83 72.8942 324.68C74.4713 321.15 78.8831 320.73 81.2087 320.76L102.808 333.64L116.473 310.64C120.156 308.73 126.534 309.57 127.931 316.08C129.538 323.54 134.06 324.2 137.304 323.84C143.263 323.19 150.39 313.07 146.407 306.65Z" fill="#CCCCCC"/>
<path d="M192.021 352.3C187.849 361.56 198.379 364.3 199.497 370.82C200.276 375.38 196.054 378.72 193.808 380.16L164.503 381.75L166.09 411.14C165.012 416.14 157.107 421.43 150.708 415.25C144.31 409.07 139.469 411.36 136.555 413.82C131.185 418.36 130.846 432.82 138.9 436.48C148.133 440.64 150.878 430.09 157.376 428.98C163.185 427.98 167.018 435.13 167.427 435.98L168.944 463.89L251.211 459.42L246.769 377.32L215.667 379C211.295 376.8 207.682 369.9 213.192 364.17C219.38 357.73 217.075 352.91 214.619 350C210.078 344.59 195.635 344.25 192.021 352.3Z" fill="#063F6B"/>
<path d="M140.159 345.27C146.836 342.07 142.245 335.55 144.68 331.4C146.327 328.59 150.03 328.6 152.026 328.84L169.384 342L182.36 324.84C185.354 322.57 192.191 323.33 192.87 329.84C193.549 336.35 197.322 337.31 200.097 337.31C205.227 337.31 212.224 329.39 209.449 323.57C206.245 316.88 199.747 321.47 195.605 319.02C191.892 316.84 193.11 311.02 193.259 310.39L205.547 294.1L157.526 257.77L143.822 275.96C140.508 277.27 135.118 275.96 134.519 270.28C133.86 263.81 130.087 262.81 127.303 262.82C122.182 262.82 115.175 270.74 117.95 276.56C121.144 283.25 127.642 278.66 131.804 281.1C134.639 282.77 134.589 286.55 134.339 288.53L121.364 305.69L139.57 319.46C140.847 322.77 139.57 328.11 133.89 328.7C127.422 329.36 126.434 333.16 126.434 335.94C126.434 341.05 134.339 348.05 140.159 345.27Z" fill="#4F5F6B"/>
<path d="M276.833 333.15C278.51 327.15 271.842 326.48 270.625 322.64C269.766 320.02 271.872 317.64 273.12 316.55L290.717 312.91L287.044 295.15C285.916 293.89 283.61 291.88 281.055 292.73C277.222 294 276.514 300.63 270.555 298.95C265.364 297.49 264.256 288.71 267.091 285.47C268.618 283.72 271.323 281.88 275.765 285.04C276.47 285.571 277.29 285.928 278.158 286.082C279.026 286.236 279.919 286.183 280.763 285.927C281.607 285.67 282.378 285.218 283.015 284.607C283.652 283.996 284.137 283.244 284.429 282.41L280.476 263.49L262.889 267.13C259.775 266.94 255.902 262.64 259.016 258.19C262.13 253.74 260.334 251.02 258.577 249.49C255.343 246.65 246.599 247.77 245.122 252.97C243.445 258.97 250.063 259.65 251.331 263.48C252.468 266.91 248.496 269.89 248.037 270.21L231.338 273.67L234.941 291.15C235.939 292.34 238.435 294.82 241.229 293.89C245.062 292.63 245.761 285.99 251.72 287.67C256.92 289.13 258.028 297.91 255.193 301.15C253.656 302.91 250.951 304.74 246.51 301.59C245.779 301.038 244.924 300.674 244.02 300.53C243.116 300.385 242.191 300.464 241.325 300.76C240.459 301.056 239.678 301.559 239.051 302.227C238.423 302.895 237.968 303.706 237.726 304.59L241.549 323.09L260.204 319.23C261.048 319.51 261.814 319.987 262.437 320.622C263.061 321.257 263.524 322.032 263.79 322.882C264.055 323.732 264.114 324.634 263.963 325.511C263.812 326.389 263.454 327.218 262.919 327.93C259.765 332.39 261.601 335.09 263.348 336.63C266.612 339.47 275.376 338.36 276.833 333.15Z" fill="#81C5EC"/>
</g>
<defs>
<radialGradient id="paint0_radial" cx="0" cy="0" r="1" gradientUnits="userSpaceOnUse" gradientTransform="translate(213.242 348.96) rotate(90) scale(350.03 349.378)">
<stop stop-color="white"/>
<stop offset="0.38" stop-color="#EC148E"/>
<stop offset="1" stop-color="#9D248F"/>
</radialGradient>
<radialGradient id="paint1_radial" cx="0" cy="0" r="1" gradientUnits="userSpaceOnUse" gradientTransform="translate(93314.3 100699) scale(30910.3 26498)">
<stop stop-color="white"/>
<stop offset="0.38" stop-color="#EC148E"/>
<stop offset="1" stop-color="#9D248F"/>
</radialGradient>
<radialGradient id="paint2_radial" cx="0" cy="0" r="1" gradientUnits="userSpaceOnUse" gradientTransform="translate(15847.1 24875.4) scale(5230.63 6479.61)">
<stop stop-color="white"/>
<stop offset="0.38" stop-color="#EC148E"/>
<stop offset="1" stop-color="#9D248F"/>
</radialGradient>
<radialGradient id="paint3_radial" cx="0" cy="0" r="1" gradientUnits="userSpaceOnUse" gradientTransform="translate(18718.7 26454.3) scale(6162.32 6835.29)">
<stop stop-color="white"/>
<stop offset="0.38" stop-color="#EC148E"/>
<stop offset="1" stop-color="#9D248F"/>
</radialGradient>
<radialGradient id="paint4_radial" cx="0" cy="0" r="1" gradientUnits="userSpaceOnUse" gradientTransform="translate(83361.9 43437.2) scale(27579.4 11311.4)">
<stop stop-color="white"/>
<stop offset="0.38" stop-color="#EC148E"/>
<stop offset="1" stop-color="#9D248F"/>
</radialGradient>
<radialGradient id="paint5_radial" cx="0" cy="0" r="1" gradientUnits="userSpaceOnUse" gradientTransform="translate(149017 274810) scale(49379.7 72391.1)">
<stop stop-color="white"/>
<stop offset="0.38" stop-color="#EC148E"/>
<stop offset="1" stop-color="#9D248F"/>
</radialGradient>
<radialGradient id="paint6_radial" cx="0" cy="0" r="1" gradientUnits="userSpaceOnUse" gradientTransform="translate(243.226 253.28) rotate(90) scale(388.25 387.527)">
<stop stop-color="white"/>
<stop offset="0.38" stop-color="#52CAF5"/>
<stop offset="1" stop-color="#007DC5"/>
</radialGradient>
<radialGradient id="paint7_radial" cx="0" cy="0" r="1" gradientUnits="userSpaceOnUse" gradientTransform="translate(76557.8 113108) scale(30916.2 33847.2)">
<stop stop-color="white"/>
<stop offset="0.38" stop-color="#52CAF5"/>
<stop offset="1" stop-color="#007DC5"/>
</radialGradient>
<radialGradient id="paint8_radial" cx="0" cy="0" r="1" gradientUnits="userSpaceOnUse" gradientTransform="translate(54349 13058.2) scale(21954.5 3871.05)">
<stop stop-color="white"/>
<stop offset="0.38" stop-color="#52CAF5"/>
<stop offset="1" stop-color="#007DC5"/>
</radialGradient>
<radialGradient id="paint9_radial" cx="0" cy="0" r="1" gradientUnits="userSpaceOnUse" gradientTransform="translate(59320.5 15182.3) scale(23959.4 4504.16)">
<stop stop-color="white"/>
<stop offset="0.38" stop-color="#52CAF5"/>
<stop offset="1" stop-color="#007DC5"/>
</radialGradient>
<radialGradient id="paint10_radial" cx="0" cy="0" r="1" gradientUnits="userSpaceOnUse" gradientTransform="translate(89693.3 114380) scale(36230.7 34170.4)">
<stop stop-color="white"/>
<stop offset="0.38" stop-color="#52CAF5"/>
<stop offset="1" stop-color="#007DC5"/>
</radialGradient>
<radialGradient id="paint11_radial" cx="0" cy="0" r="1" gradientUnits="userSpaceOnUse" gradientTransform="translate(28740.4 15878.5) scale(11592.1 4659.48)">
<stop stop-color="white"/>
<stop offset="0.38" stop-color="#52CAF5"/>
<stop offset="1" stop-color="#007DC5"/>
</radialGradient>
<radialGradient id="paint12_radial" cx="0" cy="0" r="1" gradientUnits="userSpaceOnUse" gradientTransform="translate(115946 118259) scale(46855.6 35302.4)">
<stop stop-color="white"/>
<stop offset="0.38" stop-color="#52CAF5"/>
<stop offset="1" stop-color="#007DC5"/>
</radialGradient>
<radialGradient id="paint13_radial" cx="0" cy="0" r="1" gradientUnits="userSpaceOnUse" gradientTransform="translate(78260.2 120838) scale(31602.8 36126.7)">
<stop stop-color="white"/>
<stop offset="0.38" stop-color="#52CAF5"/>
<stop offset="1" stop-color="#007DC5"/>
</radialGradient>
<radialGradient id="paint14_radial" cx="0" cy="0" r="1" gradientUnits="userSpaceOnUse" gradientTransform="translate(302.076 289.97) rotate(90) scale(481.33 480.433)">
<stop stop-color="white"/>
<stop offset="0.38" stop-color="#FED300"/>
<stop offset="1" stop-color="#FF9618"/>
</radialGradient>
<radialGradient id="paint15_radial" cx="0" cy="0" r="1" gradientUnits="userSpaceOnUse" gradientTransform="translate(108846 125261) scale(52493.2 48610.5)">
<stop stop-color="white"/>
<stop offset="0.38" stop-color="#FED300"/>
<stop offset="1" stop-color="#FF9618"/>
</radialGradient>
<radialGradient id="paint16_radial" cx="0" cy="0" r="1" gradientUnits="userSpaceOnUse" gradientTransform="translate(56612.7 75749.8) scale(27280.1 29410.5)">
<stop stop-color="white"/>
<stop offset="0.38" stop-color="#FED300"/>
<stop offset="1" stop-color="#FF9618"/>
</radialGradient>
<radialGradient id="paint17_radial" cx="0" cy="0" r="1" gradientUnits="userSpaceOnUse" gradientTransform="translate(38400.5 42206.1) scale(18506.3 16196.8)">
<stop stop-color="white"/>
<stop offset="0.38" stop-color="#FED300"/>
<stop offset="1" stop-color="#FF9618"/>
</radialGradient>
<radialGradient id="paint18_radial" cx="0" cy="0" r="1" gradientUnits="userSpaceOnUse" gradientTransform="translate(111686 208410) scale(53875.8 80873.1)">
<stop stop-color="white"/>
<stop offset="0.38" stop-color="#FED300"/>
<stop offset="1" stop-color="#FF9618"/>
</radialGradient>
<radialGradient id="paint19_radial" cx="0" cy="0" r="1" gradientUnits="userSpaceOnUse" gradientTransform="translate(22589.7 20663) scale(10813.4 7907.43)">
<stop stop-color="white"/>
<stop offset="0.38" stop-color="#FED300"/>
<stop offset="1" stop-color="#FF9618"/>
</radialGradient>
<radialGradient id="paint20_radial" cx="0" cy="0" r="1" gradientUnits="userSpaceOnUse" gradientTransform="translate(125097 112859) scale(60335.3 43745.1)">
<stop stop-color="white"/>
<stop offset="0.38" stop-color="#FED300"/>
<stop offset="1" stop-color="#FF9618"/>
</radialGradient>
</defs>
</svg>
