<svg width="281" height="576" viewBox="0 0 281 576" fill="none" xmlns="http://www.w3.org/2000/svg">
<g opacity="0.25">
<path opacity="0.25" d="M85.9109 148.5L83.5153 148.57L44.6279 230.05L52.4633 234.3L91.5803 177.82L85.9109 148.5Z" fill="url(#paint0_radial)"/>
<path opacity="0.25" d="M52.4629 234.3L35.4746 258.82L79.5324 288.74L70.06 310L123.78 273L52.4629 234.3Z" fill="url(#paint1_radial)"/>
<path opacity="0.25" d="M70.0603 310L55.1182 320.29L62.694 328.51L66.2075 318.64L70.0603 310Z" fill="url(#paint2_radial)"/>
<path opacity="0.25" d="M117.552 535.33L111.174 554.86L124.03 553.16L128.781 537.59L117.552 535.33Z" fill="url(#paint3_radial)"/>
<path opacity="0.25" d="M123.67 576L130.577 562.78L195.875 543.68L124.029 553.16L117.072 576H123.67Z" fill="url(#paint4_radial)"/>
<path opacity="0.25" d="M55.3978 453.65L130.538 428.42L114.188 384.46L62.6942 328.51L54.4696 351.56L83.9146 405.33L0.350586 450.33L36.1837 518.87L117.552 535.33L141.427 462.19L55.3978 453.65Z" fill="url(#paint5_radial)"/>
</g>
<g opacity="0.25">
<g style="mix-blend-mode:multiply" opacity="0.25">
<path d="M172.07 23.73L163.486 30.77L168.836 65.13L242.748 6.34003L172.07 23.73Z" fill="#D30A55"/>
</g>
<g style="mix-blend-mode:multiply" opacity="0.25">
<path d="M105.574 200.91L126.026 168.48L210.718 168.46L170.184 73.72L168.836 65.13L166.111 67.31L126.026 99.3L66.627 124.61L78.9939 217.88L115.655 231.44L128.761 213.98L105.574 200.91Z" fill="#DF6800"/>
</g>
<g style="mix-blend-mode:multiply" opacity="0.25">
<path d="M199.769 0L153.605 28.27L172.071 23.73L201.017 0H199.769Z" fill="#D30A55"/>
</g>
<g style="mix-blend-mode:multiply" opacity="0.25">
<path d="M115.656 231.44L59.2812 306.59L109.837 311.83L170.713 251.81L115.656 231.44Z" fill="#D30A55"/>
</g>
<g style="mix-blend-mode:multiply" opacity="0.25">
<path d="M100.704 576H153.006L150.731 525.88L103.149 529.3L86.8398 573.01L100.704 576Z" fill="#D30A55"/>
</g>
<g style="mix-blend-mode:multiply" opacity="0.25">
<path d="M135.858 404.81L131.396 398L6.98866 391.16L3.17578 461.1L20.6132 463.38L64.8507 418.4L135.858 404.81Z" fill="#2500DF"/>
</g>
<g style="mix-blend-mode:multiply" opacity="0.25">
<path d="M20.6128 463.38L15.8916 468.19L32.0315 534.4L103.149 529.3L122.742 476.74L20.6128 463.38Z" fill="#82FF7F"/>
</g>
<g style="mix-blend-mode:multiply" opacity="0.25">
<path d="M126.616 313.57L109.837 311.83L87.7383 333.61L94.6055 341.81L93.6473 340.35L126.616 313.57Z" fill="#D30A55"/>
</g>
<g style="mix-blend-mode:multiply" opacity="0.25">
<path d="M94.6055 341.81L131.397 398L142.097 398.59L94.6055 341.81Z" fill="#D30A55"/>
</g>
</g>
<g opacity="0.25">
<path style="mix-blend-mode:multiply" opacity="0.25" d="M107.56 8.52002L139.391 11.8L77.1572 36.19L78.6944 38.77L169.884 13.71L107.56 8.52002Z" fill="url(#paint6_radial)"/>
<path style="mix-blend-mode:multiply" opacity="0.25" d="M143.912 110.77L86.0304 51.09L78.6941 38.77L69.2418 41.37L64.291 53.84L92.9874 119.86L81.1895 125.94L104.506 123.68L143.912 110.77Z" fill="url(#paint7_radial)"/>
<path style="mix-blend-mode:multiply" opacity="0.25" d="M24.6455 131.42L61.8261 135.91L81.19 125.94L24.6455 131.42Z" fill="url(#paint8_radial)"/>
<path style="mix-blend-mode:multiply" opacity="0.25" d="M61.8254 135.91L39.3174 147.51L100.004 142.77L101.022 140.65L61.8254 135.91Z" fill="url(#paint9_radial)"/>
<path style="mix-blend-mode:multiply" opacity="0.25" d="M148.863 292.94L121.455 235.22L117.013 234.34L55.5576 241.59L67.8347 278.07L82.9764 316.82L129.21 322.34L148.863 292.94Z" fill="url(#paint10_radial)"/>
<path style="mix-blend-mode:multiply" opacity="0.25" d="M82.9767 316.82L53.2422 313.27L62.7145 325.27L83.0965 317.11L82.9767 316.82Z" fill="url(#paint11_radial)"/>
<path style="mix-blend-mode:multiply" opacity="0.25" d="M139.281 416.19L130.567 387.69L119.169 387.38L94.9739 366.09L62.7141 325.27L18.6064 342.93L25.3638 391.14L107.121 387.82L125.487 416.19H139.281Z" fill="url(#paint12_radial)"/>
<path style="mix-blend-mode:multiply" opacity="0.25" d="M141.577 173.16L119.099 141.29L100.005 142.77L61.7061 223.39L117.013 234.34L143.104 231.25L141.577 173.16Z" fill="url(#paint13_radial)"/>
</g>
<g opacity="0.25">
<path style="mix-blend-mode:multiply" opacity="0.25" d="M125.487 184.87L112.671 159.92L59.5105 160.33L27.4902 248.69L76.3989 262.03L115.286 247.55L160.183 167.02L125.487 184.87Z" fill="url(#paint14_radial)"/>
<path style="mix-blend-mode:multiply" opacity="0.25" d="M115.286 247.55L83.0762 305.34L176.262 319.92L192.133 218.93L115.286 247.55Z" fill="url(#paint15_radial)"/>
<path style="mix-blend-mode:multiply" opacity="0.25" d="M116.444 100.71L114.707 98.8199L86.6299 109.26L112.671 159.92L143.304 159.69L116.444 100.71Z" fill="url(#paint16_radial)"/>
<path style="mix-blend-mode:multiply" opacity="0.25" d="M79.5531 576L86.8095 542.35L48.3613 576H49.1598L78.2655 553.95L74.9317 576H79.5531Z" fill="url(#paint17_radial)"/>
<path style="mix-blend-mode:multiply" opacity="0.25" d="M168.926 475.89L84.3141 388.5L90.6124 385.52L56.9951 374.33L94.3155 456.2L90.2131 526.58L86.8095 542.35L125.867 508.18L168.926 475.89Z" fill="url(#paint18_radial)"/>
<path style="mix-blend-mode:multiply" opacity="0.25" d="M176.262 319.92L174.565 330.75L176.961 336.35L197.033 323.18L176.262 319.92Z" fill="url(#paint19_radial)"/>
<path style="mix-blend-mode:multiply" opacity="0.25" d="M176.961 336.35L131.626 366.09L90.6123 385.52L215.958 427.23L176.961 336.35Z" fill="url(#paint20_radial)"/>
</g>
<g style="mix-blend-mode:overlay" opacity="0.25">
<g style="mix-blend-mode:overlay" opacity="0.25">
<path d="M41.2139 516.66C43.8036 516.427 46.3704 515.985 48.8895 515.34L49.5982 518.25C46.92 518.944 44.1891 519.416 41.4335 519.66L41.2538 516.66H41.2139ZM56.3556 513.06C58.8143 512.185 61.2264 511.184 63.5821 510.06L64.8797 512.77C62.4341 513.95 59.9287 515.002 57.3737 515.92L56.3756 513.1L56.3556 513.06ZM66.1972 175.52C66.1972 173.167 66.2405 170.787 66.327 168.38L69.3214 168.49C69.2316 170.86 69.1916 173.21 69.1916 175.49V176.39H66.1972V175.47V175.52ZM66.4068 184.52L69.4013 184.38C69.531 187.05 69.7007 189.69 69.9402 192.3L66.9458 192.56C66.7063 189.893 66.5266 187.227 66.4068 184.56V184.52ZM66.7861 160.36C66.9957 157.73 67.2553 155.05 67.5846 152.36L70.5791 152.71C70.2596 155.39 70.0101 158.02 69.8005 160.61L66.8061 160.38L66.7861 160.36ZM67.7843 200.56L70.7787 200.18C71.118 202.82 71.5173 205.44 71.9365 208.03L68.9421 208.52C68.5029 205.89 68.1137 203.24 67.7543 200.52L67.7843 200.56ZM68.6526 144.36C69.0719 141.76 69.531 139.11 70.05 136.43L73.0444 137.01C72.5254 139.65 72.0463 142.26 71.667 144.83L68.6726 144.36H68.6526ZM70.4293 216.44L73.4237 215.83C73.9428 218.44 74.5117 221.01 75.1106 223.58L72.206 224.27C71.5872 221.68 71.0182 219.06 70.4792 216.44H70.4293ZM70.4293 506.3C72.6352 504.94 74.8111 503.45 76.8973 501.87L78.7039 504.26C76.5479 505.9 74.2921 507.44 71.9964 508.86L70.4293 506.3ZM71.7069 128.55C72.3058 125.99 72.9446 123.38 73.6334 120.74L76.5379 121.51C75.8725 124.123 75.237 126.697 74.6315 129.23L71.7069 128.55ZM74.1224 232L77.017 231.23C77.6958 233.79 78.3945 236.35 79.1431 238.91L76.2584 239.73C75.5198 237.16 74.8012 234.58 74.1224 232ZM75.8392 113C76.5878 110.48 77.3764 107.91 78.2248 105.32L81.0695 106.25C80.231 108.823 79.4425 111.357 78.7039 113.85L75.8392 113ZM78.5542 247.5L81.4188 246.62C82.204 249.147 83.0059 251.683 83.8243 254.23L80.9697 255.16C80.1512 252.6 79.346 250.047 78.5542 247.5ZM80.8299 97.66C81.7482 95.08 82.7164 92.57 83.7245 90.15L86.4893 91.3C85.5511 93.55 84.6528 95.87 83.6646 98.54L83.485 98.99L82.2373 98.19L80.8299 97.66ZM82.926 496.78C84.8225 495.01 86.649 493.11 88.3758 491.15L90.6216 493.15C88.835 495.15 86.9285 497.15 84.9722 498.99L82.9759 496.8L82.926 496.78ZM83.485 262.78L86.3297 261.84L88.815 269.36L85.9803 270.36L83.4351 262.77L83.485 262.78ZM87.0483 82.78C88.2561 80.33 89.5337 77.92 90.8512 75.63L93.4464 77.13C92.1588 79.36 90.9311 81.68 89.7433 84.13L87.0483 82.81V82.78ZM88.5655 277.9L91.4002 276.9L93.9454 284.48L91.1107 285.48L88.5655 277.91V277.9ZM93.2467 485C94.7539 482.9 96.2411 480.7 97.5587 478.45L100.134 479.99C98.7365 482.32 97.2393 484.6 95.6722 486.76L93.2467 485ZM93.616 293L96.4607 292.08C97.2792 294.59 98.0877 297.14 98.8862 299.71L96.0415 300.61C95.233 298.04 94.4245 295.51 93.616 293ZM95.1033 68.76C96.6304 66.49 98.2374 64.29 99.8943 62.21L102.23 64.08C100.633 66.08 99.0659 68.23 97.5886 70.43L95.1033 68.76ZM98.3772 308.28L101.242 307.42C102 309.96 102.739 312.52 103.478 315.13L100.603 315.94C99.8644 313.353 99.1224 310.8 98.3772 308.28ZM101.302 471.55C102.43 469.25 103.508 466.83 104.496 464.37L107.271 465.48C106.272 468.02 105.155 470.48 103.987 472.88L101.302 471.55ZM102.689 323.63L105.584 322.86C106.252 325.42 106.911 328.02 107.58 330.64L104.665 331.35C104.037 328.74 103.388 326.16 102.729 323.63H102.689ZM105.194 56.07C107.061 54.07 109.027 52.17 111.014 50.41L113.01 52.66C111.083 54.36 109.197 56.2 107.38 58.13L105.204 56.07H105.194ZM106.412 339.07L109.337 338.42C109.906 341.01 110.445 343.63 110.974 346.29L107.979 346.87C107.467 344.203 106.928 341.603 106.362 339.07H106.412ZM107.161 457C107.953 454.567 108.681 452.04 109.347 449.42L112.251 450.16C111.563 452.85 110.814 455.43 110.015 457.93L107.161 457ZM109.476 354.78L112.471 354.28C112.917 356.88 113.339 359.52 113.738 362.2L110.744 362.64C110.358 359.973 109.942 357.353 109.496 354.78H109.476ZM111.073 441.71C111.566 439.19 112.005 436.587 112.391 433.9L115.385 434.33C114.986 437.07 114.537 439.71 114.038 442.33L111.103 441.76L111.073 441.71ZM111.802 370.53L114.797 370.16C115.116 372.78 115.412 375.447 115.685 378.16L112.69 378.46C112.421 375.78 112.122 373.15 111.802 370.55V370.53ZM113.319 426C113.569 423.44 113.758 420.81 113.908 418.1L116.903 418.26C116.763 421.01 116.553 423.68 116.304 426.26L113.309 425.98L113.319 426ZM113.389 386.33L116.384 386.1C116.483 387.42 116.583 388.74 116.663 390.1C116.743 391.46 116.833 392.81 116.903 394.15L113.908 394.3C113.838 392.98 113.768 391.65 113.679 390.3C113.589 388.95 113.499 387.67 113.399 386.36L113.389 386.33ZM114.168 402.21L117.162 402.16C117.162 404.91 117.162 407.59 117.162 410.21L114.168 410.16C114.168 407.58 114.168 404.92 114.168 402.21ZM117.342 45.31C119.534 43.7125 121.806 42.2273 124.149 40.86L125.656 43.45C123.43 44.75 121.225 46.2 119.108 47.74L117.342 45.31ZM131.376 37.12C133.844 35.9804 136.373 34.9789 138.951 34.12L139.89 36.96C137.417 37.784 134.988 38.7353 132.613 39.81L131.376 37.08V37.12ZM146.807 32C149.464 31.4284 152.149 30.9978 154.852 30.71L155.171 33.71C152.573 33.9917 149.991 34.4055 147.436 34.95L146.807 32ZM162.977 33.29V30.29C165.691 30.2926 168.403 30.4394 171.101 30.73L170.782 33.73C168.186 33.4478 165.577 33.3042 162.967 33.3L162.977 33.29ZM178.518 35L179.136 32.07C181.794 32.6343 184.42 33.342 187.002 34.19L186.073 37C183.598 36.2 181.083 35.51 178.518 35ZM193.39 39.84L194.618 37.06C197.097 38.1657 199.519 39.3973 201.874 40.75L200.387 43.35C198.121 42.05 195.775 40.86 193.4 39.8L193.39 39.84ZM206.935 47.64L208.691 45.21C210.891 46.8021 213.007 48.5077 215.029 50.32L213.033 52.56C211.086 50.816 209.051 49.1738 206.935 47.64ZM218.573 58.05L220.799 56.05C222.616 58.073 224.319 60.1963 225.899 62.41L223.464 64.16C221.951 62.0317 220.318 59.9917 218.573 58.05ZM224.641 152.48C225.68 150.48 226.648 148.48 227.546 146.48L230.281 147.71C229.363 149.71 228.374 151.82 227.287 153.9L224.621 152.53L224.641 152.48ZM227.636 70.77L230.241 69.3C231.569 71.6757 232.765 74.1227 233.824 76.63L231.059 77.79C230.049 75.3949 228.906 73.058 227.636 70.79V70.77ZM230.55 139.13C231.479 136.63 232.307 134.13 233.026 131.63L235.9 132.48C235.162 135.02 234.303 137.6 233.355 140.16L230.55 139.16V139.13ZM233.734 85.13L236.539 84.3C237.315 86.9062 237.944 89.5536 238.426 92.23L235.491 92.77C235.014 90.2043 234.408 87.6644 233.675 85.16L233.734 85.13ZM234.902 124C235.441 121.4 235.9 118.79 236.17 116.24L239.164 116.59C238.855 119.22 238.416 121.92 237.867 124.59L234.932 123.99L234.902 124ZM236.539 100.55L239.534 100.32C239.733 102.98 239.803 105.7 239.743 108.46L236.749 108.39C236.809 105.723 236.742 103.11 236.549 100.55H236.539Z" fill="white"/>
</g>
</g>
<g style="mix-blend-mode:overlay" opacity="0.25">
<g style="mix-blend-mode:overlay" opacity="0.25">
<path d="M109.617 515.2C109.617 517.059 110.167 518.876 111.198 520.422C112.229 521.968 113.695 523.173 115.409 523.884C117.124 524.596 119.01 524.782 120.83 524.419C122.65 524.057 124.322 523.161 125.634 521.847C126.946 520.532 127.84 518.857 128.202 517.034C128.564 515.21 128.378 513.32 127.668 511.603C126.958 509.885 125.755 508.417 124.212 507.384C122.669 506.351 120.855 505.8 119 505.8C116.512 505.803 114.127 506.794 112.368 508.556C110.609 510.318 109.62 512.708 109.617 515.2ZM127.374 515.2C127.374 516.859 126.883 518.481 125.963 519.861C125.043 521.241 123.735 522.316 122.204 522.951C120.674 523.586 118.99 523.752 117.366 523.429C115.741 523.105 114.249 522.306 113.078 521.133C111.907 519.959 111.109 518.464 110.786 516.837C110.463 515.209 110.629 513.522 111.263 511.989C111.897 510.456 112.97 509.146 114.347 508.224C115.724 507.302 117.343 506.81 119 506.81C121.22 506.813 123.348 507.697 124.918 509.27C126.488 510.843 127.371 512.976 127.374 515.2Z" fill="white"/>
</g>
<g style="mix-blend-mode:overlay" opacity="0.25">
<path d="M88.1465 442.94C88.1465 444.793 88.695 446.605 89.7227 448.146C90.7503 449.686 92.211 450.887 93.92 451.597C95.6289 452.306 97.5094 452.491 99.3236 452.13C101.138 451.768 102.804 450.876 104.112 449.566C105.42 448.255 106.311 446.586 106.672 444.768C107.033 442.95 106.848 441.066 106.14 439.354C105.432 437.642 104.233 436.179 102.695 435.149C101.157 434.119 99.3488 433.57 97.499 433.57C95.0194 433.573 92.6421 434.561 90.8887 436.317C89.1353 438.074 88.1491 440.456 88.1465 442.94ZM105.853 442.94C105.853 444.595 105.363 446.214 104.445 447.59C103.527 448.966 102.223 450.039 100.696 450.673C99.1695 451.306 97.4898 451.472 95.8692 451.149C94.2486 450.826 92.76 450.029 91.5916 448.858C90.4232 447.688 89.6275 446.196 89.3051 444.573C88.9828 442.949 89.1482 441.266 89.7806 439.737C90.4129 438.207 91.4837 436.9 92.8576 435.981C94.2314 435.061 95.8467 434.57 97.499 434.57C99.7139 434.573 101.837 435.455 103.404 437.024C104.97 438.593 105.851 440.721 105.853 442.94Z" fill="white"/>
</g>
<g style="mix-blend-mode:overlay" opacity="0.25">
<path d="M71.2383 368.57C71.2383 368.768 71.2968 368.961 71.4065 369.126C71.5162 369.29 71.6721 369.418 71.8544 369.494C72.0368 369.569 72.2375 369.589 72.4311 369.551C72.6248 369.512 72.8026 369.417 72.9422 369.277C73.0818 369.137 73.1769 368.959 73.2154 368.765C73.2539 368.571 73.2341 368.37 73.1586 368.187C73.083 368.005 72.9551 367.848 72.791 367.738C72.6268 367.629 72.4338 367.57 72.2364 367.57C71.9717 367.57 71.7178 367.675 71.5306 367.863C71.3434 368.05 71.2383 368.305 71.2383 368.57ZM73.0848 368.57C73.0848 368.742 73.0339 368.91 72.9385 369.053C72.8431 369.196 72.7074 369.308 72.5488 369.374C72.3901 369.44 72.2155 369.457 72.047 369.423C71.8786 369.39 71.7239 369.307 71.6024 369.185C71.481 369.063 71.3983 368.908 71.3648 368.74C71.3313 368.571 71.3485 368.396 71.4142 368.237C71.4799 368.078 71.5912 367.942 71.734 367.847C71.8768 367.751 72.0447 367.7 72.2165 367.7C72.446 367.703 72.6653 367.795 72.8276 367.958C72.9899 368.12 73.0822 368.34 73.0848 368.57Z" fill="white"/>
</g>
<g style="mix-blend-mode:overlay" opacity="0.25">
<path d="M75.0908 290.3C75.0908 292.017 75.5989 293.695 76.5509 295.122C77.5029 296.55 78.856 297.662 80.4391 298.319C82.0222 298.976 83.7643 299.148 85.4449 298.813C87.1255 298.478 88.6692 297.652 89.8809 296.438C91.0926 295.224 91.9177 293.677 92.252 291.993C92.5863 290.31 92.4147 288.564 91.759 286.978C91.1032 285.392 89.9928 284.037 88.568 283.083C87.1432 282.129 85.4682 281.62 83.7546 281.62C81.4585 281.625 79.2579 282.541 77.6342 284.168C76.0106 285.795 75.0961 288 75.0908 290.3ZM91.4902 290.3C91.4902 291.833 91.0365 293.331 90.1865 294.606C89.3365 295.88 88.1284 296.873 86.7149 297.46C85.3014 298.047 83.7461 298.2 82.2455 297.901C80.745 297.602 79.3666 296.864 78.2848 295.78C77.2029 294.696 76.4662 293.315 76.1677 291.812C75.8692 290.309 76.0224 288.75 76.6079 287.334C77.1934 285.918 78.1849 284.708 79.457 283.856C80.7291 283.005 82.2247 282.55 83.7546 282.55C85.8054 282.553 87.7715 283.37 89.2216 284.823C90.6717 286.276 91.4876 288.245 91.4902 290.3Z" fill="white"/>
</g>
<g style="mix-blend-mode:overlay" opacity="0.25">
<path d="M133.003 228.7C133.003 229.175 133.143 229.639 133.407 230.033C133.67 230.428 134.044 230.736 134.482 230.917C134.919 231.099 135.401 231.147 135.866 231.054C136.33 230.961 136.757 230.733 137.092 230.397C137.427 230.061 137.656 229.634 137.748 229.168C137.84 228.703 137.793 228.22 137.612 227.782C137.43 227.343 137.123 226.968 136.729 226.705C136.335 226.441 135.872 226.3 135.398 226.3C135.084 226.3 134.772 226.362 134.482 226.483C134.191 226.603 133.927 226.78 133.705 227.003C133.482 227.226 133.306 227.49 133.185 227.782C133.065 228.073 133.003 228.385 133.003 228.7ZM137.534 228.7C137.534 229.123 137.409 229.537 137.174 229.889C136.94 230.241 136.606 230.515 136.216 230.677C135.826 230.839 135.396 230.882 134.982 230.799C134.567 230.716 134.187 230.513 133.888 230.213C133.589 229.914 133.386 229.533 133.303 229.118C133.221 228.702 133.263 228.272 133.425 227.881C133.587 227.49 133.86 227.156 134.212 226.921C134.563 226.686 134.976 226.56 135.398 226.56C135.965 226.56 136.508 226.786 136.909 227.187C137.309 227.588 137.534 228.132 137.534 228.7Z" fill="white"/>
</g>
<g style="mix-blend-mode:overlay" opacity="0.25">
<path d="M67.1357 175.37C67.1357 177.546 67.7797 179.672 68.9861 181.481C70.1926 183.29 71.9073 184.7 73.9136 185.533C75.9198 186.365 78.1274 186.583 80.2572 186.159C82.3871 185.734 84.3434 184.687 85.8789 183.148C87.4144 181.61 88.4601 179.65 88.8838 177.516C89.3074 175.382 89.09 173.17 88.259 171.16C87.428 169.15 86.0207 167.433 84.2151 166.224C82.4096 165.015 80.2868 164.37 78.1152 164.37C75.2033 164.37 72.4106 165.529 70.3516 167.592C68.2925 169.655 67.1357 172.453 67.1357 175.37ZM87.8271 175.37C87.8271 177.304 87.2546 179.195 86.182 180.803C85.1093 182.412 83.5847 183.665 81.801 184.406C80.0173 185.146 78.0545 185.339 76.1609 184.962C74.2673 184.585 72.5279 183.653 71.1627 182.286C69.7975 180.918 68.8678 179.175 68.4911 177.278C68.1145 175.381 68.3078 173.414 69.0466 171.627C69.7855 169.84 71.0367 168.313 72.642 167.238C74.2473 166.164 76.1347 165.59 78.0653 165.59C80.6518 165.595 83.1306 166.628 84.9586 168.461C86.7866 170.294 87.8145 172.779 87.8171 175.37H87.8271Z" fill="white"/>
</g>
<g style="mix-blend-mode:overlay" opacity="0.25">
<path d="M84.9629 91.74C84.9629 93.0062 85.3378 94.244 86.0402 95.2967C86.7425 96.3494 87.7408 97.1696 88.9087 97.6538C90.0765 98.1379 91.3615 98.264 92.6009 98.0163C93.8403 97.7685 94.9786 97.158 95.8716 96.2619C96.7645 95.3659 97.3722 94.2246 97.6175 92.9824C97.8629 91.7403 97.7349 90.4531 97.2499 89.2839C96.7649 88.1146 95.9446 87.1157 94.8927 86.4137C93.8409 85.7117 92.6048 85.338 91.341 85.34C89.6485 85.3426 88.0262 86.0181 86.8304 87.218C85.6345 88.418 84.9629 90.0443 84.9629 91.74ZM97.0503 91.74C97.0464 92.8704 96.7082 93.9744 96.0784 94.9124C95.4487 95.8504 94.5556 96.5804 93.5121 97.0103C92.4685 97.4402 91.3211 97.5506 90.215 97.3276C89.1088 97.1047 88.0933 96.5583 87.2969 95.7576C86.5004 94.9568 85.9586 93.9376 85.7399 92.8286C85.5212 91.7195 85.6355 90.5705 86.0682 89.5264C86.5009 88.4824 87.2327 87.5902 88.1711 86.9626C89.1096 86.335 90.2126 86 91.341 86C92.8535 86 94.3042 86.6012 95.3746 87.6718C96.445 88.7423 97.0477 90.1947 97.0503 91.71V91.74Z" fill="white"/>
</g>
<g style="mix-blend-mode:overlay" opacity="0.25">
<path d="M75.1407 40.66C75.1387 40.8463 75.192 41.029 75.2939 41.1849C75.3958 41.3408 75.5416 41.4628 75.7129 41.5355C75.8842 41.6082 76.0731 41.6283 76.2558 41.5931C76.4384 41.558 76.6065 41.4693 76.7388 41.3382C76.871 41.2072 76.9613 41.0397 76.9983 40.8571C77.0354 40.6745 77.0174 40.485 76.9467 40.3126C76.876 40.1403 76.7557 39.9929 76.6012 39.8891C76.4467 39.7854 76.2649 39.73 76.0789 39.73C75.8318 39.73 75.5947 39.8276 75.419 40.0018C75.2433 40.1759 75.1433 40.4124 75.1407 40.66ZM76.9074 40.66C76.9094 40.827 76.8616 40.9907 76.7702 41.1304C76.6789 41.27 76.548 41.3793 76.3944 41.4441C76.2408 41.5089 76.0714 41.5264 75.9079 41.4943C75.7443 41.4622 75.594 41.382 75.4761 41.2639C75.3583 41.1458 75.2782 40.9952 75.2462 40.8314C75.2142 40.6675 75.2316 40.4978 75.2963 40.3439C75.361 40.19 75.47 40.0589 75.6094 39.9674C75.7488 39.8758 75.9123 39.828 76.0789 39.83C76.2978 39.8326 76.5071 39.9209 76.6619 40.076C76.8167 40.231 76.9048 40.4407 76.9074 40.66Z" fill="white"/>
</g>
<g style="mix-blend-mode:overlay" opacity="0.25">
<path d="M111.633 50.16C111.635 52.0203 112.187 53.8382 113.22 55.3841C114.253 56.9301 115.72 58.1346 117.436 58.8456C119.151 59.5566 121.039 59.7421 122.86 59.3787C124.681 59.0153 126.354 58.1193 127.667 56.8039C128.98 55.4884 129.874 53.8127 130.237 51.9882C130.6 50.1638 130.414 48.2726 129.705 46.5536C128.995 44.8345 127.793 43.3648 126.25 42.33C124.707 41.2953 122.892 40.742 121.035 40.74C118.542 40.7426 116.152 41.7359 114.39 43.502C112.627 45.268 111.635 47.6625 111.633 50.16ZM129.41 50.16C129.408 51.8213 128.914 53.4448 127.991 54.8251C127.068 56.2054 125.757 57.2804 124.225 57.9144C122.692 58.5483 121.006 58.7127 119.38 58.3866C117.754 58.0606 116.261 57.2588 115.09 56.0826C113.918 54.9064 113.122 53.4088 112.8 51.7789C112.479 50.1491 112.647 48.4603 113.283 46.9262C113.919 45.3921 114.996 44.0815 116.375 43.1601C117.755 42.2387 119.377 41.748 121.035 41.75C122.136 41.7513 123.226 41.9699 124.243 42.3932C125.26 42.8166 126.183 43.4364 126.961 44.2174C127.739 44.9983 128.355 45.925 128.775 46.9447C129.195 47.9643 129.411 49.0569 129.41 50.16Z" fill="white"/>
</g>
<g style="mix-blend-mode:overlay" opacity="0.25">
<path d="M59.4502 130.77C59.4522 132.107 59.8496 133.413 60.5922 134.523C61.3348 135.633 62.3893 136.498 63.6224 137.008C64.8555 137.518 66.2119 137.651 67.5201 137.389C68.8283 137.127 70.0296 136.482 70.9723 135.537C71.9149 134.591 72.5565 133.386 72.8161 132.075C73.0756 130.764 72.9414 129.405 72.4304 128.171C71.9194 126.936 71.0546 125.881 69.9452 125.139C68.8358 124.396 67.5317 124 66.1976 124C65.3107 124 64.4325 124.175 63.6132 124.516C62.7939 124.856 62.0496 125.355 61.4229 125.983C60.7963 126.612 60.2994 127.359 59.9609 128.18C59.6224 129.001 59.4489 129.881 59.4502 130.77ZM72.2263 130.77C72.2263 131.957 71.8751 133.117 71.2171 134.103C70.559 135.09 69.6237 135.859 68.5294 136.313C67.435 136.767 66.2309 136.886 65.0692 136.655C63.9075 136.423 62.8403 135.852 62.0028 135.013C61.1652 134.174 60.5949 133.104 60.3638 131.941C60.1327 130.777 60.2513 129.57 60.7046 128.474C61.1579 127.378 61.9255 126.44 62.9103 125.781C63.8952 125.122 65.0531 124.77 66.2375 124.77C67.8259 124.77 69.3491 125.402 70.4723 126.527C71.5954 127.653 72.2263 129.179 72.2263 130.77Z" fill="white"/>
</g>
<g style="mix-blend-mode:overlay" opacity="0.25">
<path d="M105.953 189.48C105.953 189.818 106.053 190.149 106.241 190.43C106.428 190.711 106.695 190.93 107.007 191.06C107.319 191.189 107.662 191.223 107.993 191.157C108.324 191.091 108.628 190.928 108.867 190.689C109.106 190.45 109.268 190.145 109.334 189.814C109.4 189.482 109.366 189.138 109.237 188.826C109.108 188.513 108.889 188.246 108.608 188.058C108.328 187.87 107.998 187.77 107.66 187.77C107.208 187.773 106.775 187.954 106.456 188.274C106.136 188.594 105.956 189.027 105.953 189.48ZM109.177 189.48C109.177 189.783 109.087 190.079 108.919 190.331C108.751 190.583 108.512 190.779 108.232 190.894C107.952 191.01 107.645 191.04 107.348 190.98C107.052 190.92 106.78 190.773 106.567 190.558C106.353 190.343 106.209 190.07 106.151 189.772C106.093 189.475 106.125 189.167 106.242 188.888C106.359 188.608 106.556 188.37 106.809 188.203C107.061 188.036 107.357 187.948 107.66 187.95C107.86 187.95 108.058 187.99 108.243 188.067C108.428 188.144 108.595 188.257 108.736 188.399C108.877 188.541 108.989 188.71 109.064 188.895C109.14 189.081 109.178 189.28 109.177 189.48Z" fill="white"/>
</g>
<g style="mix-blend-mode:overlay" opacity="0.25">
<path d="M86.4502 230.62C86.4502 231.896 86.8278 233.143 87.5352 234.203C88.2426 235.264 89.2481 236.091 90.4245 236.579C91.6009 237.067 92.8953 237.195 94.1442 236.946C95.393 236.697 96.5402 236.083 97.4405 235.181C98.3409 234.279 98.954 233.129 99.2025 231.878C99.4509 230.627 99.3234 229.33 98.8361 228.152C98.3488 226.973 97.5237 225.966 96.4649 225.257C95.4062 224.548 94.1615 224.17 92.8882 224.17C91.1807 224.17 89.5432 224.849 88.3358 226.059C87.1285 227.269 86.4502 228.909 86.4502 230.62ZM98.6275 230.62C98.6275 231.76 98.29 232.874 97.6578 233.821C97.0257 234.768 96.1272 235.507 95.076 235.942C94.0249 236.378 92.8684 236.492 91.7529 236.269C90.6374 236.045 89.613 235.496 88.8093 234.689C88.0057 233.883 87.4589 232.855 87.2382 231.738C87.0175 230.62 87.1328 229.461 87.5694 228.409C88.0061 227.356 88.7446 226.458 89.6913 225.826C90.6381 225.194 91.7507 224.858 92.8882 224.86C94.4113 224.863 95.871 225.471 96.9471 226.551C98.0231 227.63 98.6275 229.094 98.6275 230.62Z" fill="white"/>
</g>
<g style="mix-blend-mode:overlay" opacity="0.25">
<path d="M69.6611 315.79C69.6611 316.878 69.9831 317.941 70.5863 318.846C71.1896 319.75 72.0469 320.455 73.0501 320.871C74.0532 321.288 75.157 321.397 76.2219 321.184C77.2868 320.972 78.265 320.448 79.0327 319.679C79.8005 318.91 80.3233 317.93 80.5352 316.863C80.747 315.796 80.6383 314.69 80.2228 313.685C79.8073 312.68 79.1036 311.821 78.2008 311.217C77.2981 310.613 76.2367 310.29 75.1509 310.29C74.4296 310.289 73.7151 310.43 73.0485 310.706C72.3819 310.982 71.7762 311.387 71.2661 311.898C70.7561 312.409 70.3518 313.016 70.0764 313.684C69.8009 314.352 69.6598 315.067 69.6611 315.79ZM80.0518 315.79C80.0518 316.761 79.7643 317.71 79.2258 318.518C78.6873 319.325 77.9219 319.955 77.0264 320.326C76.1309 320.698 75.1455 320.795 74.1948 320.606C73.2441 320.416 72.3709 319.949 71.6855 319.262C71.0001 318.575 70.5333 317.7 70.3442 316.748C70.1551 315.795 70.2522 314.808 70.6231 313.911C70.994 313.014 71.6222 312.247 72.4281 311.708C73.2341 311.168 74.1816 310.88 75.1509 310.88C76.4499 310.883 77.6949 311.401 78.6134 312.321C79.5319 313.241 80.0491 314.489 80.0518 315.79Z" fill="white"/>
</g>
<g style="mix-blend-mode:overlay" opacity="0.25">
<path d="M98.3076 370.36C98.3076 371.689 98.701 372.988 99.438 374.093C100.175 375.199 101.223 376.06 102.448 376.568C103.674 377.077 105.023 377.21 106.324 376.951C107.625 376.692 108.82 376.052 109.758 375.112C110.696 374.172 111.335 372.975 111.594 371.671C111.852 370.367 111.72 369.016 111.212 367.788C110.704 366.56 109.845 365.511 108.742 364.773C107.639 364.034 106.342 363.64 105.015 363.64C103.237 363.643 101.532 364.352 100.275 365.611C99.0178 366.871 98.3103 368.579 98.3076 370.36ZM111.004 370.36C111.004 371.547 110.653 372.707 109.995 373.693C109.337 374.68 108.401 375.449 107.307 375.903C106.213 376.357 105.008 376.476 103.847 376.245C102.685 376.013 101.618 375.442 100.78 374.603C99.9428 373.764 99.3724 372.694 99.1413 371.531C98.9103 370.367 99.0289 369.16 99.4821 368.064C99.9354 366.968 100.703 366.03 101.688 365.371C102.673 364.712 103.831 364.36 105.015 364.36C106.603 364.36 108.127 364.992 109.25 366.117C110.373 367.243 111.004 368.769 111.004 370.36Z" fill="white"/>
</g>
<g style="mix-blend-mode:overlay" opacity="0.25">
<path d="M145.709 424.87C145.709 426.452 146.177 427.999 147.055 429.315C147.932 430.63 149.179 431.656 150.638 432.261C152.097 432.867 153.703 433.025 155.252 432.716C156.801 432.408 158.224 431.646 159.34 430.527C160.457 429.408 161.218 427.983 161.526 426.431C161.834 424.879 161.676 423.27 161.071 421.809C160.467 420.347 159.443 419.097 158.13 418.218C156.817 417.339 155.273 416.87 153.694 416.87C151.576 416.87 149.545 417.713 148.048 419.213C146.55 420.713 145.709 422.748 145.709 424.87ZM160.751 424.87C160.751 426.276 160.335 427.651 159.555 428.82C158.775 429.989 157.667 430.901 156.37 431.439C155.073 431.977 153.646 432.118 152.27 431.843C150.893 431.569 149.628 430.892 148.636 429.898C147.643 428.903 146.968 427.636 146.694 426.257C146.42 424.878 146.56 423.448 147.098 422.149C147.635 420.85 148.544 419.74 149.711 418.958C150.878 418.177 152.251 417.76 153.654 417.76C155.536 417.763 157.339 418.513 158.669 419.845C160 421.178 160.748 422.985 160.751 424.87Z" fill="white"/>
</g>
<g style="mix-blend-mode:overlay" opacity="0.25">
<path d="M123.351 459.45C123.359 460.321 123.624 461.17 124.113 461.89C124.602 462.61 125.293 463.169 126.098 463.497C126.904 463.824 127.788 463.905 128.639 463.73C129.491 463.554 130.271 463.13 130.883 462.511C131.494 461.891 131.908 461.105 132.074 460.25C132.239 459.395 132.149 458.51 131.813 457.706C131.477 456.903 130.911 456.217 130.187 455.736C129.463 455.254 128.612 454.998 127.743 455C126.574 455 125.454 455.464 124.627 456.291C123.8 457.118 123.334 458.239 123.331 459.41L123.351 459.45ZM131.685 459.45C131.687 460.23 131.458 460.993 131.027 461.643C130.595 462.292 129.981 462.799 129.262 463.098C128.543 463.398 127.752 463.476 126.988 463.325C126.224 463.173 125.523 462.798 124.972 462.246C124.421 461.694 124.047 460.991 123.895 460.226C123.744 459.461 123.823 458.668 124.121 457.948C124.42 457.227 124.926 456.612 125.574 456.18C126.222 455.748 126.984 455.518 127.763 455.52C128.802 455.523 129.799 455.938 130.534 456.674C131.269 457.41 131.683 458.409 131.685 459.45Z" fill="white"/>
</g>
<g style="mix-blend-mode:overlay" opacity="0.25">
<path d="M109.887 408.63C109.887 409.501 110.145 410.352 110.628 411.076C111.111 411.799 111.797 412.363 112.6 412.696C113.403 413.029 114.287 413.115 115.139 412.945C115.991 412.774 116.774 412.354 117.388 411.738C118.001 411.121 118.419 410.336 118.587 409.482C118.755 408.628 118.667 407.743 118.333 406.939C117.999 406.135 117.435 405.449 116.711 404.967C115.988 404.484 115.138 404.228 114.269 404.23C113.105 404.233 111.991 404.697 111.17 405.522C110.348 406.347 109.887 407.465 109.887 408.63ZM118.191 408.63C118.191 409.407 117.961 410.167 117.53 410.813C117.099 411.46 116.486 411.963 115.77 412.261C115.053 412.558 114.264 412.636 113.503 412.484C112.742 412.333 112.043 411.959 111.495 411.409C110.946 410.859 110.573 410.159 110.421 409.397C110.27 408.634 110.348 407.844 110.644 407.126C110.941 406.408 111.444 405.794 112.089 405.362C112.734 404.93 113.493 404.7 114.269 404.7C114.784 404.699 115.295 404.799 115.771 404.996C116.248 405.193 116.681 405.483 117.045 405.848C117.41 406.213 117.699 406.647 117.895 407.124C118.092 407.602 118.193 408.114 118.191 408.63Z" fill="white"/>
</g>
<g style="mix-blend-mode:overlay" opacity="0.25">
<path d="M84.084 338.07C84.082 338.883 84.3209 339.679 84.7705 340.356C85.2201 341.033 85.8601 341.562 86.6095 341.874C87.3589 342.187 88.1841 342.27 88.9805 342.112C89.777 341.955 90.5089 341.564 91.0836 340.99C91.6583 340.415 92.05 339.683 92.2091 338.885C92.3682 338.088 92.2876 337.261 91.9774 336.509C91.6672 335.758 91.1414 335.115 90.4665 334.663C89.7917 334.211 88.9981 333.97 88.1863 333.97C87.1001 333.97 86.0581 334.402 85.2891 335.17C84.52 335.939 84.0866 336.982 84.084 338.07ZM91.8395 338.07C91.8415 338.797 91.6281 339.508 91.2263 340.113C90.8246 340.718 90.2526 341.19 89.5828 341.469C88.913 341.748 88.1757 341.821 87.4642 341.68C86.7527 341.539 86.099 341.189 85.5861 340.675C85.0732 340.161 84.7241 339.506 84.5831 338.793C84.4421 338.081 84.5155 337.342 84.794 336.671C85.0725 336 85.5435 335.427 86.1474 335.024C86.7514 334.622 87.461 334.408 88.1863 334.41C89.1536 334.415 90.0798 334.803 90.7637 335.488C91.4477 336.173 91.8343 337.101 91.8395 338.07Z" fill="white"/>
</g>
<g style="mix-blend-mode:overlay" opacity="0.25">
<path d="M108.838 277.89C108.838 279.67 109.365 281.41 110.352 282.89C111.339 284.37 112.742 285.524 114.383 286.205C116.025 286.886 117.831 287.064 119.574 286.717C121.316 286.37 122.917 285.513 124.173 284.254C125.43 282.995 126.285 281.392 126.632 279.646C126.978 277.9 126.8 276.09 126.121 274.446C125.441 272.801 124.289 271.396 122.812 270.407C121.335 269.418 119.598 268.89 117.821 268.89C115.439 268.89 113.154 269.838 111.469 271.526C109.784 273.214 108.838 275.503 108.838 277.89ZM125.806 277.89C125.806 279.472 125.338 281.019 124.46 282.335C123.583 283.65 122.336 284.676 120.877 285.281C119.418 285.887 117.812 286.045 116.263 285.736C114.714 285.428 113.292 284.666 112.175 283.547C111.058 282.428 110.298 281.003 109.989 279.451C109.681 277.899 109.839 276.29 110.444 274.829C111.048 273.367 112.072 272.117 113.385 271.238C114.698 270.359 116.242 269.89 117.821 269.89C119.939 269.89 121.97 270.733 123.467 272.233C124.965 273.733 125.806 275.768 125.806 277.89Z" fill="white"/>
</g>
<g style="mix-blend-mode:overlay" opacity="0.25">
<path d="M84.9932 220.82C84.9932 221.356 85.1518 221.88 85.449 222.326C85.7463 222.771 86.1687 223.119 86.663 223.324C87.1572 223.529 87.7011 223.582 88.2258 223.478C88.7505 223.373 89.2325 223.115 89.6108 222.736C89.9891 222.357 90.2467 221.874 90.3511 221.349C90.4555 220.823 90.4019 220.278 90.1972 219.783C89.9924 219.288 89.6457 218.864 89.2009 218.567C88.7561 218.269 88.2331 218.11 87.6981 218.11C86.9807 218.11 86.2927 218.396 85.7854 218.904C85.2781 219.412 84.9932 220.101 84.9932 220.82ZM90.1136 220.82C90.1156 221.301 89.9747 221.773 89.709 222.174C89.4432 222.575 89.0645 222.888 88.6209 223.073C88.1773 223.258 87.6888 223.307 87.2174 223.214C86.746 223.12 86.3129 222.889 85.9731 222.548C85.6333 222.208 85.4021 221.774 85.3088 221.302C85.2155 220.829 85.2644 220.34 85.4492 219.895C85.634 219.451 85.9465 219.072 86.3469 218.805C86.7472 218.539 87.2176 218.398 87.6981 218.4C88.3387 218.4 88.9531 218.655 89.4061 219.109C89.8591 219.563 90.1136 220.178 90.1136 220.82Z" fill="white"/>
</g>
<g style="mix-blend-mode:overlay" opacity="0.25">
<path d="M156.818 169.27C156.816 169.992 157.028 170.699 157.427 171.301C157.827 171.902 158.395 172.371 159.06 172.649C159.726 172.927 160.459 173.001 161.166 172.861C161.874 172.721 162.524 172.375 163.034 171.864C163.545 171.354 163.893 170.704 164.034 169.996C164.175 169.287 164.104 168.553 163.828 167.886C163.553 167.218 163.086 166.647 162.487 166.246C161.887 165.844 161.183 165.63 160.462 165.63C159.498 165.633 158.574 166.017 157.892 166.698C157.209 167.38 156.824 168.305 156.818 169.27ZM163.715 169.27C163.717 169.915 163.528 170.546 163.172 171.084C162.816 171.621 162.308 172.041 161.714 172.289C161.119 172.537 160.465 172.603 159.833 172.479C159.201 172.354 158.62 172.044 158.164 171.589C157.708 171.133 157.397 170.552 157.271 169.92C157.145 169.287 157.208 168.631 157.454 168.035C157.7 167.439 158.117 166.929 158.653 166.57C159.188 166.211 159.818 166.02 160.462 166.02C161.323 166.02 162.149 166.362 162.759 166.971C163.369 167.581 163.713 168.407 163.715 169.27Z" fill="white"/>
</g>
<g style="mix-blend-mode:overlay" opacity="0.25">
<path d="M99.0566 77.26C99.0566 77.4182 99.1035 77.5729 99.1912 77.7044C99.2789 77.836 99.4037 77.9385 99.5496 77.9991C99.6955 78.0596 99.856 78.0755 100.011 78.0446C100.166 78.0137 100.308 77.9375 100.42 77.8256C100.531 77.7138 100.607 77.5712 100.638 77.416C100.669 77.2608 100.653 77.1 100.593 76.9538C100.532 76.8076 100.43 76.6827 100.299 76.5948C100.167 76.5069 100.013 76.46 99.8551 76.46C99.6434 76.46 99.4403 76.5442 99.2905 76.6943C99.1408 76.8443 99.0566 77.0478 99.0566 77.26ZM100.574 77.26C100.576 77.4028 100.535 77.5429 100.458 77.6627C100.38 77.7824 100.268 77.8762 100.137 77.9322C100.006 77.9883 99.8612 78.004 99.7212 77.9773C99.5811 77.9507 99.4521 77.8829 99.3506 77.7826C99.2491 77.6823 99.1797 77.5541 99.1511 77.4141C99.1226 77.2742 99.1362 77.1289 99.1903 76.9968C99.2444 76.8646 99.3365 76.7516 99.4549 76.672C99.5732 76.5925 99.7126 76.55 99.8551 76.55C100.044 76.5499 100.225 76.6244 100.36 76.7573C100.494 76.8902 100.571 77.0707 100.574 77.26Z" fill="white"/>
</g>
<g style="mix-blend-mode:overlay" opacity="0.25">
<path d="M20.9922 146.29C20.9922 148.381 21.611 150.424 22.7702 152.162C23.9295 153.901 25.5773 155.255 27.5051 156.055C29.4329 156.855 31.5542 157.065 33.6008 156.657C35.6473 156.249 37.5272 155.242 39.0027 153.764C40.4782 152.286 41.483 150.402 41.8901 148.352C42.2972 146.302 42.0882 144.176 41.2897 142.245C40.4912 140.314 39.1389 138.663 37.4039 137.501C35.6689 136.34 33.6291 135.72 31.5425 135.72C28.7444 135.72 26.0609 136.834 24.0823 138.816C22.1037 140.798 20.9922 143.487 20.9922 146.29ZM40.9549 146.29C40.9549 148.157 40.4023 149.982 39.367 151.535C38.3316 153.087 36.86 154.297 35.1383 155.011C33.4166 155.726 31.5221 155.913 29.6943 155.549C27.8665 155.184 26.1876 154.285 24.8699 152.965C23.5521 151.645 22.6547 149.963 22.2912 148.132C21.9276 146.3 22.1142 144.402 22.8273 142.677C23.5405 140.953 24.7482 139.478 26.2977 138.441C27.8472 137.404 29.6689 136.85 31.5325 136.85C34.0299 136.855 36.4234 137.852 38.1893 139.621C39.9552 141.39 40.9497 143.788 40.9549 146.29Z" fill="white"/>
</g>
</g>
<path d="M87.4682 530C92.9779 523.7 85.3322 519 86.0109 513.57C86.5299 509.49 91.2711 507.93 93.1975 507.45L116.474 513.21L122.283 489.61C124.339 485.94 131.845 483.66 135.419 490.1C138.992 496.54 143.354 495.88 146.248 494.64C151.578 492.35 155.341 481 149.852 476.19C143.563 470.67 138.872 478.33 133.462 477.64C128.631 477.03 127.314 470.45 127.194 469.71L132.714 447.31L66.667 430.93L60.9776 454C61.5266 456.07 63.1336 460.42 67.0263 460.92C72.4163 461.6 77.1275 453.92 83.4157 459.46C88.8955 464.3 85.1425 475.65 79.8324 478C76.9378 479.23 72.5859 479.89 69.0026 473.45C65.7687 467.63 59.3207 468.94 56.5858 471.96L50.4473 496.89L74.8617 502.89C78.0457 505.49 79.5529 512.2 73.604 515.51C67.1661 519.1 67.8348 523.51 69.0725 526.37C71.3383 531.68 82.6671 535.45 87.4682 530Z" fill="#CCCCCC"/>
<path d="M250.354 453.43C240.892 453.16 242.309 463.25 237.119 466.57C233.466 468.89 229.074 466.45 227.028 465.02L215.05 440.27L190.326 452.27C185.635 453.14 178.239 448.22 181.243 440.45C184.248 432.68 180.545 429.34 177.38 427.72C171.541 424.72 158.945 429.64 158.715 437.9C158.466 447.38 168.537 445.95 171.831 451.17C174.825 455.83 170.014 461.72 169.455 462.37L145.999 473.7L157.428 497.39C158.206 498.05 163.995 502.66 168.587 499.75C173.787 496.44 172.36 486.34 181.832 486.61C190.077 486.84 194.978 499.45 191.993 505.3C190.366 508.47 187.002 512.21 179.277 509.18C171.551 506.15 166.65 513.51 167.469 518.18L179.506 543.18L248.588 509.75L235.921 483.48C236.241 478.91 240.912 473.3 247.809 476C255.574 479 258.888 475.3 260.515 472.13C263.49 466.27 258.599 453.66 250.354 453.43Z" fill="#A3B1BB"/>
<path d="M211.107 217.41L238.236 195.86L177.919 119.65L150.79 141.21C145.27 143.56 134.819 139.56 136.386 129.21C137.954 118.86 132.454 115.74 128.122 114.62C120.137 112.54 105.973 122.06 107.97 132.29C110.255 144.03 122.243 139.49 127.753 144.99C132.663 149.9 128.411 158.47 127.912 159.42L102.15 179.89L123.481 206.89C126.225 208.07 132.653 210.18 136.666 206.15C142.166 200.64 137.664 188.63 149.352 186.33C159.553 184.33 169.056 198.5 166.989 206.52C165.861 210.88 162.807 216.38 152.417 214.8C142.974 213.37 138.812 221.95 139.93 227.67L162.468 256.14L191.234 233.3C196.913 232.58 204.819 236.78 203.441 245.91C201.864 256.31 207.354 259.38 211.696 260.5C219.681 262.58 233.855 253.05 231.848 242.83C229.553 231 217.575 235.54 212.075 230C208.312 226.29 209.909 220.41 211.107 217.41Z" fill="#1487C0"/>
<path d="M136.407 306.65C131.836 299.29 124.869 305.46 119.718 303.15C116.255 301.6 115.786 297.29 115.805 294.93L128.841 273L107.251 260.12C104.257 256.97 104.257 248.83 111.693 247.22C119.129 245.61 119.798 241.08 119.439 237.84C118.77 231.84 108.679 224.71 102.271 228.7C94.9145 233.28 101.083 240.26 98.7773 245.42C96.7111 250.03 89.794 249.35 89.0354 249.26L68.5437 237L56.2067 257.77C56.1468 258.22 55.3084 265.43 60.0396 267.55C65.18 269.85 72.147 263.68 76.7184 271.05C80.711 277.47 73.5843 287.59 67.6054 288.25C64.3615 288.61 59.8499 287.95 58.2329 280.49C56.616 273.03 48.4312 273.02 45.327 276.08L32.501 297.67L55.3883 311.32C57.3346 315 56.5261 321.46 49.9883 322.88C42.5422 324.49 41.8835 329.02 42.2428 332.26C42.9016 338.26 52.9927 345.39 59.4107 341.4C66.757 336.82 60.5985 329.83 62.8942 324.68C64.4713 321.15 68.8831 320.73 71.2087 320.76L92.8084 333.64L106.473 310.64C110.156 308.73 116.534 309.57 117.931 316.08C119.538 323.54 124.06 324.2 127.304 323.84C133.263 323.19 140.39 313.07 136.407 306.65Z" fill="#CCCCCC"/>
<path d="M182.021 352.3C177.849 361.56 188.379 364.3 189.497 370.82C190.276 375.38 186.054 378.72 183.808 380.16L154.503 381.75L156.09 411.14C155.012 416.14 147.107 421.43 140.708 415.25C134.31 409.07 129.469 411.36 126.555 413.82C121.185 418.36 120.846 432.82 128.9 436.48C138.133 440.64 140.878 430.09 147.376 428.98C153.185 427.98 157.018 435.13 157.427 435.98L158.944 463.89L241.211 459.42L236.769 377.32L205.667 379C201.295 376.8 197.682 369.9 203.192 364.17C209.38 357.73 207.075 352.91 204.619 350C200.078 344.59 185.635 344.25 182.021 352.3Z" fill="#063F6B"/>
<path d="M130.159 345.27C136.836 342.07 132.245 335.55 134.68 331.4C136.327 328.59 140.03 328.6 142.026 328.84L159.384 342L172.36 324.84C175.354 322.57 182.191 323.33 182.87 329.84C183.549 336.35 187.322 337.31 190.097 337.31C195.227 337.31 202.224 329.39 199.449 323.57C196.245 316.88 189.747 321.47 185.605 319.02C181.892 316.84 183.11 311.02 183.259 310.39L195.547 294.1L147.526 257.77L133.822 275.96C130.508 277.27 125.118 275.96 124.519 270.28C123.86 263.81 120.087 262.81 117.303 262.82C112.182 262.82 105.175 270.74 107.95 276.56C111.144 283.25 117.642 278.66 121.804 281.1C124.639 282.77 124.589 286.55 124.339 288.53L111.364 305.69L129.57 319.46C130.847 322.77 129.57 328.11 123.89 328.7C117.422 329.36 116.434 333.16 116.434 335.94C116.434 341.05 124.339 348.05 130.159 345.27Z" fill="#4F5F6B"/>
<path d="M266.833 333.15C268.51 327.15 261.842 326.48 260.625 322.64C259.766 320.02 261.872 317.64 263.12 316.55L280.717 312.91L277.044 295.15C275.916 293.89 273.61 291.88 271.055 292.73C267.222 294 266.514 300.63 260.555 298.95C255.364 297.49 254.256 288.71 257.091 285.47C258.618 283.72 261.323 281.88 265.765 285.04C266.47 285.571 267.29 285.928 268.158 286.082C269.026 286.236 269.919 286.183 270.763 285.927C271.607 285.67 272.378 285.218 273.015 284.607C273.652 283.996 274.137 283.244 274.429 282.41L270.476 263.49L252.889 267.13C249.775 266.94 245.902 262.64 249.016 258.19C252.13 253.74 250.334 251.02 248.577 249.49C245.343 246.65 236.599 247.77 235.122 252.97C233.445 258.97 240.063 259.65 241.331 263.48C242.468 266.91 238.496 269.89 238.037 270.21L221.338 273.67L224.941 291.15C225.939 292.34 228.435 294.82 231.229 293.89C235.062 292.63 235.761 285.99 241.72 287.67C246.92 289.13 248.028 297.91 245.193 301.15C243.656 302.91 240.951 304.74 236.51 301.59C235.779 301.038 234.924 300.674 234.02 300.53C233.116 300.385 232.191 300.464 231.325 300.76C230.459 301.056 229.678 301.559 229.051 302.227C228.423 302.895 227.968 303.706 227.726 304.59L231.549 323.09L250.204 319.23C251.048 319.51 251.814 319.987 252.437 320.622C253.061 321.257 253.524 322.032 253.79 322.882C254.055 323.732 254.114 324.634 253.963 325.511C253.812 326.389 253.454 327.218 252.919 327.93C249.765 332.39 251.601 335.09 253.348 336.63C256.612 339.47 265.376 338.36 266.833 333.15Z" fill="#81C5EC"/>
<defs>
<radialGradient id="paint0_radial" cx="0" cy="0" r="1" gradientUnits="userSpaceOnUse" gradientTransform="translate(203.242 348.96) rotate(90) scale(350.03 349.378)">
<stop stop-color="white"/>
<stop offset="0.38" stop-color="#EC148E"/>
<stop offset="1" stop-color="#9D248F"/>
</radialGradient>
<radialGradient id="paint1_radial" cx="0" cy="0" r="1" gradientUnits="userSpaceOnUse" gradientTransform="translate(93304.3 100699) scale(30910.3 26498)">
<stop stop-color="white"/>
<stop offset="0.38" stop-color="#EC148E"/>
<stop offset="1" stop-color="#9D248F"/>
</radialGradient>
<radialGradient id="paint2_radial" cx="0" cy="0" r="1" gradientUnits="userSpaceOnUse" gradientTransform="translate(15837.1 24875.4) scale(5230.63 6479.61)">
<stop stop-color="white"/>
<stop offset="0.38" stop-color="#EC148E"/>
<stop offset="1" stop-color="#9D248F"/>
</radialGradient>
<radialGradient id="paint3_radial" cx="0" cy="0" r="1" gradientUnits="userSpaceOnUse" gradientTransform="translate(18708.7 26454.3) scale(6162.32 6835.29)">
<stop stop-color="white"/>
<stop offset="0.38" stop-color="#EC148E"/>
<stop offset="1" stop-color="#9D248F"/>
</radialGradient>
<radialGradient id="paint4_radial" cx="0" cy="0" r="1" gradientUnits="userSpaceOnUse" gradientTransform="translate(83351.9 43437.2) scale(27579.4 11311.4)">
<stop stop-color="white"/>
<stop offset="0.38" stop-color="#EC148E"/>
<stop offset="1" stop-color="#9D248F"/>
</radialGradient>
<radialGradient id="paint5_radial" cx="0" cy="0" r="1" gradientUnits="userSpaceOnUse" gradientTransform="translate(149007 274810) scale(49379.7 72391.1)">
<stop stop-color="white"/>
<stop offset="0.38" stop-color="#EC148E"/>
<stop offset="1" stop-color="#9D248F"/>
</radialGradient>
<radialGradient id="paint6_radial" cx="0" cy="0" r="1" gradientUnits="userSpaceOnUse" gradientTransform="translate(233.226 253.28) rotate(90) scale(388.25 387.527)">
<stop stop-color="white"/>
<stop offset="0.38" stop-color="#52CAF5"/>
<stop offset="1" stop-color="#007DC5"/>
</radialGradient>
<radialGradient id="paint7_radial" cx="0" cy="0" r="1" gradientUnits="userSpaceOnUse" gradientTransform="translate(76547.8 113108) scale(30916.2 33847.2)">
<stop stop-color="white"/>
<stop offset="0.38" stop-color="#52CAF5"/>
<stop offset="1" stop-color="#007DC5"/>
</radialGradient>
<radialGradient id="paint8_radial" cx="0" cy="0" r="1" gradientUnits="userSpaceOnUse" gradientTransform="translate(54339 13058.2) scale(21954.5 3871.05)">
<stop stop-color="white"/>
<stop offset="0.38" stop-color="#52CAF5"/>
<stop offset="1" stop-color="#007DC5"/>
</radialGradient>
<radialGradient id="paint9_radial" cx="0" cy="0" r="1" gradientUnits="userSpaceOnUse" gradientTransform="translate(59310.5 15182.3) scale(23959.4 4504.16)">
<stop stop-color="white"/>
<stop offset="0.38" stop-color="#52CAF5"/>
<stop offset="1" stop-color="#007DC5"/>
</radialGradient>
<radialGradient id="paint10_radial" cx="0" cy="0" r="1" gradientUnits="userSpaceOnUse" gradientTransform="translate(89683.3 114380) scale(36230.7 34170.4)">
<stop stop-color="white"/>
<stop offset="0.38" stop-color="#52CAF5"/>
<stop offset="1" stop-color="#007DC5"/>
</radialGradient>
<radialGradient id="paint11_radial" cx="0" cy="0" r="1" gradientUnits="userSpaceOnUse" gradientTransform="translate(28730.4 15878.5) scale(11592.1 4659.48)">
<stop stop-color="white"/>
<stop offset="0.38" stop-color="#52CAF5"/>
<stop offset="1" stop-color="#007DC5"/>
</radialGradient>
<radialGradient id="paint12_radial" cx="0" cy="0" r="1" gradientUnits="userSpaceOnUse" gradientTransform="translate(115936 118259) scale(46855.6 35302.4)">
<stop stop-color="white"/>
<stop offset="0.38" stop-color="#52CAF5"/>
<stop offset="1" stop-color="#007DC5"/>
</radialGradient>
<radialGradient id="paint13_radial" cx="0" cy="0" r="1" gradientUnits="userSpaceOnUse" gradientTransform="translate(78250.2 120838) scale(31602.8 36126.7)">
<stop stop-color="white"/>
<stop offset="0.38" stop-color="#52CAF5"/>
<stop offset="1" stop-color="#007DC5"/>
</radialGradient>
<radialGradient id="paint14_radial" cx="0" cy="0" r="1" gradientUnits="userSpaceOnUse" gradientTransform="translate(292.076 289.97) rotate(90) scale(481.33 480.433)">
<stop stop-color="white"/>
<stop offset="0.38" stop-color="#FED300"/>
<stop offset="1" stop-color="#FF9618"/>
</radialGradient>
<radialGradient id="paint15_radial" cx="0" cy="0" r="1" gradientUnits="userSpaceOnUse" gradientTransform="translate(108836 125261) scale(52493.2 48610.5)">
<stop stop-color="white"/>
<stop offset="0.38" stop-color="#FED300"/>
<stop offset="1" stop-color="#FF9618"/>
</radialGradient>
<radialGradient id="paint16_radial" cx="0" cy="0" r="1" gradientUnits="userSpaceOnUse" gradientTransform="translate(56602.7 75749.8) scale(27280.1 29410.5)">
<stop stop-color="white"/>
<stop offset="0.38" stop-color="#FED300"/>
<stop offset="1" stop-color="#FF9618"/>
</radialGradient>
<radialGradient id="paint17_radial" cx="0" cy="0" r="1" gradientUnits="userSpaceOnUse" gradientTransform="translate(38390.5 42206.1) scale(18506.3 16196.8)">
<stop stop-color="white"/>
<stop offset="0.38" stop-color="#FED300"/>
<stop offset="1" stop-color="#FF9618"/>
</radialGradient>
<radialGradient id="paint18_radial" cx="0" cy="0" r="1" gradientUnits="userSpaceOnUse" gradientTransform="translate(111676 208410) scale(53875.8 80873.1)">
<stop stop-color="white"/>
<stop offset="0.38" stop-color="#FED300"/>
<stop offset="1" stop-color="#FF9618"/>
</radialGradient>
<radialGradient id="paint19_radial" cx="0" cy="0" r="1" gradientUnits="userSpaceOnUse" gradientTransform="translate(22579.7 20663) scale(10813.4 7907.43)">
<stop stop-color="white"/>
<stop offset="0.38" stop-color="#FED300"/>
<stop offset="1" stop-color="#FF9618"/>
</radialGradient>
<radialGradient id="paint20_radial" cx="0" cy="0" r="1" gradientUnits="userSpaceOnUse" gradientTransform="translate(125087 112859) scale(60335.3 43745.1)">
<stop stop-color="white"/>
<stop offset="0.38" stop-color="#FED300"/>
<stop offset="1" stop-color="#FF9618"/>
</radialGradient>
</defs>
</svg>
