<svg width="175" height="128" viewBox="0 0 175 128" fill="none" xmlns="http://www.w3.org/2000/svg">
<path d="M0.0849609 53.4927C0.534138 53.4957 0.851661 53.2686 0.754189 52.7913C0.620541 52.1351 0.30301 52.2587 0.503984 51.5654C0.666772 51.0047 1.13806 51.2026 1.55206 51.0358C2.0344 50.8419 2.22833 50.1576 2.79809 50.1415C2.70564 49.9365 2.68353 49.7234 2.73277 49.5034C3.06036 49.5707 3.7256 49.8943 4.03007 49.621C4.25818 49.416 4.51141 49.0743 4.83598 49.0291C5.17563 48.9818 5.3364 49.8631 5.56651 50.0651C5.95841 50.4078 6.7171 49.9425 7.21451 49.9857C8.12894 50.0651 8.19726 48.7668 8.29976 48.1307C8.38517 47.6062 8.62533 47.4092 9.1961 47.4936C9.92061 47.6012 10.5919 47.6152 11.2903 47.4605C11.654 47.3791 12.1595 47.5148 12.4589 47.2304C12.7885 46.9169 12.7322 46.2948 13.0457 45.928C13.8306 45.0046 15.369 44.9131 16.2845 44.1655C16.6522 43.865 16.8401 43.7023 17.3084 43.6912C17.9093 43.6751 17.7455 43.4591 17.5627 43.022C17.3295 42.4663 17.1255 41.9799 16.8522 41.4463C16.4945 40.748 17.2541 40.5922 17.7365 40.4696C17.5486 40.2928 17.3366 40.1541 17.0984 40.0546C17.2944 39.7632 17.6259 39.3251 18.0249 39.6074C18.2831 39.0236 17.5757 38.9663 17.5455 38.48C17.5064 37.8439 16.8773 37.3987 16.5256 36.9254C16.0443 36.2763 15.5348 35.6221 15.2585 34.8524C15.0756 34.3449 15.3781 33.5179 14.8977 33.2989C14.4918 33.1129 12.8368 33.3059 13.3 32.6166C13.5633 32.2257 14.545 32.1151 14.9812 31.9795C15.776 31.7303 16.5618 31.667 17.3607 31.3786C18.1575 31.0922 18.2791 31.4941 18.9353 31.7564C19.4618 31.9664 19.908 31.4258 20.4325 31.7936C21.0375 32.2166 21.0475 31.5172 20.9219 31.1042C20.733 30.4862 19.9633 30.845 19.6508 30.3827C19.3835 29.9878 19.6648 29.2332 19.699 28.8031C19.7502 28.1539 19.5935 27.4716 19.5955 26.8175C19.5965 26.1985 19.8618 25.5182 19.7372 24.9152C19.5875 24.1887 19.9633 23.9837 20.6064 24.2922C21.151 24.5535 21.6223 24.8007 22.2182 24.9414C22.995 25.1243 23.7376 24.8328 24.5154 24.9102C25.1112 24.9695 25.3192 25.7543 25.8689 25.2911C26.292 24.9353 26.8727 24.8871 27.2727 24.5294C28.0032 23.8782 26.1794 22.0845 25.9724 21.3821C25.8598 21.0013 25.7775 19.9592 26.1593 19.6919C26.5251 19.4357 27.0617 19.6979 27.4677 19.5171C28.4946 19.0568 28.4162 18.5795 28.0917 17.6259C27.8786 17.0029 28.5931 16.9577 29 16.9999C29.6502 17.0652 29.9457 17.0773 30.5717 16.8803C30.848 16.7939 31.5564 17.3345 31.3364 17.5535C30.9817 17.9053 31.5102 18.271 31.9062 18.3554C32.6859 18.5192 32.0227 18.9001 32.4719 19.1121C33.0959 19.4055 33.944 19.3744 34.4183 19.9512C34.9489 20.5983 36.4874 21.3781 37.2943 21.1239C37.8289 20.955 39.1854 22.2413 39.3472 21.574C39.6396 21.6675 39.6567 21.9298 39.8878 22.0845C40.2024 22.2945 40.542 22.3126 40.8475 22.5669C41.4213 23.0442 41.6323 23.7737 42.188 24.2641C42.6733 24.6942 43.2601 24.9846 43.7565 25.4006C44.5795 26.0909 44.2932 26.6778 44.6067 27.5339C44.8187 28.1137 45.4196 28.2333 45.1373 28.9618C44.9011 29.5748 44.6991 30.1406 45.2056 30.6892C45.5694 31.0841 46.0808 31.7544 46.6576 31.7081C47.3902 31.6488 48.1338 32.1051 48.8553 32.1403C49.5838 32.1764 50.3325 32.3985 51.053 32.3694C51.7433 32.3412 52.4055 32.29 53.0958 32.3422C54.7458 32.4648 55.8813 33.4174 57.3766 34.0173C58.0589 34.2907 58.6759 34.7047 59.3612 34.9649C59.8596 35.1539 60.3671 35.1187 60.8866 35.19C61.5398 35.2805 61.0061 35.7407 61.4855 36.0231C62.1346 36.4059 62.5034 36.5496 62.9476 37.2269C63.2993 37.7615 63.6882 38.3081 64.1092 38.7905C64.5996 39.3532 65.305 39.6486 65.8718 40.1209C66.2687 40.4515 66.4345 40.9359 66.958 41.0153C67.6775 41.1248 68.3468 40.8716 69.0492 40.8012C70.5565 40.6495 72.2114 41.3599 73.7399 41.4493C74.5448 41.4966 75.3688 41.6192 76.1747 41.5981C76.9474 41.579 77.6297 41.2162 78.4146 41.2715C79.2546 41.3308 80.0786 41.5026 80.9106 41.6172C81.6321 41.7167 82.4561 41.5981 83.1444 41.8523C83.7946 42.0925 84.2046 42.6793 84.8105 42.9858C85.6998 43.436 86.8605 43.4289 87.8221 43.6299C89.2802 43.9354 90.6197 44.8177 92.1511 44.4459C92.8495 44.2771 92.9288 44.3906 93.3529 44.874C93.7689 45.3483 94.5849 44.8438 94.9336 45.2236C94.8391 45.1201 98.319 43.1968 98.6506 43.027C99.3178 42.6863 100.184 42.5266 100.923 42.4331C101.801 42.3216 102.792 42.0794 103.666 42.0623C104.969 42.0382 106.516 42.5055 107.704 41.793C108.261 41.4594 109.296 41.3499 109.71 40.8585C110.108 40.3882 110.134 39.6828 110.431 39.1522C110.705 38.6598 111.21 38.4498 111.68 38.1875C111.945 38.0398 112.145 37.8429 112.272 37.5635C112.347 37.4007 112.726 37.5595 112.761 37.4088C112.974 36.4943 110.551 35.6171 110.129 34.9207C109.723 34.2495 109.454 32.4075 110.522 32.1835C111.835 31.9081 113.376 33.0446 114.674 33.2567C114.955 33.3029 115.766 33.5461 116.004 33.3039C116.375 32.9261 116.938 32.6688 117.156 32.2005C117.35 31.7825 117.467 31.2881 117.761 30.9254C118.044 30.5777 118.99 30.8801 119.363 30.9173C120.356 31.0138 121.319 30.5104 121.878 29.6633C122.147 29.2533 121.438 28.6594 121.779 28.0293C122.097 27.4425 122.449 27.3058 123.099 27.2907C123.568 27.2797 123.994 27.5148 123.909 26.8064C123.845 26.2587 124.572 26.6094 124.809 26.6858C125.058 26.7672 125.798 26.1492 126.144 26.0538C126.429 25.9744 126.7 26.0477 126.984 26.0809C127.168 26.107 127.352 26.116 127.538 26.109C127.611 26.0015 127.686 25.895 127.765 25.7895C127.984 25.7885 128.47 26.0578 128.729 26.108C129.2 26.1974 129.673 26.2809 130.151 26.319C131.903 26.4587 130.32 24.9323 129.633 24.4309C128.023 23.2562 126.205 22.2282 124.393 21.4133C123.567 21.0415 122.352 20.747 121.821 21.6916C121.14 22.9035 120.253 21.6383 119.14 21.6896C118.764 21.7077 117.975 21.556 117.651 21.7137C117.24 21.9127 117.23 22.4433 116.627 22.1046C116.244 21.8886 114.858 21.1862 115.212 20.5893C115.411 20.2527 115.678 20.2647 115.414 19.8446C115.152 19.4286 115.146 19.08 115.156 18.6097C115.183 17.1918 115.039 15.7749 114.928 14.3641C115.982 14.8676 117.138 14.8545 118.153 15.3057C119.309 15.8181 119.475 14.8093 120.188 14.1712C120.683 13.728 122.06 14.1229 121.936 13.1753C121.872 12.6709 121.577 12.5594 121.141 12.4619C120.852 12.3986 120.899 11.9564 120.876 11.7082C120.84 11.3143 121.108 11.1365 120.928 10.7315C120.818 10.5476 120.801 10.3547 120.878 10.1507C121.041 9.73469 120.802 9.50155 120.802 9.09257C120.802 8.22536 120.492 7.55813 121.317 6.94415C122.238 6.25883 120.861 5.4469 120.528 4.84297C120.232 4.30737 119.53 3.86824 118.902 4.11946C118.339 4.34355 118.071 3.91045 117.739 3.54367C118.645 3.23819 118.452 1.85952 119.521 1.65252C120.795 1.40532 121.953 0.94006 123.264 1.01241C124.566 1.08376 125.659 0.619496 126.989 0.961152C127.556 1.10686 128.116 1.37817 128.643 1.62737C129.364 1.96903 130.188 1.97407 130.887 2.3308C130.897 1.54901 133.239 2.4524 133.42 2.76994C133.583 3.05532 134.642 3.41504 134.969 3.5939C135.221 3.73258 135.121 4.00289 135.345 4.13654C135.695 4.34556 136.048 4.40284 136.376 4.66612C136.735 4.95451 137.344 5.18964 137.549 5.59963C137.671 5.84381 138.282 5.69712 138.297 6.10911C138.319 6.72007 139.017 7.02053 139.468 7.31798C139.884 7.59029 140.284 8.3409 140.772 8.4836C141.427 8.67955 141.623 9.48949 142.14 9.87737C142.721 10.3125 143.383 10.623 143.949 11.0852C144.428 11.4761 144.575 12.0881 145.026 12.495C145.53 12.9492 145.936 12.7885 146.174 13.4849C146.563 14.6254 148.476 15.6142 149.633 15.3971C150.122 15.3057 150.718 15.1459 151.162 15.3921C151.887 15.794 152.576 15.8754 153.327 16.1839C152.907 15.4353 154.217 16.4713 154.444 16.4713C154.992 16.4713 155.658 17.2923 156.127 17.5626C156.886 17.9997 157.562 17.648 158.293 17.9394C158.511 18.0258 158.425 18.6629 158.592 18.8629C158.781 19.089 159.168 19.2528 159.417 19.3965C160.157 19.8216 159.989 20.1923 160.279 20.8465C160.485 21.3118 161.891 22.4161 162.416 22.3518C162.709 22.3146 162.973 22.184 163.274 22.184C163.725 22.184 164.099 22.4634 164.56 22.4071C165.078 22.3438 166.581 22.4392 166.644 21.8102C166.708 21.1691 167.447 20.6898 168.073 20.7571C168.111 20.7621 168.663 20.9992 168.698 20.8415C168.781 20.4747 168.752 20.3712 169.163 20.2637C169.541 20.1642 170.251 19.501 170.642 19.7572C170.858 19.8979 171.623 20.1692 171.87 20.2034C171.828 20.6365 171.952 20.9892 172.253 21.2977C172.693 21.7489 173.672 22.4453 173.245 23.2039C173.154 23.3647 172.794 23.3979 172.657 23.5366C172.317 23.8812 172.823 24.1365 172.955 24.4158C173.062 24.6429 173.004 24.9112 173.054 25.1504C173.147 25.5905 173.561 25.9633 173.518 26.4276C173.469 26.9672 174.526 27.7661 173.755 28.1509C174.325 28.5689 173.822 28.6825 173.848 29.1729C173.867 29.5356 174.291 29.8281 174.237 30.2089C174.161 30.7334 173.548 30.5405 173.891 31.275C174.013 31.5363 174.183 31.7906 174.229 32.08C174.301 32.5472 171.752 31.7966 171.355 31.7061C171.18 31.6659 170.155 31.2158 170.078 31.3665C169.909 31.7001 169.94 32.299 169.593 32.5C169.316 32.6618 168.738 32.6839 168.547 32.9049C168.362 33.117 169.23 33.6676 169.326 33.7671C170.255 34.7288 170.948 35.8512 171.542 37.038C172.04 38.0338 172.979 38.696 172.891 39.8737C172.854 40.3872 173.203 40.3159 172.608 40.5369C172.132 40.7128 171.649 40.5892 171.362 41.1117C172.155 41.3308 172.014 41.7619 172.577 42.197C171.966 41.7026 171.122 41.5267 170.666 40.8424C170.288 40.2767 169.789 40.1169 169.128 40.1541C169.247 40.561 169.898 41.7247 169.636 42.1226C169.432 42.4321 168.834 42.1116 168.554 42.3497C168.145 42.6964 168.89 43.4119 167.995 43.64C167.193 43.844 166.352 43.654 165.555 43.858C165.974 44.4258 167.353 45.1091 167.173 45.8909C167.077 46.3099 165.4 46.0054 164.974 45.9401C164.576 45.8788 164.161 45.7934 163.811 45.5874C163.399 45.3472 163.003 44.6448 162.46 44.7051C162.176 44.7373 162.127 45.0619 161.786 45.0689C161.812 45.7944 161.872 46.1853 161.632 46.8857C161.526 47.1942 161.476 47.7167 161.194 47.9257C161.049 48.0333 160.372 48.0604 160.414 48.3015C160.47 48.6151 160.188 48.5729 160.044 48.804C159.883 48.9537 159.692 49.0472 159.475 49.0813C159.279 49.1808 159.087 49.6431 158.976 49.6772C158.284 49.8872 157.744 50.6489 157.752 51.4267C157.763 52.3442 156.361 52.3743 155.85 51.8367C155.922 52.321 155.246 52.2668 154.953 52.2507C155.077 52.6064 154.755 52.6717 154.489 52.717C153.938 52.8094 153.537 53.2324 153.104 53.56C152.677 53.8836 152.383 54.0203 152.33 54.6071C152.293 55.0342 151.799 54.994 151.921 55.411C151.71 55.2643 151.477 55.201 151.22 55.2201C151.564 55.6813 150.075 56.8078 149.742 55.7175C149.569 55.1487 150.669 55.1598 150.819 54.994C151.039 54.7548 150.755 54.5549 150.731 54.3157C150.701 54.0173 151.17 53.8605 151.314 53.6555C150.321 54.0956 149.806 53.4194 148.919 53.2727C149.079 53.0466 149.32 52.8797 149.593 52.8255C149.038 51.9884 149.432 52.1241 150.052 51.5051C150.335 51.2207 150.45 50.3726 150.485 49.9847C150.606 48.59 148.45 48.8854 148.282 47.6554C148.384 48.4664 147.553 48.1117 147.123 47.9589C146.581 47.764 145.416 48.3769 146.243 48.7095C145.614 48.8321 145.241 49.8028 145.294 50.3967C145.338 50.8861 143.893 51.4227 143.561 51.6458C143.241 51.8608 142.943 52.0186 142.762 52.3793C142.467 52.9692 143.043 53.2606 142.902 53.7128C142.565 54.785 141.661 54.4252 140.86 54.9146C140.311 55.2492 139.742 54.371 139.139 54.4845C138.265 54.6493 138.702 56.0793 138.903 56.6209C139.255 57.5685 140.323 57.9151 141.085 58.4487C141.325 58.6176 141.897 58.6788 142.169 58.5713C142.623 58.3924 142.728 59.0486 143.113 59.1129C143.219 58.8889 143.219 58.6668 143.113 58.4427C143.761 58.4427 144.647 59.0918 144.952 59.6636C145.37 60.4514 144.775 61.2131 145.637 61.8743C146.215 62.3185 146.921 62.4391 147.625 62.3265C148.119 62.2461 148.717 61.9728 148.153 61.4744C148.426 61.3146 149.697 60.2615 148.76 60.2615C149.298 60.362 149.79 59.8897 150.275 59.743C150.731 59.6053 151.467 60.0826 151.74 60.4162C151.978 60.7067 152.179 60.6725 152.51 60.573C152.699 60.5157 152.93 60.8966 153.027 60.9951C153.469 61.4442 154.218 60.783 154.667 61.2503C154.719 61.1147 154.762 60.977 154.796 60.8353C155.471 61.3116 156.408 60.9569 157.061 61.4422C156.943 61.5045 156.826 61.5678 156.71 61.6331C157.415 62.2049 156.348 62.3657 157.015 62.842C157.284 63.0329 157.249 63.3233 156.896 63.463C156.313 63.6941 156.253 63.1616 156.011 62.8139C155.937 62.9797 155.851 63.1395 155.753 63.2932C155.682 62.8129 155.383 62.9526 155.112 63.1957C154.956 63.3364 153.842 64.1323 154.476 63.453C154.114 63.6871 153.459 64.3071 153.05 64.3805C152.762 64.4327 152.07 64.0479 152.241 64.6337C152.711 64.2217 153.132 64.8377 152.848 65.2728C152.711 64.9362 152.318 64.9141 152.241 65.3039C152.177 65.6356 152.545 65.8285 152.479 66.1701C152.45 66.3269 151.971 66.55 151.828 66.5168C151.376 66.4103 151.566 65.8808 151.185 65.6868C151.618 66.3048 151.014 65.7913 150.676 65.8466C150.685 66.2626 151.199 66.8464 151.633 66.8354C150.728 66.972 151.253 68.5667 150.165 68.3035C150.179 68.7346 150.081 69.642 149.859 70.0148C149.49 70.6328 149.798 71.0408 149.974 71.6557C150.431 71.2186 151.169 71.8426 151.536 72.1119C152.257 72.6455 153.099 72.8435 153.904 73.2103C154.535 73.4977 154.77 74.4482 155.143 74.9748C155.709 75.7737 156.249 76.6971 156.979 77.3523C157.483 77.8045 157.971 78.4828 158.016 79.1631C158.07 79.971 159.293 80.0856 159.877 80.3448C160.39 80.5729 160.161 80.8744 160.41 81.2633C160.602 81.5617 160.916 81.5627 161.212 81.7104C161.698 81.9546 162.783 82.4932 162.454 83.2097C161.762 83.0198 160.999 82.3294 160.244 82.5455C159.231 82.8349 159.267 82.1114 158.402 81.7898C157.533 81.4663 157.159 82.5716 156.427 82.1707C156.065 81.9727 155.862 81.6351 155.63 81.3085C155.343 80.9045 154.93 80.9267 154.54 80.6895C154.737 80.8412 154.812 81.1025 154.695 81.3276C154.875 81.1206 155.066 81.1095 155.272 81.2964C155.151 81.205 155.035 81.1085 154.921 81.009C155.308 80.8643 156.09 81.8843 155.337 81.5517C155.857 81.8994 156.459 82.6701 157.184 82.3405C157.475 82.2079 157.441 81.9255 157.812 81.9446C158.132 81.9617 158.543 82.1024 158.748 82.3626C158.875 82.5244 158.726 82.7203 158.942 82.8279C159.295 83.0037 159.71 83.057 160.077 83.1997C160.87 83.5091 161.554 84.2246 162.318 84.6256C162.74 84.8476 163.659 85.7279 163.631 86.2605C163.619 86.5087 163.101 86.4132 162.961 86.4263C162.419 86.4765 162.125 86.9207 161.724 87.2181C161.457 87.4171 161.128 87.5206 161.07 87.8703C161.045 88.025 161.013 88.4029 160.788 88.4169C160.403 88.4401 160.182 88.0663 159.745 88.2351C159.377 88.3768 159.107 88.7083 158.814 88.9555C159.02 88.855 159.791 88.219 160.013 88.3757C160.438 88.6732 160.446 89.4811 161.083 89.467C160.949 89.3826 160.811 89.3083 160.666 89.2429C161.423 89.3575 161.894 88.4581 162.624 88.6672C163.126 88.8109 163.375 89.2208 163.719 89.5685C164.127 89.9815 165.033 90.071 165.582 90.2006C165.206 90.3774 165.04 90.6618 164.784 90.9663C164.697 91.1281 164.59 91.2778 164.466 91.4135C164.273 91.5642 164.012 91.4838 163.826 91.6687C163.889 91.7923 163.973 91.8988 164.08 91.9872C164.277 91.7089 164.651 91.318 165.006 91.6356C164.821 91.4486 164.858 90.9432 165.226 91.1431C165.633 91.3662 165.276 91.7109 165.472 92.0385C165.476 92.0455 165.862 93.1217 165.449 92.8544C165.219 92.7057 165.244 92.3219 165.038 92.148C165.09 92.358 165.122 92.5711 165.136 92.7861C164.864 92.8575 164.685 92.6856 164.626 92.4344C164.741 93.0263 164.571 92.6505 164.431 92.4344C164.375 92.6917 164.27 92.9258 164.112 93.1368C164.524 93.0534 165.138 93.4443 165.198 93.8704C165.009 93.6704 164.861 93.6905 164.755 93.9337C165.091 93.9106 165.475 94.3778 165.092 94.611C164.616 94.9004 163.947 94.3326 163.541 94.1578C163.756 94.3286 163.886 94.6893 164.148 94.7959C164.518 94.9456 164.77 94.6431 164.997 95.0963C165.106 95.3134 165.706 95.862 165.408 96.1273C165.137 96.3685 164.796 96.3524 164.946 96.8387C164.53 96.6478 164.507 96.0901 164.082 95.9133C163.962 96.1243 163.948 96.1675 163.731 96.264C164.364 96.3494 163.426 98.2325 162.392 96.9664C162.53 97.4316 163.56 97.3412 163.424 97.8798C163.308 98.342 162.834 99.1821 163.411 99.4886C163.087 99.6403 163.094 99.8483 163.139 100.155C163.238 100.815 162.683 100.122 162.87 100.574C162.654 100.385 162.441 100.193 162.232 99.9991C162.222 100.229 163.347 101.025 162.422 100.829C162.586 101.207 162.294 101.554 161.942 101.658C162.328 102.197 162.616 103.154 161.495 102.871C161.833 102.731 161.992 102.384 161.846 102.042C161.693 102.163 161.577 102.312 161.495 102.488C161.281 102.333 161.113 102.107 161.047 101.85C160.914 102.085 160.676 102.228 160.409 102.105C160.574 102.288 160.639 102.501 160.603 102.743C161.126 102.507 161.733 103.424 160.985 103.35C161.014 103.745 161.504 103.956 161.624 103.478C162.019 103.887 161.58 103.868 161.31 104.132C161.034 104.404 160.892 104.781 160.763 105.138C160.418 104.816 159.892 104.635 159.45 104.5C159.797 104.717 160.01 105.325 160.501 105.243C160.988 105.162 161.157 104.654 161.56 105.265C161.234 105.4 161.35 105.935 161.247 106.273C161.076 106.832 161.94 106.849 161.751 107.435C161.65 107.01 161.532 107.01 161.396 107.435C161.197 107.128 160.912 106.867 160.568 106.734C160.545 107.002 160.388 107.238 160.155 107.372C160.386 107.497 160.971 107.578 160.875 107.979C160.737 108.555 160.283 107.725 160.283 108.458C160.211 108.127 159.895 107.558 159.549 108.043C159.989 108.198 159.605 108.85 160.119 108.872C160.006 109.226 159.26 109.768 159.26 109.159C158.908 109.44 158.989 109.515 159.282 109.703C159.647 109.934 159.334 110.489 159.163 110.724C158.975 110.538 158.795 110.347 158.621 110.149C158.511 110.57 157.959 110.837 157.73 110.341C157.487 110.692 156.891 110.471 157.251 110.979C157.008 110.908 156.763 110.897 156.516 110.948C156.739 111.19 157.062 111.283 157.375 111.171C157.312 111.427 157.435 111.577 157.694 111.586C157.604 111.822 157.388 111.821 157.223 111.964C156.965 112.188 157.136 112.613 156.736 112.863C156.879 112.554 156.782 112.436 156.449 112.513C156.577 112.856 156.359 113.162 156.355 113.501C156.321 112.856 155.674 113.533 155.335 113.533C155.265 113.613 155.011 114.726 154.664 114.388C154.36 114.09 154.156 113.937 154.098 114.493C154.034 115.106 153.745 115.251 153.132 115.161C153.498 115.302 153.957 115.293 154.058 115.767C153.648 115.265 153.675 116.048 153.385 115.736C153.256 116.126 153.485 116.623 152.972 116.778C152.636 116.881 152.054 117.011 151.727 116.822C152.206 117.329 150.359 117.586 150.769 116.789C150.492 117.102 150.126 116.971 149.811 116.822C149.874 117.094 150.603 117.456 150.411 117.788C150.293 117.991 150.022 117.819 149.903 117.738C149.533 117.487 149.191 117.526 149.236 117.077C149.039 117.349 148.304 117.793 148.057 117.619C148.62 117.816 148.254 118.247 147.914 118.154C147.515 118.045 147.529 117.565 147.8 117.333C147.421 117.331 147.083 117.528 146.877 117.844C147.305 117.921 146.848 118.358 147.32 118.482C147.226 118.566 147.12 118.629 147.001 118.674C146.8 117.987 145.222 118.05 144.865 118.61C144.818 117.675 143.651 117.432 143.778 116.44C143.652 117.076 143.67 116.696 143.397 116.471C143.608 116.114 143.975 116.054 144.355 116.12C143.862 115.776 143.447 116.471 142.95 116.248C143.659 116.532 142.916 117.083 142.44 116.918C142.619 116.989 143.288 117.238 143.323 117.454C143.253 117.51 143.171 117.513 143.079 117.461C143.477 117.725 144.436 119.001 144.036 119.567C143.608 120.167 142.71 118.433 142.502 118.195C142.474 118.766 143.162 119.278 143.43 119.727C143.192 119.782 143.019 119.964 142.981 120.206C142.746 120.089 142.569 119.871 142.569 119.599C141.989 119.866 142.594 120.525 142.214 120.908C141.777 120.344 141.458 120.798 141.164 121.2C140.964 121.472 140.263 120.891 140.653 120.525C140.379 120.632 140.206 120.499 140.237 120.206C140.184 120.577 140.456 120.96 140.341 121.329C140.194 121.797 138.983 120.95 138.735 120.876C139.31 121.605 138.546 121.27 138.131 121.291C138.852 121.576 137.804 122.664 137.333 121.994C137.257 122.234 137.099 122.473 136.854 122.567C137.091 122.081 136.498 122.377 136.171 122.454C135.768 122.549 135.193 122.681 134.937 123.047C135.01 122.864 135.104 122.694 135.221 122.536C134.956 122.722 134.747 123.043 134.937 123.366C134.246 123.574 134.488 123.082 134.073 122.759C133.909 123.123 134.402 123.361 134.079 123.69C133.851 123.92 133.357 124.157 133.559 124.576C133.674 124.815 134.014 124.828 134.233 124.903C134.537 125.007 134.445 125.69 134.203 124.962C134.249 125.523 135.029 125.814 134.989 126.371C134.921 127.31 133.645 126.85 133.116 127.101C133.144 126.779 132.769 126.263 133.343 126.559C133.226 126.016 132.25 126.126 132.638 125.377C132.189 125.437 132.47 124.796 132.095 124.756C131.857 124.73 131.789 123.837 131.948 123.672C132.261 123.346 131.872 123.12 132.304 122.858C132.965 122.454 132.031 122.222 131.779 121.995C131.837 122.109 131.891 122.226 131.939 122.346C131.446 122.452 131.2 121.72 130.981 121.42C130.824 121.685 130.939 121.934 131.203 122.059C131.017 122.267 130.39 122.813 130.152 122.378C129.761 123.274 129.676 121.92 129.479 121.771C129.247 121.595 128.418 121.965 128.906 121.291C128.793 121.251 128.676 121.219 128.557 121.195C128.527 121.428 128.58 121.641 128.715 121.834C128.327 121.775 128.147 121.037 127.758 121.131C127.934 120.907 127.857 120.689 127.599 120.589C127.496 120.817 127.397 121.14 127.342 120.685C127.258 121.156 127.976 121.448 127.709 121.927C127.581 122.157 127.141 121.621 126.96 121.643C127.082 121.917 126.954 122.176 126.704 122.313C126.691 122.027 125.942 121.929 125.581 121.777C125.076 121.563 124.382 122.233 124.18 121.707C124.075 121.771 123.968 121.835 123.862 121.898C123.713 121.362 123.012 121.411 122.652 121.1C122.521 120.988 122.798 120.825 122.569 120.757C122.241 120.657 121.817 120.194 121.468 120.493C121.196 119.644 120.734 119.004 120.736 118.131C121.536 118.407 121.221 116.434 120.097 116.984C119.641 117.209 119.414 116.816 119.063 116.64C118.637 116.428 118.41 117.048 117.94 116.69C117.238 116.153 116.588 115.853 116.042 115.099C115.809 115.636 115.164 115.697 114.755 116.037C114.494 116.254 114.98 116.688 114.652 117.02C114.383 117.292 112.72 118.1 112.885 117.206C112.309 117.23 112.167 118.577 111.961 118.447C111.669 118.263 111.429 117.968 111.192 117.721C110.688 117.192 110.725 117.764 110.553 118.163C109.933 117.45 109.852 117.296 109.368 118.187C108.923 119.008 108.296 118.134 107.872 117.783C106.953 117.021 106.801 118.116 106.411 118.711C106.201 119.031 105.924 118.659 105.675 118.683C105.506 118.697 105.341 118.728 105.179 118.777C104.961 118.842 105.014 118.483 104.824 118.483C103.989 118.483 104.394 120.094 104.601 120.403C104.835 120.753 105.135 121.087 105.26 121.496C105.35 121.626 105.432 121.761 105.508 121.898C105.538 122.13 105.339 122.334 105.348 122.568C105.356 122.816 105.872 123.338 105.635 123.557C105.319 123.855 104.952 123.18 104.557 123.3C103.954 123.483 103.885 123.526 103.638 122.903C103.425 122.367 103.092 121.847 103.052 121.258C102.511 121.659 101.584 122.782 100.871 122.323C100.53 122.104 100.454 122.612 100.17 122.553C99.8775 122.491 99.7861 121.85 99.9217 121.642C98.8073 121.627 99.6263 120.533 99.0325 120.239C98.3833 119.918 97.5834 119.959 96.9021 120.054C96.0248 120.178 96.7192 118.911 96.7745 118.602C96.8549 118.147 96.3293 116.852 97.1764 116.885C96.9493 116.213 96.5213 116.151 95.8691 116.151C95.01 116.151 95.0863 115.454 94.7316 114.906C94.6994 114.856 94.401 114.525 94.4593 114.441C94.7567 114.012 94.1508 113.717 93.9689 113.399C93.6624 112.863 94.4371 112.632 94.3035 112.098C93.5287 112.669 92.5661 111.944 91.7632 112.395C91.5773 112.5 90.487 113.363 90.2971 113.212C89.9082 112.906 90.3182 112.585 90.4448 112.27C90.5704 111.957 90.3554 111.461 90.1845 111.202C89.9203 110.803 89.7605 110.856 89.66 110.283C89.5847 109.856 89.7666 109.546 90.2218 109.511C89.8761 108.947 90.1876 108.505 90.1554 107.915C90.904 108.592 90.9543 106.841 91.0196 106.606C92.119 106.684 91.3261 106.216 92.0395 105.68C92.1521 105.596 92.549 105.819 92.5742 105.624C92.6244 105.235 92.135 104.95 92.0094 104.626C92.6656 104.883 92.328 103.7 92.328 103.377C92.328 102.673 92.1249 101.854 91.8878 101.194C91.6989 100.668 91.5662 100.119 91.4477 99.574C91.308 98.9319 90.9332 98.8354 90.3463 98.5621C90.477 98.8173 90.3413 99.0163 90.0941 99.1047C89.865 98.6445 89.435 98.1813 89.2872 97.6969C89.1566 97.2688 89.1717 96.9011 88.8149 96.5815C88.2261 96.0519 87.3136 95.8429 86.8032 95.2752C86.7891 95.7103 86.765 96.9694 86.0556 96.273C85.6687 95.8952 85.4405 96.2378 85.0557 96.063C84.703 95.9032 84.2699 95.5897 83.869 95.5937C83.4982 95.5977 83.3545 96.073 82.9585 95.9133C82.6752 95.7997 82.9063 95.3907 82.9957 95.233C83.1364 94.9848 83.4047 94.7275 83.4761 94.4542C83.5886 94.0151 82.7827 93.8141 82.9425 93.2624C82.6591 93.3438 82.3607 93.7337 82.0391 93.6603C81.3186 93.4955 82.1195 92.8293 82.3667 92.7208C82.0783 92.4585 81.6904 92.1068 81.3729 91.8787C81.0583 91.6526 80.1248 92.354 79.8655 92.5339C79.5983 92.7218 79.7289 93.1348 79.4747 93.3086C79.2466 93.4644 78.8306 93.2664 78.6316 93.183C78.5552 93.1509 77.6056 92.5711 77.9955 93.0394C77.7031 92.8675 77.2529 92.5158 76.9404 92.4324C76.5806 92.3359 76.2983 92.6384 75.9466 92.8454C75.4401 93.1448 75.1678 93.7046 74.795 94.1377C74.3237 94.6853 73.8675 94.6723 73.2083 94.7878C72.4798 94.9144 72.7641 95.4068 72.4466 95.857C72.1552 96.27 71.4398 96.4559 71.3121 96.9463C71.1453 97.5864 71.1372 98.0546 70.273 98.0858C69.7163 98.1059 69.3074 98.4495 68.7608 98.3762C68.3588 98.3229 68.0594 98.2817 68.0443 97.8406C68.0322 97.4467 67.0112 97.1312 66.6696 97.089C66.1501 97.0247 66.1501 97.6246 65.5633 97.3472C65.0427 97.102 64.5504 97.107 63.9856 97.099C63.4269 97.091 63.7937 96.469 63.2962 96.3202C62.6612 96.1313 62.1035 96.1705 61.5408 96.5443C60.9489 96.9382 60.4947 97.5623 60.1892 98.1953C59.9581 98.6767 59.4898 99.4383 59.4496 99.9669C58.508 99.5047 59.1632 98.4938 58.8728 97.7321C58.4196 96.5453 57.3122 97.4829 56.4792 97.5412C56.5003 97.6587 56.5214 97.7753 56.5445 97.8929C55.823 97.6838 54.8061 97.9532 54.0424 97.9371C53.3521 97.922 52.9109 97.6577 52.2718 97.3342C52.0487 97.2216 51.6699 96.9804 51.4046 97.096C51.1675 97.1995 51.3212 97.5803 51.067 97.6266C50.6811 97.6959 49.9225 97.1452 49.9044 96.7433C49.8119 96.8186 49.7938 98.131 49.4673 97.5864C49.1347 97.0317 48.4192 96.7051 48.2101 96.073C48.0986 96.5895 46.3662 96.3735 46.2396 95.9183C46.1723 95.6751 46.4225 95.246 46.2255 95.045C46.0226 94.837 45.4096 95.3053 45.0569 95.0943C44.4951 94.7577 43.2341 94.3346 43.011 93.6764C42.7377 92.8655 41.9016 91.9792 41.0495 92.8313C40.742 93.1388 39.7542 91.8194 39.5964 91.6305C39.1593 91.108 38.2971 90.9985 37.649 90.6046C36.6401 89.9906 35.7407 89.3083 34.8745 88.5325C34.5439 88.2361 34.0897 88.2793 33.6908 88.1517C33.2607 88.013 33.2567 88.5586 32.7944 88.3818C32.9703 89.5434 32.3151 89.6911 31.6389 88.9475C31.0329 88.2833 30.2712 87.9728 29.4302 87.7427C29.2513 87.6944 28.8343 87.6412 28.7077 87.4884C28.5127 87.2513 28.8744 86.8694 28.4504 86.7006C28.1298 86.573 27.9691 86.5358 27.6907 86.2796C27.2114 85.8394 26.8959 86.157 26.3844 86.0062C25.6127 85.7792 25.3021 84.9481 24.7866 84.4407C24.2661 83.9292 23.7044 85.3812 23.3778 84.3593C23.2633 83.9995 23.4019 83.6348 23.1879 83.2991C22.9698 82.9585 22.8854 82.6801 22.8201 82.2872C22.7498 81.8652 22.3267 81.6079 22.0353 81.3477C21.6032 80.9628 21.7027 80.372 21.3369 79.9539C22.2071 79.3058 22.377 79.7781 22.8784 80.378C23.1256 80.6724 23.4974 80.7257 23.6953 80.3941C23.9425 79.9801 24.3717 80.0132 24.6359 79.6545C24.9615 79.2113 24.5234 78.7772 24.2631 78.4707C24.0571 78.2266 24.1616 77.5573 23.9074 77.4819C22.8693 77.1684 22.9327 77.2408 22.1931 76.4901C21.357 75.642 21.2535 74.1187 21.2837 73.9096C21.2998 73.8051 22.4071 73.4785 21.4706 73.1771C20.6596 72.9168 20.0286 72.2878 19.2699 71.8286C18.2218 71.1965 18.5565 69.7324 16.817 68.7135C15.7891 68.7587 12.687 68.5457 12.6217 67.0595C12.3162 67.1378 11.8781 67.6292 11.5515 67.3358C11.2973 67.1067 10.618 66.7047 10.4844 66.4093C10.3618 66.137 10.3929 65.5954 10.3095 65.2788C10.1949 64.8437 9.97989 64.494 9.6503 64.1855C9.18605 63.7524 8.38619 63.9956 8.09779 63.5505C7.78427 63.0691 6.76129 62.4883 6.36638 63.1957C6.04884 62.425 5.16355 62.9927 4.86008 62.431C4.46115 61.6904 5.85191 62.0029 6.05389 61.9668C6.88692 61.816 6.55733 61.0433 6.08403 60.7519C5.68409 60.5057 5.87301 60.3761 5.85894 59.9882C5.85291 59.8143 5.55445 59.2938 5.47506 59.1079C5.36151 58.8456 5.04198 58.8175 4.93948 58.5251C4.81789 58.1814 4.93143 57.8136 4.86008 57.4629C4.72744 56.8158 3.64521 56.6399 3.11263 56.5224C2.40521 56.3676 1.90578 57.3122 1.36616 56.6329C1.19132 56.4129 0.455754 55.41 1.1672 55.405C0.939096 55.0844 0.63061 54.8382 0.354271 54.5619C0.0899907 54.2976 0.201526 53.8213 0.0849609 53.4927Z" fill="#1487C0"/>
</svg>
