<svg width="371" height="190" viewBox="0 0 371 190" fill="none" xmlns="http://www.w3.org/2000/svg">
<line x1="-4.37114e-08" y1="8.91333" x2="371" y2="8.9133" stroke="white" stroke-opacity="0.3"/>
<line x1="-4.37114e-08" y1="39.3687" x2="371" y2="39.3686" stroke="white" stroke-opacity="0.3"/>
<line x1="-4.37114e-08" y1="72.5928" x2="371" y2="72.5927" stroke="white" stroke-opacity="0.3"/>
<line x1="-4.37114e-08" y1="91.9731" x2="371" y2="91.9731" stroke="white" stroke-opacity="0.3"/>
<line x1="-4.37114e-08" y1="130.734" x2="371" y2="130.734" stroke="white" stroke-opacity="0.3"/>
<line x1="-4.37114e-08" y1="175.033" x2="371" y2="175.033" stroke="white" stroke-opacity="0.3"/>
<line x1="-4.37114e-08" y1="22.7568" x2="371" y2="22.7568" stroke="white" stroke-opacity="0.3"/>
<line x1="-4.37114e-08" y1="53.2119" x2="371" y2="53.2119" stroke="white" stroke-opacity="0.3"/>
<line x1="-4.37114e-08" y1="111.354" x2="371" y2="111.354" stroke="white" stroke-opacity="0.3"/>
<line x1="-4.37114e-08" y1="144.578" x2="371" y2="144.578" stroke="white" stroke-opacity="0.3"/>
<line x1="-4.37114e-08" y1="161.19" x2="371" y2="161.19" stroke="white" stroke-opacity="0.3"/>
<line x1="13.3433" y1="189.376" x2="13.3432" y2="-4.57602e-05" stroke="white" stroke-opacity="0.3"/>
<line x1="76.4688" y1="189.376" x2="76.4687" y2="-4.57601e-05" stroke="white" stroke-opacity="0.3"/>
<line x1="144.854" y1="189.376" x2="144.854" y2="-4.57602e-05" stroke="white" stroke-opacity="0.3"/>
<line x1="185" y1="189.376" x2="185" y2="-4.57429e-05" stroke="white" stroke-opacity="0.3"/>
<line x1="264.737" y1="189.376" x2="264.737" y2="-4.57601e-05" stroke="white" stroke-opacity="0.3"/>
<line x1="356.657" y1="189.376" x2="356.657" y2="-4.57602e-05" stroke="white" stroke-opacity="0.3"/>
<line x1="41.8604" y1="189.376" x2="41.8603" y2="-4.57602e-05" stroke="white" stroke-opacity="0.3"/>
<line x1="105.263" y1="189.376" x2="105.263" y2="-4.57601e-05" stroke="white" stroke-opacity="0.3"/>
<line x1="225.145" y1="189.376" x2="225.145" y2="-4.57602e-05" stroke="white" stroke-opacity="0.3"/>
<line x1="293.531" y1="189.376" x2="293.531" y2="-4.57601e-05" stroke="white" stroke-opacity="0.3"/>
<line x1="328.139" y1="189.376" x2="328.139" y2="-4.57602e-05" stroke="white" stroke-opacity="0.3"/>
</svg>
