<svg width="415" height="127" viewBox="0 0 415 127" fill="none" xmlns="http://www.w3.org/2000/svg">
<path d="M0.232422 27.4559C0.82228 27.2439 1.67745 27.1966 2.15878 26.7646C2.5145 26.443 2.03516 26.1234 2.6622 25.9968C3.20482 25.8873 4.59255 25.8813 4.18759 24.9668C4.64883 25.1668 5.14224 25.417 5.66276 25.2824C6.17022 25.1517 5.98429 24.7528 5.65972 24.5197C6.11694 24.6041 6.72187 24.6855 7.12885 24.9186C7.25044 24.9889 7.73177 24.6995 7.76594 24.5197C7.8212 24.2343 8.31057 24.3519 8.49748 24.3277C8.39096 24.2323 8.28445 24.1368 8.17794 24.0404C8.61204 23.8746 9.20794 24.182 9.58275 24.373C10.1384 24.6563 10.7253 24.5066 11.2769 24.7428C11.1594 25.614 9.12051 25.1196 8.75474 24.6795C8.67033 24.7729 8.60601 24.8794 8.56381 24.998C8.98686 25.1678 9.43603 25.2643 9.84099 25.4773C9.61289 25.5396 9.39082 25.615 9.17075 25.7004C9.49432 25.6773 9.76763 25.4703 10.0992 25.5004C10.472 25.5336 10.8358 25.628 11.2096 25.6371C11.1433 25.7587 11.0689 25.8752 10.9886 25.9878C11.3784 25.7295 11.9944 25.4884 12.3632 25.9245C12.0547 26.0923 11.912 26.1546 12.3632 26.244C11.7623 26.3304 12.1843 26.4581 12.4255 26.5314C12.1632 26.7133 11.2367 26.7073 11.498 27.2338C11.7985 26.6088 12.7119 26.857 12.7441 26.02C13.1842 26.1767 13.6706 26.0199 14.1207 26.031C14.6181 26.0441 15.1085 26.2671 15.5999 26.3465C16.7404 26.5334 17.7533 26.1787 18.9069 26.6349C20.1982 27.1464 21.5507 27.5594 22.8812 27.9593C24.0247 28.302 24.9593 29.1592 26.15 29.3712C26.0365 29.2717 25.9199 29.1762 25.8003 29.0838C26.7298 29.6043 27.9507 30.2705 29.0541 30.1369C28.9747 30.0163 28.8903 29.8987 28.8019 29.7852C29.3003 29.951 29.8128 30.2816 30.1997 30.6343C30.6378 31.0322 31.1834 30.9619 31.6849 31.2121C32.137 31.4402 32.331 31.2865 32.5239 31.8462C32.6003 32.0682 32.8696 32.8159 33.0927 32.8722C34.192 33.1525 33.5318 34.2157 32.9299 34.7643C32.0215 35.5913 31.2658 36.0586 30.0579 36.345C28.7355 36.6585 27.5568 36.8333 26.1872 36.6937C24.6638 36.5389 23.2771 36.0284 21.7326 35.9611C20.4273 35.9038 19.2637 35.6767 18.0799 35.1271C17.8257 35.0095 16.7656 35.1753 16.7324 35.117C16.436 34.5995 15.626 34.9522 15.7446 34.3815C15.5085 34.7482 15.1427 34.691 14.8402 34.4468C14.6342 34.282 14.0715 34.5322 13.7771 34.4307C13.5299 34.3453 11.5975 33.3625 12.5531 33.3264C12.0758 33.3454 11.5462 33.3133 11.0991 33.1354C10.677 32.9676 10.2078 33.2028 9.77466 33.1354C10.3816 33.3907 11.0659 33.2851 11.6276 33.678C11.5251 33.7996 11.4196 33.9162 11.3081 34.0298C11.6397 33.9745 13.1319 34.5965 12.2969 34.5091C12.74 34.6568 13.2857 34.5483 13.6706 34.8598C13.2937 34.703 12.9933 35.0527 12.6164 34.9874C13.1088 35.11 13.7389 34.7603 14.1489 35.1793C13.7509 35.0698 13.2817 35.0477 12.9028 35.2436C13.3108 35.3351 14.2554 35.4506 14.6593 35.3703C14.805 35.9018 14.2463 35.8023 13.9238 35.9139C15.0251 35.9712 16.3525 36.14 17.3112 36.7379C17.5353 36.8776 18.919 38.1417 18.0116 37.9246C18.4688 38.5607 17.1775 38.9104 17.4408 39.1847C17.7001 39.4571 18.8245 39.8701 18.3613 40.3825C18.8316 40.4459 18.8346 41.0849 19.2878 41.1161C19.1581 41.1844 19.0305 41.2598 18.9069 41.3402C19.0245 41.4125 19.1411 41.4869 19.2566 41.5633C19.1622 41.6708 19.0667 41.7763 18.9702 41.8818C19.4023 42.0235 19.8143 42.2817 20.2223 42.4807C20.7287 42.7259 21.0563 42.2827 21.5839 42.54C21.7688 42.5902 21.9175 42.6907 22.0321 42.8405C22.3034 43.2082 22.2662 42.7641 22.5124 42.9038C22.9716 43.164 23.2681 43.6323 23.7886 43.7981C24.4227 44.0001 25.0939 44.0573 25.736 44.2513C26.346 44.4362 26.4615 43.9629 26.8876 44.0051C28.4502 44.1619 27.0735 43.1419 27.4292 42.6807C26.9891 42.548 26.6967 42.2215 26.2033 42.3692C25.8214 42.4827 25.3522 42.531 25.0185 42.2637C24.3041 41.6929 23.4168 41.293 22.8621 40.5423C23.5997 40.5805 23.6368 40.4046 23.8961 39.8851C24.1373 39.4028 24.8628 39.7676 25.2245 39.8409C26.1792 40.0308 26.8464 41.0769 27.9075 40.7654C27.7297 40.9593 27.4714 41.0739 27.2071 41.0528C27.3468 41.6698 27.8824 41.091 28.3336 41.0508C29.047 40.9875 29.7716 41.2186 30.4217 41.4889C31.0407 41.7462 31.3321 41.715 31.9602 41.5683C32.3722 41.4718 33.2987 41.7582 33.7147 41.8838C33.4323 41.2176 32.9922 40.6418 32.4506 40.1655C32.0878 39.8449 30.9252 39.3405 30.8649 38.835C30.8026 38.3095 31.7461 38.0633 32.0687 37.8573C32.6576 37.4815 33.0685 37.0383 33.775 36.8776C34.4703 36.7198 35.0491 36.554 35.5455 36.0103C35.9495 35.5682 36.3394 35.101 37.0066 35.2969C37.6859 35.4959 38.0065 35.52 38.7089 35.5511C39.156 35.5712 40.1097 35.7139 40.2262 36.2646C39.969 36.3168 39.7449 36.4334 39.557 36.6163C39.6595 36.7138 39.776 36.7871 39.9067 36.8404C39.8735 36.3932 40.4463 36.349 40.7568 36.4022C41.3396 36.5017 41.5315 37.0826 41.9516 37.4152C41.4451 36.7771 40.9969 35.1271 42.1415 34.7653C41.626 34.6307 41.7999 33.9986 41.5034 33.6801C40.9769 33.1153 40.4181 33.2269 39.7901 32.9686C39.352 32.7887 39.5912 32.2501 39.7137 31.9396C39.8102 31.6985 39.9218 31.4503 39.9479 31.189C39.981 30.8674 39.5881 30.6735 40.1338 30.6474C39.8725 30.4735 39.6856 30.2786 40.1639 30.2002C39.6203 30.1339 40.0574 29.534 39.6424 29.2828C38.953 28.8647 37.9884 28.5844 37.2247 28.3492C37.6467 27.8759 38.6064 28.3894 39.0797 28.513C40.0534 28.7683 41.1899 28.3924 42.1998 28.4849C43.1675 28.5733 43.6599 28.8697 44.4356 29.3641C45.1441 29.8163 46.0605 30.0605 46.4203 30.9026C45.327 31.2211 44.1513 30.8765 43.068 31.2543C43.1112 31.3719 43.1534 31.4874 43.1966 31.605C42.7866 31.7065 42.0993 31.9718 42.5545 32.4883C42.9253 32.9093 43.5915 32.7536 44.0568 32.9777C44.4929 33.1887 44.6929 33.6791 45.0868 33.9413C45.6445 34.3121 46.4394 34.0549 47.0573 34.0941C46.9659 34.2046 46.8694 34.3111 46.7689 34.4126C47.1538 34.0991 47.8361 34.1513 48.3034 34.073C48.5998 34.0227 49.2771 34.0991 49.5182 33.9664C50.1352 33.6258 49.4298 33.3093 49.5414 32.8862C49.6609 32.43 50.0126 32.021 49.4198 31.7326C49.7182 31.4442 50.085 31.7909 50.4679 31.5085C50.8698 31.2121 52.1379 31.3347 52.5459 31.5728C52.1741 31.2463 51.742 30.8835 51.2718 30.7117C52.3912 30.9468 53.0795 30.4183 54.0944 30.149C54.8119 29.958 55.5455 29.1451 56.4006 29.0848C56.8538 29.0516 57.4035 29.1582 57.8094 28.8979C58.1963 28.6507 58.7942 28.4437 59.2524 28.5984C59.6835 28.7451 59.2886 28.9331 59.4313 29.2405C59.5861 29.5762 60.4362 28.9672 60.6542 28.924C60.3728 28.6547 60.0181 28.3924 59.6041 28.4135C60.5477 27.2569 63.0096 27.0248 64.3592 27.073C63.7552 27.469 63.0016 27.1685 62.3474 27.3604C62.6891 27.481 63.0579 27.4659 63.4015 27.5845C62.476 27.6689 63.5603 28.719 63.6859 28.925C63.3412 29.3109 62.1947 28.7773 62.1887 29.532C62.7715 29.6395 64.114 29.8475 64.5501 29.3079C64.525 29.8766 65.0073 29.5098 65.2666 29.3812C65.571 29.2295 65.9248 29.8957 66.3378 29.7229C66.0122 28.0046 69.6709 28.1091 70.6627 28.3673C70.9853 28.4507 71.3169 28.5643 71.6495 28.4578C71.9922 28.3492 72.1941 27.9915 72.5629 27.9865C72.794 27.9845 73.1477 27.9674 73.0975 27.681C73.0252 27.272 74.0742 27.8187 74.1265 27.8398C74.031 27.7403 73.9456 27.6338 73.8692 27.5212C74.433 27.0027 75.2258 27.1866 75.9122 27.0741C75.053 27.1504 76.6246 27.7423 76.8698 27.9041C75.8298 28.1694 76.4678 28.9813 77.1913 29.1009C77.4797 29.1491 78.359 29.3923 78.5379 28.9913C78.6625 28.71 78.0867 28.3603 77.8887 28.2869C78.2022 27.8237 80.9918 28.2477 80.0874 26.8138C79.8131 26.3797 79.3589 26.8148 79.0041 26.3174C78.6273 25.7908 77.9842 25.5416 77.4446 25.2221C77.6466 24.8563 77.8304 25.0995 78.1148 24.9357C78.2304 24.9246 78.3469 24.9136 78.4645 24.9035C78.4916 24.7679 78.5308 24.6362 78.5861 24.5086C78.9639 24.1991 79.4362 24.3388 79.8563 24.4463C80.5546 24.6252 81.2942 24.6413 82.0127 24.6604C83.2889 24.6965 84.5792 24.7397 85.8342 24.989C87.1456 25.2482 88.3886 25.7808 89.699 26.0511C89.0187 26.2089 89.6256 26.8831 89.8095 26.435C89.9833 26.0129 91.5469 26.5797 91.9649 26.6259C91.0626 26.6088 92.7417 27.0449 92.9668 27.0881C93.5526 27.2037 94.1395 27.3393 94.7314 27.4187C96.0648 27.5976 97.2646 28.5653 98.6031 28.8989C98.6855 28.919 100.729 30.2866 100.257 29.1712C100.133 28.8788 100.385 28.5 100.48 28.2347C100.682 27.679 99.9738 27.4127 100.521 27.3584C100.192 27.0891 99.8833 27.3655 99.5326 27.3584C99.1166 27.3494 98.79 27.0771 98.4464 26.8791C98.1409 26.7033 97.8314 26.5334 97.541 26.3315C97.1501 26.0571 97.2395 25.6652 96.9792 25.3155C96.6064 25.617 95.9322 25.3798 95.5362 25.2643C95.07 25.1266 94.0078 24.5257 93.9465 25.1568C93.3426 25.0221 93.3527 24.3267 93.2421 23.8484C93.4049 23.8665 94.3616 23.9218 94.1043 23.5198C93.9646 23.3028 93.7647 23.2475 93.5607 23.1269C93.3868 23.0234 93.3738 22.5119 93.2994 22.3542C93.0271 21.7774 93.1095 21.0157 92.183 21.2689C91.7881 21.3764 90.7229 21.1132 91.4535 20.6559C90.6365 20.8408 91.2233 19.7586 91.7619 19.63C92.4503 19.4642 93.2864 19.1486 93.7355 18.5708C94.3294 17.8071 93.5918 16.5199 93.6642 15.6678C93.6943 15.308 93.8752 14.9232 94.1696 14.7051C94.4208 14.5182 95.3272 14.6167 94.5846 14.7825C95.7784 14.9774 96.8948 14.7755 98.0786 14.7061C98.7086 14.6689 99.3377 14.685 99.9315 14.9061C100.424 15.09 100.941 14.9393 101.456 15.0357C102.209 15.1794 103.449 16.0054 103.484 16.8616C103.498 17.2022 103.458 17.779 103.215 18.0503C103.051 18.2352 103.369 18.4754 103.198 18.7206C103.055 18.9286 102.713 18.9346 102.504 19.0271C103.376 20.3615 105.601 19.8229 106.239 21.4076C106.39 21.7824 106.314 21.9311 106.6 22.2326C106.936 22.5873 106.298 22.5773 106.414 22.9621C106.576 23.5027 107.668 23.9961 107.697 24.589C107.721 25.0965 107.924 25.1226 108.182 25.5054C108.131 26.023 108.587 25.8964 108.381 26.3576C108.01 27.1926 110.472 27.8709 110.895 28.0277C111.23 28.1513 111.661 28.1824 111.95 28.4105C112.448 28.8034 112.036 28.9441 111.851 29.3682C111.705 29.7058 111.695 29.7942 111.922 30.0475C112.274 30.4394 112.131 30.9619 112.428 31.2513C111.303 31.4151 111.603 32.4943 110.831 32.8149C110.942 32.9274 111.06 33.0349 111.182 33.1344C110.952 33.0882 110.73 33.1083 110.513 33.1977C111.474 33.4007 109.928 33.876 109.684 33.9062C108.985 33.9896 108.328 34.4488 107.637 34.6186C106.936 34.7914 106.529 34.279 105.867 34.2579C105.157 34.2358 104.333 33.9876 103.651 34.283C104.404 34.5252 104.66 35.1964 105.557 35.3009C106.417 35.4014 107.246 35.6737 108.111 35.7471C109.026 35.8255 109.921 35.6637 110.834 35.8305C111.295 35.9139 111.742 36.2274 112.221 36.2103C112.515 36.2003 112.951 35.8204 112.858 35.526C112.604 34.7241 113.327 35.0105 113.822 34.6377C114.343 34.2438 115.321 34.3342 115.49 33.5494C115.658 32.7676 115.088 32.2351 116.033 31.7788C117.552 31.0463 115.642 29.7922 114.883 29.3712C114.305 29.0516 114.503 28.8698 114.268 28.3512C113.946 27.6428 115.139 27.671 115.582 27.5685C116.472 27.3615 117.679 26.9203 118.593 27.1705C119.148 27.3223 119.648 27.9483 120.236 28.1784C120.949 28.4588 121.399 28.4688 121.808 29.1833C121.996 29.5169 122.145 29.8726 122.296 30.2243C122.421 30.5127 122.888 31.0161 122.257 30.8323C123.406 32.2652 125.901 31.4874 127.395 31.7899C127.171 31.6522 126.818 31.3558 126.552 31.5467C126.271 31.7467 126.282 31.4553 126.025 31.4392C125.246 31.39 124.508 31.2412 123.739 31.1448C123.3 31.0895 122.843 30.3479 122.91 29.9249C122.967 29.5581 123.962 29.6465 123.748 29.3702C123.499 29.0486 123.08 28.913 122.771 28.6627C122.183 28.1834 122.081 27.5413 121.281 27.3323C120.505 27.1293 119.812 26.9655 119.059 26.6872C118.397 26.442 117.522 26.5073 116.804 26.3264C115.963 26.1144 115.47 26.4209 114.671 26.5987C113.89 26.7726 112.912 26.8128 112.117 26.7515C111.536 26.7073 111.483 25.8481 111.096 25.5115C110.509 25.001 109.989 24.9075 109.9 24.0494C109.867 23.7359 109.781 23.4324 109.868 23.1179C109.94 22.8486 110.375 22.4285 110.349 22.1803C110.304 21.7824 109.546 21.4297 109.256 21.2569C108.052 20.5364 106.903 19.7435 105.532 19.3747C105.753 19.1788 106.03 18.9597 106.139 18.6723C106.213 18.4754 106.129 18.1729 106.297 18.0222C106.862 17.5198 107.763 17.6665 108.415 17.3439C109.72 16.6988 107.479 15.3221 106.967 14.9694C108.151 14.3695 110.354 16.0305 110.17 17.2625C110.045 18.1046 110.117 18.2151 110.732 18.6784C111.019 18.8934 111.586 19.3898 110.834 19.3104C111.381 19.9134 112.516 19.9003 113.259 19.9807C113.949 20.056 115.186 19.6762 115.623 20.4279C115.68 19.0713 120.282 22.2356 120.823 20.6188C120.388 20.88 119.95 20.7152 119.484 20.8097C119.483 20.6931 119.483 20.5766 119.484 20.459C118.943 20.674 118.785 20.1666 118.418 19.9103C118.106 19.6913 117.564 20.0571 117.472 19.5335C116.928 20.2048 115.387 19.4642 114.752 19.2913C114.29 19.1657 113.809 19.1326 113.35 18.9909C112.688 18.7869 112.249 18.194 111.726 17.778C112.563 17.6233 113.327 17.3077 114.186 17.5549C115.071 17.8092 116.033 18.4543 116.899 17.778C116.598 17.3278 115.978 17.0947 115.452 17.1902C115.138 17.2474 114.365 17.4595 114.598 16.8525C115.122 17.147 115.873 16.3863 116.398 16.328C116.95 16.2667 117.878 16.2647 118.645 16.3772C119.429 16.4938 120.159 16.7812 120.948 16.8797C121.364 16.9309 121.785 16.9761 122.188 17.0947C122.376 17.15 123.388 17.6072 122.484 17.4273C123.306 17.6102 124.05 18.0242 124.856 18.2563C125.864 18.5467 126.928 18.4804 127.94 18.2573C127.745 17.9127 127.391 17.7227 127.043 17.564C126.636 17.3771 126.458 17.2123 126.118 16.9801C125.227 16.3732 124.128 16.534 123.122 16.4023C122.343 16.3008 121.295 16.0044 121.045 15.1513C120.818 14.3785 119.953 13.8359 119.1 13.8841C119.931 13.8731 118.976 13.4721 118.745 13.4681C118.96 13.3465 119.766 12.8119 119.033 12.9576C119.671 12.1708 121.908 12.415 122.79 12.415C124.385 12.415 126.137 12.4643 127.705 12.1779C128.345 12.0613 128.894 12.3246 129.519 12.2824C130.017 12.2482 130.357 11.8181 130.91 11.7769C131.549 11.7287 132.992 12.0593 133.495 11.6805C133.281 11.5699 133.099 11.4212 132.95 11.2343C133.173 11.2343 133.396 11.2343 133.619 11.2343C132.87 11.165 132.246 10.7952 131.524 10.6756C130.951 10.5801 130.195 10.7711 129.758 10.2767C130.009 10.2857 130.253 10.3289 130.493 10.4043C130.294 10.2244 130.06 10.1169 129.793 10.0847C130.238 10.137 130.666 9.98826 131.103 10.147C131.271 10.1953 131.42 10.2767 131.551 10.3922C131.735 10.543 132.113 10.2365 132.311 10.2435C132.12 10.0455 131.797 10.0104 131.542 9.97419C131.376 9.95209 130.09 9.73905 131.004 9.70087C130.523 9.66268 130.042 9.66469 129.564 9.59435C129.334 9.56018 129.091 9.51496 128.88 9.40945C128.183 9.05875 129.561 9.17632 128.676 8.90299C129.495 8.75126 130.256 9.82749 131.069 9.41348C130.881 9.22255 130.622 8.95625 131.193 9.15823C130.7 8.7804 131.493 8.44981 130.842 8.36037C131.221 8.25787 131.535 8.51914 131.898 8.5523C131.93 7.96043 130.315 8.22069 129.983 7.91421C130.788 7.68108 131.614 8.25084 132.396 7.99158C133.008 7.7886 133.328 7.09424 134.035 7.11534C133.147 7.02993 134.662 7.06911 134.803 7.05203C135.1 7.01585 136.071 6.95054 135.729 6.63702C137.196 6.48931 138.692 6.28732 140.157 6.20291C141.422 6.13056 142.835 6.11649 143.996 5.55075C143.535 5.64119 143.086 5.62611 142.621 5.58291C142.394 5.5618 140.917 5.57185 141.824 5.71052C141.57 5.74871 140.847 5.4382 141.361 5.20809C141.917 4.95989 142.646 5.45831 143.291 5.19906C143.045 5.19906 142.811 5.14579 142.591 5.03927C144.472 5.27341 146.387 4.62025 148.239 5.19906C147.989 5.35984 147.766 5.55176 147.569 5.77383C147.932 5.73163 148.304 5.64221 148.649 5.5176C149.091 5.35682 149.355 5.67937 149.772 5.71052C150.199 5.74268 150.516 5.40002 150.952 5.48744C151.327 5.56281 151.782 5.49548 152.136 5.35982C151.915 5.28546 151.691 5.23221 151.461 5.20005C151.589 5.15383 153.217 5.16991 152.136 4.97697C153.805 4.53684 154.885 5.15082 156.538 5.26336C155.623 4.35798 154.117 4.78605 153.187 3.92287C154.52 4.05652 155.929 4.24443 157.245 3.88368C157.607 3.78419 158.244 4.09571 158.668 4.0726C159.407 4.0314 160.137 4.27357 160.878 4.27357C160.479 4.18614 157.427 3.85252 157.464 3.66662C157.548 3.23754 157.112 3.18227 156.792 3.11193C156.22 2.98532 156.049 2.33116 156.697 2.51807C156.586 2.41657 156.48 2.30904 156.378 2.19851C156.67 1.97744 156.979 1.77948 157.274 1.56042C157.084 1.50817 156.893 1.46596 156.698 1.4338C157.417 1.5564 157.98 0.878108 158.656 0.766567C159.476 0.63292 160.209 0.465114 161.029 0.585698C161.844 0.705278 162.631 0.766578 163.456 0.928362C164.399 1.11326 165.357 0.998703 166.212 1.52827C165.65 1.45491 165.232 1.77043 164.722 1.92116C163.99 2.1352 163.204 1.98949 162.476 2.26282C163.764 2.22463 165.061 2.33819 166.341 2.13621C166.325 2.40954 166.119 2.58439 165.859 2.61554C167.144 2.504 168.704 2.15228 169.973 2.53815C170.873 2.81148 170.032 3.94799 169.499 3.89272C170.219 4.13691 171.067 3.91081 171.813 3.88368C172.175 3.87061 173.242 3.78419 172.531 3.28578C173.513 3.1863 174.478 3.34104 175.47 3.22649C176.369 3.12298 177.306 3.25161 178.213 3.21342C178.887 3.18529 182.647 3.35713 182.683 4.30673C183.057 3.8666 183.888 4.23538 184.284 4.44841C184.545 4.58909 185.339 4.97496 185.427 5.26436C185.656 4.86945 186.046 4.9629 186.416 5.04128C186.092 4.89457 185.733 4.84232 185.427 4.65843C186.261 4.43133 186.814 5.25231 187.471 5.58392C187.902 5.80097 188.058 5.59296 188.491 5.74369C188.901 5.88738 188.963 6.31546 189.226 6.60587C187.996 6.60687 186.724 5.67133 185.458 5.90346C185.993 6.10745 186.6 6.05118 187.043 6.46016C187.47 6.85306 187.863 6.43102 188.364 6.55562C188.748 6.65108 190.499 7.18266 189.843 7.83784C189.527 8.15437 189.312 8.45683 188.86 8.59149C188.678 8.64575 188.176 8.58445 188.085 8.79749C188.013 8.96028 188.065 9.24164 187.887 9.35017C187.646 9.49688 187.274 9.16728 186.984 9.33108C186.295 9.71896 185.928 9.79532 185.139 9.92395C185.258 9.99529 185.374 10.0707 185.489 10.147C185.041 10.3922 184.537 10.3078 184.057 10.4344C184.396 10.5329 184.761 10.4002 185.077 10.5942C184.906 11.385 183.655 11.2072 183.193 11.7438C182.968 12.005 183.16 12.2392 182.686 12.3286C182.189 12.4231 181.585 12.407 181.116 12.5728C180.833 12.6723 180.386 12.9205 180.386 13.2762C180.386 13.654 179.683 13.451 179.474 13.4782C178.924 13.5505 179.15 14.0188 179.188 14.3363C179.246 14.8297 178.379 15.1191 178.024 15.1282C178.84 15.2749 179.542 15.0357 180.13 14.4579C179.88 14.3695 179.649 13.8831 180.082 13.8701C180.503 13.857 180.905 13.9354 181.339 13.8982C181.91 13.849 182.478 13.9505 183.052 13.8872C183.269 13.863 184.861 13.7002 184.023 13.5334C184.396 13.5013 184.764 13.4319 185.137 13.3978C185.544 13.3606 185.999 12.9486 186.417 13.0863C186.183 13.027 185.96 12.9426 185.746 12.831C186.952 13.1204 187.978 12.6763 189.099 12.2884C188.146 11.4041 186.339 13.233 185.618 11.8734C185.991 11.784 185.831 11.6131 186.052 11.4232C186.366 11.1539 187.242 11.3277 187.6 11.3941C187.776 11.4262 188.81 11.8543 188.839 11.4413C188.865 11.0594 189.299 11.1881 189.546 11.3298C188.505 11.4383 190.843 12.2522 191.184 12.3045C191.811 12.3999 193.099 12.5929 193.567 12C193.307 11.8573 193.071 11.6714 192.867 11.4564C193.606 11.7156 194.621 11.9668 195.214 12.5004C195.52 12.7738 195.089 13.0491 195.79 13.227C196.476 13.3998 196.647 13.5686 197.336 13.3405C196.809 13.4571 196.126 13.2018 195.704 12.8943C198.282 12.2974 200.932 12.3035 203.552 12.5627C204.743 12.6803 207.592 12.0101 208.44 13.0531C208.093 13.0762 207.731 12.9004 207.453 13.2129C208.171 13.9866 209.447 14.1544 210.443 14.2157C211.883 14.3062 213.321 14.5051 214.759 14.5835C215.961 14.6478 217.237 14.5745 218.437 14.5041C218.956 14.474 219.505 14.6659 220.015 14.5765C220.977 14.4067 219.6 13.9796 220.318 13.7877C219.689 13.6651 218.377 13.0752 218.496 12.2552C218.786 12.4552 219.162 12.6974 219.485 12.3829C219.365 12.2683 219.237 12.1618 219.103 12.0633C219.661 12.3025 220.254 12.0824 220.828 12.1909C221.585 12.3336 222.286 12.3467 223.008 12.6401C223.233 12.7165 223.463 12.7647 223.701 12.7818C223.908 12.8029 223.931 13.1054 224.113 13.1164C224.714 13.1566 225.192 12.5889 225.807 12.8612C225.01 13.0642 225.828 13.228 226.086 13.2481C226.498 13.2802 226.899 13.1214 227.31 13.1164C227.19 13.033 227.072 12.9486 226.955 12.8612C227.569 12.5859 228.626 12.9818 229.298 12.9988C229.674 13.0089 230.19 13.1878 230.741 13.438C231.393 13.7334 232.097 13.5887 232.767 13.851C232.924 13.9123 232.822 14.1273 232.94 14.2037C233.151 14.3373 233.373 13.9464 233.69 14.1695C233.534 14.5403 233.132 14.6539 232.767 14.68C233.465 14.9121 234.221 14.8167 234.935 14.9674C234.658 15.1362 234.336 15.0488 234.043 15.1583C234.514 15.1864 234.977 15.2709 235.445 15.3181C235.292 15.5191 234.988 15.4859 234.776 15.4457C234.898 15.5321 235.025 15.6065 235.162 15.6698C234.79 15.9743 234.341 15.8075 233.916 15.7974C234.552 16.1984 235.326 15.9381 236.022 16.0526C236.713 16.1662 237.223 16.6968 237.906 16.8183C237.675 16.948 237.322 17.1449 237.936 17.1058C236.894 17.7569 235.706 16.9309 234.647 16.7872C235.082 17.358 237.925 18.816 238.514 18.0955C238.157 17.8936 237.784 17.7237 237.428 17.5208C238.129 17.6755 238.798 18.0021 239.405 18.3819C239.033 18.201 238.692 18.4493 238.319 18.4452C238.356 18.799 238.745 18.819 239.017 18.8351C239.56 18.8663 239.961 19.1185 240.417 19.3989C241.481 20.055 242.714 20.1314 243.838 20.6248C244.743 21.0227 245.712 21.0649 246.645 21.4377C248.05 21.9995 246.928 20.1686 247.642 19.9787C247.015 19.9083 246.348 18.9336 246.219 18.3779C245.965 17.2766 247.435 18.2814 247.82 18.4131C248.942 18.7959 249.875 19.2632 251.085 19.3647C251.74 19.42 253.172 19.1195 253.577 19.8199C253.425 19.5827 253.088 19.0743 253.621 19.1175C254.047 19.1527 254.536 18.7306 254.982 18.6864C255.479 18.6372 255.987 18.7115 256.476 18.799C258.45 19.1557 260.32 19.9495 262.292 20.2661C261.99 20.0279 261.607 20.1063 261.267 19.9797C261.503 19.9415 261.738 19.9415 261.973 19.9797C261.841 19.9093 261.712 19.835 261.587 19.7556C261.815 19.6692 262.049 19.637 262.291 19.6591C261.347 19.4159 261.155 19.7435 260.664 18.8291C261.036 18.808 261.432 18.6372 261.716 18.9889C261.744 18.3035 262.907 18.9326 263.182 19.0642C264.032 19.4732 264.769 18.9185 265.607 19.1798C264.577 18.5307 263.364 17.9368 262.195 17.6795C262.419 17.6856 262.642 17.6755 262.864 17.6484C262.639 17.4997 262.49 17.2535 262.577 16.9781C262.827 17.0887 263.072 17.0786 263.312 16.947C262.935 16.8274 262.564 16.8435 262.181 16.9148C261.891 16.9681 260.592 16.8867 261.428 17.1389C261.115 17.0736 259.791 16.335 260.648 16.0446C261.082 15.8979 261.598 16.0265 262.044 16.0336C262.664 16.0446 263.215 15.7271 263.823 15.7351C263.379 15.7743 263.001 15.3372 262.597 15.2166C262.205 15.099 261.781 15.0277 261.463 14.7453C262.741 14.884 264.108 15.2889 265.381 15.2889C266.853 15.2889 268.327 15.3583 269.794 15.4799C272.473 15.7029 275.8 15.4236 278.314 16.5018C277.296 16.536 276.163 16.5521 275.158 16.3812C274.579 16.2828 272.961 15.7562 273.145 16.7892C272.912 16.6696 272.665 16.6385 272.409 16.6938C272.879 17.0153 273.318 17.0053 273.814 16.8344C274.532 16.5862 275.577 16.6536 276.338 16.6043C277.511 16.5269 279.117 16.3762 278.379 17.9709C277.942 17.773 278.027 16.9671 277.484 16.9811C277.461 17.0977 277.44 17.2143 277.422 17.3318C277.133 17.0284 276.472 16.7319 276.048 16.8214C276.416 16.8616 276.362 17.2103 276.649 17.3419C276.969 17.4886 277.358 17.4534 277.546 17.8112C276.855 17.7418 276.158 17.778 275.472 17.6514C275.698 17.8192 276.88 18.1789 276.11 18.2583C276.632 18.6442 278.929 18.605 279.007 17.7046C279.068 17.0183 278.955 16.536 279.817 16.5038C280.685 16.4707 281.57 16.5129 282.434 16.5903C284.007 16.7319 285.486 16.9842 286.997 17.4434C287.168 17.4956 288.309 18.1468 287.568 18.2051C287.103 18.2423 286.685 17.9438 286.23 17.9398C286.23 18.4613 286.019 18.2121 285.592 18.2262C286.13 19.2933 288.089 18.0905 288.884 18.814C289.459 19.3376 289.689 18.9828 290.504 19.0874C291.409 19.2049 291.303 19.5205 290.633 19.9495C290.996 19.9294 291.446 19.7827 291.77 19.6209C292.352 19.3305 293.088 19.5325 293.69 19.637C294.633 19.8008 295.843 20.052 296.572 20.7152C296.236 20.8137 295.888 20.7464 295.547 20.7152C297.374 21.2287 299.428 21.4176 301.293 21.0026C303.346 20.5464 305.474 20.1706 307.583 20.3796C309.748 20.5936 311.925 20.7213 314.068 21.1132C315.047 21.292 315.99 21.6156 316.932 21.9271C317.952 22.2647 318.552 22.936 319.425 23.4595C319.192 23.4294 318.957 23.4193 318.721 23.4274C318.946 23.4806 319.285 23.4173 319.465 23.5982C319.623 23.756 319.573 24.1368 319.771 24.2433C320.416 24.592 321.035 24.6423 321.74 24.7317C322.495 24.8282 323.228 24.9307 323.949 25.1728C324.833 25.4713 325.561 24.9307 326.456 24.9236C327.325 24.9176 328.19 24.8844 329.06 24.8975C329.941 24.9106 330.859 24.5991 331.715 24.8633C333.392 25.3819 335.126 25.0392 336.827 25.3688C337.605 25.5195 339.254 25.8039 339.649 24.8432C339.976 24.0454 342.312 25.4984 342.693 25.7878C343.909 26.7143 345.563 26.3194 346.932 26.8118C347.566 27.0399 348.031 27.5966 348.693 27.7594C349.614 27.9855 350.568 27.5684 351.505 27.8639C351.231 27.8006 350.981 27.6157 350.867 27.3534C351.088 27.4559 351.301 27.5735 351.505 27.7051C351.305 27.5383 351.092 27.3896 350.867 27.2579C350.971 27.1384 351.078 27.0218 351.185 26.9062C350.274 26.2159 349.186 25.8903 348.167 25.407C347.651 25.1628 347.24 25.1849 346.695 25.1517C346.175 25.1206 346.224 24.5729 346.716 24.5438C346.112 24.1137 345.503 23.6143 344.77 23.4264C346.529 23.3078 348.371 23.7972 350.145 23.8524C350.753 23.8715 351.293 23.9328 351.861 24.1459C352.217 24.2795 353.188 24.7669 353.512 24.3519C353.175 24.2484 352.834 24.1579 352.492 24.0655C353.192 23.976 353.845 24.2996 354.535 24.3197C355.227 24.3408 355.919 24.3026 356.61 24.3197C358.115 24.3569 359.354 24.177 360.839 24.5448C362.291 24.9055 363.799 25.0372 365.259 25.3738C366.644 25.6924 368.181 25.3226 369.471 26.0441C369.118 25.9878 368.778 25.8692 368.42 25.8531C369.004 26.4591 369.969 26.0129 370.68 26.2691C371.533 26.5756 372.457 26.6801 373.269 27.0982C372.82 26.9947 372.387 26.8269 371.931 26.7465C374.316 27.3333 376.822 27.5293 379.144 28.4065C378.839 28.3111 378.532 28.2367 378.217 28.1834C378.966 28.5934 379.767 28.5562 380.549 28.8195C381.013 28.9743 381.91 29.5752 382.398 29.2375C381.678 29.0346 380.951 28.8597 380.23 28.6627C381.218 28.8165 382.171 29.133 383.134 29.3963C382.364 29.2426 383.163 29.6264 383.361 29.5671C383.808 29.4345 384.177 29.7249 384.586 29.8585C384.953 29.9781 385.402 29.8776 385.794 29.9711C386.375 30.1098 386.934 30.3188 387.518 30.4474C388.669 30.6986 389.848 30.8343 390.971 31.2031C391.323 31.3196 393.202 32.6129 393.509 32.3335C393.408 32.2411 393.302 32.1567 393.191 32.0783C393.979 32.1738 394.539 32.7254 395.151 33.1706C395.9 33.7142 396.805 33.9735 397.561 34.5041C396.739 34.3031 398.009 34.909 398.331 34.9492C399.046 35.0386 399.59 35.7431 400.31 35.7169C400.03 34.9532 401.736 36.2003 401.937 36.2596C401.713 35.9058 401.532 35.5742 401.137 35.3893C400.606 35.1401 399.933 35.2768 399.445 34.9502C400.286 34.2609 396.449 33.3535 396.222 33.3223C396.861 33.2399 397.753 33.2138 398.389 33.2369C398.639 33.246 398.846 33.4188 399.095 33.451C399.428 33.4942 399.749 33.3716 400.083 33.451C399.277 33.451 400.398 34.1363 400.752 34.0257C400.674 33.9042 400.59 33.7866 400.5 33.674C401.046 34.0147 401.722 33.8971 402.318 33.8016C401.736 33.6157 401.109 33.6861 400.532 33.4821C400.692 33.4741 402.304 33.6097 401.423 33.6097C402.516 33.7092 403.791 33.5826 404.81 34.0197C405.489 34.3111 406.095 34.6327 406.815 34.8095C407.271 34.9211 410.535 35.4647 410.395 36.1641C410.625 35.9269 410.978 35.935 411.266 36.0345C411.435 36.0917 412.275 36.4605 411.446 36.356C411.983 36.5068 412.501 36.4726 412.979 36.8022C411.928 37.3056 413.327 37.6835 413.391 38.2713C412.296 38.2452 411.308 37.6945 410.235 37.5378C410.994 37.9417 412.468 37.8241 412.913 38.6873C412.552 38.6783 412.222 38.5115 411.862 38.4954C411.407 38.4753 410.979 38.6833 410.523 38.6542C411.367 38.4371 409.884 38.4281 409.513 38.3165C408.842 38.1146 408.167 37.8694 407.455 37.9839C408.159 38.1578 408.9 38.2492 409.505 38.6843C409.724 38.8421 410.17 38.616 410.318 38.7778C410.582 39.0682 410.883 39.3194 411.223 39.5164C410.887 39.3907 410.525 39.3847 410.199 39.5485C410.937 39.6399 411.635 39.5606 412.134 40.2218C412.263 40.3906 412.29 40.5715 412.027 40.6187C411.576 40.7001 411.063 40.6086 411.063 41.0498C411.369 40.7413 412.323 40.9634 411.892 41.4648C412.539 41.1955 414.18 41.8677 414.668 42.2626C414.076 42.5139 413.494 41.8004 412.947 42.1029C413.342 42.1079 413.658 42.3953 413.807 42.741C412.74 43.2364 412.084 41.7894 411.156 41.5914C412.848 42.6355 411.139 42.4385 410.174 42.0506C408.803 41.5 407.133 41.507 405.858 40.7935C406.747 41.3211 405.022 40.895 404.776 40.8197C404.074 40.6056 403.462 40.3845 402.836 39.9957C401.5 39.1656 399.823 38.5356 398.252 38.3929C397.894 38.3607 397.541 38.2723 397.179 38.2723C396.828 38.2723 396.637 38.5999 396.318 38.6873C395.688 38.8592 394.622 38.828 393.995 38.6421C393.405 38.4673 393.065 37.8563 392.445 37.7428C391.727 37.6111 391.114 37.1961 390.443 36.9318C391.14 37.0032 390.134 35.6878 389.517 35.7189C389.671 35.9038 389.745 36.1169 389.739 36.357C389.054 36.4615 388.605 35.8255 388.014 35.6235C388.137 35.7129 388.256 35.8094 388.369 35.9109C388.14 35.9229 387.916 35.9018 387.695 35.8476C388.035 35.9993 388.37 36.1621 388.72 36.2937C388.425 36.5671 387.966 36.6535 387.695 36.2937C387.906 37.0152 388.742 37.4162 389.383 37.6634C389.802 37.8251 391.598 38.0523 391.711 38.5718C391.852 39.2169 389.422 38.5909 391.175 39.2943C390.363 38.9335 391.568 38.9114 391.815 38.9888C392.047 39.0611 392.694 39.7002 392.375 39.9504C392.185 40.0982 391.902 40.0168 391.809 40.2921C391.735 40.5122 391.756 40.7322 391.593 40.9212C391.43 41.1101 390.55 41.6798 390.316 41.6547C390.39 41.5492 390.463 41.4427 390.538 41.3362C389.274 41.4055 387.833 41.5874 386.691 40.9031C385.655 40.281 383.889 39.7485 382.687 40.1544C382.965 40.1142 383.174 40.3303 383.447 40.3052C383.762 40.276 384.058 40.1524 384.381 40.1856C384.919 40.2409 385.766 40.4971 386.038 41.0156C385.424 41.2347 384.868 40.5262 384.257 40.8016C383.669 41.0669 383.011 40.4991 382.398 40.6006C383.135 40.7403 383.834 41.0036 384.505 41.3352C384.405 41.4467 384.302 41.5532 384.191 41.6537C384.533 41.6205 384.79 41.3392 385.15 41.4376C385.366 41.4969 385.788 41.7602 385.962 41.4758C386.41 40.7403 387.209 41.2327 387.577 41.7632C388.195 42.6535 390.107 43.0334 391.116 42.963C390.843 42.9148 390.738 42.7239 390.893 42.4837C391.593 42.8485 392.338 43.1319 393 43.569C392.313 43.2735 392.862 43.7087 393.02 43.772C393.265 43.8705 393.534 43.8905 393.788 43.9609C394.129 44.0563 394.44 44.2834 394.727 44.4814C394.954 44.6402 395.176 44.804 395.394 44.9738C394.926 44.8924 394.926 44.9356 395.394 45.1014C395.137 44.9808 394.644 44.7778 394.628 45.2612C395.27 44.8673 395.702 45.7757 396.254 45.5164C396.004 45.3938 395.771 45.2451 395.554 45.0703C396.14 45.4662 396.815 45.6933 397.433 46.0279C397.225 45.9103 397.001 45.8681 396.764 45.9003C397.351 45.9767 397.919 46.1625 398.489 46.3153C399.148 46.4911 399.181 46.9222 399.683 47.2227C400.289 47.5854 401.124 47.5844 401.673 48.0386C401.943 48.2617 401.973 48.938 401.551 48.9641C401.801 49.0264 401.98 49.2244 402.03 49.4746C400.858 48.9551 399.426 48.8365 398.164 48.6677C397.605 48.5933 396.784 48.7551 396.302 48.4225C396.163 48.327 394.902 47.3885 395.553 48.1351C395.036 48.12 394.638 47.709 394.148 47.5915C394.433 47.7171 394.601 47.9502 394.819 48.1572C395.199 48.521 395.679 48.5089 396.161 48.6134C395.195 48.6627 395.141 49.0114 394.49 49.5449C394.174 49.8042 393.297 50.2765 392.872 50.1449C392.95 50.2594 393.024 50.376 393.094 50.4965C392.66 50.7307 392.262 50.7146 391.786 50.6875C392.053 50.7397 392.275 50.8673 392.455 51.0703C391.979 51.3889 391.41 51.0965 390.894 51.198C391.416 51.3537 391.152 51.6803 390.808 51.6662C390.523 51.6542 390.259 51.4934 389.968 51.5165C390.128 51.7556 390.336 51.9637 390.575 52.1234C390.071 52.1023 390.214 52.2993 390.446 52.5053C390.028 52.863 389.55 52.2812 389.103 52.5696C389.488 52.6781 389.91 52.7264 390.189 53.0489C389.956 53.0067 389.721 52.9635 389.489 52.9213C389.68 52.9374 390.022 53.1253 389.808 53.3685C389.701 53.489 389.281 53.3685 389.138 53.3685C389.597 53.5222 389.608 53.6076 389.169 53.6237C389.441 53.6348 389.679 53.7935 389.838 54.0066C389.482 54.0036 389.164 53.8227 388.813 53.7825C389.013 53.8799 389.24 53.9121 389.431 54.0307C389.745 54.2256 389.586 54.6758 389.168 54.3251C389.183 54.4829 388.809 55.0968 388.463 54.9632C389.256 55.4355 387.994 55.8314 387.571 55.7289C387.789 56.0012 387.889 56.1057 387.443 56.0173C387.824 56.1751 389.027 57.3688 388.689 57.8361C386.984 57.0825 385.271 55.8686 383.431 55.5038C382.679 55.3541 381.63 55.3621 380.868 55.4656C380.155 55.5621 379.326 56.2997 378.603 55.8897C378.703 55.9912 378.797 56.0977 378.887 56.2082C378.666 56.2725 378.444 56.2826 378.217 56.2394C378.323 56.7157 378.576 57.6482 378.183 58.0522C377.599 58.6521 376.855 56.8704 376.562 56.6041C376.325 56.3871 375.664 55.5832 375.283 55.8435C374.982 56.0484 374.992 56.6011 374.614 56.8775C374.275 57.1257 374.088 57.0704 373.687 57.1016C373.98 57.2041 374.512 57.2422 374.707 57.5166C375.016 57.9517 374.594 58.3285 374.155 58.1356C373.782 57.9718 373.483 57.6542 373.145 57.4302C372.765 57.1779 371.712 57.2633 372.442 57.5156C371.906 57.9034 371.153 57.0272 370.496 57.5156C370.654 57.5407 370.813 57.5618 370.975 57.5789C370.96 57.8502 370.789 57.9768 370.527 57.8984C370.474 58.4642 371.424 58.5556 371.079 59.0209C370.925 59.2279 372.178 59.7735 372.314 60.0066C371.345 59.8539 372.709 60.6437 372.794 60.7392C372.561 60.6307 372.327 60.6307 372.093 60.7392C372.37 60.8226 372.623 60.9793 372.825 61.1863C371.801 60.7784 372.816 63.5207 372.917 63.6905C373.31 64.3517 373.757 64.7064 374.457 65.0169C374.864 65.1978 375.86 65.1666 375.985 65.7193C375.984 65.247 375.043 64.4592 376.22 64.827C376.878 65.033 377.768 65.0983 378.278 65.5977C378.722 66.0348 378.476 66.275 378.38 66.7724C378.315 67.109 378.746 67.3372 378.956 67.506C379.375 67.8426 379.742 68.2365 380.146 68.5922C380.754 69.1278 380.974 68.9942 381.664 69.1188C382.275 69.2293 384.394 70.7346 384.004 71.3466C383.608 71.9656 382.419 71.2903 382.129 70.8271C381.859 70.395 382.336 70.395 382.284 70.0232C382.247 69.7549 381.851 69.8614 381.923 70.1558C381.595 69.9498 381.152 70.0463 381.032 70.4432C382.203 70.6613 380.959 71.1969 381.249 71.7284C381.628 72.4208 381.829 73.1031 382.384 73.697C383.026 74.3843 383.78 74.7963 384.588 75.2545C385.009 75.4927 385.603 75.7208 385.912 76.1056C386.154 76.4051 385.773 76.8462 385.85 77.1778C385.539 77.0804 385.229 77.1738 384.917 77.202C384.501 77.2391 384.174 76.9035 383.761 76.8774C382.893 76.8231 382.851 77.5265 382.443 78.0611C381.986 78.659 382.574 79.281 382.942 79.7794C383.085 79.9724 384.631 81.1873 383.872 80.8155C384.492 81.2898 385.357 81.5259 385.752 82.2514C385.481 82.2112 384.991 82.1128 384.844 81.8455C384.667 81.5229 384.463 81.7731 384.189 81.7731C383.572 81.7731 382.961 82.5499 382.626 82.9538C382.368 82.7277 382.023 82.37 381.639 82.5388C381.672 82.8976 381.962 82.8513 382.225 82.8956C382.481 82.9388 382.701 83.4975 382.891 83.6944C383.081 83.8924 383.022 84.0974 383.23 84.3084C383.515 84.5978 383.939 84.8068 384.108 85.1836C384.504 86.0659 384.922 87.2607 384.211 88.0485C383.92 88.3711 384.273 88.4545 384.064 88.7811C383.76 89.2564 383.673 89.807 383.266 90.2321C383.053 89.5759 382.362 89.3478 381.83 89.0192C381.214 88.6384 380.782 88.0345 380.326 87.4868C379.812 86.8688 379.204 86.3402 378.597 85.8157C378.294 85.5544 377.992 85.2942 377.701 85.0209C377.445 84.7817 376.804 84.4893 377.453 84.423C375.833 84.4089 374.154 81.9369 373.066 80.9572C371.339 79.4006 369.559 77.8973 367.794 76.383C366.283 75.0867 365.111 73.698 363.878 72.1485C363.409 71.5626 362.953 70.9637 362.509 70.3588C362.296 70.0674 362.08 69.7629 361.945 69.4253C361.87 69.2364 361.848 68.4495 362.04 69.1962C362.019 68.7812 362.089 67.72 362.549 67.8878C362.208 67.4738 362.269 66.8418 361.859 66.473C361.389 66.0499 360.674 65.8419 360.345 65.2711C360.834 65.1536 361.393 65.5897 361.845 65.3998C362.124 65.2832 361.815 64.7556 361.941 64.5366C362.493 64.8159 363.091 64.3678 363.635 64.6331C363.15 64.5034 363.351 64.0964 363.552 63.798C363.675 63.6141 363.812 63.4393 363.921 63.2463C364.097 62.9368 363.86 62.6042 364.367 62.9097C363.818 62.4776 364.49 61.8114 363.96 61.3411C363.24 60.703 364.119 60.0941 363.909 59.3826C363.727 58.7656 364.106 59.1816 364.357 58.7747C364.616 58.3536 364.399 57.9557 364.496 57.5166C364.544 57.2965 364.971 57.0352 364.879 56.787C364.753 56.4424 364.371 56.3409 364.177 56.0485C364.549 55.8053 364.936 55.5922 365.282 55.3119C365.437 55.1863 365.427 54.9099 365.583 54.8044C365.84 54.6296 366.254 54.6617 366.519 54.7944C366.638 54.8537 367.024 54.3442 367.148 54.2929C366.776 54.2015 366.229 54.1211 366.142 53.6599C366.048 53.1645 366.558 53.1655 366.016 52.7314C365.588 52.3887 365.013 52.648 364.758 52.031C364.561 51.5507 364.553 51.2663 364.101 50.9236C363.574 50.5247 362.287 49.6515 363.235 48.9892C363.786 48.6034 365.114 49.2103 365.645 49.4414C365.319 49.2646 364.957 49.1561 364.657 48.931C365.112 48.931 365.579 49.1018 366.032 48.9943C364.901 48.8154 363.702 48.8576 362.639 48.3723C361.592 47.8949 360.376 48.3924 359.36 48.7069C359.505 49.0968 359.904 49.2465 360.286 49.2817C359.76 49.7107 360.923 50.379 361.181 50.7056C361.701 51.3628 362.452 51.212 362.968 51.7406C362.861 51.7908 362.754 51.8441 362.65 51.9004C362.707 52.0099 362.77 52.1164 362.84 52.2189C362.492 52.0973 362.215 51.824 361.883 51.6692C361.609 51.5406 360.753 51.6602 361.563 51.8994C360.911 51.7215 360.256 51.9546 360.256 52.7927C360.256 53.484 359.323 54.3221 359.936 54.9642C359.452 54.7512 358.953 55.0034 358.753 55.4747C358.425 55.3089 358.466 54.8959 358.141 54.7743C357.838 54.6617 358.078 54.096 357.569 53.9161C356.972 53.7061 356.776 54.5391 356.378 53.9292C356.09 53.486 355.657 53.2167 355.21 52.9524C356.199 53.1966 354.982 52.6651 355.369 52.6651C354.88 52.4691 355.322 52.3134 355.155 52.0079C354.97 51.6672 354.687 51.2221 354.387 50.9799C353.916 50.599 353.638 50.9347 353.403 51.3366C353.017 52.0009 352.819 51.4261 352.369 51.3035C351.939 51.1849 351.577 50.8191 351.104 50.8744C350.633 50.9297 350.233 51.2412 349.75 51.2361C349.402 51.2331 348.892 51.4894 348.6 51.423C348.078 51.3045 347.502 51.2904 346.972 51.2291C346.994 51.3467 347.017 51.4632 347.037 51.5808C346.363 51.3567 346.523 52.2259 346.013 52.3475C346.198 52.5676 347.018 53.057 346.54 53.3152C345.955 53.6328 346.467 54.4899 346.592 54.8507C346.675 55.0908 346.437 55.4988 346.269 55.6998C345.966 56.0625 345.607 56.0555 345.581 56.6222C345.56 57.0744 345.747 57.5337 346.043 57.8703C345.087 57.7115 346.564 58.8118 346.81 58.9234C346.224 58.6008 346.468 59.3344 346.824 59.4258C347.149 59.5092 347.521 59.4268 347.834 59.5615C347.712 59.4972 347.595 59.4218 347.484 59.3384C348.239 58.4843 349.814 60.0217 350.449 60.1996C349.641 60.8387 349.151 60.1624 348.375 60.3593C349.02 61.1522 346.743 60.4448 346.49 60.3905C345.819 60.2478 345.988 60.2307 345.599 60.5503C345.281 60.8115 344.98 61.1039 345.47 61.4114C344.962 61.1311 343.556 60.8889 343.014 61.0919C343.087 61.1994 343.161 61.3049 343.237 61.4114C341.99 61.522 340.882 61.4727 339.819 60.7412C340.277 60.7131 340.698 60.5061 341.163 60.5171C341.61 60.5282 342.155 60.6407 342.537 60.3262C341.993 59.8931 341.189 60.1523 340.562 59.7916C339.73 59.3123 338.84 58.834 337.841 59.0168C338.21 59.8288 335.452 58.7556 335.23 58.7063C334.498 58.5446 333.304 58.0733 332.627 58.5546C331.916 59.0611 333.115 59.1726 333.373 59.4319C332.975 59.1555 332.457 59.4449 332.033 59.2078C331.937 59.9031 333.074 59.6378 333.279 60.1976C332.853 59.9614 332.301 60.3413 331.941 60.0629C331.31 59.5765 330.647 59.5273 329.892 59.7826C329.96 59.9041 330.037 60.0207 330.119 60.1333C329.763 59.8931 329.469 60.2428 329.073 60.0579C328.612 59.8408 328.006 59.7273 327.496 59.7745C326.707 59.8479 325.242 59.0852 326.448 60.4216C326.004 60.2357 325.567 60.6005 325.136 60.294C324.736 60.0076 324.626 59.671 324.085 59.6238C322.715 59.5042 321.371 59.8197 319.993 59.6549C319.385 59.5826 318.956 59.7856 318.371 59.8469C317.841 59.9021 317.537 59.7765 317.011 59.9353C316.436 60.1091 315.751 60.293 315.523 60.9331C315.345 61.4305 315.726 61.936 315.418 62.4274C315.153 62.8444 314.47 62.9599 314.328 63.4563C314.204 63.8955 314.578 64.4632 314.796 64.824C315.008 65.1787 315.06 65.4771 314.544 65.5203C314.012 65.5646 314.198 66.067 314.08 66.4207C313.932 66.8699 313.715 66.9744 313.389 67.2568C313.056 67.5462 313.074 68.0235 312.748 68.3189C312.525 68.5219 312.658 69.1861 312.592 69.4916C312.506 69.8875 312.77 70.0413 313.106 70.188C312.346 70.2262 312.603 71.5898 312.163 71.9867C311.927 72.1987 311.628 72.4931 311.508 72.7926C311.384 73.1001 311.002 73.0719 310.811 73.3021C310.609 73.5422 310.784 73.913 310.63 74.1823C310.411 74.5602 310.016 74.6938 309.687 74.947C308.649 75.7499 309.93 76.2925 310.567 76.4835C311.478 76.7568 312.226 76.8573 313.174 76.7769C313.828 76.7216 315.203 76.598 315.293 77.5617C315.312 77.7486 315.756 78.043 315.868 78.1948C316.12 78.5384 316.297 78.8499 316.414 79.2569C316.649 80.0819 317.457 79.682 318.022 79.5714C317.974 79.3664 317.959 79.061 317.8 78.9012C317.582 78.6801 317.209 78.9283 317.063 78.5626C316.764 77.8189 317.845 77.9646 318.244 77.8471C318.18 78.1767 318.083 78.651 317.637 78.6138C318.106 79.1614 318.982 79.0951 319.62 79.2519C319.428 79.4006 318.945 80.6165 319.092 80.6909C319.612 80.9561 320.686 80.6858 321.149 80.3663C321.636 80.0307 321.159 79.1062 321.695 79.1876C322.242 79.271 322.087 80.4909 322.014 80.8476C322.982 80.6416 322.64 80.2186 322.236 79.4438C322.02 79.0288 321.903 79.064 321.598 78.7414C321.315 78.443 321.394 78.027 320.898 77.9436C321.379 77.8189 321.929 78.0872 322.382 78.2149C323.018 78.3947 323.379 78.0531 323.976 77.9928C325.042 77.8833 326.2 79.1192 326.995 79.6348C327.462 79.9382 328.006 80.1 328.526 80.2829C329.163 80.506 329.623 80.9019 330.211 81.1802C330.523 81.3279 332.471 81.6003 332.269 82.3861C332.161 82.8071 331.891 81.8907 331.973 82.7317C331.483 82.5288 330.873 82.1168 330.316 82.2213C331.317 82.9377 333.431 83.1217 333.544 84.6018C333.585 85.1445 334.468 85.3494 334.895 85.4419C335.637 85.6057 335.03 86.3473 335.836 86.5613C335.406 86.8477 335.874 87.3431 335.531 87.6174C335.218 87.8686 335.481 88.561 335.836 88.6364C335.251 89.0001 336.012 89.5629 336.253 89.8623C336.58 90.2693 336.454 90.9265 336.746 91.3776C337.059 91.858 338.137 93.6326 338.867 93.3924C338.39 94.333 339.287 94.5269 339.726 95.2394C339.934 95.578 340.106 96.0292 339.954 96.4251C340.26 96.5045 340.693 97.2853 340.37 97.4139C340.891 97.222 340.986 98.4419 341.236 98.8036C341.873 99.7241 341.154 100.429 340.738 101.285C340.248 102.293 341.067 103.379 340.48 104.36C340.208 104.814 340.415 105.574 340.529 106.055C340.601 106.232 340.678 106.406 340.759 106.578C340.766 106.908 340.618 106.994 340.725 107.378C340.969 108.251 340.563 109.536 340.165 110.318C339.997 110.651 339.9 110.956 339.692 111.273C339.419 111.692 339.524 111.976 339.378 112.426C339.326 112.583 339.322 113.295 339.137 113.313C338.603 113.364 339.257 114.139 338.945 114.395C338.562 114.709 338.578 114.676 338.488 115.161C338.417 115.539 338.604 116.193 338.199 116.438C338.847 116.762 337.959 118.289 337.599 118.652C336.591 119.668 335.639 120.272 334.388 120.901C334.004 121.094 333.659 121.368 333.353 120.925C333.297 120.845 332.23 120.556 332.122 120.561C331.729 120.579 331.194 120.163 330.879 120.359C330.723 120.457 330.022 118.98 329.869 118.801C329.913 119.01 329.58 119.755 329.328 119.757C328.707 119.763 329.302 118.874 328.661 118.825C327.815 118.76 328.751 120.381 327.891 120.236C328.188 120.4 328.101 121.205 328.021 121.545C327.643 121.366 326.749 121.01 326.389 121.385C327.004 121.705 327.21 121.986 327.124 122.693C326.625 122.055 326.165 121.317 325.369 121.098C325.692 120.511 326.191 120.559 326.747 120.519C327.111 120.493 326.899 120.004 326.899 119.789C326.9 118.556 326.087 118.135 325.59 117.107C325.003 115.896 324.297 114.854 323.4 113.849C323.296 113.732 322.275 112.916 322.588 112.804C322.995 112.661 323.379 112.765 323.659 112.311C323.769 112.131 323.938 111.373 324.152 111.329C324.587 111.243 325.566 111.772 326.004 111.894C326.29 111.974 328.672 112.687 328.181 111.748C327.983 111.372 327.394 110.698 328.004 110.393C328.489 110.149 328.047 109.755 327.906 109.449C327.653 108.894 328.413 108.612 327.761 108.137C328.456 107.789 327.811 107.279 327.606 106.958C327.479 106.76 327.596 106.501 327.539 106.286C327.439 105.909 327.185 105.605 327.084 105.228C327.015 104.963 327.076 104.67 326.966 104.417C326.846 104.143 326.453 103.939 326.625 103.585C326.901 103.014 327.464 103.334 327.274 102.528C327.138 101.946 326.617 101.787 326.251 101.357C326.05 101.12 325.911 100.841 325.876 100.529C325.821 100.02 325.728 100.194 325.293 99.9643C324.688 99.6447 324.01 99.7753 323.447 100.131C323.349 100.192 322.49 100.858 322.571 100.89C321.843 100.598 320.641 100.897 320.641 101.848C320.641 102.524 318.985 102.349 318.464 102.413C318.059 102.463 317.939 102.475 317.626 102.235C317.361 102.031 316.826 102.297 316.545 102.345C316.082 102.424 314.129 101.125 314.145 100.647C314.173 99.7864 313.532 99.4045 312.805 99.0117C312.004 98.5786 312.872 97.7726 311.592 97.8791C310.678 97.9555 309.84 97.4591 309.168 96.8582C308.786 96.5166 308.556 96.5115 308.103 96.3759C308.033 96.3548 306.854 95.3157 307.332 96.1669C306.76 95.9317 306.14 96.0021 305.606 95.6514C305.133 95.3399 304.856 95.2333 304.318 95.2715C303.574 95.3238 303.186 95.4001 302.429 95.2213C301.722 95.0545 301.134 94.6053 300.622 94.0998C300.301 93.7823 300.196 93.0819 299.831 92.8709C299.179 92.4921 298.881 92.3614 298.473 91.6801C297.766 90.4964 296.239 90.1185 295.43 88.9901C295.241 88.7278 294.611 88.14 294.304 88.0284C293.889 87.8777 293.344 87.2125 292.95 86.9492C292.386 86.5724 292.296 86.0227 291.784 85.6378C291.259 85.2409 290.685 84.8932 290.172 84.4822C289.922 84.2833 289.481 84.3516 289.332 84.023C289.175 83.6713 289.165 83.6894 288.781 83.4834C288.327 83.2402 287.615 83.0855 287.351 82.6514C287.182 82.375 286.211 82.2414 285.861 82.1017C285.544 81.9751 284.898 81.746 284.89 82.3137C284.344 82.0354 283.696 82.1298 283.149 81.8575C282.87 81.7178 282.637 81.5058 282.358 81.3661C282.047 81.2114 281.686 81.2566 281.377 81.0878C280.058 80.3673 278.586 81.0777 277.185 80.9361C275.951 80.8104 274.81 81.4807 273.583 81.5882C272.323 81.6987 272.808 83.1679 271.741 83.5276C272.166 83.9979 272.356 84.1104 272.986 84.0712C273.418 84.0441 274.142 84.0863 274.367 84.5365C274.633 85.0661 275.317 85.4369 275.492 85.9383C275.792 86.8015 275.11 86.7784 274.829 87.4928C274.621 88.0194 274.878 88.7258 274.926 89.2684C274.951 89.5649 274.986 89.9357 274.846 90.213C274.692 90.5215 275.077 90.7747 275.003 91.0923C274.898 91.5434 274.862 91.8409 274.964 92.3062C275.023 92.5765 275.771 92.691 275.953 93.0447C276.318 93.7491 274.732 93.8828 274.359 94.0205C273.813 94.2224 273.626 94.8886 273.26 95.2926C272.817 95.784 271.731 95.1248 271.202 95.0334C270.509 94.9128 269.777 94.8495 269.154 94.4917C268.463 94.0958 267.956 93.6215 267.097 93.727C266.415 93.8104 266.004 94.2556 265.298 94.1169C264.477 93.9551 263.904 93.4859 263.183 93.103C261.698 92.3162 260.44 92.891 259.241 93.8526C258.78 94.2214 258.752 94.5852 258.542 95.0967C258.241 95.8292 257.475 95.4202 256.881 95.5659C256.346 95.6976 255.47 95.7136 254.994 95.9548C254.647 96.1287 254.288 95.986 253.959 96.1508C253.661 96.2995 253.44 96.5568 253.137 96.7035C252.62 96.9537 252.02 96.6693 251.479 96.6582C250.533 96.6391 249.676 96.6964 248.76 96.392C247.337 95.9197 246.118 96.4894 244.8 95.5921C244.313 95.2615 243.788 95.1127 243.406 94.6405C242.902 94.0134 242.749 93.8094 241.895 93.7873C241.155 93.7682 240.532 93.7059 239.901 93.2849C239.405 92.9533 238.92 92.5142 238.305 92.4348C237.629 92.3473 237.186 92.5363 236.501 92.3072C235.672 92.0288 234.56 91.9323 233.708 92.1283C232.062 92.5061 230.438 93.5562 228.712 92.9452C228.23 92.7754 228.036 92.5765 227.483 92.5242C227.083 92.486 226.405 92.2569 226.094 91.9936C225.776 91.7243 225.335 91.7314 225.101 91.3636C224.871 91.0028 224.546 90.7989 224.282 90.4713C223.767 89.8342 223.444 88.6886 222.547 88.5248C221.511 88.3369 220.487 88.3178 219.499 87.938C218.243 87.4536 216.949 87.4928 215.688 87.0999C214.489 86.7251 213.339 86.2006 212.144 85.8278C212.228 86.1483 212.418 87.0165 211.954 87.1562C211.311 87.3491 211.235 87.742 211.506 88.3168C210.543 87.9953 211.231 90.1165 211.763 90.3879C212.26 90.6401 212.322 91.3123 212.881 91.5495C213.452 91.7907 213.727 91.9052 213.832 92.6026C213.902 93.0568 213.748 93.8044 213.177 93.8767C212.637 93.9451 212.596 94.5048 212.087 94.6123C211.516 94.7329 210.802 94.2023 210.219 94.136C209.406 94.0436 208.639 93.8094 207.84 93.711C207.32 93.6487 206.98 93.7662 206.548 94.0677C206.365 94.1963 204.861 93.732 204.6 93.6908C203.858 93.5753 203.167 93.3572 202.613 92.8287C202.193 92.4287 201.871 91.8761 201.31 91.652C200.23 91.2209 198.885 91.8158 197.835 91.4299C197.369 91.2581 197.607 90.5426 196.991 90.9747C196.288 91.4661 196.059 90.5366 195.391 90.5506C195.688 91.1807 194.784 91.1455 194.407 91.1757C194.131 91.1968 193.909 91.2229 193.747 91.4751C193.405 92.0107 193.284 91.866 192.719 92.0479C192.344 92.1685 192.128 92.3835 191.871 92.6639C191.581 92.9784 191.316 92.8799 190.934 93.0166C190.842 93.0498 190.039 93.3693 190.053 93.4718C190.127 94.0325 189.513 93.7924 189.132 94.0607C189.226 94.335 189.392 94.6083 189.646 94.7631C189.166 94.9419 188.784 95.0977 188.272 95.1791C188.337 95.2836 188.401 95.3901 188.463 95.4976C188.151 95.7398 187.787 95.6001 187.475 95.4654C187.535 96.0764 186.961 95.6654 186.541 95.5991C186.046 95.5207 185.67 95.6996 185.637 96.2081C185.594 96.8572 184.212 97.3044 183.644 97.0923C183.222 96.9346 183.318 96.5949 182.764 96.5286C182.22 96.4643 181.959 95.8614 181.557 95.5619C181.24 95.3258 180.634 95.4675 180.807 94.9067C180.941 94.4716 180.6 94.3782 180.309 94.6435C180.152 94.7862 179.886 95.0163 179.822 95.2283C179.628 95.8654 179.09 95.3449 178.792 95.3057C178.17 95.2243 176.93 95.3841 176.429 94.9741C175.914 94.553 175.583 93.9561 175.16 93.4537C174.541 92.7191 173.015 93.1623 172.424 92.274C171.657 91.1224 170.248 90.2019 168.839 89.9658C168.694 89.9417 168.437 89.8934 168.316 90.0181C167.959 90.3889 168.14 90.2643 167.641 90.3517C167.272 90.416 167.203 90.8662 166.691 90.8812C166.503 90.8672 166.327 90.9033 166.161 90.9877C165.804 91.1576 165.614 90.9003 165.275 90.8521C164.867 90.7928 164.249 91.1797 163.895 90.9003C163.635 90.6963 163.448 90.1728 163.079 90.1527C162.877 90.1427 162.39 90.2914 162.308 90.002C162.207 89.6483 162.553 89.2262 161.942 89.2875C161.649 89.3167 161.453 88.9549 161.104 88.9438C161.032 88.9408 160.395 89.0785 160.345 89.2081C160.2 89.591 160.631 89.7015 160.429 90.0824C160.142 90.624 159.383 90.424 159.801 90.8682C158.683 90.624 157.495 88.7931 156.694 88.0304C155.415 86.8145 154.093 85.6529 152.802 84.4511C151.557 83.2904 150.379 82.1047 148.905 81.2244C147.316 80.2759 145.554 79.6749 144.067 78.5475C144.259 78.4239 144.663 78.6068 144.803 78.4329C145.017 78.1666 145.156 77.7697 144.704 77.6531C144.781 77.5305 144.865 77.414 144.957 77.3014C144.47 77.4843 144.022 77.839 143.508 77.7647C143.467 77.7587 142.92 78.2179 142.865 78.243C142.375 78.4611 141.859 78.6279 141.322 78.6751C141.74 79.1594 140.783 79.5493 140.458 79.6639C139.771 79.9091 139.285 80.0015 139.342 80.8768C139.082 80.8758 138.996 80.728 138.825 80.5743C138.552 80.3271 138.368 80.6688 138.081 80.4336C137.529 79.9804 136.916 80.7441 136.566 81.0677C136.426 80.6426 135.829 80.6919 135.702 80.2698C135.531 79.7051 136.287 79.4107 136.726 79.4709C136.727 79.1594 136.546 78.8911 136.31 78.7052C135.733 80.2628 133.554 77.5115 133.086 78.8329C133.342 78.7133 133.581 78.8349 133.725 79.0559C133.459 79.0509 133.236 79.1474 133.056 79.3433C132.862 78.9173 132.417 78.8138 132.865 78.4822C132.325 78.449 131.989 77.827 131.522 77.62C131.457 77.8933 131.597 78.1365 131.841 78.2591C131.561 78.3003 131.019 77.9415 130.815 78.1425C130.614 78.3405 130.313 78.6982 129.982 78.5304C129.43 78.25 128.96 78.666 128.397 77.9707C129.312 77.9013 128.165 76.9427 128.587 76.5026C128.255 76.3267 127.923 76.2142 127.661 75.9278C127.326 75.56 127.321 75.0606 126.915 74.73C126.206 74.1522 125.829 74.126 125.27 74.6898C124.85 75.1148 123.782 74.4044 123.387 74.2084C122.997 74.0155 122.559 74.0085 122.137 73.9482C121.845 74.1934 121.345 73.8085 120.927 73.7884C121.026 73.8929 121.121 73.9994 121.215 74.107C120.944 74.1391 120.679 74.118 120.417 74.0437C120.605 74.5903 120.091 74.4808 119.779 74.6506C119.619 74.737 119.028 75.0063 119.712 75.1299C119.329 75.5922 118.181 75.8353 117.591 75.9509C116.813 76.1036 116.049 76.2483 115.275 76.4232C114.582 76.5799 111.71 76.4443 111.728 77.3065C111.732 77.5185 111.714 78.0591 111.346 77.7044C111.059 77.4301 110.814 77.7878 110.494 77.7285C110.011 77.6411 109.712 77.7265 109.24 77.7898C109.064 77.8481 108.884 77.8652 108.7 77.841C108.662 77.9486 108.621 78.0551 108.576 78.1606C108.192 78.2701 106.353 77.9817 106.307 78.5254C106.26 79.0881 104.676 78.1646 104.87 79.3735C104.474 79.3453 104.368 78.9263 103.945 78.9263C103.535 78.9263 103.195 79.2489 102.782 79.1675C102.51 79.1142 100.837 78.4832 101.04 79.2127C100.829 79.1494 100.617 79.1383 100.402 79.1805C100.714 79.4368 101.585 80.1442 100.499 80.2336C100.813 80.4035 101.268 80.6527 101.639 80.6065C101.985 80.5632 102.235 80.4155 102.477 80.7763C102.345 80.9662 100.658 81.2596 101.896 81.6053C102.75 81.8444 103.612 81.8023 104.419 82.2705C105.233 82.7428 103.597 82.8222 103.436 82.8222C103.147 82.8222 102.927 82.6252 102.649 82.6101C102.296 82.5911 101.814 82.6835 101.457 82.7227C101.783 83.1005 101.135 83.3789 100.99 83.6532C100.929 83.7658 102.158 84.9595 102.351 85.0841C102.147 85.1917 101.989 85.4027 101.819 85.5554C101.534 85.8097 101.268 85.7022 100.935 85.8318C100.849 85.866 99.7306 86.499 99.7306 86.497C99.7336 86.9823 100.999 86.8959 101.239 87.2366C101.636 87.7973 101.958 87.5883 102.549 87.731C103.045 87.8516 103.27 88.2937 103.862 88.351C104.622 88.4253 104.752 88.8323 105.386 89.0423C104.708 89.1227 105.205 90.0331 105.201 90.422C105.194 91.0782 103.385 91.3013 102.911 91.2771C102.57 91.2601 102.109 91.238 101.828 91.0209C101.636 90.8732 101.364 90.4421 101.072 90.5114C100.758 90.5868 100.847 91.0249 100.828 91.251C100.786 91.7263 100.199 91.7957 99.831 91.8198C100.155 91.2962 98.8483 91.244 98.6041 91.2209C98.0193 91.1656 97.1842 91.0028 96.8396 90.4713C96.5944 90.0934 96.0749 89.1167 95.4307 89.588C94.6138 90.1839 94.2028 88.8856 94.244 90.3517C93.9254 90.206 93.7818 90.5748 93.4883 90.4863C93.2261 90.408 92.6312 90.0753 92.5277 89.81C92.4212 89.5367 91.0405 89.6332 91.0173 90.0643C90.8214 89.9095 90.5983 89.8241 90.3481 89.809C90.3833 90.3296 89.702 90.4582 89.5713 90.9385C89.3864 91.6098 88.5313 91.7575 88.0962 91.3696C87.7324 91.045 87.0541 91.0109 86.608 90.6863C86.201 90.3889 85.3991 89.6091 84.8284 90C84.951 90.3627 85.3137 90.637 85.4936 90.9747C85.6333 91.238 85.5207 92.0801 85.0876 91.7093C84.8344 91.4932 84.7449 91.0259 84.8012 90.7124C84.8414 90.4893 83.7662 90.0522 83.4839 89.7196C83.096 89.2604 82.695 89.4011 82.2036 89.1891C81.657 88.9539 81.5635 88.2867 80.8551 88.2003C79.6382 88.0515 78.2023 88.7097 77.7089 87.1271C77.2928 87.3592 76.9281 87.3682 76.5352 87.5451C76.2588 87.6697 76.285 88.0947 76.1121 88.3088C75.7634 87.73 75.1696 88.6746 74.9796 87.9028C74.853 87.3883 73.6381 87.2979 73.1417 87.1924C73.2281 87.4044 73.3136 87.6184 73.399 87.8305C72.575 87.4416 72.7719 88.0897 72.4645 88.6605C72.2675 89.0303 71.8605 88.9881 71.5148 89.0876C71.136 89.1951 70.9722 89.6181 70.5452 89.6181C70.308 89.6181 69.8247 89.5307 69.7593 89.8734C69.7161 90.0944 70.0879 90.4431 69.8649 90.623C69.2499 91.1214 68.5254 91.5143 67.7506 91.3103C68.3043 91.4852 68.4912 92.5312 68.7364 92.9754C68.871 93.2196 69.3162 93.519 69.0298 93.8054C68.6922 94.141 68.041 94.3993 67.5848 94.1852C66.7156 93.7763 66.0072 92.1182 64.9822 92.1072C63.8005 92.0941 64.7521 93.4266 64.2758 93.7702C63.495 94.333 63.2478 94.7158 63.4538 95.7961C63.5492 96.2935 64.94 96.7728 64.1914 97.3255C63.6528 97.7244 63.089 98.7474 63.493 99.4347C63.711 99.8035 64.2115 99.902 64.5903 99.9994C65.2776 100.176 65.1791 100.498 65.6404 100.917C65.5349 100.99 65.4274 101.065 65.3218 101.14C65.5228 101.332 65.976 102.536 66.3046 102.097C66.5819 101.722 67.3838 101.884 67.7566 101.953C69.278 102.238 69.9332 103.526 70.9109 104.604C71.2013 104.924 71.755 105.297 71.8786 105.733C72.0494 106.343 70.726 105.59 70.4969 106.037C70.317 106.387 72.8845 106.997 72.988 107.653C72.8714 107.586 72.7528 107.523 72.6323 107.461C72.6534 107.686 72.6855 107.909 72.7307 108.131C72.4735 107.962 71.9459 107.951 71.964 108.386C71.747 108.248 71.5239 108.239 71.2938 108.354C71.5882 108.414 71.6123 108.608 71.4525 108.833C71.7178 108.834 71.8696 108.978 71.8344 109.249C71.6897 109.172 70.2336 108.629 70.7833 109.313C70.51 109.284 70.4246 109.493 70.2186 109.603C69.7985 109.827 69.1434 109.339 69.281 110.046C68.9444 109.869 68.6319 109.64 68.2611 109.536C68.5053 109.732 68.5244 110.06 68.6118 110.335C68.4239 110.033 68.1908 109.636 67.7828 109.632C68.7917 110.772 67.7556 111.892 67.4019 113.111C67.3074 113.01 67.2231 112.904 67.1447 112.791C67.4984 113.253 66.5448 113.599 66.5066 114.036C66.4503 114.662 67.1839 114.789 67.6069 115.012C68.1716 115.311 68.455 115.567 68.8248 116.088C69.0469 116.402 69.3574 116.759 69.3795 117.163C69.4006 117.547 68.9585 117.845 69.5393 117.931C69.488 117.604 69.4187 116.312 70.0186 116.686C69.7674 117.113 69.2649 118.679 70.0799 118.825C69.7794 119.063 69.6659 119.829 70.0387 120.056C70.5612 120.374 70.7029 120.862 71.0114 121.352C71.2998 121.807 71.8284 122.131 72.2293 122.478C72.6895 122.877 72.9578 123.382 73.3699 123.808C73.7256 124.175 74.1848 124.316 73.8903 124.82C73.614 125.295 73.1739 125.573 72.8141 125.97C72.6353 126.165 72.4454 126.704 72.2223 126.806C71.8244 126.989 71.0566 126.692 70.6908 126.526C70.2467 126.325 70.2658 125.735 69.8608 125.519C69.48 125.317 69.2207 125.167 68.8921 124.839C68.1284 124.072 66.9296 124.019 65.9207 123.615C65.6554 123.509 64.8706 123.22 64.8335 122.88C64.7943 122.539 65.0877 122.04 64.6958 121.832C64.0858 121.507 63.7693 121.972 63.2639 121.351C62.9664 120.985 61.9615 120.735 61.9103 121.444C61.2491 120.077 59.6383 122.046 58.6566 121.317C59.0233 120.916 56.4036 119.829 56.0308 119.573C55.7243 119.365 55.3797 119.41 55.031 119.398C54.6491 119.384 54.3647 119.129 53.998 119.114C53.4855 119.093 53.0654 119.311 52.5218 119.228C51.939 119.139 51.3481 118.969 50.8095 118.729C50.1352 118.428 46.7106 117.038 46.781 118.57C45.2817 117.82 44.3301 116.317 42.86 115.503C42.2179 115.146 41.4652 115.038 40.8362 114.691C40.2574 114.371 39.9388 113.649 39.2796 113.464C39.7409 114.046 38.2748 113.659 37.9904 113.192C37.4186 112.252 36.4791 112.361 35.5787 111.963C35.7224 111.608 36.1183 111.591 36.4067 111.42C36.1364 111.42 35.9495 111.241 35.9274 110.973C35.8159 111.039 35.7094 111.114 35.6089 111.197C35.848 110.34 36.9795 111.158 37.3332 111.484C36.5896 111.025 38.4777 111.214 38.738 111.293C38.9149 110.952 38.6536 110.663 38.6104 110.336C38.4004 111.114 38.2296 110.23 38.2597 110.016C38.9119 110.425 38.948 108.734 39.345 108.484C39.3852 108.697 39.4283 108.91 39.4736 109.122C39.6404 108.908 39.5901 108.279 39.8554 108.164C40.1649 108.03 40.5196 108.568 40.8432 108.547C40.9487 108.144 39.9499 107.578 39.6876 107.419C39.0204 107.017 38.5159 107.17 38.2286 106.249C38.6205 106.408 38.9239 106.273 39.2987 106.16C39.7138 106.036 40.0192 106.277 40.4272 106.249C40.5819 105.62 39.5681 105.606 40.9065 105.426C41.5748 105.336 42.3747 104.886 42.8208 104.493C42.24 104.67 42.5827 103.853 41.8501 103.981C41.2703 104.082 40.7136 104.498 40.1077 104.429C40.2544 104.107 40.6061 103.965 40.9417 103.983C40.5277 103.957 40.3036 104.22 39.9579 104.375C39.4836 104.588 39.0736 104.228 39.5359 103.823C38.8234 103.681 39.4977 102.655 40.0624 102.493C40.3488 102.41 40.4704 102.232 40.6111 101.985C40.8925 101.489 41.3828 101.832 41.8019 101.749C42.2792 101.654 42.8047 101.848 43.2901 101.805C43.7513 101.764 44.0859 100.46 44.0035 100.057C43.8387 100.101 43.689 100.069 43.5564 99.9613C44.1824 99.505 42.9665 99.092 42.8932 98.9292C42.6801 98.4509 43.3363 98.0922 43.7161 98.2057C43.6508 97.5275 43.1936 98.2108 42.9022 97.7113C42.6741 97.3225 42.9474 97.3084 43.2378 97.1898C44.3663 96.7326 43.1635 95.6735 43.6538 95.2052C43.3303 95.0484 43.2961 95.3157 43.0158 95.3328C42.6058 95.3589 42.1636 95.1881 41.8973 94.8706C41.5185 94.4194 40.9869 94.8183 40.6533 94.1521C40.2654 94.6063 39.0113 94.0798 38.5431 93.8356C37.6407 93.3633 37.9794 93.6597 37.2337 94.0878C37.0318 93.6085 36.4901 93.5934 36.1706 93.2387C35.8812 92.9171 35.6259 92.1755 35.1275 92.1243C34.2623 92.0378 33.566 92.8699 32.8002 92.906C32.7751 92.9071 31.9521 92.5353 31.8878 92.5011C31.4366 92.2609 31.103 91.8972 30.5614 92.1966C29.9665 92.5262 29.5334 92.2127 29.2993 91.6007C29.1596 91.237 28.5928 90.1929 28.7798 89.8422C28.1527 89.8764 27.8904 88.9931 27.2303 89.3217C26.8122 89.5307 25.7531 89.184 25.3301 89.0443C25.8265 88.7529 24.7734 87.7963 24.8618 87.6295C25.0417 87.2898 25.4597 87.4004 25.7421 87.2255C25.5361 86.7633 24.8417 86.6929 24.6297 86.2287C24.4317 85.7956 23.9684 84.845 23.3183 85.1193C22.7013 85.3786 22.1989 84.8651 21.4854 85.1505C20.7036 85.464 20.2665 85.1756 19.4556 85.1193C19.5088 85.875 18.92 86.2769 18.2196 86.0398C17.3524 85.7454 17.1203 84.846 16.9695 84.0341C16.869 83.4924 17.0127 83.4924 16.5485 83.1146C16.3144 82.9247 15.7094 82.4825 16.0943 82.164C16.9012 81.4988 17.5443 82.3429 18.3643 82.2715C18.6567 82.2464 20.0545 81.4626 19.9841 81.2134C19.8816 80.8476 19.3269 80.6456 19.0476 80.4457C18.6115 80.1321 19.3159 80.0548 18.4989 79.8518C18.0226 79.7342 17.88 79.678 17.3956 79.7794C16.7123 79.9221 17.1966 79.3393 17.1283 79.0539C17.0157 78.5746 16.4269 78.6168 16.0722 78.447C15.5898 78.2159 15.2804 77.7436 15.0171 77.2984C14.7628 76.8673 13.343 75.8816 13.9117 75.5017C14.2393 75.2827 14.0142 74.8375 13.8524 74.5983C13.5299 74.116 13.7479 73.8859 13.7067 73.3905C13.6856 73.1513 11.8949 72.3645 11.6065 72.2761C11.1393 72.1344 9.36567 73.2036 9.24509 72.4941C9.19585 72.2067 9.39081 71.9786 9.04413 71.8199C8.72157 71.6701 8.2915 71.6852 7.94984 71.7586C7.22131 71.9164 6.88567 71.227 6.18025 71.5295C5.77127 71.7043 5.62758 70.2945 5.50599 70.0825C5.18644 69.5248 4.61466 68.5611 3.91025 68.6465C4.26899 68.1792 4.46695 67.1171 3.85499 66.8458C2.44415 66.2207 2.96165 65.7575 3.91025 65.0079C3.54548 64.9596 3.29829 64.2582 2.99281 63.999C2.74259 63.787 2.83806 63.5116 2.88931 63.2383C2.97975 62.763 2.56171 62.357 2.54965 61.8837C2.5396 61.4104 3.12948 61.2316 3.32342 60.8457C3.59272 60.3061 3.5294 59.7946 4.29109 59.8046C4.20668 59.5635 3.97155 59.4439 3.75048 59.3575C3.97557 59.056 3.72033 58.9194 3.66808 58.628C3.55855 58.011 4.14841 58.631 4.46193 58.629C4.64783 58.628 4.68198 58.4189 4.7493 58.2853C4.9744 57.8361 5.40147 58.3044 5.73709 58.2813C6.32494 58.2411 6.44654 57.4703 7.10674 57.4894C7.86642 57.5105 8.57486 57.9848 9.31645 57.9848C9.99775 57.9848 8.46332 57.1689 8.42915 57.1448C7.67952 56.6313 7.02735 57.1578 6.26667 56.8865C5.73308 56.6956 4.80158 55.9841 4.41872 55.5591C4.63778 55.6837 4.86085 55.8013 5.08795 55.9108C5.00656 55.6676 4.80056 55.2677 5.1181 55.0808C4.88296 54.8316 4.38555 55.1521 4.18357 55.2868C3.64798 55.6415 3.3214 55.6304 2.69436 55.6234C3.79972 54.4477 5.33214 53.7845 6.56511 52.7585C7.84029 51.6964 8.8924 50.4101 10.2138 49.4113C10.8258 48.9471 11.0106 48.4788 11.3111 47.7985C11.5683 47.2146 11.3423 47.1152 10.8087 46.7956C9.53047 46.0289 8.22214 45.3114 6.90676 44.5799C7.41121 44.3246 9.02404 43.3248 7.9408 42.7822C7.45142 42.537 5.71499 41.9079 6.94194 41.3553C6.70881 40.887 6.25962 41.088 5.8627 40.9593C5.25978 40.7644 5.13217 40.0037 5.82452 39.855C5.72102 39.6289 5.04876 39.5415 5.23466 39.229C5.43262 38.8994 5.64869 38.2532 5.2166 38.1306C5.54619 38.0713 5.86672 37.9568 6.20435 37.9387C5.65369 36.3249 4.17251 35.528 3.17266 34.278C2.13865 32.9847 5.47282 32.2682 4.69003 31.3468C4.33732 30.9307 3.49925 30.577 3.03902 30.2625C2.45218 29.8616 1.71964 29.8465 1.12576 29.4576C0.512788 29.0557 0.427384 28.5773 0.940872 28.093C1.52973 27.5524 0.580107 27.5011 0.232422 27.4559Z" fill="#1487C0"/>
</svg>
