<svg width="60" height="25" viewBox="0 0 60 25" fill="none" xmlns="http://www.w3.org/2000/svg">
<path d="M0.0810547 10.4284C0.125269 10.0978 0.165467 8.46286 0.410655 8.36941C1.01559 8.13929 1.20953 7.26104 1.83556 6.94852C2.17018 6.78272 2.59823 7.07615 2.90673 6.8591C3.29561 6.58678 3.46245 6.7948 3.8031 6.99878C4.29046 7.2912 5.87011 7.1666 4.86826 6.56569C5.1858 6.43606 5.53145 6.45313 5.85703 6.53352C5.69525 6.5928 5.61587 6.6953 5.61989 6.84502C5.80679 7.10629 6.7564 6.95156 6.99757 6.92945C7.74117 6.86212 8.81336 7.2952 9.43537 6.75759C9.13793 6.46719 8.75407 6.72144 8.44256 6.47022C8.84249 5.44927 10.6804 5.83413 11.5104 5.64119C10.794 5.28848 9.772 5.5839 9.17109 4.96792C8.49582 4.27657 9.17511 3.70281 9.89862 3.77215C10.6925 3.84651 11.4833 4.2153 12.2912 4.04045C13.3684 3.80631 14.2427 4.39414 15.342 4.28461C15.8484 4.23437 15.9228 3.97411 16.1117 3.57819C16.3197 3.14107 17.0945 2.95014 17.4874 2.72002C18.6259 2.05279 19.5303 1.46696 20.8175 1.11827C22.158 0.755511 23.186 0.949451 24.5486 0.949451C25.0983 0.949451 25.6811 1.17557 26.2247 1.01278C26.476 0.937412 26.5604 0.636956 26.8015 0.566615C27.0467 0.494264 27.2608 0.639971 27.5019 0.662079C27.0939 1.15245 27.7913 1.81968 28.2355 1.95533C28.5711 2.05783 28.9208 2.14323 29.2745 2.096C29.6624 2.04576 29.992 1.60965 29.992 2.16233C30.0814 1.33934 30.61 2.3402 30.6864 2.57534C30.7889 2.88685 31.638 3.93994 31.9716 3.5822C32.4117 3.10891 32.882 3.21343 33.3553 3.59226C33.9321 4.0545 34.6405 4.13691 35.2856 4.45947C35.6474 4.64236 35.7107 3.89271 36.2091 4.43935C36.6091 4.87949 37.3868 4.86845 37.9365 4.92271C38.7002 4.99908 39.481 4.47152 40.2467 4.39716C40.8999 4.33285 41.2596 4.24643 41.8856 4.47051C42.7629 4.78403 43.414 4.99908 44.3174 4.57603C45.4007 4.06757 46.3915 3.48978 47.3179 2.74517C47.6887 2.44572 48.0324 2.95115 48.4072 2.95919C48.6374 2.96522 48.6172 2.64969 48.8866 2.70396C49.0614 2.73812 49.2342 2.77731 49.4081 2.81248C49.6603 2.86474 50.3768 3.1471 50.5295 2.80745C50.7184 2.39244 51.6228 2.04477 51.3425 2.67081C51.6288 2.61755 51.876 2.80041 52.08 2.97124C52.2267 3.10388 52.3795 3.22951 52.5383 3.34607C52.7955 3.37823 52.8538 3.49682 52.7141 3.70281C52.8327 4.06055 53.317 3.71286 53.513 4.00527C53.6406 4.19419 53.724 4.7589 53.9129 4.91164C54.5178 5.40001 55.0112 5.88839 54.6646 6.38681C54.3229 6.8792 55.2454 7.61074 54.761 7.93732C55.5378 8.33023 55.9357 8.24079 56.7496 8.27094C57.446 8.29606 58.4218 9.21953 58.684 9.82044C58.3062 9.50793 57.7294 9.05574 57.5696 9.82044C57.5204 10.0566 57.5817 10.3038 57.5093 10.5399C57.4149 10.8444 56.609 10.6836 56.3567 10.7781C56.5436 10.9992 56.9175 11.5679 56.9898 11.8453C57.1094 12.3075 57.3134 12.5477 57.4782 12.9757C57.7173 13.6058 57.4993 14.5273 58.3022 14.7996C58.0299 15.0568 57.8701 15.5733 57.7847 15.926C57.6129 16.6344 58.3474 16.531 58.7192 16.8736C59.094 17.2183 59.0186 17.6725 59.1382 18.1227C59.1975 18.3478 59.5964 18.4472 59.7522 18.5859C59.925 18.7397 59.7723 19.1044 59.8678 19.2994C59.1242 18.7748 58.8167 20.0772 58.3896 19.9365C57.8379 19.7536 58.2891 19.0281 57.8851 18.7568C57.6832 18.6211 57.3476 18.6331 57.1637 18.7989C56.8331 19.0964 56.3477 19.0281 55.9578 18.9045C55.3227 18.7055 54.8334 18.4955 54.1621 18.5055C53.6848 18.5126 53.3874 18.3799 53.1372 18.7989C52.8347 19.3064 52.2328 19.7616 52.0258 19.005C51.8459 18.3468 51.0139 19.1396 50.6501 19.2572C49.7136 19.5606 48.9298 19.5516 47.9802 19.426C46.2729 19.2009 44.7987 20.9182 43.0714 21.0378C42.382 21.086 41.138 21.2569 40.5592 20.8177C39.9271 20.3394 39.5322 20.0661 38.7514 20.4439C37.9194 20.8479 36.1056 21.8025 35.3891 20.9142C35.0304 20.4691 34.2657 20.3133 34.1562 21.0157C34.0487 21.706 34.2898 22.1874 34.5832 22.7792C34.2697 22.7973 33.9381 22.8847 33.6266 22.8094C33.5754 23.0827 33.7582 23.3721 33.6618 23.6394C33.5482 23.958 33.1262 24.0253 33.0237 24.373C32.7835 24.2122 32.5423 24.0303 32.2559 23.9579C32.5303 23.6012 32.1514 23.136 31.9364 22.8677C31.5335 22.3683 31.9696 22.0748 32.3856 21.7141C32.8127 21.3433 33.09 21.081 32.673 20.5203C32.5072 20.2952 32.1575 20.0189 31.9213 20.3264C31.5928 20.7514 31.2611 20.6831 30.8512 20.9916C31.5305 20.9222 30.8331 21.6055 30.3286 21.5141C29.7026 21.3995 29.1459 21.0318 28.5872 20.7514C27.2537 20.0832 26.5604 22.0427 25.9343 22.8426C25.8379 22.736 25.7434 22.6295 25.6459 22.524C25.4068 22.7762 25.248 23.2244 24.8571 23.0777C24.5185 22.9491 23.5618 23.1842 23.2423 23.345C22.6625 23.6344 21.9822 23.5912 21.4174 23.341C20.5502 22.9581 20.2377 21.9954 19.4117 21.5915C18.5043 21.1473 17.5869 20.6399 16.586 20.462C16.0605 20.3686 14.9853 20.1555 14.9853 20.9926C14.9853 21.4729 15.0737 22.3451 14.722 22.729C14.5321 22.938 14.2768 22.5501 14.096 22.526C13.6327 22.4637 13.1554 23.0104 12.6982 23.0877C12.1706 23.1762 11.3678 22.8365 10.9326 22.5572C10.602 22.3452 10.586 21.6528 10.1348 21.6307C10.4865 21.1343 9.6655 20.5957 9.56199 21.2488C9.22034 20.9494 8.35616 20.8378 8.25065 20.3223C8.17026 20.6941 7.2709 21.3071 6.97346 21.5352C7.07897 21.3121 7.0046 21.1745 6.75138 21.1202C7.0026 21.0659 7.16338 20.866 7.16439 20.6087C6.83982 20.881 5.31643 21.2066 4.8984 21.0881C5.23102 20.6831 5.85 20.658 6.32932 20.671C6.81166 20.6831 6.76143 20.8117 6.95939 20.4369C7.09705 20.1766 7.39549 20.0591 7.58139 19.844C6.99254 19.5807 4.96874 19.5466 4.4864 20.0349C3.75586 19.1778 5.14359 19.631 5.2491 19.4099C5.33552 19.225 5.32445 18.9688 5.22095 18.7939C4.97677 18.3849 4.70547 18.9527 4.83812 18.3126C4.13471 19.2119 4.18693 17.358 3.53075 17.3861C3.98496 17.1399 4.50349 16.9018 4.1136 16.2838C3.83324 15.8396 3.03133 16.0697 2.83739 15.7391C2.63742 15.3965 2.43447 14.9181 2.13501 15.516C2.00137 15.7813 1.05577 15.0679 1.03769 14.8317C1.9893 15.0608 1.1663 14.053 1.20046 13.659C1.22759 13.3345 1.74009 13.5716 1.83856 13.7304C2.03954 14.061 1.9722 14.6036 2.28371 14.8639C2.21538 14.1565 3.31572 15.0417 3.6222 14.3213C2.98813 14.2429 2.72888 13.9344 2.34603 13.4591C2.67663 13.2762 2.84845 12.8743 3.24136 12.7898C3.06651 12.2713 2.53093 12.8089 2.58016 12.2231C2.6294 11.6413 2.32089 11.5659 1.89784 11.1941C2.17921 10.8695 2.5048 10.5841 2.76205 10.2365C1.85465 9.7712 0.996491 10.7278 0.0810547 10.4284Z" fill="#1487C0"/>
</svg>
