<svg width="187" height="93" viewBox="0 0 187 93" fill="none" xmlns="http://www.w3.org/2000/svg">
<path d="M0.932083 41.8659C1.21646 40.9987 0.011625 40.2541 0.229682 39.2803C0.477884 38.176 1.42146 37.1822 1.4727 36.0577C1.4928 35.6206 0.753221 34.6579 0.908976 34.3464C1.3471 33.4702 1.8425 32.6854 2.78306 32.2905C2.35096 32.5045 2.3168 32.4633 2.67855 32.1649C2.92575 31.9157 3.22118 31.6303 3.29353 31.2685C3.41412 30.6696 4.14667 30.2707 4.40894 29.716C4.61293 29.2869 4.41295 28.6649 4.68125 28.3403C5.12842 27.8007 4.8551 27.646 4.9596 27.036C5.03396 26.6039 5.36557 26.2653 5.61377 25.9256C5.92026 25.5056 5.84188 25.1217 6.0318 24.6886C6.24684 24.1993 6.64477 23.7732 7.01556 23.3964C7.1683 23.2406 8.02043 22.3473 7.79434 22.8749C7.90186 22.6246 8.06766 22.6417 8.28672 22.5814C8.43343 22.5412 8.76303 21.9373 8.14604 22.4588C8.48066 22.0187 8.88764 21.3022 9.5187 21.2781C8.81931 21.4509 9.48352 20.8671 9.65535 20.631C9.90758 20.2843 10.1829 19.9557 10.4542 19.6241C10.8642 19.1227 11.1245 18.5006 11.6149 18.0645C12.3283 17.4295 13.0096 16.3522 13.5301 15.5282C13.7221 15.2268 14.1009 14.4641 14.5621 14.5435C14.3943 14.0461 14.9731 13.3859 15.2716 13.0553C15.6544 12.6302 15.779 11.9559 16.4201 11.9218C16.9005 11.8967 17.8511 12.3157 18.2319 11.9901C17.9777 12.1006 17.6431 11.8082 17.4371 11.7037C17.0432 11.5017 16.8321 11.6193 16.4322 11.6826C15.8293 11.7771 16.5367 10.6647 16.6352 10.4898C16.5488 10.7179 16.4523 10.941 16.3478 11.1601C16.8904 11.0435 17.1115 9.81156 17.7526 10.107C17.5486 9.93315 17.3145 9.86883 17.0502 9.91505C17.1537 9.1825 17.7787 9.19153 18.3585 9.0207C18.0932 9.03879 17.8521 8.90214 17.6883 8.70217C17.5928 8.80065 17.5084 8.90715 17.433 9.0207C17.7586 7.97966 18.5314 6.91952 18.458 5.80311C18.4228 5.27154 19.065 3.59041 19.6005 3.73109C20.4567 3.95417 21.0646 4.4385 21.968 4.59425C22.5127 4.68771 23.9074 4.55006 23.9124 5.09571C23.9747 4.8465 24.1727 4.66661 24.4229 4.61636C24.2782 4.86256 24.3807 5.17911 24.3033 5.44239C24.2099 5.75892 23.4703 6.11766 23.21 6.30859C23.9265 5.57302 22.9257 6.26535 22.785 6.36081C22.3388 6.66328 21.9389 7.02604 21.5188 7.36166C21.8324 7.637 22.1901 7.38981 22.4765 7.23406C22.2584 7.29335 22.0454 7.36669 21.8384 7.45713C21.8384 6.97479 22.4142 6.69044 22.792 6.54272C23.4412 6.2905 23.8712 5.86643 24.4551 5.5097C24.641 6.01013 23.3869 6.34675 23.21 6.88235C23.8361 6.54069 23.208 7.74854 22.6674 7.80782C22.7629 7.70131 22.8583 7.5958 22.9548 7.48828C22.5388 7.53853 22.3127 7.9435 22.0605 8.22185C22.0364 7.95355 22.1911 7.72141 22.4122 7.58375C21.9328 7.74653 21.6153 8.23693 21.1028 8.31832C21.5349 8.21583 21.5349 8.29017 21.1028 8.54139C21.4364 8.26907 21.5219 8.32232 21.3581 8.70116C21.4817 8.35046 21.7831 8.17562 22.1288 8.36454C22.3479 8.48412 22.796 8.04598 22.9508 7.94248C23.5226 7.55862 24.3204 7.32751 24.4068 6.46734C24.4691 5.8393 25.7835 5.46649 25.6418 4.99018C25.5222 4.59025 25.9664 4.26267 25.8277 3.81751C25.7232 3.48289 25.2992 3.90693 25.5403 3.33918C26.288 3.72304 26.4025 2.79856 26.7854 2.41269C26.299 2.48404 26.3925 1.84696 26.5995 1.61684C26.9743 1.20183 28.2535 1.45505 28.7609 1.45505C30.828 1.45505 32.894 1.45505 34.961 1.45505C39.0086 1.45505 43.0552 1.45505 47.1018 1.45505C55.2845 1.45505 63.4661 1.45505 71.6488 1.45505C79.8656 1.45505 88.0824 1.45505 96.2982 1.45505C100.246 1.45505 104.194 1.45505 108.143 1.45505C108.629 1.45505 108.742 0.916453 108.937 0.521539C109.103 0.187922 109.797 -0.162803 109.898 0.413993C110.016 1.08324 108.847 2.34837 109.807 2.56743C110.092 2.63174 111.498 2.62472 111.497 3.06686C111.495 3.5502 112.941 2.93422 113.205 2.82871C113.785 2.59658 114.431 3.08697 114.979 3.21056C114.816 3.46982 114.953 3.63965 115.234 3.65774C115.109 3.7934 115.108 4.36918 115.393 4.2496C115.513 4.19835 115.498 3.91496 115.649 3.91395C116.014 3.90793 116.225 4.14307 116.496 4.33902C116.716 4.49779 116.947 4.38928 116.919 4.6616C116.901 4.83845 117.05 4.90779 117.201 4.92186C118.082 5.00526 118.857 4.33702 119.703 4.32798C119.363 4.94497 120.46 4.81936 120.761 4.79524C121.044 4.77313 121.392 4.71787 121.635 4.90377C122.115 5.27054 122.458 5.05048 122.991 5.19016C121.144 5.76494 119.2 6.32666 117.487 7.24209C116.774 7.62193 116.131 8.11732 115.425 8.50922C114.637 8.94734 113.736 9.20663 113.031 9.78644C113.654 10.735 116.504 9.17847 117.308 9.11617C117.214 9.5573 116.732 10.0789 116.35 10.2979C116.563 10.3602 116.954 10.0809 117.09 10.1934C117.33 10.3934 117.268 10.4456 117.649 10.4456C118.311 10.4456 118.975 10.0286 119.563 9.77236C120.258 9.46889 121 9.6568 121.663 9.33423C122.537 8.91018 123.403 8.58057 124.235 8.06306C124.098 8.3816 124.336 8.59968 124.394 8.8931C124.457 9.20159 124.109 9.44577 124.044 9.72311C124.202 9.58946 125.556 8.7102 124.746 9.46788C125.584 8.82174 126.241 9.38448 126.667 10.1623C127.067 10.8928 127.517 10.6074 128.192 10.8576C129.126 11.2033 130.011 10.3391 130.88 10.122C131.4 9.99242 131.926 10.105 132.452 10.0658C133.116 10.0155 133.761 9.84773 134.418 9.75629C134.211 10.101 133.994 10.4416 133.907 10.8415C134.533 10.9872 135.102 10.925 135.688 10.8436C136.216 10.7712 136.059 11.8012 135.632 11.8946C136.044 11.9228 136.092 12.3891 136.334 12.6282C135.725 13.203 134.716 12.2976 134.014 12.7046C133.987 12.7206 133.555 13.2 133.571 13.198C133.156 13.2231 133.148 12.6302 132.775 12.4845C131.675 12.0554 131.005 12.8563 129.929 12.8C128.79 12.7407 128.309 13.7938 127.301 14.0642C127.471 13.6773 127.857 13.4703 128.131 13.1708C127.448 13.2824 127.158 13.7064 126.536 13.8732C126.578 13.627 126.673 13.403 126.823 13.203C125.717 13.613 124.779 14.9997 123.868 15.7272C123.636 15.9131 123.547 16.2136 123.312 16.3955C123.051 16.5974 122.684 16.5793 122.413 16.7843C122 17.0958 121.421 17.6093 121.333 18.152C122.121 17.9952 122.9 16.6648 123.775 17.0145C124.093 17.1411 123.029 18.1118 122.916 18.2434C122.542 18.6775 122.351 19.2643 121.937 19.6582C121.096 20.4591 120.746 21.4278 119.951 22.2749C119.547 22.705 119.194 23.2627 119.035 23.8355C118.888 24.3681 118.991 24.9198 118.622 25.381C118.02 26.1336 117.692 27.8339 117.985 28.7714C118.229 29.5492 119.363 29.0759 119.846 28.8619C120.961 28.3695 121.814 27.5264 122.596 26.6099C123.018 26.1145 123.402 25.597 123.679 25.0052C123.915 24.5017 123.917 23.3079 124.43 23.0386C123.603 22.5432 124.305 21.6228 124.687 21.0882C124.933 20.7435 124.875 20.3828 125.048 20.021C125.228 19.6442 125.818 19.3568 126.1 19.0373C126.419 18.6755 126.533 18.3208 126.726 17.8897C126.898 17.5038 127.259 17.4727 127.557 17.2345C127.928 16.9361 127.956 16.7482 128.45 16.6406C129.032 16.515 129.314 15.9061 129.855 15.6961C129.513 16.1292 129.406 16.72 128.993 17.1009C129.24 16.9823 129.442 16.8125 129.6 16.5904C129.557 16.8577 129.398 17.0969 129.185 17.2606C129.855 16.9793 130.136 16.3161 130.44 15.7091C130.815 14.9565 131.635 15.2509 132.249 14.8982C131.221 14.7294 132.728 13.5577 133.18 13.4743C133.454 13.424 134.07 13.8009 134.324 13.9406C134.926 14.2722 135.423 14.6872 136.063 14.9585C136.593 15.1846 136.834 15.9151 136.339 16.1543C135.864 16.3844 136.03 17.1009 135.941 17.5159C135.833 18.0233 135.424 18.8825 134.898 19.0513C134.321 19.2372 134.165 19.8331 133.627 20.0773C133.119 20.3074 132.458 20.5747 132.352 21.2128C132.213 22.0368 133.318 21.3876 133.546 21.3193C134.016 21.1776 135.746 19.3256 136.287 20.1054C136.707 20.7114 136.097 22.2106 136.031 22.8427C135.944 23.6667 135.458 25.6011 134.357 25.6855C134.733 25.2996 134.205 25.0856 133.94 25.4172C133.715 25.6995 133.614 26.0834 133.336 26.3246C133.039 26.5798 132.673 26.7275 132.374 26.9767C132.053 27.243 131.873 27.6088 131.541 27.8721C131.297 28.066 130.128 28.7895 130.79 29.0267C131.027 29.1121 131.285 29.1603 131.516 29.2598C131.619 29.3281 131.703 29.4166 131.766 29.5231C131.924 29.6467 132.269 29.5251 132.475 29.6426C132.143 29.713 131.793 29.707 131.485 29.8667C131.812 30.0557 132.137 29.7843 132.475 29.8356C132.699 29.8687 132.917 29.9823 133.145 29.9893C133.883 30.0114 134.573 29.6778 135.333 29.7009C136.069 29.722 136.737 29.0709 137.364 28.7674C138.092 28.4147 138.919 28.2228 139.689 27.9846C141.292 27.4872 142.917 26.9034 144.352 26.0191C144.959 25.6453 145.629 25.2966 146.206 24.8826C146.541 24.6424 146.876 23.6627 146.233 23.6436C146.83 22.8758 147.256 22.699 148.299 22.5583C148.862 22.483 149.489 22.485 150.048 22.5804C150.494 22.6568 150.836 23.1602 151.29 23.0457C151.864 22.901 152.379 22.9904 152.96 22.9221C153.598 22.8477 154.132 22.4377 154.715 22.2046C155.158 22.0278 155.688 22.0388 155.847 21.4921C156.011 20.9304 156.373 20.5446 156.829 20.1969C156.569 20.3114 156.144 20.4129 156.478 19.9416C156.109 20.1959 156.045 19.9999 156.221 19.7698C156.402 19.5317 156.729 19.402 156.993 19.2865C157.78 18.9418 158.39 18.4605 159.083 17.95C159.832 17.4013 160.775 16.6768 161.708 16.509C162.915 16.293 164.199 16.4748 165.419 16.4517C167.227 16.4176 169.008 16.3733 170.811 16.4638C171.157 16.4809 172.156 16.6356 172.401 16.2829C172.603 15.9925 172.806 15.6257 173.124 15.4458C173.48 15.2459 173.924 15.3544 174.321 15.1213C174.376 15.2268 174.428 15.3333 174.481 15.4408C174.876 15.272 174.726 14.8811 175.18 14.9334C175.077 14.9213 176.385 13.6984 176.519 13.611C177.06 13.2522 177.351 13.1507 177.496 12.5197C177.609 12.0253 178.133 11.556 178.525 11.2937C178.998 10.9772 179.026 10.4265 179.368 10.0145C179.843 9.44276 180.538 9.03478 181.11 8.56752C181.597 8.17059 183.268 6.24526 183.106 7.8008C183.019 8.63283 184.931 7.7586 185.178 7.69329C186.647 7.29536 186.39 9.12521 186.073 9.91704C185.79 10.6265 185.565 11.355 185.309 12.0735C185.175 12.4483 184.489 13.5175 184.743 13.9114C185.012 14.3294 185.584 13.9215 185.314 14.5445C185.122 14.9856 184.811 15.4388 185.145 15.889C185.411 15.6197 185.683 15.7333 185.768 16.0799C185.868 16.4889 185.451 16.6055 185.398 16.9732C185.835 16.6778 185.822 17.0155 185.635 17.2365C185.435 17.4737 185.067 17.549 184.781 17.6053C184.431 17.6736 184.138 17.7259 183.83 17.9269C183.609 18.0716 182.808 18.6614 183.101 17.9309C182.808 18.0274 182.601 18.3781 182.272 18.3781C182.025 18.3781 182.08 18.8443 181.792 18.9207C181.792 18.7227 181.799 18.2032 181.452 18.2836C181.061 18.3761 180.829 18.9679 180.769 18.3459C180.759 18.6333 180.665 18.5981 180.458 18.5861C180.214 18.571 180.233 19.1809 180.228 19.3035C179.717 18.9739 179.778 18.5579 179.877 18.0263C179.756 18.3961 179.325 18.4454 179.079 18.6966C178.8 18.983 178.669 19.3849 178.406 19.6854C177.79 20.3918 177.228 20.0311 176.655 20.8038C176.583 20.5958 176.529 20.5516 176.619 20.3245C176.515 20.422 176.407 20.5174 176.301 20.6109C176.507 19.7929 175.902 20.6872 175.858 20.8983C175.881 20.5456 175.926 20.1918 176.208 19.9406C176.014 20.0301 175.865 20.1687 175.76 20.3556C176.091 20.2752 175.646 21.1816 175.472 21.3133C175.456 21.1746 175.435 21.0359 175.41 20.8983C175.251 21.0289 174.73 21.4861 175.312 20.835C174.773 21.5665 175.085 20.9123 175.183 20.7073C174.835 20.9334 174.112 21.1555 174.078 21.6449C174.069 21.7856 173.361 22.4076 173.207 22.5C172.6 22.8658 170.411 24.7288 171.388 25.4634C171.081 25.6453 169.854 26.1065 169.906 26.5798C169.931 26.8039 170.448 26.8843 170.57 27.0832C170.88 27.5877 170.411 28.2047 170.968 28.7081C171.437 29.1322 172.365 28.7182 172.47 28.1122C172.08 28.1122 172.406 27.7254 172.027 27.4741C172.704 27.445 172.6 28.4368 172.38 28.8146C172.121 29.2608 170.436 29.5462 169.948 29.4849C170.047 29.2558 170.154 29.0337 170.272 28.8136C169.603 29.1603 168.895 29.6567 168.161 29.709C168.301 29.3743 168.383 28.9975 168.676 28.7513C168.36 28.9091 168.006 29.3341 167.94 28.7513C167.356 29.4768 167.323 30.1401 166.269 30.3069C166.061 30.34 164.336 30.6154 164.367 30.2194C164.35 30.6385 163.717 30.6405 163.431 30.6365C162.804 30.6284 162.479 30.6375 161.88 30.8766C160.685 31.3549 159.52 31.7509 158.493 32.5176C158.994 31.8936 159.462 31.2927 159.353 30.4425C158.938 31.1449 159.219 32.4754 158.144 32.799C157.304 33.0512 157.24 33.7003 158.138 33.7948C157.977 34.6258 157.424 35.3563 156.989 36.0617C157.096 35.8487 157.202 35.6357 157.308 35.4227C156.602 35.4056 156.42 37.358 155.619 37.2877C155.363 37.2666 154.718 38.3157 154.551 38.4976C154.176 38.9035 153.66 39.4431 153.065 39.4763C153.144 39.2743 153.659 38.7699 153.36 38.5659C152.86 38.2252 152.524 38.2052 152.171 37.6284C151.539 36.5933 153.188 36.2567 153.703 35.8055C152.921 36.1361 151.556 36.6376 151.948 37.7489C152.175 38.3921 151.937 39.0331 152.209 39.7094C152.428 40.2521 152.31 40.652 151.947 40.85C152.425 40.9484 152.199 41.3986 152.009 41.6478C152.342 40.9183 151.933 41.5815 151.871 41.7393C151.774 41.9925 151.395 42.1724 151.202 42.3462C150.683 42.8185 150.33 43.333 149.902 43.8827C149.519 44.375 148.984 44.7408 148.614 45.2252C148.395 45.5116 148.15 46.2893 147.698 46.2773C147.543 45.5608 148.198 44.8112 148.628 44.3248C148.844 44.0806 149.406 43.2677 149.68 43.2134C149.419 43.1099 149.173 43.1421 148.944 43.3099C149.029 43.0004 149.852 42.3824 149.038 42.3834C149.194 42.1804 149.311 41.9563 149.392 41.7132C149.069 42.2437 148.875 41.4579 148.786 42.1925C148.727 42.0196 148.249 41.7111 148.3 41.5353C148.392 41.2218 148.861 41.06 148.596 40.6922C148.821 40.6962 149.034 40.7495 149.233 40.852C149.17 40.5857 148.856 40.033 148.497 40.245C148.651 39.7958 148.898 40.0963 149.19 39.9164C149.68 39.615 148.908 39.412 148.626 39.6391C148.784 39.1155 149.501 39.3075 149.615 38.7136C149.512 38.804 149.406 38.8895 149.295 38.9688C149.025 38.0996 150.302 37.8605 150.891 37.7881C150.781 37.7057 150.675 37.6213 150.571 37.5319C150.818 37.4143 151.02 37.2445 151.178 37.0214C150.959 37.1581 150.737 37.2857 150.509 37.4042C150.611 37.2927 150.707 37.1741 150.797 37.0536C150.465 37.0123 150.305 37.2033 150.144 37.4565C150.033 37.6314 149.407 38.1599 149.804 37.4997C149.626 37.6303 149.498 37.8012 149.424 38.0102C149.298 37.4032 148.711 38.1077 148.753 38.3941C148.636 38.3428 148.519 38.2896 148.404 38.2343C148.449 38.4765 148.553 38.6895 148.718 38.8734C148.316 38.9126 148.365 38.9779 148.625 39.2241C147.714 38.6603 147.963 41.5001 147.728 41.7775C147.254 41.4599 147.169 40.9886 147.348 40.4691C147.198 40.8942 147.085 41.27 147.402 41.6549C147.647 41.9543 147.975 42.4025 147.57 42.7361C147.445 42.2397 146.287 42.2327 146.483 41.6508C146.318 41.6207 146.275 41.7262 146.359 41.9694C146.136 41.8448 145.958 41.6398 145.878 41.3956C145.358 41.8609 145.112 41.2619 145.56 40.8399C145.903 40.5183 146.692 40.1998 146.42 39.6069C146.442 40.2149 144.655 41.3353 145.038 41.676C145.271 41.883 145.652 41.6146 145.838 41.9342C146.152 42.4718 146.249 42.3221 146.82 42.4718C147.053 42.5341 147.213 43.0396 147.417 43.2084C147.759 43.4907 147.706 43.6465 147.398 43.9871C146.584 44.8875 146.078 43.5119 145.782 42.8627C145.751 43.4596 146.227 44.357 146.742 44.6484C147.373 45.0071 147.235 45.5457 146.45 45.4161C146.497 45.5317 146.54 45.6492 146.579 45.7678C146.088 46.0542 145.843 45.3699 145.59 45.0975C145.928 45.7045 147.206 46.6099 146.036 47.0118C145.64 45.8663 144.895 45.9577 143.866 45.5759C143.973 45.7929 144.667 45.8432 144.932 46.0311C145.297 46.2923 146.055 46.9334 145.621 47.4268C145.822 47.2118 146.079 47.2329 146.259 47.459C146.208 46.9435 146.741 47.1143 147.036 47.1987C147.409 47.3062 147.323 47.6027 147.322 47.9614C147.322 48.4377 147.276 48.899 147.234 49.3722C147.181 49.9792 147.533 50.6334 147.345 51.2252C147.312 50.7107 147.292 50.1771 147.147 49.6797C147.005 49.1974 147.389 48.697 147.025 48.2569C147.001 48.4277 146.926 48.7724 146.737 48.4478C146.727 49.0728 147.146 49.7209 146.835 50.3309C146.866 50.0807 146.802 49.8566 146.644 49.6607C146.517 50.0053 146.263 50.0455 146.035 49.7561C146.098 49.8687 146.151 49.9862 146.195 50.1078C145.945 50.2666 145.722 50.2344 145.525 50.0123C145.843 50.6615 145.198 50.1611 144.981 50.0435C145.074 50.145 145.158 50.2505 145.236 50.363C144.923 50.4424 144.657 50.7952 144.311 50.5861C143.944 50.3641 144.113 49.8636 144.311 49.5973C144.141 49.744 143.702 50.7781 143.98 50.9499C144.227 51.1026 144.568 50.7529 144.817 50.8444C145.02 50.9177 146.014 50.5771 145.97 51.0313C145.94 51.3418 145.766 51.79 145.556 52.0241C145.843 51.9296 145.954 51.6915 146.027 51.4222C146.124 51.0685 146.514 51.17 146.736 50.9389C146.976 51.4343 146.517 51.7839 146.448 52.2482C146.001 51.9246 145.697 52.6672 145.462 52.9144C145.028 53.3746 144.218 53.1124 143.768 52.822C143.835 52.7104 143.909 52.6039 143.991 52.5024C143.74 52.5627 143.57 52.7426 143.64 53.0139C143.221 52.8079 142.713 52.8622 142.331 52.5677C142.563 52.8119 144.136 53.4259 143.473 53.6842C143.22 53.7826 143.38 54.1022 143.148 54.265C142.635 54.6247 142.357 54.5875 141.853 54.1956C141.894 54.6378 142.195 54.7975 142.607 54.7463C142.886 54.7121 143.776 54.3293 143.641 54.7382C143.782 54.6589 143.932 54.5946 144.087 54.5463C143.914 54.8287 143.617 55.1874 143.321 55.3442C143.153 55.4336 142.188 55.3593 142.427 55.6004C141.922 55.518 141.228 55.4407 140.851 55.7753C140.594 56.0054 140.057 56.3983 140.224 55.7281C140.061 55.8728 140.071 56.135 140.016 56.326C139.956 56.5299 139.519 56.6113 139.352 56.7038C138.626 57.1007 138.216 57.7911 137.798 58.4744C137.854 58.2644 137.876 58.0513 137.862 57.8353C137.577 59.0733 136.426 58.6754 135.417 58.9778C134.271 59.3215 133.542 60.3474 132.85 61.2508C132.678 61.0207 132.753 60.7695 132.978 60.6127C132.6 60.8247 132.896 61.5151 132.467 61.6015C132.237 61.6477 132.333 61.8055 132.185 61.9402C131.923 62.1783 131.846 61.9331 131.605 62.0808C131.35 62.2376 130.194 63.6545 130.042 62.7822C130.183 63.5027 129.581 63.6012 129.091 63.8605C128.784 64.0232 128.536 64.181 128.172 64.1137C128.017 64.0856 127.053 64.1137 127.871 64.2514C126.902 64.4443 128.565 64.3247 127.553 64.7307C128.325 64.6553 127.041 65.2944 127.17 64.5397C127.085 65.4009 126.818 64.4111 126.787 64.2202C126.796 64.5046 126.898 64.7759 126.905 65.0592C126.912 65.414 126.151 65.9556 126.596 65.3055C126.093 66.0652 126.034 66.3425 125.128 66.6148C125.171 66.7203 125.213 66.8268 125.256 66.9344C125.053 67.059 124.841 67.0811 124.617 66.9977C124.605 67.1162 124.616 67.2328 124.65 67.3484C124.768 67.3112 124.886 67.269 125.001 67.2207C124.922 67.6156 124.538 67.7815 124.171 67.7644C124.568 67.9824 124.373 68.5713 124.076 68.2748C124.18 68.7984 123.9 68.5914 123.501 68.4989C123.745 68.5793 123.937 68.729 124.076 68.9451C123.777 69.2355 123.41 69.2003 123.248 69.6455C123.133 69.962 122.619 70.7639 122.879 71.0814C122.993 71.192 122.985 71.2925 122.855 71.3809C122.541 71.5919 122.762 71.6633 122.818 72.013C122.925 72.6943 122.756 73.4901 122.753 74.1795C122.745 75.6657 123.122 77.1679 123.628 78.5567C123.877 79.242 123.831 79.3907 123.636 80.0399C123.444 80.681 123.66 81.2678 123.724 81.9039C123.461 81.2467 123.345 80.5433 123.625 79.871C123.945 79.1003 123.18 79.2802 123.149 78.6481C123.149 79.8168 123.302 80.9312 123.614 82.0566C123.782 82.6676 124.211 83.9207 123.755 84.4904C124.8 84.3437 123.489 88.7822 123.274 89.2656C122.921 90.0564 122.421 91.7154 121.649 92.1506C121.392 92.2963 121.495 91.6772 121.172 92.1314C120.942 92.456 120.59 92.1345 120.281 92.246C119.765 92.4349 118.986 92.1867 119.543 91.5757C119.647 91.8039 119.844 91.9807 120.085 92.0541C120.22 91.7054 119.624 91.3517 119.484 91.0904C119.174 90.5156 119.401 89.8886 118.731 89.4856C118.335 89.2495 117.928 89.2143 117.882 88.6697C117.837 88.1331 118.176 87.3794 117.53 87.074C117.911 86.9443 118.103 86.5534 118.424 86.3404C118.094 86.4409 117.891 86.8328 117.562 86.9554C117.286 87.0579 117.576 85.5466 117.753 85.3506C117.532 85.5003 117.319 85.4903 117.115 85.3184C117.575 85.842 116.846 85.9545 116.605 85.3184C116.383 84.7346 116.647 83.7257 116.03 83.3399C116.528 83.3067 117.5 82.1491 117.211 81.6477C117.103 81.719 116.997 81.7944 116.892 81.8707C116.921 81.5954 116.746 81.3773 116.509 81.2638C116.355 81.4919 116.348 81.6788 116.587 81.8446C116.797 81.9913 116.34 82.4706 116.254 82.5731C116.106 82.334 115.976 82.0195 116.031 82.5731C115.626 81.2688 116.912 80.0318 117.214 78.827C117.32 78.3979 117.318 78.012 117.233 77.5789C117.086 76.8404 116.795 77.0745 116.334 76.6384C115.666 76.0033 115.444 75.0828 115.064 74.29C114.88 73.9051 114.463 73.4831 114.052 73.3474C113.451 73.1495 113.06 73.7594 112.488 73.6991C112.586 74.1875 112.14 74.0719 111.737 74.3211C111.58 74.4186 110.872 74.8839 110.955 74.4648C110.504 74.8045 109.911 74.912 109.359 74.912C109.692 74.4799 109.419 73.9152 108.977 73.6991C109.189 73.7263 109.158 73.6097 108.881 73.3474C109.314 73.681 109.453 73.264 109.026 73.2208C108.382 73.1555 108.84 72.7043 109.201 72.6139C108.891 72.6259 108.584 72.64 108.275 72.645C108.362 72.7505 108.446 72.857 108.53 72.9646C107.905 73.1233 106.867 72.3998 106.328 72.1346C106.4 72.1466 107.501 72.2983 107.423 72.0933C107.348 71.8954 106.986 71.7668 106.804 71.7286C106.477 71.6593 106.168 71.9487 105.883 72.0572C105.395 72.2431 104.705 72.2451 104.19 72.231C104.484 72.2009 104.76 72.1155 105.02 71.9758C104.75 71.8874 104.645 71.6723 104.83 71.4332C104.667 71.614 104.518 71.8049 104.382 72.0069C104.576 71.1236 104.029 71.9607 103.853 72.1476C103.588 72.427 103.273 72.5707 102.882 72.5496C103.123 72.4883 103.719 72.1989 103.361 71.8793C103.093 72.6058 102.121 72.9927 101.414 72.7093C102.123 72.9756 101.791 71.2332 101.669 70.8895C101.495 71.2613 101.282 71.6854 101.063 72.0321C100.896 72.2974 100.436 72.1426 100.176 72.2873C100.036 72.3647 99.3299 72.3878 99.4022 72.2772C99.1339 72.6812 98.8033 72.0109 98.5079 72.1335C98.6426 72.1788 97.6437 72.3948 97.4337 72.4189C96.9031 72.4802 96.8328 72.7827 96.3233 72.9575C95.4029 73.2721 95.1105 72.2159 94.2905 72.232C94.0001 72.238 93.0233 73.0671 93.5117 73.3364C93.8333 73.5132 94.391 73.4881 94.7226 73.3575C94.9939 73.251 95.5807 73.3102 95.7626 73.1545C95.6501 73.3012 94.9587 73.5966 95.0441 73.8257C95.2612 74.4035 95.5054 74.077 95.7747 73.7866C96.1274 73.4037 96.6378 73.8981 96.3826 74.3232C96.1656 74.6839 95.439 74.3885 95.5697 75.0065C95.1376 74.8477 95.0883 75.1562 95.1949 75.4888C95.3657 76.0274 95.7606 76.0767 96.255 76.2224C96.4962 76.2937 96.5936 76.6354 96.7715 76.8243C96.9494 77.0132 96.3233 77.3428 96.3364 77.592C96.0008 77.0865 95.642 77.5789 95.3466 77.8161C95.5265 77.5739 95.7053 77.3287 95.8259 77.0483C95.5245 77.0122 95.6079 76.8504 95.4863 76.6645C95.4109 76.5499 94.6552 76.2847 94.5176 76.2826C94.7698 75.8727 93.5459 75.2717 93.3971 75.4034C93.3137 75.4767 93.6303 75.953 93.6011 76.1229C93.5167 76.6173 93.359 77.0544 92.8264 77.177C92.8113 76.7148 92.8857 76.5761 92.3792 76.4756C91.5693 76.3128 91.924 76.9248 91.3482 77.0464C90.4438 77.2373 89.4711 76.1902 89.9856 75.326C89.7786 75.7129 89.2792 75.535 89.036 75.2979C88.8783 75.1421 88.7637 74.914 88.836 74.6889C88.5115 74.6377 87.9065 74.916 88.3256 74.3694C87.9256 74.3744 86.965 74.7512 87.3679 75.2949C86.762 75.1934 86.2334 75.4989 85.5853 75.331C84.8226 75.1341 84.1614 74.6668 83.4098 74.4337C83.7594 74.1262 83.9122 73.8378 83.7283 73.3796C83.5997 73.7152 83.5293 74.5342 83.1053 74.6327C82.7094 74.7251 81.9678 74.8145 81.5899 74.6236C81.7839 74.3392 82.1677 74.1272 82.1326 73.7303C81.6894 73.9524 81.2664 74.4136 81.6221 74.911C80.4464 75.0658 79.2355 75.4506 78.2709 76.156C78.5542 75.7862 79.0235 75.5461 79.4516 75.3893C79.1139 75.324 78.7813 75.4215 78.4618 75.5169C78.6798 75.2416 78.923 74.906 78.8135 74.5281C78.5271 74.5904 78.4839 74.8628 78.2387 74.9743C78.0056 75.0808 77.9865 74.6457 77.7594 74.911C77.5634 75.1401 77.7986 76.0013 78.1101 76.0927C77.5584 76.6374 76.9424 76.9971 76.4139 77.5749C75.6903 78.3658 74.3307 78.22 73.7057 78.9657C73.9188 78.9024 74.1308 78.838 74.3438 78.7747C73.8243 79.0631 73.2807 79.3214 72.7159 79.5083C72.9712 79.2742 73.3118 79.1636 73.546 78.9014C73.3279 78.9606 73.1149 79.035 72.9079 79.1254C73.4002 78.82 72.319 78.9024 72.2055 78.5507C72.2577 78.7717 72.2045 78.9626 72.0457 79.1254C72.1532 78.1768 70.874 79.6821 72.0457 79.6359C71.6488 80.0117 71.0448 80.1755 70.7685 79.5726C70.8067 80.0982 69.8963 81.2547 70.0349 80.5614C69.8008 81.0618 69.2049 80.5433 69.013 81.1352C69.2753 81.2095 69.4993 81.1462 69.6832 80.9442C69.5556 81.932 68.5829 81.7572 67.8634 81.9662C67.991 81.9833 68.1187 81.9933 68.2463 81.9974C68.1408 82.2365 68.3236 82.3933 68.395 82.5972C68.4824 82.8434 68.0071 83.38 67.8895 83.5669C67.572 84.0664 66.8817 84.0975 66.6184 83.5298C66.7671 83.7609 66.757 83.984 66.5862 84.201C66.9038 84.2754 67.2404 84.3477 67.5439 84.1699C67.4544 84.5175 67.2756 85.1014 66.9249 85.2773C66.6314 85.424 66.9058 86.1686 66.9058 86.4037C66.9058 87.1111 66.4777 88.5762 67.0334 89.149C67.1439 89.0566 67.2504 88.9611 67.3519 88.8616C67.4353 89.2002 66.6114 89.5178 66.3812 89.5509C65.926 89.6143 65.6326 88.8305 65.1111 88.8305C64.684 88.8305 64.1072 88.943 63.7234 88.7038C63.2752 88.4235 62.7496 87.7834 62.1648 87.698C61.1509 87.5503 61.179 86.8649 61.0494 85.9184C60.963 85.2823 60.7891 84.7346 60.8484 84.0804C60.8746 83.7991 61.0082 83.5358 61.0112 83.2504C61.0132 82.8384 60.4666 82.6947 60.2847 82.3591C60.0003 81.8396 59.9762 81.2276 59.6144 80.7443C59.2567 80.267 59.1271 79.7595 59.0176 79.1787C58.913 78.628 58.9713 78.0673 58.8397 77.5186C58.7744 77.2463 58.6025 77.0403 58.5262 76.7791C58.4347 76.4605 58.0137 76.2565 57.9846 75.9681C57.9313 75.4315 57.1676 75.2557 57.1153 74.6869C57.1093 74.6246 56.0984 74.491 56.0039 74.4759C54.9579 74.3221 53.8837 74.284 52.9481 74.8366C51.9302 75.4396 51.7383 76.9499 50.6359 77.5357C50.1446 77.797 49.5306 77.177 49.1598 76.9258C48.8242 76.6997 48.4654 76.5118 48.1338 76.2786C47.8806 76.1008 47.6485 75.6094 47.3731 75.5049C46.7873 75.2848 46.6627 74.3804 46.6888 73.8378C46.7059 73.472 46.8838 73.1866 46.8265 72.8098C46.7752 72.4742 46.6627 72.1607 46.6948 71.814C46.7541 71.1679 46.2065 70.9257 45.7583 70.6122C45.1313 70.174 44.7112 69.2224 44.3264 68.5813C44.0088 68.0508 43.5667 68.1532 43.4019 67.4328C43.215 66.6198 42.0041 66.87 41.4112 66.87C40.4566 66.87 39.4909 66.9102 38.5383 66.853C37.4802 66.7906 37.4119 67.3243 37.0521 68.1211C36.5949 69.131 34.4796 68.5944 33.6145 68.5944C31.8539 68.5944 30.0421 68.7612 28.2907 68.6768C27.4717 68.6386 26.7361 68.1201 26.0006 67.8036C24.9877 67.3685 23.9335 67.0208 22.9126 66.6027C20.9903 65.8159 19.0981 64.9588 17.211 64.0946C17.3326 63.769 17.6159 63.566 17.8179 63.2957C15.1369 63.3811 12.474 63.7358 9.80609 63.9981C9.77694 63.2485 10.0231 62.5461 10.0342 61.8045C10.0463 60.9001 9.41118 60.5544 8.90372 59.9103C8.38219 59.2511 8.38018 59.632 7.75113 59.3988C7.32104 59.2411 8.24955 58.1126 7.00753 58.1568C6.24584 58.1829 5.95141 57.9639 5.5575 57.3378C5.14048 56.6777 4.2793 56.7882 3.61106 56.6455C3.17294 56.55 1.78723 56.8193 1.95906 55.9361C2.06658 55.3804 2.66448 54.8649 2.6886 54.2951C2.71171 53.7485 2.00529 53.8429 2.37207 53.23C2.60218 52.8471 2.10879 52.3828 1.83245 52.0844C1.56013 51.79 1.58927 51.4091 1.56917 51.0162C1.54003 50.4445 0.771308 49.8757 0.925053 49.3612C1.16622 48.5533 1.26772 48.5583 1.82843 48.0066C2.4826 47.3605 1.9038 47.2118 1.38127 46.846C0.605507 46.3014 1.26872 45.7879 1.12904 45.1126C1.04564 44.7137 1.49783 43.8153 1.95404 43.7932C1.95505 44.0083 1.72292 44.2213 1.76311 44.4313C1.81235 44.6966 2.14396 44.9076 2.30574 45.1026C2.57404 44.2364 2.05754 43.2617 3.10361 42.8044C2.15401 41.7945 2.27861 43.7199 1.68775 43.5942C1.30992 43.5139 0.866768 42.4758 0.454771 43.0597C0.667804 42.7994 0.965248 42.0086 1.18833 42.708C1.16723 42.4005 1.14411 42.095 0.932083 41.8659Z" fill="#1487C0"/>
</svg>
