<svg width="28" height="14" viewBox="0 0 28 14" fill="none" xmlns="http://www.w3.org/2000/svg">
<path fill-rule="evenodd" clip-rule="evenodd" d="M16.0144 4.75583C15.7743 4.75583 15.7523 4.64402 15.4772 4.64402C15.5798 4.47505 15.7827 4.47253 15.867 4.29431C16.0866 3.8311 15.81 2.97279 15.2758 2.97279C14.8366 2.97279 13.788 3.62766 13.329 3.90172C13.0471 4.06985 12.9871 3.97906 12.6094 3.87986L8.86702 2.8946C8.60942 2.83408 8.38678 2.75926 8.11094 2.69116L7.19073 2.44989C7.18541 2.44821 7.17553 2.44401 7.17021 2.44233L5.93313 2.12792C5.77052 2.09177 5.69453 2.06992 5.60562 2.04217C5.49316 2.00602 5.3503 1.98417 5.22872 1.94213C4.98024 1.85639 4.71733 1.82276 4.46884 1.7429C4.20745 1.65883 3.74924 1.55375 3.64514 1.56804C3.38374 1.60419 3.0076 1.8009 2.78648 1.82108V1.93289C3.03875 1.99762 3.52052 2.26495 3.7804 2.39357C4.25 2.62727 4.80547 2.93328 5.27508 3.11654L6.02432 3.47718C6.13222 3.52846 6.17629 3.55873 6.27812 3.60412L10.4149 5.60154C10.4962 5.64525 10.4635 5.62592 10.56 5.66459C10.6581 5.7041 10.7318 5.74949 10.8108 5.79573C10.7895 5.89661 10.7523 6.04288 10.8017 6.1404C10.8404 6.21606 11.0008 6.28836 11.0874 6.30685C11.2105 6.3346 11.5388 6.31526 11.6839 6.31526L12.0198 6.87262C11.9248 6.94239 11.8245 6.98779 11.712 7.05252C11.3929 7.23831 11.0676 7.36609 10.7576 7.55692C10.6505 7.62249 10.5593 7.67125 10.4491 7.73514C10.3343 7.80071 10.2454 7.83602 10.1322 7.90495L6.91641 9.65857C6.81991 9.65857 6.81383 9.63504 6.72644 9.60898C6.65805 9.5888 6.55167 9.5661 6.50456 9.55685L6.08663 9.42487C5.95669 9.39293 5.77964 9.36182 5.63982 9.32483L3.22341 8.76663C3.12158 8.76663 3.17173 8.78933 3.05851 8.84481C2.92781 8.90786 2.64666 9.06507 2.55167 9.17519C2.57523 9.27103 2.60562 9.29793 2.65046 9.3635C2.72492 9.47027 2.71505 9.44168 2.80623 9.52491C2.90957 9.6199 2.86246 9.60981 2.94681 9.70397C3.02432 9.78972 3.03419 9.75777 3.11246 9.85529C3.26748 10.0453 3.60106 10.3572 3.69301 10.5497L2.30167 10.2697C1.89894 10.1638 1.16337 10.0671 0.738602 10.0671C0.493161 10.0671 0.260638 10.3336 0 10.4009C0.0167173 10.6169 0.225684 10.5942 0.382219 10.6472C0.493161 10.685 0.499241 10.7018 0.594226 10.7464L1.81383 11.181C1.92021 11.2163 1.92781 11.2357 2.0304 11.2752C2.12234 11.3113 2.21353 11.3365 2.28723 11.3618L3.25076 11.7081C3.32751 11.7325 3.4035 11.7762 3.46733 11.8023C3.55243 11.8376 3.64666 11.8662 3.7272 11.8872V11.9611C3.61702 11.9939 3.22341 12.3924 3.22341 12.5185C3.22341 13.0019 3.74848 12.7623 3.97037 12.7135L4.56611 12.5925C4.6497 12.5925 4.71277 12.6623 4.76292 12.7093L5.25228 13.2448C5.2576 13.2499 5.2652 13.2566 5.27052 13.2625L5.58739 13.6173C5.73784 13.8341 5.97872 14.0889 6.2462 13.9695C6.2538 13.9661 6.26216 13.9611 6.26976 13.9577L6.65958 13.7568C6.7538 13.6988 6.76748 13.6425 6.7804 13.5181C6.79711 13.3491 6.75912 13.0523 6.7462 12.8548C6.73328 12.6581 6.68541 12.4008 6.64742 12.2209C7.10942 12.1789 8.45897 11.8628 8.96125 11.7342C9.04103 11.714 9.13906 11.6896 9.20821 11.6736C9.3807 11.6333 9.51824 11.582 9.65805 11.5038L10.0577 11.2768C10.383 11.0616 10.7568 10.9053 11.0965 10.717L12.3488 10.0596C12.5616 9.93095 12.7812 9.82755 13.0289 9.77206C13.3579 9.69808 13.7204 9.6426 14.0562 9.53415C14.3792 9.43075 14.617 9.29288 14.9172 9.14745C15.0851 9.06591 15.1778 9.18276 15.3571 9.23404C15.5707 9.29541 16.6869 9.61486 16.8192 9.6964C17.1672 9.91077 17.6049 10.543 17.9331 10.8422C18.0015 10.9053 18.0228 10.9271 18.0813 11.012C18.2158 11.2054 18.4027 11.3046 18.5578 11.4879C18.5897 11.5257 18.6102 11.5551 18.6368 11.5862L19.3473 12.3621C19.5327 12.5362 19.7842 12.3016 19.9772 12.2218C20.2508 12.1091 20.1854 12.0494 20.1854 12.0494L19.8419 9.32399C20.1322 9.24917 20.3815 9.08356 20.6398 8.94401C20.7789 8.86835 20.8875 8.81287 21.0122 8.7246C21.1322 8.63885 21.1831 8.53881 21.2082 8.40767C21.2249 8.31688 21.2188 8.54049 21.2188 8.35807C21.2188 7.9907 21.0691 7.50396 20.6816 7.50396C20.3055 7.50396 19.9316 7.83097 19.6406 7.83854L19.5205 6.85665C19.4096 6.2892 19.5699 6.39764 19.9742 6.16394C20.0919 6.09669 20.1026 6.07987 20.2492 6.02271C20.3959 5.96639 20.4164 5.92435 20.538 5.85962L21.5502 5.34514C21.6026 5.31992 21.6535 5.30142 21.7158 5.26864C21.7956 5.2266 21.8891 5.1728 21.9833 5.119C22.0942 5.05427 22.1725 5.02821 22.2888 4.9744L24.3146 3.90928C24.4141 3.84876 24.5152 3.80588 24.6094 3.75292L25.209 3.45028C25.6793 3.2233 26.1201 2.90469 26.5547 2.59869L27.0426 2.17247C27.1672 2.03797 27.3655 1.89506 27.4871 1.73617L27.6915 1.47977C27.8632 1.23514 28 0.974531 28 0.670212C28 0.269216 27.3473 0.127984 27.0312 0.0708189C26.5669 -0.014088 26.1307 0.00104505 25.6505 0.00104505C25.4825 0.00104505 25.4141 0.0447584 25.2766 0.0708189L24.5798 0.265853L21.7006 1.75971C21.2074 2.05646 20.6809 2.2784 20.1854 2.57263C20.0692 2.64241 19.9848 2.65586 19.8754 2.71218L18.4096 3.50493C18.3017 3.56461 18.2302 3.61085 18.1155 3.66297C18.0023 3.71509 17.9088 3.74283 17.8078 3.80504L16.0144 4.75583Z" fill="#999999"/>
</svg>
