<svg width="20" height="18" viewBox="0 0 20 18" fill="none" xmlns="http://www.w3.org/2000/svg">
<path d="M10 2.98993L17.53 15.9999H2.47L10 2.98993ZM0.739999 14.9999C-0.0300008 16.3299 0.929999 17.9999 2.47 17.9999H17.53C19.07 17.9999 20.03 16.3299 19.26 14.9999L11.73 1.98993C10.96 0.659932 9.04 0.659932 8.27 1.98993L0.739999 14.9999ZM9 7.99993V9.99993C9 10.5499 9.45 10.9999 10 10.9999C10.55 10.9999 11 10.5499 11 9.99993V7.99993C11 7.44993 10.55 6.99993 10 6.99993C9.45 6.99993 9 7.44993 9 7.99993ZM9 12.9999H11V14.9999H9V12.9999Z" fill="#FF1111" fill-opacity="0.75"/>
</svg>
