<svg width="170" height="51" viewBox="0 0 170 51" fill="none" xmlns="http://www.w3.org/2000/svg">
<g clip-path="url(#clip0)">
<path d="M35.9926 5.18637L35.8797 5.12014C35.8664 4.93468 35.8398 4.74923 35.8332 4.56377C35.8265 3.7226 35.8332 2.88806 35.8265 2.05351C35.8199 1.19247 35.5277 0.881175 34.6843 0.874551C33.1768 0.861305 31.676 0.861305 30.1685 0.874551C29.3317 0.874551 29.0196 1.19247 29.0196 2.04027C29.013 10.8361 29.013 19.632 29.0196 28.4278C29.0196 29.2756 29.3318 29.5803 30.1818 29.5869C31.7955 29.5935 33.4093 29.5869 35.0296 29.5869C35.0761 29.5869 35.116 29.5869 35.1624 29.5869C35.8265 29.5538 36.1652 29.216 36.1918 28.547C36.1984 28.3483 36.1918 28.1496 36.1918 27.9509C36.1918 23.0562 36.1851 18.1616 36.1984 13.2669C36.1984 12.4323 36.2582 11.5912 36.3379 10.7633C36.4043 9.99494 36.6234 9.23988 36.9821 8.55767C37.4403 7.70988 38.1442 7.16014 39.0939 7.01442C40.867 6.74286 42.2284 7.2926 42.8061 9.25312C42.8327 9.33923 42.846 9.42533 42.8659 9.51144C43.1116 10.5248 43.1249 11.5647 43.1249 12.5979C43.1182 17.8635 43.1182 23.1357 43.1182 28.4013C43.1182 29.2756 43.437 29.5803 44.3269 29.5869C45.9008 29.5935 47.468 29.5935 49.0419 29.5869C49.9716 29.5869 50.2837 29.2822 50.2904 28.3748C50.297 27.6926 50.2904 27.0104 50.2904 26.3216C50.2904 21.8243 50.2838 17.327 50.297 12.8297C50.297 11.7501 50.3568 10.6705 50.6556 9.62403C51.0076 8.41858 51.7713 7.58403 52.9667 7.17338C54.9988 6.47793 56.7653 7.5178 57.084 9.61079C57.1903 10.3261 57.2036 11.0613 57.2036 11.7833C57.2102 17.2939 57.2102 22.8046 57.1836 28.3152C57.177 29.1034 57.5688 29.62 58.4653 29.5935C59.9462 29.5471 61.4272 29.5471 62.9147 29.5935C64.13 29.6333 64.3956 29.1696 64.389 28.1165C64.3691 22.692 64.3757 17.2674 64.3757 11.8495C64.3757 11.5846 64.389 11.3196 64.3824 11.0547C64.3624 9.6704 64.4089 8.27286 64.3027 6.8952C64.1034 4.17299 62.8085 2.14624 60.2716 0.980525C59.4415 0.609616 58.5583 0.384421 57.6485 0.318188C54.4277 0.0532526 51.4658 1.54351 50.0314 4.52403C49.9384 4.71611 49.8388 4.90156 49.6728 5.22611C48.3512 2.12637 46.266 0.238707 42.8327 0.278447C39.4325 0.318188 37.2211 2.05351 35.9926 5.18637Z" fill="white"/>
<path d="M155.396 5.54364L155.257 5.52377C155.25 5.33169 155.23 5.13961 155.23 4.95416C155.23 3.96065 155.237 2.96715 155.223 1.98026C155.217 1.2252 154.898 0.887406 154.134 0.880783C152.607 0.867536 151.079 0.867536 149.552 0.880783C148.729 0.887406 148.41 1.23182 148.397 2.06637C148.39 2.2452 148.397 2.41741 148.397 2.59624L148.416 28.1227C148.416 28.3016 148.41 28.4738 148.423 28.6526C148.483 29.2487 148.815 29.5666 149.413 29.5931C149.784 29.6064 150.163 29.5997 150.541 29.5997C151.85 29.5997 153.151 29.6064 154.46 29.5997C155.237 29.5931 155.582 29.2421 155.608 28.4671C155.615 28.2883 155.608 28.1161 155.608 27.9373C155.608 23.3936 155.608 18.8566 155.608 14.313C155.608 13.697 155.608 13.081 155.648 12.4651C155.721 11.3126 155.941 10.1932 156.412 9.13351C156.704 8.46455 157.169 7.88169 157.767 7.4578C159.035 6.54377 161.559 6.59013 162.336 8.88182C162.429 9.15338 162.535 9.42494 162.568 9.70312C162.668 10.6238 162.801 11.5444 162.807 12.4651C162.827 17.777 162.814 23.089 162.82 28.4009C162.82 29.3017 163.113 29.5931 164.003 29.5931C165.576 29.5997 167.144 29.5997 168.711 29.5931C169.687 29.5931 169.986 29.2951 169.986 28.3413C169.986 22.6518 169.986 16.969 169.986 11.2795C169.986 9.49117 169.946 7.70948 169.574 5.95429C169.07 3.56987 167.801 1.79481 165.503 0.847666C164.189 0.304549 162.807 0.211822 161.399 0.364159C159.666 0.549614 158.198 1.23845 157.123 2.60948C156.585 3.29832 156.173 4.09312 155.721 4.84819C155.595 5.05351 155.502 5.3052 155.396 5.54364Z" fill="white"/>
<path d="M68.9847 51.0001C69.9542 50.9538 71.0765 50.9074 72.1989 50.8345C73.3411 50.7617 74.49 50.7021 75.6322 50.563C77.3588 50.3577 79.0987 50.1656 80.8121 49.8477C85.8924 48.9204 90.8199 47.4765 95.5615 45.4166C98.9151 43.9595 102.109 42.2175 105.078 40.0782C105.35 39.8927 105.603 39.6675 105.815 39.4158C106.3 38.7999 106.094 38.0514 105.383 37.7136C105.038 37.548 104.646 37.5282 104.288 37.6606C104.035 37.7467 103.796 37.8593 103.544 37.9521C101.87 38.5879 100.21 39.2569 98.5233 39.8397C94.3927 41.2836 90.1558 42.3897 85.8525 43.158C84.0263 43.476 82.2 43.8005 80.3671 44.0323C78.7069 44.2443 77.0268 44.3569 75.3599 44.4628C73.62 44.5754 71.8735 44.6947 70.1335 44.6947C68.1944 44.688 66.2486 44.5754 64.3095 44.4628C62.6161 44.3635 60.916 44.2509 59.2292 44.0323C57.0643 43.7541 54.906 43.4031 52.761 43.0057C47.8534 42.0851 43.0321 40.7405 38.3569 38.9919C33.9208 37.356 29.6241 35.3491 25.5201 32.9978C25.3341 32.8852 25.1349 32.7924 24.9224 32.7262C24.6634 32.6401 24.3712 32.7328 24.2118 32.9514C24.0126 33.1898 24.0325 33.4482 24.1919 33.6866C24.3247 33.8853 24.4907 34.0708 24.6767 34.2231C25.8256 35.1901 26.9545 36.1836 28.1366 37.1043C34.3325 41.9261 41.1793 45.516 48.6835 47.8739C53.7173 49.4635 58.8772 50.3974 64.1302 50.8014C65.6842 50.9273 67.258 50.9339 68.9847 51.0001Z" fill="white"/>
<path d="M108.299 6.55044C108.086 6.87499 107.96 7.08031 107.827 7.27239C104.62 11.8624 101.406 16.4524 98.1848 21.0424C97.6004 21.8504 97.2883 22.8241 97.2949 23.8242C97.2883 25.1025 97.2949 26.3808 97.2949 27.6591C97.2883 27.8314 97.3016 28.0102 97.3481 28.1824C97.5274 28.805 98.0387 29.0368 98.6298 28.7652C98.7891 28.6924 98.9419 28.6063 99.1013 28.5268C102.628 26.8445 106.327 26.2881 110.205 26.765C112.423 27.0365 114.581 27.6856 116.58 28.6791C117.41 29.0898 118.034 28.7189 118.048 27.7916C118.068 26.5133 118.061 25.235 118.048 23.9567C118.041 23.1884 117.709 22.5989 116.992 22.2611C116.374 21.9697 115.763 21.6584 115.126 21.4133C112.888 20.5589 110.557 20.241 108.173 20.2211C107.92 20.2211 107.661 20.2211 107.296 20.2211C107.482 19.923 107.595 19.7376 107.714 19.5654C109.972 16.353 112.23 13.1407 114.488 9.92837C115.298 8.7759 116.128 7.63005 116.905 6.45109C117.164 6.05369 117.45 5.59005 117.483 5.13966C117.57 4.00044 117.53 2.84798 117.51 1.70213C117.496 1.18551 117.151 0.854339 116.633 0.788105C116.454 0.774858 116.281 0.768235 116.102 0.774858H99.7189C99.5396 0.768235 99.3669 0.768235 99.1876 0.781482C98.6563 0.841092 98.3176 1.15239 98.3044 1.68226C98.2844 3.00031 98.2844 4.32499 98.3044 5.64966C98.311 6.14642 98.6298 6.45772 99.1212 6.5372C99.3204 6.55707 99.5196 6.56369 99.7189 6.55044C102.282 6.55044 104.852 6.55044 107.416 6.55044H108.299Z" fill="white"/>
<path d="M107.648 30.9642C106.313 30.9046 104.845 31.0702 103.391 31.3682C101.511 31.759 99.7382 32.3949 98.1311 33.4678C97.892 33.6202 97.6729 33.8123 97.5002 34.0375C97.2279 34.4216 97.4537 34.7859 97.9252 34.7859C98.0116 34.7859 98.0979 34.7462 98.1842 34.7395C99.2601 34.6336 100.336 34.5143 101.412 34.4216C102.355 34.3355 103.304 34.2693 104.247 34.203C105.615 34.1037 106.99 34.1964 108.332 34.4878C109.633 34.7793 110.091 35.3754 110.032 36.6934C109.985 37.4617 109.872 38.2234 109.693 38.9719C109.135 41.4027 108.212 43.7208 107.296 46.0324C107.209 46.2311 107.13 46.443 107.07 46.655C106.957 47.0988 107.216 47.3637 107.648 47.2246C107.9 47.1451 108.126 46.9994 108.312 46.814C108.996 46.0986 109.719 45.4032 110.304 44.6084C111.898 42.4558 112.907 40.0184 113.525 37.4154C113.817 36.1901 114.083 34.9515 114.016 33.6997C113.93 32.0968 113.89 31.9378 112.316 31.4543C112.21 31.4212 112.104 31.3947 111.997 31.3682C110.623 31.0106 109.221 30.9311 107.648 30.9642Z" fill="white"/>
<path d="M35.9927 5.18609C37.2212 2.05323 39.4326 0.324533 42.8394 0.284793C46.2794 0.245053 48.358 2.13934 49.6795 5.23246C49.8455 4.91453 49.9452 4.72246 50.0381 4.53038C51.4726 1.54986 54.4344 0.0595981 57.6552 0.324533C58.5584 0.390767 59.4483 0.615962 60.2784 0.986871C62.8152 2.14596 64.1102 4.17934 64.3094 6.90155C64.409 8.27921 64.3692 9.67674 64.3891 11.061C64.3957 11.326 64.3824 11.5909 64.3824 11.8558C64.3824 17.2804 64.3692 22.7049 64.3957 28.1228C64.4024 29.176 64.1367 29.6396 62.9214 29.5999C61.4405 29.5535 59.9596 29.5535 58.4721 29.5999C57.5755 29.6264 57.1904 29.1097 57.1904 28.3215C57.2169 22.8109 57.2169 17.3002 57.2103 11.7896C57.2103 11.0677 57.197 10.3325 57.0908 9.61713C56.772 7.51752 55.0122 6.48427 52.9734 7.17973C51.778 7.59038 51.0143 8.42492 50.6624 9.63038C50.3569 10.6769 50.3038 11.7631 50.3038 12.8361C50.2905 17.3334 50.2971 21.8306 50.2971 26.3279C50.2971 27.0101 50.3038 27.6923 50.2971 28.3812C50.2838 29.2952 49.9784 29.5932 49.0486 29.5932C47.4747 29.5999 45.9075 29.5999 44.3336 29.5932C43.4437 29.5932 43.125 29.2819 43.125 28.4076C43.125 23.1421 43.125 17.8699 43.1316 12.6043C43.1316 11.5644 43.1183 10.5312 42.8726 9.51778C42.8527 9.43168 42.8394 9.34557 42.8128 9.25947C42.2351 7.29895 40.8737 6.74921 39.1006 7.02077C38.1443 7.16648 37.447 7.71622 36.9888 8.56401C36.6302 9.25285 36.411 10.0013 36.3446 10.7696C36.2649 11.6041 36.2052 12.4387 36.2052 13.2732C36.1919 18.1679 36.1985 23.0626 36.1985 27.9573C36.1985 28.156 36.2052 28.3547 36.1985 28.5534C36.172 29.2157 35.8333 29.5535 35.1692 29.5932C35.1227 29.5932 35.0829 29.5932 35.0364 29.5932C33.4226 29.5932 31.8089 29.5999 30.1885 29.5932C29.3451 29.5932 29.033 29.2819 29.0264 28.4341C29.0264 19.6383 29.0264 10.8425 29.0264 2.04661C29.0264 1.19882 29.3385 0.880897 30.1819 0.874273C31.6894 0.861027 33.1902 0.861027 34.6977 0.874273C35.5411 0.880897 35.8333 1.1922 35.8399 2.05323C35.8466 2.88778 35.8399 3.72895 35.8466 4.56349C35.8466 4.74895 35.8731 4.9344 35.893 5.11986L35.9927 5.18609Z" fill="white"/>
<path d="M16.5748 26.1888C15.9971 26.7054 15.5123 27.1624 15.0076 27.5863C12.1785 29.984 8.89131 30.441 5.41149 29.6263C2.90123 29.0434 1.24765 27.3876 0.477309 24.9171C-0.180138 22.7976 -0.166856 20.6516 0.543718 18.552C1.34062 16.1941 2.95436 14.5382 5.17906 13.452C6.84592 12.6373 8.63896 12.2598 10.4586 12.0081C12.0989 11.7829 13.7458 11.6107 15.3927 11.4186C15.4193 11.3855 15.4791 11.3524 15.4791 11.3193C15.4525 10.2662 15.5056 9.19981 15.3662 8.16656C15.1736 6.76903 14.2372 5.96097 12.8825 5.66292C11.8598 5.43773 10.7906 5.55032 9.83432 5.99409C8.7917 6.47097 8.10104 7.26578 7.77564 8.35864C7.72251 8.52422 7.69595 8.70305 7.63618 8.86864C7.43696 9.45812 7.12484 9.68331 6.49395 9.6237C4.97983 9.47799 3.45907 9.32565 1.94494 9.14682C1.0285 9.03422 0.769508 8.63019 0.968735 7.73604C1.64611 4.68266 3.40594 2.47045 6.28808 1.25838C10.0269 -0.298118 13.8388 -0.404092 17.6838 0.900713C17.9362 0.986817 18.1819 1.08617 18.421 1.19877C21.0508 2.42409 22.5051 4.49058 22.7708 7.36513C22.8504 8.23942 22.8837 9.12695 22.8903 10.0012C22.9036 13.2202 22.9169 16.4325 22.8837 19.6515C22.8704 21.2146 23.302 22.5989 24.245 23.8375C24.4708 24.1355 24.7033 24.4336 24.9025 24.7449C25.281 25.3476 25.2279 25.7318 24.6966 26.1888C23.4813 27.2419 22.2594 28.295 21.0375 29.3481C20.3601 29.931 19.9019 29.9244 19.2312 29.3547C18.4343 28.6858 17.7436 27.9042 17.1659 27.0432C16.9865 26.7716 16.8006 26.5133 16.5748 26.1888ZM15.5123 15.5914C14.7951 15.6311 14.1575 15.6444 13.5266 15.704C12.4707 15.8033 11.4348 16.002 10.4519 16.4458C7.93502 17.5784 6.86584 20.7112 8.16745 23.142C8.58583 23.9236 9.21671 24.4402 10.0933 24.6256C11.5211 24.9369 12.7032 24.4534 13.6927 23.4467C14.4896 22.6453 14.9611 21.6584 15.2334 20.5721C15.6451 18.9693 15.499 17.3399 15.5123 15.5914Z" fill="white"/>
<path d="M85.5474 26.189C85.0759 26.6195 84.6708 26.9971 84.2657 27.3614C82.8645 28.5999 81.2906 29.4941 79.4179 29.7789C77.9038 30.0107 76.383 30.0902 74.8689 29.759C71.7012 29.0636 69.6359 26.858 69.1511 23.6655C68.8987 22.0097 68.9452 20.3671 69.4566 18.7642C70.28 16.1943 72.0067 14.4325 74.4439 13.3264C76.0244 12.6045 77.7112 12.2534 79.4245 12.0216C80.9785 11.8097 82.5391 11.6573 84.0997 11.4785C84.206 11.4653 84.3122 11.4388 84.5115 11.4057C84.5314 10.5579 84.5579 9.71007 84.4849 8.86228C84.4783 8.79604 84.4583 8.72981 84.4517 8.66357C84.2657 6.74942 83.0571 5.68305 81.1113 5.57708C80.1683 5.52409 79.2652 5.70955 78.435 6.19968C77.6647 6.65007 77.0803 7.36539 76.808 8.21318C76.735 8.41851 76.7018 8.63708 76.6354 8.84903C76.4361 9.47163 76.1174 9.69682 75.4466 9.63059C74.3243 9.52461 73.202 9.39877 72.0863 9.28617C71.7344 9.24643 71.3824 9.22656 71.0304 9.1802C70.021 9.04773 69.7488 8.68344 69.9613 7.70981C70.4726 5.42474 71.6348 3.55695 73.5805 2.20578C75.0415 1.19241 76.6752 0.616173 78.4151 0.311498C80.9519 -0.132269 83.4755 -0.0925283 85.9592 0.655913C87.1745 1.0202 88.31 1.55669 89.2863 2.38461C90.6476 3.53708 91.4246 5.00747 91.6637 6.75604C91.7832 7.6502 91.8496 8.55098 91.8496 9.45176C91.8696 12.7105 91.8961 15.9758 91.843 19.2345C91.8164 21.1023 92.2879 22.7515 93.49 24.1954C93.6759 24.414 93.8353 24.6524 93.9681 24.9041C94.2271 25.3942 94.154 25.785 93.7423 26.1427C92.4739 27.2421 91.2055 28.3416 89.9304 29.4279C89.346 29.9246 88.8612 29.9114 88.2768 29.4146C87.4932 28.7655 86.8026 28.0105 86.2314 27.1693C86.0256 26.858 85.8064 26.5599 85.5474 26.189ZM84.4982 15.6049C82.8579 15.6314 81.3438 15.7241 79.896 16.254C77.2065 17.2342 75.958 19.9299 76.9342 22.6323C77.5053 24.2219 78.9729 25.0101 80.6332 24.6325C81.5563 24.4206 82.32 23.9503 82.8844 23.2151C83.3028 22.6786 83.6548 22.0892 83.9271 21.4666C84.6908 19.5988 84.5048 17.6316 84.4982 15.6049Z" fill="white"/>
<path d="M155.396 5.54366C155.502 5.30521 155.595 5.05353 155.728 4.83495C156.18 4.07989 156.592 3.29171 157.129 2.60288C158.205 1.23184 159.68 0.543006 161.406 0.357552C162.814 0.205214 164.195 0.304565 165.51 0.847682C167.801 1.79482 169.07 3.57651 169.581 5.95431C169.953 7.7095 169.993 9.49781 169.993 11.2795C169.993 16.969 169.993 22.6518 169.993 28.3413C169.993 29.3017 169.694 29.5931 168.718 29.5931C167.151 29.5931 165.577 29.5931 164.009 29.5931C163.12 29.5931 162.827 29.2951 162.827 28.4009C162.827 23.089 162.841 17.777 162.814 12.4651C162.807 11.5444 162.675 10.6238 162.575 9.70314C162.542 9.42495 162.435 9.14677 162.343 8.88184C161.559 6.59015 159.035 6.54379 157.774 7.45119C157.176 7.87508 156.711 8.45794 156.419 9.1269C155.947 10.1866 155.728 11.3126 155.655 12.4585C155.615 13.0744 155.615 13.6904 155.615 14.3064C155.615 18.85 155.615 23.387 155.615 27.9307C155.615 28.1095 155.622 28.2817 155.615 28.4605C155.589 29.2355 155.243 29.5865 154.466 29.5931C153.158 29.5998 151.857 29.5931 150.548 29.5931C150.17 29.5931 149.798 29.6064 149.419 29.5865C148.822 29.56 148.483 29.2355 148.43 28.646C148.41 28.4738 148.423 28.295 148.423 28.1161L148.403 2.58301C148.403 2.40418 148.403 2.23197 148.403 2.05314C148.423 1.21859 148.735 0.874175 149.559 0.867552C151.086 0.854305 152.614 0.854305 154.141 0.867552C154.905 0.874175 155.224 1.21197 155.23 1.96703C155.237 2.96054 155.23 3.95405 155.237 4.94093C155.237 5.13301 155.257 5.32508 155.263 5.51054L155.396 5.54366Z" fill="white"/>
<path d="M144.472 15.1279C144.438 18.3138 143.934 21.175 142.526 23.831C141.158 26.4141 139.219 28.4144 136.429 29.441C131.821 31.1366 125.598 30.1563 122.464 23.8443C121.574 22.0493 121.043 20.1418 120.797 18.1614C120.438 15.2935 120.544 12.4388 121.295 9.63713C121.946 7.21297 123.022 5.01401 124.848 3.23895C126.628 1.51024 128.766 0.576348 131.236 0.344529C133.328 0.152452 135.34 0.410763 137.253 1.29167C139.644 2.39115 141.317 4.21258 142.506 6.51752C143.595 8.62375 144.133 10.8823 144.352 13.227C144.418 13.9357 144.445 14.6444 144.472 15.1279ZM128.328 14.9888C128.381 16.8036 128.394 18.7641 128.839 20.6915C129.032 21.5327 129.297 22.3474 129.769 23.0826C130.247 23.8376 130.884 24.4139 131.788 24.5662C133.248 24.8179 134.464 24.3741 135.301 23.1157C135.606 22.6322 135.858 22.1156 136.038 21.5725C136.496 20.2941 136.669 18.9496 136.675 17.605C136.688 15.5982 136.642 13.5979 136.549 11.591C136.489 10.3525 136.237 9.14037 135.799 7.98128C135.48 7.14674 134.982 6.45128 134.145 6.087C132.804 5.49089 130.632 5.44453 129.516 7.54414C129.158 8.24622 128.885 8.99466 128.719 9.7696C128.334 11.4387 128.341 13.1409 128.328 14.9888Z" fill="white"/>
<path d="M68.9853 51C67.2586 50.9338 65.6847 50.9272 64.1241 50.8079C58.8712 50.4039 53.7112 49.47 48.6774 47.8804C41.1865 45.5093 34.3331 41.9194 28.1239 37.1174C26.9418 36.1968 25.8129 35.2033 24.664 34.2363C24.478 34.0773 24.3187 33.8985 24.1792 33.6998C24.0198 33.4613 23.9999 33.203 24.1991 32.9646C24.3651 32.746 24.6507 32.6533 24.9097 32.7394C25.1222 32.8056 25.3214 32.8984 25.5074 33.011C29.6114 35.3622 33.9015 37.3691 38.3442 39.0051C43.0194 40.7537 47.8407 42.0982 52.7483 43.0189C54.8933 43.4163 57.0516 43.7673 59.2165 44.0455C60.8967 44.2641 62.5967 44.37 64.2968 44.476C66.2359 44.5886 68.1817 44.7078 70.1208 44.7078C71.8608 44.7078 73.6073 44.5886 75.3472 44.476C77.0207 44.37 78.6942 44.2508 80.3545 44.0455C82.194 43.8137 84.0202 43.4957 85.8398 43.1712C90.1431 42.4029 94.3866 41.2968 98.5106 39.8529C100.197 39.27 101.858 38.5945 103.531 37.9652C103.777 37.8725 104.023 37.7665 104.275 37.6738C104.634 37.5413 105.025 37.5612 105.371 37.7268C106.081 38.058 106.287 38.813 105.802 39.429C105.59 39.6807 105.344 39.9059 105.065 40.0913C102.097 42.2307 98.9025 43.9726 95.5488 45.4298C90.8072 47.4896 85.8797 48.9269 80.7994 49.8608C79.086 50.1721 77.3528 50.3708 75.6195 50.5761C74.4839 50.7086 73.335 50.7748 72.1862 50.8477C71.0771 50.9073 69.9548 50.9537 68.9853 51Z" fill="white"/>
<path d="M108.298 6.55044H107.422C104.858 6.55044 102.288 6.55044 99.725 6.55044C99.5258 6.55706 99.3265 6.55706 99.1273 6.53719C98.6359 6.46434 98.3171 6.14642 98.3105 5.64966C98.2906 4.32499 98.2906 3.00694 98.3105 1.68226C98.3171 1.15901 98.6624 0.841092 99.1937 0.781482C99.373 0.768235 99.5457 0.768235 99.725 0.774858H116.115C116.294 0.768235 116.467 0.768235 116.646 0.788105C117.164 0.854339 117.516 1.17888 117.523 1.70213C117.542 2.84797 117.582 4.00044 117.496 5.13966C117.463 5.59005 117.184 6.05369 116.918 6.45109C116.135 7.62343 115.311 8.76927 114.501 9.92836C112.243 13.1407 109.985 16.353 107.727 19.5654C107.608 19.7376 107.495 19.923 107.309 20.2211C107.674 20.2211 107.926 20.2211 108.185 20.2211C110.57 20.241 112.901 20.5589 115.139 21.4133C115.776 21.6584 116.387 21.9697 117.005 22.2611C117.715 22.5989 118.047 23.195 118.06 23.9567C118.074 25.235 118.08 26.5133 118.06 27.7916C118.047 28.7189 117.416 29.0898 116.593 28.6791C114.594 27.6856 112.436 27.0365 110.218 26.765C106.346 26.2881 102.64 26.8445 99.114 28.5268C98.9547 28.5997 98.8019 28.6924 98.6425 28.7652C98.0515 29.0302 97.5335 28.7984 97.3608 28.1824C97.321 28.0102 97.3011 27.838 97.3077 27.6591C97.3011 26.3808 97.3011 25.1025 97.3077 23.8242C97.3011 22.8241 97.6132 21.8504 98.1976 21.0424C101.425 16.4656 104.633 11.8756 107.834 7.27239C107.966 7.08031 108.093 6.87499 108.298 6.55044Z" fill="white"/>
<path d="M107.648 30.9642C109.222 30.9311 110.623 31.0106 112.004 31.3682C112.111 31.3947 112.217 31.4212 112.323 31.4543C113.904 31.9378 113.944 32.1034 114.023 33.6997C114.09 34.9515 113.824 36.1967 113.532 37.4154C112.914 40.0117 111.911 42.4491 110.311 44.6084C109.727 45.4032 109.003 46.0986 108.319 46.814C108.133 47.006 107.907 47.1451 107.655 47.2246C107.223 47.3637 106.964 47.0921 107.077 46.655C107.137 46.443 107.216 46.2377 107.303 46.0324C108.219 43.7142 109.142 41.4027 109.7 38.9719C109.879 38.2234 109.992 37.4617 110.039 36.6934C110.098 35.3754 109.634 34.7793 108.339 34.4878C106.997 34.1964 105.622 34.0971 104.254 34.203C103.311 34.2693 102.362 34.3355 101.419 34.4216C100.343 34.521 99.2671 34.6336 98.1913 34.7395C98.105 34.7462 98.0187 34.7859 97.9323 34.7859C97.4542 34.7859 97.235 34.4216 97.5073 34.0375C97.68 33.8123 97.8925 33.6136 98.1382 33.4678C99.7453 32.4015 101.518 31.759 103.398 31.3682C104.845 31.0702 106.313 30.9046 107.648 30.9642Z" fill="white"/>
</g>
<defs>
<clipPath id="clip0">
<rect width="170" height="51" fill="white"/>
</clipPath>
</defs>
</svg>
