<svg width="170" height="29" viewBox="0 0 170 29" fill="none" xmlns="http://www.w3.org/2000/svg">
<g clip-path="url(#clip0)">
<path d="M14.3384 0.303173C22.0455 0.400392 28.654 7.17716 28.4605 14.7832C28.2669 22.3892 21.7267 28.9715 14.2587 29.0001C6.79066 29.0287 0 22.2233 0 14.5658C0 6.90838 6.68252 0.211672 14.3384 0.303173ZM12.5226 18.0886L13.3024 17.4767C14.2985 18.4603 15.5053 19.3067 16.2452 20.4619C17.526 22.4578 19.1368 22.8695 21.573 22.1318L17.7764 16.6646C19.6491 14.3771 20.5883 11.8837 18.7782 9.1673C16.7575 6.13634 13.5927 6.5195 10.5873 6.65103C10.1262 6.65103 9.30657 7.35444 9.29519 7.7376C9.2098 12.5986 9.23826 17.4596 9.23826 22.5321L12.5226 22.2519V18.0886Z" fill="white"/>
<path d="M44.7171 18.0143L51.3769 26.9184C47.3924 28.1423 46.1572 27.7877 43.9202 24.8139C43.0696 23.7976 42.279 22.732 41.5523 21.6228C40.4139 19.6155 38.8087 18.9121 36.2587 19.7757V27.2902H31.8018V1.95019C35.0178 1.95019 38.2623 1.527 41.3531 2.03597C47.6144 3.07107 50.3865 10.6485 46.6012 15.7897C46.0491 16.5331 45.4059 17.2079 44.7171 18.0143ZM36.3497 14.583C39.0023 14.6173 41.6662 15.2464 42.9184 12.6329C43.1977 11.9246 43.3219 11.1642 43.2826 10.4034C43.2433 9.64256 43.0415 8.89916 42.6907 8.2237C41.2393 5.85612 38.7063 6.37653 36.2074 6.81688C36.2074 8.74983 36.2074 10.5284 36.2074 12.3069C36.2302 12.9531 36.2928 13.5994 36.3497 14.583Z" fill="white"/>
<path d="M69.5121 7.03984V27.0556C66.0342 27.353 62.6816 27.9992 59.3233 27.8277C55.2762 27.6504 52.6294 25.0254 51.2291 21.2911C49.6012 16.9334 50.3525 12.8559 53.4547 9.43029C56.0902 6.51371 59.3859 5.86749 63.2622 6.94834C65.1235 7.46875 67.2524 7.03984 69.5121 7.03984ZM64.8901 17.1564C64.8901 13.9081 62.7044 11.1974 60.0746 11.1631C57.4449 11.1288 55.2705 13.7537 55.2136 17.0534C55.2136 20.5877 57.3196 23.2011 60.1486 23.1325C62.841 23.0639 64.8901 20.4561 64.8901 17.1564Z" fill="white"/>
<path d="M72.9395 27.2272V0H77.4419V14.1483C81.9671 11.0945 84.2439 4.70657 90.5052 7.15993L81.4833 16.0126L92.8105 26.581C88.9342 27.6618 85.7922 27.8448 83.3787 24.5165C81.9159 22.492 79.8838 20.8908 77.6013 18.5918V27.2272H72.9395Z" fill="white"/>
<path d="M136.069 18.4889C137.645 23.5672 140.742 24.3392 145.523 21.2396L149.132 23.2812C146.923 26.8669 143.195 28.5482 139.421 27.7934C135.232 26.9527 131.635 23.4185 131.003 19.2152C130.748 17.5337 130.808 15.8192 131.179 14.1598C132.431 8.80126 137.253 5.54727 142.114 6.57093C146.975 7.59459 150.43 12.8616 149.553 18.5003L136.069 18.4889ZM144.533 14.1598C143.776 11.7807 142.427 10.7914 140.412 10.8657C138.397 10.9401 136.951 11.8951 136.12 14.1598H144.533Z" fill="white"/>
<path d="M152.149 27.2329V7.21716C155.462 6.97126 158.707 6.44513 161.928 6.5595C166.368 6.71391 169.624 10.4998 169.971 15.3321C170.017 15.9898 169.971 16.6532 169.971 17.3166V27.1758H165.099C165.099 23.6072 165.099 19.9529 165.099 16.31C165.099 13.1132 163.63 11.2432 161.114 11.1631C158.599 11.0831 156.766 13.0789 156.72 16.31C156.663 19.8957 156.72 23.4814 156.72 27.2844L152.149 27.2329Z" fill="white"/>
<path d="M110.825 27.13C107.774 27.4274 105.002 27.8049 102.219 27.9478C97.9952 28.1594 93.8798 25.1227 93.3903 20.725C92.9007 16.3272 93.2821 11.7236 93.2821 7.07422H97.8358C97.8358 10.8086 97.8358 14.4629 97.8358 18.1172C97.8358 21.3483 99.3043 23.0868 101.934 23.1269C104.564 23.1669 106.169 21.4112 106.237 18.243C106.317 14.583 106.237 10.9115 106.237 7.10853H110.791L110.825 27.13Z" fill="white"/>
<path d="M130.059 22.4348C128.533 26.3694 126.188 28.0621 123.194 27.9592C120.103 27.8505 117.257 25.7689 116.688 22.6464C116.244 20.1588 116.375 17.5739 116.278 15.0347C116.238 14.0168 116.278 12.9988 116.278 11.8551L113.045 11.4948V7.20568L116.164 6.69671V1.88721H121.02C121.111 3.48847 121.202 5.05542 121.304 6.9369H128.072V11.552H121.15C121.15 14.9832 121.02 18.0771 121.202 21.1481C121.31 22.9552 122.636 23.2698 124.315 22.9667C125.994 22.6636 127.901 22.6178 130.059 22.4348Z" fill="white"/>
<path d="M12.5225 14.8691V9.68213C13.8544 10.1682 15.0384 10.3455 15.8296 10.9975C16.2508 11.3406 16.3305 12.9018 15.9548 13.2449C15.1864 13.9541 14.0024 14.2171 12.5225 14.8691Z" fill="white"/>
</g>
<defs>
<clipPath id="clip0">
<rect width="170" height="29" fill="white"/>
</clipPath>
</defs>
</svg>
