<svg width="170" height="68" viewBox="0 0 170 68" fill="none" xmlns="http://www.w3.org/2000/svg">
<g clip-path="url(#clip0)">
<path d="M86.1811 42.0594C84.952 45.2186 83.347 48.1376 80.7261 50.3896C76.0363 54.416 70.5147 55.6567 64.5025 55.1071C59.4954 54.6481 55.0403 52.9298 51.4836 48.858C51.3796 50.3202 51.2357 51.593 51.217 52.8604C51.217 53.7783 50.7744 53.9117 49.9852 53.8957C47.9056 53.8503 45.818 53.8263 43.7411 53.8957C42.7359 53.933 42.592 53.5515 42.6453 52.671C42.9545 47.5506 42.8772 42.4249 42.7546 37.2992C42.8475 34.8464 42.8003 32.3903 42.6133 29.9429C43.0799 29.5587 42.8212 29.041 42.8212 28.6088C42.8426 19.0707 42.8506 9.53268 42.8452 -0.00537109H51.6276C51.393 1.52886 51.5423 3.07377 51.5343 4.61335C51.5103 9.60562 51.5343 14.5979 51.5343 19.5928V21.2204C54.3391 17.9118 57.7358 16.2549 61.5884 15.5504C66.7421 14.6086 71.8185 14.7793 76.6389 17.1007C83.4776 20.3933 87.5888 27.7896 87.1249 35.8717C87.0796 36.6722 87.0529 37.4593 87.0156 38.2518C86.5957 39.4857 86.3158 40.7629 86.1811 42.0594ZM51.5209 35.122C51.5145 36.3654 51.646 37.6057 51.9129 38.8201C53.2033 44.0445 56.1787 47.7614 61.5964 48.9835C66.9287 50.1815 71.5652 48.8074 75.0472 44.4901C77.8093 41.0668 78.4679 37.0378 78.0066 32.7286C77.7986 30.5522 77.0559 28.4612 75.8446 26.6418C74.6333 24.8224 72.991 23.3311 71.0642 22.3009C69.1373 21.2707 66.9858 20.7335 64.8012 20.7373C62.6166 20.7411 60.4669 21.2856 58.5436 22.3224C53.4512 25.028 51.6996 29.6708 51.5209 35.1166V35.122Z" fill="white"/>
<path d="M42.6133 29.959C42.8003 32.4064 42.8475 34.8625 42.7546 37.3153L10.4407 37.3367C8.78235 37.3367 8.78235 37.3367 8.98231 38.991C9.7555 45.3947 15.1678 49.7173 22.1265 49.5278C24.6434 49.4585 27.0509 49.0129 29.2158 47.6281C30.2343 46.977 31.3781 46.2939 31.7834 45.1946C32.6232 42.9346 34.2922 42.908 36.2119 43.028C37.7216 43.1084 39.2346 43.1084 40.7443 43.028C41.7761 42.98 41.9441 43.3322 41.6588 44.2501C40.475 48.0576 38.0088 50.7552 34.5215 52.5803C31.2315 54.304 27.6721 54.923 24.0115 55.0671C19.6763 55.2325 15.4104 54.891 11.3152 53.3648C5.33233 51.1341 1.81832 46.8169 0.533233 40.6133C0.386594 39.9062 0.511904 39.1217 0 38.5054V31.8668C0.501239 31.3011 0.405257 30.5674 0.533233 29.9056C1.84765 23.2377 5.59895 18.6483 12.0911 16.415C15.917 15.0996 19.8763 14.726 23.8808 14.9422C34.4468 15.5399 40.9496 21.0151 42.6133 29.959ZM21.388 31.6053C25.2006 31.6053 29.0132 31.5813 32.8258 31.6266C33.679 31.6266 33.8923 31.3598 33.8096 30.5594C33.4444 26.9813 31.8953 24.0649 28.6799 22.3652C23.7022 19.745 18.6872 20.0118 13.8934 22.9095C11.2752 24.5105 9.68351 26.8932 9.17161 29.9617C8.90499 31.608 8.87033 31.6053 10.4834 31.6053H21.388Z" fill="white"/>
<path d="M86.1816 42.0595C86.3198 40.7626 86.6033 39.4854 87.0268 38.252C89.525 33.5265 93.9748 31.9603 98.8033 31.0771C104.69 30.0098 110.649 30.362 116.584 30.3646C117.837 30.3646 118.24 30.0978 118.184 28.7931C118.058 25.3484 116.512 22.8883 113.27 21.6128C109.804 20.2627 106.242 20.2334 102.715 21.346C100.55 22.0264 98.8806 23.3739 98.182 25.6499C98.0221 26.1835 97.7475 26.3329 97.2276 26.3276C94.7427 26.3089 92.2605 26.2983 89.7756 26.3276C89.0371 26.3276 89.0024 26.0154 89.1011 25.4337C89.669 22.1652 91.5273 19.7931 94.2761 18.0694C97.5155 16.0389 101.147 15.3185 104.895 15.025C109.079 14.6968 113.211 14.8942 117.258 16.1376C119.372 16.8158 121.332 17.9037 123.025 19.3395C123.156 19.4702 123.247 19.7958 123.479 19.5636C123.647 19.3955 123.447 19.1874 123.292 19.03L122.082 16.4551C124.801 16.4551 127.393 16.5645 129.971 16.4124C131.57 16.3217 132.352 16.8234 133.063 18.2802C137.249 26.8639 141.563 35.3836 145.842 43.9193C146.053 44.3382 146.165 44.8292 146.6 45.152C147.09 44.8345 147.197 44.2902 147.423 43.8366C151.796 35.099 156.151 26.3543 160.488 17.6025C160.92 16.7273 161.391 16.3911 162.386 16.4231C164.908 16.5058 167.433 16.4525 169.95 16.4525C170.094 17.0688 169.713 17.4451 169.502 17.8586C161.192 34.1704 152.885 50.4805 144.579 66.7887C144.096 67.736 143.573 68.0241 142.558 67.9974C139.892 67.9254 137.244 67.9734 134.559 67.9734C134.501 67.3891 134.863 67.0182 135.079 66.6046C137.153 62.6503 139.214 58.688 141.347 54.7657C141.787 53.9652 141.731 53.3675 141.313 52.5911C136.691 43.9869 132.081 35.3711 127.483 26.7439C127.358 26.509 127.241 26.2716 127.102 26.0448C126.963 25.818 126.803 25.6846 126.569 25.8073C126.395 25.8954 126.441 26.0901 126.465 26.2716C127.281 32.4379 126.678 38.6362 126.846 44.8211C126.921 47.5614 126.766 50.3097 127.099 53.0393C127.177 53.6824 126.99 53.9092 126.331 53.8985C124.198 53.8691 122.066 53.8638 119.946 53.8985C119.279 53.8985 119.101 53.6077 119.079 53.042C119.023 51.6358 118.957 50.2297 118.882 48.5834C117.121 50.8078 114.795 52.5173 112.147 53.5329C106.458 55.7022 100.648 56.0197 94.8173 54.1493C89.1358 52.3216 86.5096 48.538 86.1816 42.0595ZM104.552 49.6293C104.994 49.6293 105.437 49.6507 105.885 49.6293C113.726 49.1997 118.242 44.5597 118.184 37.0886C118.184 36.1814 117.965 35.8612 117.013 35.8959C113.547 36.0213 110.097 36 106.644 36.1627C104.218 36.2828 101.792 36.563 99.4698 37.4008C97.1956 38.2253 95.4706 39.5354 95.2706 42.1502C95.0573 45.0373 96.3371 47.2946 98.8753 48.5327C100.659 49.4132 102.579 49.688 104.552 49.6293Z" fill="white"/>
<path d="M123.3 19.0405C123.454 19.1873 123.654 19.3954 123.486 19.5742C123.255 19.8063 123.164 19.4808 123.033 19.35L123.3 19.0405Z" fill="white"/>
</g>
<defs>
<clipPath id="clip0">
<rect width="170" height="68" fill="white"/>
</clipPath>
</defs>
</svg>
