<svg width="170" height="39" viewBox="0 0 170 39" fill="none" xmlns="http://www.w3.org/2000/svg">
<g clip-path="url(#clip0)">
<path d="M169.999 9.48711C168.125 14.1254 166.238 18.7562 164.392 23.4033C162.845 27.2974 161.394 31.2243 159.816 35.1095C158.874 37.4382 157.369 39.0553 154.583 38.9986C152.085 38.9468 151.792 38.6277 152.386 36.0581C156.69 36.3962 159.354 32.5854 157.712 28.4983C155.321 22.5493 152.965 16.584 150.613 10.6224C150.454 10.2213 150.363 9.79491 150.238 9.37485C153.397 8.59906 153.685 8.73151 154.735 11.6227C156.51 16.5007 158.261 21.3876 160.219 26.8193C160.654 25.7837 160.933 25.2135 161.139 24.6181C162.55 20.5369 163.953 16.4528 165.346 12.3657C166.498 9.01029 166.5 9.01029 170.003 9.1049L169.999 9.48711Z" fill="white"/>
<path d="M48.2524 15.7086C48.2524 11.3263 48.2861 6.94409 48.2299 2.5631C48.2137 1.2449 48.6534 0.788255 49.9788 0.813484C53.8138 0.887909 57.6526 0.775641 61.4876 0.860157C68.4394 1.00901 72.3281 7.32757 69.4549 13.7496C68.1196 16.7417 65.6674 18.0889 62.5557 18.234C59.8562 18.3601 57.1479 18.2933 54.4447 18.3059C52.0037 18.3185 52.0012 18.3147 51.9975 20.8628C51.9975 23.5308 51.9275 26.2 52.02 28.8642C52.0724 30.3779 51.2705 30.4649 50.1349 30.4687C48.9994 30.4725 48.2099 30.3426 48.2312 28.8566C48.2936 24.4718 48.2537 20.0908 48.2524 15.7086ZM57.2129 14.9442C58.532 14.9442 59.8574 15.0249 61.1691 14.9278C64.4932 14.6843 66.3457 12.7581 66.3857 9.61582C66.4282 6.3058 64.6368 4.27866 61.2378 4.06548C58.6095 3.91032 55.9637 4.02385 53.3279 3.95447C52.1511 3.92294 51.7764 4.46914 51.8076 5.56155C51.8438 6.89237 51.8076 8.22572 51.8076 9.5578C51.8114 14.9997 51.8114 14.9997 57.2129 14.9442Z" fill="white"/>
<path d="M45.817 19.6909C45.817 25.8543 41.0163 30.6655 34.5443 31.107C25.1753 31.744 18.8544 24.7342 19.6926 14.6073C20.1398 9.20707 21.9961 4.59776 26.9254 1.77339C33.5599 -2.0286 42.5004 0.539698 45.1899 7.02603C45.4934 7.75641 45.6283 8.55742 45.8407 9.32564C42.9513 10.1153 42.5828 9.96519 41.4223 7.64414C39.0551 2.90995 31.4588 1.7305 27.3064 5.45301C22.1435 10.0913 21.9986 20.9145 27.0429 25.6638C31.9347 30.2744 39.8496 28.2195 41.8745 21.8227C42.7377 19.0993 42.7664 19.0829 45.817 19.6909Z" fill="white"/>
<path d="M150.402 23.7805C150.12 26.0511 149.229 27.6632 147.679 28.8868C142.045 33.3346 133.628 30.5052 131.768 23.5534C131.008 20.7164 130.988 17.9034 131.994 15.1182C133.493 10.9819 137.353 8.32782 141.613 8.50064C145.873 8.67346 149.012 11.2973 150.27 15.7262C151.623 20.4957 151.506 20.6572 146.772 20.6584C143.373 20.6584 139.974 20.7089 136.576 20.6395C134.961 20.608 134.64 21.2551 134.981 22.7347C135.625 25.5364 137.455 27.4021 140.171 27.831C143.453 28.3469 145.593 27.4525 146.951 24.7102C147.798 23.011 149.036 23.841 150.402 23.7805ZM147.279 17.6688C146.892 13.6322 144.024 11.1307 140.505 11.4739C137.276 11.7892 134.855 14.572 135.189 17.6688H147.279Z" fill="white"/>
<path d="M88.5677 23.2785C88.4715 27.276 85.5471 30.2164 81.6484 30.7399C77.8908 31.2445 74.2994 30.6629 71.9434 27.4223C69.1053 23.5194 68.6693 19.0854 70.5206 14.5695C71.3022 12.6405 72.673 11.0137 74.4336 9.92604C76.1942 8.83835 78.2527 8.34651 80.3093 8.52212C84.4628 8.87911 87.5159 11.5975 88.6314 15.9369C88.7101 16.2434 88.7651 16.5575 88.8325 16.8678C89.6245 20.526 89.5221 20.6521 85.9057 20.6585C82.2543 20.6585 78.6016 20.7127 74.9527 20.6383C73.2514 20.6029 72.8778 21.2879 73.2588 22.8407C73.9397 25.6071 75.8347 27.4488 78.5592 27.8436C81.847 28.3217 83.6808 27.3075 85.3872 24.69C85.8919 23.9218 87.3422 23.7893 88.5677 23.2785ZM85.4022 17.6524C85.5696 14.326 82.9738 11.5849 79.6272 11.4525C76.1545 11.3162 73.3813 13.9753 73.3513 17.6524H85.4022Z" fill="white"/>
<path d="M115.153 12.1703C117.732 8.97885 120.825 7.89905 124.522 8.79468C127.082 9.41404 128.979 10.948 129.119 13.6853C129.385 18.8837 129.381 24.0972 129.435 29.3045C129.45 30.7841 128.227 30.2316 127.456 30.3262C126.464 30.4524 125.936 30.055 125.948 28.9386C125.982 25.6955 125.958 22.4523 125.957 19.2091C125.957 18.446 125.957 17.6828 125.957 16.9196C125.942 13.4923 124.944 11.9672 122.42 11.5156C119.499 10.9934 116.424 12.6509 115.566 15.3403C115.228 16.4087 115.103 17.5819 115.081 18.7109C115.019 22.0158 115.019 25.3221 115.081 28.6296C115.105 29.891 114.798 30.4852 113.414 30.4751C112.125 30.4662 111.625 30.0638 111.635 28.7204C111.682 22.7437 111.67 16.7657 111.644 10.7878C111.644 9.65246 111.881 9.00786 113.209 9.03814C114.361 9.06589 115.023 9.33331 114.929 10.6376C114.902 11.0527 115.05 11.479 115.153 12.1703Z" fill="white"/>
<path d="M108.698 30.1988H105.405C105.405 25.8191 105.405 21.5743 105.405 17.3321C105.405 13.4973 104.254 11.7982 101.455 11.4778C98.0364 11.0867 95.0309 13.0861 94.6798 16.5904C94.2751 20.6194 94.405 24.7052 94.3788 28.7671C94.3713 29.9591 94.0403 30.4473 92.7761 30.4852C91.3158 30.5281 90.9747 29.9528 90.9897 28.5816C91.0509 22.7336 91.0197 16.8856 91.011 11.0363C91.011 9.988 90.886 9.06589 92.4775 9.01795C94.069 8.97002 94.4662 9.64867 94.3151 11.0464C94.2888 11.2848 94.385 11.5358 94.4637 12.0114C94.886 11.6329 95.1995 11.3806 95.4743 11.0892C97.9365 8.50076 102.034 7.71488 105.237 9.23492C107.454 10.2882 108.618 12.1489 108.667 14.533C108.771 19.6784 108.698 24.8188 108.698 30.1988Z" fill="white"/>
<path d="M13.6162 0.946045C14.1795 0.864052 14.4256 0.806025 14.673 0.794672C17.4137 0.668528 17.4212 0.668528 17.4212 3.38441C17.4212 9.74082 17.3887 16.0997 17.4337 22.4562C17.4562 25.7157 16.7404 28.6006 13.5937 30.1333C10.2858 31.7442 6.82805 31.8249 3.62262 29.9378C0.32351 27.9876 -0.132445 24.67 0.0274515 21.0257H3.60139C3.72631 22.0815 3.81125 23.078 3.97615 24.0531C4.44459 26.8371 6.0523 28.0355 9.09783 27.9169C11.7674 27.8122 13.4025 26.3893 13.53 23.7088C13.6799 20.5362 13.6087 17.3536 13.6149 14.1748C13.6249 9.80894 13.6162 5.43678 13.6162 0.946045Z" fill="white"/>
</g>
<defs>
<clipPath id="clip0">
<rect width="170" height="39" fill="white"/>
</clipPath>
</defs>
</svg>
