<svg width="170" height="39" viewBox="0 0 170 39" fill="none" xmlns="http://www.w3.org/2000/svg">
<g clip-path="url(#clip0)">
<path d="M18.7975 39C18.9338 38.9447 19.0001 38.9156 19.0639 38.8924C22.6188 37.6413 25.6341 35.5863 28.2137 32.8749C29.7619 31.2478 31.0507 29.4437 32.0046 27.4103C32.8067 25.7033 33.3406 23.8845 33.5877 22.0171C33.7721 20.6318 33.836 19.2439 33.7276 17.85C33.4743 14.6127 32.3678 11.745 30 9.42967C28.2025 7.67031 26.0419 6.6353 23.5479 6.26785C21.8948 6.02405 20.2433 6.08136 18.5893 6.2583C16.4741 6.4832 14.4052 7.02257 12.4518 7.85831C10.2703 8.78926 8.30929 10.0615 6.52453 11.6098C4.88821 13.0313 3.44388 14.6213 2.25641 16.4354C1.35907 17.8031 0.643726 19.2801 0.12817 20.8298C0.104061 20.916 0.0601954 20.9955 0 21.0621L0 0H39.2946V39H18.7975Z" fill="white"/>
<path d="M4.48468 25.1917C4.44972 22.7004 4.69492 20.4665 5.38947 18.2909C6.39406 15.1482 8.12157 12.4825 10.765 10.4462C12.4743 9.1297 14.4202 8.3782 16.5773 8.16305C17.9243 8.02884 19.2557 8.07157 20.5637 8.45159C22.2259 8.93416 23.5993 9.86259 24.7589 11.1193C26.4955 13.0013 27.5731 15.2186 28.0635 17.7043C28.7438 21.1512 28.5832 24.5734 27.5366 27.9312C26.567 31.0423 24.8349 33.6693 22.2446 35.7021C20.6438 36.9588 18.817 37.7057 16.79 37.9857C15.2525 38.1979 13.7373 38.1511 12.2468 37.6972C10.4357 37.1442 8.98482 36.0715 7.7781 34.647C6.27197 32.8685 5.34641 30.8156 4.86919 28.5561C4.64061 27.4481 4.51193 26.3222 4.48468 25.1917Z" fill="white"/>
<path d="M87.7442 23.8502H76.8437C76.7449 24.2222 76.829 24.5539 76.8619 24.8837C76.917 25.4715 77.0731 26.0457 77.3234 26.5812C77.7591 27.5031 78.4542 28.1506 79.4329 28.4612C80.6032 28.8327 81.779 28.8634 82.9102 28.328C83.9371 27.8424 84.6864 27.096 84.9589 25.9574C84.9646 25.9329 84.9731 25.9091 84.9843 25.8865C84.9954 25.8649 85.0121 25.8453 85.0349 25.8152H87.4666C87.4505 25.9504 87.427 26.0846 87.3962 26.2173C86.8896 27.9264 85.9068 29.2731 84.3155 30.1492C83.6408 30.5207 82.9097 30.7082 82.1488 30.7881C81.0616 30.9017 79.976 30.9213 78.9066 30.6373C76.8918 30.0974 75.5412 28.8161 74.7468 26.9351C74.0943 25.3914 74.0057 23.7733 74.1683 22.1306C74.2752 21.0503 74.5229 20.0037 74.9895 19.017C76.0098 16.8555 77.7252 15.6295 80.1062 15.3148C81.0424 15.1906 81.9761 15.1987 82.8966 15.4209C84.5324 15.815 85.7077 16.7972 86.5056 18.2454C87.0274 19.1924 87.3293 20.2154 87.4869 21.2735C87.6105 22.1019 87.6571 22.9414 87.7442 23.8502ZM76.7809 21.8581H85.0724C84.9919 20.7522 84.7685 19.7182 84.085 18.8421C83.8892 18.596 83.6607 18.3773 83.4057 18.1921C82.2263 17.3245 79.8336 17.0359 78.2546 18.555C77.3219 19.4533 76.8204 20.5336 76.7819 21.8581H76.7809Z" fill="white"/>
<path d="M164.089 15.7658L158.471 21.1826L164.49 30.4318H161.274C159.748 27.9828 158.204 25.5059 156.643 23.0013C156.485 23.1405 156.356 23.2526 156.227 23.3677C155.758 23.788 155.294 24.2157 154.815 24.6244C154.727 24.6927 154.657 24.7811 154.611 24.8821C154.564 24.9831 154.543 25.0937 154.549 25.2045C154.56 26.8131 154.553 28.4166 154.553 30.0226V30.4414H152.201C152.122 30.1744 152.094 10.7411 152.174 10.1836H154.579V21.8783C154.731 21.7441 154.826 21.6682 154.912 21.5842C156.855 19.6945 158.796 17.8033 160.735 15.9106C160.811 15.829 160.904 15.765 161.008 15.7231C161.112 15.6811 161.224 15.6623 161.335 15.6678C162.133 15.6803 162.931 15.6718 163.729 15.6733C163.839 15.6733 163.948 15.6844 164.058 15.6904L164.089 15.7658Z" fill="white"/>
<path d="M134.671 23.0863C134.667 24.7532 134.262 26.5648 133.123 28.1633C132.05 29.6683 130.578 30.5259 128.733 30.7652C127.559 30.916 126.407 30.8275 125.293 30.4254C123.594 29.8121 122.405 28.6354 121.676 27.0248C120.479 24.3752 120.46 21.6859 121.685 19.0483C122.821 16.6064 124.798 15.3346 127.526 15.2456C128.578 15.2114 129.595 15.3743 130.559 15.7986C132.049 16.4556 133.08 17.5725 133.778 19.0106C134.364 20.2161 134.624 21.4979 134.671 23.0863ZM132.063 23.0888C132.067 21.9985 131.87 20.9067 131.488 20.0019C131.064 18.9966 130.429 18.1762 129.392 17.7278C127.358 16.8486 125.091 17.6449 124.156 19.6355C123.135 21.806 123.121 24.0424 124.051 26.2411C124.856 28.1432 126.479 28.9742 128.532 28.6348C129.83 28.4202 130.719 27.6456 131.305 26.5105C131.859 25.4383 132.051 24.2822 132.063 23.0888Z" fill="white"/>
<path d="M58.8313 22.9968C58.8075 24.6596 58.4833 26.1671 57.6834 27.5495C56.5015 29.5918 54.7086 30.6731 52.3453 30.8169C51.2191 30.8867 50.1223 30.7284 49.0828 30.2745C47.6025 29.628 46.5426 28.5387 45.8795 27.1011C44.6419 24.4208 44.6221 21.7044 45.8603 19.0221C46.7813 17.026 48.336 15.7356 50.5489 15.3601C52.7273 14.9902 54.7359 15.3797 56.4143 16.9064C57.3794 17.784 57.9909 18.8874 58.3865 20.1139C58.6793 21.0474 58.8293 22.0191 58.8313 22.9968ZM47.5665 23.042C47.5817 23.796 47.6607 24.5445 47.8618 25.2739C48.0878 26.0927 48.4191 26.8633 49.0118 27.4942C50.0701 28.6247 51.3989 28.8901 52.8676 28.5965C54.0996 28.3502 54.9259 27.5726 55.4751 26.4853C56.0242 25.398 56.2269 24.2313 56.2233 23.0249C56.2198 21.8185 56.009 20.6543 55.4503 19.5705C55.0039 18.7044 54.3681 18.0122 53.4314 17.6759C51.7723 17.0763 49.4485 17.306 48.3041 19.6499C47.7808 20.7237 47.5954 21.8662 47.5665 23.042Z" fill="white"/>
<path d="M98.7232 25.6912H101.085C101.139 25.9657 101.181 26.2246 101.24 26.4794C101.457 27.4099 102.035 28.0307 102.925 28.3655C103.782 28.6872 104.674 28.749 105.579 28.6821C106.216 28.6354 106.832 28.5012 107.392 28.1835C108.152 27.7527 108.53 27.1083 108.491 26.2291C108.468 25.7113 108.252 25.3001 107.805 25.0443C107.479 24.8578 107.131 24.6854 106.771 24.5874C105.491 24.239 104.203 23.9213 102.916 23.6001C102.24 23.4317 101.568 23.2543 100.954 22.916C100.111 22.4505 99.4851 21.801 99.2759 20.8399C98.9015 19.1147 99.4724 17.102 101.408 16.0268C102.14 15.6233 102.947 15.3715 103.781 15.2869C105.026 15.1511 106.263 15.1964 107.449 15.6387C109.324 16.3375 110.292 17.7248 110.503 19.6687C110.503 19.7244 110.499 19.7801 110.49 19.8351H108.115C108.093 19.7179 108.068 19.5993 108.051 19.4792C107.93 18.6141 107.435 18.044 106.633 17.7223C105.866 17.4147 105.062 17.3554 104.247 17.3996C103.672 17.4303 103.119 17.5585 102.609 17.8304C101.849 18.2351 101.502 18.9318 101.611 19.7722C101.671 20.2312 101.888 20.5911 102.3 20.7896C102.696 20.9835 103.109 21.1407 103.534 21.2591C104.73 21.5814 105.939 21.8523 107.131 22.1841C107.762 22.3654 108.379 22.5879 108.98 22.8501C109.312 22.9914 109.619 23.2095 109.903 23.4357C110.594 23.9857 110.925 24.7306 110.982 25.5972C111.131 27.8231 109.954 29.5995 107.825 30.3827C107.04 30.6699 106.213 30.8245 105.376 30.8401C104.269 30.8663 103.177 30.7833 102.112 30.4601C101.364 30.2329 100.682 29.8881 100.109 29.3542C99.2652 28.5645 98.8929 27.5577 98.7505 26.4462C98.7237 26.2346 98.712 26.0215 98.6953 25.8089C98.6999 25.7687 98.7093 25.7292 98.7232 25.6912Z" fill="white"/>
<path d="M149.683 20.6335H147.302C147.275 20.5294 147.251 20.4204 147.22 20.3138C147.138 20.0378 147.072 19.7548 146.964 19.4889C146.529 18.4167 145.743 17.7532 144.583 17.5606C143.497 17.3802 142.462 17.4913 141.543 18.1573C140.944 18.5916 140.539 19.1762 140.243 19.8403C139.881 20.6536 139.712 21.5132 139.66 22.3954C139.581 23.7325 139.665 25.0545 140.14 26.3248C140.506 27.3075 141.12 28.0987 142.137 28.4667C143.994 29.1392 145.824 28.6391 146.797 26.6832C146.975 26.3263 147.077 25.9327 147.211 25.5547C147.244 25.4617 147.266 25.3647 147.294 25.2626H149.675C149.653 25.8884 149.49 26.463 149.284 27.0255C148.663 28.7195 147.568 29.9631 145.809 30.5583C145.022 30.8247 144.206 30.9162 143.377 30.888C142.38 30.8539 141.419 30.6528 140.525 30.1974C139.123 29.4821 138.173 28.3581 137.587 26.926C136.979 25.4396 136.864 23.8888 137.008 22.3054C137.114 21.1462 137.367 20.0273 137.869 18.9726C138.819 16.9836 140.386 15.7817 142.575 15.3896C143.595 15.2071 144.618 15.1815 145.63 15.4213C147.515 15.8676 148.712 17.0615 149.336 18.8515C149.544 19.4241 149.661 20.0252 149.683 20.6335Z" fill="white"/>
<path d="M70.6895 15.693H73.4277L67.7588 30.441H65.0677L59.6582 15.7488C59.9399 15.6568 62.0843 15.6367 62.5636 15.7177L66.4077 27.6471L66.4943 27.6552C67.8991 23.6785 69.2796 19.6943 70.6895 15.693Z" fill="white"/>
<path d="M119.322 28.502V30.4503C118.828 30.5061 118.329 30.5544 117.833 30.6202C117.329 30.6815 116.818 30.6488 116.327 30.5237C115.442 30.3116 114.864 29.7732 114.612 28.8946C114.46 28.3683 114.447 27.8309 114.447 27.2915C114.447 24.2691 114.447 21.2462 114.447 18.2228V17.7498H112.493C112.402 17.4612 112.387 16.1478 112.466 15.6828H114.435C114.439 15.2022 114.445 14.7563 114.447 14.3105C114.449 13.8646 114.447 13.4057 114.447 12.9533V11.6121C114.736 11.5302 116.246 11.5071 116.924 11.5729C116.932 11.6956 116.948 11.8268 116.948 11.958C116.948 13.0638 116.948 14.1652 116.948 15.2691C116.948 15.3907 116.958 15.5129 116.965 15.6712H119.321V17.7322H116.946V18.1846C116.946 21.1192 116.946 24.0541 116.946 26.9894C116.944 27.1908 116.953 27.3922 116.973 27.5926C117.02 28.0259 117.261 28.313 117.687 28.419C117.908 28.4686 118.134 28.4959 118.361 28.5005C118.674 28.511 118.988 28.502 119.322 28.502Z" fill="white"/>
<path d="M90.6084 15.6921H92.9423V18.0462L93.0203 18.0678C93.0811 17.9823 93.146 17.8994 93.2022 17.8109C93.5619 17.2464 93.9707 16.7216 94.4788 16.2793C95.3041 15.5609 96.2595 15.1965 97.3664 15.2468C97.5169 15.261 97.6666 15.2828 97.8148 15.3121V17.8898C97.5336 17.8898 97.2717 17.8898 97.0093 17.8898C96.2636 17.8974 95.5478 18.0331 94.9084 18.4337C93.8415 19.1018 93.266 20.0855 93.1353 21.3115C93.0725 21.8951 93.0882 22.4883 93.0847 23.0774C93.0796 25.3847 93.0786 27.692 93.0816 29.9993V30.4321H90.6104L90.6084 15.6921Z" fill="white"/>
<path d="M170 14.473L169.595 14.4514V12.3864L169.519 12.3723C169.478 12.4548 169.431 12.5352 169.396 12.6207C169.194 13.1208 168.998 13.623 168.798 14.1242C168.776 14.1825 168.764 14.2513 168.724 14.2956C168.664 14.3629 168.584 14.4574 168.513 14.4579C168.441 14.4584 168.332 14.3715 168.301 14.2976C168.074 13.7542 167.863 13.2033 167.643 12.6563C167.601 12.5354 167.526 12.4282 167.427 12.3462V14.4519L167 14.472V11.7319C167.107 11.7239 167.216 11.7133 167.325 11.7093C167.434 11.7053 167.55 11.7093 167.679 11.7093C167.953 12.3859 168.221 13.0444 168.521 13.7854C168.813 13.0504 169.072 12.3945 169.336 11.7274H170.001L170 14.473Z" fill="white"/>
<path d="M164.254 12.0813V11.7148H166.409V12.0667H165.569V14.4097H165.104V12.0813H164.254Z" fill="white"/>
</g>
<defs>
<clipPath id="clip0">
<rect width="170" height="39" fill="white"/>
</clipPath>
</defs>
</svg>
