<svg width="170" height="43" viewBox="0 0 170 43" fill="none" xmlns="http://www.w3.org/2000/svg">
<g clip-path="url(#clip0)">
<path d="M0.00497739 29.7646C0.00497739 19.9259 0.00331826 10.088 0 0.251139C0 0.0465072 0.0464557 0 0.253847 0C4.59524 0.00729525 8.93644 0.00911906 13.2775 0.00547143C13.3368 0.0286138 13.3986 0.0449524 13.4616 0.0541672C14.0147 0.0766001 14.5578 0.181104 15.1003 0.281779C16.9336 0.622102 18.5026 1.47236 19.7967 2.77785C20.8774 3.8683 21.6384 5.18254 22.2323 6.5887C22.6521 7.57848 22.9281 8.6093 23.1725 9.6527V0.00547143H31.081V10.0083C31.081 10.4499 31.0844 10.4526 31.5262 10.4526C34.1145 10.4526 36.7025 10.4526 39.2904 10.4526C39.7622 10.4526 39.7633 10.4526 39.7633 9.98154V0.00547143H47.7829V29.293C47.7829 29.7613 47.7829 29.7624 47.3073 29.7624H40.2616C39.7688 29.7624 39.7682 29.7624 39.7682 29.2831V18.181C39.7682 17.7291 39.7682 17.7285 39.3031 17.7285H31.6711C31.1961 17.7285 31.195 17.7285 31.195 18.1969V29.2995C31.195 29.7608 31.195 29.7619 30.7404 29.7624H23.6907C23.2328 29.7624 23.2317 29.7624 23.2317 29.3039V20.5409C23.2097 20.5741 23.1902 20.6089 23.1731 20.6448C23.1581 20.6995 23.1443 20.7504 23.1327 20.804C22.5841 23.2908 21.4183 25.4471 19.5694 27.222C18.9141 27.8496 18.1736 28.3907 17.3158 28.725C15.514 29.4314 13.6248 29.7372 11.6996 29.7515C7.80178 29.7827 3.90338 29.7646 0.00497739 29.7646ZM8.02411 14.9162C8.02411 16.6306 8.02411 18.3439 8.02411 20.0561C8.02411 20.9764 8.02411 21.8967 8.02411 22.817C8.02411 23.0189 8.06669 23.1453 8.31114 23.1453C9.49797 23.1425 10.6842 23.1633 11.8639 22.9811C13.3073 22.7579 14.3017 22.0001 14.8503 20.6536C15.3807 19.3563 15.5239 17.9879 15.5859 16.6162C15.6419 15.5531 15.6315 14.4876 15.5549 13.4258C15.467 12.325 15.3337 11.2372 15.0461 10.1676C14.5561 8.35105 13.3931 7.25129 11.5243 6.88471C10.5134 6.68773 9.49022 6.73479 8.46931 6.73205C8.02687 6.73205 8.02687 6.73479 8.02687 7.17633C8.02466 9.7563 8.02355 12.3355 8.02355 14.914L8.02411 14.9162Z" fill="white"/>
<path d="M59.2309 42.9997C59.1756 42.9066 59.0821 42.9482 59.0064 42.9449C57.6652 42.917 56.344 42.7305 55.0377 42.4449C53.8382 42.1822 52.6856 41.7839 51.6088 41.1935C50.2312 40.439 49.1113 39.4224 48.4167 38.0048C48.0296 37.2164 47.8443 36.3754 47.7702 35.4939C47.6818 34.5346 47.8109 33.5679 48.1479 32.6641C48.4764 31.7905 49.0383 31.0214 49.7739 30.4389C50.211 30.0881 50.6975 29.802 51.2178 29.5897C51.7604 29.3643 52.3284 29.3402 52.9013 29.3249C53.0746 29.3294 53.2479 29.3146 53.4179 29.2806C53.1021 29.1115 52.7747 28.9611 52.4727 28.7707C51.1122 27.9144 50.1427 26.7506 49.8485 25.1595C49.598 23.8048 49.7794 22.49 50.6781 21.3711C51.196 20.722 51.8722 20.2136 52.643 19.8938C53.821 19.4014 55.0449 19.0528 56.2832 18.7448C56.3136 18.6485 56.2174 18.6458 56.1726 18.6239C55.2186 18.1561 54.3121 17.6106 53.4936 16.9376C52.1907 15.8668 51.1747 14.5794 50.5481 13.0058C50.0504 11.7545 49.9204 10.4506 50.0061 9.1282C50.0725 8.18738 50.3106 7.26624 50.709 6.40945C51.1335 5.48404 51.7046 4.63162 52.4008 3.88438C53.2481 2.96463 54.2447 2.23529 55.322 1.611C56.5542 0.896432 57.8992 0.46966 59.2984 0.23603C60.2341 0.0800943 61.1787 0.0877543 62.1327 0.208673C63.7531 0.414399 65.2353 0.980692 66.6572 1.74067C66.9636 1.89445 67.2592 2.06847 67.542 2.26155C67.7251 2.39396 67.8313 2.33214 67.969 2.22325C68.6337 1.6944 69.3547 1.23886 70.1192 0.864698C70.9432 0.464736 71.7927 0.127149 72.7251 0.0543786C72.7456 0.0543786 72.7644 0.0231914 72.7838 0.00732422H74.6088C74.83 0.0620386 75.0584 0.110187 75.2797 0.171467C75.9051 0.348742 76.4997 0.582919 76.9698 1.05401C77.6561 1.74286 77.9652 2.5789 77.7993 3.52053C77.6334 4.46217 76.8437 5.1357 75.7287 4.94803C74.8853 4.80577 74.3633 4.29146 73.886 3.66881C73.5785 3.26885 73.3329 2.81417 72.9657 2.46892C72.4254 1.96391 71.7645 1.82658 71.0301 1.90701C70.1264 2.00549 69.4318 2.49902 68.7338 3.00129C68.6304 3.0757 68.6321 3.13753 68.7211 3.24149C70.008 4.74449 70.9283 6.43735 71.332 8.37533C71.4883 9.08265 71.5478 9.80753 71.509 10.5305C71.4227 11.8212 71.16 13.0742 70.5406 14.2254C69.9505 15.3197 69.1353 16.2318 68.1415 16.9967C66.9997 17.8851 65.704 18.5607 64.3178 18.9905C63.5921 19.2181 62.8434 19.3665 62.0851 19.4331C61.1311 19.5124 60.1777 19.5912 59.2215 19.652C58.0535 19.7242 56.8832 19.8101 55.7506 20.1384C54.9691 20.3649 54.2176 20.6396 53.6429 21.26C52.825 22.1426 52.8714 23.6346 54.1241 24.2868C54.837 24.6583 55.6079 24.8039 56.4032 24.8405C59.1634 24.9675 61.9264 24.8405 64.6867 24.9056C66.2584 24.9434 67.8279 25.0933 69.3361 25.5759C70.4655 25.9436 71.5281 26.488 72.4835 27.1883C73.1914 27.6993 73.7743 28.3127 74.3179 28.9906C74.9094 29.7284 75.2882 30.6107 75.414 31.5441C75.5247 32.2915 75.5888 33.0427 75.5086 33.8098C75.4301 34.5627 75.325 35.303 75.1165 36.0307C74.6791 37.5627 73.8108 38.8211 72.6118 39.8547C71.7783 40.5742 70.8138 41.0918 69.8023 41.5317C68.6183 42.0471 67.3772 42.3644 66.1135 42.6008C65.5267 42.7102 64.9317 42.7901 64.3338 42.8432C63.788 42.8919 63.2438 42.957 62.6946 42.9526C62.676 42.9508 62.6574 42.9552 62.6417 42.9652C62.6259 42.9751 62.614 42.9899 62.6078 43.0073L59.2309 42.9997ZM54.9968 29.8945C55.2324 30.0532 55.4918 30.1823 55.6721 30.3869C56.3678 31.1792 56.6675 32.1088 56.5774 33.1566C56.5719 33.2239 56.5873 33.2835 56.4839 33.3207C56.0232 33.4848 55.9735 33.4723 55.6931 33.0739C55.6157 32.9645 55.5139 32.8688 55.4381 32.7571C54.7247 31.7033 53.6617 31.5381 52.5208 31.7033C51.8843 31.7953 51.3705 32.1717 50.9397 32.6734C49.9602 33.8131 49.739 35.141 49.9602 36.5488C50.1754 37.92 50.9623 38.9847 52.0679 39.8082C53.1535 40.6169 54.3387 41.2384 55.6627 41.5946C56.7838 41.8973 57.9363 42.0722 59.0976 42.116C60.2413 42.1587 61.3861 42.1379 62.5265 41.9645C63.2515 41.855 63.9738 41.7385 64.6795 41.5361C65.8917 41.1881 67.0222 40.6825 68.0276 39.9143C68.8378 39.295 69.5452 38.5913 70.0186 37.6831C70.6822 36.4104 70.8481 35.0644 70.5661 33.6714C70.2608 32.1783 69.4146 31.0944 67.9231 30.6271C66.6511 30.2299 65.3492 30.0072 63.9998 30.0253C61.5858 30.0592 59.1712 30.0329 56.7549 30.0362C56.1676 30.0378 55.5808 30.0504 54.9968 29.8945ZM60.7971 0.933091C60.5065 0.921753 60.2158 0.952723 59.9344 1.02501C58.9748 1.25262 58.1989 1.75654 57.5602 2.49902C56.968 3.19041 56.5003 3.97735 56.1775 4.82547C55.8783 5.59803 55.6759 6.39303 55.4884 7.1935C55.2489 8.21855 55.1142 9.26486 55.0864 10.3166C55.0759 10.6783 55.1113 11.0399 55.1273 11.4005C55.1548 12.1014 55.2528 12.7979 55.4199 13.4796C55.8269 15.1112 56.5508 16.5639 57.9047 17.6478C58.9887 18.5161 60.2275 18.8717 61.5957 18.6441C62.6304 18.4819 63.563 17.9337 64.2016 17.1121C65.0898 16.0009 65.5666 14.7195 65.8658 13.3587C66.008 12.7004 66.1056 12.0334 66.1578 11.3622C66.2127 10.7963 66.2374 10.2279 66.2319 9.65948C66.2186 9.16705 66.2103 8.66915 66.1567 8.17344C66.0527 7.21594 65.8862 6.27595 65.5854 5.36112C65.2181 4.2444 64.7387 3.17255 63.9384 2.29712C63.1381 1.42169 62.1228 0.905186 60.7971 0.933091Z" fill="white"/>
<path d="M170.001 28.7253C167.697 28.7253 165.392 28.7244 163.088 28.7225C162.977 28.7225 162.818 28.7904 162.774 28.6416C162.727 28.4735 162.729 28.2955 162.779 28.1283C162.807 28.0364 162.924 28.0687 163 28.0736C163.339 28.0872 163.678 28.0433 164.002 27.944C164.798 27.6917 165.121 27.1933 165.126 26.4284C165.141 23.8759 165.151 21.3235 165.12 18.7711C165.11 18.021 165.04 17.2544 164.57 16.5973C164.199 16.0781 163.677 15.8346 163.065 15.7673C162.038 15.6579 161.176 16.0731 160.359 16.6258C159.913 16.9277 159.494 17.2659 159.105 17.6369C159.069 17.6679 159.04 17.7068 159.02 17.7506C159.001 17.7944 158.992 17.842 158.995 17.8897C158.995 20.6336 158.995 23.377 159 26.1209C159 26.4349 159.016 26.7681 159.122 27.057C159.3 27.5418 159.723 27.7804 160.217 27.9095C160.522 27.9888 160.835 27.9642 161.143 28.0009C161.51 28.0424 161.346 28.2794 161.367 28.4413C161.397 28.6706 161.208 28.6164 161.083 28.6164C159.461 28.6193 157.838 28.6193 156.216 28.6164C155.552 28.6164 154.889 28.6126 154.225 28.6164C154.052 28.6164 153.93 28.5923 153.962 28.3833C153.986 28.2279 153.868 28.0331 154.191 28.0003C154.675 27.9505 155.186 28.0003 155.632 27.736C156.004 27.5172 156.23 27.2168 156.23 26.7703C156.23 23.9252 156.238 21.08 156.223 18.2382C156.219 17.3414 155.947 16.5393 155.133 16.0212C154.336 15.514 153.502 15.5834 152.666 15.9117C151.758 16.2696 150.999 16.8419 150.317 17.5263C150.276 17.5678 150.244 17.6176 150.224 17.6724C150.203 17.7271 150.195 17.7855 150.2 17.8437C150.2 20.4968 150.192 23.151 150.21 25.8019C150.213 26.3118 150.278 26.8294 150.531 27.2994C150.712 27.6365 150.964 27.8241 151.368 27.8581C151.678 27.8873 151.989 27.901 152.301 27.8991C152.466 27.8964 152.543 27.9489 152.522 28.118C152.515 28.1725 152.515 28.2276 152.522 28.2821C152.549 28.4922 152.471 28.571 152.245 28.5633C151.776 28.5475 151.305 28.5584 150.835 28.5584C149.075 28.5584 147.315 28.5584 145.555 28.5584C145.463 28.5584 145.32 28.6098 145.292 28.4813C145.245 28.3048 145.251 28.1187 145.31 27.9456C145.331 27.8909 145.408 27.9046 145.462 27.9062C145.746 27.915 146.028 27.8767 146.311 27.8553C146.681 27.8274 146.927 27.6419 147.082 27.3323C147.306 26.885 147.424 26.393 147.425 25.8938C147.436 23.2591 147.436 20.6246 147.425 17.9903C147.425 17.5761 147.403 17.1499 147.303 16.751C147.127 16.054 146.713 15.6267 145.836 15.8942C145.688 15.9404 145.542 15.9953 145.4 16.0584C145.184 16.153 145.179 15.9774 145.131 15.8597C145.083 15.7421 145.016 15.6256 145.222 15.5446C146.595 15.0024 147.963 14.4459 149.334 13.8971C149.581 13.7981 149.843 13.8474 150.097 13.8621C150.244 13.8709 150.193 14.0175 150.193 14.1067C150.198 14.9001 150.193 15.6934 150.193 16.4862V16.809C150.359 16.7707 150.435 16.6509 150.519 16.5574C151.389 15.5884 152.361 14.7447 153.532 14.1499C153.86 13.9902 154.217 13.8954 154.582 13.8709C155.814 13.774 156.993 13.8835 157.907 14.8399C158.37 15.3235 158.626 15.9238 158.815 16.5541C158.841 16.64 158.864 16.7264 158.899 16.8539C159.175 16.5612 159.433 16.2964 159.681 16.0212C160.572 15.0314 161.574 14.1828 162.93 13.936C164.024 13.7368 165.12 13.7582 166.111 14.3923C166.752 14.8021 167.086 15.4357 167.38 16.0885C167.727 16.8616 167.822 17.6905 167.828 18.5249C167.84 20.7135 167.833 22.902 167.831 25.0906C167.831 25.7264 167.886 26.3583 167.95 26.9892C168 27.5134 168.491 27.9275 169.14 28.0096C169.421 28.0452 169.703 28.1015 169.989 28.0714L170.001 28.7253Z" fill="white"/>
<path d="M83.082 26.8368C82.7253 27.1 82.4333 27.3096 82.1485 27.5273C81.4743 28.0438 80.7941 28.556 80.0541 28.9745C79.5474 29.2599 78.9777 29.4179 78.395 29.4347C77.7711 29.456 77.1534 29.4265 76.5638 29.1988C75.6082 28.8295 74.9484 28.1697 74.5502 27.233C74.2101 26.4341 74.1675 25.5975 74.2306 24.7599C74.2914 23.9528 74.6437 23.2514 75.1934 22.6402C76.2552 21.4611 77.6329 20.7712 79.0487 20.1234C80.3162 19.5418 81.6375 19.103 82.9426 18.6193C83.0853 18.5646 83.1257 18.506 83.1252 18.3709C83.1202 17.4954 83.15 16.6173 82.9592 15.7484C82.7181 14.6355 81.7691 13.9149 80.7399 13.7787C80.0143 13.6846 79.3335 13.7634 78.7196 14.1393C77.89 14.6454 77.5859 15.2013 77.7291 16.2222C77.8159 16.8427 77.8734 17.4883 77.2728 17.9704C76.7508 18.3884 76.1966 18.4081 75.6104 18.1947C75.1127 18.0136 74.8533 17.5447 74.8201 16.9762C74.772 16.1528 74.9368 15.3955 75.4533 14.7406C76.011 14.0243 76.7537 13.4701 77.603 13.1363C78.3518 12.8398 79.1377 12.7479 79.9402 12.6811C81.1801 12.5777 82.3691 12.7528 83.535 13.1353C84.8252 13.5593 85.6365 14.4298 85.8727 15.7615C85.9437 16.1887 85.9876 16.6197 86.0043 17.0523C86.1083 19.1544 86.0369 21.2576 86.0419 23.3603C86.0419 23.8746 86.0043 24.3927 85.9954 24.9098C85.9866 25.4268 86.0712 25.9357 86.1166 26.4478C86.1415 26.7285 86.298 26.9824 86.5844 27.059C86.722 27.0958 86.8671 27.0955 87.0046 27.0583C87.142 27.0211 87.267 26.9482 87.3664 26.8472C87.7967 26.4423 88.2308 26.0413 88.7048 25.6003C88.7048 25.9866 88.7109 26.3274 88.7048 26.6683C88.6998 26.8582 88.53 26.9627 88.4239 27.0885C87.7729 27.8605 87.0932 28.6101 86.1658 29.0697C85.5486 29.3761 84.8938 29.5135 84.2235 29.2339C83.5366 28.9493 83.191 28.5308 83.1263 27.7998C83.0986 27.5065 83.0295 27.2133 83.082 26.8368ZM83.0671 22.6928C83.0671 21.7725 83.0599 20.8522 83.0721 19.9319C83.0748 19.6999 83.0101 19.6676 82.8088 19.7513C82.3111 19.9587 81.794 20.1343 81.3023 20.3614C80.3815 20.7827 79.422 21.1411 78.6378 21.8075C77.6788 22.6222 77.0522 23.578 77.196 24.912C77.2955 25.8328 77.7689 26.4987 78.4857 27.0256C79.2024 27.5525 79.9789 27.4595 80.7465 27.1093C81.502 26.7662 82.1844 26.311 82.8425 25.8153C83.0123 25.6878 83.0732 25.5718 83.071 25.3721C83.0621 24.4792 83.0671 23.5857 83.0671 22.6928Z" fill="white"/>
<path d="M111.594 19.166C111.484 19.1605 111.384 19.1512 111.286 19.1512C107.783 19.1512 104.282 19.149 100.782 19.1446C100.534 19.1446 100.471 19.2086 100.482 19.4466C100.561 21.0968 100.907 22.6682 101.864 24.0547C102.694 25.2551 103.8 26.1065 105.244 26.4479C107.029 26.8708 108.562 26.4019 109.774 25.0215C110.336 24.3797 110.714 23.6208 111.023 22.8198C111.21 22.88 111.331 23.0386 111.495 23.1278C111.594 23.1825 111.612 23.2788 111.591 23.3888C111.33 24.7604 110.731 26.0473 109.849 27.1367C108.977 28.2195 107.891 29.0227 106.511 29.3461C105.163 29.6613 103.824 29.5879 102.536 29.0495C101.015 28.4132 99.8762 27.3436 99.0522 25.9418C98.5262 25.0483 98.2607 24.0694 98.0993 23.0512C97.9599 22.1758 97.9649 21.2932 98.0091 20.4184C98.0616 19.242 98.3395 18.0861 98.8282 17.0124C99.2844 16.0199 99.879 15.122 100.695 14.3795C101.528 13.6201 102.512 13.1578 103.615 12.9094C104.475 12.7157 105.347 12.7015 106.21 12.7644C107.384 12.8497 108.473 13.2087 109.4 13.9834C110.621 15.0044 111.261 16.3181 111.494 17.8561C111.56 18.2927 111.624 18.7282 111.594 19.166ZM104.307 18.1105C105.458 18.1105 106.609 18.1067 107.76 18.1143C107.945 18.1143 108.025 18.0771 108.013 17.8769C108.002 17.7051 107.967 17.5371 107.957 17.3675C107.888 16.2595 107.421 15.3649 106.548 14.6624C105.741 14.0135 104.82 13.8373 103.838 14.0305C102.827 14.2291 102.076 14.8457 101.483 15.6588C101.001 16.3186 100.758 17.0737 100.603 17.8621C100.568 18.0416 100.624 18.1171 100.83 18.1149C101.987 18.1061 103.147 18.1105 104.307 18.1105Z" fill="white"/>
<path d="M138.226 29.0485C136.883 29.0934 135.731 28.7968 134.674 28.1539C133.874 27.6681 133.269 26.9885 132.715 26.2466C131.972 25.2547 131.489 24.0971 131.307 22.8762C131.187 22.1047 131.207 21.3229 131.279 20.541C131.393 19.2995 131.823 18.1664 132.418 17.0869C132.971 16.0861 133.757 15.3141 134.762 14.7473C135.351 14.4146 135.935 14.0841 136.601 13.9233C137.415 13.7274 138.228 13.6311 139.071 13.7219C139.758 13.7963 140.425 13.9025 141.066 14.1635C141.964 14.5302 142.763 15.1007 143.398 15.829C144.095 16.6141 144.644 17.477 144.989 18.464C145.21 19.0971 145.329 19.7487 145.402 20.4179C145.499 21.3368 145.416 22.2655 145.159 23.1536C144.699 24.7912 143.953 26.2926 142.626 27.4175C141.643 28.2508 140.504 28.8154 139.197 29.0042C138.835 29.0589 138.481 29.0234 138.226 29.0485ZM142.187 22.3389C142.183 22.0385 142.145 21.7398 142.137 21.4432C142.108 20.6311 141.992 19.8242 141.793 19.0358C141.516 17.8928 141.013 16.8511 140.24 15.9592C139.508 15.1133 138.554 14.7763 137.426 14.8791C136.227 14.9886 135.392 15.5598 134.873 16.6415C134.365 17.7008 134.183 18.8262 134.115 19.9736C134.053 21.0263 134.182 22.0708 134.442 23.0923C134.833 24.6243 135.383 26.0857 136.676 27.1286C137.357 27.6757 138.158 27.9493 139.028 27.8306C140.423 27.6363 141.3 26.8025 141.747 25.4954C142.099 24.4689 142.131 23.4031 142.187 22.3389Z" fill="white"/>
<path d="M97.813 25.9893C97.6174 26.6302 97.3207 27.2364 96.9336 27.7855C96.3806 28.5833 95.6566 29.1353 94.6932 29.3433C93.7824 29.5397 92.8931 29.5025 92.1061 28.9444C91.4142 28.452 90.9845 27.7812 90.8075 26.9517C90.7063 26.479 90.6969 26.0029 90.6969 25.5226C90.7002 21.9679 90.7002 18.413 90.6969 14.8576C90.6969 14.4538 90.7467 14.5047 90.3513 14.5025C89.7064 14.4998 89.061 14.4949 88.4156 14.5064C88.2187 14.5097 88.1551 14.4675 88.1435 14.2552C88.1264 13.9521 88.2221 13.794 88.5091 13.6605C89.0035 13.4307 89.3978 13.0433 89.8248 12.7096C90.6577 12.0595 91.3269 11.2569 91.9214 10.4001C92.1979 10.005 92.3638 9.53721 92.5701 9.09676C92.7133 8.78763 92.8306 8.467 92.9666 8.15458C93.0496 7.96363 93.3792 7.85256 93.5645 7.94667C93.6751 8.00138 93.6253 8.10807 93.6259 8.19015C93.6292 9.65759 93.6292 11.1252 93.6259 12.593C93.6259 13.1888 93.6259 13.1888 94.227 13.1888C95.1943 13.1888 96.1627 13.1949 97.1294 13.1845C97.3362 13.1845 97.4059 13.2359 97.391 13.4422C97.3738 13.7155 97.3738 13.9896 97.391 14.2629C97.4021 14.456 97.3357 14.5086 97.1443 14.5069C96.0659 14.4976 94.9875 14.5097 93.9096 14.4971C93.6784 14.4943 93.6209 14.5573 93.6214 14.7838C93.6286 18.2111 93.6214 21.6389 93.6342 25.0662C93.6342 25.592 93.7171 26.1217 93.9621 26.607C94.3221 27.321 94.9803 27.5831 95.7661 27.2969C96.3225 27.095 96.7517 26.7301 97 26.1895C97.0691 26.0385 97.1383 25.9641 97.3147 25.9854C97.4806 25.9965 97.6469 25.9978 97.813 25.9893Z" fill="white"/>
<path d="M118.351 21.3686C118.283 19.9407 118.623 18.5226 119.331 17.2765C120.364 15.4414 121.86 14.1764 124.007 13.8651C125.393 13.6638 126.795 13.6774 128.089 14.3439C128.91 14.7663 129.579 15.3665 129.988 16.2041C130.219 16.6752 130.309 17.1797 130.182 17.7066C130.068 18.1815 129.487 18.5755 128.877 18.6088C128.603 18.6295 128.328 18.5963 128.066 18.5113C127.805 18.4262 127.564 18.2909 127.355 18.1131C127.242 18.0179 127.203 17.8943 127.146 17.7706C126.96 17.3652 126.995 16.9209 126.925 16.4952C126.855 16.1024 126.686 15.7333 126.434 15.4223C126.294 15.2423 126.082 15.164 125.871 15.1011C124.292 14.6306 122.703 15.1328 121.833 16.6189C121.28 17.5632 121.004 18.5645 120.937 19.6533C120.836 21.1301 121.15 22.6058 121.844 23.9167C122.311 24.802 122.867 25.6325 123.808 26.1228C124.525 26.5102 125.35 26.6594 126.159 26.5484C127.663 26.3498 128.682 25.4859 129.452 24.2658C129.702 23.8656 129.916 23.4445 130.092 23.0073C130.125 22.9269 130.158 22.783 130.297 22.8793C130.435 22.9756 130.707 22.9433 130.649 23.1988C130.325 24.6176 129.78 25.9373 128.807 27.0524C127.859 28.139 126.677 28.8672 125.234 29.0347C123.625 29.2212 122.152 28.8322 120.905 27.7336C119.503 26.4987 118.748 24.9431 118.451 23.1375C118.357 22.5641 118.351 21.9951 118.351 21.3686Z" fill="white"/>
<path d="M114.807 29.0534C113.922 29.2066 113.006 28.1818 113.02 27.2632C113.032 26.4238 113.785 25.4521 114.929 25.4811C115.752 25.5024 116.634 26.2044 116.595 27.3753C116.564 28.2962 115.876 29.1546 114.807 29.0534Z" fill="white"/>
</g>
<defs>
<clipPath id="clip0">
<rect width="170" height="43" fill="white"/>
</clipPath>
</defs>
</svg>
