<svg width="163" height="142" viewBox="0 0 163 142" fill="none" xmlns="http://www.w3.org/2000/svg">
<path d="M150.128 0V141.661H0V0H150.128ZM7.90414 7.73887V132.211C7.90414 133.883 7.90414 133.887 9.62769 133.887H140.489C142.333 133.887 142.337 133.887 142.337 132.021V9.60929C142.337 7.73887 142.337 7.73887 140.496 7.73887H7.91584H7.90414Z" fill="white"/>
<path d="M158.091 132.13C159.392 132.136 160.638 132.656 161.557 133.576C162.476 134.497 162.993 135.743 162.996 137.043C162.993 137.689 162.863 138.328 162.613 138.923C162.363 139.519 161.998 140.059 161.539 140.514C161.079 140.968 160.535 141.328 159.937 141.572C159.339 141.816 158.698 141.941 158.052 141.938C157.406 141.934 156.766 141.804 156.171 141.554C155.575 141.304 155.034 140.94 154.579 140.481C154.124 140.022 153.764 139.478 153.52 138.88C153.276 138.282 153.151 137.642 153.154 136.997C153.158 136.353 153.289 135.716 153.54 135.124C153.79 134.531 154.155 133.993 154.613 133.541C155.072 133.089 155.615 132.731 156.212 132.489C156.808 132.247 157.447 132.125 158.091 132.13ZM158.056 141.298C160.318 141.318 162.115 139.483 162.17 137.102C162.221 134.822 160.364 132.784 158.181 132.722C155.997 132.659 153.977 134.717 153.977 137.039C153.967 138.141 154.388 139.202 155.15 139.998C155.912 140.793 156.955 141.26 158.056 141.298Z" fill="white"/>
<path d="M29.994 79.4188L41.1698 115.296L41.5597 115.335L53.3048 77.7042H63.8762V127.033H56.5803V90.1269L56.1904 90.0646C56.0266 90.5283 55.8472 90.9881 55.703 91.4596C52.1415 102.947 48.5891 114.439 45.0458 125.934C44.769 126.83 44.3634 127.204 43.4003 127.146C42.0489 127.05 40.6924 127.05 39.341 127.146C38.2881 127.228 37.9177 126.756 37.6369 125.848C34.0728 114.301 30.4958 102.756 26.9057 91.2141C26.8054 90.7726 26.5839 90.3678 26.2662 90.0451V127.033H18.8144V68.8821C20.3118 69.4081 21.7935 69.9732 23.3026 70.4408C27.9624 71.9371 32.7158 72.697 37.5979 71.8514C42.1096 71.072 45.0926 68.3443 45.7867 64.3307C46.3599 60.9406 45.3968 57.8544 42.6672 55.8086C39.7777 53.6654 36.5646 51.9548 33.4723 50.0843C30.3801 48.2139 27.1358 46.5617 24.1761 44.5198C19.7385 41.4726 17.6562 37.1161 18.0462 31.7114C18.4907 25.3285 21.8364 21.0032 27.7441 18.6691C31.8716 17.0744 36.3283 16.519 40.7214 17.0519C43.7941 17.3832 46.8435 17.9092 49.9045 18.3223C50.8092 18.4431 51.1172 18.8639 51.0743 19.7952C51.0081 22.0943 51.0548 24.3972 51.0548 26.9262C50.3841 26.7002 49.9084 26.5365 49.4405 26.3807C44.496 24.5921 39.454 23.5088 34.1703 24.3466C31.7176 24.7362 29.5885 25.8078 28.1613 27.9354C26.0517 31.0918 26.5313 35.2652 29.6899 37.6772C32.517 39.8282 35.695 41.5272 38.7521 43.3703C41.665 45.1238 44.7027 46.6864 47.5493 48.5451C56.5608 54.4292 56.089 65.4101 52.2286 71.45C49.6238 75.5221 45.6658 77.6847 41.0762 78.5693C38.1477 79.1382 35.1179 79.1733 32.1309 79.4227C31.4992 79.4655 30.848 79.4188 29.994 79.4188Z" fill="white"/>
<path d="M117.372 127.266H110.111C110.072 126.737 110.006 126.195 110.006 125.649C110.006 110.117 110.014 94.5848 110.029 79.0525C110.029 77.7237 109.694 77.299 108.361 77.3769C106.411 77.4899 104.461 77.4042 102.336 77.4042C102.546 76.7378 102.671 76.2858 102.827 75.8455C104.648 70.7057 106.438 65.5582 108.322 60.4457C108.679 59.4677 108.637 58.3886 108.205 57.4413C103.439 45.0186 98.6964 32.592 93.9755 20.1615C93.7922 19.6783 93.6285 19.1873 93.3789 18.4859C95.9759 18.4859 98.4482 18.4431 100.885 18.5366C101.189 18.5366 101.572 19.238 101.735 19.6783C105.089 28.6537 108.427 37.6305 111.749 46.6085C111.936 47.115 112.162 47.6099 112.529 48.4477C112.825 47.6957 113.009 47.2787 113.161 46.8462C116.378 37.8175 119.614 28.7966 122.781 19.7485C123.135 18.7392 123.592 18.4041 124.641 18.447C126.766 18.5327 128.895 18.4742 131.238 18.4742L109.963 77.3769H117.372V127.266Z" fill="white"/>
<path d="M64.2424 16.8535C66.5235 16.8535 68.5707 16.8535 70.6179 16.8535C70.925 16.8723 71.2309 16.9075 71.5343 16.9587V50.4237L72.1972 50.9224C72.3038 50.5118 72.4679 50.1182 72.6846 49.7534C76.4398 45.1592 80.2027 40.5728 84.0242 36.0331C84.4759 35.5498 85.0919 35.2524 85.7516 35.1992C88.3525 35.1096 90.9574 35.1603 93.8429 35.1603C92.2832 37.0541 90.9301 38.7296 89.5536 40.3974C86.1182 44.5786 82.7101 48.7832 79.224 52.9176C78.5026 53.7709 78.5806 54.3009 79.2006 55.1348C84.4206 62.1723 89.6198 69.2279 94.7983 76.3017C95.0011 76.5745 95.1648 76.8706 95.508 77.4084C93.4959 77.4084 91.6709 77.2291 89.8967 77.4512C87.3465 77.7708 85.8062 76.8317 84.3517 74.7235C80.6395 69.2682 76.6347 64.0505 72.747 58.747C72.4699 58.339 72.089 58.0122 71.6435 57.8001C71.6123 58.2794 71.5538 58.7626 71.5538 59.2458C71.5538 64.8298 71.5187 70.4177 71.5772 76.0017C71.5772 77.1707 71.2301 77.5214 70.0876 77.459C68.4771 77.3694 66.8589 77.4123 65.2445 77.459C64.5309 77.459 64.1761 77.2291 64.2385 76.481C64.2658 76.177 64.2385 75.8692 64.2385 75.5652V16.8535H64.2424Z" fill="white"/>
<path d="M81.4976 102.483H74.2836C74.2407 99.4517 75.2 96.9539 77.4032 94.9705C79.7428 92.8507 82.644 92.0752 85.6856 91.8219C88.4853 91.5881 91.2812 91.7908 93.9095 92.8896C98.2261 94.6899 100.047 98.2632 100.129 102.651C100.277 110.588 100.168 118.53 100.164 126.471C100.146 126.665 100.113 126.856 100.067 127.044H93.3323C93.266 126.222 93.2076 125.427 93.1296 124.441C92.6733 124.749 92.3887 124.921 92.1274 125.119C88.5087 127.878 84.4416 128.509 80.1133 127.5C76.7793 126.721 74.5527 124.621 73.7572 121.265C72.872 117.49 73.4998 114.049 76.5336 111.36C79.3841 108.835 82.8624 107.736 86.5434 107.214C88.2202 106.976 89.9281 106.902 91.6127 106.824C92.607 106.774 93.1725 106.474 93.0399 105.344C92.8878 103.874 92.9814 102.366 92.7006 100.929C92.2561 98.61 90.7002 97.4566 88.3294 97.3942C88.0252 97.3942 87.7211 97.3942 87.413 97.3942C83.689 97.3514 82.0864 98.7035 81.4976 102.483ZM93.036 113.394C93.1725 112.424 92.8137 111.976 91.796 112.116C90.1621 112.342 88.462 112.338 86.8983 112.81C85.319 113.258 83.8323 113.984 82.5075 114.953C80.9477 116.122 80.6358 117.957 81.2207 119.82C81.4078 120.551 81.8391 121.196 82.4432 121.649C83.0474 122.102 83.7882 122.335 84.543 122.31C85.7961 122.304 87.0332 122.027 88.1695 121.499C91.4996 119.87 92.6148 116.8 93.0282 113.394H93.036Z" fill="white"/>
<path d="M124.201 77.4512H131.493V127.236H124.201V77.4512Z" fill="white"/>
<path d="M159.393 137.164C159.637 138.014 159.881 138.864 160.122 139.717L159.732 139.943C159.488 139.602 159.284 139.235 159.124 138.848C158.761 137.593 158.539 137.437 157.174 137.698L156.87 139.896L156.34 139.861C156.34 138.173 156.34 136.482 156.34 134.795C156.37 134.673 156.444 134.567 156.547 134.495C157.182 133.961 159.541 134.273 159.752 135.033C159.931 135.668 159.67 136.428 159.608 137.133L159.393 137.164ZM157.104 137.043C157.749 136.886 158.378 136.665 158.98 136.385C159.124 136.295 159.097 135.469 158.929 135.38C158.342 135.13 157.73 134.942 157.104 134.818V137.043Z" fill="white"/>
</svg>
