<svg width="170" height="36" viewBox="0 0 170 36" fill="none" xmlns="http://www.w3.org/2000/svg">
<g clip-path="url(#clip0)">
<path d="M36.2522 18.0152C36.245 27.9575 28.1355 35.9678 18.108 36C8.08047 36.0322 -0.461966 27.6583 0.0204645 17.1383C0.440791 7.96278 8.07057 -0.00537149 18.1818 2.71694e-06C28.1508 0.00537692 36.2594 8.09982 36.2522 18.0152ZM30.1994 18.0036C30.2084 11.3844 24.799 6.0012 18.1323 5.98418C11.5106 5.97074 6.04544 11.3682 6.03104 17.9364C6.02667 19.5158 6.33493 21.0805 6.93822 22.5413C7.54151 24.0021 8.42802 25.3303 9.54713 26.4502C10.6662 27.57 11.996 28.4596 13.4606 29.068C14.9251 29.6764 16.4958 29.9918 18.0828 29.9961C19.6698 30.0005 21.2422 29.6937 22.7101 29.0933C24.178 28.493 25.5127 27.6107 26.638 26.4971C27.7633 25.3834 28.6571 24.06 29.2685 22.6025C29.8799 21.1451 30.1968 19.582 30.2012 18.0027L30.1994 18.0036Z" fill="white"/>
<path d="M126.908 16.5703V31.0305H126.329C125.219 31.0305 124.108 31.0422 122.998 31.018C122.903 31.007 122.811 30.9769 122.728 30.9297C122.645 30.8824 122.572 30.8189 122.514 30.743C122.258 30.3847 122.054 29.9861 121.862 29.6583C120.766 30.1886 119.738 30.7869 118.641 31.1998C113.691 33.062 108.499 31.2204 105.579 26.5932C103.664 23.5604 103.084 20.206 103.298 16.6877C103.478 13.7319 104.367 11.0125 106.218 8.65413C109.752 4.14786 116.424 2.62696 121.286 5.28451C124.282 6.92185 126.043 9.52386 126.805 12.8156C126.839 13.0136 126.862 13.2133 126.874 13.4139C126.747 13.4273 126.647 13.4479 126.547 13.4479C124.897 13.4479 123.247 13.4479 121.597 13.456C121.307 13.456 121.195 13.3772 121.116 13.0861C120.435 10.5781 118.765 8.98465 116.589 8.85567C114.446 8.72848 112.605 9.43608 111.189 11.0824C110.095 12.3525 109.54 13.8707 109.246 15.4928C108.765 18.0202 109.1 20.634 110.203 22.9603C111.113 24.9066 112.569 26.2475 114.768 26.6228C116.388 26.8996 117.918 26.6425 119.263 25.6724C120.649 24.6746 121.174 23.2908 120.98 21.5666H115.703V16.5703H126.908Z" fill="white"/>
<path d="M98.6871 18.6791C98.7771 18.7311 98.8473 18.7767 98.922 18.817C100.722 19.7951 101.672 21.2865 101.666 23.3511C101.666 24.7842 101.695 26.2173 101.656 27.6504C101.623 28.8668 101.926 29.9192 102.865 30.7469C102.925 30.8099 102.978 30.8786 103.025 30.952C102.989 30.9842 102.969 31.0192 102.948 31.0192C101.343 31.0245 99.7375 31.0675 98.1345 31.0192C96.6782 30.9744 95.8204 30.0563 95.7826 28.5506C95.7457 27.0745 95.7718 25.5948 95.7701 24.1187C95.7701 23.9548 95.7701 23.79 95.7701 23.6261C95.7214 22.3049 95.0437 21.5319 93.7224 21.4898C91.9106 21.4325 90.0952 21.4755 88.2267 21.4755V31.0057H82.1963V5.08595C82.3511 5.07789 82.4816 5.06445 82.6121 5.06445C86.5868 5.06445 90.5611 5.06445 94.5352 5.06445C95.743 5.06445 96.9293 5.20329 98.0715 5.61352C100.412 6.45458 101.733 8.1582 102.212 10.547C102.836 13.6533 101.998 16.2392 99.4216 18.1909C99.1948 18.362 98.9499 18.5035 98.6871 18.6791ZM88.2285 15.4402C90.1456 15.4402 92.0168 15.451 93.8871 15.4304C94.2228 15.4304 94.5685 15.3229 94.8916 15.2136C96.2417 14.7586 96.8159 13.7169 96.5801 12.2104C96.3938 11.0182 95.5171 10.3294 94.1499 10.2855C94.0905 10.2855 94.0302 10.2855 93.9699 10.2855C92.1872 10.2855 90.4039 10.2855 88.62 10.2855C88.4913 10.2855 88.3635 10.3025 88.233 10.3115L88.2285 15.4402Z" fill="white"/>
<path d="M135.251 25.6717H147.873V31.0011H129.103V5.09473H147.872V10.2629H135.26V14.9582H146.034V19.8845H135.251V25.6717Z" fill="white"/>
<path d="M81.7195 31.0308H76.2651C75.2292 31.0308 75.231 31.0309 74.8934 30.0635C74.4218 28.7128 73.9394 27.3665 73.4804 26.0122C73.3904 25.7337 73.2698 25.6128 72.9502 25.6154C70.6419 25.6304 68.3317 25.6304 66.0198 25.6154C65.6967 25.6154 65.5869 25.7364 65.4969 26.0167C65.0009 27.5627 64.487 29.1033 63.9758 30.6448C63.9128 30.8347 63.8858 31.0398 63.5851 31.038C61.5465 31.0255 59.5088 31.0317 57.4062 31.0317C57.463 30.8401 57.5035 30.6887 57.5521 30.5391C60.2744 22.2121 62.9917 13.8836 65.7039 5.55354C65.8344 5.15137 66.0153 5.0412 66.4239 5.04657C68.3428 5.06986 70.2618 5.06359 72.1843 5.04657C72.4822 5.04657 72.6289 5.11644 72.7333 5.41471C75.6915 13.8486 78.6563 22.2802 81.6277 30.7093C81.6592 30.7962 81.6781 30.8813 81.7195 31.0308ZM71.7442 20.9139C70.9584 18.6854 70.1907 16.5053 69.3878 14.2275C68.6291 16.5223 67.9081 18.7006 67.1755 20.9139H71.7442Z" fill="white"/>
<path d="M156.25 31.002V10.2952H148.826V5.1001H169.999V10.2728H162.46V31.002H156.25Z" fill="white"/>
<path d="M55.748 31.01H49.435V10.2888H42.1904V5.08838H62.8242V10.2387H55.7498L55.748 31.01Z" fill="white"/>
<path d="M163.91 29.4588C163.915 28.53 164.662 27.8233 165.628 27.8331C166.569 27.843 167.297 28.5497 167.303 29.4606C167.303 30.3885 166.564 31.1123 165.604 31.1132C164.645 31.1141 163.906 30.3912 163.91 29.4588ZM164.365 29.4812C164.37 30.2085 164.939 30.7818 165.635 30.7621C166.31 30.7432 166.852 30.1637 166.849 29.4642C166.852 29.2965 166.821 29.1298 166.759 28.9742C166.696 28.8186 166.602 28.6772 166.483 28.5585C166.364 28.4397 166.222 28.3461 166.066 28.2832C165.909 28.2203 165.742 28.1894 165.573 28.1923C164.883 28.2084 164.359 28.7664 164.365 29.4812Z" fill="white"/>
<path d="M24.3536 17.891C24.3498 19.5344 23.6901 21.109 22.5197 22.2683C21.3493 23.4277 19.764 24.0769 18.1126 24.0731C16.4612 24.0693 14.879 23.4128 13.714 22.2481C12.5489 21.0833 11.8966 19.5057 11.9004 17.8623C11.9067 14.4291 14.6816 11.7017 18.1585 11.7124C18.973 11.7131 19.7794 11.8735 20.5315 12.1844C21.2837 12.4954 21.967 12.9507 22.5423 13.5245C23.1176 14.0982 23.5737 14.7792 23.8844 15.5284C24.1952 16.2776 24.3547 17.0804 24.3536 17.891Z" fill="white"/>
<path d="M166.357 30.3523C165.702 30.4804 165.853 29.6841 165.43 29.6152C165.128 29.7809 165.61 30.3846 164.97 30.3738V28.5484C165.208 28.5484 165.429 28.5439 165.648 28.5484C165.941 28.5546 166.243 28.5761 166.338 28.9192C166.432 29.2623 166.296 29.5014 165.904 29.6026L166.357 30.3523ZM165.349 29.3563C165.579 29.2945 165.771 29.2524 165.953 29.1834C165.975 29.1745 165.967 28.9649 165.935 28.9532C165.742 28.8927 165.547 28.8433 165.349 28.8054V29.3563Z" fill="white"/>
</g>
<defs>
<clipPath id="clip0">
<rect width="170" height="36" fill="white"/>
</clipPath>
</defs>
</svg>
