<svg width="170" height="40" viewBox="0 0 170 40" fill="none" xmlns="http://www.w3.org/2000/svg">
<g clip-path="url(#clip0)">
<path d="M8.73777 26.2144C9.06108 24.0604 9.56254 21.942 10.053 19.8225C10.8878 16.2142 11.7313 12.6079 12.5834 9.00341C12.7286 8.38464 12.7304 8.38235 13.3886 8.38177C14.7185 8.38177 16.0487 8.38177 17.3794 8.38177C17.9324 8.38177 17.9451 8.38751 18.0596 8.93288C19.166 14.2002 20.4148 19.4388 21.313 24.7486C21.3876 25.189 21.4015 25.642 21.5444 26.0739C21.6971 26.0274 21.6843 25.919 21.6988 25.8313C22.3998 21.5933 23.3264 17.4013 24.2101 13.1972C24.5051 11.7962 24.7937 10.3941 25.0887 8.99309C25.2165 8.38522 25.2206 8.38235 25.8354 8.3812C27.0693 8.37814 28.3032 8.37814 29.5371 8.3812C29.6527 8.3812 29.7684 8.38464 29.8841 8.3898C30.075 8.3984 30.1687 8.49303 30.1316 8.68571C30.1068 8.81646 30.0738 8.94607 30.0379 9.0751C28.5515 14.6473 27.0649 20.2187 25.578 25.7894C25.1101 27.5419 24.6254 29.2904 24.1835 31.0493C24.0725 31.4908 23.866 31.6858 23.4195 31.7437C22.6097 31.8481 21.8127 31.9158 21.0047 31.7569C19.8659 31.5327 19.0475 30.903 18.5269 29.884C18.31 29.4571 18.1498 29.0041 18.0503 28.5363C17.2406 24.7858 16.3424 21.0543 15.6344 17.2832C15.4609 16.3455 15.3007 15.4039 15.2105 14.4531C15.1723 14.378 15.1567 14.2627 15.0265 14.3504C14.6217 16.8789 14.0034 19.3614 13.3805 21.8428C12.6135 24.8982 11.861 27.9571 11.101 31.0143C10.9449 31.6422 10.9437 31.6422 10.3173 31.7351C9.47579 31.859 8.63482 31.9267 7.78748 31.7644C6.77473 31.5706 6.0344 31.0189 5.52773 30.1375C5.14137 29.4671 4.91927 28.7365 4.7365 27.9938C3.18951 21.7098 1.64407 15.4249 0.100169 9.13933C-0.0849139 8.38579 -0.0802868 8.38292 0.701689 8.38235C2.03197 8.38235 3.36226 8.37833 4.69254 8.38235C5.15525 8.38235 5.18764 8.40758 5.27093 8.84112C6.38548 14.554 7.59083 20.2531 8.53186 25.9959C8.53822 26.0337 8.54112 26.0721 8.54574 26.1106C8.58739 26.1857 8.60069 26.313 8.73777 26.2144Z" fill="white"/>
<path d="M60.3585 16.4777C60.7952 15.9042 61.1972 15.3772 61.7195 14.9637C62.2482 14.5458 62.8541 14.2341 63.5032 14.0462C64.1523 13.8605 64.8254 13.7701 65.501 13.7778C66.1774 13.7764 66.8485 13.8963 67.4819 14.1316C68.1128 14.3702 68.6887 14.7326 69.1749 15.1971C69.6688 15.6616 70.006 16.2345 70.3178 16.8166C70.6116 16.7151 70.7006 16.4869 70.8435 16.3154C72.3774 14.4751 74.3335 13.5863 76.743 13.8202C79.023 14.0416 80.5181 15.3153 81.3533 17.3861C81.7584 18.3808 81.9713 19.4422 81.9809 20.5149C82.004 24.0263 82.0029 27.5376 82.0057 31.0495C82.0057 31.6052 81.9843 31.623 81.4083 31.623C80.2129 31.628 79.0176 31.628 77.8223 31.623C77.2514 31.623 77.237 31.6098 77.2364 31.0432C77.2325 28.0658 77.2325 25.0885 77.2364 22.1114C77.2372 21.5962 77.1986 21.0817 77.1207 20.5723C77.0584 20.1564 76.9417 19.7505 76.7737 19.3645C76.086 17.7852 74.2953 17.2324 72.8146 18.1493C71.9829 18.6655 71.5034 19.423 71.3392 20.3756C71.2692 20.8092 71.2372 21.248 71.2437 21.6871C71.248 24.7402 71.248 27.7936 71.2437 30.8471C71.2437 31.623 71.2437 31.6241 70.4438 31.6247C69.3264 31.6247 68.2084 31.6247 67.0892 31.6247C66.4865 31.6247 66.4738 31.6132 66.4732 31.0163C66.4698 28.001 66.4698 24.9857 66.4732 21.9704C66.4732 21.4158 66.457 20.8641 66.3512 20.3176C66.284 19.961 66.1765 19.613 66.0308 19.2802C65.2037 17.4153 63.0683 17.4348 61.9971 18.2732C61.1874 18.904 60.6888 19.7103 60.5511 20.7282C60.5054 21.0879 60.4841 21.4502 60.4875 21.8127C60.4875 24.7706 60.4875 27.7288 60.4875 30.6871C60.4875 30.8591 60.4812 31.0312 60.4875 31.2032C60.4933 31.479 60.388 31.6276 60.0827 31.6264C58.7524 31.6195 57.4221 31.6213 56.0918 31.6264C55.8205 31.6264 55.7089 31.4985 55.7164 31.2411C55.7205 31.0885 55.7135 30.9354 55.7135 30.7823C55.7135 25.5339 55.7135 20.2857 55.7135 15.0377C55.7135 14.162 55.6586 14.1901 56.5609 14.1907C57.602 14.1907 58.6431 14.1855 59.6842 14.1936C60.2047 14.197 60.2307 14.2263 60.2406 14.7521C60.2481 15.1535 60.2406 15.555 60.244 15.9564C60.2521 16.0986 60.2342 16.2506 60.3585 16.4777Z" fill="white"/>
<path d="M44.6685 31.2276C44.5581 30.5298 44.4978 29.8252 44.4881 29.1189C44.48 27.0384 44.4626 24.9584 44.4603 22.8779C44.4603 21.9425 44.4534 21.0072 44.3822 20.0742C44.3041 19.0568 44.067 18.0745 43.6101 17.1581C42.698 15.3408 41.1427 14.3888 39.1912 13.9862C37.8349 13.7064 36.4693 13.7259 35.1055 13.8939C33.6249 14.0757 32.1905 14.4398 30.8434 15.0942C30.394 15.3121 30.3876 15.335 30.5212 15.7967C30.7387 16.5491 30.9614 17.2997 31.1893 18.0487C31.32 18.4748 31.3339 18.4822 31.7393 18.2752C32.8193 17.7181 33.9943 17.365 35.2044 17.2338C36.072 17.1415 36.9396 17.1317 37.78 17.4116C38.7921 17.7476 39.3728 18.4438 39.5082 19.495C39.5799 20.0495 39.5082 20.1367 38.946 20.1436C37.9243 20.1482 36.9047 20.2352 35.8973 20.4039C34.327 20.6769 32.8238 21.1311 31.5056 22.0607C28.9608 23.8539 28.3413 27.4473 30.1644 29.8811C31.2147 31.2826 32.6688 31.9238 34.3993 31.9914C36.4416 32.0711 38.245 31.5183 39.6666 29.9895C39.7308 29.9201 39.7991 29.849 39.9107 29.8467C40.0727 29.912 40.0894 30.0795 40.1565 30.2102C40.5423 30.9626 41.1265 31.4896 41.9495 31.7265C42.7471 31.9559 43.5499 31.8985 44.3516 31.723C44.6309 31.6605 44.709 31.5126 44.6685 31.2276ZM36.7076 28.5363C36.573 28.5481 36.4378 28.5521 36.3028 28.5483C35.3664 28.5323 34.5832 28.2169 34.2015 27.3154C33.8082 26.3869 33.9031 25.4803 34.5439 24.6723C34.873 24.2559 35.3178 23.9841 35.8065 23.792C36.9159 23.3493 38.079 23.234 39.2635 23.2414C39.5683 23.2414 39.6684 23.3928 39.6655 23.6675C39.6603 24.03 39.6655 24.3924 39.6655 24.7571C39.6655 24.9865 39.6568 25.2159 39.6655 25.4453C39.7378 27.0745 38.3283 28.3866 36.7076 28.5363Z" fill="white"/>
<path d="M99.4447 31.0918C99.2666 29.6111 99.2266 28.1253 99.2319 26.636C99.2376 24.88 99.2319 23.1246 99.2319 21.3687C99.2385 20.7008 99.195 20.0333 99.1017 19.3718C98.6517 16.3841 96.8096 14.4974 93.7997 13.9543C92.1646 13.659 90.537 13.753 88.9158 14.0501C87.8325 14.2485 86.7792 14.553 85.7815 15.025C85.1748 15.3117 85.1725 15.3117 85.3523 15.9241C85.5571 16.6198 85.7572 17.3171 85.973 18.0104C86.1164 18.4749 86.1285 18.4772 86.5548 18.2628C87.3795 17.845 88.2585 17.5422 89.1668 17.363C90.1963 17.1617 91.2305 17.0848 92.2646 17.3234C93.448 17.597 94.1328 18.3258 94.2976 19.4624C94.3844 20.0589 94.3277 20.138 93.7262 20.1443C92.7046 20.149 91.6851 20.237 90.6781 20.4075C89.0887 20.6851 87.5705 21.1467 86.2431 22.1027C83.4593 24.1098 83.5038 27.5994 84.678 29.4683C85.6329 30.9886 87.0343 31.8075 88.8094 31.9652C91.0153 32.1608 92.9737 31.6097 94.5197 29.9414C94.5688 29.8999 94.6217 29.863 94.6776 29.8313C94.7355 29.8629 94.7598 29.8675 94.7679 29.8806C94.8535 30.0292 94.9362 30.1789 95.02 30.328C95.5256 31.23 96.3064 31.733 97.3336 31.8442C97.8708 31.9084 98.4152 31.8812 98.9432 31.7639C99.4979 31.6343 99.5112 31.6423 99.4447 31.0918ZM94.4769 24.7837C94.4769 25.013 94.4735 25.2424 94.4769 25.4684C94.5157 27.5329 92.2843 29.0239 90.2368 28.4126C89.567 28.2119 89.113 27.7605 88.914 27.0907C88.5884 25.9971 88.8562 24.7395 90.0928 24.0456C90.9835 23.545 91.9615 23.3649 92.9616 23.2726C93.3248 23.2393 93.6915 23.2531 94.0565 23.2399C94.3416 23.229 94.4845 23.3471 94.4781 23.6413C94.47 24.0238 94.4764 24.4046 94.4769 24.7854V24.7837Z" fill="white"/>
<path d="M114.718 17.6977V9.28203C114.718 9.12892 114.713 8.97638 114.718 8.82326C114.74 8.43502 114.769 8.38914 115.155 8.38628C116.428 8.3771 117.7 8.3771 118.973 8.38628C119.396 8.38628 119.428 8.43043 119.43 8.92132C119.437 10.3143 119.43 11.7078 119.433 13.1008C119.433 13.8778 119.436 13.879 120.23 13.8801C121.175 13.8801 122.119 13.8749 123.064 13.8835C123.527 13.8876 123.571 13.9214 123.575 14.3698C123.586 15.5168 123.586 16.6618 123.575 17.8049C123.571 18.2975 123.534 18.3297 123.047 18.3337C122.064 18.3411 121.081 18.3337 120.098 18.3377C119.442 18.3377 119.434 18.3434 119.433 18.9587C119.43 21.0393 119.43 23.1196 119.433 25.1998C119.425 25.6391 119.474 26.0775 119.579 26.5044C119.845 27.5241 120.453 28.0064 121.525 28.0477C121.97 28.0649 122.408 27.9903 122.848 27.9381C123.381 27.8779 123.385 27.8722 123.396 28.4187C123.409 29.0862 123.413 29.7543 123.421 30.4224C123.421 30.556 123.421 30.6896 123.427 30.8238C123.456 31.5418 123.457 31.5429 122.773 31.7047C121.648 31.9797 120.484 32.0698 119.33 31.9713C117.176 31.7746 115.576 30.6523 115.038 28.4365C114.835 27.6206 114.73 26.7839 114.724 25.9436C114.716 23.1955 114.724 20.4475 114.724 17.6988L114.718 17.6977Z" fill="white"/>
<path d="M47.6253 19.9975C47.6253 16.4282 47.6253 12.8591 47.6253 9.29026C47.6253 9.13772 47.6207 8.98461 47.6288 8.83149C47.6491 8.43293 47.6733 8.38992 48.058 8.38705C49.3497 8.37749 50.6414 8.37749 51.9332 8.38705C52.3259 8.38992 52.3548 8.43408 52.3768 8.81715C52.3854 8.9697 52.3802 9.12281 52.3802 9.27593C52.3802 16.4336 52.3802 23.5908 52.3802 30.7477C52.3802 31.7066 52.4381 31.6223 51.5127 31.6257C50.433 31.6295 49.3534 31.6295 48.2737 31.6257C47.6323 31.6257 47.6253 31.62 47.6253 30.9915C47.6238 27.3266 47.6238 23.662 47.6253 19.9975Z" fill="white"/>
<path d="M106.866 17.3762C107.003 17.0958 107.104 16.8733 107.219 16.6583C108.077 15.0525 109.372 14.0473 111.22 13.8018C111.602 13.7532 111.99 13.7621 112.37 13.8282C112.618 13.8695 112.747 13.9756 112.746 14.2371C112.742 15.5153 112.751 16.7936 112.741 18.0719C112.741 18.4033 112.676 18.4366 112.291 18.3924C111.637 18.3167 110.987 18.2967 110.336 18.4354C108.752 18.7738 107.657 19.9385 107.424 21.5322C107.354 22.0232 107.321 22.5187 107.323 23.0146C107.327 25.5898 107.327 28.1653 107.323 30.7409C107.323 30.913 107.315 31.085 107.319 31.257C107.326 31.5271 107.186 31.6246 106.926 31.6235C105.559 31.6193 104.191 31.6193 102.823 31.6235C102.559 31.6235 102.43 31.5122 102.436 31.249C102.439 31.1154 102.432 30.9818 102.432 30.8476C102.432 25.5633 102.432 20.2788 102.432 14.9941C102.432 14.1912 102.432 14.1912 103.264 14.1878C104.151 14.1878 105.038 14.1878 105.925 14.1878C106.731 14.1878 106.734 14.1878 106.734 15.0158C106.734 15.6071 106.73 16.1983 106.737 16.7902C106.738 16.9553 106.689 17.1308 106.866 17.3762Z" fill="white"/>
<path d="M167.335 28.3393C167.225 29.5608 166.686 30.5569 165.642 31.2462C164.939 31.7096 164.233 31.7446 163.497 31.2284C160.779 29.3217 158.049 27.4372 155.318 25.5511C154.898 25.2615 154.716 24.8796 154.734 24.3824C154.763 23.6059 155.106 22.9894 155.717 22.5255C156.187 22.1705 156.7 22.143 157.239 22.3964C158.595 23.0319 159.958 23.6581 161.319 24.2832C162.959 25.0396 164.593 25.8074 166.242 26.5438C167.042 26.8999 167.32 27.5267 167.335 28.3393Z" fill="white"/>
<path d="M154.734 15.6057C154.705 15.0993 154.916 14.7288 155.333 14.4409C158.062 12.5531 160.789 10.6622 163.515 8.7682C164.286 8.23545 164.982 8.25208 165.751 8.81924C166.659 9.49077 167.208 10.3865 167.318 11.5145C167.395 12.2967 167.114 13.0629 166.233 13.4643C163.225 14.8263 160.229 16.2244 157.232 17.6151C156.686 17.868 156.177 17.8158 155.71 17.466C155.093 17.0003 154.762 16.3758 154.734 15.6057Z" fill="white"/>
<path d="M143.942 24.3497C143.929 24.9277 143.706 25.2988 143.293 25.5809C142.247 26.2972 141.211 27.0272 140.17 27.7498C138.512 28.8996 136.842 30.0316 135.2 31.2032C134.472 31.7228 133.769 31.7302 133.056 31.2605C131.83 30.4542 131.229 29.3211 131.382 27.8507C131.448 27.2078 131.839 26.799 132.434 26.5283C135.061 25.3332 137.678 24.1197 140.3 22.912C140.685 22.7348 141.074 22.5679 141.454 22.3821C142.026 22.1028 142.544 22.2101 143.016 22.5932C143.283 22.8073 143.504 23.0737 143.663 23.3759C143.823 23.6781 143.918 24.0095 143.942 24.3497Z" fill="white"/>
<path d="M131.351 11.6955C131.409 10.4052 131.987 9.39708 133.093 8.7095C133.792 8.27423 134.481 8.28742 135.19 8.78806C137.828 10.6461 140.48 12.4854 143.145 14.306C144.018 14.9018 144.091 15.6353 143.739 16.4427C143.606 16.762 143.405 17.0493 143.15 17.2851C142.635 17.7537 142.08 17.9125 141.406 17.5977C139.245 16.5878 137.076 15.5951 134.91 14.5967C134.124 14.2343 133.348 13.8438 132.547 13.5215C131.698 13.1808 131.314 12.5896 131.351 11.6955Z" fill="white"/>
<path d="M149.406 0.000168156C150.026 -0.0164756 150.638 0.148693 151.164 0.475C151.8 0.868973 152.154 1.41147 152.073 2.19082C151.972 3.15711 151.895 4.1257 151.807 5.09372C151.668 6.61111 151.53 8.12851 151.391 9.64591C151.315 10.4809 151.234 11.3153 151.163 12.1502C151.122 12.6354 150.861 12.9726 150.44 13.1825C149.726 13.534 148.988 13.534 148.264 13.2186C147.787 13.0104 147.518 12.6239 147.471 12.1067C147.343 10.6644 147.228 9.22154 147.1 7.77927C146.965 6.2613 146.822 4.74447 146.682 3.22708C146.642 2.79067 146.583 2.35426 146.574 1.91727C146.559 1.25664 146.94 0.807612 147.472 0.483602C148.043 0.129772 148.679 -0.00900734 149.406 0.000168156Z" fill="white"/>
<path d="M149.365 39.9996C148.715 40.0099 148.096 39.8849 147.537 39.5546C146.855 39.1532 146.508 38.6027 146.597 37.7574C146.805 35.7875 146.947 33.8113 147.117 31.838C147.233 30.5288 147.349 29.2201 147.464 27.9109C147.511 27.3896 147.778 27.0111 148.25 26.7949C148.972 26.464 149.708 26.4681 150.424 26.8116C150.866 27.0249 151.123 27.3793 151.165 27.8897C151.31 29.6164 151.469 31.3425 151.625 33.0687C151.751 34.4725 151.856 35.8787 152.014 37.2785C152.192 38.8745 151.458 39.8018 149.822 39.9767C149.673 39.9927 149.519 39.9922 149.365 39.9996Z" fill="white"/>
<path d="M169.089 31.7067C168.59 31.713 168.164 31.2984 168.169 30.8121C168.177 30.5727 168.279 30.346 168.454 30.1812C168.63 30.0163 168.863 29.9267 169.105 29.9318C169.583 29.9439 169.99 30.3373 170 30.7921C170.01 31.2738 169.583 31.7004 169.089 31.7067Z" fill="white"/>
<path d="M15.0264 14.3504C15.031 14.2776 15.0402 14.183 15.1386 14.218C15.2369 14.2529 15.2195 14.3636 15.2103 14.4531L15.0264 14.3504Z" fill="white"/>
<path d="M8.73744 26.2146C8.72992 26.2868 8.71141 26.3717 8.62176 26.3373C8.53211 26.3029 8.53963 26.1979 8.54715 26.1113L8.73744 26.2146Z" fill="white"/>
<path d="M169.731 30.8625C169.694 31.2295 169.379 31.5099 169.036 31.4807C168.863 31.463 168.703 31.3798 168.589 31.2483C168.475 31.1168 168.417 30.9471 168.426 30.7742C168.453 30.4209 168.781 30.133 169.127 30.1588C169.301 30.1729 169.462 30.2549 169.575 30.3868C169.689 30.5187 169.744 30.6898 169.731 30.8625Z" fill="white"/>
<path d="M169.389 31.1052C169.246 31.2119 169.165 30.9664 169.032 31.0433C168.929 31.1006 168.818 31.2772 168.75 31.0215C168.67 30.7187 168.772 30.448 168.978 30.409C169.161 30.3752 169.32 30.4176 169.395 30.6091C169.413 30.6625 169.419 30.7189 169.415 30.7749C169.409 30.885 169.456 30.9997 169.389 31.1052Z" fill="white"/>
</g>
<defs>
<clipPath id="clip0">
<rect width="170" height="40" fill="white"/>
</clipPath>
</defs>
</svg>
