<svg width="68" height="44" viewBox="0 0 68 44" fill="none" xmlns="http://www.w3.org/2000/svg">
<path d="M12.38 43.6C8.46 43.6 5.32 43.06 2.96 41.98C1.68 41.46 0.7 40.9 0.0200001 40.3L3.62 35.5H4.22C4.7 35.98 5.34 36.44 6.14 36.88C7.98 37.76 10.18 38.2 12.74 38.2C15.06 38.2 16.92 37.66 18.32 36.58C19.72 35.5 20.6 34.04 20.96 32.2C21 32 21.02 31.7 21.02 31.3C21.02 29.9 20.48 28.76 19.4 27.88C18.32 26.96 16.66 25.92 14.42 24.76C12.42 23.72 10.8 22.78 9.56 21.94C8.36 21.1 7.32 20.02 6.44 18.7C5.6 17.38 5.18 15.8 5.18 13.96C5.18 13.28 5.24 12.56 5.36 11.8C5.76 9.68 6.66 7.76 8.06 6.04C9.5 4.28 11.36 2.9 13.64 1.9C15.96 0.899997 18.58 0.399998 21.5 0.399998C25.02 0.399998 27.98 0.959998 30.38 2.08C31.42 2.52 32.36 3.06 33.2 3.7L29.66 8.5H29.06C28.62 8.06 28.02 7.62 27.26 7.18C25.5 6.26 23.46 5.8 21.14 5.8C19.38 5.8 17.78 6.36 16.34 7.48C14.94 8.56 14.12 9.8 13.88 11.2C13.84 11.4 13.82 11.68 13.82 12.04C13.82 13 14.1 13.86 14.66 14.62C15.26 15.38 15.98 16.04 16.82 16.6C17.66 17.12 18.88 17.8 20.48 18.64C22.4 19.64 23.98 20.56 25.22 21.4C26.46 22.24 27.5 23.32 28.34 24.64C29.22 25.96 29.66 27.54 29.66 29.38C29.66 30.06 29.6 30.8 29.48 31.6C28.84 35.2 27.02 38.1 24.02 40.3C21.06 42.5 17.18 43.6 12.38 43.6ZM34.7094 43L42.0894 0.999997H67.2894L66.3294 6.4H49.5294L47.4294 18.4H60.6294L59.6694 23.8H46.4694L44.0094 37.6H60.8094L59.9094 43H34.7094Z" fill="#FAFAFA"/>
</svg>
