<svg width="68" height="44" fill="none" xmlns="http://www.w3.org/2000/svg"><path d="M12.38 43.6c-3.92 0-7.06-.54-9.42-1.62C1.68 41.46.7 40.9.02 40.3l3.6-4.8h.6c.48.48 1.12.94 1.92 1.38 1.84.88 4.04 1.32 6.6 1.32 2.32 0 4.18-.54 5.58-1.62 1.4-1.08 2.28-2.54 2.64-4.38.04-.2.06-.5.06-.9 0-1.4-.54-2.54-1.62-3.42-1.08-.92-2.74-1.96-4.98-3.12-2-1.04-3.62-1.98-4.86-2.82-1.2-.84-2.24-1.92-3.12-3.24-.84-1.32-1.26-2.9-1.26-4.74 0-.68.06-1.4.18-2.16.4-2.12 1.3-4.04 2.7-5.76 1.44-1.76 3.3-3.14 5.58-4.14C15.96.9 18.58.4 21.5.4c3.52 0 6.48.56 8.88 1.68 1.04.44 1.98.98 2.82 1.62l-3.54 4.8h-.6c-.44-.44-1.04-.88-1.8-1.32-1.76-.92-3.8-1.38-6.12-1.38-1.76 0-3.36.56-4.8 1.68-1.4 1.08-2.22 2.32-2.46 3.72-.04.2-.06.48-.06.84 0 .96.28 1.82.84 2.58.6.76 1.32 1.42 2.16 1.98.84.52 2.06 1.2 3.66 2.04 1.92 1 3.5 1.92 4.74 2.76 1.24.84 2.28 1.92 3.12 3.24.88 1.32 1.32 2.9 1.32 4.74 0 .68-.06 1.42-.18 2.22-.64 3.6-2.46 6.5-5.46 8.7-2.96 2.2-6.84 3.3-11.64 3.3zm22.33-.6l7.38-42h25.2l-.96 5.4h-16.8l-2.1 12h13.2l-.96 5.4h-13.2l-2.46 13.8h16.8l-.9 5.4h-25.2z" fill="#FAFAFA"/></svg>