<?xml version="1.0" encoding="utf-8"?>
<!-- Generator: Adobe Illustrator 24.0.1, SVG Export Plug-In . SVG Version: 6.00 Build 0)  -->
<svg version="1.1" id="Слой_1" xmlns="http://www.w3.org/2000/svg" xmlns:xlink="http://www.w3.org/1999/xlink" x="0px" y="0px"
	 viewBox="0 0 153 62" style="enable-background:new 0 0 153 62;" xml:space="preserve">
<style type="text/css">
	.st0{fill:#FFFFFF;}
	.st1{fill-rule:evenodd;clip-rule:evenodd;fill:#FFFFFF;}
</style>
<rect y="0" class="st0" width="153" height="62"/>
<g>
	<path class="st1" d="M10.7,41l7.4,2.7l3.3-0.9l-11.1-3.5L10.7,41z M105.2,60.7l-26.6,0l-28.7-8.9l-7.8,0.7l22.4,8.2l-20.2,0
		l-34.4-15C8,42.4,6.7,38.8,6.1,35L105.2,60.7z M22.2,45.2l15.1,5.5l6.8-0.8l-18.2-5.7L22.2,45.2z"/>
	<path class="st1" d="M36.2,0c2.8,0,5.5,0.4,8.1,1.1L22.8,3.2C26.8,1.2,31.4,0,36.2,0z M50.5,3.5c4.2,2.2,7.8,5.4,10.6,9.2
		l-49.5-0.2c1.9-2.6,4.1-4.8,6.7-6.7L50.5,3.5z M63.2,16.3c1.9,3.6,3.1,7.5,3.4,11.7L7,22c0.7-2.5,1.7-4.8,3-7L63.2,16.3z
		 M66.6,32.2c-0.3,4.6-1.6,8.9-3.7,12.7L5.8,32c0-0.5,0-1.1,0-1.6c0-2.1,0.2-4.1,0.6-6.1L66.6,32.2z M37.5,60.7c-0.4,0-0.8,0-1.2,0
		C27.5,60.7,19.5,57,14,51L37.5,60.7z"/>
	<path class="st0" d="M66.2,32.2c0,0,0,0.1,0,0.1l0,0c0,0,0,0,0,0.1c0,0,0,0,0,0c0,0.1,0,0.1,0,0.2c0,0,0,0,0,0c0,0,0,0,0,0
		c0,0.4,0,0.6,0,0.6c0,0,0,0,0,0c0,0,0,0.1,0,0.1c0,0,0.1-0.3,0.1-0.4c0,0,0,0,0.1-0.1l0-0.1c0-0.1,0-0.1,0-0.1c0,0,0,0,0,0
		c0,0,0,0-0.1,0.5c0,0.1,0,0.1-0.1,0.2c0,0,0,0,0,0c-0.1,0.2,0.1,0.4,0,0.5c0,0.1,0,0.1,0,0.2c-0.1,0.5-0.1,0.5-0.1,0.6
		c0,0-0.1-0.2,0-0.6c0-0.2,0-0.2,0-0.3C66,33.8,66,34.5,66,34.5c0,0.5-0.1,0.6-0.1,0.6c0.1-0.7,0.1-0.7,0.1-0.8c0,0,0,0,0,0
		c0,0,0,0,0,0c0-0.1,0-0.5,0-0.6c0-0.1,0-0.2,0-0.3c0-0.3,0.1-0.5,0-0.7l0,0c0-0.1,0-0.2,0-0.4c0,0,0,0,0,0c0,0,0-0.1,0-0.1l-0.2,0
		c0.1,0.3,0,0.3,0,0.4c0,0,0,0,0,0c-0.1,0.6-0.1,1.1-0.3,2c0,0.2-0.2,0.5-0.2,0.5c0-0.1,0-0.2,0-0.2c0,0,0,0,0,0c0,0,0,0-0.1,0.1
		c0-0.1,0-0.1,0-0.1c-0.1,0.1-0.1,0.2-0.2,0.3c0,0,0,0,0-0.2c0,0.1-0.1,0.1-0.2,0.2c0,0,0,0,0-0.1c0-0.2,0-0.5,0-0.7
		c0-0.1-0.1-0.1-0.1-0.2l0-0.4c0-0.3,0.1-0.6,0.1-0.6l0,0c0,0.1,0,0.1,0,0.1c0,0,0-0.1,0.1-0.1c0,0,0,0,0,0c0,0,0.1-0.1,0-0.3
		c0,0,0,0,0,0c0.1-0.2,0.2-0.4,0.2-0.6l-1.9-0.3c0,0,0,0.1,0.1,0.1c0,0,0,0,0,0c0.4,0.6,0.4,1.8,0.4,1.9c0,0-0.3,0.1-0.5-0.5
		c-0.2-0.5-0.3-1-0.5-1.5c0,0,0-0.1-0.1-0.1l-5-0.7c0.1,0.3,0.2,0.6,0.2,0.9c0,0.4-0.3,0.7-0.4,1c0,0,0,0.1-0.1,0.2
		c-0.2,0.5-0.3,0.4-0.6-0.1c-0.5-0.7-0.9-1.4-1.2-2.2L49.9,30c0,0,0,0,0,0c0,0,0,0-0.1,0c-0.1,0-0.2,0-0.3,0.3c0,0.1,0,0.2-0.1,0.2
		c-0.1,0.1-0.2,0.1-0.3,0.2l0,0c-0.1,0.1-0.1,0.1-0.1,0.3c-0.1,0-0.1,0-0.1,0c-0.1,0-0.1,0-0.3,0c-0.6,0.2-0.7,0.6-0.7,0.6
		c0,0,0,0.1-0.1,0.1c-0.1,0-0.1,0-0.4,0.2c-0.2,0.1-0.4,0.1-0.6,0.2c-0.1,0.1-0.2,0.2-0.3,0.3c-0.1,0.1-0.3,0.1-0.4,0.1
		c-0.1,0.1-0.2,0.3-0.4,0.3c-0.3,0-0.6,0-0.6,0.3c-0.6,0.1-0.6,0.1-0.8,0l-0.1-0.4c-0.1-0.2-0.2-0.4-0.2-0.6c-0.1-0.2,0-0.5-0.1-0.7
		c-0.1-0.2-0.2-0.3-0.2-0.4l-0.1-0.1c-0.7-0.7-1.2-1.5-1.7-2.3l-1.3-0.2c0.4,0.9,1,1.8,1.6,2.6c0,0,0,0,0,0s0,0,0,0
		c0.2,0.3,0.2,0.7,0.4,1c0,0,0.1,0,0.1-0.1c1.3,0.8,1.5,1.3,1.5,1.3c-0.1,0.1-0.2,0.2-0.2,0.3c1.3,0.8,2.3-0.6,3.5-0.4
		c0,0,0,0.1,0,0.2c0,2.4-3.2,5.9-4.1,6.1c-0.1,0.2-0.2,0.4-0.3,0.5l19.9,4.5c1.4-2.7,2.3-5.4,2.7-6.7c0,0.1,0,0.2-0.1,0.3
		c0,0,0,0,0,0c0.1-0.3,0.2-0.6,0.2-0.9c-0.1,0.2-0.1,0.4-0.1,0.5c0-0.1,0-0.2,0-0.2c0.1-0.2,0.1-0.3,0.1-0.4c0,0,0,0,0,0.1
		c0,0,0-0.1,0-0.1c0,0,0,0,0,0v0c0-0.1,0.1-0.2,0.1-0.4c0,0.1-0.1,0.3-0.1,0.4l0,0c0.1-0.2,0.1-0.4,0.2-0.7c0.3-1.3,0.5-2.6,0.6-4
		l0-0.2c0,0,0,0,0,0c0-0.1,0-0.2,0-0.3L66.2,32.2z M66.2,35.5c0,0.2-0.2,0.8-0.2,0.8c0,0-0.1,0.3-0.1,0.4c0,0,0.1-0.4,0.1-0.4
		C66.1,35.8,66.1,35.8,66.2,35.5C66.2,35.5,66.2,35.5,66.2,35.5z M65.8,36.3C65.8,36.3,65.8,36.3,65.8,36.3
		C65.8,36.4,65.8,36.4,65.8,36.3C65.8,36.4,65.8,36.4,65.8,36.3L65.8,36.3C65.8,36.4,65.8,36.3,65.8,36.3
		C65.8,36.3,65.8,36.3,65.8,36.3c-0.1,0.2-0.1,0.1-0.1,0.1c0-0.1,0-0.1,0.1-0.3c0,0,0,0,0,0c0,0,0,0,0,0c0,0,0,0,0,0c0,0,0,0,0,0
		c0,0,0,0,0,0c0,0,0,0,0,0c0,0,0,0,0,0c0,0,0,0,0,0l0,0c0-0.1,0-0.1,0.1-0.2c0,0,0,0,0,0l0,0c0,0,0,0,0,0.1c0,0,0,0.3-0.1,0.3
		C65.9,36.2,65.9,36.2,65.8,36.3C65.8,36.2,65.8,36.2,65.8,36.3z M46.7,26c-0.2-0.2-0.3-0.5-0.5-0.6c-0.1,0-0.2,0-0.3,0
		c-0.1-0.1-0.1-0.2-0.2-0.2c0,0.1-0.1,0.2-0.1,0.3c0,0-0.1,0-0.1,0.1c0,0,0,0.1,0,0.1c0,0-0.1,0-0.1,0.1c0,0,0.1,0.1,0.2,0.2
		L46.7,26z M66.6,28c-0.3-4.2-1.5-8.2-3.4-11.7l-0.8,0c0.1,0.1,0.1,0.3,0.1,0.3l0,0l0,0c0,0,0,0,0,0.1v0c0,0,0,0.1,0,0.1l0,0l0,0.1
		l0,0.1l0,0l0,0l0,0c0,0.1,0,0.2,0.1,0.3l0,0.1c0,0,0,0.1,0,0.1c0,0,0,0-0.2-0.4c-0.1-0.1-0.1-0.2-0.2-0.3c0,0,0,0,0-0.1l0,0
		c-0.1-0.1-0.1-0.2-0.2-0.3c0,0,0,0-0.1-0.1l-1.1,0c0.1,0.1,0.1,0.1,0.2,0.2l0,0l0,0c0.1,0,0.1,0.1,0.2,0.1c0.1,0.1,0.1,0.2,0.2,0.2
		l0,0c0,0,0,0,0-0.1c-0.1-0.2-0.1-0.2,0-0.3c0,0,0.1,0,0.1,0c0,0,0,0,0-0.1l0,0c0,0,0,0,0,0c0,0,0,0,0,0c0.1,0.1,0.1,0.1,0.1,0.1
		c0,0,0.1,0.2,0.1,0.2c0,0,0,0,0,0l0,0c0,0,0,0,0,0c0,0,0,0,0,0c0,0,0,0,0,0c0-0.1-0.1-0.2-0.1-0.2c0,0.1,0.1,0.2,0.2,0.3l0,0.1l0,0
		l0,0l0,0.1c0,0,0,0.1,0,0.2c0.1,0.3,0.2,0.5,0.2,0.5l0,0.1l0.1,0.1l0.1,0.1h0l0,0c0.2,0.2,0.3,0.5,0.5,0.7c0,0,0.1,0.1,0.1,0.1v0
		c0,0,0,0,0,0c0,0,0,0.1,0.1,0.1c0,0,0,0,0,0.1l0,0.1l0,0.1c0,0,0,0,0,0c0-0.1-0.1-0.1-0.1-0.2c0,0.1,0.1,0.1,0.1,0.2l0,0l0,0
		c0,0-0.1,0-0.1-0.1l0,0c0.1,0,0.2,0.2,0.3,0.3c0,0,0,0,0.1,0.1c0,0,0,0,0,0.1c0,0.2,0,0.2,0,0.4v0l0,0c0,0,0,0,0,0c0,0,0,0,0,0v0v0
		l0,0c0,0,0,0,0.1,0c0,0,0,0.1,0.1,0.1l0,0c0,0,0,0,0,0c0,0,0,0,0,0.1c0,0,0,0,0,0c0,0,0,0,0,0.1c0,0,0,0,0,0c0,0,0,0,0,0
		c0,0,0,0,0-0.1c0,0,0,0,0,0.1c0,0.2,0.1,0.3,0.1,0.5l0,0c0,0.1,0.1,0.3,0.1,0.4l0,0.1c0,0.1,0,0.2,0.1,0.3l0-0.1l0,0c0,0,0,0,0,0.1
		c0.1,0.1,0.1,0.1,0.2,0.5v0l0,0.1v0l0,0.1c0,0,0.3,1.2-0.2,1.7c0,0,0-0.1-0.1-0.1c0,0.1,0.1,0.2,0.1,0.3c0,0-0.1-0.1-0.1-0.1
		c0.1,0.1,0.1,0.2,0,0.4l0,0c-0.1,0.3,0,0.6-0.1,0.9c-0.2-0.4-0.2-0.4-0.3-0.4c-0.7,0.2-0.2,1.5,0.1,2c0,0,0,0,0.5,0.8
		c0.1,0.1,0.1,0.2,0.1,0.4L66.6,28z M61,12.8c-2.8-3.8-6.4-7-10.6-9.2l-0.1,0l0.1,0c0,0,0,0-0.1,0h0l0.1,0c0.3,0.2,0.6,0.3,1,0.5
		c0.2,0.1,0.4,0.2,0.6,0.3c0,0-0.1-0.1-0.1-0.1C52,4.4,52,4.4,52.6,4.8c0,0,0,0,0,0c0,0,0,0,0.1,0c0,0,0.2,0.1,0.4,0.3
		c-0.1-0.1-0.2-0.1-0.3-0.2c0.6,0.4,0.8,0.5,1.2,0.8c0,0,0,0,0,0c0.5,0.3,0.8,0.6,1,0.7l0,0c0,0,0.1,0.1,0.1,0.1c0,0,0,0,0.1,0.1
		C55.6,7,56,7.3,56.2,7.4l0,0c-1-0.9-1.9-1.4-2-1.5c0,0-0.1-0.1-0.1-0.1l0,0c0,0,0,0,0,0c0,0,0,0,0,0c0,0,0,0,0,0c0,0,0,0,0,0
		c0,0,0,0,0,0c0,0,0,0,0,0c0,0,0,0,0,0c-0.1,0-0.1-0.1-0.2-0.1c0,0,0,0,0,0c0,0,0,0,0,0c0,0,0,0,0,0c0,0,0,0,0,0c0,0,0,0,0,0
		c0,0,0,0,0,0c0,0,0,0,0,0c0,0,0,0,0,0c-0.2-0.1-0.4-0.3-0.6-0.4C52.7,5,52.7,5,52.6,4.9l0,0c0,0-0.1,0-0.1-0.1l-0.1,0c0,0,0,0,0,0
		c0,0,0,0,0,0l0,0l0,0c-0.1,0-0.1-0.1-0.2-0.1l0,0c-0.1-0.1-0.3-0.2-0.5-0.3c0,0,0,0-0.1-0.1c0,0,0,0,0.1,0c-0.1,0-0.2-0.1-0.2-0.1
		C51.3,4.1,51.2,4,51.1,4c-0.1-0.1-0.2-0.1-0.3-0.2c-0.2-0.1-0.2-0.1-0.3-0.1c0,0-0.1,0-0.1-0.1l0,0c0,0,0.1,0,0.1,0.1
		c0,0-0.1,0-0.1,0l-0.1,0l-0.2,0c0.1,0.1,0.3,0.1,0.4,0.2l0,0l0,0c0,0,0.5,0.3,0.7,0.4v0h0c0,0,0,0,0,0s0,0,0,0l0,0v0
		c0,0,0.1,0,0.1,0.1c0.1,0.1,0.2,0.1,0.3,0.1l0,0l0,0l0,0l0,0l0,0c0,0,0.1,0,0.1,0.1l0.1,0c0.1,0.1,0.3,0.2,0.3,0.2
		C52,4.7,52,4.7,51.9,4.6c0,0,0,0,0,0c0,0,0,0,0,0s0,0,0,0c0,0,0,0,0,0l0,0c0,0,0,0,0,0c0,0,0,0,0,0c0,0,0,0,0,0c0,0,0,0-0.1,0l0,0
		c0,0-0.1,0-0.1,0c0,0,0,0,0.1,0.1l0,0l-0.1,0l0,0c0,0,0,0,0,0c0,0,0.4,0.3,0.5,0.4l0,0L52,5c0,0,0,0.1,0.1,0.1l0,0
		c0.1,0.1,0.1,0.1,0.4,0.3c0,0,0,0,0,0.1c0,0,0,0,0,0c0,0,0,0,0,0c0.7,0.5,0.7,0.5,1.3,1c0.4,0.4,0.8,0.9,1.3,1.2v0c0,0,0,0,0,0
		c0,0,0,0,0,0c0.2,0.1,0.3,0.2,0.4,0.3l0,0c-0.1-0.1-0.1-0.1-0.2-0.2c0.1,0.1,0.1,0.1,0.2,0.2l0,0l0,0l0,0c0,0,0,0,0.1,0
		c0,0,0,0,0.1,0c0-0.1,0-0.1-0.2-0.2c0.1,0,0.1,0.1,0.2,0.1c-0.4-0.4-0.4-0.4-0.4-0.4c0.1,0.1,0.3,0.2,0.4,0.2l0,0
		c0,0,0.1,0.1,0.1,0.1l0,0.1l0.1,0c0,0,0.4,0.3,0.5,0.4c1.6,1.5,1.6,1.5,2,1.9l0,0l0,0c0.5,0.6,0.5,0.6,1.2,1.5l0,0l0,0
		c0.1,0.1,0.1,0.2,0.2,0.3l0,0l0,0l0,0c0,0.1,0.1,0.1,0.1,0.2l0,0l0,0.1c0,0.1,0,0.1,0.1,0.2c0,0.1,0.1,0.1,0.1,0.2L61,12.8z
		 M44.3,1.1C41.7,0.4,39,0,36.2,0c-1.1,0-2.2,0.1-3.2,0.2c0,0,0,0,0,0.1c0,0,0.1,0,0.1,0c0,0-0.1,0-0.1,0c0.1,0,0.3,0,0.4,0
		c0,0,0,0,0,0c0.1,0,0.1,0,0.2,0c0,0,0,0,0,0c0,0,0,0,0,0c0,0,0,0,0,0c0,0,0,0,0,0c0,0,0,0,0,0c0,0,0,0,0,0s0,0,0,0c0,0,0,0,0,0
		c0,0,0,0,0,0s0,0,0,0c0,0,0,0,0,0c0,0,0,0,0.1,0c0,0-0.1,0-0.1,0c0.3,0.1,0.3,0.1,0.4,0.1c0,0-0.1,0-0.1,0c0,0,0,0,0,0c0,0,0,0,0,0
		c0,0,0,0,0,0c0,0,0.1,0,0.1,0c0,0,0.1,0,0.1,0c0,0-0.1,0-0.1,0l0,0c0,0-0.1,0-0.1,0l0,0l0,0c-0.2,0-0.2,0-0.3,0c0.2,0,0.2,0,0.3,0
		c0,0,0,0,0,0c-0.9-0.1-1.5,0.1-1.5,0.1c0,0-1,0.1-1,0.1c-0.2,0-0.2,0-0.9,0.1c0,0,0.1,0,0.1,0l0,0c0.1,0,0.2,0,0.2,0l0.1,0
		c0.3,0,0.5,0,0.8,0c-0.1,0-0.5,0-0.5,0c0,0-0.2,0-0.4,0c0.1,0,0.2,0,0.2,0c-0.1,0-0.2,0-0.3,0c0.2,0,0.5,0,0.7,0l0,0
		c0.2,0,0.3,0,0.5,0c0,0,0,0-0.1,0l0,0c-0.8,0-1.1,0.1-1.2,0.1c0.7,0,0.7,0,0.7,0c-0.1,0-0.1,0-0.2,0c0,0,0,0,0,0c0,0,0,0,0,0
		c0,0,0,0,0,0c0,0,0,0,0,0c0,0,0,0,0,0c0,0,0,0,0,0c0,0,0,0,0,0c0,0,0,0,0,0c-0.4,0-0.4,0-0.5,0.1c0,0,0,0-0.1,0c0,0,0,0,0,0
		c0.1,0,0.1,0,0.2,0c0.2,0,0.2,0,0.3,0c-0.2,0-0.5,0.1-0.7,0.1l0,0c0,0-1.3,0.2-1.6,0.3c-0.1,0-0.1,0.1-0.2,0.1v0c0,0,0,0,0,0
		c0,0,0,0,0,0s0,0,0,0c0,0,0,0,0,0c0,0,0,0,0,0c0,0,0,0,0,0c0,0,0,0,0,0l0,0c0,0,0,0,0,0c0,0,0,0,0,0c0,0,0,0,0,0l0,0c0,0,0,0,0.1,0
		c0,0-0.5,0.1-0.8,0.2l-0.1,0c-0.2,0-0.2,0-0.3,0.1c0.6-0.1,1.2-0.2,1.8-0.4c0,0-0.1,0-0.1,0c0,0-0.1,0-0.1,0c0,0,0.3-0.1,0.6,0
		c-0.2,0.1-0.5,0.1-0.7,0.2c-0.2,0.1-0.2,0.1-0.3,0.1c0,0,0,0,0,0C28.2,1.8,28,1.9,27.9,2c0,0,0.1,0,0.1,0c0.1,0,0.1,0,0.3-0.1
		C28.1,2,28,2,27.9,2c0,0,0,0,0,0l0,0l0,0c0,0,0,0,0,0c0.3-0.1,0.6-0.2,1-0.2c-0.4,0.1-0.4,0.1-0.4,0.1c-0.3,0.1-0.7,0.1-1,0.3
		c0,0,0.1,0,0.1,0l0,0c0,0,0,0,0.2,0c0,0,0.1,0,0.1,0l0,0c0,0,0,0,0.1,0C28.2,2,28.4,2,28.6,2l0,0c0.1,0,0.2,0,0.3-0.1
		c0.1,0,0.1,0,0.2-0.1c0,0-0.1,0-0.1,0c0.1,0,0.1,0,0.2,0l0,0c0.3,0,0.3,0,0.4-0.1l0,0l0,0c0.5-0.1,1-0.2,1.4-0.3
		c0.1,0,0.3,0,0.4-0.1c0,0,0,0,0.1,0c0.9-0.1,1.2-0.1,1.4-0.1c-0.1,0-0.2,0-0.3,0l0,0c-0.3,0-0.6,0.1-0.9,0.1c0,0,0,0,0,0
		c0,0,0,0,0,0c0,0,0,0,0,0l0,0l0,0c0,0,0,0,0,0c0,0,0,0,0,0c0,0,0,0,0,0c0,0-0.5,0.1-0.9,0.2l-0.1,0l-0.1,0c0,0,0,0,0,0
		c0,0-0.3,0-0.5,0.1c-0.3,0.1-0.3,0.1-0.5,0.1c0,0,0,0,0,0c0,0,0,0,0,0s0,0-0.1,0c-0.1,0-0.7,0.2-0.9,0.2c0.9-0.2,0.9-0.2,0.9-0.2
		c-0.4,0.1-0.7,0.2-1.1,0.3c0,0,0,0,0,0c0,0-0.1,0-0.1,0c0,0,0,0,0,0c0,0,0,0,0,0c0,0,0,0,0,0c0,0,0,0,0,0c0,0,0,0,0,0c0,0,0,0,0,0
		c0,0,0,0,0,0c0,0,0,0,0,0c-0.7,0.2-0.7,0.2-0.8,0.3v0v0c0,0,0,0,0,0l0.1,0l0,0c0.3-0.1,0.6-0.2,0.9-0.2c0,0,0,0,0,0c0,0,0,0,0,0
		c0,0,0,0,0,0c0,0,0,0,0,0c0,0,0,0,0,0c0,0,0,0,0,0c0,0,0,0,0,0c0,0,0,0,0,0c0.3-0.1,0.3-0.1,0.5-0.1c0.2-0.1,0.2-0.1,0.3-0.1
		c0.2,0,0.3-0.1,0.5-0.1c0,0,0,0,0,0l0,0c0,0,0,0,0,0c0,0,0,0,0,0l0,0c0,0,0,0,0,0c0,0,0,0,0,0c0,0,0,0,0.1,0c0.1,0,0.2,0,0.2,0
		c-0.1,0-0.2,0.1-0.3,0.1c0,0-1.7,0.5-2.7,0.8l1.3-0.1c0.1,0,0.3-0.1,0.4-0.1l0,0c0.1,0,0.2-0.1,0.3-0.1c-0.1,0-0.2,0-0.4,0.1
		c0.1,0,0.2,0,0.3-0.1c0.9-0.2,0.9-0.2,1-0.3l0.1,0C30.6,2,30.9,1.9,31,1.8C30.3,2,30.3,2,30.2,2c0.1,0,0.1,0,0.3-0.1h0
		c-0.1,0-0.1,0-0.3,0.1c0,0,0,0,0,0c0,0,0.1,0,0.1,0c0,0,0,0-0.1,0c0,0,0,0,0.1,0l0,0l0,0l0,0l0,0l0,0c0,0,0,0,0,0c0,0,0,0,0.1,0
		c0,0-0.1,0-0.1,0c0.5-0.1,0.5-0.1,0.6-0.1c0,0,0,0,0,0c0,0-0.1,0-0.1,0c0.2,0,0.6-0.1,0.7-0.1l0,0c0,0,0.1,0,0.2,0c0,0,0,0,0,0
		c0,0,0,0-0.1,0l0,0l0,0c0.4,0,0.8-0.1,1.3-0.2l0,0l0,0c0.1,0,0.2,0,0.4,0c0,0,0,0,0,0c0,0,0.6,0,0.9-0.1c0.2,0,0.3,0,0.5,0
		c0,0,0,0,0,0c0,0,0,0,0,0c0,0,0,0,0,0c0,0,0,0,0,0c0,0,0,0,0,0c0,0,0,0,0,0c0,0,0,0,0,0s0,0,0.1,0c0.6,0,1,0,1.2,0
		c-1.2,0-1.6,0-2.6,0.1c-0.3,0-0.7,0.1-1.1,0.1l0,0c-0.2,0-0.3,0-0.5,0.1c0,0,0.1,0,0.1,0c0,0-0.1,0-0.1,0c0,0,0,0,0,0
		c0.4-0.1,0.8-0.1,1.2-0.2c1-0.1,1.4-0.1,1.7-0.1c0,0,0,0,0,0c0.1,0,0.1,0,0.2,0c0,0,0,0-0.1,0c0.2,0,0.3,0,0.5,0c0,0,0,0,0,0
		c0,0-0.1,0-0.1,0c0.1,0,0.1,0,0.2,0c0,0,0,0,0,0c0,0-0.1,0-0.1,0c0.3,0,0.5,0,0.7,0c-0.3,0-0.5,0-0.8,0c0,0,0,0,0,0
		c-0.2,0-0.4,0-0.6,0c0,0-0.5,0.1-0.8,0.1c-0.1,0-0.2,0-0.3,0c0,0,0,0,0,0c0.2,0,0.5-0.1,0.7-0.1c-0.1,0-0.2,0-0.2,0
		c0,0,0.1,0,0.1,0c-0.1,0-0.1,0-0.2,0c0.2,0,0.4-0.1,0.6-0.1c0,0-0.1,0-0.4,0.1c0,0,0,0,0,0c-0.1,0-0.2,0-0.4,0l-0.1,0l0,0l0,0l0,0
		c-0.2,0.1-0.4,0.1-0.6,0.1c0.2,0,0.2,0,0.2,0c-0.1,0-0.3,0-0.4,0.1c0,0,0,0,0.1,0c-0.1,0-0.1,0-0.2,0c0.1,0,0.1,0,0.2,0l0,0
		c0,0,0.1,0,0.1,0c-0.2,0-0.5,0.1-0.7,0.2c-0.1,0-0.1,0-0.2,0c0,0,0.1,0,0.1,0c0,0-0.1,0-0.1,0l-0.1,0c-0.2,0-0.2,0-0.3,0.1
		c0,0,0.1,0,0.1,0c0,0-0.1,0-0.1,0c0,0-0.1,0-0.1,0c0,0,0.1,0,0.1,0c0,0,0,0-0.1,0l0,0c-0.3,0.1-0.3,0.1-0.3,0.1v0c0,0,0,0,0,0
		c0,0,0,0,0,0v0c0,0,0,0,0,0s0,0-0.1,0c-0.1,0-0.1,0-0.2,0c0,0,0,0,0.1,0c-0.2,0.1-0.2,0.1-0.3,0.1c0.1,0,0.1,0,0.2,0
		c-0.2,0.1-0.4,0.1-0.5,0.2c0,0,0,0,0,0c0,0,0,0-0.1,0v0c0,0,0,0,0,0c0,0,0,0,0,0l0,0c0,0,0,0,0,0s0,0-0.1,0c0,0-0.1,0-0.1,0.1l0,0
		l0,0l0,0v0c0,0,0,0,0,0c-0.1,0-0.1,0.1-0.2,0.1l1.9-0.2c0.1,0,0.2-0.1,0.3-0.1c0,0,0,0.1-0.1,0.1l0.1,0c0.5-0.2,1.2-0.4,1.3-0.4
		c-0.2,0-0.5,0.1-0.7,0.2c0.1,0,0.2-0.1,0.3-0.1c0,0,1.6-0.4,3.4-0.7c0,0-0.1,0-0.1,0h0c0,0,0,0-0.1,0c0,0,0,0,0.1,0l0,0
		c0,0,0,0,0,0c-0.1,0-0.2,0-0.2,0c-0.4,0-0.4,0-0.8,0h0l0,0l0,0l0,0c-0.3,0-0.5,0-0.8,0c0,0,0,0,0,0l0,0c0,0,0,0,0,0c0,0,0,0,0,0
		l0,0c0,0,0,0,0.1,0c0,0-0.1,0-0.2,0c-0.1,0-0.2,0-0.3,0l-0.7,0c0,0,0,0,0.1,0c0,0,0,0,0,0c0,0-0.1,0-0.1,0c0,0,0,0,0,0
		c0,0,0,0,0.1,0l0,0l0,0l0,0c0.1,0,0.7,0,1.2-0.1c0,0,0,0,0.1,0h0h0l0,0c0.2,0,0.7,0,1.1,0c-0.1,0-0.1,0-0.2,0c0.2,0,0.4,0,0.6,0
		l0,0l0,0h0c-0.1,0-0.3,0-0.4,0l0,0c0,0-0.1,0-0.1,0c-0.1,0-0.1,0-0.2,0c-0.1,0-0.2,0-0.3,0c0,0-0.1,0-0.1,0l0,0
		C34.3,1.1,34.3,1.1,34,1l0,0c0,0-0.1,0-0.1,0c0,0,0,0,0,0c0,0,0,0-0.1,0c0,0,0,0,0,0c0,0,0,0,0,0c0,0,0,0,0,0c0,0,0,0,0,0
		c0,0,0,0,0,0c0,0,0,0,0,0c0,0,0,0,0,0c0,0,0,0,0,0c0,0-0.1,0-0.1,0l0,0c0,0-0.1,0-0.1,0c0,0,0,0,0,0c0,0,0,0-0.1,0
		c-0.2,0-0.5,0-0.5,0l0,0c0,0,0,0,0.1,0c0,0-0.1,0-0.1,0c0,0,0,0,0.1,0c-0.1,0-0.5,0-0.5,0c0.1,0,0.9,0,1,0l0,0c0,0,0,0,0,0
		c0,0,0.1,0,0.1,0c0.1,0,1.3,0.1,2.6,0.3l0,0c0,0,0.1,0,0.1,0l0,0c-0.1,0-0.2,0.1-0.3,0.1c-0.2,0.1-0.4,0.1-0.5,0.2c0,0,0,0,0,0l0,0
		c0.1-0.1,0.1-0.1,0.5-0.2l-0.1,0c-0.8,0.3-0.8,0.3-1.1,0.4c0,0,0,0-0.3,0.2c0,0,0.1,0,0.1,0C34.5,2,34.5,2,34.4,2.1l3.1-0.3
		c0,0-0.1,0-0.1-0.1c0,0,0.1,0,0.1,0.1l0.1,0c-0.1,0-0.1,0-0.1-0.1c0.1,0,0.1,0,0.2,0.1l0.2,0c-0.8-0.3-1.4-0.4-1.6-0.5
		c0,0,0,0,0.1,0c0,0,0,0,0,0c0,0,0,0,0,0c0.1,0,0.1,0,0.2,0c0.5,0,0.8,0.1,1,0.1c-0.2,0-0.5-0.1-0.7-0.1c0.3,0,0.6,0.1,0.9,0.1
		c0,0,0,0,0.1,0c0,0,0,0,0.1,0c0,0,0.1,0,0.1,0c0,0,0,0,0,0c0,0,0,0,0,0c0,0-0.1,0-0.1,0c-0.3,0-0.9-0.1-1.3-0.1c0,0,0.1,0,0.1,0
		c-0.1,0-0.1,0-0.2,0c0,0,0,0,0,0c0.2,0,0.4,0,0.6,0c0,0-0.1,0-0.1,0c0.5,0,1,0.1,1.6,0.1c0.3,0,0.6,0.1,0.9,0.1l0.2,0l0.2,0
		c-0.1,0-0.3,0-0.4-0.1c0.6,0.1,0.6,0.1,0.7,0.1c-0.1,0-0.2,0-0.2,0c0.2,0,0.3,0,0.4,0l0.1,0c-0.3,0-0.3-0.1-0.8-0.1c0,0,0,0,0,0
		c-0.2,0-0.4,0-0.6-0.1c0,0-0.1,0-0.1,0c0,0,0.1,0,0.1,0c0,0,0,0,0,0c-0.3,0-0.3,0-0.4,0c0,0,0.1,0,0.1,0v0v0v0c0,0,0,0,0,0
		c-0.2,0-0.4,0-0.5,0c0.9,0,1.8,0.1,2.7,0c-0.1,0-0.1,0-0.3-0.1c0,0,0,0,0,0c0,0,0,0,0,0c0,0,0,0,0,0c0.2,0,0.4,0,1.8,0.1
		c-0.4-0.1-0.4-0.1-0.4-0.1c0.1,0,0.1,0,0.2,0c0,0-0.1,0-0.2-0.1l0,0c0.4,0,0.7,0.1,1,0.1L44.3,1.1z M26.4,2.8
		C26.5,2.8,26.5,2.8,26.4,2.8L26.4,2.8L26.4,2.8z M25.9,2.9L25.9,2.9C25.9,2.9,25.9,2.9,25.9,2.9L25.9,2.9z M19.3,5.8
		C19.1,5.9,19.1,6,19,6c-0.7,0.5-0.9,1.3-1.6,1.8c-1.5,1.3-1.7,1.4-1.8,1.7c0,0,0,0,0,0c0,0,0.1-0.1,0.1-0.1c0,0-0.1,0.1-0.1,0.1
		c0,0,0,0,0,0c0,0,0,0,0.1-0.1c0,0,0,0,0,0.1c0,0,0,0,0,0c0.5-0.5,1-0.9,1.5-1.3c0,0,0.1-0.1,0.1-0.1c0,0,0,0,0,0c0,0,0,0,0.1-0.1
		l0,0c1.2-0.4,2-1.6,3.1-2.1c0,0,0,0,0,0.1c0.3-0.2,0.3-0.2,0.3-0.2c0,0,0,0-0.1,0c0.1,0,0.2-0.1,0.2-0.1L19.3,5.8z M22.2,5.6
		C22,5.7,22,5.7,22,5.8C22,5.7,22.1,5.7,22.2,5.6c-0.1,0.1-0.1,0.2-0.1,0.2c-1.3,0.9-1.5,1-1.6,1c0,0,0,0,0,0.1c0.1,0,0.1,0,0.2,0
		c0,0-0.1,0.2-0.3,0.3c0.2,0,0.3-0.2,0.5-0.2c0,0,0,0,0,0c0.5-0.3,0.8-0.6,1.1-0.6c-0.5,0.3-0.8,0.8-1.3,1.1c0,0,0,0,0,0
		c-0.8,0.7-0.8,0.7-0.9,0.7c0,0,0,0.1-0.1,0.1c0,0,0,0,0,0.1c0,0-0.4,0.6-0.5,0.7c0,0,0,0.1-0.1,0.3c0,0,0,0.1,0.1,0.1
		c0,0.2,0,0.2-0.2,0.3c-0.3-0.2-0.5,0.1-0.7,0.1c0,0.1,0,0.1,0,0.2c0.3,0,0.4-0.3,0.7-0.2c0,0,0,0,0,0.1c-0.1,0.1-0.1,0.1-0.3,0.4
		c0,0,0.1-0.1,0.1-0.1c0,0,0,0,0,0L18.1,11c-0.2,0.1-0.5,0.1-0.7,0.2c-0.2,0.1-0.4,0.4-0.7,0.4c0,0-0.4-0.1-0.4-0.5
		c-0.2,0-0.4,0.2-0.7,0.3c0,0,0,0,0,0c-0.2,0-0.4,0.2-1,0.6c1-0.4,1-0.4,1-0.3c0.1,0.3-0.3,0.5-0.5,0.5c0,0,0,0,0-0.1c0,0,0,0,0,0
		c0,0,0,0,0,0c0,0.1-0.1,0.3-0.1,0.4c0,0-0.1,0.1-0.1,0.1l17.3,0.1l0-0.1c0-0.1,0-0.1,0-0.2l0,0c0-0.1,0-0.2,0-0.2
		c0,0-0.1-0.1-0.1-0.1c0-0.1,0-0.2,0.1-0.3l0-0.1c0,0,0,0,0,0c0,0,0,0,0,0c0,0,0,0,0,0c0,0,0,0,0,0c0,0,0,0,0,0c0,0,0,0,0,0
		c0,0,0,0,0,0c0,0,0,0,0,0c0,0,0-0.1,0-0.1l0,0l0-0.1c0,0,0.1-0.1,0.1-0.1l0,0c0,0,0,0,0.1,0c0.1,0,0.2-0.1,0.2-0.2l0,0l0.1-0.1
		c0,0.2-0.1,0.4-0.1,0.6c0,0,0.1,0.1,0.1,0.1c0,0,0,0.1,0,0.1c0,0-0.1,0-0.1,0c0,0,0,0,0,0.1c0,0,0,0.1-0.1,0.1l0,0.1l0,0l0,0
		c0,0-0.1,0-0.1,0.1c0,0.4,0,0.4,0,0.4l0,0.1l0,0l0,0c0,0,0,0.1,0.1,0.1l1.8,0c0.3-0.2,0.3-0.1,0.5,0l0,0l0.3,0c0,0,0,0,0-0.1l0,0
		l0,0l0.1,0l0,0c0.1,0,0.2-0.1,0.2-0.3v0c0,0,0,0,0,0c0,0,0,0,0,0s0,0,0,0c0,0,0,0,0,0c0,0,0,0,0,0c0,0,0,0,0,0c0,0,0,0,0-0.1
		c0-0.1,0-0.2,0-0.3l0,0c0-0.1,0-0.2,0-0.2c0.2-0.5,0.2-0.5,0.3-0.6c0,0,0.1,0,0.1,0.1l0,0l0,0l0.1,0.1l0,0c0,0,0.1,0.1,0.1,0.1
		c0.1-0.1,0.1-0.1,0.1-0.4v0c0,0,0,0,0,0s0,0,0,0v0c0,0,0,0,0,0s0,0,0,0c0,0,0,0,0-0.1c0,0,0-0.1,0-0.1c0,0-0.1,0-0.1,0
		c0-0.1-0.1-0.2-0.1-0.3l0,0c0,0,0,0,0,0c0,0,0,0-0.1,0c0,0,0,0,0-0.1c0,0,0,0,0,0c0,0,0,0,0,0c0,0,0,0,0,0c0,0,0,0,0,0c0,0,0,0,0,0
		c0,0,0,0,0,0c0,0,0,0,0,0c0,0,0,0,0,0c0,0,0,0,0-0.1l0,0l0,0c0.1-0.1,0.1-0.1,0.2-0.1l0,0c0.1,0,0.1,0,0.1,0l0,0c0,0,0,0,0,0
		c0,0,0,0,0.2-0.1c0,0,0,0,0.1,0.1l0,0l0,0l0,0c0.1,0,0.2,0,0.2,0c0,0,0-0.1,0-0.1v0c0.1,0,0.1,0,0.2-0.1l0,0c0,0,0,0,0,0
		c0,0,0.1,0,0.1,0c0,0,0,0,0,0c0,0,0,0,0,0c0,0,0,0,0,0c0,0,0,0,0,0c0,0,0,0,0,0c0,0,0,0,0,0c0,0,0,0,0,0c0,0,0,0,0,0c0,0,0,0,0,0h0
		c0,0,0,0,0,0c0,0,0,0,0,0c0,0,0,0,0,0c0,0,0,0,0,0s0,0,0,0s0,0,0,0c0,0,0,0,0,0l-0.1-0.1c-0.1-0.1-0.2-0.1-0.3-0.2c0,0,0,0,0,0
		c0-0.1,0-0.1,0-0.2c0,0,0,0,0,0c0,0,0,0-0.1,0c0,0-0.1,0.1-0.1,0.1c0,0,0,0-0.1,0l0,0c0,0,0,0-0.1,0c0,0-0.2,0.1-0.3,0.1l0,0h0
		c0,0,0,0,0,0h0h0c0,0,0,0,0,0l0,0l0,0l0,0l-0.1,0c0,0,0,0.1-0.1,0.1c0,0,0,0,0,0l0,0c0,0,0,0-0.1,0c-0.1,0-0.1,0-0.1,0.1
		c0,0,0,0,0,0c0-0.1,0-0.1-0.1-0.2l0,0c0,0-0.1,0-0.1,0.1c0-0.1,0-0.1,0-0.2l0,0l0,0l0,0l0,0c-0.3-0.2-0.1-0.6-0.1-0.6
		c0-0.3-0.1-0.5,0-0.8l0,0c0-0.1,0-0.1,0.1-0.1c0-0.1,0-0.2,0.1-0.2c0.1,0,0.1,0,0.2-0.3l0,0c0.2-0.4,0.2-0.4,0.2-0.6c0,0,0,0,0-0.1
		c0,0,0,0,0.1,0c0,0,0,0,0,0c0,0,0-0.1,0-0.1l0,0v0l0,0l0,0l0,0c0,0,0-0.3-0.1-0.3l0,0l0,0l0,0l0,0l0,0c0,0,0,0-0.1,0c0,0,0,0-0.1,0
		l0,0c0,0,0,0,0,0c0,0-0.1,0-0.1,0c0,0.1,0,0.1-0.1,0.2h0c0,0,0,0,0,0c0,0,0,0,0,0c0,0,0,0,0,0l0,0l0,0.1l0,0l0,0
		c-0.1,0.1-0.1,0.1-0.1,0.4l0,0l0,0c-0.1,0.1-0.1,0.3-0.2,0.4h0h0h0c0,0,0,0,0,0c0,0,0,0,0,0c0,0,0,0,0,0h0h0c0,0,0,0,0,0
		c0,0,0,0,0,0l-0.1,0c-0.1,0.1-0.1,0.1-0.2,0.2l0,0l0,0l0,0l0,0l0,0l0,0c0,0.1,0,0.1-0.1,0.2c0,0,0,0-0.1,0c0,0,0,0,0,0
		c0,0.1,0,0.2-0.1,0.2c0,0,0,0-0.1,0c0,0.1,0,0.1,0,0.2l0,0c0,0.1,0,0.1,0,0.2l-0.1,0l0,0l0,0l0,0c0,0.2,0,0.4,0,0.6l0,0
		c0,0,0,0,0,0c0,0,0,0,0,0c0,0,0,0,0,0c0,0,0,0,0,0l0,0c0,0,0,0,0,0l0,0c0,0,0,0,0,0c0,0.1,0,0.1-0.2,0.3c0,0,0.1,0,0.1,0
		c0,0,0.1-0.1,0.1-0.1l0,0c0,0,0,0,0.1,0c0,0,0,0,0,0l0,0l0,0c0.2,0.4,0.1,0.5,0.1,0.5l0,0c-0.1,0.1-0.1,0.1-0.1,0.1c0,0,0,0,0,0
		l0,0c0,0-0.1,0-0.1-0.1c0,0-0.1,0-0.1,0c0,0,0,0,0,0s0,0,0,0c0,0,0,0,0,0c0,0,0,0,0,0s0,0,0,0c0,0,0,0,0,0s0,0,0,0s0,0,0,0
		c0,0,0,0,0,0c0,0,0,0,0,0c0,0,0.1,0,0.1,0c0,0,0,0.1,0.1,0.1c0.1,0,0.1,0,0.2,0c0,0,0,0,0,0c0,0.1,0,0.1-0.1,0.2c0,0,0,0,0,0
		c0,0,0,0,0-0.1c-0.1,0.1-0.1,0.2-0.1,0.2c0,0,0,0,0,0c0,0,0,0-0.1,0c0,0,0,0,0.1,0c0,0,0,0-0.1,0c0,0,0,0-0.1,0c0,0,0,0,0,0
		c0,0,0,0,0,0l0,0l0,0c0,0,0,0,0,0.1c0,0,0,0,0,0c0,0,0,0,0,0c0,0,0,0,0,0c0,0,0,0.1,0,0.1c0,0,0,0,0,0.1c0,0,0,0,0,0c0,0,0,0,0,0.1
		c0,0,0,0,0,0.2l0,0l0,0c0,0.1-0.1,0.2-0.1,0.2c0,0.1,0,0.2,0,0.3c0,0,0,0.1,0,0.1c-0.1,0.2-0.1,0.2-0.2,0.2c0,0,0,0,0,0l0,0
		c0,0,0,0,0,0c0,0-0.1,0-0.2,0.1c0,0.1,0,0.2,0,0.2c0,0.1,0,0.1-0.1,0.1l0,0l0,0h0c0,0,0,0,0,0l0,0c0,0,0,0,0,0c0,0,0,0,0,0h0
		c0,0,0,0,0,0c0,0,0,0,0,0c-0.1,0-0.1,0-0.2,0c0,0,0,0-0.1,0c0,0,0,0,0,0c0-0.1,0-0.1,0-0.1c0,0-0.1,0-0.1,0.2
		c0,0.2-0.1,0.1-0.2,0.1l0,0l0,0l0,0c0,0,0-0.1,0-0.1l0,0c0,0-0.1-0.1-0.1-0.1l0,0c0,0,0-0.1,0-0.1c0.1,0,0.1,0,0.1,0l0,0
		c0,0,0,0,0,0c0,0,0.1,0,0.2,0c0,0,0,0,0.1-0.1c0.1,0,0-0.1,0-0.1c0,0,0,0,0.1,0c0-0.1,0-0.1,0-0.1c0,0-0.1-0.1-0.1-0.1l0,0
		c0,0,0,0,0,0c0,0,0-0.1,0-0.1c0,0,0-0.1,0-0.1c0-0.1,0-0.2,0-0.3c0,0.1,0,0.1-0.1,0.1c0,0,0-0.1,0-0.1c-0.1-0.1,0-0.2,0-0.2l0,0
		c0-0.1,0-0.2,0-0.2c0,0,0,0,0,0c0,0,0,0,0,0c0,0,0,0,0,0c0,0,0-0.1,0-0.1l0,0c0,0,0-0.1,0-0.1l0,0c0-0.1,0-0.2,0-0.2
		c-0.1,0.1-0.1,0.2-0.1,0.3c0,0,0,0-0.1,0.1c0,0-0.1,0-0.1,0c-0.1,0.1-0.1,0.1-0.1,0.2c0,0,0,0,0,0c0,0,0,0,0,0c0,0,0,0,0,0
		c0,0,0,0-0.1,0.1c0,0,0,0,0,0.1c0,0.1-0.1,0.2-0.1,0.2c0,0,0,0-0.1,0l0-0.1c-0.1,0-0.1,0-0.1,0.1c0,0,0,0,0,0c0,0-0.1,0-0.1,0
		c0,0,0,0,0,0c0,0,0,0,0,0c0,0,0,0-0.1,0c0,0,0,0,0-0.1c0,0,0-0.1,0-0.1c0,0,0,0-0.1,0c0,0,0,0,0,0c0,0,0,0,0,0c0,0,0,0,0,0
		c0,0,0,0,0,0c0,0,0-0.1,0-0.1c0,0,0,0,0-0.1l0,0c0-0.2,0.3-0.2,0.2-0.4c0,0-0.1,0-0.1,0c0,0-0.1,0-0.1,0c0,0,0-0.1,0-0.1
		c0.2,0,0.2,0,0.2-0.1l0,0l0-0.1h0c0,0,0,0,0,0c0.1-0.2,0.1-0.2,0.3-0.4c0,0,0,0,0-0.1c0,0,0,0,0,0h0h0c0,0,0,0,0,0s0,0,0,0
		c-0.2,0-0.2,0.4-0.4,0.4l0,0c0,0,0.1-0.1,0.1-0.1c0,0-0.1-0.1-0.1-0.1c0,0,0,0,0-0.1c0,0,0-0.1,0.1-0.1c0,0,0,0,0.1,0c0,0,0,0,0,0
		c0,0,0,0-0.1,0c0,0,0,0,0,0c0-0.1,0-0.1,0.1-0.2c0,0,0.1,0,0.1,0l0,0c0,0,0,0,0.1,0c0,0,0.1,0,0.1,0.1c0,0,0,0,0.1,0c0,0,0,0,0-0.1
		c0.1-0.1,0.1-0.1,0.1-0.1c0,0,0,0,0,0c0,0-0.1,0.1-0.1,0.1c0,0,0,0-0.1,0c0,0,0,0,0-0.1c0,0,0,0,0,0h0c-0.1,0-0.1,0-0.2,0
		c0,0,0,0,0,0l0,0c0,0,0-0.1,0-0.1l0,0c0,0,0-0.1,0-0.2l0,0l0,0h0c0,0,0,0,0.1,0c-0.1-0.1-0.1-0.1-0.1-0.2c0,0,0,0,0.1,0
		c0,0,0.1,0,0.1,0c0-0.1,0-0.1,0.1-0.1l0,0c0,0,0-0.1,0.1-0.1c0,0,0,0,0.1-0.1c0,0,0.1,0.1,0.1,0.1c0.1-0.1,0.1-0.1,0-0.2
		c0,0,0,0,0-0.1c0,0,0.1,0,0.1,0c0,0,0-0.1,0-0.1c0.1,0,0.2-0.2,0.3-0.2c0,0,0,0,0,0c0,0,0,0.1,0,0.1c0,0,0-0.1,0-0.1l0,0
		c0,0,0.1,0,0.1-0.1c0,0.1,0,0.1,0,0.2c0,0,0.1,0,0.1-0.1c0,0-0.1-0.1-0.1-0.1c0,0,0-0.1,0-0.1c0,0,0,0,0-0.1
		C34,6.9,34,6.8,34.1,6.7c0,0,0,0,0.1,0c0-0.1,0.1-0.1,0.1-0.2c0,0,0,0-0.1,0l0,0l0,0c0.1-0.1,0.1-0.1,0.1-0.1c0,0,0-0.1,0.1-0.1
		l0-0.1l0,0h0c0-0.2,0.1-0.2,0.2-0.3c0,0,0,0,0-0.1c0,0-0.1,0-0.1,0c0.1-0.1,0.1-0.1,0.2-0.1c0,0,0-0.1,0-0.1c0,0,0,0,0-0.1
		c0,0,0,0,0,0C35,5.4,35,5.1,35.1,4.9l0,0c0,0,0,0,0.1-0.1c0,0,0,0,0,0c0,0,0,0,0,0c0,0,0,0,0,0h0h0c0,0,0,0,0,0s0,0,0,0
		c0,0,0,0,0,0c0-0.1,0-0.1,0.1-0.2l-7.9,0.6c-1.3,0.7-2.3,1.9-3.6,2.5c0,0,0,0-0.1,0c0,0,0,0,0-0.1c0,0-0.1,0-0.1,0
		c0.1-0.2,0.5-0.5,0.5-0.5c0,0,0,0,0-0.1c0,0,0,0-0.2,0c0,0,0,0,0-0.1c0,0,0.1-0.1,0.1-0.1c0,0,0,0-0.1,0c0-0.1,1.3-1.3,1.3-1.3
		c0.1-0.1,0.2-0.2,0.4-0.2L23,5.6l0,0c0,0-0.1,0-0.1,0c0,0,0,0,0.1-0.1L22.2,5.6z M38,4.5c0.2,0.2,0.9,0.9,0.3,1.3
		c-0.7-0.4-0.7-0.4-0.7-0.4c0,0-0.1,0-0.1,0c0-0.1-0.1-0.1-0.1-0.2c0,0,0,0-0.1,0c0.1,0.4,1,0.7,0.5,1.1c0,0,0.1,0.6,0.4,0.6
		c0.1,0.1,0.3,0.3,0.3,0.3c0,0,0,0,0.1-0.1c-0.1-0.2-0.1-0.2-0.2-0.2c-0.2-0.3-0.2-0.3-0.2-0.5c0,0,0,0,0.1,0c0,0.1,0.2,0.2,0.2,0.3
		c0,0,0-0.1,0.1-0.1c0.3,0.2,0.3,0.2,0.4,0.2c-0.1-0.2-0.3-0.4-0.4-0.6c0-0.2,0.1-0.3,0.2-0.5c0,0,0,0,0.1,0C39,5.6,39,5.6,39,5.7
		c0,0,0.1,0,0.1,0c-0.4-0.7-0.4-0.8-0.7-1.3L38,4.5z M38.8,4.4c0.1,0.1,0.1,0.1,0.1,0.2c0,0-0.1,0-0.1,0.1c0,0,0,0.1,0,0.1
		c0,0,0.3,0.4,0.5,0.4c0.2-0.2-0.1-0.3-0.1-0.5c0,0,0,0,0,0c0,0,0-0.2,0-0.3L38.8,4.4z M11.6,15c-0.1,0.2-0.3,0.4-0.4,0.5
		c0-0.1,0.1-0.2,0.1-0.3c-0.1,0.1-0.1,0.1-0.2,0.3c-0.1,0.3-0.4,0.6-0.4,0.6c0.5-0.8,0.5-0.8,0.5-0.9c-0.2,0.2-0.3,0.5-0.5,0.8
		c0,0-0.1,0.2-0.5,0.9c-0.1,0.3-0.5,0.3-0.7,0.6c0,0.1,0,0.1-0.1,0.1c0,0,0,0,0,0c-0.2,0.2-0.2,0.2-0.2,0.2c0,0,0,0,0-0.1
		C9,18.4,8.6,19,8.4,19.6c-0.3,0.8-0.3,0.8-0.5,1.2c0,0,0,0-0.1,0c0-0.1,0.3-1.2,0.5-1.7c0.3-0.6,0.3-1.3,0.3-1.4c0,0,0,0-0.1,0
		c0,0,0,0,0-0.1c-0.1,0.2-0.1,0.3-0.2,0.5c0.1-0.2,0.1-0.3,0.2-0.5c0,0,0,0,0,0c0,0,0,0,0,0l0,0c0,0,0,0,0,0l0,0l0,0c0,0,0,0,0,0
		c0,0,0,0,0,0C7.9,19.1,7.4,20.5,7,22l0,0c0.1-0.3,0.1-0.4,0.2-0.5c0,0.1,0,0.3-0.1,0.5l17.1,1.7c0,0,0.1-0.1,0.1-0.1
		c0.3-0.3,1.1-1.1,1.4-1.3c0.2,0.3,1,0.5,1,0.5c0.4,0,0.6-0.3,1-0.3c0.6-0.8,1.5,0,2.1-0.4c0.3,0.1,0.3,0.1,0.4,0
		c0.3,0.2,0.7-0.1,1,0c0,0.1,0.1,0.2,0.1,0.2c0,0,0.1,0,0.1-0.1c0,0,0,0.1,0,0.1c-0.1,0.1-0.2,0.1-0.2,0.2c0.2,0.5,0.2,0.5-0.3,1.1
		c0,0,0,0,0,0h0c0,0,0,0,0,0s0,0,0,0h0c0,0,0,0,0,0s0,0,0,0.1c0.2,0.2,0.2,0.2,0.4,0.2c0.2,0.7,1,0.3,1.4,0.7l1.9,0.2
		c0,0,0-0.1,0.1-0.1c0.4-0.4,0.5-0.4,1.2,0.1c0,0,0.2,0.1,0.5,0.2l2.1,0.2c0,0,0.1,0,0.1-0.1c0,0,0,0,0.6,0c0.1,0.1,0.3,0.1,0.4,0.2
		l0.1,0c1.2-0.4,0.4-1.9,0.8-2.8c0,0,0-0.1,0-0.1c-0.1,0-0.2,0.1-0.3,0.1c-0.4-0.2-0.5,0.3-0.9,0.3c-0.2,0-0.3-0.2-0.5-0.3
		c-0.1,0-0.2-0.1-0.3-0.1c0,0-0.1,0-0.1,0.1c0,0,0,0.1,0,0.2c-0.3,0.2-0.3,0.2-0.7-0.2c0,0-0.1,0-0.1,0c-0.1,0-0.1-0.1-0.2-0.1
		c0,0,0.1-0.1,0.1-0.1c-0.1,0-0.2,0-0.3,0c0-0.1-0.1-0.3-0.1-0.4c0,0-0.1-0.1-0.1-0.1c0,0,0,0,0,0c0,0,0,0,0,0c0,0,0,0,0,0
		c0,0,0,0,0,0c0,0,0,0,0,0c0,0,0,0,0,0c0,0,0,0,0,0c0,0,0,0-0.1,0c0,0,0-0.1,0-0.1l0,0l0-0.1c0,0,0,0,0.1,0c0-0.1,0-0.1,0-0.4
		c0,0-0.1,0-0.1,0c0,0,0-0.1-0.1-0.1c0.3-0.4,0.9-0.2,1.2-0.6c0,0-0.1-0.1-0.1-0.1c0,0,0.1-0.1,0.1-0.1c0.2,0.1,0.2,0.1,0.6,0
		c0.1-0.1,0.1-0.1,1.3-0.6c0.1,0,0.2,0.1,0.2,0.2c0.1,0,0.3,0,0.5,0.2c0,0,0,0,0,0c0,0,1.1,0.3,1.5-0.2c0.2-0.2-1.1-1.6-1.6-1.6
		c-0.2-0.3-0.2-0.3-0.2-0.4c0.2-0.1,0.2-0.1,0.4-0.4h0c0,0,0,0,0,0c0,0,0,0,0,0h0h0c0,0,0,0,0,0c0,0,0,0,0,0c0,0,0,0,0-0.1
		c0-0.1-0.1-0.2-0.1-0.3c0,0,0.1,0,0.1,0c0-0.1,0.1-0.2,0.1-0.3c-0.5,0-0.8,0.4-1,0.5c0,0-0.1,0-0.1,0c0,0.1-0.1,0.2-0.2,0.2
		c0,0-0.1-0.1-0.1-0.1c0,0-0.1,0-0.1,0c0,0-0.1,0.1-0.1,0.1c-0.2-0.1-0.4,0-0.5-0.1c0-0.1,0-0.2-0.1-0.2c-0.3,0.1-0.3,0.1-0.7,1
		c0,0-0.1,0-0.1,0c-0.3,0.4-0.1,0.9-0.4,1.3c0,0,0,0,0,0c0.3,0.5,0.3,0.5,0.4,0.6c0,0,0,0.1,0,0.1c-0.4,0-0.4,0-1,0.5
		c0-0.1,0.1-0.2,0.1-0.3c0,0-0.5-0.5-0.9,0.1c0,0,0.1,0.1,0.1,0.1c-0.1,0.1-0.2,0.1-0.2,0.1c0-0.1-0.1-0.2-0.1-0.2
		c0,0.1-0.1,0.2,0,0.5c0,0,0,0.1-0.1,0.1c0,0,0,0.1,0.1,0.1c0,0,0,0.1,0,0.1c0.3,0.2,0.3,0.3,0.4,0.4c0,0,0,0.1-0.1,0.1
		c-0.6-0.4-0.6-0.4-0.9-0.3l0,0c0,0,0,0-0.1-0.3c-0.5-0.6-0.5-0.7-0.5-0.8c-0.1-0.3,0.3-0.8-0.2-1.1c-0.6-0.4-0.8-1.1-1.3-1.6
		c-0.1,0-0.2,0.1-0.2,0.1c-0.1-0.4-0.1-0.4-0.1-0.4c-0.2,0.1-0.9,0.5,0.4,2c0.2,0,0.2-0.1,0.4,0.1c0,0,0,0.1-0.1,0.1
		c0.2,0.3,0.7,0.4,0.8,0.8c0,0,0,0.1-0.1,0.1c-0.1-0.1-0.2-0.3-0.4-0.4c-0.3,0.3-0.2,0.3,0,0.6c0,0,0,0.1,0,0.1c0,0-0.3,0.3-0.4,0.6
		c0,0-0.1,0-0.1,0c0,0,0-0.1,0-0.1c0.1-0.3,0.1-0.3,0.2-0.3c0-0.6-0.1-0.6-0.3-0.7c-0.1-0.4-0.6-0.5-0.9-0.8l0,0
		c0-0.1-0.1-0.1-0.1-0.2l0-0.1c0,0,0-0.1,0-0.1c0,0-0.1,0-0.1,0c-0.5-1.2-0.5-1.2-0.9-0.8c-0.3,0-0.4,0.3-0.6,0.4
		c0,0-0.3-0.1-0.6-0.3c-0.1,0-0.1,0-0.4,0.7c-0.2,0.7-1.7,0.8-1.3,1.7c-0.7,0.5-0.8,0.7-0.9,0.8c-0.5,0-0.9,0.2-1.4,0.2
		c-0.1-0.2-0.1-0.2-0.1-0.5c0,0-0.1-0.1-0.1-0.1c-0.2,0-0.5,0-0.7,0C25,21,25,21,24.8,20.8c0.2-0.8,0.7-1.5,0.7-2.3
		c0.8-0.6,1.6,0.6,2.4,0.1c0.8-0.5-0.1-1.4,0.4-2c-0.1,0-0.2-0.1-0.2-0.2c-0.4-0.1-0.4-0.2-0.5-0.3c0,0,0.1-0.1,0.1-0.1
		c0,0-0.1-0.1-0.1-0.1c0,0,0.1-0.1,0.1-0.1c0.3,0,0.5,0,0.8,0.1c0.1-0.1,0.1-0.1,0.1-0.4L11.6,15z M29,15.4L29,15.4
		C29,15.4,29,15.4,29,15.4L29,15.4z M6.4,24.3c-0.4,2-0.6,4-0.6,6.1c0,0.5,0,1,0,1.5c0,0,0.1,0,0.1,0c0-0.2,0-0.5,0-0.5c0,0,0,0,0,0
		c0,0,0,0,0,0l0,0C6,31.2,6,31,6,30.8c0,0,0,0,0,0.1c0-0.6,0.2-2.4,0.1-2.8c-0.1,0.2-0.1,0.4-0.1,0.6c-0.1-0.6,0-1.2,0-1.8
		c0,0,0,0.1,0,0.1c0-0.5,0.3-2,0.3-2l0,0C6.4,24.6,6.4,24.6,6.4,24.3L6.4,24.3L6.4,24.3L6.4,24.3z M6.5,24.3c0,0.3,0,0.6-0.1,0.9
		c-0.5,2.1-0.3,2.5-0.3,2.5c0,0,0-0.1,0-0.1c0,0,0,0.1,0,0.1c0,0,0,0,0-0.1c0,0,0,0,0,0c0,0.1,0,0.2,0,0.2c0-0.1,0-0.1,0-0.2
		c0,0.3,0,0.6,0,0.8c0.1-0.3,0.2-0.8,0.3-1c0,0,0,0.1,0,0.1c0,0,0-0.1,0.1-0.2c0,0,0,0,0.3-0.2c0.3,0.5-0.6,0.9-0.2,1.5
		c0.1-0.3,0-0.6,0.1-0.9c0,0,0.1,0,0.1,0c0-0.2,0-0.2,0.1-0.3c0.4,1.2,0.4,1.4,0.6,1.3c0,0,0-0.1,0-0.1c0.2,0.2,0.2,0.2,0.2,0.3
		c0,0-0.1,0-0.1,0c0,0.4,0.2,0.7,0.2,1c0.3,0.3,0.4,0.8,0.5,1.3c0.1,0.4,0.5,0.4,0.6,0.6c0.2,0.2,0.2,0.2,0.4,0.7l12.6,2.9
		c-0.2-0.2-0.4-0.4-0.6-0.5c-0.1-0.1-0.1-0.1-0.4-0.2c0-0.1,0.1-0.2,0.1-0.3l-0.6-1.3c0,0,0-0.1,0-0.1c0,0-0.1,0-0.1,0
		c0-0.2-0.1-0.3-0.1-0.4c-0.2,0-0.3-0.2-0.5-0.3c0-0.6,0-0.6-0.1-1.2c0.2-0.2,0.6-1,0.6-1.1c0,0,0,0,0.1,0c0,0,0-0.1-0.1-0.1
		c0-0.4,0-0.4,0-0.8c0.1-0.1,0.3-0.3-0.1-0.7l1.6-2.3L6.5,24.3z M63.2,31.8C63.2,31.8,63.2,31.8,63.2,31.8L63.2,31.8z M61,27.5
		c-0.1-0.3-0.3-0.6-1.3-1.6c0.1,0.3,0.1,0.3,0.1,0.5c0,0-0.1,0-0.1,0c0,0,0,0.1,0,0.1c-0.1,0-0.1,0-0.3,0.2c0-0.1-0.1-0.2-0.1-0.2
		c-0.1,0.5-0.2,0.7-0.2,0.8L61,27.5z M30.1,37.5C30.1,37.4,30.1,37.4,30.1,37.5c-0.2-0.1-0.3-0.3-0.5-0.4c0,0,0,0,0,0c0,0,0,0,0,0h0
		c0,0,0,0-0.1,0c0,0-0.1,0.1-0.1,0.1c-0.2-0.1-0.5,0-0.7,0L30.1,37.5z M28.6,37.1c-0.1,0-0.2-0.1-0.2-0.3c-0.1-0.6-0.3-0.6-0.9-0.7
		c-0.6-0.1-1.1,0.3-1.6,0.4L28.6,37.1z M29.6,2.5C29.7,2.5,29.7,2.5,29.6,2.5c0,0-0.1,0-0.2,0L29.6,2.5z M32.9,1.3L32.9,1.3
		c-0.1,0-0.2,0-0.3,0c0,0,0,0,0,0c0,0,0,0-0.1,0c-0.1,0-0.1,0-0.3,0c0,0,0,0,0.2,0c0,0,0,0-0.1,0c0,0,0,0,0,0l0.1,0c0,0,0.1,0,0.1,0
		l0,0l0,0c0.3,0,0.5,0,0.8-0.1h0l0.1,0c0,0,0,0,0.2,0c0.4,0,0.4,0,0.5,0c0.2,0,0.4,0,0.4,0c0,0-0.1,0-0.1,0l-0.1,0
		c-0.1,0-0.2,0-0.3,0c0,0,0,0,0,0c0.3,0,0.6,0,0.8,0c0,0,0,0-0.1,0c0.1,0,0.2,0,0.3,0c-0.1,0-0.1,0-0.2,0c0.1,0,0.3,0,0.5,0
		c0,0-0.1,0-0.1,0l0,0c0.1,0,0.3,0,0.4,0l0,0l0,0l0,0l0,0c0,0,0,0-0.1,0c0,0,0.1,0,0.1,0c0,0,0.1,0,0.1,0c0,0,0.1,0,0.1,0h0
		c-0.1,0-0.2,0-0.3,0h0h0h0c0,0,0,0,0,0s0,0,0,0c0,0,0.1,0,0.1,0l0,0c0,0,0,0,0.1,0c0,0,0,0,0,0c-0.2,0-0.3,0-0.5,0l0,0h0h0
		c-0.2,0-0.3,0-0.5,0h0c-0.1,0-0.3,0-0.4,0c0.1,0,0.1,0,0.2,0c-0.2,0-0.4,0-0.5,0c0,0,0,0,0,0c-0.1,0-0.2,0-0.4,0
		c-0.5,0-0.5,0-0.6,0c0,0,0,0,0,0c0,0,0,0,0,0C33.1,1.3,33.1,1.3,32.9,1.3z M31.7,1.3L31.7,1.3L31.7,1.3L31.7,1.3
		c-0.1,0-0.2,0-0.2,0l0,0c0,0,0,0,0,0h0v0c0,0,0,0,0,0v0c0,0,0,0,0,0c-0.1,0-0.5,0.1-0.5,0.1l0,0l-0.1,0c0,0,0,0-0.1,0c0,0,0,0,0,0
		c0,0,0,0,0,0c0,0,0,0,0,0c0,0,0,0,0,0c0,0,0,0,0,0c0,0,0,0,0,0c0,0,0,0,0,0c0,0,0,0,0,0c0,0,0,0,0,0c-0.1,0-0.1,0-0.2,0l0,0
		c0.1,0,0.1,0,0.2,0c-0.1,0-0.1,0-0.2,0c0.1,0,0.2,0,0.2,0c0,0,0,0-0.3,0c0,0,0,0,0,0c0,0,0,0,0,0l0,0c0,0-0.2,0-0.3,0
		c0.1,0,0.1,0,0.2,0l0,0l0,0c0,0-0.6,0.1-0.7,0.1l0,0c0,0-0.1,0-0.1,0c0,0,0,0,0,0c0,0,0,0,0,0c0,0,0,0,0,0c0,0,0,0,0,0c0,0,0,0,0,0
		c0,0,0,0,0,0l0,0c0,0,0,0,0,0c0,0,0,0,0,0v0c0,0,0,0,0,0c0,0,0,0,0,0c0,0,0,0,0,0s0,0,0,0c0,0,0,0,0,0l0,0c0.1,0,0.3-0.1,0.3-0.1
		l0.1,0c0.2,0,0.3-0.1,0.5-0.1c0,0,0,0,0,0c0,0,0,0-0.1,0c-0.1,0-0.3,0-0.4,0.1c0,0,0,0,0,0c-0.1,0-0.2,0-0.3,0l0,0c0,0,0,0,0,0
		c0,0,0,0,0,0c0,0,0,0,0,0c0,0,0,0,0,0c0,0,0,0,0.1,0c0,0,0,0,0.1,0c0,0,0,0,0,0c0,0,0,0,0,0c0,0,0,0,0,0c0,0,0,0,0,0c0,0,0,0,0,0
		c0,0,0,0,0,0c0,0,0,0,0,0l0,0c0.4-0.1,0.8-0.2,1.2-0.2l0,0l0,0c0,0,0.1,0,0.1,0l0,0c0.1,0,0.1,0,0.3,0c0.1,0,0.1,0,0.2,0l0,0
		c0,0,0,0,0,0c0.1,0,0.1,0,0.1,0l0,0c0.1,0,0.1,0,0.4,0c0,0,0,0-0.2,0c0,0,0,0,0,0l0,0c0,0,0.1,0,0.1,0c0,0,0,0-0.1,0
		c0.1,0,0.1,0,0.2,0l0,0l0,0l0,0c0,0,0.3,0,0.4,0c0,0,0.1,0,0.1,0l0,0c0.1,0,0.1,0,0.2,0c0,0,0.1,0,0.1,0l0,0c0,0,0,0-0.1,0v0
		c0,0,0,0,0,0c0,0,0,0,0,0c0,0,0,0-0.1,0c0,0,0,0,0,0c0,0,0,0,0,0c0.1,0,0.2,0,0.3,0l0,0c0,0,0,0,0,0c0.1,0,0.3,0,0.7,0
		c0.2,0,0.2,0,0.4,0c0.2,0,0.2,0,0.5,0c0.2,0,0.5,0,0.7,0.1c0,0-0.9,0-1-0.1c0,0,0,0-0.1,0c0.1,0,0.2,0,0.2,0c0,0,0.1,0,0.1,0
		c0,0,0,0,0,0c0,0,0,0,0,0c0,0,0,0,0,0c0,0,0,0,0,0c0,0,0,0,0,0c0,0,0,0,0,0c0,0,0,0,0,0c0,0,0,0,0,0c0.1,0,0.2,0,0.3,0h0l0,0
		c0,0-0.1,0-0.1,0l0,0c-0.2,0-0.4,0-0.5,0c-0.1,0-0.2,0-0.2,0c0.1,0,0.1,0,0.2,0c0,0-0.1,0-0.1,0c0.1,0,0.2,0,0.3,0c0,0-0.1,0-0.1,0
		c0.1,0,0.1,0,0.2,0l0,0l0,0h0c0.1,0,0.1,0,0.2,0c0,0,0.1,0,0.1,0c0,0,0.1,0,0.1,0l0,0c0,0,0,0,0,0c0,0,0,0,0,0c0,0-0.1,0-0.1,0
		c-0.1,0-0.2,0-0.2,0h0h0l0,0h0h-0.1c-1,0-1,0-1.2,0l-0.1,0c0.1,0,0.2,0,0.4,0l0,0c0,0,0.1,0,0.1,0h0l0,0c0,0,0,0,0,0h0l0,0l0,0h0
		c0,0,0.1,0,0.1,0c0,0,0,0,0,0c0,0,0,0,0,0c0,0,0,0,0,0c0,0,0,0,0,0c0,0,0,0,0,0c0,0,0,0,0,0h0c0,0,0,0,0,0c0.7,0,1,0,1.2,0l0,0
		c0,0-0.1,0-0.1,0c-0.1,0-0.1,0-0.2,0c0,0,0.1,0,0.1,0c-0.1,0-0.2,0-0.3,0l0,0c-0.1,0-0.2,0-0.3,0h0c-0.1,0-0.2,0-0.3,0h0
		c-0.1,0-0.2,0-0.2,0c0,0,0,0,0,0l0,0c-0.9,0-1.7,0.1-1.7,0.1C31.9,1.3,31.8,1.3,31.7,1.3z M63.8,34.3
		C63.8,34.3,63.8,34.3,63.8,34.3c0.1,0.1,0.1,0.2,0,0.2c0,0,0,0,0,0c0,0.1-0.1,0.2,0,0.3c0,0,0.1,0,0.1,0.1c0,0,0,0.1,0,0.2
		c0,0,0.1,0,0.1,0.2c0,0,0,0,0.1-0.1c0,0,0.1,0.1,0.1,0.4c0,0,0,0.4-0.1,1c0,0,0,0-0.1-0.1c0,0,0,0.1,0,0.1c0,0-0.1,0-0.1-0.1
		c0,0.1,0,0.1,0,0.2c0,0,0,0,0,0c-0.1-0.1-0.1-0.3-0.2-0.3c0,0-0.1-0.2-0.1-0.2c0,0,0-0.1,0-0.1c0-0.1,0-0.1-0.1-0.1
		c-0.1-0.1-0.1-0.1-0.2-0.4c0-0.2-0.1-0.5-0.1-0.7c0,0,0-0.1,0-0.1c0-0.1-0.2-0.1-0.2-0.3c0-0.3-0.1-0.6-0.2-0.6c0,0,0,0,0,0
		c0-0.1,0-0.1,0-0.2c0,0-0.1-0.1-0.1-0.1c-0.1-0.2-0.3-0.3-0.4-0.5c0,0-0.1-0.3,0-0.4c0.1,0,0.1,0.1,0.2,0.1c0.1-0.1,0.3-0.2,0.4,0
		c0,0.1,0.1,0.2,0.1,0.3c0,0,0,0,0,0.1c0.1,0.1,0.1,0.1,0.2,0.1c0,0.1,0,0.2,0.1,0.2c0,0,0,0,0,0c0,0,0,0,0.1,0.2c0,0,0-0.1,0-0.1
		c0,0,0.1,0,0.1,0.1c0.1,0,0.1,0.1,0.1,0.2c0.1-0.1,0.1-0.1,0.1-0.1C63.7,34.1,63.8,34.2,63.8,34.3C63.8,34.4,63.8,34.4,63.8,34.3z
		 M64.5,36.7C64.5,36.7,64.5,36.8,64.5,36.7c0,0.1,0,0.1,0.3-0.1c0-0.1,0-0.2,0.1-0.2c0,0,0,0,0,0.1c0,0,0.1-0.1,0.1-0.1
		c0,0,0,0.1,0,0.1c0,0.1,0,0.2,0.1,0.1c0.1-0.1,0.1-0.1,0.1-0.1c0,0,0,0.4,0,0.4c0,0,0,0,0,0c0,0,0,0,0,0c0,0,0-0.1-0.1-0.1
		c0,0-0.1,0.1-0.1,0.1c0,0.1,0,0.1-0.1,0.1c0,0,0,0,0,0c0,0,0,0-0.1,0.1c0,0,0,0,0-0.1c-0.1,0.1-0.1,0.1-0.2,0.1
		c0-0.1,0-0.1-0.1-0.1c0,0,0,0-0.1,0.1c0,0,0,0-0.1,0c0,0,0,0.1,0,0.1c-0.1,0-0.2,0-0.3,0c0-0.1,0-0.1,0-0.2c0,0-0.1,0-0.2,0.1
		c0,0,0,0,0-0.1c0,0,0.1-0.1,0.1-0.2c0,0,0-0.1,0-0.1c0,0,0.1,0,0.1,0c0,0,0-0.1,0.1-0.1c0,0,0,0,0,0C64.4,36.6,64.3,36.7,64.5,36.7
		C64.5,36.7,64.5,36.7,64.5,36.7z M65.6,36.6c0,0.1,0,0.1-0.1,0.2c0,0,0,0,0,0c0,0,0,0,0,0.1c0,0,0,0.1,0,0.1
		C65.4,36.8,65.5,36.5,65.6,36.6C65.5,36.5,65.5,36.5,65.6,36.6c0-0.1,0-0.1,0-0.1c0-0.1,0-0.1,0-0.1c0,0,0,0,0,0c0,0,0,0,0,0.1
		c0,0,0,0,0,0c0,0,0,0,0,0.1c0-0.1,0-0.1,0-0.1c0,0,0,0,0,0c0,0.1,0,0.1,0,0.1C65.6,36.6,65.6,36.6,65.6,36.6
		C65.6,36.6,65.6,36.6,65.6,36.6C65.6,36.6,65.6,36.6,65.6,36.6z M14.1,51.1c0.1,0.1,0.2,0.2,0.3,0.3l0.4,0.4l0,0
		c-0.1-0.1-0.2-0.2-0.4-0.4L14.1,51.1L14.1,51.1c0,0,0.1,0.1,0.1,0.2c5.5,5.8,13.4,9.4,22.1,9.4c0.4,0,0.8,0,1.2,0L14.1,51.1z"/>
	<path class="st0" d="M138.5,19.8l-0.8,3.1h5L139.3,37h4.5l3.4-14.1h4.9l0.8-3.1H138.5z M126.1,30h1.5l2,7h4.7l-2.4-7.6
		c2.9-0.7,4.3-2.4,4.9-4.6c1.1-4.6-2.8-5-6-5h-6.4L120.1,37h4.3L126.1,30z M127.9,22.5c2.4,0,3,0,3.6,0.2c0.8,0.3,1.1,0.9,0.8,2.1
		c-0.2,0.9-0.6,1.9-2,2.3c-0.7,0.2-1,0.2-3.5,0.2L127.9,22.5z M112.8,19.8L103,37h4.2l1.9-3.4h6l0.2,3.4h4.2L118,19.8H112.8z
		 M115,30.6h-4.4l4.1-7.8h0.1L115,30.6z M83.9,37h3.7l2.2-9.1c0.2-0.7,0.9-4.2,1-5H91L91.8,37h3l7.6-14.2h0.1
		c-0.5,1.6-1.1,3.7-1.4,4.9L98.8,37h3.8l4.2-17.2h-5.8l-4.1,7.1c-0.9,1.5-1.4,2.6-2.1,4h-0.1c0-0.3,0-1.8-0.1-2.2
		c0-0.8-0.1-1-0.1-1.8l-0.6-7.2h-5.8L83.9,37z M86.2,20.8c-0.9-0.6-2.9-1.4-6.2-1.4c-4.6,0-8,1.5-8.7,4.9c-0.8,3.9,2.4,5,5.6,6.1
		L77,28.5l5.1,3.5l-5,4.1l0-2.1c-1.9,0.3-5.7-0.8-6.9-2.2L69,36.2c1,0.5,2.6,1.3,6.5,1.3c1.1,0,3.1-0.3,4.5-0.9
		c3.6-1.5,4.2-3.8,4.4-4.5c0.4-1.6-0.2-2.7-0.4-3c-0.6-0.9-2-1.6-3.3-2l-2.6-0.8c-1.3-0.4-2.1-0.8-2.3-2.1c-0.1-0.6,0.5-1.7,3.1-1.7
		c1.7,0,5.8,1.4,6.2,2.4L86.2,20.8z"/>
	<path class="st0" d="M73.4,50.2h8.8l0.6-1.9h-6.1l0.6-1.9h5.4l0.6-1.9h-5.4l0.5-1.8h5.7l0.6-1.9h-8.5L73.4,50.2z M83.2,50.2h3.3
		l4.1-3.8l1.9,3.8h3.5l-3-5l5.4-4.5H95L91.4,44l-1.7-3.3h-3.5l2.8,4.5L83.2,50.2z M97.2,50.2h2.8l1.1-3.7h2c2.6,0,4.8-0.7,5.5-2.9
		c0.7-2.3-1.3-2.9-3.9-2.9h-4.6L97.2,50.2z M102.3,42.4h1.4c1.1,0,2.3,0.1,2,1.1c-0.3,0.9-1.3,1.1-2.3,1.1h-1.8L102.3,42.4z
		 M108.3,50.2h2.8l1.2-3.8h1.4l1.5,3.8h3.3l-2-4c1.8-0.2,3.1-1.3,3.5-2.6c0.7-2.2-1.3-2.9-3.8-2.9h-4.8L108.3,50.2z M113.4,42.4h1.8
		c1,0,2.1,0.1,1.8,1.1c-0.3,1-1.6,1.1-2.6,1.1h-1.6L113.4,42.4z M119.9,50.2h8.8l0.6-1.9h-6.1l0.6-1.9h5.4l0.6-1.9h-5.4l0.5-1.8h5.7
		l0.6-1.9h-8.5L119.9,50.2z M141.6,41.4c-0.9-0.7-2.1-1-3.5-1c-2.5,0-5.1,1.1-5.7,3.1c-1,3.2,5.2,2.2,4.7,4c-0.2,0.7-1.3,1-2.2,1
		c-0.9,0-1.7-0.3-2.1-0.9l-2.5,1.6c0.9,0.8,2.2,1.2,3.8,1.2c2.6,0,5.1-1,5.8-3.1c1-3.3-5.1-2.2-4.6-4c0.2-0.7,1.4-1,2.1-1
		c0.7,0,1.5,0.2,1.8,0.6L141.6,41.4z M151.8,41.4c-0.9-0.7-2.1-1-3.5-1c-2.5,0-5.1,1.1-5.7,3.1c-1,3.2,5.2,2.2,4.7,4
		c-0.2,0.7-1.3,1-2.2,1c-0.9,0-1.7-0.3-2.1-0.9l-2.5,1.6c0.9,0.8,2.2,1.2,3.8,1.2c2.6,0,5.1-1,5.8-3.1c1-3.3-5.1-2.2-4.6-4
		c0.2-0.7,1.4-1,2.1-1c0.7,0,1.5,0.2,1.8,0.6L151.8,41.4z"/>
	<path class="st1" d="M21.6,62C11.3,55,0.7,46.7,0.1,36.4c-0.4-7,5.6-13,14.4-17.4c10.9-5.5,34.1-6.5,47.7-7.5l1.5,2.2l5.1,1.7
		c-9.1,1.4-37.6,1.6-51.5,8.2c-7.5,3.6-13,8.1-12.7,14.1C5.1,47.7,13.7,55.6,21.6,62z"/>
	<path class="st1" d="M84.6,5.4c-0.3,0-0.3-0.1-0.7-0.1c0.1-0.2,0.4-0.2,0.5-0.4c0.3-0.5-0.1-1.5-0.8-1.5c-0.6,0-1.9,0.7-2.5,1.1
		c-0.4,0.2-0.4,0.1-0.9,0l-4.8-1.1c-0.3-0.1-0.6-0.2-1-0.2l-1.2-0.3c0,0,0,0,0,0l-1.6-0.4c-0.2,0-0.3-0.1-0.4-0.1
		c-0.1,0-0.3-0.1-0.5-0.1c-0.3-0.1-0.7-0.1-1-0.2c-0.3-0.1-0.9-0.2-1-0.2c-0.3,0-0.8,0.3-1.1,0.3v0.1c0.3,0.1,0.9,0.4,1.3,0.5
		C69.7,3,70.4,3.4,71,3.6l1,0.4C72,4,72.1,4.1,72.2,4.1l5.3,2.3c0.1,0.1,0.1,0,0.2,0.1c0.1,0,0.2,0.1,0.3,0.1c0,0.1-0.1,0.3,0,0.4
		c0,0.1,0.3,0.2,0.4,0.2c0.2,0,0.6,0,0.8,0l0.4,0.6c-0.1,0.1-0.2,0.1-0.4,0.2c-0.4,0.2-0.8,0.4-1.2,0.6c-0.1,0.1-0.3,0.1-0.4,0.2
		C77.4,8.9,77.3,9,77.1,9L73,11c-0.1,0-0.1,0-0.2-0.1c-0.1,0-0.2,0-0.3-0.1L72,10.8c-0.2,0-0.4-0.1-0.6-0.1L68.4,10
		c-0.1,0-0.1,0-0.2,0.1c-0.2,0.1-0.5,0.3-0.6,0.4c0,0.1,0.1,0.1,0.1,0.2c0.1,0.1,0.1,0.1,0.2,0.2C68,11,67.9,11,68,11.1
		c0.1,0.1,0.1,0.1,0.2,0.2c0.2,0.2,0.6,0.6,0.7,0.8l-1.8-0.3c-0.5-0.1-1.4-0.2-2-0.2c-0.3,0-0.6,0.3-0.9,0.4c0,0.2,0.3,0.2,0.5,0.3
		c0.1,0,0.1,0.1,0.3,0.1l1.5,0.5c0.1,0,0.1,0.1,0.3,0.1c0.1,0,0.2,0.1,0.3,0.1l1.2,0.4c0.1,0,0.2,0.1,0.3,0.1c0.1,0,0.2,0.1,0.3,0.1
		v0.1c-0.1,0-0.6,0.5-0.6,0.6c0,0.6,0.7,0.3,0.9,0.2l0.8-0.1c0.1,0,0.2,0.1,0.3,0.1l0.6,0.6c0,0,0,0,0,0l0.4,0.4
		c0.2,0.2,0.5,0.5,0.8,0.4c0,0,0,0,0,0l0.5-0.2c0.1-0.1,0.1-0.1,0.2-0.3c0-0.2,0-0.5,0-0.8c0-0.2-0.1-0.5-0.1-0.7
		c0.6,0,2.3-0.4,2.9-0.6c0.1,0,0.2-0.1,0.3-0.1c0.2,0,0.4-0.1,0.6-0.2l0.5-0.3c0.4-0.2,0.9-0.4,1.3-0.6l1.6-0.8
		c0.3-0.1,0.5-0.3,0.9-0.3c0.4-0.1,0.9-0.1,1.3-0.3c0.4-0.1,0.7-0.3,1.1-0.4c0.2-0.1,0.3,0,0.6,0.1c0.3,0.1,1.7,0.4,1.9,0.5
		c0.4,0.2,1,1,1.4,1.3c0.1,0.1,0.1,0.1,0.2,0.2c0.2,0.2,0.4,0.3,0.6,0.5c0,0,0.1,0.1,0.1,0.1l0.9,0.9c0.2,0.2,0.6-0.1,0.8-0.2
		c0.3-0.1,0.3-0.2,0.3-0.2l-0.4-3.1c0.4-0.1,0.7-0.3,1-0.4c0.2-0.1,0.3-0.2,0.5-0.3c0.2-0.1,0.2-0.2,0.2-0.4c0-0.1,0,0.2,0-0.1
		c0-0.4-0.2-1-0.7-1c-0.5,0-1,0.4-1.3,0.4l-0.2-1.1c-0.1-0.6,0.1-0.5,0.6-0.8C89.8,7,89.8,7,90,6.9c0.2-0.1,0.2-0.1,0.4-0.2l1.3-0.6
		c0.1,0,0.1-0.1,0.2-0.1c0.1,0,0.2-0.1,0.3-0.2c0.1-0.1,0.2-0.1,0.4-0.2l2.6-1.2c0.1-0.1,0.3-0.1,0.4-0.2l0.8-0.3
		c0.6-0.3,1.2-0.6,1.7-1l0.6-0.5C98.8,2.3,99,2.2,99.2,2l0.3-0.3c0.2-0.3,0.4-0.6,0.4-0.9c0-0.5-0.8-0.6-1.2-0.7C98,0,97.5,0,96.8,0
		c-0.2,0-0.3,0.1-0.5,0.1l-0.9,0.2L91.8,2c-0.6,0.3-1.3,0.6-1.9,0.9C89.8,3,89.6,3,89.5,3.1L87.6,4c-0.1,0.1-0.2,0.1-0.4,0.2
		c-0.1,0.1-0.3,0.1-0.4,0.2L84.6,5.4z"/>
	<path class="st1" d="M21.6,62C11.9,54.5,3.5,47.1,3.2,37.9c-0.3-7,4-11.6,12.9-16.1c5.2-2.6,21.4-6.7,47.7-8.1l5,1.6
		c-9.1,1.4-37.6,1.6-51.5,8.2c-7.5,3.6-13,8.1-12.7,14.1C5.1,47.7,13.7,55.6,21.6,62z"/>
</g>
</svg>
