<svg width="64" height="59" fill="none" xmlns="http://www.w3.org/2000/svg"><g clip-path="url(#clip0)"><path fill-rule="evenodd" clip-rule="evenodd" d="M32.258 0c10.593 0 19.42 7.731 21.39 17.98-15.21 7.241-32.01 13.464-40.767 14.572a22.638 22.638 0 01-2.426-10.237C10.455 9.991 20.217 0 32.258 0z" fill="url(#paint0_linear)"/><path d="M28.879 21.231a.057.057 0 00-.005.007.03.03 0 00-.005.006c-.163.215-.27.148-.293-.029l.303.016zm-8.103 9.603c-.426-.41-.479-.375-.768-.187-.066-.04-.13-.085-.199-.122l-.033-.027c-.535-.324-.535-.324-.71-.46l-.023-.018c-.093-.1-.18-.197-.401-.326-.05-.04-.102-.077-.152-.116l-.026-.03-.028-.012a1.392 1.392 0 01-.187-.13c-.141-.232-.402-.38-.446-.679 0-.014-.002-.027-.003-.04l.009-.077c.041-.111.041-.111-.822-1.917l-.081-.012c-.054-.053-.051-.102-.047-.184l.009-.029a.316.316 0 01.05-.111l-.059-.049-.052-.013c0-.003-.228-.419-.328-.676-.177-.46-.137-.997-.472-1.4-.023 0-.054 0-.077.002l-.001-.001h-.002v-.001h-.003l-.025-.013a.336.336 0 00-.11-.11c-.017.878.474 1.61.675 2.425l.027.037c.357.899.357.899.323 1.108l-.03-.008c-.293-.556-.32-.594-.473-.8-.038-.068-.066-.116-.038-.31v-.042s-.155-.37-.254-.507l-.031.077c-.128-.21-.128-.21-.183-.274-.054-.196-.054-.196-.02-.273h.078c.186-.476-.273-.769-.317-1.179-.069-.089-.167-.56-.168-.608l-.007-.032-.004-.034c-.096-.453-.464-.776-.558-1.23l-.008-.036-.012-.038-.005-.044c-.017-.08-.033-.163-.053-.243-.08-.328-.08-.328-.063-.402l.014-.095c-.04-.26-.04-.26-.093-1.216l-.006-.068c-.037-.13-.037-.13-.05-.156-.006-.058-.01-.083.08-.214.024-.034.035-.05.074-.266.048-.272.02-.327.009-.351-.005-.01-.016-.031.005-.155a.648.648 0 01.016-.072c.044-.175.153-.319.215-.485.025-.074.034-.151.064-.223.02-.05.064-.084.08-.135.13-.415.132-.46.133-.498.002-.027.002-.046.02-.074.013-.018.03-.031.036-.053.01-.032-.01-.062-.008-.094.002-.045.027-.085.033-.13.012-.078.072-.136.084-.214-.02-.111.132-.211.03-.322-.025-.03.007-.11.055-.114.039.02.054.063.088.088-.137.392-.262.789-.382 1.187.123-.398.261-.79.43-1.173l.073.02c.003.031.003.031-.02.25.072-.035.072-.035.168-.258l.01-.06c-.012-.018-.029-.043-.04-.062.049-.13.017-.27.047-.401a.344.344 0 01-.049-.158c-.007-.002-.023-.017-.026-.009.01-.257.01-.257.023-.319-.138-.217-.138-.217-.243-.192l.081-1.183c.07-.261.088-.535.179-.791l-.005-.019c-.015-.17.202-.23.182-.403l-.067.037a2.44 2.44 0 00-.05-.04c.046-.044.108-.069.144-.126a1.172 1.172 0 00-.035-.051l.011-.067-.038-.056a.5.5 0 00-.019-.028c.11-.154.11-.154.113-.169a.73.73 0 01-.066-.004c.003-.007.003-.007.13-.157.042-.122.042-.122.052-.25l-.006-.02a.3.3 0 00-.02-.127c.008-.112.119-.18.122-.295-.006-.003-.013-.008-.01-.038l.022-.036s.07-.141.132-.312c-.06-.117.046-.211.043-.32a.272.272 0 01-.113.05c.023-.087.077-.162.09-.251l-.06.003c-.074.159-.074.159-.148.25l-.058-.024c.153-.416.153-.416.316-.658l-.012-.064c-.127.126-.127.126-.2.174.02-.099.055-.235.11-.323.025-.03.06-.067.086-.095.008-.01.016-.022-.007-.052a.184.184 0 01-.12.009c-.003-.02-.006-.048-.01-.068l.004-.018c.006-.06.027-.117.018-.179l-.066.009c.006-.039.006-.039-.046-.177l.055-.117-.043-.017c.02-.102.112-.183.084-.299.096-.081.096-.081.123-.144l-.067.014.004-.062-.043-.002a.869.869 0 00.074-.113c-.064.038-.088.053-.18.201-.024.016-.054.04-.077.057l.022.03c-.055.059-.055.059-.148.13l.008.063-.055.05-.076.054-.025-.06c-.06.016-.06.016-.18.114l-.023.011c-.085.013-.135.093-.212.121l-.002-.001v-.003l-.005-.01.014-.02.024-.035.028-.075.033-.041c.07-.013.07-.013.119-.085a1.679 1.679 0 01-.014-.062c.492-.473.492-.473.547-.497a.589.589 0 00.023.124c.068-.089.068-.089.06-.177.06-.06.144-.09.196-.16a.822.822 0 00-.118.036c.197-.195.197-.195.217-.22-.004.002-.782.63-.88.738l-.002-.001v-.001l-.033.022c-.085.09-.085.09-.152.111h-.006c-.771.773-.771.773-.787.775-.15.202-.167.206-.248.223l-.016.018c-.097.136-.248.214-.354.34a1.86 1.86 0 01.054-.121c-.06.035-.11.083-.165.122.006-.017.015-.04.02-.058-.115.126-.115.126-.14.146l.022-.059-.016.018-.054.035c.064-.116.064-.116.12-.156l.018-.016c.043-.05.101-.084.147-.132l.062.005c.154-.183.23-.236.279-.272l.018-.012c.159-.105.758-.799.762-.805a.446.446 0 01-.114.011l.027-.065c-.05.042-.091.092-.14.135.067-.104.067-.104.107-.185l-.003-.008c.01-.023.02-.055.028-.08l.005-.007.006-.009.007-.007.006-.008.007-.008.006-.008.006-.008c.003-.003.005-.005-.008-.03-.064.076-.084.077-.155.084a.512.512 0 00.087-.093c.002-.002.415-.492.49-.63l-.086.093-.019.02-.024.025-.044.033v-.004l.006-.022c.078-.387.443-.557.621-.87.04-.054.1-.086.144-.136l-.014-.04c.294-.293.714-.396 1.008-.693l.017-.016a.378.378 0 01.017-.016.33.33 0 01.034-.033l.017-.015.017-.017.017-.016.035-.032c.096-.093.207-.167.297-.268l-.006-.03c-.061.024-.117.061-.175.093a.42.42 0 00.065-.106.21.21 0 00-.093.018c.013-.02.013-.02.124-.155l-.038-.007c.015-.019.064-.076.307-.301.412-.387.412-.387.551-.466l.003.002.02-.012.043.006a.685.685 0 01.247-.106l-.014.02c-.238.229-.238.229-.258.287l-.008.012c-.012.025-.034.053-.05.075l.016.005c.165-.11.165-.11.192-.157l.062-.01-.028.065h.063l.061-.049.02-.023c.012-.02.027-.05.038-.07-.017-.01-.04-.021-.058-.03.067-.063.14-.12.201-.188v-.008l-.001-.002v-.002l-.033-.012c.124-.136.267-.253.396-.382l.032-.03c.484-.446.484-.446.783-.618l.043.045c.263-.07.471-.255.72-.358v.001l.018.012c.179-.137.217-.144.286-.159v.01l.001.003v.007c0 .002 0 .002.044 0 .037-.014.086-.03.123-.04a2.019 2.019 0 00-.103.076c.398-.214.398-.214.433-.213a2.074 2.074 0 00-.117.069l.033.005c.062-.018.114-.034.258-.092l.195-.085-.052.072-.023.017a1.31 1.31 0 01-.11.072l-.032.013-.006-.003c-.177.082-.181.092-.213.169.325-.192.325-.192.338-.198l-.003.031c-.189.13-.189.13-.206.18l.058.03c-.258.198-.258.198-.286.253.026.027.06.065.084.093-.141.269-.141.269-.206.403.036.004.086.007.123.007.019.01.024.045.03.067-.157.175-.157.175-.166.195l.066-.015c-.226.371-.346.626-.355.758l.049.038a.62.62 0 00-.023.138l.048-.05.017-.022c.033-.031.033-.031.115-.136l.04-.034c.431.1.674-.405 1.09-.353-.074.057-.398.199-.507.243-.256.08-.315.138-.352.19.217-.113.217-.113.289-.129-.038.054-.085.1-.122.155.532-.28.532-.28.597-.254.057-.034.111-.072.168-.106l.015.001c.116-.054.184-.17.287-.24l.053.035-.024.026c-.194.225-.514.333-.584.671.27.005.338-.302.553-.382a.218.218 0 01-.062.105l-.013.013a.053.053 0 00-.014.012l-.013.011-.013.012a.112.112 0 01-.014.012c-.005.004-.008.009-.013.012l-.014.013-.055.052c-.028.121-.151.146-.22.227l.057.024c-.08.075-.157.153-.237.23a5.25 5.25 0 00.278-.24c.12-.062.213-.177.358-.185 0 0 .03.282.038.456l-.006.017c-.025.238.21.188.22.185-.049.34-.452.413-.526.735.179.133.179.133.29.135h.004l.001.001h.002l.007.003.076.007.004.002.005.001h.003c.002.002.003.002.005.002l.003.002h.005l.004.002h.004l.016.008c.082-.009.158-.047.24-.058a.281.281 0 01-.046.156l.028.079-.045.08.067-.042c-.022.078-.056.15-.077.228l-.012.077a.84.84 0 00-.124.122 2.2 2.2 0 01.023.078c.19-.112.335-.538.34-.557.092-.27.397-.165.55-.329a.303.303 0 00.065-.141 1.805 1.805 0 00-.144.058c-.154.094-.154.094-.244.082l-.023-.074c.003-.003.323-.245.59-.232-.037.15-.185.254-.165.427a1.029 1.029 0 00-.065.128c.037.03.088.065.128.09l.065-.026.043.064a.284.284 0 00-.004.157c.128.034.261.027.39.056l.008.089L24.6 8c.03-.036.03-.036.114-.221l.079-.012c-.048.154-.048.154-.045.23v.017l-.008.017.094-.018a.445.445 0 00.052-.159l-.064-.04c.022-.184.195-.303.23-.325l.058.053c-.008.215-.008.215-.019.235l.077-.017c-.063.188-.239.3-.307.486l.076.003.023.076.048-.06.01-.026c.005-.01.011-.02.034-.072.009-.023.02-.055.03-.078l.018-.02.026-.043c.082-.143.082-.143.144-.205l.064.041c.194-.098.194-.098.244-.184l.02-.019c.126-.144.126-.144.14-.166a.244.244 0 000-.117.263.263 0 01-.13.07.533.533 0 01.1-.123l.018-.022c.125-.155.125-.155.17-.182l.011.012.022.007a.262.262 0 00.056-.144h-.077c-.165-.357.058-.56.153-.646.087-.092.087-.092.153-.217l.029-.043c.052-.068.547-.576.678-.655l.018.01a.862.862 0 01-.036.155c.022-.006.053-.013.075-.02l.007.01c0 .001-.117.276-.212.437l-.01.015a.05.05 0 01-.009.013l-.009.015a.14.14 0 00-.01.013c-.002.005-.006.01-.009.014a.418.418 0 01-.01.014l-.009.014-.045.078c-.003.139-.07.264-.072.402l-.01.03-.012.031h-.008a.491.491 0 01-.149.008c.013.059.013.059-.15.24l.027.048c.022.005.052.01.075.016.037.085.045.106-.04.22h-.01l-.018.005c-.066.189-.143.443-.143.575.164-.15.24-.374.41-.52l.039.067c-.14.57-.14.57-.219.603a.468.468 0 01-.014-.026l-.031.076-.004.007-.004.008-.004.008-.004.008a.044.044 0 00-.004.007l-.003.008-.005.008c0 .003-.002.005-.018.043-.037.132-.104.253-.134.387l.05.073v.001h.004v.001h.006l.011.011.078.015.031-.031.019-.01c.142-.162.25-.347.377-.52l.004-.008.004-.007c0-.003.002-.005.004-.008 0-.003.002-.005.003-.008a.033.033 0 00.003-.008.033.033 0 00.004-.007l.004-.008.022-.045c.093-.16.093-.16.235-.205.014-.126.014-.126.079-.183.013-.01.032-.025.046-.034-.006-.076-.006-.076.029-.251l.004-.008c0-.003.002-.006.004-.008a.067.067 0 01.004-.008c.002-.003.002-.007.004-.009l.004-.008.005-.01.004-.008c0-.003.002-.005.012-.025.133-.234.172-.187.388.075l.018.032c-.04.159-.04.159-.014.234l.077.009c-.108.254-.108.254-.098.287-.116.213-.173.202-.251.188-.273 1.08-.273 1.08-.626 1.184A1.161 1.161 0 0026.639 9c-.016.089-.014.18-.038.27a.251.251 0 01-.14-.062l-.052.058a.234.234 0 00-.11-.072.528.528 0 00-.035-.164 1.73 1.73 0 01-.086-.018c-.238.169-.118.614-.498.673-.11-.1-.088-.306-.267-.35-.096.284-.096.284.273.487.01.252-.236.426-.644.715a.297.297 0 01-.118-.09c-.065.203-.13.243-.22.3-.145-.13-.257-.297-.427-.4.064.195.196.351.293.527.067.122-.042.42-.388.199-.279.251-.281.83-.803.786-.12.458-.441.833-.516 1.31l.138 1.089c.406-.065.406-.065.836.649.235.387.771.29 1.018.66.057.086.088.133-.033 1.426-.026.016-.06.037-.086.051a2.86 2.86 0 00-.013.08c.046.001.107.01.153.021.157.283.157.283.157.402.037.037.1.075.15.09.054-.07.075-.159.12-.234l.055.067a1.66 1.66 0 00-.021.209l.032-.191a.36.36 0 00.084.09c.008-.492.297-.954.15-1.464a.522.522 0 00-.081-.145.648.648 0 01.117-.081l.009-.005c.321-.172.446-.612.86-.655a.479.479 0 00.013-.117c-.091-.076-.091-.076-.106-.145-.051-.238.047-.47.035-.706-.01-.2-.22-.311-.222-.516-.001-.198.234-.216.275-.381l.044-.02a.276.276 0 00.088.064l.04-.038c-.017-.09.077-.156.052-.248-.046 0-.046 0-.154.042.108-.203.108-.234.105-.399a.428.428 0 01.083-.069c-.178-.184.175-.33.145-.529-.35-.19.057-.573.062-.576.16.082.295.212.474.257.123.03.219-.123.347-.053.002.001.2.143.2.356l.046.015c-.002.045-.002.045.066.138-.061.052-.061.052-.016.193l.049-.003a.562.562 0 00.04.092.195.195 0 01.087.03l-.013.058a.244.244 0 01.076-.07c.139.082.139.082.18.08-.009 1.145-.244 1.226-.37 1.27.164.096.499-.116.53.148h.051c.056.058.056.058.063.15.165-.101.165-.101.284-.326.081.057.091.055.15.043.024-.149.024-.149.152-.38-.123-.191.241-.427.246-.427.128.33.125.694.26 1.023l.05.015c-.002.023-.002.023-.086.147a.817.817 0 01.098-.022.425.425 0 01.032.096c.014.005.036.008.048.017l.145.577c-.01.027-.01.027-.356.09.023.053.03.07.164.085a.235.235 0 01.04.129c.275.094.253.492.552.562a.697.697 0 01.03.11l.05-.009c.145.126.391.046.493.258-.1.12-.1.12-.123.131l-.888.335c.08.067.177.102.264.155.044-.018.43-.186.439-.334.016-.014.405-.318.357.299.135-.187.208-.12.328.113.099.19-.029.394.036.586-.505.344-.505.344-.546.346-.365.02-.409.468-.717.562-.006.001-.686.112-1.252-.143l-.831.451c-.24.19-.24.19-.677.746.332-.165.595-.446.939-.589.181-.076.34-.076.486-.004.255.128.11.309.103.316-.127.154-.314.065-.465.12l.007.05c.109.036.109.036.25.11.008.03.016.072.02.103a.44.44 0 01.09.082c-.093.202.02.46.336.766.066.063.118.044.2.014.01-.003.346.116.428.152-.017.046-.449.345-.69.371-.171.02-.23.092-.345.254-.1-.005-.202-.01-.305-.052.015-.254.015-.254.573-.554l.012-.079c-.087-.003-.174.01-.26.006l.032-.06-.024-.041-1.17.714-.07-.005c.022.004.041.01.065.011-.044.05-.072.054-.139.057-.219.01-.413.452-.414.457-.084.2.134.31.136.486-.126.091-.261-.006-.39.022-.138.03-.258.112-.397.135-.24.041-.372.064-.426.368-.05.28-.05.28-.239.48-.037-.082-.005-.196-.11-.247-.024.07-.036.106.015.23.033.08.07.173.052.229-.001.003-.134.364-.25.374.008-.108.04-.214.04-.323 0-.086-.095-.148-.06-.244.056-.159.056-.159.021-.22a.25.25 0 00-.024.001c-.027.078-.156.472-.053.57-.021.083-.06.16-.076.245a.39.39 0 00.164.135c-.005.269-.005.269.021.29-.121.127.058.306-.072.432-.138.133-.356.108-.486.258-.064.073-.064.073-.247.103-.127.02-.08.175-.165.227-.005.003-.005.003-.115.028-.144.074-.192.313-.411.255-.009.351-.352.626-.221 1.009.357 1.049.357 1.049.355 1.097-.015.502-.115.534-.211.564-.254-.142-.254-.142-.55-1.456-.005-.022-1.292-1.075-1.633-.645a.391.391 0 01-.155-.034l-.051.057c.118.256.118.256.104.317-.706-.296-.706-.296-.743-.372-.367-.115-.367-.115-.744-.006-.134.305-.134.305-.282.3l-.051-.06c-.15.08-.15.08-.25 1.172-.04.026-.098.056-.142.076-.002.01-.114 1.104.43 1.905.107.16.531.495.534.496.224.095.453-.04.677.018a.297.297 0 00.043-.164c.117-.03.152-.038.188-.302.074-.557.56-.443.956-.25 0 .007-.063.772-.234.956a.284.284 0 00-.094-.144c0 .004-.029.216-.044.434 6.554-1.918 14.565-4.92 22.656-8.419.005-.495.118-1.005-.212-1.455.02-.047.194-.23.312-.326.076.017 1.366-.127 1.457-.288.112-.2.112-.2-.482-1.447l.062-.084c-.005 0-.48-.11-.7-.207.016-.176-.018-.197-.12-.259.088-.065.188-.111.265-.192.328.007.328.007.409-.08-.069-.144-.178-.266-.221-.424l.105-.011c.049.046.122.1.181.131.466-.186-.002-.974.531-1.027.01-.14.082-.262.104-.398l-.002.001h-.002l-.002.001h-.002l-.002.002h-.004l-.021.004c-.04-.103-.046-.213-.071-.32l-.005-.027a1.54 1.54 0 01-.012-.218c.086.066.106.18.177.257h.001l.04-.046c-.155-.373-.155-.373-.065-.492l.049-.036.016-.002.014.013.015-.003.014.015.022.021.04-.067-.06-.086.001-.031.083-.078.158.057.025.004-.025-.073-.003-.006-.003-.007a.01.01 0 00-.003-.007l-.002-.007-.003-.007-.003-.006a.025.025 0 00-.003-.007l-.002-.006-.012-.028c.024-.137.024-.137-.085-.295l-.002-.08-.055-.08a.8.8 0 01-.095-.143l-.023-.032c-.057-.187-.251-.28-.306-.47l-.059-.1a.025.025 0 01-.002-.007l-.004-.007-.003-.006a.027.027 0 00-.003-.007l-.003-.006-.003-.006a.024.024 0 00-.003-.007l-.01-.02-.047-.099-.006-.027-.036-.109c-.002-.047.006-.11.012-.157l.008-.02a.354.354 0 00.065-.04.505.505 0 00.027-.201l-.003-.04.022-.068c.167.162.09.494.381.57.012.03.029.07.04.102l-.053.094c.004.009.009.017.02.08l.017.109.018.053-.019.008-.012-.014-.038.027c.07.266.1.297.19.387l.04.086.022.02.015-.002a.47.47 0 00.182.107l.029.038.008-.02.07.017c.005.033.01.078.016.112l.104.026.011-.037-.003-.021.002-.016-.002-.064-.01.002.005-.028.01-.015.005-.024a.5.5 0 01.082-.149c.09.052.152.14.243.188l.018.012.016.03.017.023.013.013.021.002.07-.074.02-.108.005-.027.022-.022c.006-.003.013-.006.063-.084.084-.385.108-.403.21-.48l.099.036.016.107.012.027.03.04.07.007.005-.012c.043-.074.061-.105-.006-.273l-.001-.02-.007-.017.022-.035.009-.015c.013-.006.03-.015.045-.02-.034-.202-.034-.202-.079-.315l-.003-.006-.004-.007-.003-.006c-.002-.003-.002-.005-.004-.006l-.003-.007c-.001-.002-.002-.005-.004-.006l-.002-.007-.02-.037c-.103-.146-.103-.146-.17-.273l-.007-.019a19.92 19.92 0 01-.097-.197c-.15-.448-.15-.448-.16-.54l.101.008.022.02.017.007.102.085.026.026c.01.01.025.021.036.031l.088-.053c-.043-.096-.092-.189-.138-.283a.106.106 0 00-.007-.013c-.002-.004-.004-.009-.007-.012l-.008-.013-.007-.012-.008-.013-.007-.012-.007-.012a1.053 1.053 0 01-.083-.186c-.088-.008-.097-.01-.221-.12a.072.072 0 01-.038-.033l-.002-.001a.083.083 0 01-.01-.052l-.008-.036a.128.128 0 01-.066-.042l-.005-.01c-.003-.002-.004-.005-.007-.009l-.005-.009-.011-.018-.006-.009-.006-.009c-.003-.003-.004-.006-.006-.01a.772.772 0 01-.042-.071l.004-.029-.007-.018c-.003-.058-.003-.058.026-.124l-.005-.019c.003-.015.018-.03.027-.043l.039.009.016.014a.026.026 0 00.011-.01c-.037-.151.076-.12.142-.101l.019-.001.011.005.01-.004c.019-.005.019-.005.084-.061-.009-.019-.009-.019-.062-.112l-.014-.022a.64.64 0 01.032-.014l-.015-.04.03-.026c-.004-.013-.007-.032-.01-.045v-.012l.025-.038.039-.007h.002l.001-.002.002-.001.003-.002.003-.002.001-.001.01-.006.006-.04.001-.001v-.001h.003v-.002h.002c.001-.001.001-.001-.003-.032l-.054-.029c-.075-.026-.078-.026-.121.023-.008-.003-.008-.003-.11-.07l-.017.01c-.091-.126-.091-.126-.113-.198l-.016.012a.934.934 0 01-.011.039.574.574 0 01.026.107h-.041l-.028-.013c-.031.028-.04.07-.064.103a.354.354 0 01.004.09.733.733 0 00-.035.016l.001.046h-.001s0 .002-.002.002h-.001v.001s-.002 0 .003.032l.002.022.005.014-.01.007-.018.024a.574.574 0 01.01.088l-.037-.02-.005.014c-.003.002-.008.004-.021.022-.04.042-.008.099-.028.145-.108-.115-.108-.115-.127-.124l.003.014c.002.02 0 .048 0 .068-.044-.037-.061-.097-.103-.138l-.037-.034-.022-.013-.02-.018-.014.002a.617.617 0 01-.404-.46c-.162-.234-.38-.418-.545-.648l-.013-.024c-.058-.088-.049-.111-.02-.158-.096-.178-.096-.178-.057-.233-.03-.094-.101-.236-.102-.238l-.02-.03c-.08-.228-.08-.228-.28-.567l-.025-.057a.252.252 0 00.027-.03c.003 0 .006-.002.008-.004-.03-.066-.03-.066-.076-.114l-.023-.021-.019-.022-.015-.012-.012-.017-.017-.02c-.014-.018-.214-.234-.331-.236l-.03-.022-.013-.003-.034-.024-.012-.004-.019-.012c-.005.003-.01.006-.023.045l-.034.02-.004.01-.025.014-.008.027-.04.005c.12.207.12.207.123.225l-.018.017.025.031.018.022.023.02.02.06a.304.304 0 01.053.035l.034.04c.013.035.013.035.26.352l.015.026.015.021c.042.123.142.219.162.353h-.001l-.002.001-.002.001-.002.01.012.039.018.034-.02.036c.006.045.018.089.025.133-.008.01-.017.022-.025.03l.006.04.004.017.014.025.008.029-.006.022.012.034.013.02c.023.05.05.096.074.146a.73.73 0 00-.033.02.101.101 0 00-.016.005c.101.113.095.147.088.183l-.036-.015c.04.088.11.155.163.236l.02.02c.137.153.137.153.147.17l-.019.03-.023-.01-.04-.015-.007.016c.112.155.246.292.347.456l.004-.011.004.007.006.009.006.008a.096.096 0 00.005.008l.005.007a.033.033 0 00.005.008.054.054 0 00.005.009l.02.027c.086.05.085.084.079.306a.19.19 0 00.038-.074c.008-.025.008-.025-.033-.111l-.005-.041.003-.053.041.008.013.002.013-.004c.152.125.34.297.373.408l.002.033c.019.105.019.105.017.119l-.036.014-.036-.02-.016-.001-.046-.016a.26.26 0 00-.062.054l-.004.001-.004.002-.004.002c-.001 0-.003 0-.003.002l-.005.001-.004.002a.01.01 0 01-.004.001l-.004.002-.007.04.048.014a.122.122 0 01.062-.04.95.95 0 01.058.052c.129-.027.129-.027.158-.012l.008.047c.026.092.026.092.016.162a.705.705 0 01-.037-.015c-.005-.008-.01-.016-.04-.042 0 0 .01.114.036.201v.002c.006.032-.016.025-.041.016a.89.89 0 01.04-.018.162.162 0 01-.064.015l-.032.026a1.502 1.502 0 01-.028.012l.001.005.027-.01a.052.052 0 00.012.019l.01-.003.021.01.026.005.028.052a.05.05 0 00-.008.02c.025 0 .026 0 .032.007 0 0 .1.127.108.146.037.076.053.162.1.234l.014.016.013.024c.032.073.028.156.064.227.043.084.093.164.128.252l.005.015c.049.15.056.29.056.29-.004.003-.004.003-.049.002l-.018.007-.012-.005-.028.01c-.008.042-.043.075-.036.122.01.072.069.122.084.191.017.08.017.08.001.094l-.01.024-.016.004-.003.002h-.003l-.004.002-.004.002-.003.001-.003.002h-.004c0 .001-.002.002-.009.004-.032-.003-.032-.003-.078.053a.713.713 0 01-.041.006c-.014-.03.003-.076-.042-.093-.012.01-.04.037.048.22.068.143.004.144-.037.145l-.016-.034-.018-.02-.017-.025c-.03-.022-.042-.058-.068-.082l-.024-.027c-.008.002-.025.007-.087-.02l-.029-.034c-.015-.021-.046-.032-.049-.064.036-.016.036-.016.039-.04l-.015-.034c-.002-.015-.007-.029-.008-.044.02-.036.053-.056.08-.083-.022-.066-.002-.077.03-.094.005-.058-.098-.115-.037-.162-.045-.122-.045-.122-.05-.13-.044-.023-.085-.052-.13-.073l-.018-.022c-.029-.02-.031-.025-.076-.119-.018-.039-.061-.053-.084-.088-.047-.072-.084-.15-.127-.225.01.044.008.046-.001.058-.029-.022-.033-.06-.052-.087-.08-.037-.108-.123-.168-.179l-.031-.007c-.036-.065-.076-.126-.106-.195a.454.454 0 00-.093-.13l-.02-.02a.245.245 0 00-.062-.068l-.023-.018c-.065-.047-.082-.146-.171-.169.026.095.096.169.121.264l.01.04-.026.03a.238.238 0 00-.08 0c-.008.07-.008.07.034.181a1.558 1.558 0 01-.02.007v.002a.31.31 0 01.02-.006c.004.025 0 .05.006.073.01.046.037.086.046.131.032.167.023.171-.04.129l-.044-.037c-.014.042-.014.042-.009.073.002.01.005.034.002.042-.001 0-.032.039-.036.041-.013.007-.026 0-.04 0-.01-.023-.02-.023-.035-.002-.008.01-.016.02-.023.022-.005 0-.02-.001-.034-.053a.274.274 0 00-.043-.091c-.01.041-.01.041-.011.055 0 .025-.001.026-.006.03-.009-.003-.012-.005-.025-.024-.01-.014-.011-.017-.022-.026-.016-.013-.037-.017-.054-.028-.039-.025-.06-.068-.096-.095a.077.077 0 01-.037-.032.088.088 0 01-.034-.039c-.072-.082-.052-.117-.033-.15-.037-.073 0-.172-.077-.23a.678.678 0 00-.054.069c-.1.012-.102.006-.136-.093.034-.042.084-.07.105-.123l-.005-.039a.22.22 0 01.009-.02l-.022-.037-.02.008-.046-.014c-.022-.05-.022-.05-.037-.415-.012-.007-.027-.017-.04-.023h-.002l-.011.004c-.165.1.02.275.02.414l-.039.018-.004-.026c.004-.11.004-.11-.007-.14l-.039-.015-.025.035a.168.168 0 01-.054-.056.247.247 0 00-.034-.084l.012-.044a.677.677 0 00.04-.006l-.001-.04a.367.367 0 01-.104.003c-.013-.085-.084-.135-.123-.204l.014-.053a.158.158 0 00.078-.001l.018.009.044-.016c.02-.004.02-.004.154.037a.336.336 0 00-.032-.074c.005-.103.005-.103-.02-.155a7.235 7.235 0 00-.048-.007c.014.073.01.077-.03.108a.22.22 0 00-.07-.04l.008.04-.017.007a.259.259 0 01-.011.02c-.034.008-.034.008-.09.078a.51.51 0 01-.033-.02l-.03-.039a.722.722 0 01-.062-.095l-.005-.028c-.006-.06-.058-.089-.083-.135l-.007-.05.026.007.019-.007.023-.033c-.124-.058-.135-.063-.166-.13.037-.014.078-.01.114-.03a.735.735 0 01-.052-.078l.013-.039.008-.013.015-.02a.374.374 0 00-.049-.07l-.01-.071c.067-.002.067-.002.118.02.01-.007.025-.015.036-.021-.013-.146-.158-.129-.233-.198a.12.12 0 01.066-.037c.001-.023.001-.023-.038-.122.069-.04.069-.04.001-.27a.112.112 0 01.072.008l.07.038a.442.442 0 00-.043-.069l-.039-.037c0-.022.014-.05.028-.066.111.085.111.085.153.09l.017-.036c-.05-.103-.164-.087-.243-.136a.136.136 0 01-.026-.052l.023-.032c-.105-.3-.105-.3-.09-.342l.035-.017c-.082-.18-.082-.18-.128-.172l-.02-.03.005-.013c-.01-.04-.022-.078-.031-.117l.026-.034a.238.238 0 00-.036-.09l-.022-.053V8.6l.014-.006c-.08-.075-.208-.216-.168-.32a.246.246 0 00-.066-.06.185.185 0 01-.044.062c-.006-.005-.006-.005-.054-.15l.03-.03c-.028-.076-.028-.076-.094-.114a1.385 1.385 0 00-.031-.037c-.02-.237-.214-.379-.3-.58l-.021-.029a.186.186 0 01-.006-.078c.022.012.054.02.078.025l.008-.039-.033-.021-.038.01-.002.001h-.001l-.013-.005c-.187-.243-.187-.243-.214-.289l.012-.048c.034.025.063.058.1.08V6.97h.003l.002-.001v-.02c-.043-.06-.105-.1-.156-.151-.05-.024-.057-.039-.075-.082a.212.212 0 01.082.011l.036-.018c-.037-.052-.05-.06-.103-.098a.22.22 0 00-.07.039.195.195 0 01-.053-.07c.025-.045.025-.045-.118-.238l-.014-.02c-.013-.135-.169-.156-.208-.272.03.02.03.02.099.072a.81.81 0 01.041-.009c-.054-.045-.125-.07-.162-.137.097.038.174.116.277.141l-.026-.025c-.103-.082-.23-.128-.318-.233l.021-.034c.049.033.091.072.143.098-.195-.176-.195-.176-.204-.22.105.078.105.078.314.261-.073-.123-.228-.167-.284-.307.037.02.068.05.106.07a.304.304 0 00-.061-.055l.007-.04c.039.012.074.033.113.043-.098-.086-.098-.086-.147-.105-.188-.099-.206-.124-.233-.16.043.017.084.037.129.048l.023.007.045.022c.038-.017.076-.004.114-.006-.132-.12-.135-.123-.15-.188l-.007-.017c-.045-.158-.304-.111-.296-.318l.026.016c.173.098.173.098.22.16.068.078.296.261.32.275l-.023-.027c-.117-.178-.332-.26-.43-.457.134.071.205.235.37.259a23.745 23.745 0 01-.465-.42c.232.04.322.298.536.365l-.004-.014c-.008-.028-.008-.028-.103-.11l-.033-.024c-.043-.038-.09-.07-.134-.108l-.016-.02.005-.033c.093.058.205.08.295.143l.04-.01.02.004a.32.32 0 00.073.033l.028.02c.06.04.106.07.153.167-.033.03-.078.03-.113.053.326.177.326.177.361.215.021-.036.017-.078.025-.118.024.009.06.014.087.014l-.04-.03.002-.017a.497.497 0 01-.074-.069c.195.042.195.042.263.121a.354.354 0 00-.086.01c.03.023.117.091.146.091.77.016 2.044.534 2.43 1.466l-.034.02c-.096-.04-.096-.04-.138-.047l-.031.024c-.08-.024-.168-.01-.245-.046l-.032.022c-.103-.084-.103-.084-.27-.088-.13-.113-.203-.112-.23-.111l.302.248c.2.157.467.19.66.361.236.21.405.488.665.67.003.002.326.163.43.167a.154.154 0 01.001-.082c-.173-.254-.702-.16-.668-.583.25.145.28.183.322.235-.054-.11-.054-.11-.057-.151.18.069.18.069.233.028-.175-.178-.415-.27-.581-.46-.003-.003-.342-.58-.342-.582.001 0 .26.115.36.169-.23-.209-.23-.209-1.71-1.342l.002-.026c.407.043.59.202.673.328l-.008.04c.185.289.626.445.63.446.006-.087-.341-.386-.345-.389-.018-.014-.49-.521-.586-.712.062.044.122.091.184.136v-.002c-.057-.043-.114-.087-.172-.129l.065.017c-.217-.161-.217-.161-.248-.19l.072.032c-.126-.1-.126-.1-.161-.149.18.104.352.224.537.32-.298-.238-.298-.238-.337-.313l.06-.016c-.276-.232-.294-.252-.339-.304.157.086.28.236.466.268-.326-.26-.763-.358-1.008-.735.162.017.364.037.963.352v-.001c-.575-.443-.912-.526-.914-.526l.051.036c-.319-.171-.6-.412-.944-.535.015.012.036.03.052.041-.658-.301-1.28-.68-1.935-.984l-.022-.074c.096.019.217.055.356.106a19.5 19.5 0 01-.433-.223c.496.159.95.431 1.456.561l-.121-.053c-.399-.123-.537-.211-.537-.213.037.015.089.032.126.046-.203-.108-.43-.163-.615-.31.16.025.305.1.461.142a4.667 4.667 0 01-.105-.062h-.001l-.001-.001v-.002c-1.12-.485-2.148-.798-2.956-1.045.047.007.047.007.197.037h-.001v-.001c-.389-.106-.78-.204-1.169-.312a16.12 16.12 0 014.087 1.296c0-.007 0-.013.002-.02A21.283 21.283 0 0032.258 0C20.217 0 10.455 9.991 10.455 22.315c0 3.69.876 7.171 2.426 10.237 2.181-.276 4.864-.87 7.895-1.718zm2.346-23.866c-.001-.01-.003-.023-.001-.032l.007-.008a.08.08 0 00.006-.008l.007-.007a.059.059 0 00.007-.008l.006-.008.007-.007.006-.008.007-.007.18-.297c.013-.043-.008-.066-.05-.113-.062.004-.062.004-.071-.004 0-.13 0-.13.087-.3l-.003-.008-.002-.019c.01-.02.022-.037.032-.057l.013-.02c.042-.073.049-.083.19-.118.253-.052.253-.052.269-.051l.015-.001c.352.06.352.06.377.021l.014-.02c.057-.102.019-.207.019-.208-.113-.032-.209.053-.318.044v-.02l-.001-.015c.018-.05.018-.05.02-.065-.006 0-.006 0-.098.02-.018-.058-.018-.058.03-.12l-.006-.005.008-.013.005-.02c.012-.025.114-.183.204-.21.042-.003.182-.027.183-.028l.014-.002c.081-.022.163-.042.243-.067.018-.014.03-.025.042-.036l.004-.017c-.024-.002-.024-.002-.086.02l-.01-.001c-.102.007-.102.007-.127-.022l-.04.02c-.048.02-.048.02-.07.01V5.13c.047-.063.136-.067.181-.132l-.011-.009-.035.02a.29.29 0 01-.034.018l-.01-.035a.047.047 0 00-.015-.006c.02-.034.098-.13.374-.285.156-.09.156-.09.211-.163.059-.065.059-.065.363-.213.08-.04.322-.164.64-.228a.296.296 0 01.006.019c-.28.328-.516.393-.519.394a.138.138 0 00-.029.026.257.257 0 00.194-.062l.026-.025.014-.012.004-.004a.015.015 0 00.004-.003l.004-.004c.002 0 .003-.002.005-.003l.003-.004c.002 0 .003-.002.005-.003l.004-.003c.037-.027.168-.096.17-.097l.003.01-.004.023a.363.363 0 01-.027.057l-.003.012c-.079.19-.079.19-.17.248a.872.872 0 01-.13.085c.046-.014.081-.05.125-.067-.011.032-.04.05-.06.076.071-.023.115-.096.191-.108.005.021.005.021-.018.053.026-.003.03-.003.081-.064l.012-.017.021-.008.012-.013c.055-.056.055-.056.065-.077.025-.032.025-.032.038-.055a.334.334 0 01.048-.044l.013-.011a.352.352 0 01.038-.019l.01.025-.04.06c-.026.036-.04.078-.065.112l-.013.014-.007.011-.017.019-.005.014-.011.018-.01.02c-.105.23-.358.32-.478.533l-.017.032c.001 0 .124-.002.246-.157l.016-.02.046-.054.017-.017.015-.02a.384.384 0 01.019-.017l.014-.018.011-.019.016-.016.009-.015c.02-.033.02-.033.043-.057l.02-.02.01-.01.01-.01.011-.01.01-.01.01-.009.01-.01.01-.01c.145-.135.285-.276.432-.41 0-.023.01-.066.088-.094a.046.046 0 01.02-.003.125.125 0 01-.006.052c-.002.04-.043.062-.045.103.019-.01.019-.01.08-.066.005.023.005.023-.085.163l-.01.017c-.028.053-.065.1-.097.15l-.006.012c-.032.052-.08.093-.116.142l-.018.017c-.054.07-.054.07-.09.108l-.018.018-.01.013c-.066.073-.137.14-.198.218-.076.096-.115.216-.2.305-.198.21-.198.21-.217.264-.026.049-.056.097-.084.145l.001.019.002.014-.004.013a.279.279 0 01-.014.06l-.01.02a.235.235 0 00.023.006h.003l.002.001.003.001h.003s.002 0 .002.002h.006l.002.001a.647.647 0 01.038.009c.014.074-.114.166-.026.213-.003.021-.003.021-.035.073l-.02.019-.023.031c.015.011.015.011.052.023.003.022.003.022-.01.04a2.262 2.262 0 01-.067.089c-.006.006-.01.012-.014.018a.313.313 0 01-.014.019l-.014.018-.014.019c-.032.044-.032.044-.067.079l-.013.005h-.02c-.001-.005-.001-.005.03-.094-.042.011-.065.055-.107.07.037-.035.037-.035.075-.12-.109-.055-.122.123-.196.17-.053-.046-.053-.046-.077-.033l-.02.013a.663.663 0 00-.068.123l.01.014c.038-.021.069-.054.109-.071.017-.005.029-.008.041.008l.01.004c0 .003-.182.361-.241.36l-.025.008c-.04.01-.077.03-.117.037a.049.049 0 01-.015-.003l-.005-.001a.02.02 0 01-.007-.002l-.006-.001c-.002 0-.004 0-.006-.002h-.007a.014.014 0 00-.006-.002l-.006-.001-.003-.001-.004-.001-.004-.001-.003-.001-.003-.001h-.004c0-.002-.002-.002-.004-.002h-.003c-.03 0-.03 0-.073-.106-.03-.003-.06.024-.09.004.002-.05.002-.05.026-.086l.014-.036c.012-.057.012-.057.006-.071a2.786 2.786 0 00-.085-.033c.015-.078.08-.125.114-.192l-.03-.002-.065.028c-.239.225-.239.225-.356.217-.015.024-.015.024-.337.134a.25.25 0 00-.056.018.145.145 0 01-.055.005c-.021 0-.026-.002-.031-.003-.25.032-.323-.005-.33-.01 0-.023 0-.023.024-.051a.21.21 0 01-.005-.02zm.938-2.36a.243.243 0 00-.032.006.755.755 0 01.036-.045c-.025-.023-.037-.021-.071-.016.02-.04.107-.07.116-.074l.45-.275c.277-.188.277-.188.29-.184l.773-.441c.052-.033.055-.033.107-.073l.016-.019c.017-.017.037-.033.055-.05.057-.04.057-.04.104-.064l.024-.013.044-.027.016-.016c.088-.088.143-.078.164-.075l.024-.01h.03l-.011.01a.87.87 0 00.13-.025c.021.026.023.03.145-.023l.017-.003h.008c-.053.078-.148.116-.189.207a.22.22 0 00.013.008c-.007.012-.007.012-.08.066l.031-.01c-.032.043-.084.061-.122.096l.005.005v.006c.103-.016.186-.09.29-.102-.067.158-.23.223-.324.355l-.014.013-.037.048c-.05.062-.05.062-.063.071-.102.068-.102.068-.197.102-.032.011-.064.025-.097.037l-.025.007c-.665.282-.665.282-.856.418l-.027.013c-.021.012-.021.012-.113.055a.067.067 0 01-.003-.034c-.014.01-.034.02-.05.03a.014.014 0 01-.004.003l-.005.005-.006.004-.005.004a.023.023 0 01-.005.004.034.034 0 00-.005.005l-.005.003-.006.005s-.067.046-.075.05l-.017.011c-.038.02-.038.02-.099.061l-.021.017c-.011.01-.022.02-.034.028-.016.02-.272.238-.327.213a.277.277 0 01.024-.027c-.035.005-.06.033-.092.046.005-.019.005-.019.052-.072-.148.042-.265.147-.406.204-.002-.027-.002-.027.472-.53l-.013-.007zm2.652.053l.004.01c-.018.044-.018.044-.017.058l-.015.03c-.013.048-.043.086-.063.13h.017c.095-.029.095-.029.222-.152l.001.008h.01c.056-.06.062-.158.146-.197a.025.025 0 01.006.007l-.005.018.02.007a.327.327 0 00.086-.125c-.035.014-.047.088-.092.062-.006-.094.05-.186.123-.204.01.025-.02.042-.013.066l.014-.01c.05-.049.053-.131.118-.168l.014-.011.017-.01.015-.013.031-.017c.025-.006.027-.002.034.006l-.008.027c.026-.004.031-.024.037-.048l.031-.03c.02-.014.041-.024.062-.035l.006.003h.002l.005.008c-.014.042-.057.07-.055.12l.001.005.008.005v.01l.008.004h.007v.001h.002c.044.056.096-.022.144-.034l.017-.01a.405.405 0 01.036-.017l.01.006.01.001a.426.426 0 01-.182.188l-.009.013-.012.014-.004.014c-.046.092-.142.123-.213.185l-.014.018c-.074.065-.178.081-.241.162.017.003.017.003.057-.018 0 0 .099-.049.115-.04.004.033-.096.168-.096.17-.052.066-.052.066-.058.078.055-.023.055-.023.06-.02.01.02.01.024-.106.163-.075.09-.174.159-.24.258l.003.008h.002l.01.002a.824.824 0 01-.095.122l-.004-.006c-.012-.001-.02-.002-.085.061a.442.442 0 01-.126.084l-.007-.004c0-.059-.06-.023-.065-.018-.006.005-.006.005-.032.05-.056.113-.163.154-.17.124-.004-.018.013-.047.024-.067a.023.023 0 00-.006-.006c-.017.011-.028.03-.046.04l.003-.027.015-.027c.024-.032.024-.032.035-.059l.009-.02.014-.02c.007-.012.182-.31.17-.392l-.026.01h-.009l-.003-.01.025-.036v-.01c-.062-.004-.043-.033-.01-.083.052-.08.086-.17.135-.253.046-.057.147-.15.186-.159zm.142-1.21c.007-.012.007-.012.154-.146.023-.034.023-.034.175-.072.073-.008.12-.1.206-.068l.025-.003a.79.79 0 01.008.026c.016-.002.035-.012.05-.019l.027-.018c.03-.017.052-.024.078-.035a.796.796 0 00.1-.06c-.048.004-.084.057-.137.034.01-.04.051-.043.076-.065-.014-.003-.034.01-.047.017-.235.079-.235.079-.243.075.11-.098.253-.131.37-.213a.193.193 0 01-.005-.012c-.018.003-.018.003-.224.122a.043.043 0 00-.006-.005c.025-.02.053-.035.079-.055l-.058.03c-.16.103-.18.116-.216.124l-.01-.007a.148.148 0 01.028-.028l.03-.02.02-.014.021-.015c-.078.004-.105.123-.2.094a.138.138 0 01.022-.025l.048-.044.003-.007c.035-.025.078-.04.108-.074-.03 0-.053.023-.083.025l-.007-.01c.077-.104.29-.225.316-.181l.01.002h.003l.002.001.001.001h.002l.002.002h.002l.004.012c.04.007.208-.072.222-.084-.075-.044-.126.064-.199.034l-.003-.002h-.001l-.01-.009c.048-.057.217-.126.236-.13l.01.007-.003.012c.022.013.16-.003.211-.034l-.013-.002-.014-.001-.006-.003-.016.005-.007-.002-.013.003c-.066.013-.066.013-.08.011a.07.07 0 00-.004-.012c.032-.033.289-.167.354-.174.012.006.026.008.038.01v.013l.006.002c.028.009.07-.04.07-.04a.153.153 0 00-.026-.008c.02-.028.09-.074.303-.13l.005.012c-.006.005-.006.005-.267.16a.05.05 0 01.006.01c.008 0 .008 0 .093-.025a.672.672 0 01-.142.123c-.173.108-.18.124-.183.134l.012.003v.014c-.07.051-.142.098-.211.147l-.006.007h.001v.001h.002c.005 0 .005 0 .082-.021a.207.207 0 01-.003.02c-.006.015-.006.015-.033.058.024.013.024.013.228-.139.028-.023.058-.042.086-.065a.049.049 0 00-.008-.01c.01-.026.07-.046.077-.046.046 0 .144-.082.144-.083l.004-.006c.15-.13.15-.13.41-.255.082-.035.15-.098.24-.112a.119.119 0 01-.021.027l-.027.016c-.083.053-.169.102-.252.154-.114.08-.234.152-.35.23a.065.065 0 00.007.01l-.003.01.005.004a.675.675 0 01-.167.109c.028-.006.05-.03.08-.026-.004.017-.004.017-.117.108l-.03.024c.031-.013.031-.013.071-.042l.01-.007.006-.004.006-.004.006-.005a.022.022 0 00.005-.003l.006-.004c.001-.002.003-.002.006-.004a.023.023 0 01.005-.004l.028-.019.007-.007c.001-.001.134-.092.164-.101a.052.052 0 00.006.011c-.052.074-.36.299-.364.3-.186.132-.507.35-.573.325.002-.015.002-.015.088-.089-.021.002-.021.002-.092.04-.014.006-.052.022-.046-.018.022-.017.044-.032.067-.048l-.003-.01-.026.019-.021.012c-.087.048-.184.058-.276.088-.004.002-.429.221-.478.2l-.018.007-.01-.003c-.004-.003-.005-.003-.007-.003h-.002l-.002-.001-.002-.001h-.003l-.002-.001-.002-.001-.002-.001a2.926 2.926 0 00-.015-.023.061.061 0 01.013-.021l-.001-.007zm.892-.952c.019-.023.019-.023.02-.029.014-.01.022-.014.12-.065l.008-.005c-.063.012-.115.054-.178.065.009-.014.009-.014.131-.075a.969.969 0 00.07-.031c-.01-.002-.01-.002-.036.006.012-.014.012-.014.182-.082l.017-.006c.14-.06.14-.06.17-.07-.01.025-.036.028-.054.043.192-.035.358-.137.538-.205l.013-.003c.315-.126.315-.126.408-.157l.035-.013c.072-.026.149-.035.222-.056-.022.022-.059.02-.073.05.116.006.19-.108.302-.113 0 0-.155.098-.208.122l-.01.005c-.075.033-.157.046-.232.08-.078.034-.139.097-.223.12l.01-.006h-.006l-.005-.002-.554.25c-.053.028-.053.028-.183.078.003-.016.003-.016.128-.087l.03-.018c.026-.013.052-.024.078-.035l.031-.016c.088-.045.186-.067.266-.128-.103.01-.181.08-.274.115.018-.017.042-.026.063-.039-.033 0-.18.09-.19.098-.029.022-.3.15-.357.168.057-.114.198-.085.273-.167-.202.03-.326.223-.525.263.006-.006.012-.013.018-.017l-.038.016-.032.015c.017-.017.017-.017.101-.066l.01-.009c.075-.044.156-.08.23-.129-.11.018-.192.1-.296.135zm2.64-.949c-.003.004-.009.007-.013.01.022-.003.042-.017.065-.016l.002.005a.766.766 0 01-.097.05c-.032.014-.032.014-.061.024l-.023.009c-.085.03-.178.03-.253.088.03.005.057-.016.086-.021a10.4 10.4 0 01-.25.12l-.02.01a.681.681 0 01-.154.055c.008-.01.02-.013.03-.02-.045.007-.085.027-.128.039a.01.01 0 00-.002-.005.24.24 0 01.032-.02l.025-.014c.152-.084.152-.084.268-.145a1.67 1.67 0 01.493-.169zm.482-.056c-.012.004-.024.009-.037.011.005-.005.005-.005.07-.04a.009.009 0 00-.002-.002l-.015.006c-.047.013-.09.037-.136.054.01-.01.013-.012.054-.033.243-.129.243-.129.276-.141-.005.01-.005.01-.048.035l-.006.003c.012.004.012.004.086-.031l.004-.004h-.002V1.35h-.002c.046-.043.108-.044.161-.067a.026.026 0 01-.007.001c.015-.009.032-.015.049-.023-.021.006-.04.015-.061.022.073-.05.159-.065.238-.1-.066.014-.125.05-.19.071.076-.04.16-.062.236-.098l-.025.007.015-.008c.067-.027.29-.112.343-.127l-.022.008c.033-.007.062-.023.095-.03-.035.016-.07.027-.105.04l.017-.006a.116.116 0 01-.017.01c-.102.04-.208.075-.308.122.052-.014.099-.038.148-.057l.115-.046-.003.003h.001c-.06.03-.122.053-.183.078l.065-.025c-.022.012-.045.02-.068.03l-.06.026-.021.01a.554.554 0 00-.064.031l.033-.01c-.056.037-.123.048-.176.09l-.62.35c-.043.025-.088.048-.13.072l-.022.012-.011.005-.02.009c-.02.009-.044.013-.065.021.117-.133.285-.18.428-.272l-.008-.005zm-1.18.935l.002-.003-.009-.001-.001-.01a.535.535 0 01.073-.066l.003.01-.026.031.01.002.008-.003c.04-.025.054-.07.086-.103l.032-.024.005.005c.043-.008.077-.037.118-.051h.014l.003.001h.002l.002.001h.005c.001.016-.02.052-.053.096a.055.055 0 00.006.007.336.336 0 00.028-.014v.005l.005.002-.021.02c-.02.02-.037.04-.056.058h.004l-.031.025v.002c-.08.073-.176.123-.255.2.008-.003.008-.003.068-.04.027-.014.027-.014.052-.034.023-.013.027-.013.038-.013l.004.005h.003l.002.002h.002c.041-.013.073-.045.113-.056a.058.058 0 01.005.017l-.008.01-.007.013c-.064.106-.064.106-.075.12l-.015.002c-.015-.002-.027-.009-.041-.01l-.01.014v.006l-.004.007-.002.006-.003.009-.002.008-.005.008.012.002c.018-.003.018-.003.029.003l-.008.07-.002.01-.032.034c-.018.017-.035.036-.055.05-.01-.002-.01-.002-.034.003l-.036.012-.005-.013c-.003-.012-.004-.015.005-.031l-.005-.008h-.009c-.007-.022-.007-.022-.012-.026-.032.024-.036.034-.05.065l.008.013c0 .015-.002.019-.027.045l-.01.003c-.019-.005-.019-.005-.108.064-.03.023-.03.023-.047.04.01.001.01.001.099-.058.009-.006.017-.013.026-.017v.014l.003.009h.01l.006.01c-.007.013-.008.017-.02.032a.255.255 0 01-.015.014l-.012.015a.07.07 0 01-.006.008c.01 0 .02-.004.031-.005-.01.117-.134.113-.187.183.011.004.024.003.034.012-.004.008-.004.008-.052.078l.02-.008.025-.03a1.76 1.76 0 01.089-.099l.007.007-.002.011v.006l-.004.011v.008l-.002.007-.011.015-.024.03c.02-.01.034-.029.054-.038l.002.011-.009.012-.01.019c.033-.012.042-.062.087-.057 0 .003.003.008.004.01-.014.034-.022.07-.036.104l-.02.018a.258.258 0 00-.045.038l.016-.006a.154.154 0 01.084-.008l.028-.036c-.007-.082.091-.07.133-.11.007-.008.007-.008.22-.127.02-.01.02-.01.037-.007v.01c.004.01.004.023.004.033.047.006.093-.037.14-.002.001.014.001.014-.041.076h.02c.02.005.02.005.025.01h.013v.001l.006.01c-.019.037-.052.06-.075.092.004.004.004.004.043.017 0 .011-.001.025-.03.067-.044.066-.044.066-.124.135-.116.085-.116.085-.166.16-.044.066-.045.148-.085.215l-.017-.001c-.07.01-.105.084-.172.098l-.007-.02v-.012l.005-.015-.017-.002c-.019.01-.036.023-.057.029l-.006-.01.006-.014.003-.019c-.01.003-.018.01-.027.015-.012-.027.016-.07.048-.12.002 0 .003-.002.004-.004l.003-.004.003-.005c.001-.002.003-.003.003-.005.001-.002.003-.003.003-.005l.004-.004c0-.002.002-.003.003-.005l.003-.004a.278.278 0 00.057-.138c-.024 0-.057.066-.08.122v.014l-.024.031c-.059.058-.059.058-.103.076h-.001c-.022-.005-.022-.005-.056.017l-.013-.003-.01-.001-.005-.01.008-.023a.04.04 0 01-.009-.004l-.013.009h-.006c-.021.015-.021.015-.057.026-.02.012-.02.012-.03.009l.018-.031.01-.017a.056.056 0 00-.025 0l-.01.004c-.058.035-.101.052-.128.05 0-.01 0-.01.02-.05l-.004-.009s-.037.014-.076.04a.044.044 0 01-.006-.006l-.006-.004c-.023-.008-.05.009-.069-.018.035-.07.113-.101.145-.175l-.006-.007c-.022.007-.038.035-.066.02-.024.01-.03.021-.041.046l-.012.022c-.005.03-.047.057-.06.065-.003 0-.005-.002-.008-.003v-.021c-.015-.007-.03 0-.045-.005-.008-.022.008-.04.011-.058a.027.027 0 00-.008-.004c-.022.014-.038.037-.058.054l-.008-.002.032-.037.003-.004.004-.004a.01.01 0 01.003-.003c.001-.002.003-.003.003-.005.002 0 .003-.002.004-.004l.003-.003.004-.004.003-.005c.032-.035.033-.038.037-.055l-.01-.002c-.026.02-.048.047-.075.068-.003 0-.006 0-.009-.002-.005-.011-.005-.011.032-.109l.021-.028c.044-.066.105-.115.156-.173a.175.175 0 00-.026-.007l.027-.03c.31-.278.31-.278.337-.312l.015-.015.014-.016.017-.017c.003-.004.34-.385.356-.408-.07.011-.108.08-.17.106l-.004-.008a.213.213 0 00.012-.022l-.005-.003a.05.05 0 00-.01-.014l.025-.027.01-.01.01-.012c.017-.018.017-.018.022-.026-.009-.012-.009-.012.05-.079v-.006l.009-.01c.027-.029.027-.029.063-.062l.057-.059-.004-.002zm-.968.537l-.298.103c-.004-.033.108-.122.146-.124.004.005.014.008.02.01.066-.048.112-.084.132-.072-.004.009-.004.009-.013.02.009.004.012.005.091-.064l.017-.014c.02-.019.043-.036.065-.055l-.006-.003.003-.008.01-.014c.06-.065.284-.232.32-.225-.031.101-.136.128-.193.201-.046.055-.046.055-.047.062l-.01.015.006.003a.03.03 0 01.007-.004l-.006.003c.04-.04.1-.056.129-.11l-.002-.007c.013-.024.04-.027.06-.04a.02.02 0 00-.006-.004.105.105 0 01.03-.02l.021-.012c.045-.028.048-.034.054-.043a.037.037 0 01-.011-.008.11.11 0 00.006-.014.021.021 0 01-.004-.006.438.438 0 01.183-.113l.012-.006.014-.005.023-.005c.002.021.002.021-.097.116l.002.007c.06-.013.092-.078.154-.09-.016.087-.521.459-.526.462-.064.04-.069.043-.08.062 0 .004.003.01.006.013-.003.012-.004.019-.05.058-.108.09-.122.1-.135.1.007-.014.007-.014.069-.078h-.012l-.024.013c-.216.174-.23.207-.234.219v.01a.184.184 0 01-.044.04l-.014.011-.026.013-.014.008-.011.01-.01.004c-.035-.014-.069.027-.104 0v-.016c-.033-.008-.06.022-.093.01.005-.031.112-.115.113-.116l.028-.018.06-.034.026-.032c-.008-.025.054-.055.055-.055.021.01.248-.135.26-.166-.008-.004-.013-.006-.052.008zm-1.735 2.413c-.024.009-.045.033-.076.026a.05.05 0 01.01-.02l.02-.024.004-.013.022-.017.014-.017c.029-.041.061-.078.092-.118.105-.136.18-.294.291-.426a.652.652 0 00.02-.023l.013-.01.016-.017.014-.013c.074-.07.248-.274.285-.337.004-.006.084-.108.13-.114a.046.046 0 00.006.01c-.012.03-.029.056-.034.088l.006.005c.05-.024.063-.102.064-.102.018-.152.247-.233.282-.198-.001.009-.001.009-.01.025.032-.006.047-.043.082-.043l.033.015-.005.017c-.005.024-.003.064-.003.064l-.011.016-.008.017c-.01.017-.01.017-.01.024.012.003.012.003.063-.015l.013-.008c.038-.018.057-.006.06-.005.019.014-.008.034 0 .051.007.014.022.01.032.018-.004.017-.005.018-.023.041a.777.777 0 01-.066.068c-.044.04-.104.061-.14.111-.027.033-.033.042-.143.142l-.012.012-.02.017-.016.015-.02-.002c-.049-.002-.04.058-.064.084-.026.026-.057.045-.081.072-.008.009-.013.018-.02.028a.575.575 0 01-.147.157l.003-.013-.009-.003c-.038.018-.038.018-.057.009a.035.035 0 00-.006-.02l.006-.019c.017-.06-.16-.021-.163-.02-.02.012-.021.026-.025.06.002.05-.026.093-.034.14-.017.03-.288.288-.303.298l-.005-.007c.006-.02.006-.02-.07-.026zm3.61 4.242c-.007.01-.02.023-.028.033-.087-.03-.087-.03-.122-.025l.023.043-.011.04.03.03-.008.055c-.128.049-.072.184-.12.27a.192.192 0 01-.082.012 1.172 1.172 0 00-.082-.15c.034.084.034.084.037.124l-.003.024c-.015.037-.02.077-.03.115-.037.051-.038.115-.06.17a4.53 4.53 0 00-.047.06.121.121 0 01-.033-.068l-.033-.021c-.014.002-.031.007-.044.01l.003-.034a.898.898 0 01.006-.046l-.04.01c-.027-.06.012-.114.011-.17a3.452 3.452 0 00-.084-.01c.007-.081-.041-.16-.008-.241l.018-.069c-.036-.03-.045-.037-.107-.016a.243.243 0 01-.053-.063l-.077-.021c-.02-.265-.02-.265-.088-.32l-.037.012a.356.356 0 00-.013.088l-.035.022a.613.613 0 01-.026-.033.7.7 0 01-.04-.002c-.038.056-.036.068-.024.115.102.022.219.047.135.195-.077 0-.173 0-.16.138a.23.23 0 01.08.013s.021.154.029.251c.027.214.027.214.045.26a.783.783 0 01.062-.076l.06.021a.263.263 0 00.002.087.47.47 0 01.086-.018c.006.044-.004.088.008.131l.13.517c.008.091.004.094-.071.152-.002.072.032.141.02.216a.381.381 0 01-.083-.012c-.007.139.131.266.031.413-.04-.013-.058-.051-.088-.076-.013.103-.013.103-.03.139l-.036-.018c-.018-.067-.032-.124-.101-.217-.247-.212-.247-.212-.255-.266 0-.003-.057-.317-.268-.261-.012.003-.029 0-.04 0 0 .002.181.383.32.483.098.072.098.072.09.514.01.011.012.034.016.048l.008.043a.294.294 0 01-.077.032c-.04-.046-.04-.107-.06-.16-.002 0-.26-.044-.324-.152-.266-.339-.266-.339-.271-.338-.023.003-.05-.024-.064-.043a.255.255 0 01-.125-.012c-.042-.129-.273-.24-.145-.38a.42.42 0 00.082.004c.018-.079-.04-.131-.06-.197a.196.196 0 00-.08.01.798.798 0 01-.035-.019c-.047-.18-.047-.18-.075-.22.031-.15.038-.18-.001-.262l-.018-.01c-.081-.077-.081-.077-.092-.093-.04-.044-.04-.044-.117-.09l-.016.038.007.027a.264.264 0 01-.043.181l-.041.003a1.25 1.25 0 01-.06-.066l-.017-.011-.024-.018c-.172.158-.308.283-.453-.006-.023-.046-.023-.046.098-.243l.003-.009.002-.008.002-.008.003-.009.003-.009c0-.003.002-.005.003-.008l.002-.009.009-.034a.139.139 0 01.054-.063c.043-.097.043-.097.07-.12l.023.039.01.031.02.007.05.014h.006l.006.001.006.001h.006l.007.002h.012l.006.001h.026c.074.055.074.055.21-.053a.255.255 0 01.08.037c.052-.023.094-.072.158-.068.23.017-.031-.383.186-.464.074-.229.317-.332.395-.558.168-.487.07-.653.07-.655l-.04.008c-.098-.093.046-.2-.015-.295a.263.263 0 00-.077.01l-.001-.04.003-.028c-.018-.057-.018-.057.047-.171a.966.966 0 01-.016-.04c-.127-.036-.316.143-.353.18a.7.7 0 00-.04-.002.587.587 0 01.076-.17.153.153 0 01.053-.063c.013.006.028.016.041.018.184.033.216-.213 0-.414a2.47 2.47 0 01.048-.072.122.122 0 00-.039-.064l-.038.015.002-.042c.07-.2-.023-.427-.16-.392.04.191.04.191-.023.312-.105.202-.14.091-.182-.049-.05-.02-.11-.018-.151-.062l-.002-.001c.027.045.027.045-.006.159l-.02.04c-.028-.032-.043-.073-.079-.1a.15.15 0 01-.076.023l-.02-.034-.014-.012-.015-.01-.002-.018-.017-.004-.007-.013c-.131.003-.131.003-.22-.08-.054.008-.1.042-.154.05l.016-.079c-.051-.047-.051-.047.043-.246-.014-.002-.027-.004-.076.008-.044.018-.09.026-.135.044a.92.92 0 00-.037-.02c.026-.115.005-.234.032-.347l.003-.02c.013-.023.033-.051.047-.073a.15.15 0 01.09 0 .125.125 0 00.047.07.853.853 0 00.041-.011l.018-.011.02.002c.032-.065.032-.065.032-.199-.157-.117-.157-.117-.174-.158.063-.099.18-.156.208-.28l.008-.016v-.014c.018-.072.087-.1.127-.156l-.01-.013c.082-.123.182-.234.255-.365.13-.079.163-.107.217-.186l.005-.006.004-.007.005-.006.009-.013.005-.006.004-.007.026-.033c.424-.377.424-.377.743-.428l.022.026c-.098.234-.333.318-.497.478-.104.1-.166.16-.367.569-.17.322-.171.407-.174.548l-.006.02c0 .007 0 .016-.002.023-.088.079-.248.05-.288.201.097-.061.148-.042.193-.025a.29.29 0 00-.01.083c.003-.002.239-.407.236-.437a.9.9 0 01-.035-.024c-.002-.062.003-.076.029-.121.08-.096.192-.152.266-.254.104-.146.074-.345.18-.49.055.054.01.135.05.192l.027-.033c0-.068-.015-.137-.007-.205l.037-.026c.04.058.04.058.094.069l.02-.034c-.053-.053-.046-.118.023-.19.005 0 .01 0 .018.013l.016.042a.268.268 0 01.044-.074.49.49 0 00.03.014.911.911 0 00.011.045c.182-.226.186-.23.411-.24l-.215.341h.007l.006.016c-.005.104-.072.183-.102.277 0 .111-.083.253-.208.36-.01.093-.017.096-.066.118l-.01.044a.05.05 0 01.017.004c.18-.04.178-.252.306-.34-.027.082-.027.082-.019.117l.043-.003a.232.232 0 00-.012.082c.112-.09.134-.29.327-.28.027.037.027.037.143.038.027.065.027.065.061.103a.92.92 0 00-.02.09.072.072 0 00-.01-.005c-.002.052-.003.066-.053.161l.002.027.01.002.034.015.01.008.021.02c-.02.106-.118.156-.162.245l.014.04c.125-.124.125-.124.223-.102-.056.063-.158.083-.172.187l.03-.029.039.012c-.006.03-.012.07-.016.101l.038.004c.02-.077.02-.077.052-.107l.037.017.011-.02a.622.622 0 01.052-.076c.032.15.032.15.09.164.011.039.04.17-.07.23-.072.02-.072.02-.097.06l.015.047c.013.003.031.008.045.01.03-.027.057-.058.088-.085l.04.011.001.044-.02.06c-.057.08-.057.08-.07.112.01.008.021.02.03.03.033-.045.038-.053.115-.07a.519.519 0 01-.027.077.53.53 0 00-.041.072c.076-.078.076-.078.137-.08l.015.037.011.01c.029.037.074.053.102.09a.305.305 0 01-.03.08.78.78 0 00-.042.006h-.012l-.001-.002h-.002l-.021.013c-.043.065-.043.065-.127.1v.043a9.06 9.06 0 00.071-.042l.037.011c-.01.047-.01.047-.054.113l.03.028.039-.012c.045-.109.045-.109.087-.136.114.295.114.295.042.34h-.034c-.044-.004-.044-.004-.129.022h-.022l-.004-.001h-.004l-.027.006c-.017.069-.006.08.028.111l.006.01c.06 0 .06 0 .095.026.046.015.046.015.119.016h.002c.057.038.075.1.08.145a.426.426 0 01-.164.081c-.131-.092-.151-.107-.213-.06.072.084.072.084.086.13a.332.332 0 01-.074.044c.023.105.023.105.017.13a.187.187 0 01-.078.02c-.039.085.019.189.142.19h.016l.006.002h.017l.005.001h.023a.13.13 0 01.037.053l-.05.07.03.031.023.002.016-.011c.008 0 .016 0 .032.007a.623.623 0 01.006.083l-.007.03-.016.03c.013 0 .03.003.041.004.013-.01.113-.07.184-.024-.012.042-.04.077-.044.12.037.014.079.01.114.032.016.073.016.073-.01.327.06.041.13-.006.191.024.006.058-.048.1-.042.16.066.031.066.031.119.018.055.063.118.116.175.176v.042c-.003.014-.012.032-.017.045l-.015.004c-.065.076-.065.076-.055.189zm1.393-8.596l.014-.008.015-.007-.008.002.015-.007.011-.005.005-.003c.007-.004.073-.035.114-.05l.035-.016.02-.009.02-.009.023-.01.024-.01a.481.481 0 01-.03.013l-.001.001h-.002L32.24.91l.01-.005-.015.007-.013.005-.004.002.045-.02.017-.007.005-.002.01-.005.005-.001c.435.243.435.243 1.367 1.05a.732.732 0 00-.081-.1l.1.027c.188.12.188.12.226.16a1.201 1.201 0 01-.12-.05c.139.142.338.192.48.33.029.031.06.08.076.12-.063-.017-.124-.04-.187-.057l.01.067c.034.024.081.054.117.075l-.06.015c.095.136.23.275.232.276.05-.013.05-.013.228.115a.693.693 0 00.06-.019c.1.104.55.62.552.623-.059-.001-.059-.001-.31-.168l.008.064c.193.092.277.317.475.402l.02.003h.005l.01.006.008-.003c.189.068.26.294.26.297l.002.02-.053-.013c-.114-.102-.26-.153-.383-.24.082.353.245.4.54.487.022.043.022.043.059.181l-.044.043a.58.58 0 00.045.19l-.032.015-.023-.022c-.145-.092-.27-.215-.42-.3l.006.04c.018.141.013.266.013.267a.847.847 0 00-.102.085c.047.129.182.085.266.142a.336.336 0 01-.066.108.28.28 0 00.064.13l.058.023.048-.042.07.02c.04.086.035.187.093.266a.653.653 0 01.077-.098c.085.044.136.128.207.186l.058-.028.103.068c.193.356.554.6.65 1.02a1.32 1.32 0 00-.058.023c-.082-.064-.142-.153-.23-.209l-.042.055c-.406-.08-.497-.574-.872-.695l-.014.065c.13.12.356.11.414.325-.069.086-.183.1-.261.173.022.233.046.472.321.327l.026.064c-.119.15-.119.15-.105.222l.054.033c.649-.679.813-.119.815-.112l-.182.587c-.035.065-.047.09-.047.329-.048.047-.083.082-.227.119l-.477.371c-.219.013-.214-.231-.343-.321-.008.37.13.732.055 1.107-.04.2-.04.2-.422.723-.099-.04-.102-.165-.185-.22l-.063.019a4.64 4.64 0 00-.087.314c-.154.03-.154.03-.192.06-.009.1.022.2.004.3-.078.033-.17.006-.245.056.02.129.142.185.194.29-.025.076-.094.118-.14.179.086.325.077.382-.166 1.011.12.13.181.194.185.414.006.346-.155.662-.162 1.006a.42.42 0 00-.083.105c-.098.02-.158-.067-.24-.09-.034.024-.08.053-.117.073-.114-.106-.206-.543-.207-.548-.16-.046-.328.095-.483-.024-.004-.02-.007-.048-.01-.07-.148 0-.148 0-.184-.012-.148-.497-.501-.9-.626-1.409-.06-.245.108-.452.109-.687l-.054-.035c-.077.086-.098.212-.196.282-.015-.047-.375-1.176-.33-2.012l.008-.015v-.023l.006-.023v-.038c-.006-.09.06-.156.081-.238l-.06-.033.041-.047c.111.002.214.066.328.043h.017l.011-.013c.006-.025.014-.063.003-.087l-.011-.015-.01-.034c-.064-.013-.128-.008-.192-.018-.038-.212.207-.292.216-.483l.058-.019.047.04h.01a.21.21 0 00.024-.122l-.062-.007a1.275 1.275 0 00-.036-.054c.078-.202.109-.285.027-.448-.06-.12-.19-.037-.27-.102-.077-.063-.096-.164-.15-.241-.105-.012-.123-.04-.125-.18.108-.043.282-.036.495.24.08-.053.156-.103-.152-.58l-.07-.013c-.177-.37-.177-.37-.196-.372-.022.05-.053.117-.103.328l-.06.02c-.075-.125-.075-.125-.123-.167.111-1.668.168-2.505-.26-3.2l-.062-.007a.693.693 0 00-.042.05l-.043-.05c-.014.008-.014.008-.126.137a.402.402 0 00-.047-.126l-.06.03c-.002.038 0 .09.002.129l-.047.044c-.175-.197-.05-.32.082-.452a.319.319 0 00-.06-.108.527.527 0 00.02-.06c-.04-.08-.023-.191.164-.234l.041.047c.047-.013.047-.013.177-.078-.025-.096.053-.165.06-.252a1.084 1.084 0 00-.1.086l-.001-.062a.87.87 0 00-.077.115c-.012-.054-.012-.054.05-.188l-.04-.051c.183-.297.435-.537.633-.821l-.032.06c.037-.045.037-.045.176-.277h-.001l-.005.006-.003.003c-.003.002-.004.007-.008.007a.18.18 0 01.017-.016L32.23.95s-.045.044-.082.073c.007-.01.007-.01.07-.071-.046.034-.083.077-.124.114a.332.332 0 01.058-.06c-.091.072-.11.095-.12.107l.012-.006.009-.006v.001h.002l.013-.005c-.013.03-.041.049-.061.074l-.011.011a.326.326 0 01-.043.04.076.076 0 01.015-.024l.012-.013.041-.054c-.004 0-.004 0-.064.065l-.012.005h-.003l-.001-.001h-.001c-.013.004-.02.006-.077.063.023-.012.046-.022.068-.036-.015.028-.05.036-.063.066l.01-.005-.002.014-.005.007c-.064.082-.159.132-.22.216l-.013.045-.007.01a.421.421 0 01-.018.026c-.018.023-.044.037-.064.058l-.014.015-.023.02a.21.21 0 01.005-.03c-.002-.008-.004-.008-.005-.008-.014.008-.014.008-.037.03a.39.39 0 01.007.004h.004a.327.327 0 01-.01.03l.003.004v.004c-.012.05-.088.108-.095.106-.032.003-.043.05-.082.038l.006-.023v-.018c-.015.007-.015.007-.153.194l-.008.013c-.033.043-.074.078-.11.118l-.017.019-.017.02h-.005l-.01.01c-.032.03-.034.031-.058.043l-.004-.012a.251.251 0 01.007-.014c-.013-.003-.026.001-.039-.001-.004 0-.004-.002-.005-.002h-.011l-.002-.001h-.003a.071.071 0 00-.013-.002c.007-.037.036-.065.04-.103-.007.001-.024.003-.15.135a.21.21 0 00-.047.071c.073-.04.073-.04.1-.047l.007.001h.012c-.014.03-.041.05-.059.077.01-.004.01-.004.036-.028l.01-.005.015-.011a.093.093 0 01.029-.009.104.104 0 00.01.009.275.275 0 01-.07.083.21.21 0 00-.08.129.188.188 0 01.065-.046l.004.013-.028.044-.007.01-.002.003-.003.004-.003.004-.003.003-.003.004a.095.095 0 00-.002.004l-.003.003c-.026.037-.062.064-.093.096-.025.033-.045.06-.085.088l-.009-.01.022-.039c-.012.005-.02.008-.139.126l-.02.018c-.02.019-.02.019-.107.047l-.012.002h-.005l-.023.01.015-.018c.099-.116.099-.116.104-.134a.035.035 0 00-.014-.014V2.73c.02-.05.056-.091.072-.143-.061.056-.096.134-.154.19h-.009l-.013.001c0-.004 0-.004.058-.105l.012-.018-.002-.012c-.089.094-.089.094-.113.09.013-.043.045-.075.063-.115-.04.035-.047.117-.119.104 0-.008 0-.008.018-.052-.05.05-.03.168-.129.169l-.004-.002-.009.006c-.004-.016-.004-.016.004-.055l.003-.006.005-.009v-.007c0-.029 0-.029.033-.078l-.012-.007c-.022.012-.042.03-.067.039a.072.072 0 00-.011.005l-.005-.013a1.2 1.2 0 01.042-.059.111.111 0 00-.014.006c-.082.07-.087.07-.104.067.039-.093.136-.133.19-.213-.05.044-.092.096-.148.131l-.029.02-.015.008-.026.015a.461.461 0 00.061-.069c.018-.022.018-.022.027-.037l.01-.01c.023-.026.247-.203.294-.23.026-.017.05-.035.076-.051l.007.01-.017.029.009.003c.036-.019.061-.061.11-.056.055-.05.055-.05.056-.07h-.005l.04-.032c.037-.025.037-.025.047-.038l-.013-.001a.03.03 0 00-.013.003c.078-.15.293-.267.364-.305l.006.012c-.06.072-.127.137-.189.208l-.017.016c-.007.008-.007.008-.032.06a.056.056 0 00.025-.007.254.254 0 01-.028.034c.024-.005.034-.034.06-.034l-.001.024a.042.042 0 00.023 0c.019-.064.07-.09.119-.116a.214.214 0 01-.089.02v-.001c.002-.006.002-.006.063-.066l-.012.002c.002-.029.07-.077.1-.098l-.012-.005a2.42 2.42 0 01.133-.117l-.001.012c.004 0 .01-.001.013-.003l.006-.008c.014-.018.014-.018.187-.156 0-.001.072-.058.094-.079-.271.197-.271.197-.277.196a.172.172 0 01.038-.044.085.085 0 01-.028.012l-.012.008-.03.014c.024-.041.095-.03.1-.09.079-.06.24-.186.47-.323.025-.017.055-.028.082-.042-.006.01-.012.02-.041.055-.056.046-.121.12-.121.12l-.012.01c.063-.021.092-.087.143-.124v.006l-.008.006a.073.073 0 01-.006.01.506.506 0 00.093-.07c-.016.008-.03.02-.048.024a.285.285 0 01.084-.09l.011-.008.023-.017.012-.008c-.013.015-.03.026-.04.043.023-.012.052-.04.064-.051l.019-.014.004-.004a.885.885 0 01.07-.05.097.097 0 01-.013.006c.031-.024.066-.045.097-.068l.017-.011.08-.052.013-.008a4.591 4.591 0 01.135-.083l-.012.007a1.124 1.124 0 00-.032.018l-.007.004-.018.01-.096.057c.025-.013.048-.028.071-.042L32.22.93l.016-.009-.07.042-.008.006-.01.006-.014.008-.122.081-.025.016-.015.01-.015.009-.03.02-.018.011-.045.023c-.052.03-.103.067-.156.097l-.007.004-.005.003.017-.012.02-.013.01-.007.006-.005a.311.311 0 00.026-.02l-.007.005-.003.002-.002.002-.003.001-.003.003-.002.001a.01.01 0 00-.003.002c-.002 0-.003.001-.003.002l-.012.008-.014.01-.062.041-.08.052-.043.028-.02.013-.022.015-.03.019.02-.016.03-.023.01-.007.076-.054.005-.003.006-.004.006-.004a.023.023 0 00.005-.004l.005-.003.006-.004.005-.003.005-.004.004-.002.002-.002.004-.002.003-.002.003-.002s.001-.002.003-.002l.003-.002.003-.002.043-.03.011-.008-.018.012-.013.008-.01.007-.017.01-.018.012-.01.006-.007.004-.012.008-.01.007-.036.023-.018.013-.037.026c-.032.022-.063.047-.096.07l-.017.014-.013.01-.027.019-.013.01a.057.057 0 00-.009.006l-.01.006-.01.007a.062.062 0 01-.005.004c.024-.026.054-.043.08-.067l.006-.006.01-.009.02-.013-.017.01-.02.014-.009.006-.009.007-.005.004-.013.01c-.022.015-.042.032-.062.048l-.015.01c-.073.056-.073.056-.18.13l-.017.011-.015.01a.089.089 0 01.013-.014l.016-.013.015-.012.012-.01.017-.014.009-.007a.046.046 0 01.006-.005l.006-.004c.013-.011.027-.02.04-.032l.013-.01.01-.01a1.46 1.46 0 01.086-.07c-.002 0-.003.001-.005.003l-.004.002-.004.004a.221.221 0 00-.014.008l-.004.004a.993.993 0 00-.122.095l-.023.016a.204.204 0 01-.028.021l-.01.01-.016.012-.005.004-.007.005-.003.004-.022.015-.017.015c.012-.036.05-.045.074-.07l.007-.006a.037.037 0 00.009-.013h-.015l-.01.01-.011.01c-.014.012-.025.025-.038.035a.234.234 0 00-.014.011l-.007.005a.222.222 0 01-.035.025h-.005l-.001-.003-.002-.001.005-.004h-.002a.04.04 0 00.005-.012l.004-.007-.007-.002h-.002v-.006L31 1.643c0-.002-.002-.002-.003-.002.004-.01.005-.01.05-.042l.018-.013.002-.002v-.001l.005-.006.013-.01.008-.007c.001-.002.101-.09.123-.076a.13.13 0 00.018-.006l.013-.007.012-.005a.121.121 0 00.015-.006l.011-.01a.373.373 0 00.037-.035l.006-.006h-.003a.078.078 0 01-.02.007l.002-.003.01-.007.02-.012a.335.335 0 01.022-.013l.014-.012.016-.01.02-.013a.048.048 0 01.011-.006l.01-.007.023-.013-.002.003v.002l-.008.006-.011.01.04-.022.015-.01.023-.018-.006.002.017-.013.006-.005.015-.008.058-.034.01-.006c.034-.02.068-.035.102-.052l.015-.007.015-.008.016-.008.046-.02.008-.003.022-.009h.007c.014-.007.03-.012.044-.017l.009-.006.007-.002.005-.002.02-.012a.042.042 0 00.01-.01l-.03.015-.006.003h-.002l-.004.002-.007.002.005-.005.002-.002.018-.01.02-.01.003-.001.008-.004.004-.002.008-.003a.023.023 0 01.011-.003l.01-.005.015-.008v-.003h-.002a.293.293 0 01.027-.015l.02-.01.007-.003a.042.042 0 00-.014.006c-.018.007-.034.016-.052.025l-.005.002-.006.002.03-.016-.018.009-.02.009-.008.004-.01.005-.022.011-.034.017.023-.014.015-.007c.034-.018.07-.03.102-.051l.01-.005.003-.002-.011.005-.022.011-.022.01a2.567 2.567 0 01-.08.038l-.02.009-.005.003c.032-.018.064-.033.097-.049l.015-.006zm19.611 17.92l.007-.018c.398-.118.25-.58.482-.801l.072.098.1-.006.058.086c.027.024.084.011.12.011.12-.443.322-1.185-.524-1.451a2.585 2.585 0 00-.11-.192c.029-.117.029-.117.004-.442l.001-.001h.001l.002-.034a1.437 1.437 0 00-.13-.184c.045-.097.072-.156-.037-.309-.133.482-.13.596-.122.87l-.081-.076-.018.106a.683.683 0 01-.195.056l-.032-.11a5.241 5.241 0 01-.102-.005c-.07.34.096.672.032 1.011-.01-.03-.02-.072-.03-.103.003.372.157.725.138 1.1-.001-.003-.002-.005.038.043.185.311.185.311.247.336v.053l.079-.038zm-1.342.622c-.128-.373-.298-.686-.774-.628-.06-.075-.347-.494-.423-.616a.77.77 0 00-.113.174c-.117-.227-.117-.227-.168-.263-.267.442.158.876.698 1.426a.372.372 0 01.188-.067c.01.081.058.141.12.19l.472-.216zm-1.052.48c-.039-.01-.074-.04-.158-.113l.004.012a.598.598 0 00-.119-.116l-.026-.04c-.685-.734-.685-.734-.715-.744-.075.057-.075.057-.13.278-.134.119-.155.307-.26.444 0 0-.196-.01-.433-.046-.036.02-.036.02-.073.616.075.24-.067.46-.226.668a272.74 272.74 0 002.136-.96z" fill="url(#paint1_linear)"/><path fill-rule="evenodd" clip-rule="evenodd" d="M49.956 20.087a174.846 174.846 0 003.651-2.289 22.544 22.544 0 00-1.36-4.21l-4.392 1.025 4.22 1.892C36.482 23.7 19.88 29.583 12.323 29.877c-.21.008-.424.009-.636 0a22.41 22.41 0 001.261 3.026c8.042-1.017 22.863-6.346 37.008-12.816z" fill="#4F5F6B" fill-opacity=".502"/><path fill-rule="evenodd" clip-rule="evenodd" d="M9.324 25.485C5.925 27.956-.13 32.675.02 36.115c.106 2.453 3.25 3.743 6.713 3.682 10.397-.185 29.925-9.092 45.552-19.167l.883 3.694 8.926-10.508-15.572 3.635 4.22 1.891C35.15 26.54 18.548 32.423 10.99 32.716c-1.875.073-3.932-.452-4.016-2.39-.065-1.494 1.714-3.717 2.35-4.841zm28.154.763a64.497 64.497 0 003.538-1.729 708.55 708.55 0 01-3.574 1.338l.036.391zm-1.613.716a86.47 86.47 0 001.096-.482l-.04-.432-1.102.406.046.508zm-1.855.786c.454-.188.9-.375 1.337-.562l-.05-.542c-.437.16-.88.322-1.325.483l.038.621zm-2.305.928c.603-.237 1.198-.475 1.78-.712l-.039-.648c-.582.21-1.17.42-1.762.628l.02.732zm-3.152 1.192c.843-.308 1.68-.622 2.5-.938l-.022-.756a258.5 258.5 0 01-2.51.866l.032.828zm-4.097 1.424c1.15-.38 2.304-.778 3.446-1.189l-.032-.844c-1.127.378-2.251.745-3.359 1.094l-.055.939zm-5 1.53c1.355-.38 2.756-.804 4.17-1.26l.055-.952c-1.43.44-2.826.846-4.164 1.202l-.062 1.01zm-5.636 1.344a63.78 63.78 0 004.75-1.102l.063-1.021c-1.64.416-3.177.75-4.554.97l.04.044-.299 1.109zm-5.704.399c.335.052.684.083 1.043.091.935.023 2.06-.072 3.327-.263l.323-1.205c-.834.095-1.593.136-2.26.116a8.766 8.766 0 01-1.954-.259l-.479 1.52zM6.73 28.535c-.641.345-2.286 1.698-2.275 3.048.01 1.21.997 2.182 2.463 2.69l.533-1.685c-.88-.515-1.324-1.288-1.323-2.27.002-.545.19-1.207.602-1.783z" fill="url(#paint2_linear)"/><path d="M.49 51.42v-1.836h7.694c.48 0 .85-.125 1.109-.375s.388-.583.388-.997c0-.453-.13-.793-.388-1.02-.259-.226-.628-.339-1.109-.339H3.47a3.64 3.64 0 01-1.306-.224 2.83 2.83 0 01-.989-.621 2.736 2.736 0 01-.62-.947 3.21 3.21 0 01-.22-1.2c0-.423.068-.816.205-1.177.136-.361.34-.672.607-.932.268-.26.6-.465.995-.614a3.81 3.81 0 011.356-.224h7.37v1.835h-7.37c-.414 0-.735.113-.96.34-.226.226-.339.541-.339.946 0 .405.115.718.346.94.23.221.543.332.939.332h4.701c1.046 0 1.839.25 2.38.752.541.5.811 1.262.811 2.283 0 .443-.066.852-.197 1.228-.132.376-.33.701-.593.975a2.704 2.704 0 01-.995.644c-.4.154-.869.23-1.406.23H.49zm24.807 0l-1.962-7.385-2.91 6.835a1.435 1.435 0 01-.373.514.825.825 0 01-.543.18c-.424 0-.73-.23-.919-.694l-2.894-6.835-1.963 7.385h-1.765l2.64-9.885c.123-.5.42-.752.89-.752a.983.983 0 01.904.622l3.163 7.428 3.163-7.428c.168-.414.456-.622.86-.622.434 0 .721.251.862.752l2.626 9.885h-1.78zm13.667 0l-1.538-2.645h-4.857l.847-1.488h3.148l-2.287-3.93-4.66 8.063H27.57l5.902-10.058c.104-.183.226-.328.367-.434a.821.821 0 01.508-.159.79.79 0 01.502.16c.137.105.256.25.36.433l5.916 10.058h-2.16zm12.793 0l-2.598-2.92h-3.84v-1.618h4.277c.65 0 1.139-.18 1.468-.542.33-.361.495-.883.495-1.568 0-.684-.172-1.191-.515-1.524-.344-.333-.827-.499-1.448-.499h-5.591v8.67h-1.779V40.915h7.37c.584 0 1.106.09 1.568.267.46.178.851.434 1.172.767.32.331.565.734.733 1.206a4.68 4.68 0 01.255 1.59c0 .877-.186 1.61-.558 2.203a3.132 3.132 0 01-1.56 1.28l3.092 3.193h-2.541zm6.537 0v-8.67h-3.897v-1.836h9.587v1.835h-3.897v8.67h-1.794z" fill="url(#paint3_linear)"/><path d="M8.184 59v-5.687h5.676v1.074H9.512v1.245h4.211v.992H9.512v1.302h4.348V59H8.184zm8.245-5.687h-1.801l2.56 2.763L14.316 59h1.951l1.971-2.245L20.208 59h1.953l-2.873-2.924 2.56-2.763h-1.8l-1.81 2.073-1.81-2.073zM22.639 59v-5.687h3.788c.358 0 .66.038.902.111.244.072.444.187.598.344.155.156.268.36.342.61.073.252.11.56.11.928-.002.48-.069.867-.202 1.163-.133.295-.34.51-.625.648-.283.135-.654.203-1.11.203H23.97V59h-1.33zm1.33-2.81h2.218c.22 0 .393-.03.52-.092a.516.516 0 00.266-.285c.052-.126.078-.296.078-.509 0-.298-.062-.516-.184-.654s-.349-.206-.68-.206H23.97v1.745zm6.428-1.746v1.737h2.778c.279 0 .475-.067.587-.2.111-.134.17-.357.173-.668 0-.312-.055-.534-.164-.668-.11-.134-.308-.2-.596-.2h-2.778zM35.368 59h-1.337v-.884c0-.282-.081-.488-.244-.614-.162-.128-.432-.19-.81-.19h-2.572V59h-1.337v-5.687h4.22c.309 0 .582.03.818.09.235.06.44.164.614.312.172.147.306.351.401.613.096.262.143.591.143.986 0 .393-.072.7-.217.923a1.831 1.831 0 01-.592.559c.24.094.411.168.513.22a.768.768 0 01.277.274c.082.13.123.306.123.53V59zm.887 0v-5.687h5.678v1.074h-4.349v1.245h4.21v.992h-4.21v1.302h4.349V59h-5.678zm10.952-5.687c.445 0 .809.058 1.088.173.28.114.485.289.614.526.131.236.196.538.196.906h-1.329c-.013-.188-.063-.325-.151-.407-.09-.084-.266-.124-.53-.124h-2.233c-.428 0-.642.197-.642.59 0 .237.054.393.161.468.107.075.267.113.48.113h2.426c.352 0 .636.018.852.054.216.035.4.109.552.221.153.112.268.283.345.511.078.229.116.538.116.927 0 .403-.065.732-.195.986a1.19 1.19 0 01-.605.563c-.274.12-.632.18-1.072.18h-2.684c-.469 0-.84-.058-1.112-.172a1.1 1.1 0 01-.584-.526c-.117-.236-.176-.541-.176-.916h1.36c0 .143.063.269.191.378a.7.7 0 00.466.162h2.225c.297 0 .516-.05.656-.15.14-.1.21-.262.21-.487a.817.817 0 00-.072-.364c-.046-.094-.137-.166-.27-.217a1.659 1.659 0 00-.564-.076h-1.969a5.75 5.75 0 01-.982-.07 1.437 1.437 0 01-.624-.251 1.03 1.03 0 01-.349-.518c-.073-.224-.11-.514-.11-.874a2.1 2.1 0 01.116-.737c.077-.204.197-.37.36-.497.164-.128.374-.221.631-.281.258-.06.574-.09.95-.09h2.258zm7.18 0c.446 0 .809.058 1.09.173.278.114.484.289.613.526.13.236.196.538.196.906h-1.329c-.013-.188-.064-.325-.152-.407-.089-.084-.265-.124-.53-.124h-2.232c-.428 0-.642.197-.642.59 0 .237.054.393.16.468.108.075.268.113.48.113h2.426c.353 0 .637.018.853.054.216.035.4.109.553.221.151.112.266.283.344.511.077.229.116.538.116.927 0 .403-.066.732-.195.986-.13.255-.33.442-.606.563-.273.12-.63.18-1.071.18h-2.684c-.469 0-.84-.058-1.112-.172a1.1 1.1 0 01-.584-.526c-.117-.236-.177-.541-.177-.916h1.36c0 .143.064.269.192.378a.7.7 0 00.466.162h2.225c.297 0 .515-.05.656-.15.14-.1.21-.262.21-.487a.817.817 0 00-.072-.364c-.047-.094-.137-.166-.27-.217a1.655 1.655 0 00-.563-.076h-1.97a5.72 5.72 0 01-.982-.07 1.444 1.444 0 01-.625-.251 1.034 1.034 0 01-.348-.518c-.073-.224-.11-.514-.11-.874a2.1 2.1 0 01.116-.737c.077-.204.197-.37.36-.497.164-.128.373-.221.631-.281.258-.06.574-.09.95-.09h2.257z" fill="url(#paint4_linear)"/><path fill-rule="evenodd" clip-rule="evenodd" d="M45.814 30.951c-.234 0-.256-.1-.524-.1.1-.153.298-.155.38-.316.214-.417-.056-1.191-.576-1.191-.428 0-1.45.59-1.897.837-.275.152-.333.07-.701-.02l-3.647-.888c-.25-.054-.467-.122-.736-.183l-.897-.217-.02-.007-1.205-.284a3.667 3.667 0 01-.32-.077c-.109-.032-.248-.052-.366-.09-.243-.077-.499-.108-.74-.18-.255-.075-.702-.17-.803-.157-.255.032-.622.21-.837.228v.1c.246.059.715.3.968.416.458.21 1 .486 1.457.652l.73.325c.105.046.148.073.247.114l4.03 1.8c.08.04.048.022.142.057.096.036.167.077.244.119-.02.09-.057.222-.009.31.038.069.194.134.279.15.12.025.44.008.581.008l.327.502c-.092.063-.19.104-.3.163-.31.167-.627.282-.93.454-.104.06-.193.103-.3.16-.112.06-.198.092-.309.154l-3.133 1.58c-.094 0-.1-.02-.185-.044a3.132 3.132 0 00-.216-.047l-.408-.119c-.126-.029-.299-.057-.435-.09l-2.354-.503c-.1 0-.05.02-.161.07-.127.057-.401.199-.494.298.023.086.053.11.096.17.073.096.063.07.152.145.1.086.055.077.137.161.076.078.085.049.162.137.15.171.476.452.565.626l-1.355-.252a8.072 8.072 0 00-1.523-.183c-.24 0-.466.24-.72.3.016.195.22.175.372.223.108.034.114.049.207.09l1.188.391c.104.032.111.05.211.085.09.032.179.055.25.078l.94.312c.074.022.148.061.21.085.083.032.175.058.254.077v.066c-.108.03-.491.389-.491.503 0 .435.511.22.727.175l.58-.109c.082 0 .144.063.193.106l.477.482.017.016.309.32c.147.196.381.425.642.318l.023-.011.38-.181c.092-.052.105-.103.117-.215.017-.153-.02-.42-.033-.598a4.212 4.212 0 00-.096-.572c.45-.038 1.765-.322 2.254-.438.078-.019.174-.04.24-.055a1.69 1.69 0 00.44-.153l.389-.205c.317-.194.68-.335 1.012-.504l1.22-.593c.207-.116.421-.21.663-.26.32-.066.673-.116 1-.214.315-.093.547-.217.84-.348.163-.074.253.032.428.078.208.055 1.296.343 1.425.417.339.193.765.763 1.085 1.033a.719.719 0 01.144.153c.132.174.314.263.465.429.03.034.05.06.077.088l.692.7c.18.157.426-.055.614-.127.266-.101.203-.155.203-.155l-.335-2.457c.283-.067.526-.217.777-.343.136-.068.242-.118.363-.197a.413.413 0 00.191-.286c.016-.082.01.12.01-.045 0-.33-.145-.77-.523-.77-.366 0-.73.295-1.014.302l-.117-.885c-.108-.512.048-.414.442-.624.114-.061.125-.076.268-.128.143-.05.163-.089.281-.147l.986-.464c.051-.022.101-.039.162-.069a11.5 11.5 0 00.26-.134c.108-.059.185-.082.298-.13l1.974-.96c.097-.055.195-.094.287-.142l.584-.273c.459-.204.888-.492 1.312-.767l.475-.385c.121-.12.314-.25.433-.393l.2-.23c.166-.221.3-.456.3-.73 0-.362-.636-.49-.944-.541-.453-.077-.878-.063-1.346-.063-.163 0-.23.04-.364.063l-.679.176-2.805 1.346c-.48.268-.994.468-1.476.733-.114.063-.196.075-.303.126l-1.428.715c-.105.053-.175.095-.286.142-.11.047-.202.072-.3.128l-1.747.857z" fill="url(#paint5_linear)"/></g><defs><linearGradient id="paint0_linear" x1="22.585" y1="1.647" x2="42.136" y2="30.487" gradientUnits="userSpaceOnUse"><stop stop-color="#fff"/><stop offset=".29" stop-color="#FBFCFC"/><stop offset=".612" stop-color="#ABB3B9"/><stop offset="1" stop-color="#4F5F6B"/></linearGradient><linearGradient id="paint1_linear" x1="31.502" y1="32.552" x2="31.502" y2="0" gradientUnits="userSpaceOnUse"><stop stop-color="#012B5B"/><stop offset=".58" stop-color="#012B5B"/><stop offset=".851" stop-color="#063F6B"/><stop offset="1" stop-color="#24B6CD"/></linearGradient><linearGradient id="paint2_linear" x1="62.05" y1="26.129" x2=".057" y2="27.426" gradientUnits="userSpaceOnUse"><stop stop-color="#1C90E3"/><stop offset=".2" stop-color="#319AE4"/><stop offset=".322" stop-color="#88C5E8"/><stop offset=".471" stop-color="#8DC0DD"/><stop offset=".569" stop-color="#7A909C"/><stop offset=".678" stop-color="#6F7275"/><stop offset=".851" stop-color="#383D41"/><stop offset="1" stop-color="#252B30"/></linearGradient><linearGradient id="paint3_linear" x1="32.159" y1="51.565" x2="32.159" y2="40.769" gradientUnits="userSpaceOnUse"><stop stop-color="#023773"/><stop offset=".259" stop-color="#012B5B"/><stop offset=".502" stop-color="#1487C0"/><stop offset=".78" stop-color="#012B5B"/><stop offset="1" stop-color="#012B5B"/></linearGradient><linearGradient id="paint4_linear" x1="32.281" y1="59" x2="32.281" y2="53.313" gradientUnits="userSpaceOnUse"><stop stop-color="#2D3236"/><stop offset=".271" stop-color="#3D4245"/><stop offset=".51" stop-color="#6E7880"/><stop offset=".761" stop-color="#3D4245"/><stop offset="1" stop-color="#2D3236"/></linearGradient><linearGradient id="paint5_linear" x1="53.154" y1="28.36" x2="34.386" y2="37.246" gradientUnits="userSpaceOnUse"><stop stop-color="#384047"/><stop offset=".58" stop-color="#283139"/><stop offset=".831" stop-color="#3C4651"/><stop offset="1" stop-color="#7E868D"/></linearGradient><clipPath id="clip0"><path fill="#fff" d="M0 0h64v59H0z"/></clipPath></defs></svg>