<svg width="64" height="59" fill="none" xmlns="http://www.w3.org/2000/svg"><g clip-path="url(#clip0)"><path fill-rule="evenodd" clip-rule="evenodd" d="M32.258 0c10.592 0 19.42 7.731 21.39 17.98-15.21 7.241-32.01 13.464-40.768 14.572a22.638 22.638 0 01-2.425-10.237C10.455 9.991 20.217 0 32.258 0z" fill="#2D3236"/><path d="M28.878 21.231a.057.057 0 00-.005.007.034.034 0 00-.004.006c-.164.215-.271.148-.293-.029l.302.016zm-8.102 9.603c-.426-.41-.48-.375-.769-.187-.066-.04-.13-.085-.198-.122l-.033-.027c-.535-.324-.535-.324-.71-.46l-.023-.018c-.093-.1-.181-.197-.402-.326-.049-.04-.101-.077-.151-.116l-.026-.03-.028-.012a1.392 1.392 0 01-.187-.13c-.142-.232-.402-.38-.447-.679l-.002-.04.008-.077c.042-.111.042-.111-.822-1.917l-.08-.012c-.054-.053-.051-.102-.047-.184l.008-.029a.314.314 0 01.051-.111l-.059-.049-.052-.013c-.001-.003-.229-.419-.328-.676-.177-.46-.137-.997-.472-1.4-.023 0-.054 0-.077.002l-.002-.001h-.001v-.001h-.003l-.025-.013a.337.337 0 00-.11-.11c-.018.878.473 1.61.675 2.425l.026.037c.358.899.358.899.324 1.108l-.03-.008c-.293-.556-.32-.594-.473-.8-.038-.068-.066-.116-.038-.31v-.042s-.155-.37-.254-.507l-.031.077h-.001c-.127-.21-.127-.21-.182-.274-.054-.196-.054-.196-.02-.273h.078c.186-.476-.273-.769-.317-1.179-.07-.089-.167-.56-.168-.608l-.007-.032-.004-.034c-.096-.453-.465-.776-.558-1.23l-.008-.036-.013-.038-.004-.044c-.017-.08-.034-.163-.054-.243-.079-.328-.079-.328-.062-.402l.014-.095c-.041-.26-.041-.26-.094-1.216l-.006-.068c-.037-.13-.037-.13-.05-.156-.006-.058-.009-.083.082-.214.023-.034.034-.05.073-.266.048-.272.02-.327.009-.351-.005-.01-.017-.031.005-.155a.648.648 0 01.015-.072c.045-.175.154-.319.216-.485.024-.074.033-.151.064-.223.02-.05.064-.084.08-.135.13-.415.131-.46.133-.498a.124.124 0 01.02-.074c.012-.018.03-.031.035-.053.01-.032-.01-.062-.008-.094.003-.045.028-.085.034-.13.011-.078.071-.136.084-.214-.02-.111.132-.211.03-.322-.026-.03.006-.11.054-.114.04.02.055.063.088.088-.136.392-.262.789-.38 1.187.122-.398.26-.79.428-1.173l.074.02c.003.031.003.031-.02.25.072-.035.072-.035.168-.258l.01-.06c-.012-.018-.03-.043-.041-.062.05-.13.018-.27.048-.401a.344.344 0 01-.049-.158c-.007-.002-.023-.017-.026-.009.01-.257.01-.257.022-.319-.137-.217-.137-.217-.242-.192l.081-1.183c.07-.261.088-.535.178-.791l-.005-.019c-.015-.17.202-.23.182-.403a2.74 2.74 0 00-.066.037 2.44 2.44 0 00-.05-.04c.046-.044.108-.069.144-.126a1.268 1.268 0 00-.036-.051l.012-.067-.038-.056a.643.643 0 00-.019-.028c.11-.154.11-.154.113-.169a.73.73 0 01-.066-.004c.003-.007.003-.007.13-.157.042-.122.042-.122.052-.25l-.006-.02a.3.3 0 00-.02-.127c.008-.112.118-.18.122-.295-.007-.003-.013-.008-.01-.038l.022-.036s.07-.141.132-.312c-.061-.117.046-.211.043-.32a.273.273 0 01-.114.05c.023-.087.077-.162.091-.251l-.06.003c-.074.159-.074.159-.148.25l-.058-.024c.152-.416.152-.416.316-.658l-.012-.064c-.127.126-.127.126-.2.174.02-.099.055-.235.11-.323a2 2 0 01.086-.095c.008-.01.016-.022-.007-.052a.184.184 0 01-.12.009c-.003-.02-.006-.048-.01-.068l.004-.018c.005-.06.027-.117.017-.179a1.95 1.95 0 00-.066.009c.006-.039.006-.039-.046-.177l.056-.117-.043-.017c.02-.102.112-.183.084-.299.096-.081.096-.081.123-.144l-.068.014.005-.062-.043-.002a.879.879 0 00.074-.113c-.064.038-.088.053-.18.201-.025.016-.054.04-.077.057l.021.03c-.054.059-.054.059-.147.13l.007.063-.054.05-.077.054-.025-.06c-.059.016-.059.016-.18.114l-.022.011c-.086.013-.135.093-.212.121h-.001V9.82h-.002v-.002l-.005-.01.015-.02.024-.035.028-.075.033-.041c.07-.013.07-.013.119-.085a1.916 1.916 0 01-.014-.062c.492-.473.492-.473.547-.497a.582.582 0 00.023.124c.068-.089.068-.089.06-.177.06-.06.144-.09.196-.16a.822.822 0 00-.119.036c.198-.195.198-.195.218-.22-.004.002-.782.63-.88.738h-.001v-.002s-.002 0-.034.022c-.085.09-.085.09-.152.111h-.007c-.77.773-.77.773-.786.775-.15.202-.167.206-.248.223l-.016.018c-.097.136-.248.214-.355.34.015-.036.037-.086.055-.121-.06.035-.11.083-.165.122.006-.017.015-.04.02-.058-.116.126-.116.126-.14.146l.022-.059-.016.018-.054.035c.064-.116.064-.116.119-.156l.02-.016c.042-.05.1-.084.146-.132l.061.005c.154-.183.23-.236.28-.272l.017-.012c.16-.105.758-.799.763-.805a.446.446 0 01-.114.011l.026-.065c-.05.042-.09.092-.14.135.068-.104.068-.104.108-.185l-.003-.008a.683.683 0 00.027-.08l.006-.007.006-.009.007-.007.006-.008.006-.008c.003-.003.005-.005.006-.008l.007-.008c.002-.003.004-.005-.008-.03-.065.076-.084.077-.156.084a.511.511 0 00.088-.093c.002-.002.415-.492.49-.63-.026.029-.06.066-.087.093l-.018.02-.025.025-.043.033v-.003l.006-.022c.077-.387.443-.557.62-.87.04-.054.1-.086.144-.136l-.014-.04c.295-.293.715-.396 1.009-.693l.017-.016a.378.378 0 01.017-.016.173.173 0 01.017-.016l.017-.016.017-.016.017-.017.017-.016.035-.032c.096-.093.207-.167.297-.268l-.006-.03c-.062.024-.117.061-.176.093a.418.418 0 00.065-.106.21.21 0 00-.092.018c.012-.02.012-.02.123-.155l-.037-.007c.015-.019.064-.076.307-.301.412-.387.412-.387.55-.466l.004.002.02-.012.043.006a.685.685 0 01.247-.106l-.014.02c-.238.229-.238.229-.258.287l-.009.012c-.011.025-.033.053-.049.075l.016.005c.164-.11.164-.11.192-.157l.062-.01-.028.065h.063l.061-.049.02-.023.038-.07c-.017-.01-.04-.021-.058-.03.067-.063.14-.12.2-.188v-.012l-.033-.012c.123-.136.266-.253.396-.382l.032-.03c.484-.446.484-.446.783-.618l.043.045c.263-.07.47-.255.72-.358v.001l.018.012c.179-.137.217-.144.285-.159v.005l.001.002v.01l.002.002c0 .002 0 .002.043 0 .036-.014.085-.03.122-.04a2.064 2.064 0 00-.103.076c.399-.214.399-.214.433-.213a2.074 2.074 0 00-.116.069l.033.005c.061-.018.114-.034.258-.092l.195-.085-.053.072-.022.017a1.295 1.295 0 01-.11.072l-.032.013-.006-.003c-.178.082-.181.092-.213.169.325-.192.325-.192.338-.198l-.003.031c-.19.13-.19.13-.206.18l.058.03c-.258.198-.258.198-.286.253.026.027.06.065.084.093-.141.269-.141.269-.207.403.037.004.086.007.123.007.02.01.025.045.03.067-.156.175-.156.175-.165.195l.066-.015c-.227.371-.347.626-.356.758l.05.038a.627.627 0 00-.023.138l.047-.05.018-.022c.033-.031.033-.031.115-.136l.04-.034c.43.1.674-.405 1.09-.353-.074.057-.398.199-.507.243-.256.08-.315.138-.353.19.217-.113.217-.113.29-.129-.039.054-.085.1-.122.155.532-.28.532-.28.596-.254.058-.034.112-.072.17-.106l.014.001c.116-.054.184-.17.287-.24l.053.035-.025.026c-.193.225-.513.333-.584.671.271.005.338-.302.554-.382a.218.218 0 01-.062.105l-.014.013a.193.193 0 00-.013.012l-.013.011-.014.012a.112.112 0 01-.014.012l-.012.012-.014.013c-.005.003-.008.007-.056.052-.027.121-.15.146-.219.227l.057.024c-.08.075-.158.153-.237.23a5.25 5.25 0 00.278-.24c.119-.062.212-.177.357-.185.001 0 .03.282.039.456l-.007.017c-.024.238.211.188.222.185-.05.34-.453.413-.527.735.179.133.179.133.29.135h.004v.001h.002l.008.003.076.007.004.002.004.001h.004c.001.002.003.002.004.002l.004.002h.005l.004.002h.004l.016.008c.082-.009.158-.047.239-.058a.281.281 0 01-.045.156l.027.079c-.013.024-.03.057-.044.08l.067-.042c-.022.078-.056.15-.078.228l-.011.077a.834.834 0 00-.125.122 2.2 2.2 0 01.024.078c.19-.112.335-.538.34-.557.092-.27.397-.165.55-.329a.304.304 0 00.065-.141 1.803 1.803 0 00-.144.058c-.154.094-.154.094-.244.082l-.024-.074c.003-.003.324-.245.591-.232-.037.15-.185.254-.165.427a1.028 1.028 0 00-.065.128c.036.03.087.065.127.09l.065-.026.044.064a.286.286 0 00-.004.157c.128.034.261.027.39.056l.008.089.051.006c.029-.036.029-.036.114-.221l.079-.012c-.048.154-.048.154-.046.23l.001.017-.008.017.093-.018a.441.441 0 00.053-.159l-.065-.04c.023-.184.196-.303.23-.325l.058.053c-.008.215-.008.215-.018.235l.077-.017c-.064.188-.24.3-.307.486l.076.003.022.076.05-.06.008-.026c.006-.01.012-.02.035-.072.009-.023.02-.055.03-.078l.018-.02.026-.043c.082-.143.082-.143.143-.205l.065.041c.194-.098.194-.098.243-.184l.02-.019c.127-.144.127-.144.14-.166.014-.033.007-.083 0-.117a.263.263 0 01-.13.07.536.536 0 01.1-.123l.018-.022c.126-.155.126-.155.17-.182l.012.012.022.007a.26.26 0 00.056-.144h-.077c-.166-.357.057-.56.153-.646.087-.092.087-.092.153-.217l.028-.043c.053-.068.548-.576.678-.655l.019.01a.846.846 0 01-.036.155l.075-.02.007.01c0 .001-.117.276-.212.437l-.01.015a.239.239 0 00-.018.028.14.14 0 00-.01.013l-.01.014-.009.014a1.13 1.13 0 01-.009.014l-.045.078c-.003.139-.07.264-.073.402l-.01.03-.012.031h-.007a.491.491 0 01-.149.008c.013.059.013.059-.15.24l.026.048c.023.005.053.01.075.016.037.085.046.106-.04.22h-.009l-.018.005c-.066.189-.144.443-.143.575.164-.15.24-.374.41-.52l.039.067c-.141.57-.141.57-.219.603a.466.466 0 01-.014-.026l-.032.076-.003.007-.004.008-.005.008c0 .003-.002.005-.003.008a.033.033 0 00-.004.007l-.004.008-.004.008c0 .003-.002.005-.018.043-.037.132-.104.253-.135.387l.05.073.002.001h.002l.001.001h.006l.011.011.077.015.032-.031.019-.01c.142-.162.25-.347.377-.52l.004-.008.004-.007c0-.003.002-.005.003-.008s.003-.005.003-.008a.033.033 0 00.004-.008.033.033 0 00.004-.007l.003-.008.022-.045c.094-.16.094-.16.235-.205.014-.126.014-.126.08-.183.013-.01.031-.025.045-.034-.006-.076-.005-.076.03-.251l.004-.008c0-.003.002-.006.003-.008a.11.11 0 01.005-.008l.003-.009.005-.008.004-.01.005-.008c0-.003.002-.005.012-.025.132-.234.171-.187.388.075l.018.032c-.04.159-.04.159-.015.234l.078.009c-.109.254-.109.254-.098.287-.116.213-.173.202-.251.188-.274 1.08-.273 1.08-.627 1.184A1.174 1.174 0 0026.64 9c-.016.089-.014.18-.039.27a.251.251 0 01-.139-.062l-.052.058a.234.234 0 00-.11-.072.528.528 0 00-.035-.164 1.73 1.73 0 01-.086-.018c-.238.169-.118.614-.498.673-.11-.1-.088-.306-.267-.35-.096.284-.096.284.273.487.01.252-.236.426-.644.715a.297.297 0 01-.118-.09c-.065.203-.13.243-.22.3-.146-.13-.257-.297-.428-.4.065.195.197.351.294.527.067.122-.042.42-.389.199-.278.251-.28.83-.803.786-.12.458-.44.833-.515 1.31L23 14.257c.405-.065.405-.065.836.649.235.387.771.29 1.018.66.057.086.088.133-.033 1.426a2.41 2.41 0 01-.086.051l-.013.08c.046.001.107.01.152.021.158.283.158.283.158.402.037.037.1.075.15.09.054-.07.074-.159.12-.234l.055.067a1.61 1.61 0 00-.021.209l.032-.191a.36.36 0 00.084.09c.007-.492.297-.954.15-1.464a.52.52 0 00-.081-.145.651.651 0 01.117-.081l.009-.005c.32-.172.446-.612.86-.655a.474.474 0 00.012-.117c-.09-.076-.09-.076-.105-.145-.052-.238.046-.47.034-.706-.01-.2-.219-.311-.221-.516-.002-.198.234-.216.275-.381l.044-.02a.274.274 0 00.088.064l.04-.038c-.017-.09.076-.156.051-.248-.046 0-.046 0-.154.042.11-.203.108-.234.105-.399a.424.424 0 01.083-.069c-.177-.184.176-.33.146-.529-.35-.19.056-.573.062-.576.16.082.295.212.474.257.123.03.219-.123.347-.053.002.001.2.143.2.356l.046.015c-.002.045-.002.045.065.138-.06.052-.06.052-.015.193l.049-.003a.562.562 0 00.039.092.195.195 0 01.088.03l-.013.058a.244.244 0 01.076-.07c.138.082.138.082.18.08-.009 1.145-.244 1.226-.37 1.27.163.096.499-.116.53.148h.05c.056.058.056.058.064.15.165-.101.165-.101.284-.326.08.057.091.055.149.043.024-.149.024-.149.153-.38-.123-.191.24-.427.245-.427.128.33.125.694.26 1.023l.05.015c-.002.023-.002.023-.085.147a1.08 1.08 0 01.097-.022.43.43 0 01.032.096c.015.005.037.008.05.017l.143.577c-.008.027-.008.027-.356.09.024.053.031.07.165.085a.235.235 0 01.04.129c.275.094.253.492.551.562a.708.708 0 01.03.11l.05-.009c.145.126.392.046.493.258-.1.12-.1.12-.123.131l-.887.335c.079.067.177.102.264.155.044-.018.43-.186.438-.334.017-.014.406-.318.358.299.135-.187.207-.12.328.113.098.19-.029.394.035.586-.505.344-.505.344-.545.346-.365.02-.409.468-.718.562-.005.001-.685.112-1.25-.143l-.832.451c-.24.19-.24.19-.677.746.332-.165.595-.446.939-.589.181-.076.34-.076.485-.004.256.128.11.309.104.316-.127.154-.314.065-.466.12l.008.05c.109.036.109.036.25.11.007.03.016.072.02.103.03.02.067.054.09.082-.094.202.02.46.336.766.066.063.118.044.199.014a4.71 4.71 0 01.429.152c-.017.046-.45.345-.691.371-.17.02-.229.092-.345.254a.909.909 0 01-.305-.052c.016-.254.016-.254.574-.554l.011-.079c-.086-.003-.173.01-.26.006l.032-.06-.023-.041-1.17.714-.07-.005c.022.004.041.01.065.011-.044.05-.072.054-.139.057-.219.01-.413.452-.414.457-.084.2.134.31.136.486-.126.091-.262-.006-.391.022-.137.03-.257.112-.396.135-.24.041-.372.064-.427.368-.05.28-.05.28-.238.48-.037-.082-.005-.196-.11-.247-.024.07-.036.106.014.23.034.08.072.173.053.229-.002.003-.135.364-.25.374.008-.108.039-.214.04-.323 0-.086-.095-.148-.061-.244.056-.159.056-.159.022-.22a.25.25 0 00-.024.001c-.027.078-.156.472-.053.57-.021.083-.06.16-.077.245.05.067.08.09.165.135-.005.269-.005.269.021.29-.121.127.058.306-.073.432-.137.133-.356.108-.485.258-.065.073-.065.073-.248.103-.127.02-.079.175-.165.227-.004.003-.004.003-.114.028-.144.074-.192.313-.411.255-.01.351-.352.626-.222 1.009.357 1.049.357 1.049.356 1.097-.015.502-.115.534-.211.564-.254-.142-.254-.142-.551-1.456-.005-.022-1.291-1.075-1.632-.645a.392.392 0 01-.155-.034l-.052.057c.118.256.118.256.105.317-.706-.296-.706-.296-.743-.372-.367-.115-.367-.115-.744-.006-.134.305-.134.305-.283.3l-.05-.06c-.151.08-.151.08-.25 1.172-.04.026-.098.056-.142.076-.002.01-.114 1.104.43 1.905.107.16.53.495.534.496.223.095.453-.04.677.018a.297.297 0 00.043-.164c.116-.03.152-.038.187-.302.075-.557.562-.443.957-.25 0 .007-.063.772-.234.956a.285.285 0 00-.094-.144c0 .004-.029.216-.045.434 6.554-1.918 14.566-4.92 22.657-8.419.005-.495.118-1.005-.213-1.455.02-.047.194-.23.313-.326.076.017 1.365-.127 1.456-.288.113-.2.113-.2-.48-1.447l.06-.084c-.004 0-.48-.11-.698-.207.014-.176-.02-.197-.12-.259.087-.065.187-.111.264-.192.328.007.328.007.409-.08-.07-.144-.179-.266-.222-.424l.106-.011a.92.92 0 00.18.131c.466-.186-.001-.974.532-1.027.01-.14.082-.262.104-.398l-.002.001h-.002l-.003.001h-.001s-.002 0-.002.002h-.004l-.022.004c-.039-.103-.045-.213-.07-.32l-.005-.027a1.525 1.525 0 01-.012-.218c.086.066.106.18.177.257 0 0 .002 0 .04-.046-.154-.373-.154-.373-.064-.492l.049-.036.016-.002.014.013.015-.003.014.015.022.021.04-.067-.06-.086v-.031l.084-.078.157.057.026.004-.025-.073-.003-.006a.03.03 0 01-.003-.007.01.01 0 00-.003-.007l-.002-.007c-.002-.002-.002-.004-.003-.007l-.003-.006a.025.025 0 00-.003-.007l-.002-.006-.013-.028c.025-.137.025-.137-.084-.295l-.002-.08-.055-.08a.8.8 0 01-.096-.143l-.022-.032c-.058-.187-.252-.28-.306-.47l-.059-.1a.022.022 0 01-.003-.007l-.003-.007-.003-.006a.024.024 0 00-.003-.007l-.003-.006-.003-.006-.003-.007-.01-.02-.047-.099-.006-.027-.037-.109c-.002-.047.006-.11.012-.157l.008-.02a.35.35 0 00.066-.04.505.505 0 00.026-.201l-.003-.04.023-.068c.167.162.09.494.38.57.013.03.03.07.042.102l-.054.094c.004.009.008.017.02.08l.017.109.018.053-.02.008-.012-.014-.038.027c.07.266.101.297.191.387l.04.086.022.02.015-.002a.47.47 0 00.182.107l.029.038.008-.02.07.017c.005.033.01.078.016.112l.103.026.012-.037-.003-.021.002-.016-.002-.064-.01.002.004-.028.012-.015.004-.024a.5.5 0 01.081-.149c.09.052.153.14.244.188l.018.012.016.03.017.023.013.013.021.002.069-.074.02-.108.006-.027.022-.022c.006-.003.013-.006.063-.084.084-.385.108-.403.21-.48l.099.036.015.107c.005.01.01.018.013.027l.03.04.07.007.005-.012c.043-.074.06-.105-.006-.273l-.001-.02-.007-.017.022-.035.008-.015c.014-.006.031-.015.046-.02-.034-.202-.034-.202-.079-.315l-.004-.006a.03.03 0 00-.003-.007l-.003-.006-.004-.006-.003-.007c-.002-.002-.002-.005-.004-.006l-.003-.007-.02-.037c-.102-.146-.102-.146-.17-.273l-.006-.019-.097-.197c-.15-.448-.15-.448-.16-.54l.1.008.023.02.016.007.102.085.027.026c.01.01.025.021.036.031l.088-.053c-.043-.096-.092-.189-.138-.283a.106.106 0 00-.007-.013l-.008-.012-.007-.013-.008-.012-.007-.013-.007-.012-.008-.012a1.053 1.053 0 01-.04-.079l-.043-.107c-.087-.008-.097-.01-.22-.12a.072.072 0 01-.039-.033l-.001-.001a.083.083 0 01-.01-.052l-.008-.036a.129.129 0 01-.066-.042l-.006-.01-.006-.009-.006-.009-.01-.018-.007-.009-.006-.009-.005-.01a.75.75 0 01-.043-.071l.005-.029-.008-.018c-.002-.058-.002-.058.027-.124l-.005-.019c.003-.015.018-.03.026-.043l.04.009.016.014a.033.033 0 00.011-.01c-.037-.151.076-.12.142-.101l.019-.001.01.005.011-.004c.019-.005.019-.005.084-.061-.009-.019-.009-.019-.062-.112l-.014-.022a.608.608 0 01.032-.014l-.015-.04.03-.026c-.004-.013-.007-.032-.01-.045l-.001-.012.026-.038.038-.007h.002l.002-.002.002-.001.003-.002.002-.002.002-.001.01-.006.005-.04h.001v-.001l.002-.001h.001l.002-.002h.001l-.003-.032-.055-.029c-.074-.026-.077-.026-.12.023-.008-.003-.008-.003-.11-.07l-.017.01c-.092-.126-.092-.126-.113-.198l-.017.012a1.122 1.122 0 01-.01.039c.025.098.025.098.026.107h-.041l-.029-.013c-.03.028-.04.07-.063.103a.364.364 0 01.004.09.65.65 0 00-.035.016l.001.046h-.002v.002h-.002l-.001.001.004.032.002.022.005.014-.01.007-.018.024a.587.587 0 01.01.088c-.012-.006-.026-.015-.038-.02l-.004.014c-.004.002-.008.004-.021.022-.04.042-.008.099-.028.145-.108-.115-.108-.115-.127-.124l.003.014v.068c-.045-.037-.062-.097-.104-.138l-.036-.034-.022-.013-.021-.018-.013.002a.617.617 0 01-.404-.46c-.163-.234-.38-.418-.545-.648l-.013-.024c-.059-.088-.049-.111-.02-.158-.096-.178-.096-.178-.057-.233-.03-.094-.102-.236-.102-.238l-.02-.03c-.08-.228-.08-.228-.28-.567l-.025-.057.027-.03c.003 0 .006-.002.008-.004-.03-.066-.03-.066-.076-.114l-.023-.021-.02-.022-.014-.012-.012-.017-.018-.02c-.013-.018-.214-.234-.33-.236l-.031-.022-.012-.003-.034-.024-.013-.004-.018-.012c-.005.003-.011.006-.023.045l-.034.02-.004.01-.025.014-.009.027-.04.005c.12.207.12.207.124.225l-.019.017.026.031c.005.008.012.015.018.022l.022.02.021.06a.304.304 0 01.053.035l.034.04c.013.035.013.035.26.352l.015.026.015.021c.042.123.142.219.161.353h-.001v.001h-.002l-.001.001-.002.01.011.039.019.034-.02.036c.006.045.018.089.025.133l-.025.03.006.04.004.017.014.025.008.029-.006.022.012.034.012.02c.023.05.051.096.074.146l-.032.02a.104.104 0 00-.017.005c.102.113.095.147.089.183l-.037-.015c.041.088.111.155.164.236l.02.02c.137.153.137.153.146.17l-.018.03-.023-.01-.04-.015-.007.016c.111.155.246.292.347.456l.004-.011.004.007.006.009.005.008a.223.223 0 00.005.008l.006.007a.03.03 0 00.005.008.054.054 0 00.005.009l.02.027c.086.05.085.084.078.306a.19.19 0 00.039-.074c.008-.025.008-.025-.033-.111l-.006-.041.004-.053.04.008.014.002.013-.004c.151.125.34.297.373.408l.002.033c.019.105.019.105.016.119l-.035.014-.036-.02-.016-.001-.047-.016a.262.262 0 00-.061.054l-.004.001-.004.002-.004.002c-.001 0-.003 0-.004.002l-.004.001-.004.002a.01.01 0 01-.004.001l-.004.002-.007.04.048.014a.122.122 0 01.061-.04c.019.014.042.036.059.052.129-.027.129-.027.157-.012l.009.047c.026.092.026.092.016.162a.705.705 0 01-.037-.015c-.005-.008-.01-.016-.04-.042 0 0 .01.114.035.201v.002c.007.032-.015.025-.04.016a.89.89 0 01.04-.018.162.162 0 01-.064.015l-.032.026-.028.012v.005l.027-.01a.054.054 0 00.013.019l.01-.003.021.01.026.005.027.052a.05.05 0 00-.008.02c.026 0 .026 0 .033.007 0 0 .1.127.107.146.037.076.053.162.1.234l.014.016.014.024c.031.073.028.156.064.227.043.084.093.164.127.252a1.298 1.298 0 01.062.305c-.005.003-.005.003-.05.002l-.017.007-.012-.005-.029.01c-.007.042-.043.075-.035.122.01.072.069.122.084.191.017.08.017.08.001.094l-.011.024-.015.004-.003.002h-.003l-.004.002-.004.002-.003.001-.004.002h-.003l-.01.004c-.031-.003-.031-.003-.078.053a.713.713 0 01-.04.006c-.014-.03.003-.076-.043-.093-.011.01-.039.037.048.22.069.143.005.144-.036.145l-.017-.034-.018-.02-.017-.025c-.028-.022-.041-.058-.068-.082l-.023-.027c-.009.002-.026.007-.087-.02l-.029-.034c-.015-.021-.046-.032-.049-.064.036-.016.036-.016.039-.04l-.015-.034c-.002-.015-.008-.029-.008-.044.019-.036.052-.056.079-.083-.022-.066-.002-.077.031-.094.005-.058-.098-.115-.037-.162-.045-.122-.045-.122-.05-.13-.044-.023-.085-.052-.13-.073l-.018-.022c-.03-.02-.031-.025-.076-.119-.018-.039-.061-.053-.084-.088-.048-.072-.085-.15-.127-.225.009.044.008.046-.001.058-.03-.022-.034-.06-.052-.087-.08-.037-.108-.123-.168-.179l-.031-.007c-.036-.065-.077-.126-.106-.195a.454.454 0 00-.093-.13l-.02-.02a.246.246 0 00-.062-.068l-.023-.018c-.065-.047-.083-.146-.172-.169.027.095.097.169.122.264.003.013.006.029.01.04l-.026.03a.239.239 0 00-.08 0c-.008.07-.008.07.034.181a2.38 2.38 0 01-.02.007v.002a.295.295 0 01.02-.006c.004.025 0 .05.006.073.01.046.037.086.045.131.032.167.024.171-.04.129l-.043-.037c-.014.042-.014.042-.01.073.002.01.006.034.002.042l-.035.041c-.014.007-.026 0-.04 0-.01-.023-.02-.023-.036-.002-.007.01-.015.02-.023.022-.004 0-.02-.001-.033-.053a.275.275 0 00-.043-.091c-.011.041-.011.041-.012.055 0 .025 0 .026-.006.03-.008-.003-.012-.005-.024-.024-.01-.014-.011-.017-.022-.026-.016-.013-.037-.017-.054-.028-.039-.025-.06-.068-.097-.095a.077.077 0 01-.037-.032.088.088 0 01-.033-.039c-.072-.082-.053-.117-.033-.15-.037-.073 0-.172-.077-.23a.708.708 0 00-.054.069c-.1.012-.102.006-.137-.093.035-.042.085-.07.105-.123l-.004-.039a.195.195 0 01.008-.02l-.021-.037-.02.008-.046-.014c-.022-.05-.022-.05-.037-.415-.012-.007-.027-.017-.04-.023h-.002l-.011.004c-.165.1.02.275.02.414l-.039.018-.004-.026c.003-.11.003-.11-.007-.14l-.04-.015-.025.035a.168.168 0 01-.053-.056.247.247 0 00-.035-.084l.012-.044a.704.704 0 00.04-.006v-.04a.367.367 0 01-.104.003c-.014-.085-.084-.135-.124-.204l.015-.053a.159.159 0 00.078-.001l.018.009a1.18 1.18 0 00.044-.016c.02-.004.02-.004.153.037a.326.326 0 00-.032-.074c.006-.103.006-.103-.019-.155a6.33 6.33 0 00-.048-.007c.014.073.01.077-.03.108a.22.22 0 00-.07-.04l.008.04-.018.007a.229.229 0 01-.01.02c-.035.008-.035.008-.09.078a.488.488 0 01-.034-.02l-.029-.039a.732.732 0 01-.062-.095l-.005-.028c-.006-.06-.058-.089-.084-.135l-.006-.05.026.007.018-.007.024-.033c-.124-.058-.135-.063-.166-.13.037-.014.078-.01.114-.03a.72.72 0 01-.052-.078l.013-.039.008-.013.015-.02a.378.378 0 00-.049-.07l-.01-.071c.067-.002.067-.002.117.02l.037-.021c-.013-.146-.158-.129-.234-.198a.12.12 0 01.066-.037c.002-.023.002-.023-.037-.122.068-.04.068-.04.001-.27a.111.111 0 01.072.008l.07.038a.434.434 0 00-.043-.069l-.039-.037c0-.022.014-.05.028-.066.111.085.111.085.153.09l.017-.036c-.05-.103-.164-.087-.243-.136A.136.136 0 0144 9.513l.023-.032c-.105-.3-.105-.3-.09-.342l.035-.017c-.082-.18-.082-.18-.128-.172l-.02-.03.004-.013-.03-.117.025-.034a.236.236 0 00-.035-.09l-.022-.053V8.6l.014-.006c-.08-.075-.209-.216-.169-.32a.245.245 0 00-.065-.06.184.184 0 01-.044.062c-.006-.005-.006-.005-.054-.15l.03-.03c-.028-.076-.028-.076-.095-.114l-.03-.037c-.02-.237-.214-.379-.3-.58l-.021-.029a.184.184 0 01-.006-.078.28.28 0 00.078.025l.008-.039-.034-.021-.037.01h-.001v.001h-.003l-.013-.005c-.186-.243-.186-.243-.213-.289l.012-.048c.033.025.062.058.1.08V6.97h.004v-.001l.001-.02c-.044-.06-.105-.1-.156-.151-.051-.024-.057-.039-.075-.082a.213.213 0 01.082.011l.036-.018c-.037-.052-.05-.06-.104-.098a.22.22 0 00-.07.039.195.195 0 01-.052-.07c.025-.045.025-.045-.118-.238l-.015-.02c-.012-.135-.168-.156-.207-.272.03.02.03.02.099.072a.784.784 0 01.041-.009c-.054-.045-.125-.07-.162-.137.097.038.174.116.277.141l-.027-.025c-.102-.082-.23-.128-.317-.233l.021-.034c.048.033.091.072.142.098-.194-.176-.194-.176-.203-.22.105.078.105.078.314.261-.073-.123-.228-.167-.284-.307.036.02.067.05.106.07a.304.304 0 00-.062-.055l.008-.04c.038.012.074.033.113.043-.098-.086-.098-.086-.147-.105-.188-.099-.207-.124-.233-.16.043.017.084.037.128.048l.023.007.046.022c.037-.017.076-.004.114-.006-.132-.12-.135-.123-.15-.188l-.007-.017c-.046-.158-.305-.111-.296-.318l.025.016c.174.098.174.098.222.16a2.8 2.8 0 00.319.275l-.023-.027c-.117-.178-.332-.26-.43-.457.134.071.205.235.37.259a23.745 23.745 0 01-.465-.42c.232.04.321.298.536.365l-.004-.014c-.009-.028-.009-.028-.103-.11l-.033-.024c-.043-.038-.091-.07-.134-.108l-.016-.02.005-.033c.093.058.204.08.294.143l.04-.01.02.004c.021.013.05.026.074.033l.028.02c.06.04.106.07.152.167-.032.03-.077.03-.112.053.326.177.326.177.361.215.021-.036.017-.078.025-.118.024.009.06.014.086.014l-.039-.03.002-.017a.493.493 0 01-.074-.069c.194.042.194.042.262.121a.354.354 0 00-.085.01c.03.023.117.091.146.091.77.016 2.044.534 2.43 1.466l-.035.02c-.095-.04-.095-.04-.138-.047l-.03.024c-.08-.024-.168-.01-.246-.046l-.032.022c-.102-.084-.102-.084-.27-.088-.13-.113-.203-.112-.23-.111l.303.248c.2.157.467.19.66.361.236.21.405.488.665.67.002.002.326.163.43.167a.154.154 0 01.001-.082c-.173-.254-.703-.16-.669-.583.25.145.281.183.322.235-.054-.11-.054-.11-.056-.151.18.069.18.069.233.028-.175-.178-.415-.27-.581-.46-.004-.003-.342-.58-.343-.582.002 0 .261.115.361.169-.23-.209-.23-.209-1.71-1.342l.001-.026c.407.043.591.202.674.328l-.008.04c.185.289.626.445.63.446.006-.087-.341-.386-.345-.389-.019-.014-.49-.521-.587-.712.063.044.123.091.185.136v-.002c-.057-.043-.114-.087-.172-.129l.064.017c-.217-.161-.217-.161-.248-.19l.073.032c-.127-.1-.127-.1-.161-.149.18.104.351.224.536.32-.297-.238-.297-.238-.336-.313l.06-.016c-.277-.232-.294-.252-.339-.304.157.086.28.236.466.268-.327-.26-.764-.358-1.009-.735.163.017.365.037.964.352v-.001c-.576-.443-.912-.526-.914-.526l.051.036c-.319-.171-.6-.412-.945-.535.016.012.037.03.053.041-.658-.301-1.28-.68-1.935-.984l-.022-.074c.096.019.217.055.355.106a25.304 25.304 0 01-.433-.223c.496.159.95.431 1.457.561l-.122-.053c-.398-.123-.536-.211-.536-.213.037.015.088.032.126.046-.203-.108-.43-.163-.615-.31.16.025.305.1.461.142a4.893 4.893 0 01-.105-.062h-.002v-.003c-1.12-.485-2.148-.798-2.957-1.045.048.007.048.007.197.037v-.001c-.39-.106-.78-.204-1.169-.312h-.001a16.12 16.12 0 014.087 1.296l.003-.02A21.284 21.284 0 0032.258 0C20.217 0 10.455 9.991 10.455 22.315c0 3.69.876 7.171 2.425 10.237 2.182-.276 4.865-.87 7.896-1.718zM23.12 6.968c0-.01-.002-.023 0-.032l.006-.008.007-.008.007-.007a.067.067 0 00.006-.008l.007-.008.006-.007.007-.008.007-.007.179-.297c.013-.043-.007-.066-.05-.113-.061.004-.061.004-.07-.004 0-.13 0-.13.087-.3l-.003-.008-.003-.019c.01-.02.023-.037.032-.057l.014-.02c.042-.073.049-.083.19-.118.252-.052.252-.052.269-.051l.015-.001c.352.06.352.06.377.021l.014-.02c.057-.102.019-.207.019-.208-.113-.032-.21.053-.318.044v-.02l-.001-.015c.017-.05.017-.05.02-.065-.006 0-.006 0-.098.02-.018-.058-.018-.058.03-.12l-.006-.005.008-.013.005-.02c.012-.025.114-.183.203-.21.043-.003.183-.027.183-.028l.015-.002c.08-.022.162-.042.243-.067.018-.014.03-.025.042-.036l.004-.017c-.024-.002-.024-.002-.086.02l-.01-.001c-.102.007-.102.007-.127-.022l-.04.02c-.048.02-.048.02-.07.01V5.13c.046-.063.135-.067.181-.132l-.012-.009-.035.02a.297.297 0 01-.034.018c-.003-.01-.006-.025-.01-.035a.04.04 0 00-.015-.006c.021-.034.099-.13.375-.285.156-.09.156-.09.21-.163.06-.065.06-.065.364-.213.08-.04.322-.164.64-.228a.244.244 0 01.005.019c-.28.328-.516.393-.518.394a.136.136 0 00-.029.026.257.257 0 00.193-.062l.027-.025.014-.012.004-.004.004-.003.004-.004.004-.003.004-.004c.002 0 .003-.002.005-.003l.003-.003c.037-.027.17-.096.17-.097l.003.01-.003.023a.354.354 0 01-.028.057l-.002.012c-.079.19-.079.19-.17.248a.872.872 0 01-.131.085c.047-.014.082-.05.126-.067-.011.032-.04.05-.06.076.07-.023.114-.096.19-.108.005.021.005.021-.018.053.026-.003.03-.003.082-.064l.012-.017.021-.008.012-.013c.055-.056.055-.056.065-.077.025-.032.025-.032.038-.055a.327.327 0 01.047-.044l.014-.011a.361.361 0 01.038-.019l.01.025-.041.06c-.025.036-.04.078-.064.112l-.013.014-.007.011-.017.019-.006.014-.01.018-.011.02c-.105.23-.357.32-.477.533l-.018.032c.002 0 .125-.002.247-.157l.015-.02c.016-.017.03-.036.046-.054l.017-.017.016-.02a.438.438 0 01.018-.017l.014-.018.012-.019.016-.016.009-.015c.019-.033.019-.033.043-.057l.02-.02.01-.01.01-.01.01-.01.01-.01.01-.009a.124.124 0 01.011-.01l.01-.01c.145-.135.285-.276.431-.41 0-.023.011-.066.09-.094a.036.036 0 01.018-.003.124.124 0 01-.006.052c-.002.04-.042.062-.044.103.019-.01.019-.01.08-.066.005.023.005.023-.085.163l-.011.017c-.027.053-.064.1-.096.15l-.006.012c-.032.052-.08.093-.116.142l-.018.017c-.054.07-.054.07-.09.108l-.019.018-.008.013c-.067.073-.139.14-.2.218-.075.096-.114.216-.199.305-.198.21-.198.21-.217.264-.026.049-.056.097-.084.145v.019l.003.014-.004.013a.267.267 0 01-.015.06l-.008.02c.007.003.014.004.022.006h.003l.002.001.003.001h.003l.002.002h.005l.003.001a.647.647 0 01.037.009c.014.074-.113.166-.026.213-.003.021-.003.021-.034.073l-.02.019-.023.031c.014.011.014.011.051.023.004.022.004.022-.01.04a.136.136 0 01-.012.017l-.014.018a.277.277 0 01-.014.018l-.013.018-.014.018-.014.018-.014.019-.013.018-.014.019c-.033.044-.033.044-.068.079l-.012.005h-.02c-.002-.005-.002-.005.03-.094-.043.011-.066.055-.107.07.036-.035.036-.035.075-.12-.11-.055-.122.123-.197.17-.053-.046-.053-.046-.077-.033l-.019.013a.659.659 0 00-.069.123l.01.014c.038-.021.07-.054.11-.071.017-.005.029-.008.041.008l.01.004c0 .003-.182.361-.242.36l-.024.008c-.04.01-.077.03-.118.037a.05.05 0 01-.014-.003l-.006-.001c-.002 0-.004 0-.006-.002l-.006-.001c-.003 0-.004 0-.006-.002h-.007a.014.014 0 00-.006-.002l-.006-.001-.003-.001-.004-.001-.004-.001-.003-.001-.004-.001h-.003c-.001-.002-.002-.002-.004-.002h-.003c-.03 0-.03 0-.073-.106-.03-.003-.06.024-.09.004.002-.05.002-.05.026-.086l.013-.036c.013-.057.013-.057.007-.071-.028-.011-.056-.023-.085-.033.015-.078.08-.125.113-.192l-.029-.002-.066.028c-.238.225-.238.225-.356.217-.015.024-.015.024-.337.134a.25.25 0 00-.055.018.145.145 0 01-.056.005c-.02 0-.026-.002-.03-.003-.25.032-.323-.005-.33-.01 0-.023 0-.023.024-.051a.21.21 0 01-.006-.02zm.94-2.36a.245.245 0 00-.034.006.755.755 0 01.037-.045c-.025-.023-.037-.021-.071-.016.019-.04.106-.07.116-.074l.45-.275c.276-.188.276-.188.289-.184l.774-.441c.052-.033.054-.033.106-.073l.016-.019.056-.05c.056-.04.056-.04.104-.064l.024-.013.044-.027.015-.016c.09-.088.144-.078.165-.075l.023-.01h.03l-.01.01c.005.001.005.001.13-.025.02.026.023.03.144-.023l.018-.003h.008c-.053.078-.149.116-.19.207a.22.22 0 00.014.008c-.007.012-.007.012-.08.066l.031-.01c-.032.043-.084.061-.123.096l.005.005v.006c.103-.016.187-.09.29-.102-.066.158-.23.223-.324.355l-.014.013-.037.048c-.05.062-.05.062-.063.071-.101.068-.101.068-.196.102-.032.011-.064.025-.097.037l-.026.007c-.664.282-.664.282-.855.418l-.027.013c-.022.012-.022.012-.113.055a.067.067 0 01-.003-.034l-.05.03c0 .001-.002.003-.005.003l-.005.005-.005.004-.005.004a.023.023 0 01-.005.004.034.034 0 00-.005.005l-.006.003-.005.005s-.067.046-.075.05l-.017.011c-.038.02-.038.02-.099.061l-.021.017-.034.028c-.017.02-.272.238-.328.213a.264.264 0 01.025-.027c-.036.005-.06.033-.092.046.004-.019.004-.019.052-.072-.148.042-.265.147-.406.204-.002-.027-.002-.027.472-.53l-.013-.007zm2.65.053l.005.01c-.018.044-.018.044-.017.058l-.016.03c-.012.048-.042.086-.062.13h.017c.095-.029.095-.029.222-.152l.001.008h.01c.056-.06.062-.158.146-.197a.026.026 0 01.005.007l-.004.018.02.007a.326.326 0 00.086-.125c-.035.014-.048.088-.093.062-.005-.094.051-.186.124-.204.01.025-.02.042-.013.066l.014-.01c.05-.049.052-.131.118-.168l.014-.011.017-.01.015-.013.031-.017c.025-.006.027-.002.033.006-.001.01-.006.018-.008.027.026-.004.032-.024.038-.048l.031-.03c.02-.014.04-.024.062-.035l.006.003h.001l.005.008c-.013.042-.056.07-.055.12l.002.005.008.005v.01l.008.004h.007v.001h.001c.045.056.097-.022.145-.034l.017-.01a.405.405 0 01.036-.017.073.073 0 01.01.006l.01.001a.426.426 0 01-.182.188l-.009.013-.012.014-.004.014c-.046.092-.142.123-.213.185l-.015.018c-.073.065-.177.081-.24.162.017.003.017.003.057-.018 0 0 .098-.049.114-.04.005.033-.095.168-.096.17-.052.066-.052.066-.057.078.054-.023.054-.023.06-.02.01.02.01.024-.106.163-.075.09-.174.159-.24.258l.003.008h.003l.01.002a.817.817 0 01-.096.122l-.004-.006c-.012-.001-.02-.002-.086.061a.418.418 0 01-.125.084l-.007-.004c-.001-.059-.06-.023-.066-.018-.005.005-.005.005-.031.05-.056.113-.163.154-.17.124-.004-.018.013-.047.024-.067a.023.023 0 00-.006-.006c-.017.011-.028.03-.047.04l.004-.027.015-.027c.024-.032.024-.032.035-.059l.008-.02.015-.02c.007-.012.182-.31.17-.392l-.026.01h-.009c0-.003-.003-.007-.004-.01l.026-.036v-.01c-.063-.004-.043-.033-.01-.083.052-.08.086-.17.135-.253.046-.057.147-.15.185-.159zm.143-1.21c.007-.012.007-.012.154-.146.023-.034.023-.034.174-.072.074-.008.121-.1.207-.068l.025-.003.008.026c.016-.002.035-.012.05-.019l.027-.018c.03-.017.051-.024.077-.035a.806.806 0 00.1-.06c-.047.004-.083.057-.137.034.011-.04.052-.043.077-.065-.015-.003-.034.01-.047.017-.235.079-.235.079-.243.075.109-.098.252-.131.37-.213a.195.195 0 01-.005-.012c-.018.003-.018.003-.224.122a.043.043 0 00-.006-.005c.025-.02.053-.035.078-.055l-.058.03c-.159.103-.179.116-.216.124l-.01-.007c.007-.01.02-.02.029-.028l.03-.02.02-.014.02-.015c-.078.004-.104.123-.198.094a.133.133 0 01.02-.025l.049-.044.002-.007c.036-.025.079-.04.109-.074-.03 0-.054.023-.083.025l-.007-.01c.076-.104.29-.225.316-.181l.009.002h.004l.001.001.002.001h.002l.002.002h.002l.004.012c.04.007.207-.072.222-.084-.075-.044-.126.064-.199.034l-.003-.002h-.001l-.01-.009c.048-.057.217-.126.236-.13l.01.007-.003.012c.022.013.16-.003.21-.034l-.012-.002-.014-.001-.007-.003-.015.005-.008-.002-.012.003c-.067.013-.067.013-.08.011a.094.094 0 00-.004-.012c.032-.033.288-.167.354-.174.012.006.025.008.037.01v.013l.007.002c.028.009.07-.04.07-.04a.153.153 0 00-.026-.008h-.001c.021-.028.092-.074.304-.13l.005.012c-.006.005-.006.005-.267.16a.05.05 0 01.006.01c.008 0 .008 0 .093-.025a.673.673 0 01-.143.123c-.172.108-.179.124-.183.134l.012.003v.014c-.069.051-.141.098-.21.147l-.006.007.002.001c.005 0 .005 0 .083-.021a.207.207 0 01-.003.02c-.006.015-.006.015-.033.058.024.013.024.013.228-.139.028-.023.058-.042.086-.065a.045.045 0 00-.008-.01c.01-.026.07-.046.077-.046.046 0 .143-.082.144-.083l.004-.006c.15-.13.15-.13.41-.255.081-.035.15-.098.24-.112a.119.119 0 01-.022.027l-.026.016c-.083.053-.17.102-.253.154-.114.08-.233.152-.348.23a.064.064 0 00.006.01l-.003.01.005.004a.673.673 0 01-.167.109c.027-.006.05-.03.08-.026-.004.017-.004.017-.118.108l-.03.024c.032-.013.032-.013.072-.042l.01-.007.005-.004.006-.004a.044.044 0 01.006-.005.022.022 0 00.005-.003l.006-.004.006-.004a.023.023 0 01.005-.004l.029-.019.007-.007c0-.001.133-.092.164-.101a.056.056 0 00.006.011c-.052.074-.361.299-.364.3-.186.132-.507.35-.573.325.001-.015.001-.015.088-.089-.021.002-.021.002-.093.04-.014.006-.051.022-.045-.018l.066-.048-.002-.01-.026.019-.021.012c-.087.048-.185.058-.277.088-.003.002-.428.221-.477.2l-.018.007c-.003 0-.007-.003-.011-.003l-.006-.003h-.002l-.002-.001-.003-.001h-.002l-.002-.001-.002-.001-.003-.001a2.926 2.926 0 00-.014-.023.063.063 0 01.012-.021V3.45zm.892-.952c.018-.023.018-.023.019-.029.015-.01.022-.014.12-.065l.009-.005c-.063.012-.116.054-.179.065.01-.014.01-.014.132-.075a.949.949 0 00.069-.031c-.009-.002-.009-.002-.035.006.011-.014.011-.014.182-.082l.017-.006c.14-.06.14-.06.17-.07-.01.025-.036.028-.054.043.192-.035.358-.137.538-.205l.013-.003c.315-.126.315-.126.408-.157l.034-.013c.073-.026.15-.035.223-.056-.022.022-.059.02-.074.05.117.006.19-.108.303-.113 0 0-.155.098-.208.122l-.011.005c-.075.033-.156.046-.232.08-.077.034-.138.097-.222.12l.009-.006h-.005l-.005-.002-.554.25c-.053.028-.053.028-.184.078.004-.016.004-.016.129-.087l.03-.018c.026-.013.052-.024.078-.035l.031-.016c.088-.045.185-.067.265-.128-.103.01-.18.08-.273.115.018-.017.042-.026.063-.039-.033 0-.18.09-.19.098-.03.022-.3.15-.357.168.057-.114.198-.085.273-.167-.202.03-.326.223-.525.263a.096.096 0 01.018-.017l-.038.016-.032.015c.017-.017.017-.017.101-.066l.009-.009c.076-.044.157-.08.23-.129-.11.018-.192.1-.295.135zm2.64-.949l-.013.01c.022-.003.042-.017.065-.016l.002.005a.766.766 0 01-.097.05c-.032.014-.032.014-.061.024l-.023.009c-.085.03-.179.03-.254.088.032.005.057-.016.086-.021-.006.005-.246.119-.248.12l-.02.01a.678.678 0 01-.155.055c.008-.01.02-.013.03-.02-.045.007-.085.027-.129.039a.01.01 0 00-.001-.005.235.235 0 01.032-.02l.025-.014c.152-.084.152-.084.268-.145.267-.13.457-.166.493-.169zm.482-.056c-.012.004-.024.009-.037.011.004-.005.004-.005.07-.04a.01.01 0 00-.002-.002l-.015.006c-.047.013-.09.037-.136.054.01-.01.013-.012.054-.033.243-.129.243-.129.276-.141-.006.01-.006.01-.049.035l-.005.003c.011.004.011.004.085-.031l.005-.004h-.003V1.35h-.002c.046-.043.108-.044.162-.067a.026.026 0 01-.008.001c.016-.009.033-.015.05-.023-.021.006-.04.015-.061.022.073-.05.159-.065.238-.1-.067.014-.125.05-.19.071.076-.04.159-.062.236-.098l-.025.007.015-.008a6.95 6.95 0 01.342-.127l-.021.008c.032-.007.062-.023.095-.03-.035.016-.07.027-.106.04.006-.001.012-.004.017-.006a.11.11 0 01-.016.01c-.103.04-.208.075-.308.122.051-.014.099-.038.148-.057l.115-.046-.003.003c-.059.03-.121.053-.182.078l.065-.025c-.022.012-.045.02-.068.03l-.06.026-.021.01a.559.559 0 00-.064.031l.032-.01c-.055.037-.122.048-.175.09l-.62.35-.13.072-.022.012-.011.005-.02.009c-.021.009-.044.013-.066.021.117-.133.286-.18.428-.272l-.007-.005zm-1.18.935l.002-.003-.009-.001-.001-.01a.535.535 0 01.073-.066l.003.01c-.008.01-.019.02-.027.031l.01.002.009-.003c.039-.025.054-.07.086-.103l.032-.024.005.005c.043-.008.077-.037.117-.051h.015l.002.001h.003l.002.001h.005c0 .016-.02.052-.053.096a.055.055 0 00.006.007.336.336 0 00.028-.014v.005l.004.002-.02.02-.057.058h.005l-.031.025v.002c-.08.073-.177.123-.255.2l.068-.04c.027-.014.027-.014.052-.034.023-.013.027-.013.038-.013l.004.005h.003s0 .002.002.002h.002c.041-.013.072-.045.113-.056a.062.062 0 01.005.017l-.008.01-.007.013c-.064.106-.064.106-.075.12l-.016.002c-.014-.002-.026-.009-.04-.01l-.01.014v.006l-.005.007-.002.006-.003.009-.001.008-.005.008.011.002c.018-.003.018-.003.03.003a.837.837 0 00-.009.07l-.001.01-.032.034c-.019.017-.036.036-.056.05-.01-.002-.01-.002-.034.003l-.035.012-.005-.013c-.003-.012-.004-.015.005-.031l-.005-.008h-.01c-.006-.022-.006-.022-.011-.026-.033.024-.036.034-.05.065l.008.013c0 .015-.003.019-.027.045l-.01.003c-.019-.005-.019-.005-.108.064-.03.023-.03.023-.047.04.01.001.01.001.098-.058.01-.006.017-.013.027-.017v.014l.002.009h.01l.007.01c-.007.013-.009.017-.02.032a.255.255 0 01-.015.014l-.012.015a.07.07 0 01-.007.008c.01 0 .021-.004.032-.005-.01.117-.134.113-.187.183.01.004.024.003.034.012-.004.008-.004.008-.053.078l.02-.008.026-.03a1.76 1.76 0 01.088-.099l.008.007-.002.011v.006l-.004.011-.001.008-.002.007-.01.015-.024.03c.02-.01.034-.029.054-.038l.001.011-.008.012-.01.019c.033-.012.042-.062.086-.057l.005.01c-.014.034-.022.07-.037.104l-.02.018a.263.263 0 00-.044.038l.016-.006a.154.154 0 01.084-.008l.027-.036c-.006-.082.092-.07.134-.11.007-.008.007-.008.22-.127.02-.01.02-.01.037-.007v.01a.08.08 0 01.003.033c.048.006.094-.037.141-.002 0 .014 0 .014-.041.076h.019c.02.005.02.005.026.01h.012l.001.001.005.01c-.018.037-.052.06-.075.092.005.004.005.004.043.017 0 .011 0 .025-.029.067-.045.066-.045.066-.124.135-.116.085-.116.085-.166.16-.044.066-.045.148-.086.215l-.017-.001c-.07.01-.104.084-.171.098l-.007-.02v-.012l.004-.015-.017-.002c-.018.01-.035.023-.056.029l-.007-.01.006-.014a.058.058 0 00.004-.019c-.01.003-.018.01-.027.015-.012-.027.016-.07.048-.12.001 0 .003-.002.003-.004l.003-.004.004-.005c0-.002.002-.003.003-.005 0-.002.002-.003.003-.005l.004-.004c0-.002.002-.003.003-.005l.003-.004a.278.278 0 00.057-.138c-.025 0-.057.066-.08.122v.014l-.024.031c-.06.058-.06.058-.104.076-.022-.005-.022-.005-.056.017l-.013-.003-.01-.001-.005-.01.007-.023a.043.043 0 01-.008-.004l-.013.009h-.007c-.02.015-.02.015-.056.026-.02.012-.02.012-.03.009l.017-.031.01-.017a.056.056 0 00-.024 0l-.01.004c-.059.035-.102.052-.128.05 0-.01 0-.01.02-.05l-.004-.009s-.038.014-.076.04a.049.049 0 01-.007-.006l-.006-.004c-.022-.008-.05.009-.068-.018.034-.07.113-.101.145-.175-.003-.001-.005-.005-.006-.007-.023.007-.038.035-.066.02-.025.01-.03.021-.042.046l-.012.022c-.004.03-.046.057-.059.065l-.009-.003.001-.021c-.015-.007-.03 0-.045-.005-.008-.022.007-.04.011-.058a.027.027 0 00-.008-.004c-.022.014-.039.037-.059.054l-.007-.002.032-.037.003-.004.003-.004.004-.003c0-.002.002-.003.003-.005.002 0 .002-.002.004-.004l.003-.003a.227.227 0 00.003-.004l.004-.005c.031-.035.033-.038.037-.055l-.01-.002c-.027.02-.048.047-.075.068-.003 0-.006 0-.009-.002-.005-.011-.005-.011.032-.109l.02-.028c.044-.066.106-.115.157-.173a.172.172 0 00-.027-.007l.028-.03c.31-.278.31-.278.337-.312l.015-.015.014-.016.017-.017c.003-.004.34-.385.356-.408-.07.011-.108.08-.17.106l-.004-.008a.213.213 0 00.011-.022l-.004-.003a.049.049 0 00-.011-.014l.026-.027.01-.01.01-.012c.017-.018.017-.018.022-.026-.009-.012-.009-.012.049-.079l.001-.006.009-.01c.026-.029.026-.029.063-.062l.056-.059-.003-.002zm-.969.537l-.297.103c-.004-.033.108-.122.146-.124.004.005.014.008.02.01.066-.048.112-.084.131-.072-.003.009-.003.009-.012.02.009.004.012.005.09-.064l.018-.014c.02-.019.043-.036.064-.055l-.006-.003.004-.008.01-.014c.059-.065.284-.232.319-.225-.03.101-.135.128-.192.201-.046.055-.046.055-.047.062l-.01.015.006.003.007-.004c-.003 0-.005.002-.006.003.039-.04.1-.056.129-.11a.054.054 0 01-.003-.007c.014-.024.04-.027.06-.04a.022.022 0 00-.005-.004.105.105 0 01.03-.02l.021-.012c.045-.028.047-.034.053-.043a.036.036 0 01-.01-.008.125.125 0 00.005-.014.021.021 0 01-.003-.006.439.439 0 01.183-.113l.012-.006.013-.005.024-.005c.002.021.002.021-.097.116 0 .003 0 .006.002.007.06-.013.092-.078.154-.09-.016.087-.522.459-.526.462-.064.04-.069.043-.08.062 0 .004.003.01.006.013-.003.012-.005.019-.05.058-.108.09-.123.1-.135.1.007-.014.007-.014.069-.078h-.012l-.024.013c-.216.174-.23.207-.235.219l.001.01a.184.184 0 01-.044.04l-.014.011-.026.013-.014.008-.012.01-.01.004c-.034-.014-.068.027-.103 0v-.016c-.033-.008-.061.022-.093.01.005-.031.112-.115.113-.116l.028-.018.06-.034.026-.032c-.008-.025.054-.055.054-.055.022.01.25-.135.262-.166-.01-.004-.014-.006-.054.008zm-1.734 2.413c-.025.009-.046.033-.076.026a.05.05 0 01.01-.02l.02-.024.004-.013.022-.017.014-.017c.029-.041.061-.078.091-.118.106-.136.181-.294.292-.426l.02-.023.013-.01.015-.017.015-.013c.073-.07.247-.274.285-.337.004-.006.084-.108.13-.114a.05.05 0 00.006.01c-.012.03-.03.056-.034.088l.006.005c.05-.024.063-.102.064-.102.018-.152.246-.233.282-.198-.001.009-.001.009-.01.025.032-.006.047-.043.082-.043.011.004.021.01.032.015l-.005.017c-.004.024-.003.064-.003.064l-.01.016-.008.017c-.01.017-.01.017-.01.024.012.003.012.003.062-.015l.014-.008c.038-.018.057-.006.059-.005.02.014-.007.034 0 .051.007.014.023.01.032.018-.003.017-.004.018-.022.041a.807.807 0 01-.066.068c-.045.04-.104.061-.141.111-.026.033-.032.042-.142.142l-.013.012-.02.017-.015.015-.02-.002c-.05-.002-.041.058-.065.084-.025.026-.056.045-.08.072a.18.18 0 00-.02.028.576.576 0 01-.147.157l.002-.013-.008-.003c-.038.018-.038.018-.057.009a.035.035 0 00-.007-.02l.006-.019c.018-.06-.16-.021-.162-.02-.02.012-.021.026-.025.06.002.05-.027.093-.034.14-.018.03-.288.288-.303.298l-.005-.007c.006-.02.006-.02-.07-.026zm3.61 4.242l-.028.033c-.088-.03-.088-.03-.122-.025l.023.043-.012.04.031.03-.008.055c-.128.049-.072.184-.12.27a.192.192 0 01-.082.012 1.172 1.172 0 00-.083-.15c.034.084.034.084.037.124a.255.255 0 00-.003.024c-.015.037-.019.077-.03.115-.036.051-.037.115-.06.17l-.046.06a.121.121 0 01-.033-.068l-.034-.021-.043.01.003-.034a.34.34 0 01.006-.046l-.041.01c-.027-.06.012-.114.012-.17a3.452 3.452 0 00-.085-.01c.008-.081-.04-.16-.007-.241l.018-.069c-.036-.03-.045-.037-.108-.016a.24.24 0 01-.052-.063l-.077-.021c-.02-.265-.02-.265-.088-.32l-.037.012a.356.356 0 00-.014.088l-.034.022a.568.568 0 01-.026-.033c-.012 0-.029 0-.04-.002-.038.056-.036.068-.025.115.103.022.22.047.136.195-.077 0-.173 0-.16.138a.23.23 0 01.079.013s.022.154.03.251c.027.214.027.214.045.26a.782.782 0 01.062-.076l.06.021a.266.266 0 00.001.087.475.475 0 01.086-.018c.006.044-.003.088.008.131l.13.517c.009.091.004.094-.07.152-.003.072.032.141.02.216a.383.383 0 01-.083-.012c-.007.139.13.266.03.413-.038-.013-.058-.051-.087-.076-.014.103-.014.103-.03.139l-.036-.018c-.018-.067-.033-.124-.102-.217-.246-.212-.246-.212-.254-.266-.001-.003-.057-.317-.268-.261-.012.003-.03 0-.041 0 0 .002.182.383.32.483.098.072.098.072.09.514.01.011.013.034.016.048l.009.043a.297.297 0 01-.077.032c-.04-.046-.04-.107-.06-.16-.003 0-.26-.044-.325-.152-.265-.339-.265-.339-.27-.338-.024.003-.051-.024-.064-.043a.254.254 0 01-.125-.012c-.043-.129-.273-.24-.145-.38a.42.42 0 00.082.004c.018-.079-.04-.131-.06-.197a.195.195 0 00-.08.01.696.696 0 01-.035-.019c-.047-.18-.047-.18-.076-.22.032-.15.039-.18 0-.262l-.018-.01c-.082-.077-.082-.077-.093-.093-.04-.044-.04-.044-.116-.09l-.016.038.006.027a.264.264 0 01-.042.181l-.041.003a1.21 1.21 0 01-.06-.066l-.017-.011a.606.606 0 01-.024-.018c-.173.158-.308.283-.453-.006-.023-.046-.023-.046.098-.243l.003-.009.002-.008.002-.008.003-.009.002-.009.003-.008.002-.009.01-.034a.14.14 0 01.053-.063c.043-.097.043-.097.071-.12l.023.039.01.031.02.007.049.014h.006l.006.001.007.001h.006l.007.002h.006a.02.02 0 00.006 0l.006.001h.026c.074.055.074.055.21-.053a.254.254 0 01.08.037c.052-.023.094-.072.157-.068.23.017-.03-.383.187-.464.074-.229.317-.332.395-.558.168-.487.07-.653.07-.655l-.04.008c-.098-.093.046-.2-.016-.295a.263.263 0 00-.077.01v-.04l.003-.028c-.018-.057-.018-.057.047-.171a.845.845 0 01-.016-.04c-.127-.036-.316.143-.353.18a.7.7 0 00-.04-.002.537.537 0 01.076-.17.153.153 0 01.053-.063c.013.006.027.016.04.018.184.033.216-.213.002-.414a2.47 2.47 0 01.047-.072.121.121 0 00-.04-.064l-.038.015.002-.042c.07-.2-.022-.427-.159-.392.04.191.04.191-.024.312-.105.202-.139.091-.182-.049-.05-.02-.11-.018-.15-.062l-.002-.001c.026.045.026.045-.007.159l-.02.04c-.027-.032-.043-.073-.078-.1a.15.15 0 01-.076.023c-.006-.01-.015-.023-.02-.034l-.014-.012-.015-.01-.002-.018-.017-.004-.007-.013c-.131.003-.131.003-.22-.08-.054.008-.1.042-.154.05l.015-.079c-.05-.047-.05-.047.044-.246-.014-.002-.027-.004-.076.008-.044.018-.09.026-.135.044a.92.92 0 00-.037-.02c.026-.115.005-.234.032-.347l.003-.02a1.13 1.13 0 01.047-.073.15.15 0 01.09 0 .125.125 0 00.046.07.853.853 0 00.042-.011l.018-.011.019.002c.033-.065.033-.065.033-.199-.157-.117-.157-.117-.174-.158.062-.099.18-.156.207-.28l.009-.016-.001-.014c.018-.072.088-.1.127-.156l-.01-.013c.083-.123.183-.234.255-.365.131-.079.164-.107.218-.186l.005-.006.004-.007.004-.006.01-.013.004-.006.005-.007.026-.033c.423-.377.423-.377.742-.428l.023.026c-.098.234-.333.318-.497.478-.104.1-.167.16-.367.569-.17.322-.171.407-.174.548l-.006.02-.002.023c-.089.079-.248.05-.289.201.097-.061.148-.042.194-.025a.29.29 0 00-.01.083c.003-.002.238-.407.236-.437a1.079 1.079 0 01-.035-.024c-.002-.062.003-.076.029-.121.079-.096.192-.152.265-.254.105-.146.074-.345.18-.49.056.054.01.135.05.192a1.28 1.28 0 00.027-.033c.001-.068-.014-.137-.006-.205l.037-.026c.04.058.04.058.094.069l.02-.034c-.054-.053-.046-.118.023-.19.005 0 .01 0 .018.013l.016.042a.268.268 0 01.044-.074.52.52 0 00.03.014l.01.045c.183-.226.187-.23.412-.24l-.216.341h.008l.006.016c-.006.104-.072.183-.102.277 0 .111-.083.253-.209.36-.01.093-.017.096-.065.118l-.01.044a.05.05 0 01.017.004c.18-.04.178-.252.306-.34-.027.082-.027.082-.019.117l.042-.003a.23.23 0 00-.011.082c.112-.09.134-.29.327-.28.026.037.026.037.143.038.026.065.026.065.061.103a.95.95 0 00-.02.09.065.065 0 00-.011-.005c-.002.052-.002.066-.053.161l.003.027.01.002.034.015.009.008c.007.006.015.015.022.02-.02.106-.118.156-.162.245l.014.04c.125-.124.125-.124.223-.102-.056.063-.159.083-.173.187.01-.008.021-.02.03-.029l.04.012c-.006.03-.012.07-.016.101l.038.004c.02-.077.02-.077.051-.107l.037.017.012-.02a.634.634 0 01.051-.076c.033.15.033.15.09.164.012.039.04.17-.07.23-.07.02-.07.02-.097.06l.016.047c.013.003.03.008.044.01.03-.027.057-.058.09-.085l.038.011.002.044-.02.06c-.057.08-.057.08-.07.112.01.008.021.02.03.03.032-.045.038-.053.115-.07a.527.527 0 01-.027.077.53.53 0 00-.041.072c.076-.078.076-.078.137-.08l.015.037.011.01c.028.037.073.053.102.09a.31.31 0 01-.03.08.78.78 0 00-.042.006h-.012l-.002-.002h-.002l-.02.013c-.043.065-.043.065-.127.1v.043l.07-.042.038.011c-.011.047-.011.047-.054.113l.03.028.039-.012c.045-.109.045-.109.086-.136.114.295.114.295.043.34h-.035c-.043-.004-.043-.004-.128.022h-.021l-.004-.001h-.005l-.026.006c-.017.069-.006.08.028.111l.006.01c.06 0 .06 0 .095.026.046.015.046.015.119.016h.001c.058.038.076.1.082.145a.426.426 0 01-.166.081c-.13-.092-.15-.107-.212-.06.072.084.072.084.086.13a.332.332 0 01-.074.044c.023.105.023.105.017.13a.187.187 0 01-.078.02c-.039.085.019.189.142.19h.016l.006.002h.017l.005.001h.023a.12.12 0 01.036.053l-.05.07.03.031.023.002.017-.011c.008 0 .016 0 .031.007a.623.623 0 01.007.083l-.007.03-.016.03c.013 0 .029.003.04.004.014-.01.114-.07.184-.024-.011.042-.04.077-.043.12.037.014.078.01.114.032.016.073.016.073-.01.327.06.041.13-.006.191.024.005.058-.048.1-.042.16.066.031.066.031.118.018.056.063.119.116.176.176v.042c-.003.014-.012.032-.017.045l-.015.004c-.065.076-.065.076-.055.189zm1.392-8.596l.015-.008.014-.007-.007.002.015-.007.01-.005.005-.003c.008-.004.073-.035.114-.05l.036-.016.02-.009.02-.009.023-.01.023-.01-.029.013-.002.001h-.001l-.005.002.011-.005-.015.007-.013.005-.005.002.045-.02.017-.007.006-.002.01-.005.005-.001c.435.243.435.243 1.367 1.05a.74.74 0 00-.082-.1l.1.027c.19.12.19.12.227.16a1.201 1.201 0 01-.12-.05c.138.142.338.192.479.33a.41.41 0 01.077.12c-.063-.017-.124-.04-.187-.057.003.02.006.047.01.067.034.024.08.054.117.075l-.06.015c.095.136.23.275.232.276.05-.013.05-.013.228.115l.06-.019c.1.104.55.62.552.623-.06-.001-.06-.001-.31-.168l.007.064c.194.092.278.317.476.402l.019.003h.007l.01.006.007-.003c.188.068.26.294.26.297l.002.02-.053-.013c-.115-.102-.26-.153-.383-.24.082.353.245.4.54.487a.7.7 0 01.059.181l-.044.043a.583.583 0 00.045.19l-.032.015-.023-.022c-.146-.092-.27-.215-.42-.3l.006.04c.018.141.013.266.013.267a.854.854 0 00-.102.085c.047.129.182.085.266.142a.336.336 0 01-.066.108.27.27 0 00.064.13l.058.023.048-.042.07.02c.04.086.035.187.093.266a.653.653 0 01.077-.098c.085.044.135.128.207.186l.058-.028.103.068c.193.356.554.6.65 1.02a.6.6 0 00-.059.023c-.081-.064-.141-.153-.23-.209l-.041.055c-.406-.08-.497-.574-.872-.695l-.014.065c.13.12.356.11.414.325-.069.086-.184.1-.261.173.022.233.046.472.321.327l.025.064c-.118.15-.118.15-.104.222l.054.033c.648-.679.813-.119.815-.112l-.182.587c-.035.065-.047.09-.047.329-.048.047-.083.082-.227.119l-.477.371c-.219.013-.215-.231-.343-.321-.008.37.13.732.055 1.107-.04.2-.04.2-.422.723-.1-.04-.103-.165-.185-.22l-.063.019c-.02.063-.038.117-.087.314-.154.03-.154.03-.192.06-.009.1.021.2.004.3-.079.033-.17.006-.245.056.02.129.142.185.194.29-.026.076-.094.118-.14.179.086.325.077.382-.166 1.011.12.13.181.194.185.414.006.346-.156.662-.162 1.006a.418.418 0 00-.083.105c-.099.02-.159-.067-.24-.09-.034.024-.08.053-.117.073-.115-.106-.207-.543-.207-.548-.16-.046-.328.095-.484-.024l-.01-.07c-.148 0-.148 0-.184-.012-.147-.497-.5-.9-.625-1.409-.061-.245.108-.452.108-.687l-.054-.035c-.077.086-.097.212-.195.282-.016-.047-.376-1.176-.33-2.012l.008-.015v-.023l.006-.023v-.038c-.006-.09.06-.156.081-.238l-.06-.033.041-.047c.111.002.214.066.328.043h.016l.012-.013c.005-.025.013-.063.003-.087l-.012-.015-.01-.034c-.063-.013-.128-.008-.191-.018-.039-.212.207-.292.215-.483l.059-.019.047.04h.012a.21.21 0 00.024-.122l-.062-.007a1.383 1.383 0 00-.036-.054c.077-.202.108-.285.027-.448-.06-.12-.191-.037-.27-.102-.077-.063-.096-.164-.15-.241-.105-.012-.124-.04-.125-.18.108-.043.281-.036.494.24.081-.053.157-.103-.151-.58l-.07-.013c-.177-.37-.177-.37-.196-.372-.022.05-.053.117-.103.328l-.06.02c-.076-.125-.076-.125-.123-.167.111-1.668.168-2.505-.26-3.2l-.063-.007-.041.05-.043-.05c-.014.008-.014.008-.126.137a.4.4 0 00-.047-.126c-.019.009-.043.02-.06.03a1.39 1.39 0 00.001.129l-.046.044c-.175-.197-.05-.32.082-.452a.32.32 0 00-.06-.108c.006-.017.015-.041.02-.06-.041-.08-.023-.191.163-.234.013.013.03.032.042.047.047-.013.047-.013.177-.078-.025-.096.052-.165.059-.252a1.084 1.084 0 00-.1.086v-.062a.87.87 0 00-.078.115c-.011-.054-.011-.054.05-.188l-.038-.051c.182-.297.434-.537.632-.821l-.032.06c.037-.045.037-.045.176-.277h-.001l-.006.006h.001l-.004.003c-.003.002-.003.007-.008.007L32.3.883l-.069.066s-.045.044-.083.073c.008-.01.008-.01.07-.071-.045.034-.082.077-.124.114a.332.332 0 01.059-.06c-.091.072-.11.095-.12.107l.012-.006.009-.006v.001h.003l.011-.005c-.012.03-.04.049-.06.074l-.011.011c-.025.025-.029.03-.043.04a.074.074 0 01.015-.024l.011-.013c.015-.017.028-.036.042-.054-.005 0-.005 0-.065.065l-.01.005h-.005v-.001h-.001c-.013.004-.02.006-.077.063.022-.012.046-.022.067-.036-.014.028-.05.036-.063.066a.146.146 0 01.012-.005l-.003.014-.005.007c-.064.082-.159.132-.221.216l-.012.045-.008.01a.347.347 0 01-.017.026c-.018.023-.045.037-.065.058l-.013.015c-.007.006-.015.014-.024.02l.006-.03c-.003-.008-.004-.008-.005-.008-.014.008-.014.008-.037.03l.007.004h.004a.36.36 0 01-.01.03.09.09 0 00.003.004v.004c-.012.05-.088.108-.096.106-.032.003-.043.05-.081.038l.006-.023v-.004l-.001-.014c-.014.007-.014.007-.152.194l-.008.013c-.033.043-.075.078-.111.118l-.016.019-.017.02h-.005l-.01.01c-.033.03-.034.031-.058.043l-.004-.012a.251.251 0 01.007-.014c-.013-.003-.026.001-.04-.001-.003 0-.004-.002-.004-.002h-.011l-.003-.001h-.003a.071.071 0 00-.012-.002c.006-.037.035-.065.039-.103-.007.001-.024.003-.15.135a.212.212 0 00-.046.071c.072-.04.072-.04.1-.047l.006.001h.012c-.013.03-.04.05-.058.077.01-.004.01-.004.036-.028l.01-.005.015-.011a.092.092 0 01.028-.009.12.12 0 00.01.009.276.276 0 01-.069.083.21.21 0 00-.08.129.187.187 0 01.065-.046l.004.013c-.009.015-.02.028-.028.044l-.007.01-.003.003-.002.004-.003.004-.003.003-.003.004-.002.004-.003.003c-.026.037-.062.064-.093.096a.364.364 0 01-.085.088l-.01-.01.023-.039c-.012.005-.02.008-.14.126l-.02.018c-.018.019-.018.019-.106.047l-.012.002h-.004l-.024.01.015-.018c.098-.116.098-.116.104-.134a.035.035 0 00-.015-.014l.001-.011c.019-.05.056-.091.072-.143-.061.056-.096.134-.155.19h-.008l-.013.001c0-.004 0-.004.058-.105l.012-.018-.003-.012c-.088.094-.088.094-.112.09.013-.043.045-.075.063-.115-.04.035-.047.117-.119.104 0-.008 0-.008.018-.052-.051.05-.03.168-.129.169l-.004-.002-.01.006c-.004-.016-.004-.016.005-.055l.003-.006.005-.009v-.007c-.001-.029-.001-.029.033-.078l-.012-.007c-.022.012-.042.03-.067.039a.072.072 0 00-.011.005l-.005-.013.042-.059a.107.107 0 00-.014.006c-.082.07-.087.07-.105.067.04-.093.136-.133.191-.213-.05.044-.092.096-.149.131l-.028.02-.015.008-.026.015a.461.461 0 00.061-.069c.018-.022.018-.022.027-.037l.01-.01c.023-.026.247-.203.294-.23.025-.017.05-.035.076-.051l.007.01-.018.029.01.003c.035-.019.06-.061.109-.056.055-.05.055-.05.057-.07h-.005l.04-.032c.037-.025.037-.025.047-.038l-.013-.001a.028.028 0 00-.013.003c.078-.15.292-.267.364-.305a.034.034 0 00.006.012c-.06.072-.128.137-.19.208l-.016.016c-.008.008-.008.008-.032.06a.055.055 0 00.024-.007c-.008.013-.018.024-.027.034.024-.005.033-.034.06-.034l-.002.024a.042.042 0 00.024 0c.019-.064.07-.09.119-.116a.214.214 0 01-.09.02v-.001c.002-.006.002-.006.064-.066l-.012.002c.002-.029.07-.077.099-.098l-.011-.005c.021-.025.132-.117.133-.117l-.001.012c.004 0 .01-.001.013-.003l.005-.008c.014-.018.014-.018.188-.156 0-.001.071-.058.094-.079-.271.197-.271.197-.277.196a.168.168 0 01.038-.044.086.086 0 01-.028.012l-.013.008-.028.014c.023-.041.094-.03.1-.09.077-.06.24-.186.468-.323.026-.017.056-.028.083-.042-.006.01-.012.02-.041.055-.057.046-.122.12-.122.12l-.012.01c.064-.021.093-.087.143-.124v.006l-.007.006a.065.065 0 01-.006.01.506.506 0 00.093-.07c-.016.008-.03.02-.049.024a.283.283 0 01.085-.09l.01-.008.024-.017.012-.008c-.014.015-.03.026-.04.043a.322.322 0 00.063-.051l.02-.014.003-.004c.023-.018.047-.034.07-.05a.095.095 0 01-.012.006c.031-.024.065-.045.097-.068l.017-.011.08-.052.013-.008A4.591 4.591 0 0132.3.883l-.013.007-.031.018-.007.004-.018.01-.096.057c.024-.013.047-.028.071-.042L32.22.93l.016-.009-.07.042-.009.006-.009.006-.014.008-.122.081c-.007.005-.018.01-.025.016l-.015.01-.015.009-.03.02-.018.011-.045.023c-.052.03-.103.067-.156.097l-.007.004-.006.003.018-.012.02-.013.01-.007.006-.005a.31.31 0 00.025-.02.027.027 0 00-.006.005l-.003.002-.002.002-.003.001-.003.003-.003.001a.01.01 0 00-.003.002l-.003.002-.011.008-.014.01a2.72 2.72 0 01-.063.041l-.08.052-.043.028-.02.013-.022.015c-.021.015-.021.015-.03.019l.02-.016.031-.023.01-.007.075-.054.006-.003.005-.004.006-.004a.023.023 0 00.005-.004l.006-.003.006-.004.005-.003.005-.004.004-.002.002-.002.004-.002.003-.002.002-.002.003-.002.003-.002.003-.002.044-.03.011-.008-.018.012-.014.008-.01.007-.016.01-.018.012-.01.006-.007.004-.012.008-.01.007-.036.023-.018.013-.037.026c-.032.022-.063.047-.096.07l-.018.014-.012.01-.027.019-.013.01-.01.006-.009.006-.01.007a.062.062 0 01-.005.004c.023-.026.054-.043.079-.067l.006-.006.012-.009.018-.013-.016.01-.02.014-.009.006-.009.007-.005.004-.013.01c-.022.015-.042.032-.063.048l-.014.01c-.073.056-.073.056-.18.13l-.017.011-.015.01a.089.089 0 01.013-.014l.016-.013.015-.012.011-.01.018-.014.008-.007a.04.04 0 01.007-.005l.006-.004c.013-.011.027-.02.04-.032l.013-.01.01-.01c.012-.01.057-.048.112-.088l-.022.015a.014.014 0 00-.004.003.015.015 0 00-.005.003l-.004.002-.005.004a.15.15 0 01-.004.002l-.005.003-.004.003-.004.004a1.15 1.15 0 00-.081.058l-.042.037-.022.016c-.009.007-.018.015-.028.021l-.01.01-.016.012-.005.004-.007.005-.003.004-.022.015-.018.015c.013-.036.051-.045.074-.07l.008-.006a.037.037 0 00.009-.013h-.015l-.01.01-.012.01c-.013.012-.024.025-.037.035a.234.234 0 00-.014.011l-.007.005a.28.28 0 01-.035.025h-.006v-.003l-.002-.001.004-.004h-.001a.04.04 0 00.004-.012l.005-.007-.007-.002h-.003v-.006c.005-.004.01-.01.015-.013 0-.002-.002-.002-.003-.002.004-.01.005-.01.049-.042l.02-.013v-.003l.006-.006.013-.01.008-.007c.001-.002.101-.09.123-.076a.135.135 0 00.018-.006l.012-.007.013-.005a.115.115 0 00.015-.006l.011-.01a.362.362 0 00.036-.035l.007-.006h-.003a.078.078 0 01-.02.007c0-.001 0-.003.002-.003l.01-.007.02-.012a.335.335 0 01.021-.013l.015-.012.016-.01.02-.013a.048.048 0 01.01-.006l.011-.007.023-.013-.002.003v.002l-.008.006-.011.01.04-.022.014-.01.024-.018-.006.002a.076.076 0 01.017-.013l.006-.005.015-.008.058-.034.01-.006c.033-.02.068-.035.102-.052l.015-.007.015-.008.015-.008.047-.02.008-.003.022-.009h.006c.015-.007.03-.012.045-.017l.009-.006.006-.002.005-.002.02-.012a.042.042 0 00.01-.01l-.03.015-.005.003h-.002l-.004.002-.007.002.005-.005.002-.002.017-.01.02-.01.004-.001.008-.004.004-.002.007-.003.012-.003.01-.005.015-.008v-.003h-.001a.305.305 0 01.026-.015l.02-.01.007-.003-.015.006a.599.599 0 00-.051.025l-.006.002-.005.002.03-.016-.019.009-.019.009-.008.004-.01.005-.022.011-.034.017.023-.014.015-.007c.034-.018.07-.03.102-.051l.01-.005.002-.002-.01.005-.022.011-.022.01a2.567 2.567 0 01-.081.038l-.018.009-.006.003c.031-.018.064-.033.097-.049l.014-.006zM51.6 18.945l.006-.018c.399-.118.25-.58.483-.801l.071.098.1-.006.059.086c.027.024.084.011.12.011.12-.443.322-1.185-.524-1.451a2.55 2.55 0 00-.11-.192c.029-.117.029-.117.003-.442h.001l.001-.001.002-.034a1.427 1.427 0 00-.13-.184c.046-.097.073-.156-.036-.309-.133.482-.13.596-.122.87l-.081-.076-.018.106a.682.682 0 01-.196.056l-.031-.11a5.231 5.231 0 01-.102-.005c-.07.34.096.672.031 1.011l-.029-.103c.003.372.157.725.137 1.1 0-.003-.001-.005.039.043.184.311.184.311.247.336v.053l.079-.038zm-1.343.622c-.127-.373-.297-.686-.773-.628-.06-.075-.347-.494-.423-.616a.766.766 0 00-.113.174c-.117-.227-.117-.227-.168-.263-.268.442.158.876.698 1.426a.373.373 0 01.188-.067.29.29 0 00.119.19l.472-.216zm-1.05.48c-.04-.01-.076-.04-.16-.113l.005.012a.604.604 0 00-.12-.116l-.026-.04c-.685-.734-.685-.734-.714-.744-.075.057-.075.057-.13.278-.135.119-.155.307-.26.444 0 0-.196-.01-.434-.046-.035.02-.035.02-.072.616.075.24-.068.46-.226.668.713-.317 1.425-.637 2.136-.96z" fill="#C9CFD4"/><path fill-rule="evenodd" clip-rule="evenodd" d="M49.956 20.087a174.856 174.856 0 003.651-2.289 22.547 22.547 0 00-1.36-4.21l-4.392 1.025 4.22 1.892C36.482 23.7 19.88 29.583 12.323 29.877c-.21.008-.424.009-.636 0 .35 1.046.771 2.057 1.261 3.026 8.043-1.017 22.864-6.346 37.008-12.816z" fill="#2D3236"/><path fill-rule="evenodd" clip-rule="evenodd" d="M9.324 25.485C5.925 27.956-.13 32.675.02 36.115c.106 2.453 3.249 3.743 6.712 3.682 10.398-.185 29.925-9.092 45.553-19.167l.883 3.694 8.926-10.508-15.572 3.635 4.22 1.891C35.15 26.54 18.547 32.423 10.99 32.716c-1.874.073-3.931-.452-4.015-2.39-.066-1.494 1.714-3.717 2.35-4.841zm28.153.763a64.533 64.533 0 003.539-1.729 708.55 708.55 0 01-3.574 1.338l.035.391zm-1.612.716a86.47 86.47 0 001.096-.482l-.04-.432-1.102.406.046.508zm-1.856.786c.455-.188.9-.375 1.338-.562l-.05-.542c-.438.16-.88.322-1.325.483l.037.621zm-2.304.928c.603-.237 1.198-.475 1.78-.712l-.039-.648c-.583.21-1.17.42-1.762.628l.02.732zm-3.152 1.192c.843-.308 1.679-.622 2.5-.938l-.022-.756c-.834.293-1.672.582-2.51.866l.032.828zm-4.097 1.424c1.15-.38 2.303-.778 3.446-1.189l-.032-.844a194.56 194.56 0 01-3.359 1.094l-.055.939zm-5.001 1.53c1.356-.38 2.757-.804 4.171-1.26l.055-.952c-1.43.44-2.827.846-4.164 1.202l-.062 1.01zm-5.635 1.344a63.77 63.77 0 004.75-1.102l.062-1.021c-1.64.416-3.176.75-4.554.97l.04.044-.298 1.109zm-5.704.399c.335.052.684.083 1.043.091.935.023 2.06-.072 3.327-.263l.323-1.205c-.834.095-1.593.136-2.26.116a8.766 8.766 0 01-1.954-.259l-.48 1.52zM6.73 28.535c-.641.345-2.286 1.698-2.275 3.048.01 1.21.996 2.182 2.463 2.69l.532-1.685c-.88-.515-1.323-1.288-1.322-2.27.001-.545.19-1.207.602-1.783z" fill="#C9CFD4"/><path d="M.49 51.42v-1.836h7.694c.48 0 .85-.125 1.108-.375.26-.25.39-.583.39-.997 0-.453-.13-.793-.39-1.02-.258-.226-.627-.339-1.108-.339H3.469c-.48 0-.916-.075-1.306-.224a2.83 2.83 0 01-.989-.621 2.736 2.736 0 01-.621-.947 3.21 3.21 0 01-.22-1.2c0-.423.069-.816.206-1.177.136-.361.339-.672.607-.932.268-.26.6-.465.995-.614.395-.15.848-.224 1.356-.224h7.37v1.835h-7.37c-.414 0-.735.113-.96.34-.226.226-.339.541-.339.946 0 .405.115.718.346.94.23.221.543.332.939.332h4.701c1.045 0 1.838.25 2.38.752.54.5.811 1.262.811 2.283 0 .443-.066.852-.198 1.228a2.636 2.636 0 01-.593.975 2.704 2.704 0 01-.995.644c-.4.154-.868.23-1.405.23H.489zm24.807 0l-1.963-7.385-2.908 6.835a1.436 1.436 0 01-.374.514.826.826 0 01-.544.18c-.423 0-.73-.23-.918-.694l-2.894-6.835-1.963 7.385h-1.765l2.64-9.885c.123-.5.42-.752.89-.752a.983.983 0 01.904.622l3.162 7.428 3.163-7.428c.17-.414.456-.622.861-.622.434 0 .72.251.862.752l2.626 9.885h-1.78zm13.667 0l-1.538-2.645h-4.857l.847-1.488h3.148l-2.287-3.93-4.66 8.063H27.57l5.902-10.058a1.38 1.38 0 01.367-.434.821.821 0 01.508-.159c.198 0 .365.053.501.16.137.105.257.25.36.433l5.916 10.058h-2.16zm12.792 0l-2.598-2.92h-3.84v-1.618h4.278c.65 0 1.139-.18 1.468-.542.33-.361.495-.883.495-1.568 0-.684-.172-1.191-.516-1.524-.343-.333-.826-.499-1.447-.499h-5.591v8.67h-1.779V40.915h7.37c.583 0 1.106.09 1.567.267a3.19 3.19 0 011.172.767c.32.331.565.734.734 1.206.17.472.255 1.002.255 1.59 0 .877-.186 1.61-.558 2.203a3.133 3.133 0 01-1.56 1.28l3.092 3.193h-2.542zm6.537 0v-8.67h-3.896v-1.836h9.587v1.835h-3.898v8.67h-1.793zM8.183 59v-5.687h5.677v1.074H9.512v1.245h4.21v.992h-4.21v1.302h4.348V59H8.183zm8.245-5.687h-1.8l2.56 2.763L14.315 59h1.952l1.97-2.245L20.21 59h1.951l-2.872-2.924 2.56-2.763h-1.8l-1.81 2.073-1.81-2.073zM22.64 59v-5.687h3.788c.358 0 .66.038.902.111.244.072.443.187.598.344.155.156.268.36.341.61.074.252.111.56.111.928-.002.48-.07.867-.202 1.163-.133.295-.34.51-.625.648-.283.135-.654.203-1.11.203h-2.474V59H22.64zm1.33-2.81h2.218c.22 0 .393-.03.52-.092a.517.517 0 00.266-.285c.052-.126.078-.296.078-.509 0-.298-.062-.516-.185-.654-.121-.138-.348-.206-.679-.206h-2.219v1.745zm6.427-1.746v1.737h2.778c.28 0 .476-.067.587-.2.112-.134.17-.357.174-.668 0-.312-.055-.534-.164-.668-.11-.134-.309-.2-.597-.2h-2.778zM35.368 59h-1.337v-.884c0-.282-.082-.488-.244-.614-.162-.128-.433-.19-.811-.19h-2.572V59h-1.337v-5.687h4.22c.31 0 .583.03.819.09.234.06.44.164.613.312.172.147.307.351.402.613.096.262.143.591.143.986 0 .393-.072.7-.217.923a1.83 1.83 0 01-.592.559c.24.094.411.168.513.22a.768.768 0 01.277.274c.082.13.123.306.123.53V59zm.887 0v-5.687h5.677v1.074h-4.348v1.245h4.21v.992h-4.21v1.302h4.348V59h-5.677zm10.952-5.687c.445 0 .808.058 1.088.173.28.114.484.289.614.526.131.236.196.538.196.906h-1.329c-.013-.188-.064-.325-.152-.407-.09-.084-.265-.124-.53-.124h-2.232c-.428 0-.642.197-.642.59 0 .237.054.393.16.468.107.075.267.113.48.113h2.427c.351 0 .636.018.852.054.216.035.4.109.552.221.153.112.267.283.344.511.078.229.117.538.117.927 0 .403-.065.732-.195.986a1.19 1.19 0 01-.606.563c-.273.12-.631.18-1.07.18h-2.686c-.468 0-.84-.058-1.11-.172a1.1 1.1 0 01-.586-.526c-.117-.236-.175-.541-.175-.916h1.36c0 .143.063.269.19.378a.7.7 0 00.467.162h2.225c.296 0 .515-.05.655-.15.14-.1.21-.262.21-.487a.817.817 0 00-.071-.364c-.047-.094-.137-.166-.27-.217a1.658 1.658 0 00-.564-.076h-1.97c-.395 0-.723-.024-.981-.07a1.436 1.436 0 01-.624-.251 1.03 1.03 0 01-.349-.518c-.073-.224-.11-.514-.11-.874 0-.286.038-.532.115-.737a1.13 1.13 0 01.36-.497c.165-.128.375-.221.632-.281.257-.06.573-.09.95-.09h2.258zm7.18 0c.446 0 .809.058 1.09.173.278.114.483.289.613.526.13.236.196.538.196.906h-1.329c-.013-.188-.064-.325-.152-.407-.09-.084-.265-.124-.53-.124h-2.232c-.428 0-.642.197-.642.59 0 .237.053.393.16.468.107.075.267.113.48.113h2.426c.352 0 .637.018.853.054.216.035.4.109.552.221.152.112.267.283.345.511.077.229.116.538.116.927 0 .403-.066.732-.195.986-.13.255-.33.442-.606.563-.273.12-.631.18-1.072.18h-2.684c-.468 0-.84-.058-1.11-.172a1.1 1.1 0 01-.586-.526c-.117-.236-.176-.541-.176-.916h1.36c0 .143.064.269.192.378a.7.7 0 00.466.162h2.225c.296 0 .515-.05.655-.15.14-.1.21-.262.21-.487a.817.817 0 00-.071-.364c-.047-.094-.137-.166-.271-.217a1.654 1.654 0 00-.563-.076h-1.97a5.72 5.72 0 01-.981-.07 1.444 1.444 0 01-.625-.251 1.034 1.034 0 01-.348-.518c-.073-.224-.11-.514-.11-.874 0-.286.038-.532.115-.737a1.13 1.13 0 01.36-.497c.164-.128.374-.221.632-.281.257-.06.574-.09.95-.09h2.257z" fill="#C9CFD4"/><path fill-rule="evenodd" clip-rule="evenodd" d="M45.813 30.951c-.234 0-.255-.1-.523-.1.1-.153.297-.155.38-.316.214-.417-.056-1.191-.576-1.191-.428 0-1.45.59-1.897.837-.275.152-.333.07-.701-.02l-3.647-.888c-.25-.054-.468-.122-.736-.183l-.897-.218-.02-.006-1.205-.284a3.667 3.667 0 01-.32-.077c-.109-.033-.248-.052-.367-.09-.242-.078-.498-.108-.74-.18-.255-.075-.701-.17-.803-.157-.254.032-.62.21-.836.228v.1c.245.059.715.3.968.416.458.21.999.486 1.456.652l.73.325c.106.046.149.073.248.114l4.03 1.8c.08.04.048.022.142.057.095.036.167.077.244.119-.02.09-.057.222-.009.31.038.068.194.134.279.15.12.025.44.008.58.008l.328.502c-.092.063-.19.104-.3.162-.31.168-.628.283-.93.455-.104.06-.193.103-.3.16-.112.06-.199.092-.309.154l-3.133 1.58c-.094 0-.1-.02-.185-.044a3.076 3.076 0 00-.217-.047l-.407-.12c-.126-.028-.299-.056-.435-.09l-2.355-.502c-.099 0-.05.02-.16.07-.128.057-.401.199-.494.298.023.086.053.11.096.17.073.096.063.07.152.145.1.086.055.077.137.161.075.078.085.049.161.137.151.171.476.452.566.626l-1.356-.252a8.072 8.072 0 00-1.523-.183c-.239 0-.465.24-.72.3.017.195.22.175.373.223.108.034.114.049.207.09l1.188.39c.104.033.111.05.211.086.09.032.178.055.25.078l.94.312c.074.022.148.061.21.085.083.032.175.058.253.077v.066c-.107.03-.49.389-.49.503 0 .435.511.22.727.175l.58-.109c.082 0 .144.063.192.106l.477.482c.006.005.013.01.018.016l.309.32c.146.196.381.425.642.318l.023-.011.38-.181c.091-.052.105-.103.117-.215.017-.153-.02-.42-.033-.598a4.201 4.201 0 00-.096-.572c.45-.038 1.765-.322 2.254-.438.078-.019.173-.04.24-.055.169-.036.303-.083.439-.153l.39-.205c.316-.194.68-.335 1.012-.504l1.22-.593a2.3 2.3 0 01.662-.26c.321-.066.674-.116 1.001-.214.315-.093.547-.217.84-.348.163-.074.253.032.428.078.208.055 1.296.343 1.424.417.34.193.766.763 1.086 1.033a.72.72 0 01.144.153c.131.174.313.263.464.428.032.035.052.061.077.09l.693.699c.18.157.425-.055.614-.127.266-.101.202-.155.202-.155l-.334-2.457c.282-.068.525-.217.777-.343.136-.068.241-.118.363-.197a.413.413 0 00.19-.286c.017-.082.011.12.011-.045 0-.33-.146-.77-.523-.77-.367 0-.731.295-1.014.302l-.117-.885c-.109-.512.048-.414.442-.624.114-.061.125-.076.268-.128.142-.05.162-.089.28-.147l.987-.464c.051-.022.1-.039.161-.069.078-.038.17-.086.261-.134.108-.059.184-.082.298-.13l1.974-.96c.097-.055.195-.094.287-.142l.584-.273c.458-.204.888-.492 1.311-.767l.476-.385c.121-.12.314-.25.433-.393l.199-.231c.167-.22.3-.455.3-.73 0-.361-.636-.489-.944-.54-.452-.077-.877-.063-1.345-.063-.163 0-.23.04-.364.063l-.679.176-2.805 1.346c-.48.268-.994.468-1.477.733-.113.063-.195.075-.302.126l-1.428.715c-.105.053-.175.095-.286.142-.11.047-.202.072-.3.128l-1.748.857z" fill="#C9CFD4"/></g><defs><clipPath id="clip0"><path fill="#fff" d="M0 0h64v59H0z"/></clipPath></defs></svg>