<svg xmlns="http://www.w3.org/2000/svg" viewBox="0 0 154.5 26.1"><defs><style>.cls-1{fill:#fff;stroke-miterlimit:10;}.cls-1,.cls-2{stroke:#fff;}.cls-2{fill:none;}</style></defs><title>Ресурс 1</title><g id="Слой_2" data-name="Слой 2"><g id="Слой_1-2" data-name="Слой 1"><path class="cls-1" d="M2.8,17.1a2.06,2.06,0,0,1-1.7-.7,3.1,3.1,0,0,1-.6-2.1,7.57,7.57,0,0,1,.1-1.5A6.33,6.33,0,0,1,2,9.5a3.1,3.1,0,0,1,2.4-1,2.06,2.06,0,0,1,1.7.7,2.93,2.93,0,0,1,.6,2.1,9.74,9.74,0,0,1-.1,1.6,6.33,6.33,0,0,1-1.4,3.3A3.58,3.58,0,0,1,2.8,17.1Zm.1-.8a1.87,1.87,0,0,0,1.4-.8,8.05,8.05,0,0,0,1-2.7,8.87,8.87,0,0,0,.2-1.5,2.08,2.08,0,0,0-.4-1.5,1.05,1.05,0,0,0-.9-.5,1.87,1.87,0,0,0-1.4.8,7.25,7.25,0,0,0-1,2.7,10.4,10.4,0,0,0-.2,1.5,2.81,2.81,0,0,0,.3,1.5A1.39,1.39,0,0,0,2.9,16.3Zm6.7.8a1.89,1.89,0,0,1-1.5-.6c-.5-.3-.6-.8-.6-1.5a2.49,2.49,0,0,1,.1-.8l.2-1.1a9.94,9.94,0,0,1,.7-2.4A3,3,0,0,1,9.7,9.4a4.73,4.73,0,0,1,1.9-.6l1.7-.3v1l-1.7.3a3,3,0,0,0-1.8.8A3,3,0,0,0,9,12.4a2.7,2.7,0,0,1,.8-.7,2,2,0,0,1,1.1-.3,1.61,1.61,0,0,1,1.3.6,2.54,2.54,0,0,1,.5,1.6,2.49,2.49,0,0,1-.1.8,3.56,3.56,0,0,1-1.1,2.1A3.08,3.08,0,0,1,9.6,17.1Zm.1-.8a1.39,1.39,0,0,0,1-.5,3,3,0,0,0,.6-1.5,3.54,3.54,0,0,1,.1-.6,1.49,1.49,0,0,0-.3-1,.91.91,0,0,0-.7-.3,1.39,1.39,0,0,0-1,.5,2.62,2.62,0,0,0-.6,1.5c0,.3-.1.5-.1.7a1.49,1.49,0,0,0,.3,1A1.17,1.17,0,0,0,9.7,16.3ZM15,11.8H13.5l.2-.8h2.8l-.4,2h1.1q2.1,0,2.1,1.5V15a2.41,2.41,0,0,1-2.7,2H14.3Zm1.6,4.4a1.69,1.69,0,0,0,1-.3A1.27,1.27,0,0,0,18,15v-.3a.6.6,0,0,0-.3-.6,1.55,1.55,0,0,0-.8-.2H15.8l-.3,2.3Zm5.7.9a2.06,2.06,0,0,1-2.2-2.2,2.77,2.77,0,0,1,.1-.9,3.84,3.84,0,0,1,1.1-2.3,2.73,2.73,0,0,1,1.9-.8,2,2,0,0,1,1.5.6,2.18,2.18,0,0,1,.5,1.7,3.44,3.44,0,0,1-.1.9v.2l-.3.2H21.3c0,.2-.1.4-.1.6a1.49,1.49,0,0,0,.3,1,1.49,1.49,0,0,0,1,.3,2.24,2.24,0,0,0,1-.3,1.38,1.38,0,0,0,.4-.3H24l.3.7-.6.3A2.65,2.65,0,0,1,22.3,17.1ZM24,13.6a3.54,3.54,0,0,1,.1-.6,1.22,1.22,0,0,0-.3-.9.91.91,0,0,0-.7-.3,1.39,1.39,0,0,0-1,.5,2.59,2.59,0,0,0-.6,1.4H24ZM27.1,11h1.1l1.2,3.4v.5h0l.1-.2a.1.1,0,0,1,.1-.1c0-.1.1-.1.1-.2L32.1,11h1.4l-1.1,6H31.3l.6-3.2c0-.2.1-.3.1-.6l.1-.3h0l-.2.3a2.09,2.09,0,0,1-.4.6L30,16H29l-.9-2.5c0-.1-.1-.2-.1-.3a.37.37,0,0,0-.1-.3c0-.1-.1-.2-.1-.3h0v.9L27.2,17H26.1Zm7.1,6,1.1-6h1.2l-.4,2.5h2.4l.4-2.5h1.2L39,17H37.8l.5-2.6H35.9L35.4,17Zm7.7-6h1.2l-.4,2h.8q2.1,0,2.1,1.5V15a2.41,2.41,0,0,1-2.7,2H41Zm4.2,6,1.1-6h1.2l-1.1,6Zm-3.2-.8a1.69,1.69,0,0,0,1-.3,1,1,0,0,0,.4-.9v-.3a.6.6,0,0,0-.3-.6,1.55,1.55,0,0,0-.8-.2h-.7l-.4,2.3ZM50.2,11h1.1l-.6,3.5-.1.6-.1.3h0c0-.1,0-.1.1-.2l.1-.1a2.09,2.09,0,0,1,.4-.6L53.9,11H55l-1.1,6H52.8l.6-3.7.1-.6.1-.3h0c0,.1-.1.2-.1.3s-.3.4-.4.6L50.3,17H49.2Zm2.2-.6a2.13,2.13,0,0,1-1.2-.3,1,1,0,0,1-.4-.9V8.8h1.1v.3c0,.2,0,.3.1.4a.75.75,0,0,0,.5.1,1.42,1.42,0,0,0,.6-.2,3.33,3.33,0,0,0,.3-.6h1.1a1.85,1.85,0,0,1-.7,1.2A2,2,0,0,1,52.4,10.4Zm7.9.6h2.2a2,2,0,0,1,1.4.4,1.39,1.39,0,0,1,.5,1,1.88,1.88,0,0,1-.2.8c-.2.2-.3.4-.6.5L63,14a.71.71,0,0,1,.6.3,1.05,1.05,0,0,1,.5.9,1.62,1.62,0,0,1-.7,1.4,3,3,0,0,1-2,.5H59.1Zm1.8,2.5a1.14,1.14,0,0,0,.8-.3.91.91,0,0,0,.3-.7A.76.76,0,0,0,63,12a.85.85,0,0,0-.6-.2H61.3L61,13.5Zm-.5,2.7a2,2,0,0,0,.9-.2,1,1,0,0,0,.4-.7v-.2c0-.5-.4-.7-1.1-.7H60.7l-.2,1.8Zm6,.9a2.06,2.06,0,0,1-2.2-2.2,2.77,2.77,0,0,1,.1-.9,3.84,3.84,0,0,1,1.1-2.3,2.73,2.73,0,0,1,1.9-.8,2,2,0,0,1,1.5.6,2.18,2.18,0,0,1,.5,1.7,3.44,3.44,0,0,1-.1.9v.2l-.3.2H66.6c0,.2-.1.4-.1.6a1.49,1.49,0,0,0,.3,1,1.49,1.49,0,0,0,1,.3,2.24,2.24,0,0,0,1-.3,1.38,1.38,0,0,0,.4-.3h.1l.3.7-.6.3A2.65,2.65,0,0,1,67.6,17.1Zm1.7-3.5a3.54,3.54,0,0,1,.1-.6,1.22,1.22,0,0,0-.3-.9.91.91,0,0,0-.7-.3,1.39,1.39,0,0,0-1,.5,2.59,2.59,0,0,0-.6,1.4h2.5Zm4.4,3.5a2.11,2.11,0,0,1-1.6-.6,2,2,0,0,1-.6-1.6,2.77,2.77,0,0,1,.1-.9,3.84,3.84,0,0,1,1.1-2.3,2.79,2.79,0,0,1,2-.8,3.19,3.19,0,0,1,1.4.3,2.19,2.19,0,0,1,.5.3l-.6.7h-.1l-.3-.3a.76.76,0,0,0-.4-.2,4.33,4.33,0,0,0-.5-.1,2.08,2.08,0,0,0-1.2.5,4.57,4.57,0,0,0-.7,1.7,2.77,2.77,0,0,0-.1.9,1.61,1.61,0,0,0,.3,1.1,1.22,1.22,0,0,0,.9.3,2.24,2.24,0,0,0,1-.3,1.38,1.38,0,0,0,.4-.3h.2l.3.7-.6.3A2,2,0,0,1,73.7,17.1Zm7-3.5a9.12,9.12,0,0,1,1.1-3,10.33,10.33,0,0,1,2.1-2.5l.4.5a11.87,11.87,0,0,0-1.6,2.3,10.71,10.71,0,0,0-.9,2.7,9.15,9.15,0,0,0-.1,1.6,8.08,8.08,0,0,0,.8,3.4l-.6.5a5.44,5.44,0,0,1-1.1-1.8,16,16,0,0,1-.3-2.3A6.75,6.75,0,0,1,80.7,13.6Zm7.2,3.5a.78.78,0,0,1-.7-.3,1,1,0,0,1-.3-.8l-.1-1c0-.4-.3-.6-.7-.6h-.7L84.9,17H83.7l1.1-6H86l-.5,2.5h.6a1,1,0,0,0,.9-.6l.4-1a2.18,2.18,0,0,1,.5-.8,1.14,1.14,0,0,1,.8-.3.75.75,0,0,1,.5.1.77.77,0,0,0,.3.1l-.3.8h-.4c-.2,0-.3.1-.4.4l-.4,1a1.2,1.2,0,0,1-.7.7.76.76,0,0,1-.4.1.52.52,0,0,1,.4.2,1.16,1.16,0,0,1,.5.7l.1,1.1c0,.2.1.4.3.4h.4v.8c-.1,0-.1.1-.2.1C88.3,17.1,88.1,17.1,87.9,17.1Zm2-.1L91,11h4l-.2.8H92L91.1,17Zm7.4-3.4a9.12,9.12,0,0,1-1.1,3,10.33,10.33,0,0,1-2.1,2.5l-.4-.5a11.35,11.35,0,0,0,1.5-2.3,10.71,10.71,0,0,0,.9-2.7,9.15,9.15,0,0,0,.1-1.6,8.08,8.08,0,0,0-.8-3.4l.6-.5a5.44,5.44,0,0,1,1.1,1.8,7.8,7.8,0,0,1,.4,2.2C97.4,12.7,97.4,13.2,97.3,13.6Zm4.8-1.2.2-1h4.8l-.2,1Zm-.4,2.2.2-1h4.8l-.2,1Z"/><path class="cls-1" d="M119.4,9,123.3.6h1.6l1,8.4h-1.2l-.3-2.2h-2.8l-1,2.2Zm4.9-3-.4-3.3V1.9h0c0,.1-.1.2-.1.3s-.1.4-.2.6L122,6Zm3.9-4.7,1.1.7.3-1.4h.8L130.1,2l1.4-.7.3.7-1.4.7,1.1.7-.6.7-1.1-.7-.3,1.4h-.8l.3-1.4-1.4.7-.3-.7,1.4-.7L127.6,2Zm5.3-.7h2.3a2.86,2.86,0,0,1,1.7.5,1.43,1.43,0,0,1,.6,1.2v.4a2,2,0,0,1-1,1.5,1.08,1.08,0,0,1-.7.3,2,2,0,0,1,.8.4,1.61,1.61,0,0,1,.6,1.3v.4a2.7,2.7,0,0,1-1,1.7,3.92,3.92,0,0,1-2.3.6h-2.3Zm1.7,3.6a1.37,1.37,0,0,0,1.1-.4,1.7,1.7,0,0,0,.6-1V2.5a1.14,1.14,0,0,0-.3-.8,1.22,1.22,0,0,0-.9-.3h-1.1l-.5,2.8Zm-.7,4a1.75,1.75,0,0,0,2-1.6V6.2Q136.5,5,135,5h-1.1l-.6,3.1h1.2ZM140,1.3l1.1.7.3-1.4h.8L142,2l1.4-.7.3.7-1.4.7,1.1.7-.6.7-1.1-.7-.2,1.5h-.8l.3-1.4-1.5.7-.3-.7,1.4-.7L139.5,2Zm6.5,7.8a2.49,2.49,0,0,1-1.9-.7,3.1,3.1,0,0,1-.6-2.1,8.08,8.08,0,0,1,.1-1.5,6.33,6.33,0,0,1,1.4-3.3,3.25,3.25,0,0,1,2.4-1,3.34,3.34,0,0,1,1.5.3,2.19,2.19,0,0,1,.5.3l-.6.7h-.1a1.38,1.38,0,0,0-.4-.3,1.69,1.69,0,0,0-1-.3c-1.3,0-2.1,1.2-2.5,3.5a7.72,7.72,0,0,0-.2,1.5c0,1.3.5,2,1.6,2a2.28,2.28,0,0,0,1.1-.3,2.19,2.19,0,0,0,.5-.3h.1l.3.7-.6.3A2.2,2.2,0,0,1,146.5,9.1Z"/><path class="cls-1" d="M122.5,25.6c-1.5,0-2.3-.7-2.3-2.1a2.2,2.2,0,0,1,.1-.8l.4-2.2a4.85,4.85,0,0,1,1.2-2.7,2.94,2.94,0,0,1,2.2-.9,3.34,3.34,0,0,1,1.5.3,2.19,2.19,0,0,1,.5.3l-.6.7h0a1.38,1.38,0,0,0-.4-.3,1.93,1.93,0,0,0-1-.3,1.75,1.75,0,0,0-1.4.7,3.43,3.43,0,0,0-.8,2.1.76.76,0,0,1,.5-.2,2.34,2.34,0,0,1,1.2-.2,2.54,2.54,0,0,1,1.6.5,1.75,1.75,0,0,1,.6,1.5,1.7,1.7,0,0,1-.1.7,4.1,4.1,0,0,1-1,2.2A3.41,3.41,0,0,1,122.5,25.6Zm.2-.8a1.61,1.61,0,0,0,1.1-.5,2.62,2.62,0,0,0,.6-1.5,4.33,4.33,0,0,1,.1-.5,1.06,1.06,0,0,0-1.2-1.2,3,3,0,0,0-1,.2c-.1.1-.3.1-.4.2l-.2,1.3c0,.2-.1.4-.1.7A1,1,0,0,0,122.7,24.8Zm6.4.8a1.86,1.86,0,0,1-1.6-.7,2.93,2.93,0,0,1-.6-2.1,9.15,9.15,0,0,1,.1-1.6,7.31,7.31,0,0,1,1.3-3.3,3,3,0,0,1,2.3-1.1,1.86,1.86,0,0,1,1.6.7,2.93,2.93,0,0,1,.6,2.1,10,10,0,0,1-.2,1.6,7.31,7.31,0,0,1-1.3,3.3A2.65,2.65,0,0,1,129.1,25.6Zm.1-.8a1.7,1.7,0,0,0,1.3-.8,6,6,0,0,0,.9-2.7,11.14,11.14,0,0,0,.2-1.7,2.65,2.65,0,0,0-.3-1.4,1,1,0,0,0-.9-.4,1.7,1.7,0,0,0-1.3.8,6,6,0,0,0-.9,2.7A11.14,11.14,0,0,0,128,23a2.65,2.65,0,0,0,.3,1.4A1.49,1.49,0,0,0,129.2,24.8Zm6.8.8a1.86,1.86,0,0,1-1.6-.7,2.93,2.93,0,0,1-.6-2.1,9.15,9.15,0,0,1,.1-1.6,7.31,7.31,0,0,1,1.3-3.3,3,3,0,0,1,2.3-1.1,1.86,1.86,0,0,1,1.6.7,2.93,2.93,0,0,1,.6,2.1,10,10,0,0,1-.2,1.6,7.31,7.31,0,0,1-1.3,3.3A2.42,2.42,0,0,1,136,25.6Zm.2-.8a1.7,1.7,0,0,0,1.3-.8,6,6,0,0,0,.9-2.7,11.14,11.14,0,0,0,.2-1.7,2.65,2.65,0,0,0-.3-1.4,1,1,0,0,0-.9-.4,1.7,1.7,0,0,0-1.3.8,6,6,0,0,0-.9,2.7A11.14,11.14,0,0,0,135,23a2.65,2.65,0,0,0,.3,1.4A1.27,1.27,0,0,0,136.2,24.8Zm6.8.8a1.86,1.86,0,0,1-1.6-.7,2.93,2.93,0,0,1-.6-2.1,9.15,9.15,0,0,1,.1-1.6,7.31,7.31,0,0,1,1.3-3.3,3,3,0,0,1,2.3-1.1,1.86,1.86,0,0,1,1.6.7,2.93,2.93,0,0,1,.6,2.1,10,10,0,0,1-.2,1.6,7.31,7.31,0,0,1-1.3,3.3A2.53,2.53,0,0,1,143,25.6Zm.1-.8a1.7,1.7,0,0,0,1.3-.8,6,6,0,0,0,.9-2.7,11.14,11.14,0,0,0,.2-1.7,2.65,2.65,0,0,0-.3-1.4,1,1,0,0,0-.9-.4,1.7,1.7,0,0,0-1.3.8,6,6,0,0,0-.9,2.7,11.14,11.14,0,0,0-.2,1.7,2.65,2.65,0,0,0,.3,1.4A1.8,1.8,0,0,0,143.1,24.8Z"/><line class="cls-2" x1="154.5" y1="13" x2="114.5" y2="13"/></g></g></svg>