<svg xmlns="http://www.w3.org/2000/svg" viewBox="0 0 133.56 98.74"><defs><style>.cls-1,.cls-2{fill:#fff;}.cls-2{stroke:#fff;}</style></defs><title>Ресурс 1вцв</title><g id="Слой_2" data-name="Слой 2"><g id="Слой_1-2" data-name="Слой 1"><path class="cls-1" d="M67.15,90.46l2.09-.92A2.66,2.66,0,0,1,71,89.29a1.46,1.46,0,0,1,1,.89,2.12,2.12,0,0,1,.13.38,2.24,2.24,0,0,1-.28,1.77,2.1,2.1,0,0,1-.54.61,1.76,1.76,0,0,1,.86,0,1.71,1.71,0,0,1,1,1,4.11,4.11,0,0,1,.15.42,2.58,2.58,0,0,1-.28,1.95,3.83,3.83,0,0,1-1.87,1.48l-2.09.91Zm2.95,2.63a1.72,1.72,0,0,0,.89-.78,1.61,1.61,0,0,0,.09-1.15,1.14,1.14,0,0,0-.09-.31,1,1,0,0,0-.61-.59,1.34,1.34,0,0,0-.94.11l-1,.43.66,2.73Zm1,3.91a1.79,1.79,0,0,0,1.22-2.24,2.8,2.8,0,0,0-.13-.38c-.31-.71-.92-.86-1.84-.46l-1,.43.75,3.08Zm6.13-5.57L77,90.49l4.18-1.83.23,1Zm9.36-.29L85.1,85.22l1.1-.48,1.24,5.09L89.31,89l-1.24-5.09,1.1-.48,1.23,5.09,1.87-.82L91,82.62l1.1-.48,1.44,5.92Zm7.25-9.72,1-.46.84,3.5.11.55,0,.29,0,0V85.1a.93.93,0,0,0,0-.14,4.19,4.19,0,0,1,.11-.65L97.14,80l1-.46,1.43,5.92-1,.46-.89-3.62-.11-.55,0-.3,0,0a1.77,1.77,0,0,1,0,.32c0,.26-.07.48-.11.65l-1.09,4.49-1,.46Zm6-2.65.77-.34.28.67.06,0a2.7,2.7,0,0,1,.28-.58,2.6,2.6,0,0,1,1.1-.94,1.51,1.51,0,0,1,1.36,0,2.52,2.52,0,0,1,1.09,1.32,4.68,4.68,0,0,1,.29.87,4.22,4.22,0,0,1-.06,2.56,2.54,2.54,0,0,1-1.39,1.48,2.36,2.36,0,0,1-.9.2,2.61,2.61,0,0,1-.4,0l.55,2.24-.25.51-.77.33Zm3.41,4.28a1.45,1.45,0,0,0,.79-.94,3.56,3.56,0,0,0-.07-1.87,4,4,0,0,0-.26-.8,1.6,1.6,0,0,0-.67-.85.82.82,0,0,0-.76,0,1.67,1.67,0,0,0-.74.71,3.74,3.74,0,0,0-.24.5l.85,3.49a1.21,1.21,0,0,0,.32,0A3,3,0,0,0,103.24,83.05Zm2.48-6.85,1-.46.84,3.5.11.55.05.29,0,0v-.18a.78.78,0,0,0,0-.14,3.27,3.27,0,0,1,.11-.65l1.14-4.36,1-.46,1.44,5.92-1,.46L109.62,77l-.11-.55-.05-.3,0,0a1.16,1.16,0,0,1,0,.32c0,.26-.07.48-.11.65l-1.09,4.49-1,.46Zm7.48,3.27-1.44-5.92,1.1-.48.6,2.49,2.2-1-.6-2.48,1.1-.48,1.44,5.92-1.1.48-.64-2.6-2.2,1,.64,2.6Zm7.55-3.17a1.94,1.94,0,0,1-1.3.16,1.35,1.35,0,0,1-.82-.8,2.7,2.7,0,0,1-.14-.4,2,2,0,0,1,.25-1.55,3.66,3.66,0,0,1,1.69-1.27l.88-.38-.08-.3a3,3,0,0,0-.12-.4,1,1,0,0,0-.56-.58,1,1,0,0,0-.82.07,2.31,2.31,0,0,0-.79.65,3.56,3.56,0,0,0-.29.41l-.11,0-.55-.54a3.2,3.2,0,0,1,.41-.54,3.45,3.45,0,0,1,1.24-.91,1.94,1.94,0,0,1,1.52-.1,1.7,1.7,0,0,1,1,1,4.13,4.13,0,0,1,.14.42l.93,3.79-.77.34-.29-.66-.06,0a1.94,1.94,0,0,1-.28.58A2.37,2.37,0,0,1,120.75,76.3Zm.06-1a1.21,1.21,0,0,0,.39-.28,2.8,2.8,0,0,0,.34-.44,3.36,3.36,0,0,0,.26-.5l-.3-1.18-.88.38a1.8,1.8,0,0,0-.94.78,1.07,1.07,0,0,0,0,.94.71.71,0,0,0,.43.42A1.26,1.26,0,0,0,120.81,75.29Z"/><path class="cls-1" d="M133.56,52.54a2.53,2.53,0,0,1-.66,1.88,3,3,0,0,1-2.13.63,10,10,0,0,1-1.53-.14A6.37,6.37,0,0,1,126,53.55a3.39,3.39,0,0,1-.71-3.9,2.45,2.45,0,0,1,.33-.49l.72.55v.12l-.27.36a2,2,0,0,0-.27,1q0,1.89,3.48,2.53a8.12,8.12,0,0,0,1.46.15c1.34,0,2-.52,2-1.58a2.46,2.46,0,0,0-.27-1.08,4.36,4.36,0,0,0-.27-.46v-.12l.72-.28a2.88,2.88,0,0,1,.33.61A3.64,3.64,0,0,1,133.56,52.54ZM130,45.67l-1-.17V40.94l1,.17Zm-2.52-9.75V33.64a2.3,2.3,0,0,1,.37-1.43,1.17,1.17,0,0,1,1-.48,1.35,1.35,0,0,1,.78.23,1.64,1.64,0,0,1,.51.57,3,3,0,0,1,.26.61,1.64,1.64,0,0,1,.25-.65,1.06,1.06,0,0,1,.93-.5,1.72,1.72,0,0,1,1.4.68,3.23,3.23,0,0,1,.54,2V37ZM130,34.09a1.16,1.16,0,0,0-.29-.81A.92.92,0,0,0,129,33a.59.59,0,0,0-.49.22.86.86,0,0,0-.19.61v1.08l1.68.29Zm2.64.46a1.59,1.59,0,0,0-.24-.94,1,1,0,0,0-.66-.41h-.2c-.47,0-.7.35-.7,1.05v1.08l1.8.31Zm-5.16-4.75V28.6l2,.36v-.72c0-1.39.5-2.08,1.52-2.08l.46,0c1.32.24,2,1.16,2,2.75v1.92Zm6-4.22-6-1.06v-1.2l6,1.06Zm-.84,3.22a1.55,1.55,0,0,0-.28-1,1.38,1.38,0,0,0-.86-.43l-.33,0a.71.71,0,0,0-.61.25,1.23,1.23,0,0,0-.2.79v.72l2.28.4Zm1-8.54a2,2,0,0,1-2.2,2.17,5.82,5.82,0,0,1-.92-.08,4.3,4.3,0,0,1-2.33-1.08,2.75,2.75,0,0,1-.79-2,2.82,2.82,0,0,1,.33-1.38,2.78,2.78,0,0,1,.33-.49l.72.55v.12a3,3,0,0,0-.27.35,2,2,0,0,0-.2.42,1.25,1.25,0,0,0-.07.45,1.48,1.48,0,0,0,.54,1.15,3.54,3.54,0,0,0,1.74.69,5.52,5.52,0,0,0,.87.08,1.53,1.53,0,0,0,1.08-.31,1.22,1.22,0,0,0,.33-.92,2.31,2.31,0,0,0-.27-1,5,5,0,0,0-.27-.44v-.12l.72-.29a2.79,2.79,0,0,1,.33.6A3.36,3.36,0,0,1,133.56,20.26Zm0-5.28a2.11,2.11,0,0,1-.56,1.56,2.24,2.24,0,0,1-1.64.55,4.86,4.86,0,0,1-.92-.09,4,4,0,0,1-2.33-1.09,2.78,2.78,0,0,1-.79-2,2.07,2.07,0,0,1,.56-1.56,2.29,2.29,0,0,1,1.67-.56,7.54,7.54,0,0,1,.89.08A4.15,4.15,0,0,1,132.76,13,2.79,2.79,0,0,1,133.56,15Zm-.84-.15a1.44,1.44,0,0,0-.54-1.1,3.63,3.63,0,0,0-1.74-.69,5.75,5.75,0,0,0-.88-.08,1.65,1.65,0,0,0-1.07.29,1,1,0,0,0-.33.78,1.4,1.4,0,0,0,.55,1.1,3.51,3.51,0,0,0,1.73.67,4.61,4.61,0,0,0,.88.09C132.25,15.89,132.72,15.54,132.72,14.83Zm.72-4.75-5.16-.9V11l-.84-.15V6l.84.15V8l5.16.9Zm.12-5.49a1.91,1.91,0,0,1-.38,1.26,1.36,1.36,0,0,1-1.06.43,2,2,0,0,1-.42,0,1.94,1.94,0,0,1-1.32-.85,3.65,3.65,0,0,1-.48-2v-1l-.3,0-.42-.05a1,1,0,0,0-.76.28,1.05,1.05,0,0,0-.26.78,2.38,2.38,0,0,0,.27,1,4.19,4.19,0,0,0,.27.43v.12l-.72.29a3.84,3.84,0,0,1-.33-.59,3.43,3.43,0,0,1-.33-1.5,2,2,0,0,1,.51-1.44,1.73,1.73,0,0,1,1.32-.54,3.75,3.75,0,0,1,.45,0l3.84.67v.84h-.72V2.7a2.22,2.22,0,0,1,.42.49A2.39,2.39,0,0,1,133.56,4.59Zm-.9-.46a1.24,1.24,0,0,0-.1-.47,3.4,3.4,0,0,0-.26-.49c-.11-.14-.23-.29-.36-.43l-1.2-.21v1a1.81,1.81,0,0,0,.33,1.18,1.1,1.1,0,0,0,.85.4.71.71,0,0,0,.56-.23A1.18,1.18,0,0,0,132.66,4.13Z"/><path class="cls-1" d="M3.57,76.6l7-6.07,1.43.64L9.49,79.24l-1.1-.49L9,76.66,6.49,75.54,4.67,77.09Zm5.71-.74,1-3.17a2.85,2.85,0,0,1,.11-.3l.1-.22a2,2,0,0,1,.12-.25l0,0-.19.23c-.16.16-.3.3-.43.41L7.19,74.93ZM15.14,78l.54-.81L19.85,79l-.55.81Zm6.22,5.67.55.25a4,4,0,0,0,.55-.27,3.8,3.8,0,0,0,1.07-1l2.09-2.75,3.67,1.64-2.94,4.34.71.32L25.63,88.3l-.88-.4.79-1.48L22,84.83l-1.12,1.34-.92-.42Zm3.89,1.74,2.45-3.64-1.53-.68-1.54,2.07A3.64,3.64,0,0,1,23,84.37Zm2.35,2.1a1.84,1.84,0,0,1-.39-.24.55.55,0,0,1-.14-.13l.5-.63.11,0,.05.06.13.09a.55.55,0,0,0,.52-.06,2.33,2.33,0,0,0,.71-.71l2.55-3.33,3.83,1.72-3.41,5L31,88.84l2.93-4.34-1.7-.76-2,2.65C29.34,87.51,28.48,87.86,27.6,87.47ZM37.11,85l1,.47-2,3-.34.45-.18.24,0,0,.13-.13L35.9,89a5.23,5.23,0,0,1,.56-.36l4-2.09,1,.47-3.42,5-1-.47,2.08-3.09.34-.46.18-.23,0,0a1.69,1.69,0,0,1-.25.2c-.22.15-.4.27-.56.36l-4,2.21-1-.46Zm2.61,7.74,3.42-5.05,1.09.49L42.8,90.32l2.19,1,1.43-2.12,1.1.49-3.41,5L43,94.23,44.5,92l-2.19-1-1.49,2.22Zm7.44,3.45a1.88,1.88,0,0,1-1-.85,1.33,1.33,0,0,1,0-1.15,1.9,1.9,0,0,1,.2-.37A2,2,0,0,1,47.72,93a3.71,3.71,0,0,1,2.07.4l.88.39.16-.25a2.75,2.75,0,0,0,.22-.37,1,1,0,0,0,.05-.8,1.07,1.07,0,0,0-.6-.56,2.42,2.42,0,0,0-1-.15,4.29,4.29,0,0,0-.5.07l-.11,0,0-.78a5,5,0,0,1,.67,0,3.3,3.3,0,0,1,1.5.3,2,2,0,0,1,1.11,1.06,1.75,1.75,0,0,1,0,1.43,3.85,3.85,0,0,1-.21.39l-2.18,3.23L49,96.9l.29-.66-.05,0a2.12,2.12,0,0,1-.62.18A2.34,2.34,0,0,1,47.16,96.21Zm.78-.63a1.1,1.1,0,0,0,.47.1,3.74,3.74,0,0,0,.55,0,5.44,5.44,0,0,0,.54-.15l.68-1-.88-.4a1.76,1.76,0,0,0-1.21-.17,1.07,1.07,0,0,0-.71.62.68.68,0,0,0,0,.59A1.1,1.1,0,0,0,47.94,95.58Z"/><line class="cls-2" x1="120.94" x2="120.94" y2="64"/><line class="cls-2" x1="123.64" y1="58.46" x2="55.64" y2="89.46"/><line class="cls-2" x1="62.22" y1="89.45" x2="0.22" y2="59.45"/></g></g></svg>