<svg xmlns="http://www.w3.org/2000/svg" viewBox="0 0 152.82 62"><defs><style>.cls-1,.cls-2{fill:#fff;}.cls-1{fill-rule:evenodd;}</style></defs><title>Ресурс 3</title><g id="Слой_2" data-name="Слой 2"><g id="Слой_1-2" data-name="Слой 1"><path class="cls-1" d="M78.52,60.7h26.6L6,35a31.13,31.13,0,0,0,3.8,10.7l34.4,15h20.2L42,52.5l7.8-.7ZM18,43.7,10.62,41l-.4-1.7,11.1,3.5Zm19.2,7-15.1-5.5,3.7-1L44,49.9Z"/><path class="cls-2" d="M14,51.1l0,0v0a.24.24,0,0,1,0,.14,29.9,29.9,0,0,0,10,7q.82.36,1.68.66l.91.31.75.23a31,31,0,0,0,4.11.91c.45.07.9.12,1.35.17l.29,0c.4,0,.81.07,1.22.09.58,0,1.16.05,1.75.05h1.2Zm49.9-14.6v.1a.1.1,0,0,1-.1-.1v.2h.1a.1.1,0,0,1,.1-.1Zm-.31-2.69-.09.09c0-.1,0-.2-.1-.2a.1.1,0,0,0-.1-.1v.1l-.1-.2c-.1,0-.1-.1-.1-.2h-.07a1.72,1.72,0,0,0,.07.21c.2.6.5.5.5.5A1.88,1.88,0,0,0,63.61,33.81ZM34.72,1.2l.49.1h.11A1.52,1.52,0,0,0,34.72,1.2Zm-1.8,0,0,0h.22l.06,0Zm-1.5.1h.2c.22,0,.45-.06.68-.08Zm-.1,0,0,0,.12,0Zm-.4.1a.64.64,0,0,0,.37-.08Zm-.6-.1h-.09L30,1.36l0,0c.2,0,.3-.1.5-.1Zm2.6-.1,0,0,0,0,.18,0,.06,0Zm.06.06a2.25,2.25,0,0,1-.46,0h.3c.12,0,.17,0,.17,0A0,0,0,0,0,33,1.26ZM28.32,36.8c-.1-.6-.3-.6-.9-.7s-1.1.3-1.6.4l2.63.58A.3.3,0,0,1,28.32,36.8Zm1.69.69h0c-.19-.1-.29-.28-.48-.38h-.1l-.1.1a1.3,1.3,0,0,0-.62,0h-.08l1.4.3ZM60.9,27.43a5.66,5.66,0,0,0-1.28-1.53,1.09,1.09,0,0,1,.1.5h-.1v.1c-.1,0-.1,0-.3.2a.35.35,0,0,0-.1-.2c-.09.43-.17.64-.19.75a.11.11,0,0,0,0,.05l1.9.2A.19.19,0,0,1,60.9,27.43ZM21.22,34.9c-.1-.1-.1-.1-.4-.2,0-.1.1-.2.1-.3l-.6-1.3V33h-.1c0-.2-.1-.3-.1-.4-.2,0-.3-.2-.5-.3a4.87,4.87,0,0,0-.1-1.2,4.07,4.07,0,0,0,.6-1.1h.1a.1.1,0,0,0-.1-.1v-.8c.1-.1.3-.3-.1-.7l1.47-2.11.13-.19-7.49-.89-.15,0-.16.09a27,27,0,0,0-6.1,4.61h0l0,.05a2.63,2.63,0,0,1,.46,1.25c.1.4.5.4.6.6s.2.2.4.7l12.6,2.9A2.65,2.65,0,0,0,21.22,34.9ZM6.47,28.52a.39.39,0,0,1,.08-.1c0-.22,0-.43,0-.64A.76.76,0,0,0,6.47,28.52Zm.15-.82a.17.17,0,0,0,0,.07.25.25,0,0,1,0-.07Zm0,0h.07a.82.82,0,0,1,0-.18A1.42,1.42,0,0,1,6.65,27.7Zm-.23-3.4h0a2.71,2.71,0,0,1-.1.89c-.5,2.1-.3,2.5-.3,2.5v.7a.64.64,0,0,0,0-.07c.09-.3.19-.74.28-.93v.1a.31.31,0,0,1,.1-.2l.3-.2a.42.42,0,0,1,0,.39l.08-.09.18.54a24.5,24.5,0,0,1,3.71-3.06l.09-.06Zm.3,3.4a.82.82,0,0,1,0-.18,1.42,1.42,0,0,1-.08.18Zm-.11.07a.25.25,0,0,1,0-.07h0A.17.17,0,0,0,6.61,27.77Zm-.14.75a.39.39,0,0,1,.08-.1c0-.22,0-.43,0-.64A.76.76,0,0,0,6.47,28.52Zm.18-.82h.07a.82.82,0,0,1,0-.18A1.42,1.42,0,0,1,6.65,27.7Zm0,0a.17.17,0,0,0,0,.07.25.25,0,0,1,0-.07Zm-.15.82,0,.08a.57.57,0,0,0,0-.18c0-.22,0-.43,0-.64A.76.76,0,0,0,6.47,28.52Zm-.4-2.73L6.22,25a2,2,0,0,0,.1-.7C6.22,24.8,6.13,25.29,6.07,25.79Zm0,2.54a1.21,1.21,0,0,0,0-.23,1.27,1.27,0,0,0-.1.6,10.58,10.58,0,0,1,0-1.78,22.26,22.26,0,0,0-.17,2.47c0,.33,0,.67,0,1v1.5h.1v-.5a1.27,1.27,0,0,0,.1-.6c0-.41.08-1.15.11-1.77A5.64,5.64,0,0,0,6,28.33Zm34.38-10a2.64,2.64,0,0,1-.15-.23h0a.14.14,0,0,1,0-.09.15.15,0,0,1,0-.07c.2-.1.2-.1.4-.4v-.1c0-.1-.1-.2-.1-.3h.1c0-.1.1-.2.1-.3-.5,0-.8.4-1,.5h-.1a.22.22,0,0,1-.2.2l-.1-.1h-.1l-.1.1c-.2-.1-.4,0-.5-.1s0-.2-.1-.2c-.3.1-.3.1-.7,1h-.1l-.07.11a.49.49,0,0,0,0,.11c-.13.35,0,.75-.29,1.08a2.48,2.48,0,0,0,.4.6v.1c-.4,0-.4,0-1,.5,0-.1.1-.2.1-.3a.55.55,0,0,0-.9.1l.1.1a.31.31,0,0,1-.2.1.35.35,0,0,0-.1-.2.78.78,0,0,0,0,.5.1.1,0,0,1-.1.1.1.1,0,0,0,.1.1v.1a1.4,1.4,0,0,1,.4.4.1.1,0,0,1-.1.1c-.6-.4-.6-.4-.9-.3l-.1-.3c-.5-.6-.5-.7-.5-.8-.1-.3.3-.8-.2-1.1A1.59,1.59,0,0,1,34,19l-.07-.09A13.89,13.89,0,0,0,33,17.7a.35.35,0,0,0-.2.1l-.1-.4c-.18.09-.79.44.13,1.67l.07.09.2.24c.2,0,.2-.1.4.1a.1.1,0,0,1-.1.1c.2.3.7.4.8.8a.1.1,0,0,1-.1.1c-.1-.1-.2-.3-.4-.4-.3.3-.2.3,0,.6v.1a1.89,1.89,0,0,0-.4.6h-.1v-.1c.1-.3.1-.3.2-.3,0-.6-.1-.6-.3-.7-.1-.4-.6-.5-.9-.8,0-.1-.1-.1-.1-.2v-.2H32c-.5-1.2-.5-1.2-.9-.8-.3,0-.4.3-.6.4a2.83,2.83,0,0,1-.6-.3c-.1,0-.1,0-.4.7-.1.36-.55.56-.9.79l-.19.14h0a.58.58,0,0,0-.2.76,3.92,3.92,0,0,0-.9.8c-.5,0-.9.2-1.4.2a.75.75,0,0,1-.1-.5l-.1-.1H25a.91.91,0,0,0-.19-.29l-.08-.08A47,47,0,0,0,18.1,23.1l.19,0,5.83.58.1-.1a16.61,16.61,0,0,1,1.4-1.3c.2.3,1,.5,1,.5.4,0,.6-.3,1-.3.6-.8,1.5,0,2.1-.4.3.1.3.1.4,0,.3.2.7-.1,1,0a.35.35,0,0,0,.1.2.1.1,0,0,0,.1-.1v.1c-.1.1-.2.1-.2.2.2.5.2.5-.3,1.1v.1c.2.2.2.2.4.2.2.69,1,.31,1.38.69h0l1.9.2v0a.1.1,0,0,1,.1-.08c.4-.4.5-.4,1.2.1a2.36,2.36,0,0,0,.34.14l.16.06,2.1.2a.12.12,0,0,0,.06,0,.09.09,0,0,0,0-.08h.6c.09.09.27.1.37.18l0,0h.11c1.19-.4.39-1.89.79-2.79v-.1c-.1,0-.2.1-.3.1-.4-.2-.5.3-.9.3-.2,0-.3-.2-.5-.3s-.2-.1-.3-.1a.1.1,0,0,0-.1.1v.2c-.3.2-.3.2-.7-.2h-.1c-.1,0-.1-.1-.2-.1l.1-.1h-.3c0-.1-.1-.3-.1-.4l-.1-.1h-.1v-.2h.1v-.4h-.1a.1.1,0,0,0-.1-.1c.3-.4.9-.2,1.2-.6l-.1-.1.1-.1c.2.1.2.1.6,0,.1-.1.1-.1,1.3-.6a.22.22,0,0,1,.2.2.65.65,0,0,1,.5.2,3,3,0,0,0,.69.09A1,1,0,0,0,42,19.9C42.22,19.7,40.92,18.3,40.42,18.3Zm-12-2.4c.1-.1.1-.1.1-.4l-2.9-.09-6.24-.18L11.52,15l0,0a2.44,2.44,0,0,1-.38.46c0-.1.1-.2.1-.3a.77.77,0,0,0-.2.3,2,2,0,0,1-.39.59c.49-.79.49-.79.49-.89a5.58,5.58,0,0,0-.5.8s-.1.2-.5.9c-.1.3-.5.3-.7.6,0,.1,0,.1-.1.1l-.2.2v-.1c-.2.7-.6,1.3-.8,1.9a8.66,8.66,0,0,1-.5,1.2h-.1a12.8,12.8,0,0,1,.5-1.7,3.36,3.36,0,0,0,.3-1.4h-.1v-.1l-.1.25a.14.14,0,0,0,0,.06,2.05,2.05,0,0,1-.08.19A35.82,35.82,0,0,0,7,21.68a.35.35,0,0,1,.1-.18A1.09,1.09,0,0,1,7,22l2,.19,5.3.53c.56-.31,1.14-.61,1.75-.92a49.14,49.14,0,0,1,9.39-3.08,1.62,1.62,0,0,0,0-.22,1,1,0,0,1,1,0h0c.45.17.9.42,1.35.14a.65.65,0,0,0,.34-.52c.06-.48-.3-1,.06-1.48a.22.22,0,0,1-.2-.2.69.69,0,0,1-.5-.3l.1-.1-.1-.1.1-.1A2.2,2.2,0,0,1,28.42,15.9ZM39.12,4.7V4.4h-.4c.1.1.1.1.1.2a.1.1,0,0,0-.1.1v.1s.3.4.5.4C39.42,5,39.12,4.9,39.12,4.7Zm-.3,1c.1-.1.1-.1.1,0H39c-.4-.7-.4-.8-.7-1.3l-.4.1c.2.2.9.9.3,1.3l-.7-.4h-.1c0-.1-.1-.1-.1-.2h-.1c.1.4,1,.7.5,1.1,0,0,.1.6.4.6l.3.3.1-.1c-.1-.2-.1-.2-.2-.2-.2-.3-.2-.3-.2-.5h.1c0,.1.2.2.2.3a.1.1,0,0,1,.1-.1c.3.2.3.2.4.2-.1-.2-.3-.4-.4-.6s.1-.3.2-.5Zm-2.1,4.4c-.1-.1-.2-.1-.3-.2V9.7h-.1l-.1.1H36a1,1,0,0,1-.3.1h-.1a.1.1,0,0,1-.1.1h-.1c-.1,0-.1,0-.1.1,0-.1,0-.1-.1-.2a.1.1,0,0,0-.1.1V9.8A.37.37,0,0,1,35,9.48.66.66,0,0,1,35,9.2a2.15,2.15,0,0,1,0-.8c0-.1,0-.1.1-.1s0-.2.1-.2.1,0,.2-.3.2-.4.2-.6V7.1h.1V7s0-.3-.1-.3h-.3c0,.1,0,.1-.1.2V7c-.1.1-.1.1-.1.4-.1.1-.1.3-.2.4h-.1l-.2.2c0,.1,0,.1-.1.2h-.1c0,.1,0,.2-.1.2h-.1v.4h-.1v.6c0,.1,0,.1-.2.3H34l.1-.1h.1a.9.9,0,0,1,.12.4c0,.08,0,.1,0,.1l-.1.1h.2c0,.1,0,.1-.1.2v-.1a.31.31,0,0,0-.1.2H34v.6a.35.35,0,0,1-.1.2v.4c-.1.2-.1.2-.2.2a.31.31,0,0,0-.2.1v.2c0,.1,0,.1-.1.1h-.3v-.1s-.1,0-.1.2-.1.1-.2.1v-.1l-.1-.1v-.1H33l.1-.1c.1,0,0-.1,0-.1h.1v-.1l-.1-.1v-.5c0,.1,0,.1-.1.1v-.1a.14.14,0,0,1,0-.2v-.6a.37.37,0,0,0-.1.3l-.1.1h-.1c-.1.1-.1.1-.1.2s-.1.4-.1.6l.1.1v.1h-.1V12a.1.1,0,0,1-.1.1v.1a.1.1,0,0,0-.1.1v.5a.1.1,0,0,0,.1.1h1.8c.3-.2.3-.1.5,0H35v-.1h.1c.08,0,.16-.07.19-.2a.31.31,0,0,0,0-.1v-.6c.2-.5.2-.5.3-.6a.1.1,0,0,1,.1.1l.2.2c.1-.1.1-.1.1-.4V11h-.1c0-.1-.1-.2-.1-.3h-.1v-.2c.1-.1.1-.1.2-.1H36l.2-.1.1.1h.2v-.1c.1,0,.1,0,.2-.1h.1Zm-9.4-4.9c-1.3.7-2.3,1.9-3.6,2.5h-.1V7.6h-.1a2.25,2.25,0,0,1,.5-.5V7h-.2V6.9l.1-.1h-.1a15.93,15.93,0,0,1,1.3-1.3.56.56,0,0,1,.27-.18l-2.47.28h-.1l.1-.1-.8.1a.31.31,0,0,0-.1.2c-1.3.9-1.5,1-1.6,1v.1h.2a.75.75,0,0,1-.3.3c.2,0,.3-.2.5-.2.5-.3.8-.6,1.1-.6-.5.3-.8.8-1.3,1.1-.8.7-.8.7-.9.7a.1.1,0,0,1-.1.1v.1s-.4.6-.5.7a.77.77,0,0,1-.1.3.1.1,0,0,0,.1.1c0,.2,0,.2-.2.3-.3-.2-.5.1-.7.1v.2c.3,0,.4-.3.7-.2V10a1.87,1.87,0,0,0-.3.4L18,11c-.2.1-.5.1-.7.2s-.4.4-.7.4a.53.53,0,0,1-.4-.5c-.2,0-.4.2-.7.3s-.4.2-1,.6c1-.4,1-.4,1-.3.1.3-.3.5-.5.5v-.1c0,.1-.1.3-.1.4l-.1.1,17.3.1v-.5l-.1-.1a.37.37,0,0,1,.1-.3v-.3H32v-.2h-.1v-.2c0-.17.22-.2.22-.33a.25.25,0,0,0,0-.07h-.2v-.1c.2,0,.2,0,.2-.1v-.1a1,1,0,0,1,.3-.4V9.9c-.2,0-.2.4-.4.4l.1-.1-.1-.1V10a.1.1,0,0,1,.1-.1c0-.1,0-.1.1-.2h.2a.1.1,0,0,1,.1.1h.1V9.7h-.1V9.6h-.2V9.3h.1c-.1-.1-.1-.1-.1-.2h.2c0-.1,0-.1.1-.1a.1.1,0,0,1,.1-.1l.1-.1.1.1c.1-.1.1-.1,0-.2V8.6H33V8.5c.1,0,.2-.2.3-.2a.1.1,0,0,0,.1-.1V8A8.37,8.37,0,0,1,34,6.7h.1c0-.1.1-.1.1-.2h-.1l.1-.1a.1.1,0,0,1,.1-.1V6.2c0-.2.1-.2.2-.3V5.8h-.1c.1-.1.1-.1.2-.1V5.5c.3-.1.3-.4.4-.6l.1-.1c0-.1,0-.1.1-.2Zm6.1,3v.2a.1.1,0,0,0,.1-.1Zm-1.1,3.2v.1h.1a.35.35,0,0,0,.1-.2v-.1A.22.22,0,0,1,32.32,11.4Zm-.1,0-.1.1h.1c0-.1,0-.1.1-.1ZM21.92,5.8c0-.1.1-.1.2-.2C21.92,5.7,21.92,5.7,21.92,5.8Zm-1.1-.1-1.6.1c-.2.1-.2.2-.3.2-.7.5-.9,1.3-1.6,1.8-1.48,1.29-1.7,1.4-1.79,1.69l.09-.09v.1a17.38,17.38,0,0,1,1.5-1.3l.1-.1.1-.1c1.2-.4,2-1.6,3.1-2.1V6l.3-.2h-.1A.35.35,0,0,0,20.82,5.7Zm9.5-4.4h-.09L30,1.36l0,0c.2,0,.3-.1.5-.1Zm.6.1a.64.64,0,0,0,.37-.08Zm.4-.1,0,0,.12,0Zm.1,0h.2c.22,0,.45-.06.68-.08Zm3.3-.1.49.1h.11A1.52,1.52,0,0,0,34.72,1.2Zm-3.3.1h.2c.22,0,.45-.06.68-.08Zm-.12,0,.12,0h-.1Zm0,0-.37.08A.64.64,0,0,0,31.29,1.32Zm-1.06,0L30,1.36l0,0c.2,0,.3-.1.5-.1h-.19Zm14-.2A31,31,0,0,0,36.12,0c-1.1,0-2.2.1-3.2.2V.3h.6c.3.1.3.1.4.1h-.1l-.5,0a3.38,3.38,0,0,0-1,.13l-1,.1a5.1,5.1,0,0,0-.9.1h1.2a7.08,7.08,0,0,0-1.1.1H31c-.4,0-.4,0-.5.1h.4c-.2,0-.5.1-.7.1l-.69.11c-.36.07-.76.14-.91.19s-.1.1-.2.1h.1s-.5.1-.8.2h-.1c-.2,0-.2,0-.3.1a11.63,11.63,0,0,0,1.8-.4h-.2a1.06,1.06,0,0,1,.6,0c-.2.1-.5.1-.7.2s-.2.1-.3.1a3.22,3.22,0,0,0-.7.4,3,3,0,0,1,1-.2l-.4.1A3.75,3.75,0,0,1,28,2l.06,0L28,2h0a1.58,1.58,0,0,0-.56.21h.15a.36.36,0,0,0-.15.1h.1l.3-.1h.1l0,0a1.74,1.74,0,0,1,.45-.06,1.09,1.09,0,0,1,.5-.1c.2-.1.2-.1.3-.1s.3-.1.5-.1H30c-.1,0-.2.1-.3.1L27,2.7l1.3-.1c.1,0,.3-.1.4-.1h.05l.07,0A.64.64,0,0,1,29,2.4h-.1c.9-.2.9-.2,1-.3H30a3.52,3.52,0,0,0,.7-.19h.06s0,0,0,0c.22,0,.53-.09.62-.09h.1a.9.9,0,0,0,.23,0l0,0,.1,0a3.05,3.05,0,0,0,.5-.08h0l.46-.09h.1l.45,0a1.71,1.71,0,0,1-.45,0,4.37,4.37,0,0,1-.5.09l.37,0a.81.81,0,0,1,.33,0h.2c-.16,0-.34,0-.53,0a.18.18,0,0,0-.07.05h.2a1.85,1.85,0,0,0-.7.2h-.3c-.2,0-.2,0-.3.1h-.1l-.3.1H31c-.2.1-.2.1-.3.1h.2c-.2.1-.4.1-.5.2h-.2a.09.09,0,0,0-.09.08v0c-.1,0-.1.1-.2.1l1.9-.2c.1,0,.2-.1.3-.1a.1.1,0,0,1-.1.1h.1l.44-.16.32-.11-.16.07c.08,0,.15-.06.22-.08l.08,0h0L33.42,2c.44-.1,1.2-.27,2.08-.44l-.68.24-.3.2h.1c-.17,0-.19,0-.26.06l0,0,3.1-.3a.11.11,0,0,1-.07,0,.08.08,0,0,1,0-.07s.08,0,.09.07a0,0,0,0,1,0,0h.1c-.07,0-.09,0-.09,0a.11.11,0,0,1,0-.06c.08,0,.1,0,.15.05l0,.05h.2l-.17-.06c-.67-.24-1.18-.34-1.39-.42s-.16.08-.24.08h-2.5a6.82,6.82,0,0,0,1.2-.1h.49a2.69,2.69,0,0,1-.89-.1h.39l-.4-.09A1.48,1.48,0,0,1,34,1c.34,0,.88.09,1.49.17h0l.7.1,0,0a.07.07,0,0,1,.06,0H37c.5,0,1,.1,1.6.1.3,0,.6.1.9.1h.4a.6.6,0,0,1-.4-.1l.6.1h.4l-.18,0a2.46,2.46,0,0,0-.62-.08,1.32,1.32,0,0,1-.55-.08A12.7,12.7,0,0,0,41,1.3c-.1,0-.1,0-.3-.1h.45l1.16.07.19,0-.1,0-.3-.08h.2a.31.31,0,0,1-.2-.1c.4,0,.7.1,1,.1Zm-15.16.7,0,0v0h0a2.64,2.64,0,0,1-.49.1L29,1.8l.16,0L29,1.8Zm.46-.1.5-.1A1.09,1.09,0,0,1,29.52,1.7ZM32,1.3h-.4s-.5.1-.9.2h-.2l.4-.1h-.6s-.6.1-.7.1h-.1a1,1,0,0,0,.3-.1l.15,0a.76.76,0,0,1,.26-.06A3.56,3.56,0,0,1,31,1.2h1.9l0,0C32.4,1.25,32,1.3,32,1.3Zm3.5.3,0-.05h0Zm-1.25-.18L34,1.5h-.2A3.54,3.54,0,0,0,34.27,1.42Zm-.57.15L34,1.52s0,0,0,0h1.66c-.5,0-.85,0-1.19,0l0,0h-.44l-.09,0,.46,0a6.58,6.58,0,0,1-.72.08h-.23Zm-.54-.35.06,0h.4Zm1.56,0,.49.1h.11A1.52,1.52,0,0,0,34.72,1.2Zm-3.3.1h.2c.22,0,.45-.06.68-.08Zm-.12,0,.12,0h-.1Zm-.38.08a.64.64,0,0,0,.37-.08Zm-.5-.1h-.19L30,1.36l0,0C30.12,1.4,30.22,1.3,30.42,1.3Zm-.1,0h-.09L30,1.36l0,0c.2,0,.3-.1.5-.1Zm.6.1a.64.64,0,0,0,.37-.08Zm.4-.1,0,0,.12,0Zm.1,0h.2c.22,0,.45-.06.68-.08Zm5.89.05a1.92,1.92,0,0,0,.41,0h.1Zm-.3,0h0a.11.11,0,0,0-.08,0s0,0,0,0h0l.31,0ZM34.72,1.2l.49.1h.11A1.52,1.52,0,0,0,34.72,1.2Zm-3.3.1h.2c.22,0,.45-.06.68-.08Zm-.1,0,0,0,.12,0Zm-.4.1a.64.64,0,0,0,.37-.08Zm-.6-.1h-.09L30,1.36l0,0c.2,0,.3-.1.5-.1Zm-2.5.7h0Zm33,10.7c-.26-.36-.53-.71-.82-1A31.1,31.1,0,0,0,53,5.17C52.62,5,52.6,5,52.52,4.9a.09.09,0,0,1-.09-.08l0,0h-.08c-.1,0-.1-.1-.2-.1a2.19,2.19,0,0,0-.5-.3l-.1-.1h.06l0,0,.07,0h0c.28.16.55.33.82.5h0v0l.53.35.26.13c.2.1.4.3.6.4s.1.1.2.1l.1.1c.06.06.42.27.92.63v0h0l0,0-.06-.06,0,0-.05,0a2.73,2.73,0,0,1-.3-.22L54.32,6l-.25-.17-.15-.1-.22-.16L53,5.1h0l0,0h0L52.88,5l-.06,0a1.17,1.17,0,0,0-.2-.14h-.1l-.6-.4-.6-.3-.51-.24h0l-.06-.05-.19-.09H50c.1.1.3.1.4.2s.5.3.7.4a.1.1,0,0,1,.1.1.37.37,0,0,0,.3.1.1.1,0,0,1,.1.1l.1.1h-.1s.4.3.5.4l-.2-.1a.1.1,0,0,0,.1.1,1.87,1.87,0,0,0,.4.3v.1a14.7,14.7,0,0,1,1.3,1A7.41,7.41,0,0,0,55,7.7a1.25,1.25,0,0,1,.24.15l.08.07,0,0,.06.06h.2s0-.08,0-.1h0l-.34-.34a.79.79,0,0,0,.34.14l.1.1v.1h.1s.4.3.5.4c1.6,1.5,1.6,1.5,2,1.9s.38.45.52.64.33.41.67.85h0c.1.1.1.2.2.3s.1.1.1.2v.1c0,.1,0,.1.1.2s.1.1.1.2l.9.1ZM51,4l-.08-.06L51.1,4ZM55.4,6.8l-.28-.2a4.82,4.82,0,0,0,1,.8Zm-5-3.15h0s-.08,0-.08,0a.1.1,0,0,0,.1.1S50.42,3.66,50.4,3.65ZM65.82,23.38c-.15-.62-.32-1.23-.51-1.84a27.85,27.85,0,0,0-2.19-5.24h-.8a.49.49,0,0,1,.1.3V17a.37.37,0,0,0,.1.3v.2l-.2-.4c-.1-.1-.1-.2-.2-.3v-.1c-.1-.1-.1-.2-.2-.3l-.1-.1h-.4l.1.1a.31.31,0,0,0,.09.18h0l.1.11v.4a4.2,4.2,0,0,0,.2.5v.1l.1.1.1.1c.2.2.3.5.5.7l.1.1a.1.1,0,0,0,.1.1v.25c.06.07.13.18.2.25l.1.1v.5h.1a.1.1,0,0,0,.1.1v.2c0,.2.1.3.1.5s.1.3.1.4v.1a.37.37,0,0,0,.1.3c.1.1.1.1.2.5v.2s.3,1.2-.2,1.7a.1.1,0,0,0-.1-.1c0,.1.1.2.1.3l-.1-.1c.1.1.1.2,0,.4a1.38,1.38,0,0,0-.05.45,1.38,1.38,0,0,1,0,.45c-.2-.4-.2-.4-.3-.4-.7.2-.2,1.5.1,2l.5.8v0c.09.09.09.19.09.38l2.7-.1A29.24,29.24,0,0,0,65.82,23.38ZM62.8,19h0l-.07,0a.1.1,0,0,0,.1.1v-.05ZM60.72,16.3l.2.2c.1,0,.1.1.2.1s.1.2.2.2v-.1c-.1-.2-.1-.2,0-.3h.1v-.1Zm-14.6,9.1h-.3c-.1-.1-.1-.2-.2-.2s-.1.2-.1.3a.1.1,0,0,0-.1.1v.1a.1.1,0,0,0-.1.1l.07.07.13.13h1.1C46.42,25.8,46.32,25.5,46.12,25.4ZM66,35.75A2.07,2.07,0,0,0,66,36a.52.52,0,0,1,0,.11.22.22,0,0,0,0,.08c0-.08.07-.22.11-.36a1.88,1.88,0,0,0,.06-.34C66.08,35.61,66.06,35.68,66,35.75Zm-2.12.75v.1a.1.1,0,0,1-.1-.1v.2h.1a.1.1,0,0,1,.1-.1Zm2.25-4.35,0,.05v1.1a.28.28,0,0,0,0,.13c0,.15.11.29,0,.37V34a2.8,2.8,0,0,0-.1.6.93.93,0,0,1,0-.6v-.3a2.49,2.49,0,0,0-.1.8c0,.5-.1.6-.1.6a6,6,0,0,0,.1-.8v-.9c0-.3.1-.5,0-.7v-.5h-.2c.1.3,0,.3,0,.4-.1.6-.1,1.1-.3,2a1.23,1.23,0,0,1-.2.5v-.2l-.1.1v-.1c-.1.1-.1.2-.2.3V35c0,.1-.1.1-.2.2v-.8c0-.1-.1-.1-.1-.2v-.4a2.18,2.18,0,0,1,.1-.6v.1a.1.1,0,0,1,.1-.1.19.19,0,0,0,0-.13.41.41,0,0,0,0-.17,1.42,1.42,0,0,0,.2-.6l-1.9-.3a.1.1,0,0,0,.1.1,2.82,2.82,0,0,1,.35,1.14,4.43,4.43,0,0,1,0,.57h0a2,2,0,0,0,.1.5c.1.1.1.2,0,.2s0,.13,0,.2a.14.14,0,0,0,0,.1.1.1,0,0,1,.1.1v.2s.1,0,.1.2l.1-.1a.58.58,0,0,1,.1.4,6.73,6.73,0,0,1-.1,1c.3,0,.2.1.4.1,0,.1,0,.1.3-.1,0-.1,0-.2.1-.2v.1l.1-.1v.1c0,.1,0,.2.1.1l.1-.1v.4a.1.1,0,0,0-.1-.1l-.1.1c0,.1,0,.1-.1.1l-.1.1V37c-.1.1-.1.1-.2.1s0-.1-.1-.1l-.1.1h-.1v.1h-.3V37a.31.31,0,0,0-.2.1V37a.35.35,0,0,0,.1-.2v-.1c-.1-.1-.1-.3-.2-.3l-.1-.2v-.1c0-.1,0-.1-.1-.1s-.1-.1-.2-.4-.1-.5-.1-.7v-.1c0-.1-.2-.1-.2-.3s-.1-.6-.2-.6v-.2l-.1-.1c-.1-.2-.3-.3-.4-.5,0,0-.1-.3,0-.4s.1.1.2.1.3-.2.4,0,.1.2.1.3v.1c.07.07.09.09.13.09-.16-.43-.26-.86-.43-1.29a.1.1,0,0,0-.1-.1l-5-.7a2.92,2.92,0,0,1,.2.9c0,.4-.3.7-.4,1a.31.31,0,0,1-.1.2c-.2.5-.3.4-.6-.1a9.41,9.41,0,0,1-1.2-2.2L50,30l-.18,0h-.1c-.1,0-.2,0-.3.3,0,.1,0,.2-.1.2s-.2.1-.3.2-.1.1-.1.3h-.4a1,1,0,0,0-.7.6.1.1,0,0,1-.1.1c-.1,0-.1,0-.4.2s-.4.1-.6.2l-.3.3a.6.6,0,0,1-.4.1c-.1.1-.2.3-.4.3s-.6,0-.6.3c-.6.1-.6.1-.8,0l-.1-.4a1.42,1.42,0,0,1-.2-.6c-.1-.2,0-.5-.1-.7s-.2-.3-.2-.4l-.1-.1A10.46,10.46,0,0,1,42.07,29c-.09-.13-.17-.26-.25-.39l-1.3-.2c.06.14.13.28.2.41A14.78,14.78,0,0,0,42.12,31c.2.3.2.7.4,1a.1.1,0,0,0,.1-.1c1.3.8,1.5,1.3,1.5,1.3s-.2.2-.2.3c1.3.8,2.3-.6,3.5-.4v.2c0,2.4-3.2,5.9-4.1,6.1a2.19,2.19,0,0,1-.3.5l19.9,4.5A40.63,40.63,0,0,0,65.53,38l0-.07a.19.19,0,0,0,0-.1.41.41,0,0,0,0-.11,2,2,0,0,0,.09-.54.13.13,0,0,0,0-.06v0a.49.49,0,0,0,0-.12,1.51,1.51,0,0,0,.1-.3h0l0-.09a1.17,1.17,0,0,1,0-.2.43.43,0,0,1,0,0l0-.05v0a.14.14,0,0,1,0-.07.22.22,0,0,1,0-.08A.52.52,0,0,0,66,36a2.07,2.07,0,0,1,.06-.26c.1-.47.18-.94.26-1.41,0-.21,0-.42.08-.63s.05-.43.07-.65,0-.5.07-.76v-.5Zm-.75,4.65V37c-.1-.2,0-.5.1-.4S65.52,36.7,65.42,36.8Zm.2.8v-.2h0A1.79,1.79,0,0,0,65.62,37.6Zm.2-1.6a1.25,1.25,0,0,1,0,.22h0s0,0-.06,0-.08.12-.09.12,0,0,0,0,0-.1.1-.3,0-.1.1-.2Zm.4-2.9c0,.1,0,.1-.09.19a3.23,3.23,0,0,0,.09-.39l0,0C66.26,32.91,66.24,33,66.22,33.1ZM64,36.6l-.1-.1v.1a.1.1,0,0,1-.1-.1v.2h.1A.1.1,0,0,1,64,36.6Zm-.1-.1v.1a.1.1,0,0,1-.1-.1v.2h.1a.1.1,0,0,1,.1-.1Z"/><path class="cls-2" d="M79.92,19.4c-4.6,0-8,1.5-8.7,4.9-.8,3.9,2.4,5,5.6,6.1l.1-1.9L82,32l-5,4.1V34c-1.9.3-5.7-.8-6.9-2.2l-1.2,4.4c1,.5,2.6,1.3,6.5,1.3a13.3,13.3,0,0,0,4.5-.9c3.6-1.5,4.2-3.8,4.4-4.5a3.8,3.8,0,0,0-.4-3,6.4,6.4,0,0,0-3.3-2L78,26.3c-1.3-.4-2.1-.8-2.3-2.1-.1-.6.5-1.7,3.1-1.7,1.7,0,5.8,1.4,6.2,2.4l1.1-4.1A11.51,11.51,0,0,0,79.92,19.4Zm21,.4-4.1,7.1c-.9,1.5-1.4,2.6-2.1,4h-.1a17,17,0,0,0-.1-2.2c0-.8-.1-1-.1-1.8l-.6-7.2H88L83.82,37h3.7l2.2-9.1c.2-.7.9-4.2,1-5h.2l.8,14.1h3l7.6-14.2h.1c-.5,1.6-1.1,3.7-1.4,4.9L98.72,37h3.8l4.2-17.2Zm17,0h-5.2L102.92,37h4.2l1.9-3.4h6l.2,3.4h4.2Zm-7.4,10.8,4.1-7.8h.1l.2,7.8Zm20.2-10.8h-6.4L120,37h4.3l1.7-7h1.5l2,7h4.7l-2.4-7.6a6.12,6.12,0,0,0,4.9-4.6C137.82,20.2,133.92,19.8,130.72,19.8Zm1.5,5a2.72,2.72,0,0,1-2,2.3c-.7.2-1,.2-3.5.2l1.1-4.8c2.4,0,3,0,3.6.2C132.22,23,132.52,23.6,132.22,24.8Zm6.2-5-.8,3.1h5L139.22,37h4.5l3.4-14.1H152l.8-3.1Z"/><path class="cls-2" d="M145.42,43.3c.2-.7,1.4-1,2.1-1a2.44,2.44,0,0,1,1.8.6l2.4-1.5a5.58,5.58,0,0,0-3.5-1c-2.5,0-5.1,1.1-5.7,3.1-1,3.2,5.2,2.2,4.7,4-.2.7-1.3,1-2.2,1a2.45,2.45,0,0,1-2.1-.9l-2.5,1.6a5.59,5.59,0,0,0,3.8,1.2c2.6,0,5.1-1,5.8-3.1C151,44,144.92,45.1,145.42,43.3Zm-10.2,0c.2-.7,1.4-1,2.1-1a2.44,2.44,0,0,1,1.8.6l2.4-1.5a5.58,5.58,0,0,0-3.5-1c-2.5,0-5.1,1.1-5.7,3.1-1,3.2,5.2,2.2,4.7,4-.2.7-1.3,1-2.2,1a2.45,2.45,0,0,1-2.1-.9l-2.5,1.6a5.59,5.59,0,0,0,3.8,1.2c2.6,0,5.1-1,5.8-3.1C140.82,44,134.72,45.1,135.22,43.3Zm-4.7-.6.6-1.9h-8.5l-2.8,9.4h8.8l.6-1.9h-6.1l.6-1.9h5.4l.6-1.9h-5.4l.5-1.8Zm-14.4-2h-4.8l-3.1,9.5H111l1.2-3.8h1.4l1.5,3.8h3.3l-2-4a4,4,0,0,0,3.5-2.6C120.62,41.4,118.62,40.7,116.12,40.7Zm.8,2.8c-.3,1-1.6,1.1-2.6,1.1h-1.6l.6-2.2h1.8C116.12,42.4,117.22,42.5,116.92,43.5Zm-12.3-2.8H100l-2.9,9.5h2.8l1.1-3.7h2c2.6,0,4.8-.7,5.5-2.9S107.22,40.7,104.62,40.7Zm1,2.8c-.3.9-1.3,1.1-2.3,1.1h-1.8l.7-2.2h1.4C104.72,42.4,105.92,42.5,105.62,43.5Zm-7.3-2.8h-3.4L91.32,44l-1.7-3.3h-3.5l2.8,4.5-5.8,5h3.3l4.1-3.8,1.9,3.8h3.5l-3-5ZM84,42.7l.6-1.9h-8.5l-2.8,9.4h8.8l.6-1.9h-6.1l.6-1.9h5.4l.6-1.9h-5.4l.5-1.8Z"/><path class="cls-1" d="M33.89,18.89,34,19c1.2-.2,2.42-.39,3.65-.56a.49.49,0,0,1,0-.11C36.39,18.49,35.13,18.68,33.89,18.89Zm-1.77.31v.1l.8-.14-.07-.09Zm-7.29,1.71c1.16-.32,2.36-.61,3.59-.87h0l.19-.14c-1.33.29-2.63.6-3.87.94Zm43.68-5.58c-2.19.32-5.42.58-9.27.88-5.5.42-12.26.91-19,1.76a.15.15,0,0,1,0-.07c.2-.1.2-.1.4-.4v-.1c0-.1-.1-.2-.1-.3h.1c0-.1.1-.2.1-.3-.5,0-.8.4-1,.5h-.1a.22.22,0,0,1-.2.2l-.1-.1h-.1l-.1.1c-.2-.1-.4,0-.5-.1s0-.2-.1-.2c-.3.1-.3.1-.7,1h-.1l-.07.11c-1.26.18-2.52.37-3.76.58A13.89,13.89,0,0,0,33,17.7a.35.35,0,0,0-.2.1l-.1-.4c-.18.09-.79.44.13,1.67l-.73.13v-.1H32c-.5-1.2-.5-1.2-.9-.8-.3,0-.4.3-.6.4a2.83,2.83,0,0,1-.6-.3c-.1,0-.1,0-.4.7-.1.36-.55.56-.9.79-1.33.29-2.63.6-3.87.94A47,47,0,0,0,18.1,23.1l0,0-.84.38C16.09,24,15,24.61,14,25.19l-.16.09a27,27,0,0,0-6.1,4.61c0-.3-.2-.59-.2-1h.1c0-.1,0-.1-.2-.3v.1c-.17.08-.19,0-.42-.76a24.5,24.5,0,0,1,3.71-3.06l.09-.06a38.83,38.83,0,0,1,3.45-2.08l0,0c.56-.31,1.14-.61,1.75-.92a49.14,49.14,0,0,1,9.39-3.08l1.05-.26h0c.45.17.9.42,1.35.14a.65.65,0,0,0,.34-.52c3.69-.81,8.11-1.61,13.23-2.31,6.34-.88,13.76-1.61,22.23-2.07l-1.5-2.2-1.93.14H60l-.51,0c-3.92.27-8.43.56-13.12,1a177.62,177.62,0,0,0-20.64,2.75l-.13,0A47.76,47.76,0,0,0,14.42,19,45.69,45.69,0,0,0,9,22.19H9C3.25,26.14-.29,31,0,36.4.62,46.7,11.22,55,21.52,62A69.5,69.5,0,0,1,9.65,50.43C9.11,49.71,8.6,49,8.12,48.22A21.42,21.42,0,0,1,4.52,37.7v-.1a5.52,5.52,0,0,1,0-.91,9.46,9.46,0,0,1,1.55-4.61A13.19,13.19,0,0,1,7.76,30,27.06,27.06,0,0,1,14,25.3l.17-.09c1-.56,2-1.09,3.09-1.61.33-.16.67-.31,1-.46l.05,0a46.77,46.77,0,0,1,6.54-2.21c1.16-.32,2.36-.61,3.59-.87h0c1.2-.26,2.44-.51,3.69-.73l.8-.14c.34-.07.69-.13,1-.18,1.2-.2,2.42-.39,3.65-.56.89-.13,1.77-.24,2.66-.35h0c7.17-.89,14.35-1.39,20-1.83h0c3.49-.27,6.41-.52,8.4-.83Z"/><path class="cls-1" d="M84.52,5.4c-.3,0-.3-.1-.7-.1.1-.2.4-.2.5-.4a1.07,1.07,0,0,0-.8-1.5A6.85,6.85,0,0,0,81,4.5c-.4.2-.4.1-.9,0l-4.8-1.1a3,3,0,0,0-1-.2l-1.2-.3h0l-1.6-.4c-.2,0-.3-.1-.4-.1a4.33,4.33,0,0,0-.5-.1c-.3-.1-.7-.1-1-.2a5.76,5.76,0,0,0-1-.2c-.3,0-.8.3-1.1.3v.1c.3.1.9.4,1.3.5.8.2,1.5.6,2.1.8l1,.4a.35.35,0,0,0,.2.1l5.3,2.3c.1.1.1,0,.2.1s.2.1.3.1-.1.3,0,.4.3.2.4.2h.8l.4.6c-.1.1-.2.1-.4.2l-1.2.6c-.1.1-.3.1-.4.2s-.3.2-.5.2l-4.1,2c-.1,0-.1,0-.2-.1a.37.37,0,0,1-.3-.1h-.5c-.2,0-.4-.1-.6-.1l-3-.7c-.1,0-.1,0-.2.1a3.11,3.11,0,0,0-.6.4c0,.1.1.1.1.2l.2.2c.1.1,0,.1.1.2l.2.2a5,5,0,0,1,.7.8L67,11.8a12.31,12.31,0,0,0-2-.2c-.3,0-.6.3-.9.4,0,.2.3.2.5.3s.1.1.3.1l1.5.5c.1,0,.1.1.3.1s.2.1.3.1l1.2.4c.1,0,.2.1.3.1s.2.1.3.1v.1a1.72,1.72,0,0,0-.6.6c0,.6.7.3.9.2l.8-.1c.1,0,.2.1.3.1l.6.6h0l.4.4c.2.2.5.5.8.4h0l.5-.2a.77.77,0,0,0,.2-.3v-.8c0-.2-.1-.5-.1-.7a15,15,0,0,0,2.9-.6c.1,0,.2-.1.3-.1a1.42,1.42,0,0,0,.6-.2l.5-.3c.4-.2.9-.4,1.3-.6l1.6-.8a2.39,2.39,0,0,1,.9-.3,6.11,6.11,0,0,0,1.3-.3c.4-.1.7-.3,1.1-.4.2-.1.3,0,.6.1s1.7.4,1.9.5c.4.2,1,1,1.4,1.3l.2.2c.2.2.4.3.6.5l.1.1.9.9c.2.2.6-.1.8-.2s.3-.2.3-.2l-.4-3.1a10.37,10.37,0,0,0,1-.4c.2-.1.3-.2.5-.3s.2-.2.2-.4V9.3c0-.4-.2-1-.7-1s-1,.4-1.3.4L89,7.6c-.1-.6.1-.5.6-.8.1.2.1.2.3.1l.4-.2,1.3-.6c.1,0,.1-.1.2-.1s.2-.1.3-.2.2-.1.4-.2l2.6-1.2c.1-.1.3-.1.4-.2l.8-.3a9.5,9.5,0,0,0,1.7-1l.6-.5c.1-.1.3-.2.5-.4l.3-.3a1.8,1.8,0,0,0,.4-.9c0-.5-.8-.6-1.2-.7a12.1,12.1,0,0,0-1.9-.1c-.2,0-.3.1-.5.1l-.9.2L91.72,2c-.6.3-1.3.6-1.9.9-.1.1-.3.1-.4.2l-1.9.9c-.1.1-.2.1-.4.2s-.3.1-.4.2Z"/><path class="cls-1" d="M21.52,62c-9.7-7.5-18.1-14.9-18.4-24.1a12.48,12.48,0,0,1,2.63-8.51A4.39,4.39,0,0,1,6,29c.14-.17.28-.34.44-.51a.39.39,0,0,1,.08-.1c.15-.16.29-.32.45-.48.23.72.25.84.42.76v-.1c.2.2.2.2.2.3h-.1c0,.4.2.69.2,1A14.14,14.14,0,0,0,6,32.07a9.45,9.45,0,0,0-1.49,4.62,5.52,5.52,0,0,0,0,.91c.23,4.73,2.24,9,5.13,12.83A69.5,69.5,0,0,0,21.52,62Z"/><path class="cls-1" d="M26.47,18.46c.55-.13,1.11-.26,1.69-.38a.65.65,0,0,1-.34.52C27.37,18.88,26.92,18.63,26.47,18.46Z"/><path class="cls-1" d="M32,19.1h.1v.1c-1.19.21-2.36.44-3.5.69.35-.23.8-.43.9-.79.3-.7.3-.7.4-.7a2.83,2.83,0,0,0,.6.3c.2-.1.3-.4.6-.4C31.52,17.9,31.52,17.9,32,19.1Z"/><path class="cls-1" d="M33,17.7a13.89,13.89,0,0,1,.87,1.19l-1,.18c-.92-1.23-.31-1.58-.13-1.67l.1.4A.35.35,0,0,1,33,17.7Z"/><path class="cls-1" d="M39.72,17.3c.2-.1.5-.5,1-.5,0,.1-.1.2-.1.3h-.1c0,.1.1.2.1.3v.1c-.2.3-.2.3-.4.4a.15.15,0,0,0,0,.07l-2.58.34.07-.11h.1c.4-.9.4-.9.7-1,.1,0,.1.1.1.2s.3,0,.5.1l.1-.1h.1l.1.1a.22.22,0,0,0,.2-.2Z"/><path class="cls-1" d="M68.72,15.3l-.21,0L63.63,13.7h.09Z"/></g></g></svg>