<?xml version="1.0" encoding="utf-8"?>
<!-- Generator: Adobe Illustrator 24.0.1, SVG Export Plug-In . SVG Version: 6.00 Build 0)  -->
<svg version="1.1" id="Слой_1" xmlns="http://www.w3.org/2000/svg" xmlns:xlink="http://www.w3.org/1999/xlink" x="0px" y="0px"
	 viewBox="0 0 155 32" style="enable-background:new 0 0 155 32;" xml:space="preserve">
<style type="text/css">
	.st0{fill:#FFFFFF;stroke:#FFFFFF;stroke-miterlimit:10;}
	.st1{fill:#FFFFFF;stroke:#FFFFFF;}
</style>
<g>
	<path class="st0" d="M3.3,19.1c-0.7,0-1.3-0.2-1.7-0.7s-0.6-1.1-0.6-2.1c0-0.5,0-1,0.1-1.5c0.3-1.5,0.7-2.6,1.4-3.3s1.4-1,2.4-1
		c0.7,0,1.3,0.2,1.7,0.7c0.4,0.4,0.6,1.1,0.6,2.1c0,0.4,0,1-0.1,1.6c-0.3,1.5-0.7,2.6-1.4,3.3C5,18.8,4.2,19.1,3.3,19.1z M3.4,18.3
		c0.5,0,1-0.3,1.4-0.8c0.4-0.6,0.7-1.4,1-2.7c0.1-0.6,0.2-1,0.2-1.5c0-0.7-0.1-1.2-0.4-1.5c-0.2-0.3-0.5-0.5-0.9-0.5
		c-0.5,0-1,0.3-1.4,0.8c-0.4,0.5-0.7,1.4-1,2.7c-0.1,0.6-0.2,1.1-0.2,1.5c0,0.7,0.1,1.2,0.3,1.5C2.7,18.1,3,18.3,3.4,18.3z
		 M10.1,19.1c-0.6,0-1.2-0.2-1.5-0.6C8.1,18.2,8,17.7,8,17c0-0.2,0-0.5,0.1-0.8l0.2-1.1c0.2-1,0.4-1.8,0.7-2.4
		c0.3-0.6,0.7-1,1.2-1.3c0.5-0.3,1.1-0.5,1.9-0.6l1.7-0.3v1l-1.7,0.3c-0.8,0.1-1.4,0.4-1.8,0.8c-0.4,0.4-0.7,1-0.8,1.8
		c0.2-0.3,0.5-0.5,0.8-0.7c0.3-0.2,0.7-0.3,1.1-0.3c0.5,0,1,0.2,1.3,0.6c0.3,0.4,0.5,0.9,0.5,1.6c0,0.2,0,0.5-0.1,0.8
		c-0.2,0.9-0.5,1.6-1.1,2.1C11.5,18.9,10.8,19.1,10.1,19.1z M10.2,18.3c0.4,0,0.7-0.2,1-0.5c0.3-0.3,0.5-0.9,0.6-1.5
		c0-0.3,0.1-0.5,0.1-0.6c0-0.4-0.1-0.8-0.3-1c-0.2-0.2-0.4-0.3-0.7-0.3c-0.4,0-0.7,0.2-1,0.5c-0.3,0.3-0.5,0.8-0.6,1.5
		c0,0.3-0.1,0.5-0.1,0.7c0,0.4,0.1,0.8,0.3,1C9.6,18.2,9.9,18.3,10.2,18.3z M15.5,13.8H14l0.2-0.8h2.8l-0.4,2h1.1
		c1.4,0,2.1,0.5,2.1,1.5c0,0.1,0,0.3,0,0.5c-0.2,1.3-1.2,2-2.7,2h-2.3L15.5,13.8z M17.1,18.2c0.4,0,0.7-0.1,1-0.3
		c0.2-0.2,0.4-0.5,0.4-0.9c0-0.1,0-0.2,0-0.3c0-0.3-0.1-0.5-0.3-0.6c-0.2-0.1-0.4-0.2-0.8-0.2h-1.1L16,18.2H17.1z M22.8,19.1
		c-0.7,0-1.2-0.2-1.6-0.6s-0.6-0.9-0.6-1.6c0-0.3,0-0.6,0.1-0.9c0.2-1,0.5-1.8,1.1-2.3c0.5-0.5,1.2-0.8,1.9-0.8
		c0.6,0,1.1,0.2,1.5,0.6c0.4,0.4,0.5,0.9,0.5,1.7c0,0.2,0,0.5-0.1,0.9l0,0.2l-0.3,0.2h-3.5c0,0.2-0.1,0.4-0.1,0.6
		c0,0.4,0.1,0.8,0.3,1c0.2,0.2,0.6,0.3,1,0.3c0.3,0,0.6-0.1,1-0.3c0.2-0.1,0.3-0.2,0.4-0.3h0.1l0.3,0.7c-0.2,0.1-0.4,0.2-0.6,0.3
		C23.9,19,23.4,19.1,22.8,19.1z M24.5,15.6c0-0.3,0.1-0.5,0.1-0.6c0-0.4-0.1-0.7-0.3-0.9c-0.2-0.2-0.4-0.3-0.7-0.3
		c-0.4,0-0.7,0.2-1,0.5c-0.3,0.3-0.5,0.8-0.6,1.4H24.5z M27.6,13h1.1l1.2,3.4c0,0.1,0,0.1,0,0.2c0,0,0,0.1,0,0.1l0,0.2h0l0.1-0.2
		c0,0,0-0.1,0.1-0.1c0-0.1,0.1-0.1,0.1-0.2l2.4-3.4H34l-1.1,6h-1.1l0.6-3.2c0-0.2,0.1-0.3,0.1-0.6l0.1-0.3h0l-0.2,0.3
		c-0.1,0.2-0.2,0.4-0.4,0.6L30.5,18h-1l-0.9-2.5c0-0.1-0.1-0.2-0.1-0.3c0-0.1,0-0.2-0.1-0.3c0-0.1-0.1-0.2-0.1-0.3h0l0,0.3l0,0.3
		c0,0.1,0,0.2,0,0.3L27.7,19h-1.1L27.6,13z M34.7,19l1.1-6H37l-0.4,2.5h2.4l0.4-2.5h1.2l-1.1,6h-1.2l0.5-2.6h-2.4L35.9,19H34.7z
		 M42.4,13h1.2l-0.4,2H44c1.4,0,2.1,0.5,2.1,1.5c0,0.1,0,0.3,0,0.5c-0.2,1.3-1.2,2-2.7,2h-1.9L42.4,13z M46.6,19l1.1-6h1.2l-1.1,6
		H46.6z M43.4,18.2c0.4,0,0.7-0.1,1-0.3s0.4-0.5,0.4-0.9c0-0.1,0-0.2,0-0.3c0-0.3-0.1-0.5-0.3-0.6c-0.2-0.1-0.4-0.2-0.8-0.2h-0.7
		l-0.4,2.3H43.4z M50.7,13h1.1l-0.6,3.5l-0.1,0.6L51,17.4h0c0-0.1,0-0.1,0.1-0.2c0,0,0.1-0.1,0.1-0.1c0.1-0.2,0.2-0.4,0.4-0.6
		l2.8-3.5h1.1l-1.1,6h-1.1l0.6-3.7l0.1-0.6l0.1-0.3h0c0,0.1-0.1,0.2-0.1,0.3c-0.1,0.2-0.3,0.4-0.4,0.6L50.8,19h-1.1L50.7,13z
		 M52.9,12.4c-0.5,0-0.9-0.1-1.2-0.3c-0.3-0.2-0.4-0.5-0.4-0.9c0-0.1,0-0.2,0-0.4h1.1c0,0.1,0,0.2,0,0.3c0,0.2,0,0.3,0.1,0.4
		c0.1,0.1,0.3,0.1,0.5,0.1c0.2,0,0.4-0.1,0.6-0.2c0.1-0.1,0.2-0.4,0.3-0.6H55c-0.1,0.5-0.3,0.9-0.7,1.2C54,12.3,53.5,12.4,52.9,12.4
		z M60.8,13H63c0.6,0,1.1,0.1,1.4,0.4s0.5,0.6,0.5,1c0,0.3-0.1,0.6-0.2,0.8c-0.2,0.2-0.3,0.4-0.6,0.5c-0.2,0.1-0.4,0.2-0.6,0.3
		c0.2,0,0.5,0.1,0.6,0.3c0.3,0.2,0.5,0.5,0.5,0.9c0,0.6-0.2,1-0.7,1.4c-0.5,0.4-1.1,0.5-2,0.5h-2.3L60.8,13z M62.6,15.5
		c0.3,0,0.6-0.1,0.8-0.3c0.2-0.2,0.3-0.4,0.3-0.7c0-0.2-0.1-0.4-0.2-0.5c-0.1-0.1-0.3-0.2-0.6-0.2h-1.1l-0.3,1.7H62.6z M62.1,18.2
		c0.4,0,0.7-0.1,0.9-0.2c0.2-0.2,0.4-0.4,0.4-0.7c0,0,0-0.1,0-0.2c0-0.5-0.4-0.7-1.1-0.7h-1.1L61,18.2H62.1z M68.1,19.1
		c-0.7,0-1.2-0.2-1.6-0.6c-0.4-0.4-0.6-0.9-0.6-1.6c0-0.3,0-0.6,0.1-0.9c0.2-1,0.5-1.8,1.1-2.3c0.5-0.5,1.2-0.8,1.9-0.8
		c0.6,0,1.1,0.2,1.5,0.6c0.4,0.4,0.5,0.9,0.5,1.7c0,0.2,0,0.5-0.1,0.9l0,0.2l-0.3,0.2h-3.5c0,0.2-0.1,0.4-0.1,0.6
		c0,0.4,0.1,0.8,0.3,1c0.2,0.2,0.6,0.3,1,0.3c0.3,0,0.6-0.1,1-0.3c0.2-0.1,0.3-0.2,0.4-0.3h0.1l0.3,0.7c-0.2,0.1-0.4,0.2-0.6,0.3
		C69.2,19,68.7,19.1,68.1,19.1z M69.8,15.6c0-0.3,0.1-0.5,0.1-0.6c0-0.4-0.1-0.7-0.3-0.9c-0.2-0.2-0.4-0.3-0.7-0.3
		c-0.4,0-0.7,0.2-1,0.5c-0.3,0.3-0.5,0.8-0.6,1.4H69.8z M74.2,19.1c-0.7,0-1.2-0.2-1.6-0.6S72,17.7,72,16.9c0-0.3,0-0.6,0.1-0.9
		c0.2-1,0.5-1.8,1.1-2.3c0.5-0.5,1.2-0.8,2-0.8c0.5,0,1,0.1,1.4,0.3c0.2,0.1,0.4,0.2,0.5,0.3l-0.6,0.7h-0.1
		c-0.1-0.1-0.2-0.2-0.3-0.3c-0.1-0.1-0.3-0.2-0.4-0.2c-0.1,0-0.3-0.1-0.5-0.1c-0.4,0-0.8,0.2-1.2,0.5c-0.3,0.4-0.5,0.9-0.7,1.7
		c-0.1,0.3-0.1,0.6-0.1,0.9c0,0.5,0.1,0.9,0.3,1.1c0.2,0.2,0.5,0.3,0.9,0.3c0.3,0,0.6-0.1,1-0.3c0.2-0.1,0.3-0.2,0.4-0.3H76l0.3,0.7
		c-0.2,0.1-0.4,0.2-0.6,0.3C75.2,19,74.7,19.1,74.2,19.1z M81.2,15.6c0.2-1,0.5-2,1.1-3c0.6-1,1.3-1.8,2.1-2.5l0.4,0.5
		c-0.6,0.7-1.2,1.5-1.6,2.3s-0.7,1.7-0.9,2.7c-0.1,0.6-0.1,1.1-0.1,1.6c0,1.2,0.3,2.3,0.8,3.4l-0.6,0.5c-0.5-0.5-0.8-1.1-1.1-1.8
		C81.2,18.6,81,17.8,81,17C81,16.5,81.1,16.1,81.2,15.6z M88.4,19.1c-0.3,0-0.6-0.1-0.7-0.3c-0.2-0.2-0.3-0.4-0.3-0.8L87.3,17
		c0-0.4-0.3-0.6-0.7-0.6h-0.7L85.4,19h-1.2l1.1-6h1.2L86,15.5h0.6c0.4,0,0.7-0.2,0.9-0.6l0.4-1c0.1-0.3,0.3-0.6,0.5-0.8
		c0.2-0.2,0.5-0.3,0.8-0.3c0.2,0,0.4,0,0.5,0.1C89.9,13,90,13,90,13l-0.3,0.8h-0.1l-0.1,0c0,0,0,0-0.1,0c0,0-0.1,0-0.1,0
		c-0.2,0-0.3,0.1-0.4,0.4l-0.4,1c-0.1,0.3-0.3,0.5-0.7,0.7c-0.2,0.1-0.3,0.1-0.4,0.1c0.2,0,0.3,0.1,0.4,0.2c0.3,0.2,0.4,0.4,0.5,0.7
		l0.1,1.1c0,0.2,0.1,0.4,0.3,0.4c0,0,0.1,0,0.2,0l0.1,0h0.1l0,0.8c-0.1,0-0.1,0.1-0.2,0.1C88.8,19.1,88.6,19.1,88.4,19.1z M90.4,19
		l1.1-6h4l-0.2,0.8h-2.8L91.6,19H90.4z M97.8,15.6c-0.2,1-0.5,2-1.1,3c-0.6,1-1.3,1.8-2.1,2.5l-0.4-0.5c0.6-0.7,1.1-1.5,1.5-2.3
		c0.4-0.8,0.7-1.7,0.9-2.7c0.1-0.6,0.1-1.1,0.1-1.6c0-1.2-0.3-2.3-0.8-3.4l0.6-0.5c0.5,0.5,0.8,1.1,1.1,1.8c0.2,0.7,0.4,1.4,0.4,2.2
		C97.9,14.7,97.9,15.2,97.8,15.6z M102.6,14.4l0.2-1h4.8l-0.2,1H102.6z M102.2,16.6l0.2-1h4.8l-0.2,1H102.2z"/>
	<path class="st0" d="M119.9,11l3.9-8.4h1.6l1,8.4h-1.2l-0.3-2.2h-2.8l-1,2.2H119.9z M124.8,8l-0.4-3.3c0-0.1,0-0.2,0-0.3
		c0-0.1,0-0.2,0-0.2c0-0.1,0-0.2,0-0.3h0c0,0.1-0.1,0.2-0.1,0.3c-0.1,0.2-0.1,0.4-0.2,0.6L122.5,8H124.8z M128.7,3.3l1.1,0.7
		l0.3-1.4h0.8L130.6,4l1.4-0.7l0.3,0.7l-1.4,0.7l1.1,0.7l-0.6,0.7l-1.1-0.7l-0.3,1.4h-0.8l0.3-1.4l-1.4,0.7l-0.3-0.7l1.4-0.7
		L128.1,4L128.7,3.3z M134,2.6h2.3c0.7,0,1.3,0.2,1.7,0.5c0.4,0.3,0.6,0.7,0.6,1.2c0,0.1,0,0.3,0,0.4c-0.1,0.6-0.4,1.2-1,1.5
		c-0.2,0.2-0.5,0.3-0.7,0.3c0.3,0.1,0.6,0.2,0.8,0.4c0.4,0.3,0.6,0.8,0.6,1.3c0,0.1,0,0.3,0,0.4c-0.1,0.7-0.5,1.3-1,1.7
		c-0.6,0.4-1.3,0.6-2.3,0.6h-2.3L134,2.6z M135.7,6.2c0.5,0,0.8-0.1,1.1-0.4c0.3-0.2,0.5-0.6,0.6-1c0-0.1,0-0.2,0-0.3
		c0-0.3-0.1-0.6-0.3-0.8c-0.2-0.2-0.5-0.3-0.9-0.3h-1.1l-0.5,2.8H135.7z M135,10.2c1.2,0,1.8-0.5,2-1.6c0-0.1,0-0.3,0-0.4
		c0-0.8-0.5-1.2-1.5-1.2h-1.1l-0.6,3.1H135z M140.5,3.3l1.1,0.7l0.3-1.4h0.8L142.5,4l1.4-0.7l0.3,0.7l-1.4,0.7l1.1,0.7l-0.6,0.7
		l-1.1-0.7L142,6.9h-0.8l0.3-1.4L140,6.2l-0.3-0.7l1.4-0.7L140,4L140.5,3.3z M147,11.1c-0.8,0-1.4-0.2-1.9-0.7
		c-0.4-0.4-0.6-1.2-0.6-2.1c0-0.4,0-1,0.1-1.5c0.3-1.5,0.7-2.6,1.4-3.3c0.7-0.7,1.5-1,2.4-1c0.6,0,1.1,0.1,1.5,0.3
		c0.2,0.1,0.4,0.2,0.5,0.3l-0.6,0.7h-0.1c-0.1-0.1-0.2-0.2-0.4-0.3c-0.3-0.2-0.6-0.3-1-0.3c-1.3,0-2.1,1.2-2.5,3.5
		c-0.1,0.5-0.2,1-0.2,1.5c0,1.3,0.5,2,1.6,2c0.4,0,0.7-0.1,1.1-0.3c0.2-0.1,0.4-0.2,0.5-0.3h0.1l0.3,0.7c-0.2,0.1-0.4,0.2-0.6,0.3
		C148.2,11,147.6,11.1,147,11.1z"/>
	<path class="st0" d="M123,27.6c-1.5,0-2.3-0.7-2.3-2.1c0-0.3,0-0.5,0.1-0.8l0.4-2.2c0.2-1.2,0.6-2.1,1.2-2.7
		c0.6-0.6,1.3-0.9,2.2-0.9c0.6,0,1.1,0.1,1.5,0.3c0.2,0.1,0.4,0.2,0.5,0.3l-0.6,0.7H126c-0.1-0.1-0.2-0.2-0.4-0.3
		c-0.3-0.2-0.7-0.3-1-0.3c-0.5,0-1,0.2-1.4,0.7c-0.4,0.4-0.7,1.1-0.8,2.1c0.1-0.1,0.3-0.2,0.5-0.2c0.4-0.2,0.7-0.2,1.2-0.2
		c0.7,0,1.2,0.2,1.6,0.5c0.4,0.3,0.6,0.8,0.6,1.5c0,0.2,0,0.5-0.1,0.7c-0.2,1-0.5,1.7-1,2.2C124.5,27.4,123.9,27.6,123,27.6z
		 M123.2,26.8c0.4,0,0.8-0.2,1.1-0.5c0.3-0.3,0.5-0.8,0.6-1.5c0-0.2,0.1-0.4,0.1-0.5c0-0.4-0.1-0.7-0.3-0.9
		c-0.2-0.2-0.5-0.3-0.9-0.3c-0.4,0-0.7,0.1-1,0.2c-0.1,0.1-0.3,0.1-0.4,0.2l-0.2,1.3c0,0.2-0.1,0.4-0.1,0.7
		C122,26.3,122.4,26.8,123.2,26.8z M129.6,27.6c-0.7,0-1.2-0.2-1.6-0.7c-0.4-0.4-0.6-1.1-0.6-2.1c0-0.5,0-1,0.1-1.6
		c0.3-1.5,0.7-2.6,1.3-3.3c0.6-0.7,1.4-1.1,2.3-1.1c0.7,0,1.2,0.2,1.6,0.7c0.4,0.4,0.6,1.1,0.6,2.1c0,0.5-0.1,1-0.2,1.6
		c-0.3,1.5-0.7,2.6-1.3,3.3C131.2,27.3,130.4,27.6,129.6,27.6z M129.7,26.8c0.5,0,0.9-0.3,1.3-0.8c0.4-0.5,0.7-1.4,0.9-2.7
		c0.1-0.6,0.2-1.2,0.2-1.7c0-0.6-0.1-1.1-0.3-1.4c-0.2-0.3-0.5-0.4-0.9-0.4c-0.5,0-0.9,0.3-1.3,0.8c-0.4,0.5-0.7,1.4-0.9,2.7
		c-0.1,0.6-0.2,1.2-0.2,1.7c0,0.6,0.1,1.1,0.3,1.4C129.1,26.6,129.3,26.8,129.7,26.8z M136.5,27.6c-0.7,0-1.2-0.2-1.6-0.7
		c-0.4-0.4-0.6-1.1-0.6-2.1c0-0.5,0-1,0.1-1.6c0.3-1.5,0.7-2.6,1.3-3.3c0.6-0.7,1.4-1.1,2.3-1.1c0.7,0,1.2,0.2,1.6,0.7
		c0.4,0.4,0.6,1.1,0.6,2.1c0,0.5-0.1,1-0.2,1.6c-0.3,1.5-0.7,2.6-1.3,3.3C138.2,27.3,137.4,27.6,136.5,27.6z M136.7,26.8
		c0.5,0,0.9-0.3,1.3-0.8c0.4-0.5,0.7-1.4,0.9-2.7c0.1-0.6,0.2-1.2,0.2-1.7c0-0.6-0.1-1.1-0.3-1.4c-0.2-0.3-0.5-0.4-0.9-0.4
		c-0.5,0-0.9,0.3-1.3,0.8c-0.4,0.5-0.7,1.4-0.9,2.7c-0.1,0.6-0.2,1.2-0.2,1.7c0,0.6,0.1,1.1,0.3,1.4C136,26.6,136.3,26.8,136.7,26.8
		z M143.5,27.6c-0.7,0-1.2-0.2-1.6-0.7c-0.4-0.4-0.6-1.1-0.6-2.1c0-0.5,0-1,0.1-1.6c0.3-1.5,0.7-2.6,1.3-3.3
		c0.6-0.7,1.4-1.1,2.3-1.1c0.7,0,1.2,0.2,1.6,0.7c0.4,0.4,0.6,1.1,0.6,2.1c0,0.5-0.1,1-0.2,1.6c-0.3,1.5-0.7,2.6-1.3,3.3
		C145.1,27.3,144.4,27.6,143.5,27.6z M143.6,26.8c0.5,0,0.9-0.3,1.3-0.8c0.4-0.5,0.7-1.4,0.9-2.7c0.1-0.6,0.2-1.2,0.2-1.7
		c0-0.6-0.1-1.1-0.3-1.4c-0.2-0.3-0.5-0.4-0.9-0.4c-0.5,0-0.9,0.3-1.3,0.8c-0.4,0.5-0.7,1.4-0.9,2.7c-0.1,0.6-0.2,1.2-0.2,1.7
		c0,0.6,0.1,1.1,0.3,1.4C143,26.6,143.3,26.8,143.6,26.8z"/>
	<line class="st1" x1="155" y1="15" x2="115" y2="15"/>
</g>
</svg>
