<svg width="155" height="32" viewBox="0 0 155 32" fill="none" xmlns="http://www.w3.org/2000/svg">
<path d="M3.276 19.12C2.54 19.12 1.968 18.896 1.56 18.448C1.152 18 0.948 17.3 0.948 16.348C0.948 15.892 0.996 15.376 1.092 14.8C1.348 13.312 1.8 12.22 2.448 11.524C3.096 10.828 3.88 10.48 4.8 10.48C5.536 10.48 6.104 10.704 6.504 11.152C6.912 11.592 7.116 12.288 7.116 13.24C7.116 13.688 7.068 14.208 6.972 14.8C6.716 16.288 6.264 17.38 5.616 18.076C4.976 18.772 4.196 19.12 3.276 19.12ZM3.42 18.28C3.924 18.28 4.384 18.008 4.8 17.464C5.224 16.912 5.548 16.024 5.772 14.8C5.876 14.248 5.928 13.752 5.928 13.312C5.928 12.624 5.808 12.12 5.568 11.8C5.328 11.48 5.02 11.32 4.644 11.32C4.132 11.32 3.668 11.592 3.252 12.136C2.836 12.68 2.516 13.568 2.292 14.8C2.188 15.368 2.136 15.872 2.136 16.312C2.136 17 2.252 17.5 2.484 17.812C2.724 18.124 3.036 18.28 3.42 18.28ZM10.0513 19.12C9.40331 19.12 8.89131 18.936 8.51531 18.568C8.14731 18.2 7.96331 17.676 7.96331 16.996C7.96331 16.756 7.98731 16.504 8.03531 16.24L8.23931 15.1C8.41531 14.092 8.66331 13.292 8.98331 12.7C9.30331 12.108 9.71131 11.664 10.2073 11.368C10.7113 11.072 11.3513 10.856 12.1273 10.72L13.8673 10.42V11.44L12.1273 11.74C11.3113 11.884 10.6953 12.152 10.2793 12.544C9.87131 12.928 9.59531 13.52 9.45131 14.32C9.69131 14.008 9.97131 13.772 10.2913 13.612C10.6193 13.444 10.9753 13.36 11.3593 13.36C11.8873 13.36 12.3153 13.544 12.6433 13.912C12.9793 14.28 13.1473 14.8 13.1473 15.472C13.1473 15.704 13.1233 15.96 13.0753 16.24C12.9153 17.16 12.5633 17.872 12.0193 18.376C11.4753 18.872 10.8193 19.12 10.0513 19.12ZM10.1953 18.28C10.5793 18.28 10.9233 18.112 11.2273 17.776C11.5393 17.432 11.7553 16.92 11.8753 16.24C11.9153 15.976 11.9353 15.76 11.9353 15.592C11.9353 15.144 11.8393 14.812 11.6473 14.596C11.4633 14.372 11.2153 14.26 10.9033 14.26C10.5193 14.26 10.1713 14.428 9.85931 14.764C9.55531 15.092 9.34731 15.584 9.23531 16.24C9.18731 16.504 9.16331 16.736 9.16331 16.936C9.16331 17.384 9.25531 17.72 9.43931 17.944C9.63131 18.168 9.88331 18.28 10.1953 18.28ZM15.5456 13.84H13.9856L14.1416 13H16.9016L16.5416 15.04H17.6216C19.0136 15.04 19.7096 15.548 19.7096 16.564C19.7096 16.708 19.6976 16.86 19.6736 17.02C19.4336 18.34 18.5176 19 16.9256 19L14.6456 19L15.5456 13.84ZM17.0696 18.16C17.4936 18.16 17.8136 18.068 18.0296 17.884C18.2536 17.7 18.4016 17.412 18.4736 17.02C18.4976 16.9 18.5096 16.792 18.5096 16.696C18.5096 16.416 18.4256 16.212 18.2576 16.084C18.0896 15.948 17.8256 15.88 17.4656 15.88H16.3856L15.9896 18.16L17.0696 18.16ZM22.8379 19.12C22.1419 19.12 21.6059 18.936 21.2299 18.568C20.8539 18.2 20.6659 17.652 20.6659 16.924C20.6659 16.62 20.6939 16.312 20.7499 16C20.9179 14.984 21.2699 14.212 21.8059 13.684C22.3499 13.148 22.9979 12.88 23.7499 12.88C24.3739 12.88 24.8619 13.068 25.2139 13.444C25.5739 13.82 25.7539 14.372 25.7539 15.1C25.7539 15.324 25.7259 15.624 25.6699 16L25.6339 16.18L25.3459 16.42H21.8659C21.8259 16.644 21.8059 16.828 21.8059 16.972C21.8059 17.404 21.9179 17.732 22.1419 17.956C22.3739 18.172 22.6939 18.28 23.1019 18.28C23.3819 18.28 23.7059 18.192 24.0739 18.016C24.2499 17.92 24.3979 17.828 24.5179 17.74H24.6379L24.9259 18.46C24.7659 18.58 24.5659 18.692 24.3259 18.796C23.8779 19.012 23.3819 19.12 22.8379 19.12ZM24.5419 15.58C24.5819 15.316 24.6019 15.104 24.6019 14.944C24.6019 14.528 24.5139 14.22 24.3379 14.02C24.1619 13.82 23.9179 13.72 23.6059 13.72C23.2219 13.72 22.8899 13.876 22.6099 14.188C22.3299 14.492 22.1339 14.956 22.0219 15.58H24.5419ZM27.6365 13H28.7765L29.9765 16.36C29.9925 16.416 30.0085 16.472 30.0245 16.528C30.0405 16.576 30.0565 16.624 30.0725 16.672L30.1085 16.84H30.1565L30.2525 16.672C30.2685 16.648 30.2965 16.604 30.3365 16.54C30.3765 16.468 30.4165 16.408 30.4565 16.36L32.8565 13H33.9965L32.9405 19H31.8605L32.4125 15.82C32.4365 15.66 32.4805 15.476 32.5445 15.268L32.6165 14.98H32.5685L32.4125 15.256C32.3165 15.432 32.1965 15.62 32.0525 15.82L30.4925 17.98H29.5085L28.6325 15.46C28.6085 15.388 28.5805 15.296 28.5485 15.184C28.5245 15.064 28.5045 14.968 28.4885 14.896C28.4565 14.768 28.4365 14.676 28.4285 14.62H28.3805L28.3565 14.908L28.3205 15.184C28.3045 15.296 28.2885 15.388 28.2725 15.46L27.6605 19L26.5805 19L27.6365 13ZM34.7367 19L35.7927 13L36.9927 13L36.5487 15.52H38.9487L39.3927 13H40.5927L39.5367 19H38.3367L38.7927 16.36H36.3927L35.9367 19H34.7367ZM42.3904 13H43.5904L43.2304 15.04H43.9504C45.3424 15.04 46.0384 15.548 46.0384 16.564C46.0384 16.708 46.0264 16.86 46.0024 17.02C45.7624 18.34 44.8464 19 43.2544 19H41.3344L42.3904 13ZM46.6144 19L47.6704 13H48.8704L47.8144 19H46.6144ZM43.3984 18.16C43.8224 18.16 44.1464 18.068 44.3704 17.884C44.5944 17.7 44.7384 17.412 44.8024 17.02C44.8264 16.9 44.8384 16.792 44.8384 16.696C44.8384 16.416 44.7544 16.212 44.5864 16.084C44.4184 15.948 44.1544 15.88 43.7944 15.88H43.0744L42.6784 18.16H43.3984ZM50.6755 13H51.8155L51.1795 16.54L51.0595 17.092L50.9875 17.38H51.0355C51.0595 17.316 51.0835 17.26 51.1075 17.212C51.1395 17.164 51.1635 17.124 51.1795 17.092C51.2915 16.884 51.4115 16.7 51.5395 16.54L54.3355 13H55.4755L54.4195 19H53.2795L53.9155 15.328L54.0355 14.776L54.1075 14.488H54.0595C54.0275 14.584 53.9795 14.68 53.9155 14.776C53.7795 15 53.6595 15.184 53.5555 15.328L50.7595 19H49.6195L50.6755 13ZM52.9315 12.4C52.4195 12.4 52.0315 12.296 51.7675 12.088C51.5035 11.872 51.3715 11.576 51.3715 11.2C51.3715 11.088 51.3835 10.968 51.4075 10.84H52.4875C52.4715 10.984 52.4635 11.076 52.4635 11.116C52.4635 11.316 52.5115 11.46 52.6075 11.548C52.7115 11.636 52.8635 11.68 53.0635 11.68C53.3115 11.68 53.5035 11.616 53.6395 11.488C53.7835 11.352 53.8795 11.136 53.9275 10.84H55.0075C54.9115 11.328 54.6875 11.712 54.3355 11.992C53.9835 12.264 53.5155 12.4 52.9315 12.4ZM60.7537 13H63.0337C63.6657 13 64.1417 13.124 64.4617 13.372C64.7817 13.62 64.9417 13.94 64.9417 14.332C64.9417 14.636 64.8657 14.896 64.7137 15.112C64.5617 15.328 64.3737 15.5 64.1497 15.628C63.9577 15.732 63.7537 15.816 63.5377 15.88C63.7857 15.928 64.0017 16.012 64.1857 16.132C64.5217 16.364 64.6897 16.676 64.6897 17.068C64.6897 17.628 64.4617 18.092 64.0057 18.46C63.5497 18.82 62.8737 19 61.9777 19L59.6977 19L60.7537 13ZM62.5897 15.52C62.9177 15.52 63.1857 15.424 63.3937 15.232C63.6017 15.04 63.7057 14.804 63.7057 14.524C63.7057 14.316 63.6337 14.152 63.4897 14.032C63.3457 13.904 63.1417 13.84 62.8777 13.84H61.7977L61.5097 15.52H62.5897ZM62.1217 18.16C62.5297 18.16 62.8457 18.08 63.0697 17.92C63.2937 17.76 63.4297 17.54 63.4777 17.26C63.4857 17.22 63.4897 17.156 63.4897 17.068C63.4897 16.596 63.1377 16.36 62.4337 16.36H61.3537L61.0417 18.16H62.1217ZM68.1308 19.12C67.4348 19.12 66.8988 18.936 66.5228 18.568C66.1468 18.2 65.9588 17.652 65.9588 16.924C65.9588 16.62 65.9868 16.312 66.0428 16C66.2108 14.984 66.5628 14.212 67.0988 13.684C67.6428 13.148 68.2908 12.88 69.0428 12.88C69.6668 12.88 70.1548 13.068 70.5068 13.444C70.8668 13.82 71.0468 14.372 71.0468 15.1C71.0468 15.324 71.0188 15.624 70.9628 16L70.9268 16.18L70.6388 16.42H67.1588C67.1188 16.644 67.0988 16.828 67.0988 16.972C67.0988 17.404 67.2108 17.732 67.4348 17.956C67.6668 18.172 67.9868 18.28 68.3948 18.28C68.6748 18.28 68.9988 18.192 69.3668 18.016C69.5428 17.92 69.6908 17.828 69.8108 17.74H69.9308L70.2188 18.46C70.0588 18.58 69.8588 18.692 69.6188 18.796C69.1708 19.012 68.6748 19.12 68.1308 19.12ZM69.8348 15.58C69.8748 15.316 69.8948 15.104 69.8948 14.944C69.8948 14.528 69.8068 14.22 69.6308 14.02C69.4548 13.82 69.2108 13.72 68.8988 13.72C68.5148 13.72 68.1828 13.876 67.9028 14.188C67.6228 14.492 67.4268 14.956 67.3148 15.58H69.8348ZM74.1894 19.12C73.4934 19.12 72.9574 18.936 72.5814 18.568C72.2054 18.2 72.0174 17.652 72.0174 16.924C72.0174 16.62 72.0454 16.312 72.1014 16C72.2854 14.976 72.6454 14.2 73.1814 13.672C73.7254 13.144 74.3854 12.88 75.1614 12.88C75.6814 12.88 76.1414 12.992 76.5414 13.216C76.7334 13.32 76.8974 13.428 77.0334 13.54L76.4814 14.26H76.3614C76.2494 14.164 76.1334 14.076 76.0134 13.996C75.8694 13.908 75.7294 13.84 75.5934 13.792C75.4574 13.744 75.3054 13.72 75.1374 13.72C74.6894 13.72 74.3054 13.9 73.9854 14.26C73.6654 14.62 73.4374 15.2 73.3014 16C73.2454 16.312 73.2174 16.604 73.2174 16.876C73.2174 17.372 73.3214 17.732 73.5294 17.956C73.7374 18.172 74.0454 18.28 74.4534 18.28C74.7334 18.28 75.0574 18.192 75.4254 18.016C75.6014 17.92 75.7494 17.828 75.8694 17.74H75.9894L76.2774 18.46C76.1174 18.58 75.9174 18.692 75.6774 18.796C75.2294 19.012 74.7334 19.12 74.1894 19.12ZM81.1628 15.64C81.3388 14.6 81.7068 13.6 82.2668 12.64C82.8348 11.68 83.5468 10.86 84.4028 10.18L84.7988 10.66C84.1668 11.396 83.6468 12.164 83.2388 12.964C82.8308 13.764 82.5388 14.656 82.3628 15.64C82.2668 16.216 82.2188 16.752 82.2188 17.248C82.2188 18.464 82.4948 19.588 83.0468 20.62L82.4828 21.1C82.0028 20.572 81.6428 19.956 81.4028 19.252C81.1628 18.556 81.0428 17.812 81.0428 17.02C81.0428 16.548 81.0828 16.088 81.1628 15.64ZM88.4127 19.12C88.0847 19.12 87.8367 19.036 87.6687 18.868C87.5087 18.692 87.4167 18.436 87.3927 18.1L87.2847 16.96C87.2447 16.56 87.0207 16.36 86.6127 16.36H85.8927L85.4367 19H84.2367L85.2927 13H86.4927L86.0487 15.52H86.6487C87.0807 15.52 87.3727 15.32 87.5247 14.92L87.9447 13.9C88.0887 13.556 88.2687 13.3 88.4847 13.132C88.7087 12.964 88.9887 12.88 89.3247 12.88C89.5247 12.88 89.6967 12.9 89.8407 12.94C89.9447 12.972 90.0087 12.992 90.0327 13L89.7687 13.78H89.7087L89.6367 13.756C89.6207 13.756 89.5967 13.752 89.5647 13.744C89.5327 13.728 89.5047 13.72 89.4807 13.72C89.2967 13.72 89.1567 13.84 89.0607 14.08L88.6407 15.1C88.5127 15.396 88.2927 15.616 87.9807 15.76C87.8127 15.832 87.6647 15.872 87.5367 15.88C87.7127 15.904 87.8607 15.956 87.9807 16.036C88.2687 16.204 88.4287 16.452 88.4607 16.78L88.5567 17.92C88.5807 18.16 88.6807 18.28 88.8567 18.28C88.8887 18.28 88.9447 18.272 89.0247 18.256L89.1087 18.22H89.1687L89.1567 19C89.0847 19.032 89.0127 19.052 88.9407 19.06C88.7807 19.1 88.6047 19.12 88.4127 19.12ZM90.3539 19L91.4099 13H95.3699L95.2139 13.84H92.4539L91.5539 19H90.3539ZM97.7824 15.64C97.6064 16.68 97.2344 17.68 96.6664 18.64C96.1064 19.6 95.3984 20.42 94.5424 21.1L94.1584 20.62C94.7904 19.884 95.3064 19.116 95.7064 18.316C96.1144 17.516 96.4064 16.624 96.5824 15.64C96.6784 15.072 96.7264 14.54 96.7264 14.044C96.7264 12.852 96.4504 11.724 95.8984 10.66L96.4624 10.18C96.9424 10.708 97.3024 11.324 97.5424 12.028C97.7824 12.724 97.9024 13.468 97.9024 14.26C97.9024 14.732 97.8624 15.192 97.7824 15.64ZM102.561 14.44L102.729 13.48H107.529L107.361 14.44H102.561ZM102.177 16.6L102.345 15.64H107.145L106.977 16.6L102.177 16.6Z" fill="#384047"/>
<path d="M119.88 11L123.816 2.6L125.376 2.6L126.36 11L125.16 11L124.872 8.84H122.112L121.08 11H119.88ZM124.788 8L124.404 4.7C124.388 4.604 124.38 4.496 124.38 4.376C124.38 4.248 124.38 4.168 124.38 4.136C124.38 4.008 124.384 3.916 124.392 3.86H124.344C124.312 3.988 124.284 4.084 124.26 4.148C124.188 4.356 124.116 4.54 124.044 4.7L122.508 8H124.788ZM128.668 3.32L129.808 4.04L130.06 2.6H130.9L130.648 4.04L132.028 3.32L132.328 4.04L130.936 4.76L132.076 5.48L131.524 6.2L130.396 5.48L130.132 6.92H129.292L129.556 5.48L128.164 6.2L127.876 5.48L129.256 4.76L128.128 4.04L128.668 3.32ZM134.022 2.6L136.302 2.6C137.046 2.6 137.614 2.756 138.006 3.068C138.406 3.38 138.606 3.792 138.606 4.304C138.606 4.432 138.594 4.564 138.57 4.7C138.45 5.348 138.13 5.852 137.61 6.212C137.378 6.372 137.13 6.488 136.866 6.56C137.17 6.632 137.426 6.76 137.634 6.944C138.01 7.288 138.198 7.732 138.198 8.276C138.198 8.412 138.186 8.56 138.162 8.72C138.034 9.432 137.69 9.992 137.13 10.4C136.578 10.8 135.81 11 134.826 11H132.546L134.022 2.6ZM135.666 6.2C136.122 6.2 136.498 6.08 136.794 5.84C137.09 5.592 137.274 5.252 137.346 4.82C137.37 4.7 137.382 4.592 137.382 4.496C137.382 4.16 137.274 3.9 137.058 3.716C136.85 3.532 136.55 3.44 136.158 3.44L135.078 3.44L134.586 6.2H135.666ZM134.97 10.16C136.13 10.16 136.802 9.64 136.986 8.6C137.01 8.456 137.022 8.32 137.022 8.192C137.022 7.424 136.522 7.04 135.522 7.04H134.442L133.89 10.16H134.97ZM140.492 3.32L141.632 4.04L141.884 2.6H142.724L142.472 4.04L143.852 3.32L144.152 4.04L142.76 4.76L143.9 5.48L143.348 6.2L142.22 5.48L141.956 6.92H141.116L141.38 5.48L139.988 6.2L139.7 5.48L141.08 4.76L139.952 4.04L140.492 3.32ZM147.046 11.12C146.23 11.12 145.606 10.9 145.174 10.46C144.75 10.012 144.538 9.304 144.538 8.336C144.538 7.888 144.586 7.376 144.682 6.8C144.938 5.312 145.39 4.22 146.038 3.524C146.694 2.828 147.498 2.48 148.45 2.48C149.026 2.48 149.522 2.592 149.938 2.816C150.138 2.92 150.302 3.028 150.43 3.14L149.878 3.86H149.758C149.662 3.78 149.542 3.692 149.398 3.596C149.078 3.412 148.75 3.32 148.414 3.32C147.15 3.32 146.306 4.48 145.882 6.8C145.778 7.344 145.726 7.832 145.726 8.264C145.726 9.608 146.254 10.28 147.31 10.28C147.662 10.28 148.022 10.192 148.39 10.016C148.598 9.904 148.75 9.812 148.846 9.74H148.966L149.254 10.46C149.086 10.58 148.882 10.692 148.642 10.796C148.178 11.012 147.646 11.12 147.046 11.12Z" fill="#384047"/>
<path d="M123.048 27.62C121.528 27.62 120.768 26.932 120.768 25.556C120.768 25.3 120.792 25.028 120.84 24.74L121.224 22.58C121.44 21.364 121.844 20.46 122.436 19.868C123.036 19.276 123.784 18.98 124.68 18.98C125.288 18.98 125.8 19.092 126.216 19.316C126.416 19.412 126.584 19.52 126.72 19.64L126.168 20.36H126.048C125.96 20.272 125.84 20.184 125.688 20.096C125.352 19.912 125.004 19.82 124.644 19.82C124.1 19.82 123.636 20.04 123.252 20.48C122.868 20.912 122.592 21.612 122.424 22.58C122.568 22.492 122.72 22.412 122.88 22.34C123.232 22.18 123.628 22.1 124.068 22.1C124.74 22.1 125.26 22.272 125.628 22.616C125.996 22.952 126.18 23.436 126.18 24.068C126.18 24.316 126.16 24.54 126.12 24.74C125.952 25.692 125.604 26.412 125.076 26.9C124.548 27.38 123.872 27.62 123.048 27.62ZM123.18 26.78C123.596 26.78 123.96 26.612 124.272 26.276C124.584 25.94 124.8 25.428 124.92 24.74C124.96 24.524 124.98 24.348 124.98 24.212C124.98 23.796 124.864 23.48 124.632 23.264C124.408 23.048 124.092 22.94 123.684 22.94C123.308 22.94 122.968 23.02 122.664 23.18C122.536 23.244 122.404 23.324 122.268 23.42L122.04 24.74C122 24.948 121.98 25.176 121.98 25.424C121.98 26.328 122.38 26.78 123.18 26.78ZM129.578 27.62C128.882 27.62 128.338 27.396 127.946 26.948C127.562 26.5 127.37 25.804 127.37 24.86C127.37 24.404 127.418 23.884 127.514 23.3C127.77 21.82 128.214 20.732 128.846 20.036C129.486 19.332 130.238 18.98 131.102 18.98C131.798 18.98 132.338 19.204 132.722 19.652C133.114 20.092 133.31 20.784 133.31 21.728C133.31 22.208 133.258 22.732 133.154 23.3C132.898 24.78 132.454 25.872 131.822 26.576C131.19 27.272 130.442 27.62 129.578 27.62ZM129.722 26.78C130.226 26.78 130.666 26.52 131.042 26C131.426 25.48 131.73 24.58 131.954 23.3C132.066 22.66 132.122 22.096 132.122 21.608C132.122 20.96 132.018 20.5 131.81 20.228C131.61 19.956 131.322 19.82 130.946 19.82C130.442 19.82 129.998 20.08 129.614 20.6C129.238 21.12 128.938 22.02 128.714 23.3C128.602 23.94 128.546 24.504 128.546 24.992C128.546 25.64 128.646 26.1 128.846 26.372C129.054 26.644 129.346 26.78 129.722 26.78ZM136.539 27.62C135.843 27.62 135.299 27.396 134.907 26.948C134.523 26.5 134.331 25.804 134.331 24.86C134.331 24.404 134.379 23.884 134.475 23.3C134.731 21.82 135.175 20.732 135.807 20.036C136.447 19.332 137.199 18.98 138.063 18.98C138.759 18.98 139.299 19.204 139.683 19.652C140.075 20.092 140.271 20.784 140.271 21.728C140.271 22.208 140.219 22.732 140.115 23.3C139.859 24.78 139.415 25.872 138.783 26.576C138.151 27.272 137.403 27.62 136.539 27.62ZM136.683 26.78C137.187 26.78 137.627 26.52 138.003 26C138.387 25.48 138.691 24.58 138.915 23.3C139.027 22.66 139.083 22.096 139.083 21.608C139.083 20.96 138.979 20.5 138.771 20.228C138.571 19.956 138.283 19.82 137.907 19.82C137.403 19.82 136.959 20.08 136.575 20.6C136.199 21.12 135.899 22.02 135.675 23.3C135.563 23.94 135.507 24.504 135.507 24.992C135.507 25.64 135.607 26.1 135.807 26.372C136.015 26.644 136.307 26.78 136.683 26.78ZM143.5 27.62C142.804 27.62 142.26 27.396 141.868 26.948C141.484 26.5 141.292 25.804 141.292 24.86C141.292 24.404 141.34 23.884 141.436 23.3C141.692 21.82 142.136 20.732 142.768 20.036C143.408 19.332 144.16 18.98 145.024 18.98C145.72 18.98 146.26 19.204 146.644 19.652C147.036 20.092 147.232 20.784 147.232 21.728C147.232 22.208 147.18 22.732 147.076 23.3C146.82 24.78 146.376 25.872 145.744 26.576C145.112 27.272 144.364 27.62 143.5 27.62ZM143.644 26.78C144.148 26.78 144.588 26.52 144.964 26C145.348 25.48 145.652 24.58 145.876 23.3C145.988 22.66 146.044 22.096 146.044 21.608C146.044 20.96 145.94 20.5 145.732 20.228C145.532 19.956 145.244 19.82 144.868 19.82C144.364 19.82 143.92 20.08 143.536 20.6C143.16 21.12 142.86 22.02 142.636 23.3C142.524 23.94 142.468 24.504 142.468 24.992C142.468 25.64 142.568 26.1 142.768 26.372C142.976 26.644 143.268 26.78 143.644 26.78Z" fill="#384047"/>
<line x1="155" y1="15" x2="115" y2="15" stroke="#87939B"/>
</svg>
